<svg width="406" height="527" xmlns="http://www.w3.org/2000/svg" xmlns:xlink="http://www.w3.org/1999/xlink"><defs><path d="M35.682 0L406 87.928v438.555L0 460.442V8.284L35.682 0z" id="a"/></defs><g fill="none" fill-rule="evenodd"><mask id="b" fill="#fff"><use xlink:href="#a"/></mask><use fill="#D8D8D8" xlink:href="#a"/><g mask="url(#b)"><g transform="translate(-361 -8)"><path d="M461.603 153.035c.31.27.65.58 1 .93-.32-.34-.66-.64-1-.93z" fill="#1580F2" fill-rule="nonzero"/><path d="M715.172 1.005s-.913 2.452.812 8.439c1.725 5.986 9.33 9.737 9.13 13.798-.2 4.061.607 9.842 2.131 12.48 1.52 2.637 3.45 6.593-3.199 5.796-15.082-1.865-8.749-9.712-18.987-12.199-10.239-2.492-22.287-5.26-23.832-13.006C679.302 6.67 650.342 1.13 650.342 1.13l64.83-.125H547.536c4.909 10.239-2 15.478-2 15.478 3.89 2.748 1.865 7.105.672 9.04.335.341.671.682 1.007 1.028 3.73.281 13.362 1.966 25.621 11.377 15.844 12.159 10.91 27.777 10.91 27.777 6.73-.526 5.772 8.153 5.466 10.139 22.733 9.521 19.008 15.904 24.022 21.249 5.65 6.027 11.682 3.39 14.886 8.444 3.204 5.054 8.102 6.628 10.173 10.775 2.071 4.146-.19 5.089-5.089 5.089-4.898 0-3.39.752-14.696-5.09-11.306-5.84-20.16-6.969-28.449-7.61-8.288-.642-7.912-7.276-16.766-8.219-8.855-.942-13.563-1.509-22.799-8.854-9.23-7.35-13-5.465-23.36-9.988-10.363-4.523-4.913-12.85-20.22-13.132-15.308-.28-31.177-.28-46.254-18.928-15.077-18.647-26.95-24.493-53.95-29.783-27-5.29-47.055-18.526-47.055-18.526l137.28-.226-.034-.045H.608v259.614c3.7-1.52 8.584-1.168 12.555.652 15.162 4.558 33.046 22.247 56.16 21.956 21.72-.27 32.721 12.164 64.73 16.957 14.395 2.156 29.823 2.247 45.426 1.058 19.299-1.534 38.693-4.984 56.718-8.91.276-2.085.697-3.96 1.344-3.96.947 0 1.795 1.047 2.276 3.163.757-.17 1.509-.336 2.261-.506-.04-2.988.045-5.696.497-5.696.466 0 .902 2.622 1.233 5.3 13.808-3.164 26.644-6.493 37.81-9.306.17-1.143.421-2.096.782-2.096.527 0 .998.526 1.309 1.574 17.558-4.397 30.7-7.345 36.531-6.001.672.155 4.523 1.855 5.26 2.04 18.471 3.911 33.533 5.34 46.128 5.57l.772.016c3.159.045 6.162.02 9.02-.06 20.738-.647 32.896-4.478 45.32-2.362h-.004c2.442.326 4.808.863 7.15 1.69 14.635 5.164 26.749 7.39 37.193 7.656.23-1.349.426-2.351.531-2.808.487-2.075 1.876-10.283 1.876-10.283l-2.086-10.695c-2.487-5.691-3.129-5.546-9.411-16.687-6.283-11.14-13.633-17.188-13.633-17.188l-5.45 6.995c-.462-.085-.943-.2-1.43-.336-.024-.005-.05-.015-.07-.02-.11-.03-.225-.065-.335-.095l-.296-.09c-.045-.016-.09-.026-.136-.04-1.74-.542-3.118-1.164-3.118-1.164-.441 1.063-5.872 14.13-6.007 13.984-.632-.697-1.304-1.8-1.695-3.023-.05 1.022-.045 4.653 2.417 6.092l-.01.01.456.195c.457.136 1.214-.37 1.79-.687 2.156-1.163 4.98-3.284 6.193-4.833.456-.587 2.05-3.886 2.893-3.906.41-.01.787.24 1.047.662.046.245.271 1.83-.952 3.484-.451.612-2.973 2.818-3.395 4.799l4.598.03c1.92-.13 1.524 1.454.617 1.795-1.073.401-3.655.792-5.851 1.073 2.146.827 4.166 1.6 4.166 1.6 1.845.556.913 1.9-.055 1.9-1.409 0-5.941-.602-8.935-1.023l-.075.276c2.562 1.404 6.287 3.424 6.287 3.424 1.755.792.657 2.006-.3 1.875-1.264-.17-4.99-1.153-7.847-1.935l-.115.095c.621.522 1.328 1.108 2.025 1.69.045-.025.085-.055.13-.08l-.12.09c1.835 1.524 3.6 2.983 3.6 2.983 1.524 1.179.176 2.101-.727 1.755-1.263-.486-4.898-2.722-7.456-4.337-1.67 1.123-7.235 1.153-7.305 1.158.015.005.03.01.04.015-.025-.01-.045-.015-.045-.015h.005c-1.123-.336-2.266-1.103-3.73-2.903-1.259-1.544-1.219-3.926-1.219-3.926-.346-6.342 1.134-7.3 3.636-9.787 1.318-1.309 4.557-8.68 7.57-16.872.677-1.845 1.946-3.84 2.533-5.771 5.941-19.615 10.995-19.745 15.197-22.227 3.77-2.838 10.414-5.676 10.414-5.676l.105-.045.431-.196.05-.015.717-.31 4.693 7.48c.381-1.93.311-8.002 4.703-8.834 4.944-.938 6.955-3.605 6.498-9.331a1.383 1.383 0 0 1 1.43-1.485c.23.01.436.016.556.016.677 0 .567.18.727 2.617.346 5.275 1.66 5.009 1.279 8.193-.647 5.36-1.91 8.268-2.623 12.113 2.567-2.436 4.312-5.921 5.43-9.185.01-.03.02-.06.03-.095.066-.196.13-.386.19-.577.011-.035.026-.075.036-.11a46.73 46.73 0 0 0 .216-.707c.055-.186.105-.366.155-.552l.03-.11c.115-.426.22-.842.311-1.244.471-2.015.677-3.715.677-4.678l-.842-.075h.005l.842.075c2.387.186 5.811.818 9.03 1.5.296.06.521.105.667.14 1.735.376 3.384.757 4.743 1.078a62.77 62.77 0 0 1 3.47.817c1.945.482 3.956 1.028 5.79 1.655.026.005.04.01.04.01h-.004c2.507.852 4.688 1.85 5.921 2.998l6.192 5.486 1.745 1.464c.507.426.823 1.032.883 1.69l.015-.026-.05 5.225v.005l-3.911 1.424c-2.307 6.563-5.335 6.874-5.335 6.874l-4.267-2.016 1.163 9.928c1.635 12.4 4.408 31.678 4.408 31.678v.005c.09 3.32 2.858 6.684 4.928 10.099.502.827.993 1.905 1.454 3.128 9.336-4.823 18.667-9.802 29.853-12.84a191.095 191.095 0 0 1 11.507-2.733l-5.029-8.348c.988-.076 1.926-.231 2.793-.432a17.607 17.607 0 0 0 3.274-1.088c.005 0 .01-.005.01-.005h.005c.03-.01.06-.03.085-.04l5.27 8.69c13.031-2.302 22.728-3.039 30.49-6.64.962-1.197 1.985-2.476 2.607-3.203 1.303-1.53 4.026-1.7 4.026-1.7.01-.742.07-1.424.17-2.05.346-5.887 4.799-6.75 7.195-8.043 3.465-1.875 12.35-6.092 12.35-6.092-.065-.943-.04-2.191.01-3.284.085.35 2.381 1.765 3.39 2.316.636.346 1.82.602 2.757.12.837-.425 2.251-2.205 4.116-3.604.782-.587 1.71-1.048 2.512-1.484l.025-.01c1.364-.667 3.605 4.527 3.605 4.527v-.015a1.776 1.776 0 0 0 1.35 1.163s8.849 1.013 11.646 1.384c3.901.517 9.276 1.319 10.038 10.073.19 1.595.21 3.475-.085 5.656-.18.06-.361.13-.531.2-.03.01-.056.026-.086.036-.1.04-.2.085-.3.13-.517.236-.993.501-1.424.777-.046.03-.09.055-.136.086-.04.025-.075.05-.11.075a13.036 13.036 0 0 0-1.81 1.479c-.025.025-.045.045-.07.065-.05.05-.09.095-.136.135-.065.07-.125.13-.175.186-.13.145-.2.23-.206.23l.281 7.286.015.346s0 .01.005.02c.035.19.622 3.294 2.086 6.002 3.49 6.463 8.784 12.946 13.262 17.498a46.524 46.524 0 0 0 5.856 4.974c.216.216.426.432.632.652l.015.015a21.564 21.564 0 0 1 .987 1.123c.291.356.567.717.818 1.078 0 .005.005.005.005.01.12.176.23.351.34.527.016.025.03.05.046.08.09.155.18.31.26.461.016.03.03.066.05.096.076.15.146.3.211.456.02.05.045.1.065.15.02.045.036.09.056.136.055.15.105.295.145.446.095.34.206.672.32.993.006.015.01.035.02.05.116.316.242.622.372.917.005.01.01.02.01.025.236-.676 2.321-1.62 1.61-3.123-.743-1.565-1.33-1.088-2.708-1.575-1.54-2.883-5.5-5.826-7.235-8.463-2.512-3.886-5.44-8.725-6.318-11.402-1.755-5.365-2.451-11.918-2.451-11.918l-2.788 3.97c-1.214-1.639-1.98-2.852-1.845-5.92.09-2.087.847-8.304.852-8.309 0 0 .31.612.812 1.554 17.97 9.527 36.472 16.562 54.812 21.676l-.02-.602.076-.06-.08-.065-.036-1.063 2.392-.146a1.642 1.642 0 0 1-.687-1.263c-.005-.26.055-.506.17-.722l-1.98-.547-.01-.315-.13-.046 3.82-2.822 3.184 3.284-.155.025v.22l-1.85.301c.135.23.21.492.215.762.005.472-.21.883-.556 1.149l2.216.33v1.023l-.045.055.045.066.005 1.85 1.083.135v.296l-.326.1c11.336 2.858 22.572 5.01 33.553 6.584l.376-3.17.165-.104-.135-.16.28-2.357 4.609.4a2.652 2.652 0 0 1-.727-2.15 2.669 2.669 0 0 1 1.158-1.9l-4.407-2.197.085-.727.376-.005-.506-.215 7.184-3.48 4.834 6.829-.2-.015-.05.446-3.345-.27c.145.38 1.795 3.469-.687 3.795-.005.005-.005.01-.01.01-.02.015-.04.03-.06.05a1.93 1.93 0 0 1-.116.095c-.015.01-.025.02-.04.03l.136.01 3.58 1.023-.22 1.916-.131.085.11.11-.396 3.445c68.224 7.466 123.448-6.122 123.448-6.122V1.005H715.172zm-430.496 166.65c-2.988 2.627-28.298-10.926-36.145-10.364-7.847.561-25.751 6.287-38.938-5.11-16.386-14.164-18.125-18.546-25.516-20.376-26.453-6.548-21.83-17.334-33.247-24.193-7.526-4.522-17.915-1.088-26.378.271-22.518 3.615-21.18-22.518-42.539-16.691-21.359 5.826-37.86 6.473-51.127-7.12C20.89 73.933 12.987 68.478.603 66.362V1.286h66.575s2.617-.105 6.879 0h5.284s.15.075.416.24c20.227 1.194 58.337 7.07 64.525 34.21 2.842 12.456 3.083 21.546 2.146 28.134-.371 2.628 2.21 4.668 4.703 3.75 3.198-1.182 6.849-1.278 10.795.788 13.723 7.185 14.374 22.217 14.374 22.217s5.882-4.573 11.763 0 24.83-14.375 35.283 7.842c0 0 16.987-6.995 24.177 22.964.361 1.51.532 2.863.542 4.081 3.038 3.6 5.224 7.416 6.377 10.259 3.244 8.012 36.798 26.108 30.234 31.884zm197.113 3.94l-.612 5.25a2.13 2.13 0 0 0-.567-1.178c.281.306.462.712.562 1.178l.005.005v.01c.286 1.364-.12 3.22-.807 4.448-.1.18-.2.366-.301.541v-.005c.055-.1.09-.16.09-.16-.516.707-1.324 1.268-1.73 1.885-1.288 2.036-4.07 1.374-4.161-1.243.11-1.184.37-2.462.917-3.535.828-.015.527 2.918 1.053 2.843.527-.075.828-1.279 1.053-2.938.136-.983.903-1.53 1.504-1.81.221-.106.15-.437-.095-.447-.963-.05-1.78.421-2.166.692-.15.106-.24.186-.24.186l-3.21-4.97c.562 2.122.427 4.163-.43 5.386-.01.015-3.48 4.863-4.227 6.894-.116.316.275.572.516.336.697-.667 2.417-2.271 3.264-2.482 0 0 .326 1.99.11 5.08a6.42 6.42 0 0 1-1.97 4.221c-2.146 2.066-5.746 4.382-10.91 4.262l-1.063-.06c-3.304 0-3.45-2.03-5.17-4.623-1.424-1.66-3.48-5.255-4.191-8.574 0-1.419 1.038-5.475.18-8.007-.286-.848-.235-1.48-.18-1.966-.577-1.399-.813-4.748-.813-4.748l1.585-3.364c.501-5.416 3.404-10.36 10.048-10.555a30.45 30.45 0 0 1 2.251.015c11.116.502 15.598 4.889 18.14 9.336 2.347 4.137 1.565 8.098 1.565 8.098zm82.288 72.99s-.536 2.983-2.662 2.531l.035.01c-.667-.175-2.04-.44-2.07-.446-.793-2.517-3.024-3.118-3.03-3.118-.05.942-.776 2.331-1.624 3.229-2.667 2.812-6.874-1.68-7.596-4.513-2.898-11.362-16.927-15.804-16.927-15.804-7.536-1.494-11.562-7.782-11.562-7.782l4.252-1.775-1.048-2.08c-.005-.006-.005-.016-.005-.02l-.03-5.807c2.06 1.82 11.968 10.565 14.515 12.365 2.848 2.01 10.62 11.452 13.538 15.272 1.835 2.402 3.39 3.485 4.297 3.956.25.186.697.311.812.341h.01a.05.05 0 0 0 .02.005l.968-.075-.06-.185a.828.828 0 0 0-.542-.552c-.777-.24-1.399-.07-1.414-.065-.195-.431.09-.958.642-1.073 1.925-.446 3.179-.126 3.179-.126 4.497 1.104 5.906 3.565 6.302 5.711zm77.901-28.886c-1.057 1.278-.44 2.221-1.549 2.757-.02.006-1.96.331-1.785-2.166.472-2.802-.41-3.028-.33-4.121l-.753-1.103-.01-.01c-.406.652-.165 2.577-.165 2.577-.14 1.013-1.484 1.168-1.4 2.256.262 3.415.557 6.218-3.945 8.384 0 0-1.269 1.359-2.266 1.62-.517.135-2.126.365-2.653.135-1.634-.717-2.542-1.234-2.542-1.234s-3.254-2.828-4.307-7.28c-.36-1.524-.421-7.015-.366-9.888 0 0-.326-1.248-.316-1.464.05-.907.732-7.02 7.39-8.498.01 0 .02-.006.03-.006.467-.1.959-.18 1.485-.235h.015c.266-.025.537-.045.812-.06h.12c.246-.01.497-.015.758-.015 1.855.01 3.43.37 4.753.932a10.65 10.65 0 0 1 1.78.958c.216.145.426.29.627.446a9.897 9.897 0 0 1 .982.853 11.734 11.734 0 0 1 1.645 2.015c.08.125.155.25.226.371.075.13.15.26.215.381.336.632.527 1.158.592 1.47.396 1.88.26 4.612.28 5.63 0 .07.006.13.006.186 0 0 .897.14 1.363 1.328.321.772.432 2.432-.692 3.78zm152.785-26.98c-.712 3.464-38.257-20.733-40.006-24.163-1.75-3.43-11.758-4.778-15.594-6.804-3.84-2.025-13.297-21.27-29.291-20.963-15.994.31-24.533-17.138-26.348-25.592-1.82-8.453-13.718-7.31-16.661-13.417 0 0-5.01-8.278 3.484-10.374 8.489-2.096 13.367 5.821 21.2 6.613 7.83.793 26.448 3.25 37.473 16.752 13.703 16.772 14.746 21.204 21.625 24.468 6.88 3.265 5.455 10.244 11.853 16.236 6.398 5.991 32.977 33.779 32.265 37.244z" fill="#1580F2" fill-rule="nonzero"/><path d="M772.075 279.713l.396-3.446-.11-.11.13-.086.221-1.916-3.583-1.023-.135-.01c.015-.01.025-.02.04-.03.04-.03.08-.06.115-.096.02-.015.04-.03.06-.05.006-.005.006-.01.01-.01 2.49-.326.834-3.416.688-3.797l3.347.27.05-.446.2.015-4.836-6.832-7.19 3.481.506.216-.376.005-.086.727 4.411 2.198a2.67 2.67 0 0 0-1.16 1.9c-.094.824.197 1.601.728 2.153l-4.61-.401-.282 2.357.136.16-.166.106-.376 3.17c-10.984-1.575-22.23-3.727-33.58-6.586l.327-.1v-.296l-1.084-.136-.005-1.85-.045-.066.045-.055v-1.024l-2.218-.33c.346-.266.562-.678.557-1.15a1.56 1.56 0 0 0-.216-.762l1.852-.3v-.222l.155-.025-3.186-3.285-3.823 2.824.13.045.01.316 1.982.547c-.115.21-.18.456-.17.722.014.507.28.968.687 1.264l-2.394.146.036 1.063.08.065-.075.06.02.603c-18.355-5.117-36.871-12.155-54.855-21.686 1.44 2.714 4.461 8.157 6.187 9.591 5.54 4.61 7.472 13.048 8.54 16.84 1.07 3.797 7 11.98 9.374 14.231 2.373 2.253 6.984 4.284 7.471 5.197 1.089 2.047.903 6.527.582 7.75-.08.302-.256.698-.477 1.14l.005-.006s-.742 1.555-1.54 2.699c-.1.17-.206.336-.301.497-.607 1.003-2.072.637-1.786-.096.115-.29.286-.637.471-.998.186-.361.442-.978 1.11-1.946 0 0-1.19.09-2.675.09v-.005c-1.646.015-3.538-.045-4.075-.386-.622-.392-.868-1.997 1.124-1.766 1.23.14 1.992.015 2.399-.105.045-.015.29-.096.381-.15 0 0-4.45-2.338-6.704-7.375-.005-.01-.005-.02-.01-.03a15.22 15.22 0 0 1-.371-.918c-.005-.015-.01-.035-.02-.05a14.377 14.377 0 0 1-.321-.993 5.762 5.762 0 0 0-.146-.447 1.535 1.535 0 0 0-.055-.135 12.022 12.022 0 0 0-.276-.607c-.015-.03-.03-.065-.05-.095a6.019 6.019 0 0 0-.261-.462c-.015-.025-.03-.05-.045-.08-.106-.176-.22-.351-.341-.527 0-.005-.005-.005-.005-.01a15.278 15.278 0 0 0-.818-1.079c-.045-.05-.086-.105-.13-.155a25.241 25.241 0 0 0-.859-.968l-.015-.015c-.206-.22-.416-.437-.632-.652-.105-.076-3.096-2.167-5.86-4.977-4.487-4.554-9.786-11.04-13.273-17.507-1.46-2.708-2.052-5.813-2.087-6.004 0 .025 0 .055.005.08.11 1.515 1.49 20.537 1.69 21.535.773 3.803 1.11 6.11 1.606 6.968 2.605 4.48 4.215 15.285 3.453 21.079-.658 5-4.822 10.107-8.124 15.505-.281.462-.562.923-.843 1.39-.271.446-.537.898-.798 1.344-.15.256-.296.512-.447.767a65.06 65.06 0 0 0-.868 1.53c-.06.11-.125.226-.19.337-.191.346-.377.687-.557 1.028-.045.085-.096.17-.136.256-.18.35-.356.692-.527 1.033-.035.075-.075.15-.115.226a162.94 162.94 0 0 0-.582 1.219c-.146.326-.286.642-.417.953-.03.075-.065.15-.095.226a34.46 34.46 0 0 0-.396 1.033h244v-60.412c.015 0-55.251 13.595-123.528 6.125zm-390.472 1.698c-2.857.16-5.849.22-9 .12 3.176.11 6.168.06 9-.12z" fill="#453B69" fill-rule="nonzero"/><path d="M469.45 306.988c0-4.874 1.334-13.988 2.153-18.766-10.461-.267-22.583-2.505-37.235-7.697a35.045 35.045 0 0 0-7.158-1.699c-3.594 1.1-7.274 11.926-19.637 9.305-4.573-.968-6.801-3.574-17.006-2.087-7.148 1.039-13.508-2.308-19.02-4.803.166.005.327.005.493.01-12.61-.237-27.688-1.669-46.18-5.6.01 0 .02.005.03.01-4.237 2.6-10.621 5.459-10.551 12.425 3.353-2.147 8.724-2.5 8.724-2.5s-4.578 3.856-2.836 6.205c1.742 2.349 8.503 5.413 4.799 6.512-1.903.56-4.719-.318-7.013-1.31 4.161 5.907 9.854 17.273-18.813 4.974-10.596-4.546-32.753-7.323-55.336 1.71-1.41.564-2.75 1.103-4.025 1.612l-18.337-.73 10.305 3.926c-27.833 10.943-9.155 1.154-53.157-8.302h.025c-15.62 1.195-31.066 1.104-45.477-1.063-32.045-4.814-43.058-17.32-64.802-17.048-23.135.293-41.04-17.49-56.224-22.072-1.622 2.062-3.936 4.153-3.509 8.62.683 7.177-4.894 7.812-9.06 10.186V334h470.322c-3.002-7.974-1.476-21.22-1.476-27.012zm40.956 23.997s2.118-2.43 2.363-2.843a.38.38 0 0 0 .04-.176c.006-.076 0-.177 0-.287-.035-.972-.155-3.13 3.247-4.802a7.246 7.246 0 0 1 2.148-.619c.17-.02.336-.03.501-.035.658-.02 1.28.07 1.857.252.728.221 1.39.584 1.997 1.026 2.183 1.6 3.588 4.314 4.235 5.793.432.987.597 2.416.798 4.006l.09.7h101.92c-2.97-6.407-6.342-16.76-6.517-29.613.471-3.82-2.304-17.163-2.304-17.163-.582-4.987-1.214-10.246-1.997-15.224-11.816 2.33-31.672 1.746-46.815 5.023h-35.967l25.083 3.583c-.356.176-.712.363-1.053.549-11.506 6.346-23.81 5.274-37.051 3.946.045.598.07 1.177.07 1.716 0 4.902 1.565 7.55-5.374 22.904-4.596 10.177-8.003 16.775-9.112 17.107l-1.962 3.528 3.803.63z" fill="#453B69" fill-rule="nonzero"/><path d="M559.034 282.006c.34-.192.69-.375 1.05-.552l-25.005-3.609h35.855c15.1-3.304 34.894-2.711 46.669-5.058-1.306-8.382-3.027-15.975-5.623-20.186-.655 3.096-3.006 5.108-5.527 6.36 0 0-2.37 3.092-7.793 1.947-.085-.016-.735.09-.745.106-.085.142-.14.81-.696 1.003-.51.178-.635.345-.68.715-.02.193.09.476.385.482 1.666.035 1.166 1.277 1.166 1.277.86.02.93.882.725 1.176-.455.663-1.566 1.804-2.266 1.88-.945.101-2.446.279-3.101.137-.605-.127-1.486-1.03-1.746-1.054-.26-.026-.65.106-1.11 0-.98-.223-1.146-1.394-1.26-1.638-.12-.238-.616-.324-.881-.77-.405-.679-.12-1.155-.215-1.394-.095-.243-.66-.096-1.046-.704-.34-.537.07-.953.07-.953-.095-.096-.45-.578-.5-.917-.015-.112.02-.249.065-.38 1.476-2.119 2.311-1.115 2.311-1.115s.2 1.414 1.796 2.042c.95.294 3.246-.116 4.076-1.617.28-.506.38-1.074 1.731-.83.615.11 1.14.724 1.506 1.469.365.745 1.565.203 1.535-.999-.035-.73-1.17-1.611-2.37-3.076 0 0 4.166 1.81 7.287.912 1.276-.365 2.997-.952 4.392-2.331.085-.243.33-2.027 1.8-3.821a70.523 70.523 0 0 1 2.267-2.595c-1.826-2.904-8.629-3.903-8.694-3.913-.1.634-.16 1.318-.17 2.073 0 0-2.716.172-4.016 1.718-.62.74-1.641 2.027-2.601 3.239-7.744 3.639-17.418 4.384-30.418 6.71l3.932 6.568c.635 1.06.3 2.438-.746 3.077l-1.455.892a2.192 2.192 0 0 1-1.676.258c-.085-.02-.165-.056-.245-.086a2.212 2.212 0 0 1-.85-.568c-.015-.015-.025-.035-.04-.05a1.803 1.803 0 0 1-.23-.315l-5.082-8.545c-3.592.75-7.404 1.643-11.48 2.763-11.16 3.071-20.469 8.104-29.782 12.98 1.235 3.319 2.23 7.718 2.49 11.266 13.201 1.338 25.471 2.417 36.94-3.974zm-168.64 4.583c10.082-1.437 12.29 1.081 16.802 2.017 12.22 2.533 15.85-7.931 19.402-8.993h.005c-12.29-2.056-24.316 1.666-44.829 2.294-2.807.088-5.777.113-8.922.059l-.763-.015c-.164-.005-.323-.005-.486-.01 5.44 2.412 11.729 5.652 18.79 4.648z" fill="#FFF" fill-rule="nonzero"/><path d="M533.114 433.623l.005.01.01.025c.363 2.478-3.714 6.254-9.688 7.607-.261.06-.508.117-.75.178-.07.015-.14.035-.211.05-.166.04-.327.081-.483.122-.076.02-.146.035-.217.056-.156.04-.302.08-.448.121-.055.015-.115.03-.17.046-.197.056-.383.106-.56.162 4.057-.046 11.113-.208 12.558-.755 2.048-.776 6.935-6.345 16.321-8.028 9.387-1.683 9.518-4.272 23.796-5.438l-12.396-2.59s16.76-3.395 38.356-4.191c19.3-.71 43.902-6.852 48.914-8.15.091-.658.182-1.297.247-1.9.171-1.627.247-2.792.181-3.948l-119.571 17.024 4.106 9.599zm103.989-93.118v-.01.01z" fill="#9EB1DB" fill-rule="nonzero"/><path d="M651.625 334.467c-.09.276-.17.548-.24.809-.211.783-.327 1.497-.327 2.114 0 .402 0 .789.01 1.166l.015.552c.01.362.03.708.06 1.045.026.336.066.663.11.98.096.632.231 1.23.437 1.803a7.818 7.818 0 0 0 1.103 2.08c1.585 2.164 3.445 7.121 3.3 12.486 0 0 0 .743.004 2.004.005 1.26 5.315 21.221 6.493 23.045 1.179 1.823 4.924-.82 6.604.642 1.68 1.462 3.695 4.265 1.344 11.332-1.67 5.018-1.605 6.997-1.123 8.504l224.94-30.82v.145l-224.5 31.795c.091.21.181.427.272.658.626 1.602 1.253 7.97-1.72 11.326l2.492.01c2.667.05 10.223-4.34 15.814-3.938 5.59.402 8.74-1.35 9.838-1.627 1.098-.276 10.674.08 10.835.08.155 0-1.49.86-1.49.86 6.519-.468 12.937 1.034 13.87 1.606.932.573 5.796.518 5.796.518l-.075.924c-.743.045-5.606.261-7.356-.437-1.75-.703-9.547-1.843-10.44-.658-2.777 3.948-13.086 4.742-17.273 5.324-4.186.588-2.792 1.984-4.698 2.371-9.837 1.969-15.759 7.454-16.887 8.062-1.133.612-14.626 1.044-14.801.783-.176-.261-.176-1.135.175-1.135s4.091-.613 6.268-1.919c2.176-1.306 8.904-3.757 10.97-4.796 2.066-1.04.772-2.788.17-3.692-.932-1.402-6.492-.427-6.492-.427l-3.124.361c-.1.111-.2.216-.306.322l-.1.1c-.076.076-.15.146-.23.221-.041.036-.076.07-.116.106-.09.08-.186.16-.281.236l-.085.07c-.116.09-.23.176-.351.256-.05.036-.106.07-.16.106-.081.05-.161.105-.246.156-.06.04-.126.075-.19.11-.086.05-.176.096-.262.14-.085.046-.175.091-.265.136-.116.056-.231.106-.351.161-.08.035-.166.07-.251.1-.085.036-.17.066-.256.096-.09.035-.185.065-.28.095-.086.03-.176.056-.266.08-.16.046-.326.091-.492.136-.11.026-.215.056-.33.08-.116.026-.231.051-.352.071-.095.02-.19.035-.29.055l-.376.06c-.106.016-.211.03-.316.04-.13.016-.256.036-.391.051l.01-.01c-1.088.116-2.322.156-3.766.095-1.685-.075-2.743-.617-3.39-1.451-1.754.894-9.957 4.852-16.842 4.189-11.863-1.145-24.298.547-31.021 3.847-9.993 5.264-39.155 5.922-41.762 6.078-2.608.156-15.333 9.061-21.62 9.523a805.128 805.128 0 0 0-21.692 1.713c-.15.11-.45.2-.822.256-3.048.598-13.282 1.05-18.326-.256-1.098-.281-1.434-4.053 1.038-4.968 4.547-1.677 6.403-2.928 10.825-6.785 2.121-1.849 3.23-4.667 3.816-7.108L.603 498.924V542h332.766l560.97-164.874v.583L368.668 542h398.987l126.684-140.277v9.453l-95.888 130.819h97.152V334H651.785c-.05.156-.11.316-.16.467z" fill="#9EB1DB" fill-rule="nonzero"/><path d="M641.09 351.834l-7.232-10.64c-.506-.252-2.339-2.802-4.357-7.194H527.772c.08.587.165 1.184.275 1.791.106.567.23 1.138.391 1.7.1.354.21.703.336 1.047.38 1.032.896 2.019 1.627 2.89.176.217.351.434.516.647.02.03.04.055.065.086.146.192.29.38.431.572a23.652 23.652 0 0 1 .736 1.068c.035.05.07.105.105.156.015.025.036.05.05.076h-.004c3.585 5.58 3.826 10.685 3.26 15.41-.486 4.058-3.015 8.02-6.2 9.173v.006c-.035.015-.07.02-.11.035l-.14.045c-.196.061-.386.117-.587.152h-.005a9.964 9.964 0 0 1-.43.071c-.13.015-.26.025-.391.03-.015 0-.03 0-.045.005-.12.006-.246 0-.37-.005h-.07a3.998 3.998 0 0 1-.346-.035c-.036-.005-.066-.005-.1-.01a3.785 3.785 0 0 1-.331-.06c-.04-.01-.075-.01-.115-.021a6.182 6.182 0 0 1-.411-.111c-.01-.005-.02-.005-.03-.01-.731-.233-1.433-.785-2.099-1.554-.135-.151-.265-.318-.4-.485-1.578-2.044-2.98-5.232-4.172-8.161-.396-.977-.766-1.923-1.117-2.793-.436-1.088-.831-2.044-1.182-2.778a8.03 8.03 0 0 0-.336-.637c-.22-.385-.42-.663-.6-.784a.351.351 0 0 1-.05-.04 5.528 5.528 0 0 1-.802-.694c-.035-.03-.065-.066-.1-.096-.005-.005-.01-.015-.02-.02-1.398-1.427-2.995-3.77-3.416-4.402-.045-.056-.08-.111-.115-.157l-.015-.025c-.005-.005-.01-.01-.01-.02-.03-.046-.06-.086-.08-.122l-.015-.025a.744.744 0 0 1-.045-.076c-.005-.005-.005-.01-.01-.015-.01-.015-.015-.03-.015-.03-.3.273-.676.561-1.107.85-.145.096-.296.197-.451.293-.466.293-.982.592-1.533.895-.365.198-.75.4-1.141.597a75.818 75.818 0 0 1-4.313 1.984c-3.195 1.366-5.995 2.373-6.12 2.418 0 0-.195 5.727.952 8.798a212.67 212.67 0 0 0 2.168 5.57c.02.036.036.072.05.107 2.029 2.894 12.076 17.495 12.596 22.965a46.32 46.32 0 0 0 .501 3.612c.23 1.28.636 2.525 1.187 3.699l10.593 22.686c.005-.005.01-.005.015-.01l.085-.056c.26-.101.516-.147.766-.152 1.312-.035 2.42 1.194 3.376 2.95l119.699-16.54c-.196-1.41-.596-3.04-1.272-5.625-2.424-9.244.44-9.81.44-9.81l.04-.03c.005-.304.045-.628.116-.952.405-1.842-.01-8.955-1.668-14.632-1.352-4.63-2.65-11.115-4.082-18.558l-.025-.01-1.062-5.009zm-128.487 69.477s-5.888-12.731-11.219-18.184c-5.33-5.458-11.92-17.905-14.302-22.382-2.382-4.478-4.518-10.71-7.522-14.598-1.981-2.561-3.315-6.013-3.22-9.635.096-3.592-.556-7.154-2.266-11.591-.913-2.366-2.779-9.115-2.779-9.115-.3-.56-.571-1.17-.812-1.806H.603v160l511.739-69.817c.26-1.681.26-2.872.26-2.872z" fill="#9EB1DB" fill-rule="nonzero"/><path d="M512.603 424L1.344 493.644l-.741.1V498l.741-.105 510.873-71.944c.17-.688.29-1.352.386-1.951zm16.832-.015l.005.015 119.163-16.744c-.02-.414-.066-.827-.126-1.256l-119.874 16.295c.296.524.571 1.092.832 1.69zm365.168-50.844V373l-225 29.908c.125.38.28.731.436 1.092l224.564-30.859z" fill="#FFF" fill-rule="nonzero"/><path fill="#FFF" fill-rule="nonzero" d="M894.602665 377L333.525423 541.729006 332.602665 542 367.963369 542 368.830963 541.729006 894.602665 377.582134z"/><path d="M359.603.267s20.026 13.3 46.987 18.615c26.96 5.315 38.816 11.189 53.871 29.924 15.055 18.736 30.896 18.736 46.187 19.018 15.285.282 9.843 8.65 20.191 13.194 10.35 4.544 14.109 2.65 23.326 10.036 9.217 7.38 13.924 7.95 22.765 8.896 8.842.948 8.467 7.613 16.743 8.257 8.276.645 17.117 1.779 28.407 7.648s9.783 5.113 14.675 5.113c4.891 0 7.15-.947 5.081-5.113-2.067-4.166-6.959-5.748-10.158-10.826-3.2-5.079-9.217-2.429-14.865-8.484-5.006-5.37-1.286-11.784-23.986-21.35.305-1.995 1.261-10.716-5.458-10.187 0 0 4.922-15.693-10.894-27.91-12.241-9.455-21.86-11.148-25.584-11.43-.336-.348-.671-.69-1.006-1.033 1.191-1.945 3.214-6.322-.671-9.083 0 0 6.899-5.265 1.997-15.552H496.65l.035.045-137.081.222zm322.736 15.185c1.536 7.82 13.524 10.613 23.711 13.129 10.187 2.515 3.892 10.431 18.893 12.314 6.615.805 4.7-3.189 3.183-5.851-1.512-2.662-2.32-8.498-2.12-12.597.199-4.1-7.37-7.886-9.085-13.929-1.716-6.043-.808-8.518-.808-8.518l-64.51.121c.005.006 28.82 5.598 30.736 15.331zm80.08 135.967c-6.374-5.992-4.96-12.971-11.819-16.235-6.859-3.264-7.898-7.691-21.561-24.467-10.999-13.498-29.56-15.954-37.365-16.752-7.803-.797-12.668-8.709-21.136-6.613-8.464 2.096-3.475 10.374-3.475 10.374 2.935 6.107 14.798 4.963 16.613 13.417 1.814 8.453 10.328 25.901 26.27 25.59 15.948-.31 25.377 18.938 29.206 20.963 3.83 2.026 13.803 3.374 15.548 6.804 1.745 3.43 39.179 27.626 39.889 24.162.71-3.465-25.796-31.252-32.17-37.243z" fill="#FFF" fill-rule="nonzero"/><path d="M569.058 268.669l1.47-.908c1.055-.655 1.388-2.054.752-3.132l-3.97-6.687-5.308-8.942c-.03.015-.06.031-.086.041h-.005c-.005 0-.01.005-.01.005-.904.418-2.026.82-3.298 1.12l8.763 18.771a2.22 2.22 0 0 0 1.692-.268z" fill="#F37A78" fill-rule="nonzero"/><path d="M567.414 267.312c.016.015.026.035.042.05.251.257.56.435.89.554.084.03.168.064.257.084l-9.084-18c-.906.198-1.885.351-2.916.426l5.251 8.238 5.32 8.341c.073.114.156.208.24.307z" fill="#2A1210" fill-rule="nonzero"/><path d="M558.36 237.347s-1.236-.316-3.148.123c-.546.113-.834.635-.635 1.054.01-.005.63-.167 1.4.064a.817.817 0 0 1 .536.542l.06.183-.958.073s-.01 0-.02-.005h-.01c-.114-.03-.556-.152-.805-.335-.894-.463-2.438-1.527-4.255-3.887-2.885-3.75-10.587-13.028-13.408-15.008-2.523-1.77-12.335-10.362-14.376-12.151l.03 5.706c0 .005 0 .015.005.02l1.038 2.044-4.211 1.744s3.987 6.18 11.45 7.648c0 0 13.9 4.365 16.765 15.53.715 2.78 4.882 7.194 7.523 4.435.84-.877 1.56-2.242 1.61-3.173.004 0 2.22.59 2.999 3.064.03.005 1.39.266 2.05.439l-.034-.01c2.105.443 2.637-2.488 2.637-2.488-.393-2.104-1.788-4.524-6.242-5.612z" fill="#FFF" fill-rule="nonzero"/><path d="M522.053 213l.1-5-.03.024c.02.082.02.158.02.24l-.09 4.736zm41.065 35.495c-.01.01-.02.01-.03.01.01 0 .02 0 .03-.01zM429.728 232c-2.979 8.25-6.18 15.673-7.483 16.991-2.473 2.505-3.935 3.469-3.593 9.856 0 0-.04 2.399 1.204 3.954 1.447 1.813 2.577 2.585 3.687 2.924.07 0 5.57-.03 7.22-1.167 2.528 1.626 6.12 3.878 7.37 4.368.891.348 2.224-.58.718-1.767 0 0-1.75-1.47-3.558-3.005l.119-.09c-.045.025-.085.055-.13.08a443.831 443.831 0 0 1-2.001-1.701l.114-.096c2.824.787 6.506 1.782 7.755 1.949.951.13 2.037-1.091.297-1.889 0 0-3.682-2.035-6.214-3.449l.074-.277c2.959.424 7.439 1.025 8.831 1.03.957 0 1.878-1.353.055-1.914 0 0-1.997-.777-4.118-1.61 2.17-.283 4.722-.672 5.783-1.081.897-.344 1.288-1.94-.61-1.808 0 0-2.22-.01-4.544-.03.416-2 2.909-4.221 3.355-4.832 1.209-1.667.986-3.262.941-3.51-.257-.424-.629-.676-1.035-.666-.833.02-2.404 3.342-2.86 3.933-1.194 1.56-3.989 3.696-6.12 4.868-.575.313-1.323.828-1.769.692l-.45-.197.01-.01c-2.429-1.455-2.439-5.105-2.39-6.135.387 1.232 1.051 2.348 1.676 3.044.128.147 5.5-13.012 5.936-14.082-4.306-1.863-8.27-4.373-8.27-4.373z" fill="#FFF" fill-rule="nonzero"/><path d="M423.148 265.515c-.03-.01-.05-.02-.08-.03h-.01s.04.01.09.03z" fill="#FFF" fill-rule="nonzero"/><path d="M515.603 351a8.664 8.664 0 0 1-1-1c.33.387.668.73 1 1zm8 16c-1.513-2.254-2.857-5.77-4-9 1.143 3.23 2.487 6.746 4 9zm5-29c.467 1.072 1.101 2.096 2 3-.899-.904-1.533-1.928-2-3zm.64 30.455c-.09.03-.19.06-.28.09.09-.04.18-.06.28-.09zm1.755-25.11c.07.1.14.21.21.31-.07-.1-.14-.2-.21-.31z" fill="#453B69" fill-rule="nonzero"/><path d="M527.607 351.908c-.065 4.41.62 12.39 1.068 17.092 3.424-1.173 6.147-5.197 6.675-9.328.61-4.81.356-9.997-3.51-15.672-1.44.828-4.158 2.974-4.233 7.908z" fill="#453B69" fill-rule="nonzero"/><path d="M499.073 366.455l-.02.01c.03.04.07.09.1.14-.04-.07-.07-.14-.1-.21.01.04.02.06.02.06zM509.603 347zm1.485-1.525c.01.02.02.03.03.05-.01-.02-.02-.03-.03-.05z" fill="#FFF" fill-rule="nonzero"/><path d="M511.093 345.485c.01.01.01.02.02.03-.01-.01-.02-.02-.02-.03zm0 .995c.01.01.02.02.02.04-.01-.01-.01-.02-.02-.04zm7.47 74.582c1.57.29 2.97.1 4.04-.201-4.388-3.292-13.607-9.514-13.426-28.887.39-8.79-7.932-20.106-9.704-22.604l-1.515 5.042s-1.686-5.509-.883-8.068c.6-1.917-5.236-2.996-6.09-5.705-.388-1.235-.757-5.324-.923-7.411-1.782-.231-3.721-.718-5.509-1.636-7.846-4.044-5.276-17.562-5.27-17.592-4.868.863-7.68 2.238-7.68 2.238s1.883 6.774 2.797 9.142c1.722 4.45 2.378 8.023 2.282 11.626-.096 3.633 1.247 7.09 3.241 9.664 3.025 3.899 5.176 10.15 7.574 14.642 2.398 4.49 9.038 16.974 14.4 22.449C507.264 409.235 513.19 422 513.19 422s.056-.055.167-.135c.964-.623 2.691-1.27 5.205-.803z" fill="#FFF" fill-rule="nonzero"/><path d="M486.607 348.527c6.281 1.829 11.023-1.996 12.513-5.476 2.783-6.492-7.589-17.656-2.837-24.178-5.265-1.076-10.19-.854-10.19-.854-5.166 6.886-6.123 15.736-6.123 15.736-2.156 13.479 5.852 14.545 6.637 14.772z" fill="#FFF" fill-rule="nonzero"/><path d="M470.641 334.187c.24.638.504 1.245.808 1.813 0 0 2.778-1.376 7.587-2.24l.463-.08s.973-8.802 6.19-15.648c0 0 4.978-.221 10.3.849 0-.006 17.292-21.862 6.479-43.482-10.794-21.586-2.354-35.6-11.262-35.636l-4.739.297c11.332-5.33 13.213-8.54 15.587-11.87 1.69-2.367 3.017-6.973.543-11.931-1.142-2.29-1.616-4.637-1.675-5.787-.55-10.936 11.68-11.348 11.68-11.348-1.231-1.155-3.4-2.15-5.89-3.004-5.297-.929-14.04 1.693-14.04 1.693s2.35-2.762 3.85-3.797c-6.793-.201-14.075 1.592-14.095 1.597-.09.397-.194.804-.309 1.22l-.03.111c-.05.181-.1.367-.155.553l-.015.055c-.064.216-.13.437-.2.653-.009.035-.024.07-.034.11-.06.192-.125.382-.19.578-.01.03-.02.06-.03.096-1.905 5.626-5.665 11.91-12.26 12.377-7.291.513-10.04-6.008-11.047-10.132-3.062.457-10.918 2.432-10.918 2.432-4.18 2.481-9.207 2.617-15.118 22.268-.583 1.934-1.84 3.933-2.518 5.782 0 0 3.995 2.501 8.33 4.35.004-.02 2.303-8.208 3.904-9.188 2.504-1.612 6.878 3.934 6.878 3.934s7.312 6.058 13.562 17.22c6.25 11.161 6.883 11.016 9.362 16.717l2.075 10.715s-1.382 8.223-1.866 10.303c-.11.457-.299 1.462-.528 2.813-.818 4.762-2.14 13.844-2.14 18.702 0 5.761-1.516 18.963 1.461 26.905zm24.245-42.975l-7.471 16.441s1.84-7.65-.045-10.73c0 0 3.796-.507 7.516-5.711zM508.603 219l4 2-4-2zm-7-25c2.904.885 5.657 1.873 6 2-1.902-.758-3.985-1.418-6-2zm-43.12 4.32l-.86.39.96-.42-.1.03zm33.12-5.96c.338.09.669.19 1 .28-.218-.06-.564-.16-1-.28z" fill="#F37A78" fill-rule="nonzero"/><path d="M443.603 237.835c-.667-.18-1.34-.41-2-.67.687.26 1.354.49 2 .67z" fill="#F37A78" fill-rule="nonzero"/><path d="M482.098 190.5h.01-.01zm-1.34-16.127a2.874 2.874 0 0 0-.2-.131l-.06-.033a1.886 1.886 0 0 0-.351-.13c-.13-.037-.271-.06-.421-.075-1.289-.107-2.732 1.823-2.732 1.823-.045.028-.085.056-.126.079.386-.252 1.198-.69 2.166-.643.246.014.316.321.095.415-.601.26-1.368.769-1.504 1.682-.225 1.538-.526 2.662-1.052 2.732-.527.07-.226-2.657-1.053-2.643-.546.997-.807 2.186-.917 3.286.095 2.433 2.877 3.043 4.16 1.156.406-.578 1.213-1.096 1.73-1.753 0 0-.036.056-.09.15l.3-.504c.687-1.142 1.093-2.862.807-4.134v-.01l-.005-.004c-.1-.434-.28-.811-.561-1.096l-.045-.046a1.111 1.111 0 0 0-.14-.121zm-9.907-8.683a20.37 20.37 0 0 0-.646-.503l-.016-.015a17.658 17.658 0 0 0-.764-.529 19.05 19.05 0 0 0-.881-.534c-.236-.13-.487-.261-.744-.392l-.061-.03c-.246-.121-.508-.237-.774-.353-.041-.015-.082-.035-.123-.05-.267-.111-.544-.217-.826-.317a1.168 1.168 0 0 0-.123-.04 15.17 15.17 0 0 0-.922-.293c-.006 0-.01-.005-.021-.005a16.973 16.973 0 0 0-.969-.236l-.133-.03a18.632 18.632 0 0 0-1.19-.202 17.376 17.376 0 0 0-1.056-.11c-.056-.006-.112-.006-.169-.01a17.91 17.91 0 0 0-1.174-.041c-7.361 0-10.022 5.583-10.59 9.726-.006-.015-.016-.035-.021-.055-.057.483-.113 1.123.184 1.974.877 2.542-.184 6.615-.184 8.04.728 3.332 2.83 6.942 4.285 8.608 1.759 2.603 1.907 4.642 5.286 4.642l1.086.06c5.28.121 8.961-2.205 11.156-4.279a6.393 6.393 0 0 0 2.014-4.239c.22-3.1-.113-5.1-.113-5.1-.866.212-2.624 1.818-3.337 2.492-.246.237-.65-.02-.528-.337.764-2.039 4.311-6.907 4.322-6.922.876-1.229 1.01-3.278.44-5.407-.471-1.757-1.42-3.564-2.845-5.02a7.655 7.655 0 0 0-.563-.493z" fill="#FFF" fill-rule="nonzero"/><path d="M481.948 198c.11-.336.21-.664.31-1"/><path d="M481.913 199c.13-.34.26-.67.38-1-.12.34-.25.67-.38 1zm-23.744 1.911c1.013 4.095 3.776 10.57 11.108 10.06 6.629-.458 10.41-6.698 12.326-12.289-1.114 3.247-2.864 6.713-5.431 9.137.712-3.825 1.976-6.718 2.622-12.05.382-3.167-.932-2.903-1.278-8.15-.16-2.419-.05-2.603-.727-2.603-.12 0-.321-.005-.557-.015-.822-.025-1.494.663-1.43 1.476.457 5.691-1.549 8.35-6.498 9.282-4.393.828-4.318 6.868-4.704 8.789l-4.694-7.442-.717.31-.481.209-.105.044c.1.888.576 3.233.576 3.233.005.005 0 .01-.01.01z" fill="#FFF" fill-rule="nonzero"/><path d="M481.903 199c.14-.338.27-.67.4-1-.13.323-.26.662-.4 1zm-.83.595z" fill="#FFF" fill-rule="nonzero"/><path d="M482.068 198.61c.02-.07.05-.15.07-.22-.02.08-.05.15-.07.22zm.335-2.59c0-.004.01-.012.01-.02-.19.323-.39.657-.62 1 .22-.335.43-.661.61-.98z" fill="#FFF" fill-rule="nonzero"/><path d="M460.208 163.188c.41 0 .805.015 1.19.04.057.005.114.005.17.01a17.24 17.24 0 0 1 1.263.138 18.939 18.939 0 0 1 1.148.208c.338.071.665.153.982.24.005 0 .01.004.02.004.323.092.635.188.936.295.042.015.083.03.125.04.29.102.566.21.836.321.042.015.083.036.125.05.27.118.535.235.784.357l.062.03c.26.127.515.26.754.397-1.595-1.703-3.413-3.92-3.574-6.198-.198-2.806-.8-3.904-1.507-4.616a6.969 6.969 0 0 0-.535-.473 29.583 29.583 0 0 0-2.332-.015c-6.884.203-9.891 5.216-10.41 10.702l-1.642 3.411s.244 3.392.841 4.815l.021.056c.587-4.174 3.283-9.812 10.743-9.812z" fill="#453B69" fill-rule="nonzero"/><path d="M462.603 154c.177.145.354.294.52.463.689.698 1.276 1.775 1.468 4.526.157 2.232 1.928 4.405 3.481 6.075.309.174.602.349.87.528.268.175.521.35.754.523l.015.015a14.685 14.685 0 0 1 1.174.962c1.407 1.44 2.343 3.235 2.808 4.97l3.238 4.938s.091-.075.243-.184c.04-.03.086-.055.127-.085 0 0 1.457-2.063 2.757-1.949a2.212 2.212 0 0 1 .78.22c.02.01.04.024.06.034.07.045.141.09.202.14.05.04.096.08.142.12.015.015.03.03.045.05.36.368.532.832.572 1.17l.617-5.217s.79-3.938-1.578-8.03c-2.55-4.41-7.073-8.77-18.295-9.269z" fill="#2A1210" fill-rule="nonzero"/><path d="M524.603 419.705c.076-.06.13-.11.13-.11.3-.19.587-.29.87-.3-.289.01-.589.1-.9.3a.49.49 0 0 1-.1.11zm-10.317 24.059s3.903-5.929 6.107-7.757c2.205-1.83 4.199-1.982 4.199-1.982 1.838-.315 6.167-1.214 8.01-.553-1.512-1.296-3.737-1.656-3.737-1.656-.506-8.566-6.758-10.806-6.758-10.806l.025-.01-.05.015a8.66 8.66 0 0 1-4.009.203c-2.5-.472-4.208.178-5.16.808l-.165.137s-.005 1.21-.26 2.916c-.09.61-.216 1.286-.387 1.992-.58 2.464-1.693 5.319-3.812 7.188-4.42 3.902-6.273 5.167-10.817 6.863-2.47.925-2.134 4.74-1.037 5.025 5.04 1.32 15.266.863 18.312.259-1.95.29-5.857-.275-.461-2.642z" fill="#453B69" fill-rule="nonzero"/><path d="M514.141 350.648c.036.036.066.066.101.097.284.28.557.518.81.696.015.01.035.025.05.04.183.122.385.402.608.788.106.188.217.401.339.64.36.737.759 1.702 1.194 2.79.35.873.729 1.824 1.128 2.804 1.2 2.942 2.616 6.143 4.215 8.195.132.173.268.336.405.488.678.772 1.386 1.326 2.12 1.56.01.005.02.005.03.01.137.04.279.081.415.112a.93.93 0 0 0 .117.02c.11.02.222.046.334.061.035.005.065.005.1.01.117.016.233.026.35.036h.07c.127.005.249.005.375.005.015 0 .03 0 .046-.005.131-.005.263-.015.394-.03.005 0 .015 0 .02-.006.137-.015.279-.035.415-.066h.006c.197-.04.394-.091.592-.152.045-.015.096-.03.141-.046.036-.01.071-.02.112-.035v-.005c-.42-4.644-1.063-12.525-1.002-16.879.07-4.872 2.62-6.991 3.972-7.809h.005c-.016-.025-.036-.05-.05-.076-.036-.051-.072-.107-.107-.158a38.114 38.114 0 0 0-.744-1.072 21.453 21.453 0 0 0-.5-.66c-.168-.219-.345-.432-.522-.65-.739-.874-1.26-1.865-1.644-2.902a12.72 12.72 0 0 1-.34-1.051 18.491 18.491 0 0 1-.394-1.708 34.62 34.62 0 0 1-.278-1.798c-.03-.239-.061-.473-.092-.706-.202-1.606-.369-3.049-.804-4.045-.653-1.493-2.07-4.232-4.27-5.848a6.832 6.832 0 0 0-2.014-1.036 5.66 5.66 0 0 0-1.872-.254 5.778 5.778 0 0 0-.506.035 7.3 7.3 0 0 0-2.166.625c-3.425 1.687-3.304 3.867-3.274 4.847.005.112.005.209 0 .29a.4.4 0 0 1-.04.178c-.248.416-2.383 2.87-2.383 2.87l1.396.178s8.354-3.018 10.363 5.056c1.482 5.944-4.817 11.335-7.995 11.497-1.34.066-2.236-.802-2.676-1.371.425.63 2.034 2.982 3.45 4.42-.01.005-.005.01 0 .02z" fill="#2A1210" fill-rule="nonzero"/><path d="M511.223 346.665c-.14-.2-.22-.33-.22-.33s-.01.01-.02.01c.07.1.15.21.24.32z" fill="#FF7D75" fill-rule="nonzero"/><path d="M485.184 351.227c1.756.917 3.66 1.395 5.411 1.624.164 2.072.526 6.133.908 7.358.838 2.69 6.572 3.761 5.982 5.664-.789 2.541.868 8.01.868 8.01l1.488-5.006c1.746 2.481 9.92 13.72 9.534 22.443-.174 19.235 8.879 25.412 13.189 28.68l.05-.015a16.327 16.327 0 0 0 1.989-.857l-10.491-22.338a14.733 14.733 0 0 1-1.176-3.642 45.36 45.36 0 0 1-.496-3.557c-.516-5.385-10.47-19.762-12.475-22.612-.015-.02-.034-.05-.05-.07l.01-.004-.014-.03c-.12-.29-1.087-2.65-2.148-5.485-1.136-3.024-.943-8.659-.943-8.664.124-.044 2.897-1.04 6.062-2.38a78.962 78.962 0 0 0 4.27-1.954c.392-.194.77-.393 1.132-.588a24.233 24.233 0 0 0 1.517-.881c.154-.095.303-.195.447-.29a10.13 10.13 0 0 0 1.096-.836l.015.03c0 .005.005.01.01.015.01.02.025.045.044.074l.015.025c.02.035.05.075.08.12.005.005.01.01.01.02.005.01.01.015.014.025l.01-.005.11.164c.431.558 1.309 1.41 2.623 1.345 3.115-.154 9.286-5.44 7.838-11.274-1.97-7.91-10.159-4.956-10.159-4.956l-1.369-.175-3.76-.617 1.94-3.493.208-.991c-.144-.244-3.626-5.42-12.113-7.104-4.782 6.436 5.65 17.441 2.852 23.843-1.498 3.427-6.264 7.203-12.579 5.4-.789-.224-8.834-1.275-6.671-14.562l-.462.08c-.005.03-2.524 13.45 5.184 17.466z" fill="#1580F2" fill-rule="nonzero"/><path d="M487.65 308l7.953-16c-3.96 5.064-8 5.558-8 5.558 2.012 2.997.047 10.442.047 10.442zm-46.062-80.712c-1.629.96-3.98 8.98-3.985 9-.005.02 1.4.61 3.166 1.141.046.015.091.03.137.04.097.03.199.059.3.088.118.035.23.064.342.094.025.005.05.014.07.02.474.127.968.24 1.452.329l5.533-6.864c.005.005-4.46-5.427-7.015-3.848z" fill="#2A1210" fill-rule="nonzero"/><path d="M483.603 190.575c-.072-.02-.465-.07-1-.15.589.09 1 .15 1 .15zm-3.5-9.07v-.01.01z" fill="#CE3D47" fill-rule="nonzero"/><path d="M482.603 195.769c.02-.006 7.515-1.824 14.507-1.62-1.54 1.049-3.963 3.851-3.963 3.851s8.994-2.654 14.45-1.717h.006s-.016-.005-.041-.01c-.344-.107-3.06-.937-5.93-1.681a64.682 64.682 0 0 0-3.552-.83c-1.391-.332-3.08-.72-4.856-1.096-.226-.051-.457-.097-.683-.143-3.296-.693-6.802-1.334-9.245-1.523 0 .978-.21 2.705-.693 4.753v.016zm-25.02 5.67c.005 0 .015 0 .02-.004 0 0-.477-2.492-.577-3.435 0 0-6.655 3-10.423 6 0 .005 7.898-2.078 10.98-2.56zm43.858 9.92c.062 1.151.543 3.494 1.72 5.79 2.54 4.962 1.173 9.57-.557 11.938-2.438 3.328-4.373 6.545-16.001 11.877l4.864-.296c9.145.035.481 14.058 11.562 35.657 11.1 21.633-6.652 43.502-6.652 43.507 8.761 1.694 12.356 6.916 12.504 7.168l-.215 1c1.132-.332 4.603-6.921 9.298-17.084 7.082-15.336 5.484-17.985 5.484-22.875 0-.538-.025-1.116-.071-1.714-.272-3.519-1.286-7.881-2.55-11.174-.471-1.226-.973-2.312-1.485-3.136-2.12-3.423-4.946-6.796-5.033-10.123v-.005s-2.832-19.326-4.501-31.756l-1.188-9.952 4.357 2.02s3.093-.311 5.448-6.89l3.994-1.428v-.005l.046-4.966c0-.086-.005-.166-.01-.252a2.508 2.508 0 0 0-.901-1.694l-1.782-1.467-6.324-5.499c-.015.01-12.57.417-12.007 11.36zm161.992 181.482c-2.049 1.183-3.047.903-3.613.205-.285-.35-.321-4.141-2.986-4.222.005.12.015.236.035.356 0 .01.006.02.006.03.015.106.035.216.06.321l.031.116c.02.08.041.16.072.24.04.116.086.231.137.346 0 .005.005.01.005.015.204.442.413 1.003.413 1.43 0 .315-.056.576-.209.782-.25.33-.749.511-1.666.511a3.33 3.33 0 0 1-.316-.015c-.03-.005-.066-.005-.097-.01-.071-.01-.143-.015-.214-.025l-.107-.015a3.208 3.208 0 0 1-.214-.04c-.036-.005-.071-.015-.107-.02-.01 0-.02-.005-.036-.005a1.21 1.21 0 0 0-.01.135c-.377 7.296 6.767 8.47 8.215 16.603 1.442 8.124-2.976 8.81-6.65 12.421.127-.015.264-.025.387-.04.107-.015.214-.025.32-.04l.383-.06c.102-.015.199-.036.296-.056.122-.025.239-.045.356-.07.117-.025.224-.055.337-.08.173-.04.341-.085.499-.135.092-.025.183-.056.27-.08.097-.03.194-.066.285-.096.087-.03.174-.065.26-.095.087-.035.174-.065.255-.1.122-.05.24-.106.357-.16.092-.046.183-.091.27-.136.092-.045.178-.096.265-.14.066-.036.127-.076.193-.111.087-.05.169-.1.25-.155.056-.036.112-.07.163-.106.123-.085.245-.17.357-.256.03-.02.056-.045.087-.07.096-.075.193-.155.285-.235.04-.036.081-.07.117-.106.082-.07.158-.145.235-.22.035-.035.07-.066.101-.1a9.31 9.31 0 0 0 .311-.322c.102-.11.016-.02.036-.05a7.743 7.743 0 0 0-.036.05l3.175-.36 1.916-1.916 1.432.005c3.022-3.35 2.385-9.708 1.748-11.308a21.81 21.81 0 0 0-.275-.657 11.996 11.996 0 0 1-.444-1.123c-.489-1.504-.555-3.475 1.142-8.49 2.39-7.055.341-9.853-1.366-11.312-1.707-1.46-6.711-.642-6.711-.642 1.187 1.8 3.139 7.793-.005 9.613zm.214 24.791zm.988-10.84zm-.448 9.557zm.321-1.023zm.525-5.662zm-.138 3.821z" fill="#2A1210" fill-rule="nonzero"/><path d="M660.293 419.39c-.12.08-.25.15-.38.22m2.275-.18l-.17.14m-.755-.175c-.1.07-.21.14-.32.21m1.275-1.21c-.08.07-.15.14-.23.21m-1.62 1.76c-.17.09-.35.18-.53.27m-2.385.795c-.23.05-.46.1-.7.14m2.6-1.17c-.16.07-.33.14-.5.2m3.35-2.2l-.2.2m-4.525 2.84c-.25.04-.49.08-.75.12m2.655-1.155c-.18.07-.37.13-.56.19"/><path d="M522.623 441.62c.31-.08.63-.16.96-.24-.32.08-.65.16-.96.24zm-.965 0c.29-.08.58-.16.89-.24-.31.09-.6.17-.89.24z" fill="#453B69" fill-rule="nonzero"/><path d="M662.327 409.107c-1.42-8.03-8.458-9.19-8.087-16.394 0-.044.01-.089.01-.134l-.07-.014c-.16-.03-.32-.065-.491-.094l-.086-.015c-.085-.015-.17-.025-.26-.04l-.11-.015c-.091-.01-.187-.015-.287-.025-.035 0-.07-.004-.105-.004a6.013 6.013 0 0 0-.427-.005c-.757.02-1.71.188-3.015.663-1.224.45-1.88-.629-1.846-2.03l-.04.03s-2.864.554-.441 9.6c.677 2.53 1.078 4.125 1.274 5.506.06.431.1.842.125 1.248.06 1.13-.01 2.263-.18 3.857-.065.585-.156 1.213-.246 1.857-4.997 1.268-29.518 7.274-48.756 7.962-21.526.772-38.231 4.095-38.231 4.095l12.356 2.53c-14.232 1.139-14.358 3.669-23.719 5.313-9.356 1.644-14.232 7.085-16.268 7.843-1.435.535-8.473.693-12.517.738l.557-.159c-4.776 1.312-4.104 2.263-5.864 3.58 0 0 9.892-.93 21.701-1.688 6.291-.456 19.023-9.235 21.632-9.388 2.608-.154 31.78-.802 41.783-5.991 6.727-3.254 19.168-4.922 31.037-3.793 6.888.653 15.095-3.243 16.85-4.13.648.822 1.706 1.357 3.392 1.431 1.445.065 2.679.025 3.767-.094 3.632-3.54 7.982-4.218 6.562-12.24z" fill="#453B69" fill-rule="nonzero"/><path d="M533.581 434.026l-.01-.026.01.026c.347 2.539-3.55 6.406-9.261 7.792-.25.063-.486.12-.717.182.23-.057.466-.12.717-.182 5.71-1.38 9.608-5.248 9.261-7.792zm122.132-12.476c.27-.03.52-.06.78-.1-.24.03-.51.05-.76.08 0 .01-.01.02-.02.02z" fill="#453B69" fill-rule="nonzero"/><path d="M658.593 421.365c-.32.09-.65.18-.98.27m5.595-6.45c-.07.22-.14.43-.21.63"/><path d="M662.108 418.495l-.01.01.01-.01zm-.04.055s.03-.04.07-.1c-.04.06-.07.1-.07.1zm-.465-.55zm1.855-2z" fill="#453B69" fill-rule="nonzero"/><path d="M663.903 415c.14-.315.27-.648.4-1"/><path d="M663.603 404a27.682 27.682 0 0 1 1 3m-.675 7c.2-.919.33-1.919.35-3"/><path d="M657.098 388.765c0 .06.01.13.01.19v-.91c0 .22 0 .43-.01.63.01.03 0 .06 0 .09z" fill="#2A1210" fill-rule="nonzero"/><path d="M636.59 341.02s-1.756 1.073-2.987.46l7.14 10.402 1.068 4.902.025.01 4.767 2.206-5.717-7.118c-.267-1.365-.534-2.755-.81-4.17a2.98 2.98 0 0 0-.47-1.118 33.395 33.395 0 0 1-3.017-5.594v.02z" fill="#1580F2" fill-rule="nonzero"/><g fill="#FFF" fill-rule="nonzero" transform="translate(634.603 315)"><path d="M20.477 3.53l3.196 4.46-3.196-4.46zm-7.022 16.13c-.076-3.49 4.882-12.11 7.016-16.135-1.874-1.79-4.616-3.375-8.328-3.09-2.221.17-3.677 1.02-4.59 1.85-.97.88-1.333 1.735-1.333 1.735S3.58 11.105.684 17.9c-1.246 2.915.322 5.8 1.098 8.04v.005A33.178 33.178 0 0 0 4.897 31.6c.235.34.403.725.485 1.13.286 1.425.567 2.83.838 4.215l5.903 7.195L7.2 41.91c1.46 7.355 2.783 13.765 4.162 18.34 1.69 5.61 2.114 12.64 1.7 14.46-.071.32-.112.635-.117.94-.036 1.415.633 2.505 1.879 2.05 1.327-.48 2.298-.65 3.069-.67l4.085-32.235V44.7c-.005-1.255-.005-1.995-.005-1.995.148-5.34-1.752-10.275-3.36-12.43 0-.01-5.025-4.47-5.158-10.615z"/><path d="M20.477 13.345c-.194.345-.378.685-.567 1.025.184-.335.373-.68.567-1.025zm-.705 1.285a28.431 28.431 0 0 1 0 0zm-.654 1.255zm2.104-3.845zm.781-1.325c-.153.255-.3.51-.454.765.153-.255.301-.51.454-.765zm-3.477 6.39zm-.52 1.175zm1.786 58.95c-.035-.005-.071-.015-.102-.02l.072.015c.01.005.02.005.03.005zm2.176-4.595c0 .105 0 .215-.005.315.005-.1.005-.205.005-.315z"/></g><path d="M654.47 318c-2.09 4.07-6.937 12.773-6.867 16.292.13 6.205 5.048 10.708 5.048 10.708a8.457 8.457 0 0 1-.745-1.237 6.437 6.437 0 0 1-.19-.424 6.326 6.326 0 0 1-.165-.43 9.987 9.987 0 0 1-.435-1.812c-.045-.318-.08-.646-.11-.984a32.293 32.293 0 0 1-.06-1.05l-.014-.556c-.005-.373-.01-.767-.01-1.17 0-.627.114-1.339.324-2.126.07-.263.15-.535.24-.813.05-.152.115-.313.17-.465.02-.05.035-.106.055-.156.105-.288.215-.58.34-.884.03-.075.065-.151.095-.227.13-.313.265-.63.415-.959.03-.07.07-.146.1-.217.154-.333.31-.667.48-1.01.034-.076.074-.151.114-.227.17-.343.345-.687.525-1.04l.135-.258c.18-.343.36-.686.554-1.034.06-.112.125-.228.19-.339.18-.323.355-.646.54-.974.105-.187.215-.379.325-.566.145-.257.295-.515.445-.772.26-.45.53-.904.794-1.353.28-.47.56-.934.84-1.398l-3.129-4.504c-.005-.01-.005-.015-.005-.015z" fill="#1580F2" fill-rule="nonzero"/><path d="M664.603 246.3s-.378.13-1 .4c.32-.14.66-.27 1-.4zm26.512 54.7c-.36.16-1.034.326-2.121.14-1.762-.307-1.549 1.825-.994 2.344.475.447 2.147.533 3.603.513l-.502-2.99s.01-.007.014-.007z" fill="#FFF" fill-rule="nonzero"/><path d="M685.423 293c-.23-.323-.45-.657-.64-1"/><path d="M691.004 301.476l2.838 2.343s1.442.495 2.037-.152c.22-.444.396-.843.476-1.146.32-1.237.505-5.74-.581-7.8-.485-.919-5.085-2.959-7.453-5.23-2.368-2.267-8.284-10.502-9.35-14.324-1.066-3.822-2.993-12.309-8.52-16.949-1.721-1.444-4.735-6.927-6.171-9.653-.5-.944-.811-1.565-.811-1.565 0 .005-.756 6.266-.85 8.366-.136 3.09.63 4.311 1.841 5.962l2.783-3.998s.696 6.599 2.448 12c.876 2.702 3.799 7.569 6.307 11.482 1.736 2.655 5.686 5.614 7.222 8.522 1.377.49 1.963.01 2.703 1.585.711 1.51-1.376 2.46-1.606 3.146 2.247 5.054 6.687 7.411 6.687 7.411zm3.143-3.902s-1.952.06-1.852 1.494l-2.462-1.893s2.227-.212 4.314.399z" fill="#FFF" fill-rule="nonzero"/><path d="M684.733 292zm.38 1.525c-.01-.02-.02-.04-.02-.05 0 .02.01.04.02.05-.01 0-.01 0 0 0z" fill="#FFF" fill-rule="nonzero"/><path d="M684.158 291.635a3.06 3.06 0 0 0-.11-.27"/><path d="M694.096 305.035l-.014-.035c-.175.418-.335.83-.444 1.171-.274.854 1.105 1.284 1.681.112.095-.188.19-.388.284-.582l-.534.064c-.41.041-.807-.253-.973-.73zM658.823 250c.05 1.443.26 4.383.56 8l-.56-8z" fill="#FFF" fill-rule="nonzero"/><path d="M681.088 286.485L681.118 286.515"/><path d="M652.603 391.988c.148-.005.286 0 .42.005.035 0 .07.005.104.005.094.005.193.015.282.025l.108.014c.09.01.173.025.257.04l.084.015c.169.03.332.06.485.094.035.005.07.015.099.02.034.005.069.015.104.02.069.014.138.024.207.039l.104.015c.07.01.139.02.208.025.03.005.064.005.094.01.099.01.202.014.306.014.89 0 1.375-.173 1.617-.504.148-.203.203-.46.203-.772 0-.42-.203-.975-.4-1.41 0-.005-.006-.01-.006-.015a4.864 4.864 0 0 1-.133-.341c-.025-.08-.045-.158-.07-.238l-.03-.113a3.255 3.255 0 0 1-.059-.317c0-.01-.004-.02-.004-.03a4.023 4.023 0 0 1-.035-.35c2.586.078 2.62 3.818 2.897 4.165.554.687 1.523.97 3.505-.203 3.05-1.796 1.162-7.708 0-9.504-1.162-1.795-6.402-22.697-6.402-22.697v.094l-3.945 31.894zm3.945-4.339v.45c0-.03-.005-.064-.005-.093v-.045c.005-.099.005-.203.005-.312z" fill="#1580F2" fill-rule="nonzero"/><path d="M613.327 247.32l1.685-2.206c.862.553 5.63 5.827 5.63 5.827l-3.088.402a8.89 8.89 0 0 0 1.359 4.455l9.055 11.197c-4.061 16.928 5.17 33.273 7.045 41.205 1.875 7.931 6.643 8.54 6.643 8.54-.005.004-.005.01-.01.01.898-.835 2.327-1.689 4.508-1.86 3.645-.29 6.333 1.302 8.178 3.105l.005.005-.005-.01s8.233-15.928.486-32.038c0 0 3.75-25.814 4.026-28.752 0 0 .005.035.005.1 0-.025 0-.055-.005-.08 0-.005-.005-.02-.005-.02l-.015-.347c-.15-3.295-.255-5.982-.28-7.298l-.597-5.335 2.562-2.115c1.72-3.893.176-8.82.176-8.82s2.316 2.195 2.918 7.193c-.762-8.77-6.143-9.574-10.038-10.092-2.798-.371-11.648-1.386-11.648-1.386.893.809.852 6.445-1.5 8.444-2.065 1.753-5.815 2.38-8.353 1.447-8.84-3.265-7.771-7.515-7.917-9.61 0 0-8.885 4.225-12.35 6.103-2.39 1.296-6.848 2.16-7.194 8.058.07.01 6.894 1 8.724 3.877z" fill="#F37A78" fill-rule="nonzero"/><path d="M659.603 250c.052-.052.115-.11.183-.176.042-.042.09-.085.142-.128a.908.908 0 0 1 .073-.062c.121-.109.242-.213.368-.313a12.185 12.185 0 0 1 1.526-1.087c.037-.024.08-.047.116-.071.047-.029.094-.052.142-.08.45-.262.95-.513 1.49-.736.104-.043.204-.086.314-.124.032-.01.058-.024.09-.033.346-.128.556-.185.556-.19-.021.005-2.844.778-5 3z" fill="#F37A78" fill-rule="nonzero"/><path d="M642.23 210.056c-2.404-.414-2.623 1.596-2.623 1.596-.07 1.1.7 1.333.29 4.15-.154 2.515 1.54 2.186 1.557 2.181.968-.54.425-1.49 1.353-2.777.976-1.358.884-3.034.613-3.817-.407-1.191-1.19-1.333-1.19-1.333zm-5.685-7.164c-.082-.07-.169-.136-.256-.202a6.715 6.715 0 0 0-.546-.353c-.072-.04-.148-.075-.22-.116a4.905 4.905 0 0 0-.362-.186c-.097-.046-.2-.086-.302-.131a5.714 5.714 0 0 0-.311-.126c-.123-.046-.245-.086-.368-.126a4.233 4.233 0 0 0-.27-.086l-.43-.121c-.071-.02-.143-.035-.22-.056a7.829 7.829 0 0 0-.495-.105l-.158-.03a10.024 10.024 0 0 0-.562-.091c-.03-.005-.056-.01-.086-.01-.21-.03-.42-.056-.629-.076-2.17-.207-4.381.025-5.908.439-2.702.73-3.938 3.262-4.8 4.88-.057 2.89 0 8.406.372 9.944 1.073 4.477 4.387 7.321 4.387 7.321s.924.524 2.59 1.24c.535.232 2.175 0 2.7-.136 1.017-.262 2.309-1.628 2.309-1.628 4.586-2.179 4.29-4.997 4.02-8.431-.088-1.094 1.28-1.25 1.424-2.269 0 0-.245-1.931.168-2.592l.01.01c-.842-1.78-.331-3.892-1.046-5.597a3.655 3.655 0 0 0-1.011-1.366zm-3.706 36.678c2.628.93 6.519.305 8.653-1.44 2.436-1.986 2.478-7.604 1.553-8.41a1.81 1.81 0 0 1-1.397-1.16v.015s-2.321-5.177-3.734-4.517c-.01.005-.016.005-.026.01-.831.435-1.792.896-2.602 1.48-1.932 1.396-3.397 3.172-4.265 3.597-.97.476-2.202.226-2.856-.12-1.05-.55-3.428-1.955-3.511-2.31-.052 1.09-.078 2.335-.01 3.276.145 2.096-.962 6.328 8.195 9.58z" fill="#FFF" fill-rule="nonzero"/><path d="M656.07 286.066c7.441 16.288-.467 32.393-.467 32.393l.004.01 3.016 4.531c3.169-5.47 7.171-10.64 7.797-15.699.732-5.866-.814-16.806-3.313-21.341-.482-.874-.805-3.21-1.542-7.055-.192-1.01-1.517-20.27-1.623-21.803-.005-.066-.005-.102-.005-.102-.264 2.966-3.867 29.066-3.867 29.066zM622.7 305.137c.174 12.82 3.604 23.144 6.622 29.533 2.055 4.352 3.92 6.887 4.435 7.138 1.27.622 3.08-.467 3.08-.467 0-.005 0-.005-.006-.01v-.005c-.775-2.249-2.34-5.145-1.096-8.07 2.89-6.822 5.526-13.934 5.526-13.934s.362-.859 1.33-1.742c.006-.005.006-.01.01-.01 0 0-4.847-.608-6.754-8.533-1.906-7.925-11.291-24.258-7.162-41.173l-9.207-11.188a8.759 8.759 0 0 1-1.381-4.452l3.14-.402s-4.848-5.27-5.725-5.822l-1.712 2.198.351.487c.668 2.625-1.55 4.161-1.55 4.161 2.651 4.171 4.405 11.69 5.73 19.992.796 4.97 1.438 10.214 2.03 15.183.004 0 2.824 13.306 2.34 17.116z" fill="#2A1210" fill-rule="nonzero"/><path d="M627.603 196.735zm3-.25zm-5.892 5.633c1.517-.412 3.727-.644 5.892-.438-1.304-.82-3.122-2.355-3.494-4.68-6.768 1.485-7.455 7.62-7.506 8.53-.01.217.32 1.47.32 1.47.861-1.626 2.089-4.147 4.788-4.882z" fill="#453B69" fill-rule="nonzero"/><path d="M641.6 209.508c-.004-.047-.004-.109-.004-.175-.02-.962.113-3.543-.274-5.319-.064-.293-.25-.79-.579-1.387a5.633 5.633 0 0 0-.21-.36 9.897 9.897 0 0 0-.412-.63 10.941 10.941 0 0 0-1.416-1.625c-.117-.113-.245-.222-.372-.336a9.608 9.608 0 0 0-.588-.469 9.745 9.745 0 0 0-.613-.421 10.554 10.554 0 0 0-1.74-.905c-1.297-.53-2.83-.872-4.644-.881-.255 0-.5.005-.74.014h-.117c-.275.014-.54.033-.794.057h-.015c-.514.052-.994.128-1.45.223-.01 0-.02.004-.03.004.353 2.188 2.108 3.633 3.362 4.405.2.019.402.043.602.071.03.005.054.01.084.01.181.023.362.052.539.085l.152.028c.161.029.318.066.475.1.068.014.137.033.21.052.138.033.275.07.412.113.088.024.172.052.26.08.117.039.235.077.353.12.102.037.2.08.298.118.098.038.196.08.29.123.117.057.235.114.347.175.069.038.143.071.211.109.181.104.358.213.524.332.089.061.167.123.245.189.466.388.77.824.97 1.293.691 1.605.196 3.585 1.005 5.257l.735 1.042c-.01.005.235-1.88 2.925-1.492zM661.438 234s1.605 4.846-.181 8.674l-2.653 2.08.617 5.246s.073-.089.213-.227c2.134-2.312 4.932-3.117 4.938-3.122.3-2.154.285-4.001.088-5.572-.618-4.92-3.022-7.079-3.022-7.079z" fill="#2A1210" fill-rule="nonzero"/><path d="M691.617 301.193c-.005 0-.014.006-.014.006l.524 2.795V304c1.375 0 2.476-.112 2.476-.112L691.97 301c-.084.075-.312.174-.353.193zm2.986-3.743c-1.935-.633-4-.413-4-.413l2.283 1.963c-.093-1.487 1.717-1.55 1.717-1.55z" fill="#1580F2" fill-rule="nonzero"/><path d="M694.655 302.175c-.633 1.052-1.052 2.116-1.052 2.116l.014.032c.167.448.562.72.986.671l.538-.06c.757-1.243 1.462-2.934 1.462-2.934l-.005.005c-.572.704-1.943.17-1.943.17zm-80.178-53.679l-.346-.496c-.01.01-1.302 1.422-2.277 2.618-1.478 1.81-1.724 3.61-1.81 3.856-1.407 1.391-3.131 1.984-4.413 2.352-3.136.906-7.323-.92-7.323-.92 1.2 1.478 2.347 2.368 2.382 3.104.03 1.212-1.543 1.007-1.543 1.007-.367-.751-.9-1.37-1.513-1.483-1.357-.245-1.458.328-1.739.839-.834 1.519-3.141 1.928-4.096 1.631-1.604-.634-1.805-2.06-1.805-2.06s-.844-1.018-2.322 1.124a.836.836 0 0 0-.065.384c.045.343.407.823.502.926 0 0-.412.419-.07.961.387.614.955.47 1.05.71.096.241-.19.722.216 1.407.267.45.764.532.885.777.12.246.282 1.427 1.267 1.652.462.108.854-.025 1.116 0 .26.026 1.146.936 1.754 1.064.658.138 2.166-.036 3.116-.138.704-.077 1.82-1.228 2.277-1.897.206-.302.14-1.166-.729-1.187 0 0 .503-1.248-1.17-1.289-.297-.005-.408-.296-.388-.485.04-.374.17-.542.684-.721.563-.195.613-.87.698-1.013.01-.02.664-.128.75-.107 5.448 1.155 7.83-1.964 7.83-1.964 2.533-1.263 4.896-3.293 5.554-6.418.005.005 2.192-1.56 1.528-4.234z" fill="#1580F2" fill-rule="nonzero"/><path d="M665.705 418.716s5.51-.999 6.435.435c.596.922 1.878 2.71-.169 3.765-2.047 1.06-8.716 3.56-10.872 4.891-2.157 1.332-5.869 1.957-6.212 1.957-.343 0-.343.891-.174 1.157.174.267 13.546-.179 14.67-.799 1.122-.625 6.986-6.213 16.735-8.22 1.888-.395.507-1.824 4.656-2.418 4.15-.6 14.366-1.403 17.119-5.429.89-1.209 8.611-.046 10.345.67 1.735.718 6.555.493 7.29.447l.075-.943s-4.82.051-5.745-.527c-.924-.584-7.28-2.116-13.744-1.64 0 0 1.635-.875 1.476-.875-.154 0-9.645-.359-10.739-.082-1.088.281-4.208 2.069-9.749 1.66-5.54-.41-13.029 4.066-15.673 4.015l-2.47-.01-1.396-.006-1.858 1.952z" fill="#453B69" fill-rule="nonzero"/><path d="M521.563 441.084l.171-.045c.147-.04.293-.08.45-.12.07-.019.147-.034.217-.054.157-.04.319-.08.486-.12.07-.014.141-.034.212-.049.242-.054.49-.114.753-.174 5.999-1.327 10.092-5.03 9.728-7.462l-.01-.025-.005-.01-4.139-9.42-.005-.016a19.677 19.677 0 0 0-.834-1.69c-.965-1.725-2.082-2.933-3.406-2.898a2.275 2.275 0 0 0-.748.149s-.045.025-.111.055c-.005.005-.01.005-.015.01a19.6 19.6 0 0 1-2.027.855l-.025.01s6.307 2.192 6.817 10.574c0 0 2.244.353 3.77 1.62-1.86-.646-6.226.23-8.08.542 0 0-2.012.15-4.235 1.94-2.224 1.789-6.161 7.59-6.161 7.59-5.443 2.317-1.5 2.87.46 2.586.379-.055.682-.14.829-.254 1.774-1.322 1.096-2.282 5.908-3.594z" fill="#2A1210" fill-rule="nonzero"/></g></g></g></svg>