<svg width="406" height="527" xmlns="http://www.w3.org/2000/svg" xmlns:xlink="http://www.w3.org/1999/xlink"><defs><path d="M35.682 0L406 87.928v438.555L0 460.442V8.284L35.682 0z" id="a"/></defs><g fill="none" fill-rule="evenodd"><mask id="b" fill="#fff"><use xlink:href="#a"/></mask><use fill="#1580F2" xlink:href="#a"/><g mask="url(#b)"><g transform="translate(-44 71.344)"><path d="M0 0v132.79s15.57-9.101 23.525-10.83c7.954-1.734 39.772-12.467 47.036-18.701 7.264-6.234 20.059-11.082 23.172-11.082 4.952 0 12.05 5.539 20.038 11.172l.135.096c.175.125.353.247.528.372.218.151.435.303.653.457l.395.274c.18.125.361.25.544.374.136.093.274.186.41.282.225.154.453.311.681.465l.308.207c.27.181.542.364.812.543l.258.17c.257.17.515.337.775.507a3.7 3.7 0 0 0 .17.11c.286.182.573.366.86.547.076.047.153.098.233.146.295.183.586.366.881.547l.204.125c.295.18.59.359.887.534l.069.04c.31.183.62.364.931.542.067.037.133.077.202.114.305.173.61.346.916.513.06.035.122.067.185.101.316.173.632.343.948.508.008.002.013.008.021.01.321.168.642.33.964.49l.183.09c.31.154.623.303.937.449l.177.082c.327.152.65.298.977.439 9.7 4.214 28.583 14.158 39.003 19.726.255-1.124.706-1.682 1.207-1.682.41 0 .65 1.416.789 2.75 3.293 1.764 5.347 2.88 5.347 2.88l.024.02.014.01c.016.013.04.032.069.058l.008.008c.031.027.071.061.119.099l.016.013.164.135c.003.003.008.006.011.011.268.218.653.526 1.128.89 2.38 1.818 6.999 4.994 10.21 4.994 4.496 0 9.108-1.27 11.529-1.27.945 0 1.908.86 3.917 1.913.003.002.008.002.01.005.075.04.152.077.229.117l.032.016.215.109.047.024c.07.034.141.069.215.103.019.008.038.019.056.027l.218.1.06.03c.075.035.15.067.224.101l.063.03.234.103.066.03.255.105.053.022c.093.04.189.077.287.117a26.22 26.22 0 0 0 1.959.688c.095.03.193.061.294.09l.13.04.284.083c.048.013.098.026.146.042.093.027.188.053.284.077.053.013.106.03.162.043l.284.074c.056.013.114.03.172.043a46.274 46.274 0 0 0 .767.183c.061.013.125.03.189.042.1.024.204.046.31.07.064.013.128.026.194.042l.327.066.19.04c.117.024.234.046.354.067.06.01.122.024.183.034l.398.072c.053.008.103.019.154.027.167.029.34.055.512.085.019.002.04.005.058.01.197.032.396.061.6.093.016.003.03.006.045.006l.563.08.18.023.444.059c.08.01.159.018.238.029l.404.048c.09.01.18.018.273.029.13.013.26.03.393.043.096.01.194.018.29.029.132.013.262.026.397.037.101.008.202.019.306.027.132.01.268.023.403.034l.316.024c.135.01.273.021.414.03.109.007.22.015.329.02.138.008.279.02.42.027.113.008.225.013.339.019l.435.024.345.016c.149.008.297.013.449.018.12.005.236.01.355.013l.473.016.35.011c.167.005.34.008.51.01l.337.009.586.008.284.002c.295.003.592.003.895.003.329 0 .663-.003.998-.008l.374-.008c.207-.003.416-.008.626-.013.186-.006.374-.011.56-.019l.414-.013c.27-.01.544-.021.817-.035.03-.002.062-.002.09-.005 4.385-.213 9.125-.757 13.974-1.475a28.732 28.732 0 0 1-.908-7.183c0-4.797 1.181-9.314 3.265-13.284l-33.164-8.121.018-5.626-2.12-.696 65.916-54.594 55.848 56.228-2.88.643-.015 4.1-33.326 7.322c.244.486.47.975.671 1.47.003.007.008.012.01.02.006.008.009.022.014.03a28.503 28.503 0 0 1 2.871 12.508c0 1.007-.053 2.004-.153 2.987 13.301 5.086 32.983 14.975 62.081 14.975 10.314 0 20.58-2.711 30.418-6.79l-16.978-6.157-.005-3.851 1.964-.247-2.76-.816 35.35-22.495 14.29 15.966c15.788-10.332 28.48-20.026 35.51-20.026 7.073 0 10.146 2.365 13.453 3.409.01.003.021.008.032.01.111.035.22.067.331.099l.072.021c.1.027.202.053.303.077.034.008.066.019.1.027.096.021.189.042.284.061.043.008.083.019.125.027.093.018.186.031.279.047l.138.024c.093.014.188.024.281.035.048.005.093.013.14.016.099.01.202.016.303.021.045.003.088.008.133.01.146.009.295.011.446.011V0H0z" fill="#1580F2" fill-rule="nonzero"/><path d="M217.024 146.548c.135.01.273.021.414.03l-.414-.03zm.74.053c.138.008.279.019.42.027l-.42-.027zm-1.46-.111c.133.01.268.023.404.034-.136-.01-.271-.024-.404-.034zm-.7-.064c.132.013.262.026.398.037l-.398-.037zm5.329.319c.167.005.34.008.51.01-.17-.002-.34-.008-.51-.01zm-6.011-.388c.13.013.26.029.392.042-.132-.016-.262-.029-.392-.042zm11.595.361c.27-.01.544-.021.817-.034-.273.013-.546.023-.817.034zm-7.211-.032zm238.454-35.11c6.755.099 9.77 2.382 13.007 3.402-3.306-1.044-6.38-3.41-13.453-3.41-7.03 0-19.721 9.697-35.51 20.027l15.016 16.776-1.061.035.003 2.36-14.096 1.12c-.55.692-2.13 1.255-4.506 1.611.73.882 1.316 1.834 1.717 2.822.003.003.003.008.005.011a13.926 13.926 0 0 1 1.41 6.13c0 3.508-1.296 6.713-3.427 9.169l-.042.055c-.324.37-.666.72-1.025 1.053l.704-.021 4.875.802c25.91-5.9 26.79-15.477 42.944-15.477 6.226 0 9.416 2.078 9.416 2.078v-26.151c-2.455-.582-4.673-1.478-6.475-2.79-10.237-7.452-4.345-14.903-9.502-19.601zm-237.65 35.142zm-1.584-.072l.435.024-.435-.024zm3.256.117l.587.008-.587-.008zm.868.01a50.02 50.02 0 0 1 0 0zm2.893-.023c.186-.005.374-.01.56-.019-.186.008-.374.014-.56.019zm-.998.021l.374-.008-.374.008zm-15.536-1.4c.098.024.199.048.297.069-.101-.024-.2-.045-.297-.07zm-33.547-9.123zm-.082-.07c.005.004.008.009.013.011-.005-.002-.01-.007-.013-.01zm-47.525-24.216c.059.026.12.056.178.082l-.178-.082zm-2.102-1.04c.008.004.014.009.022.011a.08.08 0 0 0-.022-.01zm.985.5c.061.03.122.062.183.09-.061-.028-.122-.06-.183-.09zm49.03 25.076a.02.02 0 0 1 .01.01c-.003-.002-.008-.005-.01-.01zm-.181-.146l.016.013-.016-.013zm26.986 6.688c.074.04.148.077.228.117-.08-.04-.154-.077-.228-.117zm.257.133c.072.037.143.072.215.11-.072-.038-.143-.073-.215-.11zm-78.21-32.859c.061.035.122.067.186.101-.061-.034-.125-.066-.186-.1zm-10.711-6.87c.175.126.353.248.528.373-.178-.125-.353-.247-.528-.372zm2.117 1.478c.136.093.274.186.41.282-.136-.096-.274-.189-.41-.282zm1.091.744l.308.208-.308-.208zm1.12.75l.258.17-.258-.17zm96.005 39.864l.404.047-.404-.047zm-99.152-42.006c.13.09.262.183.395.274l-.395-.274zm88.003 39.032zm-83.823-36.212c.055.037.111.074.17.108l-.17-.108zm3.232 2.011c.024.013.045.027.07.04-.025-.013-.046-.027-.07-.04zm-1.09-.659c.068.043.135.083.204.125l-.205-.125zm-1.115-.696c.077.048.154.098.233.146-.077-.048-.156-.096-.233-.146zm3.206 1.937c.066.037.132.077.201.114l-.201-.114zm87.01 36.01c.117.025.234.046.353.067-.12-.021-.236-.045-.353-.066zm-7.15-2.26l.218.1-.217-.1zm6.131 2.045c.101.024.205.046.31.07-.105-.024-.209-.046-.31-.07zm-.958-.228l.29.072-.29-.072zm2.513.545zm1.123.194c.196.032.396.06.6.093-.202-.032-.404-.061-.6-.093zm1.388.199c.146.019.295.04.443.058-.148-.018-.297-.037-.443-.058zm-1.959-.295c.168.03.34.056.513.085a25.746 25.746 0 0 1-.513-.085zm1.216.194l.563.08-.563-.08zm-4.737-.954l.284.074-.284-.074zm1.916.454c.106.022.217.046.326.067a14.208 14.208 0 0 1-.326-.067zm-5.46-1.637c.093.04.189.077.287.117-.098-.04-.194-.077-.286-.117zm3.1 1.06zm-3.707-1.32zm-.287-.128c.074.035.149.067.223.101-.077-.034-.151-.069-.223-.1zm.587.26c.082.035.167.073.254.107l-.254-.106zm2.55.936c.096.03.194.061.295.09-.098-.031-.197-.06-.295-.09zm-1.921-.677zm2.346.805c.093.026.188.056.284.082a11.417 11.417 0 0 1-.284-.082zm-.844-.263zm84.23 12.155c-.017.018-.033.042-.051.06a28.91 28.91 0 0 1-3.182 3.118l40.189 4.823-.04 11.6c11.372.46 18.809 1.66 40.84 1.66 1.653 0 3.264-.007 4.84-.026l.013-4.06 24.26-.694a13.962 13.962 0 0 1-5.095-10.8c0-4.068 1.735-7.73 4.506-10.284a20.206 20.206 0 0 1-1.242-.399c-1.383-.494-2.3-1.012-2.76-1.522l-2.925-1.06c-9.838 4.079-20.104 6.79-30.417 6.79-29.098 0-48.78-9.892-62.082-14.975a28.489 28.489 0 0 1-6.855 15.769zm-49.192-11.579c-4.85.715-9.587 1.26-13.974 1.475 4.324-.207 9.077-.723 13.99-1.408l-.016-.067z" fill="#9EB1DB" fill-rule="nonzero"/><path fill="#9EB1DB" fill-rule="nonzero" d="M416.483046 174.530546L416.501624 172.718194z"/><path fill="#9EB1DB" fill-rule="nonzero" d="M274.69972 166.050759L274.69972 166.050759 274.69972 166.361676z"/><path d="M105.833 114.83l10.64 4.785-10.253-1.945c3.16 13.869 23.379 5.868 30.226 11.257 6.439 5.065 25.101 9.396 40.46 8.469a38.24 38.24 0 0 1-1.139-.9l-.164-.136c-.005-.006-.01-.008-.016-.014-.045-.037-.085-.071-.12-.098l-.007-.008-.07-.059-.013-.01a1.08 1.08 0 0 0-.024-.019s-2.054-1.116-5.347-2.88c-.138-1.332-.38-2.75-.789-2.75-.501 0-.952.557-1.207 1.681-10.42-5.564-29.303-15.508-39.003-19.726-.326-.14-.65-.29-.977-.438l-.177-.082a50.045 50.045 0 0 1-.937-.45l-.183-.09c-.321-.16-.643-.321-.964-.489-.008-.002-.013-.008-.021-.01a54.803 54.803 0 0 1-.947-.508c-.062-.035-.123-.066-.186-.101a52.78 52.78 0 0 1-.916-.513l-.202-.114c-.31-.178-.623-.359-.931-.542-.024-.014-.045-.027-.07-.04a78.425 78.425 0 0 1-.886-.534l-.204-.125c-.294-.18-.59-.364-.881-.548-.077-.047-.154-.098-.234-.146-.286-.18-.573-.364-.86-.547a128.7 128.7 0 0 1-.945-.617l-.257-.17c-.27-.18-.544-.361-.812-.542l-.308-.207a61.542 61.542 0 0 1-.682-.465c-.135-.093-.273-.186-.408-.282l-.545-.375c-.132-.09-.262-.183-.395-.273-.218-.152-.435-.303-.653-.457l-.528-.372-.135-.096c-5.876-4.143-11.27-8.233-15.68-10.109 3.684 5.793 7.25 13.396 7.75 21.594zm57.753 17.594c.626-.266 4.273.757 4.273.757s-.502 1.037 1.125 2.039c0 0-5.87-2.594-5.398-2.796zm49.977 19.186c5.082 1.621 15.902-1.796 27.904-6.146l-.053-.194c-4.916.685-9.666 1.204-13.99 1.408-.029.003-.06.003-.09.006-.273.013-.546.023-.817.034-.138.005-.276.01-.414.013-.189.006-.374.014-.56.019-.21.005-.417.01-.627.013l-.374.008c-.337.006-.669.008-.998.008l-.894-.002c-.096 0-.188-.003-.284-.003l-.587-.008-.337-.008c-.17-.003-.342-.008-.51-.01-.119-.003-.233-.009-.35-.011l-.472-.016c-.12-.006-.236-.008-.356-.014-.15-.005-.3-.013-.448-.018l-.345-.016-.435-.024c-.114-.005-.229-.013-.34-.019-.14-.008-.281-.016-.42-.026-.11-.008-.22-.013-.328-.021l-.414-.03-.316-.024c-.136-.01-.271-.02-.404-.034l-.305-.027-.398-.037c-.096-.01-.194-.018-.29-.03a17.77 17.77 0 0 1-.392-.042c-.09-.01-.183-.018-.273-.029l-.404-.048c-.08-.01-.16-.018-.239-.029a20.015 20.015 0 0 1-.443-.058 31.59 31.59 0 0 1-.18-.024l-.563-.08a31.924 31.924 0 0 1-.645-.098c-.019-.003-.04-.006-.058-.011a25.746 25.746 0 0 1-.513-.085c-.053-.008-.103-.019-.153-.027l-.399-.071-.183-.035c-.12-.021-.236-.045-.353-.066l-.19-.04c-.11-.021-.221-.045-.327-.067a6.468 6.468 0 0 1-.194-.042c-.103-.021-.207-.045-.31-.07-.064-.013-.125-.028-.189-.042-.1-.024-.199-.045-.297-.069-.061-.013-.122-.03-.18-.042a46.327 46.327 0 0 1-.29-.072c-.058-.013-.114-.03-.172-.043l-.284-.074c-.053-.013-.11-.03-.162-.043-.096-.026-.189-.053-.284-.077-.048-.013-.098-.026-.146-.042-.096-.027-.191-.056-.284-.083-.043-.013-.088-.026-.13-.04l-.295-.09-.106-.032c-.106-.034-.212-.069-.316-.1l-.071-.025a27.72 27.72 0 0 1-1.465-.531c-.099-.04-.194-.077-.287-.117a.735.735 0 0 0-.053-.021c-.085-.035-.17-.072-.255-.106-.021-.011-.042-.02-.066-.03-.08-.034-.157-.069-.234-.103-.021-.011-.042-.019-.064-.03-.077-.034-.15-.066-.222-.1l-.062-.03c-.074-.034-.145-.069-.217-.1-.019-.009-.037-.02-.056-.027l-.215-.104-.048-.024c-.074-.037-.146-.072-.215-.109l-.031-.016c-.077-.04-.154-.077-.229-.117-.002-.002-.008-.002-.01-.005-1.675-.877-2.625-1.621-3.442-1.844 1.687 2.633 5.878 7.685 14.448 10.42zm132.98 97.001l14.862 1.693c.361-.064.863-.133 1.295-.133l-.008-.066-15.6-1.701-.55.207zm18.886-1.236c-.223-.029-.444-.055-.659-.082a9.596 9.596 0 0 1-.111 1.762c.332.037.626.072.889.104-.01-.404-.04-1.058-.12-1.784zm59.53-19.462v-.521c-.06.029-.119.05-.172.066-.016.186-.034.364-.05.51.072.011.156.024.247.043a2.549 2.549 0 0 1-.024-.098zm-60.33 16.401l-.167.05s.054.264.115.68l.395.04a4.212 4.212 0 0 0-.342-.77z" fill="#FFF" fill-rule="nonzero"/><path fill="#FFF" fill-rule="nonzero" d="M416.483046 174.530546L416.483046 174.530546 416.360963 186.799796 416.360963 186.799796z"/><path fill="#FFF" fill-rule="nonzero" d="M416.347693 188.205565L416.347693 188.205565 416.180493 205.14388 416.180493 205.14388z"/><path d="M326.678 185.585l.79 1.199-.063 19.402h45.558l.128.047.06-18.394.8-.651-.794-.763.03-8.405c-1.58.016-3.191.026-4.842.026-22.03 0-29.467-1.2-40.84-1.66l-.026 8.089-.801 1.11z" fill="#FFF" fill-rule="nonzero"/><path d="M421.374 173.52l14.395 2.368v10.133l-.629.529.63.5v19.101l8.72.45v2.967l-17.816 10.439c.101.393.11.914-.032 1.172-.228.42-.262.64-.124.887s-.112 1.15-.112 1.15l-.138 3.958s-.159.196-.159.382-.366.335-.366.335v.346l.008.01c.193.21.08.57-.183.604l-.014.005H425.525a.202.202 0 0 1-.056-.008l-4.222-.401-.295.212c-4.498-.579-7.29-.82-7.29-.82-.483.092-1.531.217-1.531.217l-3.273-.582c-.31.282-2.004.032-2.37-.133-.35-.16.082-.598.082-.598l-.35-.042c-.133-.016-.29.029-.703-.016-.738.308-1.367.438-1.433.284-.05-.114.225-.35.666-.603.1-.146.318-.311.597-.436.281-.125.552-.173.727-.146.483-.154.841-.197.892-.085.045.1-.167.298-.523.518.268.059.435.136.435.136l.168.018s.6-.053.939-.18c.337-.128 1.39-.022 1.794.135.9-.143 3.275.183 3.275.183l8.018.824s.462.17.955.215c.504.048.828.386.828.386l1.009.103.297-.045a4.33 4.33 0 0 1 .027-.587c-.064-.056-.088-.109-.088-.109l.088-3.739a.978.978 0 0 1-.15-.072c-.02.157-.065.282-.15.231-.189-.114-.202-.504-.303-1.163a3.88 3.88 0 0 1-.005-.737l-3.265 1.914-31.837-.654-1.903-1.206-59.215-5.53-.021 6.571 20.42 2.488-.003 5.918L277 254.994l-20.86-.685-8.971-4.46-18.827-2.375c-3.573-2.256-7.91-4.31-11.866-4.31-6.06 0-11.213.661-13.817 1.07l-78.465-9.899 10.072-2.11c-11.598-.4-20.542-2.947-20.542-6.03 0-.031.003-.06.006-.092l-16.59 3.983-9.629-9.792 60.983-2.543-9.843 2.365c12.58.156 22.593 2.817 22.593 6.077 0 .13-.019.26-.05.388l28.88-6.05 20.531 1.06.114-34.76 1.33-1.18-1.322-1.18.037-11.673c-13.434-4.914-17.903-10.595-24.214-10.675-5.454 1.565-7.572 10.093-7.572 10.093s20.234 17.544 6.064 17.544c-14.17 0-26.298-11.296-33.042-11.296-6.744 0-8.819 3.276-14.512 3.276-5.6 0-13.745-1.007-15.74-6.287l-.099.002c-14.54 0-25.783-3.473-35.462-7.823l-8.456.826c1.391.912 2.487 2.156 3.034 3.508l.002.008c0 .003.003.005.003.008a8.75 8.75 0 0 1 .884 3.843 8.772 8.772 0 0 1-3.41 6.949c-.008.008-.02.016-.027.024a8.724 8.724 0 0 1-4.43 1.762h22.384V203l10.518 2.354.005 1.77-40.42 2.402-5.971-.848-41.142-6.859c-.47-.055-.489-.59-.024-.667l2.951-.491-7.25-2.012-2.599.494-.294-2.61 13.877-.459c.358-.01.43.399.082.465l-2.125.404 10.114 1.754 4.246-.707 10.494 1.034 3.96-.146V184.54h19.382a8.778 8.778 0 0 1-7.853-8.735 8.781 8.781 0 0 1 3.545-7.055l-13.98.17 11.226-12.184c-7.203-3.545-14.279-6.171-22.368-6.171-.56 0-1.12.008-1.68.019-3.23.672-10.144 2.753-11.98 8.456C33.22 172.208 15.815 177.316 0 171.08v240.575h473.735V160.122s-3.19-2.078-9.417-2.078c-16.154 0-17.033 9.577-42.944 15.477zm-44.833 63.337a.53.53 0 0 1-.064.088l-.008.008a.633.633 0 0 1-.464.2c-.266 0-.364.406-.398.727-.008.064-.011.123-.014.176-.008.122-.005.207-.005.207l-.25 6.697s-.114.13-.199.305a.521.521 0 0 0-.016.038l-.031.074a.806.806 0 0 0-.032.114v.003c-.006.024-.006.048-.008.069-.003.016-.005.032-.005.048 0 .313-.67.566-.67.566v.585l.017.015c.369.37.13 1.02-.393 1.029h-.021c-.101 0-.191-.01-.276-.027l-6.718-.637c.006.055.008.108.014.164.002.048.008.096.01.144a163.226 163.226 0 0 1 .035.452c.01.148.018.295.026.446a21.272 21.272 0 0 1 .021.454c.003.048.003.096.006.141l.008.332.002.144c.003.151.006.303.006.457v.008s.26-.03.26 1.098c0 0-.173.26-.749.172-.323-.048-.721-.417-1.008-.73l-1.245-.136c.04.321.106 1.01-.024 1.27 0 0-1 .269-3.5-.048-1.686-.212-35.349-3.053-33.647-4.384l.642-.505c-.828-.178-3.32-.425-2.413-.952.828-.48 3.06-.095 4.215.014l.332-.133c.355-.141 1.523-.213 1.945-.194 1.03.042 21.55 2.405 30.661 3.457a56.637 56.637 0 0 1-.119-1.804c-5.396-.649-8.61-.925-8.61-.925-.82.157-2.592.37-2.592.37l-5.54-.984c-.525.476-3.388.053-4.01-.226-.594-.268.139-1.01.139-1.01l-.592-.071c-.234-.027-.51.06-1.277-.035-.74-.09-.754-.417-.554-.558.196-.14.92-.38 1.658-.306a4.5 4.5 0 0 1 1.287.317l.284.029s1.017-.09 1.593-.308c.57-.218 2.351-.038 3.036.23 1.523-.241 5.544.312 5.544.312l9.589.986c.016-1.892.114-3.165.114-3.165s-.634-.346-.547-1.127c.088-.779.462-2.684.462-2.684s-.172-.005-.517-.005c-.345 0-.866-.513-.866-1.148 0-.636 1.354-.492 1.354-.492s.244-2.224 1.523-2.931l-.053-.274c-.265-.093-.485-.377-.284-.949.202-.57.56-.813.56-.813.167-.475.534-.664.932-.685a1.644 1.644 0 0 1 .507.053l.037.008c.05.013.1.029.148.045l.062.024c.034.013.066.03.098.045.05.027.1.053.146.082a.99.99 0 0 1 .395.513c.013.038.021.075.032.112.016.077.026.16.026.247 0 .175-.034.37-.108.585-.229.648-.547.922-.749 1.19.056.05.11.11.162.168.003.002.003.005.005.005.054.058.104.122.152.189 0 .002.002.002.002.005.818 1.113 1.23 3.165 1.15 4.302v.014c-.003.045-.008.09-.014.132l-.002.027c-.006.043-.011.08-.019.12 0 .008-.003.013-.003.02-.045.237-.122.405-.233.469v2.205a.717.717 0 0 1-.717.718s.165.677.356 1.767c.003.018.005.037.01.053l.048.274.008.053.056.343.003.024c.016.103.032.21.047.319l.016.098c.014.09.027.183.04.279.005.034.01.066.013.1l.03.219a7.1 7.1 0 0 0 1.223.242 2.417 2.417 0 0 1 1.399.65l1.706.176 1.067-.162s.337.034.746.112v-1.037l-.502-.125c.043-3.117-.292-6.234-.292-6.234-.982-.125-1.191-.524-1.191-.524l.584-3.409c-.858 0-.858-2.155-.544-2.825.313-.67 1.818-.837 1.818-.837v-.523c0-.21-.231-.335-.231-1.047 0-.713.647-1.109.982-1.109a.76.76 0 0 1 .199.032c.045.014.095.03.143.05l.013.006c.048.021.096.048.144.077l.018.01c.045.03.09.065.133.102.005.005.013.01.018.016a1.093 1.093 0 0 1 .234.305l.008.019c.026.058.05.122.066.189 0 .005.003.01.003.013.016.072.026.146.026.226 0 .712-.376 1.382-.376 1.382v.249s.031 0 .087.003h.013l.107.008h.016c.037.003.08.008.124.01.008 0 .016.003.027.003.048.006.1.011.154.019.013.003.024.003.037.005.056.008.111.016.17.027.013.002.024.005.037.005.058.01.12.024.18.037l.032.008c.064.016.125.032.186.05.008.003.013.006.021.006.064.021.128.043.189.067.071.029.13.077.183.14a.733.733 0 0 1 .087.15c.05.106.088.23.11.371.01.064.018.13.023.2.005.058.005.12.008.183 0 .247-.03.51-.085.755a2.375 2.375 0 0 1-.241.65.733.733 0 0 0-.096.437c.021.358.244.757.475 1.1.2.295.404.547.5.704.028.048.05.098.063.146.008.027.01.056.013.082.003.019.005.038.005.054a.534.534 0 0 1-.013.111c0 .006 0 .01-.003.013-.02.04-.04.086-.063.125zm50.441-14.374z" fill="#FFF" fill-rule="nonzero"/><path d="M28.886 159.048c1.836-5.702 8.75-7.783 11.98-8.455.56-.014 1.123-.019 1.68-.019 8.09 0 15.167 2.626 22.368 6.17l7.367-7.996 22.7 18.015-8.785.858c9.679 4.35 20.921 7.824 35.462 7.824l.098-.003c1.996 5.278 10.141 6.287 15.741 6.287 5.693 0 7.768-3.276 14.512-3.276 6.744 0 18.875 11.297 33.042 11.297 14.167 0-6.064-17.545-6.064-17.545s2.12-8.527 7.572-10.093c6.313.083 10.78 5.764 24.214 10.675l.027-7.844 40.956-4.165a28.619 28.619 0 0 1-10.292-15.317c-12.001 4.35-22.819 7.768-27.904 6.147-8.57-2.735-12.76-7.786-14.443-10.42.818.223 1.765.967 3.442 1.844-2.009-1.052-2.972-1.913-3.917-1.913-2.42 0-7.033 1.27-11.529 1.27-3.208 0-7.829-3.175-10.21-4.993-15.358.927-34.02-3.404-40.46-8.47-6.847-5.386-27.065 2.613-30.226-11.256l10.253 1.945-10.64-4.786c-.499-8.198-4.069-15.8-7.742-21.589 4.411 1.877 9.804 5.966 15.68 10.11-7.989-5.634-15.085-11.173-20.038-11.173-3.113 0-15.91 4.848-23.171 11.082-7.262 6.234-39.083 16.967-47.037 18.7C15.571 123.692 0 132.791 0 132.791v38.29c15.815 6.235 33.22 1.127 28.886-12.033zm122.05 3s2.742 5.794-11.945 9.113c0 0-1.085-11.055-4.687-14.517 0 0 10.234 1.286 16.633 5.405z" fill="#9EB1DB" fill-rule="nonzero"/><path d="M150.937 162.049c-6.399-4.12-16.633-5.405-16.633-5.405 3.602 3.462 4.687 14.517 4.687 14.517 14.687-3.316 11.946-9.112 11.946-9.112z" fill="#FFF" fill-rule="nonzero"/><path d="M168.984 135.22c-1.624-1.002-1.125-2.039-1.125-2.039s-3.647-1.023-4.273-.757c-.473.202 5.398 2.796 5.398 2.796zM46.806 200.33v-1.235l1.828-.067-10.494-1.034-4.246.707-10.114-1.754 2.125-.403c.348-.067.276-.476-.082-.466l-13.877.46.294 2.61 2.598-.495 7.251 2.012-2.951.492c-.465.077-.446.611.024.667l41.155 6.85 5.971.848-19.482-9.192z" fill="#9EB1DB" fill-rule="nonzero"/><path fill="#2A1210" fill-rule="nonzero" d="M327.373169 112.570435L330.252732 111.93 327.378477 110.665074z"/><path fill="#453B69" fill-rule="nonzero" d="M274.405129 55.7019167L208.485689 110.295694 274.723606 84.0112778z"/><path fill="#F37A78" fill-rule="nonzero" d="M274.723606 84.0112778L318.482352 106.197972 318.482352 106.48763 274.458208 86.1372037 274.43963 91.5609722 274.429015 94.2715278 300.894457 105.4725 327.357245 116.670815 327.357245 116.670815 327.357245 116.673472 327.373169 112.570435 327.378477 110.665074 330.252732 111.93 274.405129 55.7019167z"/><path d="M241.467 145.464a28.629 28.629 0 0 0 10.292 15.317l-40.956 4.164-.027 7.845-.037 11.674 1.322 1.18-1.33 1.18-.114 34.759-.003 1.124-.01 2.91 63.862 13.332.165-51.4-2.437-1.499 2.445-1.58.058-18.108v-.311l.024-7.606 12.63 1.515a28.45 28.45 0 0 0 3.182-3.117c.016-.019.035-.04.05-.061a28.76 28.76 0 0 1-4.333.327c-12.954 0-23.891-8.64-27.387-20.476 8.246-11.7 23.103-15.862 35.842-11.148.006.011.011.019.014.03-.006-.011-.008-.022-.014-.03-.002-.008-.008-.013-.01-.02a20.225 20.225 0 0 0-.672-1.47l33.326-7.322-26.465-11.2-26.466-11.201.011-2.714.019-5.423 44.024 20.35v-.292l-43.759-22.187-66.238 26.284 2.12.697-.018 5.625 33.164 8.121a28.501 28.501 0 0 0-3.264 13.285c0 2.48.316 4.887.907 7.183.006.021.011.042.019.064.03.069.048.135.064.199zm2.125 72.826l-.002 1.924-10.826-1.669.037-17.887c.008-4.108 2.347-7.348 5.292-7.236.988.037 1.92.45 2.729 1.132-.945 1.308-1.526 3.139-1.532 5.182l-.037 17.887 4.34.667z" fill="#2A1210" fill-rule="nonzero"/><path d="M258.869 136.633c3.492 11.839 14.43 20.476 27.386 20.476 1.473 0 2.92-.112 4.334-.327h.003a28.504 28.504 0 0 0 7.006-18.762c0-4.485-1.032-8.73-2.871-12.508-.006-.01-.011-.019-.014-.03-12.741-4.71-27.596-.55-35.844 11.151z" fill="#F37A78" fill-rule="nonzero"/><path d="M246.528 238.949l-56.992-13.327v5.955l14.08 3.768c5.212.74 10.387 1.108 14.963 1.069 6.186-.056 10.454 3.486 12.906 6.39l45.524 12.182v-8.907l-30.481-7.13z" fill="#2A1210" fill-rule="nonzero"/><path fill="#F37A78" fill-rule="nonzero" d="M206.006876 223.34712L210.614177 222.709343 210.614177 222.709343z"/><path fill="#453B69" fill-rule="nonzero" d="M189.536305 225.621861L246.527772 238.948759 274.468824 238.948759 210.603561 225.619204 210.614177 222.709343 206.006876 223.34712z"/><path fill="#2A1210" fill-rule="nonzero" d="M275.408331 186.023833L272.197021 186.050407z"/><path d="M327.405 206.186l.064-19.402-.791-1.199-51.27.439-3.211.026 2.436 1.5-.164 51.399h-27.941l30.483 7.127v8.908l70.755-23.678.003-5.918-20.42-2.487.022-6.572.034-10.143zm-16.075 23.337h-14l-.005-2.118.042-24.148c.01-6.883 3.35-12.583 7.304-12.72 3.79-.134 6.739 4.937 6.723 11.314l-.064 27.672zm16.147-45.054l.026-8.089.04-11.6-40.19-4.823-12.63-1.514-.023 7.605v.311l-.059 18.108 52.836.002zm-7.405-12.872l-.024 8.626v1.017h-.002l-5.316-.09.026-9.947 5.316.394zm-26.638-1.98l-.013 11.17-7.166-.123.008-11.581 2.917.218 2.63.196 1.624.12z" fill="#F37A78" fill-rule="nonzero"/><path fill="#F37A78" fill-rule="nonzero" d="M243.589821 220.214037L243.592475 218.290074 239.253225 217.620407 232.764255 218.542528z"/><path d="M239.29 199.733c.006-2.043.587-3.874 1.532-5.182-.807-.682-1.741-1.092-2.729-1.132-2.945-.111-5.284 3.128-5.292 7.237l-.037 17.887 6.49-.923.036-17.887z" fill="#453B69" fill-rule="nonzero"/><path d="M311.396 201.849c.016-6.378-2.932-11.448-6.722-11.316-3.955.139-7.293 5.839-7.304 12.721l-.042 24.148 14.005 2.118.063-27.671z" fill="#2A1210" fill-rule="nonzero"/><path fill="#2A1210" fill-rule="nonzero" d="M293.434132 169.617L291.809899 169.497417z"/><path fill="#2A1210" fill-rule="nonzero" d="M289.17981 169.303426L286.263091 169.085519 286.255129 180.663843 293.420862 180.786083 293.420862 180.786083 289.17981 180.714333z"/><path fill="#2A1210" fill-rule="nonzero" d="M314.726976 181.147491L320.042889 181.237843 320.042889 181.237843 317.187212 181.182037 317.134132 171.378861 320.056159 171.596769 320.045543 180.222713 320.072083 171.596769 314.753516 171.200815z"/><path fill="#453B69" fill-rule="nonzero" d="M289.17981 169.303426L289.17981 180.714333 293.420862 180.786083 293.420862 180.786083 293.434132 169.617 293.434132 169.617 291.809899 169.497417 289.17981 169.300769z"/><path fill="#453B69" fill-rule="nonzero" d="M320.056159 171.596769L317.134132 171.378861 317.187212 181.182037 320.042889 181.237843 320.045543 181.237843 320.045543 180.222713z"/><path fill="#453B69" fill-rule="nonzero" d="M297.330168 229.522935L311.329888 229.522935 297.32486 227.404981z"/><path fill="#453B69" fill-rule="nonzero" d="M326.677828 185.585361L327.476674 184.46925 274.641333 184.46925 272.197021 186.050407 275.408331 186.023833z"/><path d="M218.579 236.414c-4.578.04-9.75-.33-14.963-1.069l-14.08-3.768v-5.955l16.47-2.278 4.606-.637.002-1.124-20.531-1.06-28.88 6.05c.031-.127.05-.258.05-.388 0-3.26-10.014-5.92-22.593-6.077l9.843-2.365-60.983 2.543 9.629 9.792 16.59-3.983c-.003.032-.006.061-.006.093 0 3.08 8.942 5.626 20.542 6.03l-10.072 2.11 78.465 9.898a91.696 91.696 0 0 1 13.817-1.07c3.954 0 8.293 2.056 11.866 4.31l18.827 2.375 8.97 4.46 20.86.685-45.523-12.181c-2.452-2.905-6.72-6.447-12.906-6.391z" fill="#9EB1DB" fill-rule="nonzero"/><path d="M68.709 166.096l-15.02 2.833 13.982-.17a8.77 8.77 0 0 0-3.546 7.055 8.778 8.778 0 0 0 7.853 8.735h1.824a8.724 8.724 0 0 0 4.43-1.762c.007-.008.018-.016.026-.024l-.032.024c-.292.03-.587.045-.884.045-4.843 0-8.771-3.933-8.771-8.782 0-.176.008-.351.016-.524 2.935-3.189 10.687-3.779 12.192-1.565.003.002.003.008.005.01l-.002-.008-.003-.007c-.55-1.353-1.645-2.6-3.033-3.508l8.455-.827 8.785-.858-26.277-.667z" fill="#2A1210" fill-rule="nonzero"/><path d="M68.584 173.526c-.01.173-.016.348-.016.524 0 4.85 3.928 8.782 8.771 8.782.298 0 .592-.016.884-.045l.032-.024a8.764 8.764 0 0 0 3.41-6.949 8.75 8.75 0 0 0-.883-3.843c-.003-.002-.003-.008-.006-.01-1.504-2.214-9.257-1.624-12.192 1.565z" fill="#F37A78" fill-rule="nonzero"/><path fill="#F37A78" fill-rule="nonzero" d="M68.7087682 166.095935L94.9831243 166.762944 72.283673 148.74838z"/><path fill="#453B69" fill-rule="nonzero" d="M72.283673 148.74838L64.9162374 156.744519 53.6872676 168.928731 68.7087682 166.095935z"/><path fill="#2A1210" fill-rule="nonzero" d="M66.2856887 207.559463L57.9415901 203.934759 46.8055095 199.09562 46.8055095 200.331315 66.2856887 209.517972 66.2856887 209.517972 66.2856887 209.517972z"/><path fill="#453B69" fill-rule="nonzero" d="M57.9415901 203.934759L68.0399664 205.680676 52.5938298 199.706824 52.5938298 198.883028 48.6340985 199.029185 46.8055095 199.09562z"/><path d="M67.798 184.549l.242 21.132-10.098-1.746 8.344 3.624v1.959l40.42-2.402-.006-1.77-10.517-2.355v-18.44H67.798v-.002zm18.568 8.894l.047 11.308-7.62.385-.084-11.52 7.657-.173z" fill="#F37A78" fill-rule="nonzero"/><path fill="#2A1210" fill-rule="nonzero" d="M52.5938298 199.706824L68.0399664 205.680676 67.7984546 184.548972 52.5938298 184.548972 52.5938298 198.883028z"/><path fill="#2A1210" fill-rule="nonzero" d="M78.7938746 205.135907L86.4134378 204.753241 86.3656663 193.443315 78.7062934 193.618704z"/><path fill="#453B69" fill-rule="nonzero" d="M415.540885 131.321102L407.515263 115.631769 372.164311 138.126722 415.020705 130.903889z"/><path fill="#9EB1DB" fill-rule="nonzero" d="M358.549418 213.636954L358.549418 213.636954 358.549418 213.636954 370.420649 210.987519 373.077279 210.392259 373.093203 206.233417 372.965812 206.185583 327.405017 206.185583 327.405017 206.185583 327.370515 216.331565 327.370515 216.331565 386.588667 221.86163 388.491568 223.068093 420.328656 223.721815 358.549418 217.620407z"/><path fill="#2A1210" fill-rule="nonzero" d="M435.758869 148.408231L436.820459 148.373685 435.758869 147.67213z"/><path fill="#2A1210" fill-rule="nonzero" d="M389.439037 216.352824L389.439037 216.360796 358.549418 213.647583 358.549418 213.636954 358.549418 213.636954 358.549418 217.620407 420.328656 223.721815 420.328656 219.066037z"/><path fill="#F37A78" fill-rule="nonzero" d="M373.077279 210.392259L373.077279 210.392259 370.420649 210.987519z"/><path fill="#453B69" fill-rule="nonzero" d="M358.549418 213.636954L358.549418 213.636954 358.549418 213.647583 389.439037 216.360796 389.439037 216.352824 416.07168 215.946241 416.07168 215.946241 416.07168 215.946241 373.071971 212.483639 373.077279 210.392259 370.420649 210.987519z"/><path fill="#F37A78" fill-rule="nonzero" d="M416.244188 132.694981L431.501892 144.42212 431.501892 144.594852 416.244188 133.757944 416.246842 138.076231 435.764177 150.765352 435.758869 148.408231 435.758869 147.67213 436.820459 148.373685 421.804267 131.597472 407.515263 115.631769 415.540885 131.321102z"/><path d="M407.738 156.609c-.629.268-1.245.582-1.836.935a14.996 14.996 0 0 0-4.547 4.236c1.71 5.79 7.055 10.016 13.392 10.016.72 0 1.426-.056 2.116-.16.002-.002.002-.005.005-.005a13.942 13.942 0 0 0 3.426-9.168 13.926 13.926 0 0 0-1.412-6.13 15.1 15.1 0 0 0-11.144.276zm.807-11.3h-.005c-.061-.005-.12-.013-.178-.018-.005 0-.01 0-.016-.003-.053-.005-.104-.01-.151-.016l-.035-.002-.127-.013c-.013 0-.024-.003-.037-.003-.04-.003-.08-.008-.117-.01l-.035-.003c-.034-.003-.069-.006-.103-.011l-.035-.003-.095-.008-.024-.002a4.027 4.027 0 0 1-.08-.008l-.042-.003c-.016-.003-.032-.003-.048-.005-.019-.003-.037-.003-.053-.006l-.03-.002c-.018-.003-.034-.003-.05-.006h-.01c-.027-.002-.045-.002-.061-.005-.016 0-.027-.003-.027-.003v1.823c2.01.123 3.99.333 5.818.622a42.717 42.717 0 0 1 2.704.513c.377.085.746.173 1.099.266l.377.1c.496.14.963.283 1.396.437.108.037.215.077.318.114.207.077.409.157.597.24a10.114 10.114 0 0 1 1.126.563c.026.015.05.031.074.047.077.048.151.093.218.141l.066.048c.066.045.13.093.188.138.019.013.032.027.05.04.06.048.118.096.168.146l.032.032c.053.05.1.104.146.154.005.008.013.016.018.022.045.053.085.108.12.162l.008.013c.037.056.066.112.09.167 0 .003.003.003.003.006a.872.872 0 0 1 .055.172v-2.264c-1.73-2.195-10.013-3.24-13.312-3.571zm7.816 41.49l19.408-.778v-10.133l-14.395-2.367-4.875-.803-.019 1.813-.119 12.269zm14.891-6.757c.003-.917.189-1.698.465-2.115 0 0 0-.003.003-.003a.927.927 0 0 1 .185-.213c.008-.005.014-.013.022-.018.015-.01.029-.021.045-.03a.607.607 0 0 1 .042-.023l.04-.016a1.34 1.34 0 0 0 .053-.016c.01-.003.021-.005.032-.005.029-.003.058-.006.09 0a.393.393 0 0 1 .13.042c.05.024.101.058.151.104.107.098.202.247.287.428.021.045.042.093.061.143a3.92 3.92 0 0 1 .183.62l.019.092c.066.351.106.744.106 1.159v.026l-.005 4.133h-.367l-1.55-.003.008-4.305zm-4.777-.375c.006-1.267.364-2.288.839-2.561l.016-.008a.56.56 0 0 1 .12-.048l.031-.008c.048-.008.096-.013.143-.008.152.018.298.111.428.263.393.454.663 1.438.66 2.546l-.015 4.496-1.062-.003-1.184-.002.024-4.667zm-4.283-3.3h.002c.725.09 1.293 1.461 1.282 3.066l-.008 1.223-.024 3.67-.565-.003-2.102-.005.04-5.097c.01-1.302.393-2.363.91-2.727.006-.002.008-.005.014-.008a.822.822 0 0 1 .124-.069l.027-.01a.478.478 0 0 1 .117-.032c.01-.003.02-.006.034-.008a.695.695 0 0 1 .149 0zm-6.717 11.2l.873.639-.168 16.938-.106 10.802-26.635.404 30.89 2.713v4.659l3.264-1.914a21.03 21.03 0 0 1 .234-1.878c.018-.117.042-.22.074-.293.172-.396.992-.494.992-.494v-.194c-.512-.096-.883-.367-.883-.686 0-.281.284-.52.698-.643a.69.69 0 0 1 .594-.364c.252 0 .473.147.595.364.414.123.698.362.698.643 0 .333-.396.609-.935.697l-.018.037v.149s.446.231.754.366c.12.054.215.248.278.492l17.816-10.438v-2.969l-8.72-.449v-19.101l-.63-.5-19.665 1.02zm12.099 1.763c1.388-.112 2.458 2.506 2.447 5.851l-.042 14.682-5.216 2.283.088-16.008c.021-3.646 1.269-6.691 2.723-6.808z" fill="#F37A78" fill-rule="nonzero"/><path d="M424.763 212.143l5.216-2.282.042-14.682c.01-3.346-1.062-5.964-2.447-5.852-1.454.117-2.702 3.16-2.72 6.806l-.09 16.01zm2.888-32.3c.003-1.06-.244-2.004-.61-2.482a.906.906 0 0 1 .273-.255c-.475.273-.833 1.294-.839 2.561l-.021 4.667 1.184.002.013-4.493zm-.321-2.743zm.722.2c-.13-.152-.276-.245-.428-.264.154.02.298.112.428.264zm4.86 1.171zm.127.468c.005.032.013.061.018.093-.005-.032-.013-.06-.018-.093zm-.943 5.41l.006-4.158c0-.893-.175-1.696-.444-2.16.022-.038.04-.07.062-.102-.276.418-.465 1.196-.465 2.116l-.01 4.305 1.55.002-.699-.002z" fill="#2A1210" fill-rule="nonzero"/><path fill="#2A1210" fill-rule="nonzero" d="M433.163281 180.190824L433.163281 180.190824 433.163281 180.220056z"/><path d="M432.794 178.177zm-.435-.532zm-.345-.003l.04-.016-.04.016zm-.087.054c.015-.011.029-.022.045-.03l-.045.03zm.18-.086c.01-.002.021-.005.032-.005-.01 0-.021.005-.032.005zm-.202.104zm-9.862-1.345zm.372 3.064c.008-1.246-.332-2.346-.823-2.822a.888.888 0 0 1 .135-.111c-.517.364-.9 1.424-.91 2.726l-.04 5.097 2.102.005h-.496l.032-4.895zm-.523-3.024zm-.151.083z" fill="#2A1210" fill-rule="nonzero"/><path fill="#2A1210" fill-rule="nonzero" d="M423.476271 179.433463L423.476271 179.433463 423.468309 180.658528z"/><path d="M427.04 177.363c.367.476.614 1.422.611 2.482l-.016 4.497 1.062.002.016-4.496c.005-1.108-.266-2.091-.661-2.546-.13-.151-.276-.244-.428-.263a.434.434 0 0 0-.143.008l-.032.008a.51.51 0 0 0-.12.048l-.015.008a.863.863 0 0 0-.273.252zm5.062 2.828l-.006 4.159.696.002h.366l.005-4.132v-.027a6.06 6.06 0 0 0-.106-1.158c-.005-.032-.013-.061-.018-.093a5.263 5.263 0 0 0-.128-.468 4.727 4.727 0 0 0-.056-.151 1.793 1.793 0 0 0-.06-.144c-.086-.18-.181-.33-.287-.428a.55.55 0 0 0-.282-.146.512.512 0 0 0-.122.005.176.176 0 0 0-.053.016l-.04.016-.042.024c-.016.008-.03.019-.045.03-.008.005-.013.013-.021.018a.996.996 0 0 0-.186.213s0 .002-.003.002a1.274 1.274 0 0 0-.06.101c.27.468.448 1.268.448 2.16zm-10.21-3.782l-.027.011a.822.822 0 0 0-.124.07l-.014.007c-.045.032-.09.07-.135.112.49.475.83 1.575.823 2.822l-.032 4.892h.496l.565.003.024-3.67.008-1.223c.01-1.605-.557-2.978-1.282-3.066h-.002a.557.557 0 0 0-.149.002l-.034.008a.448.448 0 0 0-.117.032z" fill="#453B69" fill-rule="nonzero"/><path fill="#F37A78" fill-rule="nonzero" d="M381.426685 206.374259L388.48626 206.810074 388.491568 206.140407 383.45963 205.829491z"/><path d="M383.46 205.83l.047-10.402c.008-1.591.706-2.968 1.741-3.701-.082-.008-.164-.019-.25-.022-1.942-.04-3.513 1.871-3.524 4.268l-.047 10.401 2.033-.545z" fill="#453B69" fill-rule="nonzero"/><path fill="#F37A78" fill-rule="nonzero" d="M408.810403 207.902269L408.815711 207.232602 400.442419 206.879167 398.409474 207.423935z"/><path d="M402.491 192.08c-.042-.003-.082-.008-.124-.01-2.134-.046-3.86 1.955-3.878 4.464l-.08 10.89 2.033-.545.08-10.89c.01-1.695.802-3.152 1.97-3.909zm-11.47-12.72l-.032 5.165h1.327l.032-5.166c.008-1.443.833-2.67 1.94-3.03a2.104 2.104 0 0 0-.709-.108c-1.406.029-2.548 1.435-2.558 3.138zm11.606-.15l-.043 5.328h1.327l.043-5.328c.01-1.507.91-2.785 2.11-3.138a2.33 2.33 0 0 0-.71-.098c-1.496.031-2.714 1.482-2.727 3.236zm-22.551 5.302h1.327l.021-5.015c.005-1.384.762-2.562 1.786-2.926a1.97 1.97 0 0 0-.706-.116c-1.327.026-2.399 1.39-2.407 3.042l-.021 5.015z" fill="#453B69" fill-rule="nonzero"/><path fill="#453B69" fill-rule="nonzero" d="M416.360963 186.799796L415.474535 187.567787 435.140493 186.55 435.769485 186.021176z"/><path d="M360.911 250.777v-.375s.202-.045.491-.095l-14.862-1.693.55-.21 15.6 1.7a48.78 48.78 0 0 1-.117-1.29c-9.111-1.053-29.632-3.416-30.662-3.458-.422-.019-1.59.053-1.945.194l-.332.133c-1.154-.107-3.386-.495-4.214-.014-.908.527 1.587.774 2.412.952l-.642.505c-1.701 1.331 31.962 4.172 33.647 4.384 2.5.317 3.5.048 3.5.048-.283.027-2.616.114-3.426-.781zm4.64-1.212s0-.154-.006-.41c-.262-.028-.557-.063-.889-.103a4.1 4.1 0 0 1-.316 1.06s.011.067.024.173l1.245.136c-.223-.242-.377-.452-.377-.452s.032-.345.319-.404zm7.38-2.24v-.951c-.406-.078-.745-.112-.745-.112l-1.067.162-1.707-.175s-.547-.572-1.399-.651a7.048 7.048 0 0 1-1.223-.242c.008.053.013.106.021.162l.008.058.04.335.016.128.032.295.013.127c.013.138.03.277.043.415.002.018.002.037.005.053.005.069.013.138.018.21l6.718.638c-.536-.096-.773-.452-.773-.452zm-7.962-2.238l-.395-.04c.082.553.178 1.38.194 2.246.217.027.435.056.658.082-.08-.76-.22-1.594-.457-2.288zm-2.555-.263l-9.59-.986s-4.02-.552-5.543-.31c-.685-.269-2.466-.447-3.037-.232-.575.218-1.592.309-1.592.309l-.284-.03s-.525-.239-1.287-.316c-.735-.074-1.462.167-1.659.306-.199.14-.186.467.555.558.767.095 1.046.005 1.276.034.234.03.592.072.592.072s-.73.744-.138 1.01c.621.282 3.485.701 4.01.226l5.54.983s1.772-.213 2.592-.37c0 0 3.214.277 8.61.925a36.277 36.277 0 0 1-.045-2.179z" fill="#9EB1DB" fill-rule="nonzero"/><path d="M365.84 230.687l-.061-.024a2.428 2.428 0 0 0 .06.024zm-.754-.136c.053-.002.106-.002.162 0-.056 0-.109-.002-.162 0zm.189.003zm1.236.882zm-.576-.707zm1.158 18.214l.008.332-.008-.332zm-.083-1.493l.024.313c-.01-.106-.016-.21-.024-.313zm.032.452c.01.148.019.295.027.446-.008-.151-.019-.3-.027-.446zm.027.478c.008.138.013.279.018.42-.005-.141-.01-.28-.018-.42zm.034 1.039c.003.151.005.303.005.457 0-.154-.002-.306-.005-.457zm-1.258-15.788zm1.287 4.67a1.42 1.42 0 0 1-.018.119c.008-.04.013-.08.018-.12zm.016-.16zm-.565 5.836l.056.342a47.135 47.135 0 0 0-.056-.342zm.058.366zm.064.42zm-.178-1.11zm-.849-10.197z" fill="#2A1210" fill-rule="nonzero"/><path d="M367.108 249.881c-.111-4.836-1.876-6.63-1.4-6.715.474-.088.702-.146.702-.146.035.175.07.37.107.58-.191-1.09-.356-1.768-.356-1.768a.717.717 0 0 0 .717-.717v-2.206c.111-.067.185-.234.233-.468a1.176 1.176 0 0 1-.1.314c.097-.29.161-.654.145-1.138.008.184.006.356-.005.51.082-1.137-.332-3.19-1.15-4.302.707.96 1.11 2.623 1.155 3.792-.021-.698-.83-1.947-.83-1.947s.146 2.978.146 4.137c0 1.727-1.42 1.108-1.42 1.108s.806-2.123.806-3.64v-1.542c0-.22-.215-.39-.422-.316a.775.775 0 0 0-.514.672c-.07.784-.21 1.531-.5 1.531-.464 0 .186-2.928.375-3.675a.13.13 0 0 1 .018-.043c.2-.433.86-.44.86-.44.202-.267.52-.543.749-1.191-.133.38-.581.33-.98-.13-.549-.636-.514-1.196-.363-1.584-.396.02-.764.207-.932.685 0 0-.358.24-.56.813-.201.572.022.856.284.95l.053.273c-1.276.707-1.523 2.931-1.523 2.931s-1.354-.144-1.354.492c0 .635.518 1.148.866 1.148.345 0 .517.005.517.005s-.374 1.905-.462 2.684c-.087.779.547 1.127.547 1.127s-.098 1.275-.114 3.165c-.003.162-.003.326-.003.5 0 .544.019 1.123.045 1.684.032.654.077 1.284.12 1.804.05.64.1 1.122.117 1.292l.008.066c-.433 0-.935.072-1.296.133-.291.05-.49.096-.49.096v.375c.806.895 3.142.807 3.428.778.13-.26.064-.949.024-1.27-.013-.106-.024-.173-.024-.173.146-.308.247-.67.316-1.06.096-.556.125-1.17.112-1.762a18.55 18.55 0 0 0-.194-2.245c-.061-.42-.114-.68-.114-.68l.167-.051c.133.223.244.486.34.773.236.696.374 1.528.459 2.288.08.726.109 1.382.117 1.78.005.256.005.41.005.41-.29.058-.316.404-.316.404s.154.21.377.451c.287.314.682.683 1.009.731.575.088.748-.172.748-.172.01-1.127-.25-1.1-.25-1.1zm-.698-6.861l-.249-1.188s.106.441.25 1.188z" fill="#2A1210" fill-rule="nonzero"/><path d="M366.872 246.041l.032.295c-.008-.1-.021-.196-.032-.295zm.048.42c.013.138.03.277.043.415-.016-.138-.03-.277-.043-.415zm-.111-.94l-.022-.163c-.01-.071-.018-.146-.029-.217.019.124.035.25.05.38zm.008.058l.04.335c-.011-.114-.027-.226-.04-.335zm.18 1.727l-.013-.164c-.006-.07-.014-.141-.019-.21l.032.374z" fill="#2A1210" fill-rule="nonzero"/><path d="M366.161 241.832l.25 1.188c-.144-.747-.25-1.188-.25-1.188zm-.714-9.694c.398.46.847.51.98.13.074-.215.108-.41.108-.585a1.216 1.216 0 0 0-.058-.358 1.016 1.016 0 0 0-.542-.596c-.031-.016-.063-.029-.098-.045l-.06-.024a2.427 2.427 0 0 0-.15-.045l-.037-.008a1.623 1.623 0 0 0-.318-.05c-.008 0-.019 0-.027-.003a1.645 1.645 0 0 0-.161 0c-.152.388-.186.949.363 1.584z" fill="#F37A78" fill-rule="nonzero"/><path d="M366.965 246.932c-.002-.019-.002-.038-.005-.054-.013-.14-.027-.279-.043-.414l-.013-.128-.032-.295-.016-.127-.04-.335-.007-.058c-.016-.128-.035-.256-.05-.38-.006-.035-.011-.067-.014-.101l-.04-.28-.016-.098a44.063 44.063 0 0 0-.048-.319l-.002-.024a47.135 47.135 0 0 0-.056-.342l-.008-.054-.048-.273c-.002-.019-.005-.037-.01-.053-.038-.208-.072-.402-.107-.58 0 0-.228.061-.703.146-.475.088 1.287 1.882 1.401 6.716v-.008c0-.152-.002-.306-.005-.457l-.002-.144-.008-.332c-.003-.048-.003-.096-.006-.14-.005-.142-.01-.283-.018-.42 0-.011 0-.025-.003-.035-.008-.15-.016-.298-.027-.447a163.349 163.349 0 0 0-.035-.452c-.002-.047-.007-.095-.01-.143-.008-.12-.018-.244-.029-.37zm.191-9.317c.016.483-.048.847-.146 1.137.043-.082.077-.189.101-.313 0-.008.003-.014.003-.022a1.42 1.42 0 0 0 .018-.12l.003-.026c.005-.042.01-.088.013-.133v-.013c.014-.154.014-.324.008-.51z" fill="#F37A78" fill-rule="nonzero"/><path d="M364.818 233.897c-.008.008-.013.019-.018.043-.189.746-.842 3.675-.375 3.675.29 0 .43-.747.5-1.53a.775.775 0 0 1 .514-.673c.207-.075.422.095.422.316v1.541c0 1.518-.807 3.64-.807 3.64s1.42.62 1.42-1.107c0-1.156-.146-4.138-.146-4.138s.81 1.25.83 1.948c-.044-1.17-.448-2.833-1.154-3.792 0-.003-.002-.003-.002-.005a2.137 2.137 0 0 0-.151-.189c-.003-.003-.003-.005-.006-.005a1.946 1.946 0 0 0-.162-.168c-.005.003-.666.01-.865.444z" fill="#F37A78" fill-rule="nonzero"/><path d="M375.137 245.265c.085-.175.199-.305.199-.305l.25-6.697-.253 6.697c.003 0-.111.13-.196.305z" fill="#2A1210" fill-rule="nonzero"/><path d="M376.551 236.839c.138-.787-1.218.768-1.733-.136-.517-.909.831-2.625.831-2.625.456-2.025-.87-2.376-1.444-2.698.013 0 .037.003.067.003-.056-.003-.088-.003-.088-.003v-.01c-.125-.072-.212-.146-.228-.237-.032-.178-.003-.895.045-1.063-.738-.324-.72-.887-.388-1.366a.933.933 0 0 1-.055-.002c-.335 0-.982.398-.982 1.108 0 .712.23.837.23 1.047v.523s-1.504.168-1.817.838c-.314.67-.314 2.824.544 2.824l-.584 3.41s.21.398 1.191.523c0 0 .335 3.117.292 6.235l.502.125v1.987s.234.356.767.455c.085.016.175.026.276.026h.021c.52-.01.76-.661.393-1.028l-.016-.016v-.585s.669-.252.669-.566l-.048-3.704c-.003-.173-.252-.192-.279-.019l-.1.646c-.03.178-.292.16-.292-.021l-.019-3.322c.982-.433 1.229-.885 1.287-1.127.003-.053.008-.111.014-.175.034-.322.132-.728.398-.728a.633.633 0 0 0 .38-.125l.156-.17a.515.515 0 0 0 .01-.024z" fill="#2A1210" fill-rule="nonzero"/><path d="M375.975 232.675zm-1.613-3.532zm.106.175zm-.183 2.065zm.252-1.863zm-.127 1.874c.037.002.08.008.124.01-.045-.005-.087-.008-.124-.01zm.15.013c.049.005.102.01.155.019-.053-.008-.106-.014-.154-.019zm-.485-2.53zm.982 16.612s-.003 0 0 0c-.003 0 0 0 0 0zm-1.298-16.758c.045.013.096.03.144.05-.05-.018-.099-.037-.144-.05zm1.362 16.569l-.032.074c.008-.026.021-.047.032-.074zm-1.205-16.51zm.313.204zm.523 2.437c.056.008.111.016.17.027-.059-.011-.117-.02-.17-.027zm1.858 5.169zm-1.439-5.092c.064.016.125.032.186.05-.061-.018-.125-.034-.186-.05zm.207.056zm1.163 5.293zm-.706-4.937zm-.186 2.158zm-.69-2.615c.058.01.12.024.18.037-.06-.013-.122-.027-.18-.037zm1.632 5.001c.008.027.01.056.013.082-.005-.029-.005-.055-.013-.082z" fill="#2A1210" fill-rule="nonzero"/><path d="M374.004 230.07c-.048.168-.077.883-.046 1.063.016.09.101.165.229.237v-.24s.377-.669.377-1.381c0-.08-.011-.157-.027-.226 0-.005-.003-.01-.003-.013a1.055 1.055 0 0 0-.066-.189l-.008-.019a1.041 1.041 0 0 0-.098-.156l-.016-.022a1.357 1.357 0 0 0-.12-.127c-.005-.006-.013-.01-.018-.016a1.167 1.167 0 0 0-.133-.101l-.018-.01a1.258 1.258 0 0 0-.144-.078c-.005-.003-.008-.003-.013-.005a.843.843 0 0 0-.143-.05c-.003 0-.006 0-.008-.003a.933.933 0 0 0-.136-.027c-.329.476-.347 1.04.39 1.363zm.3 9.113l.018 3.321c0 .181.265.202.292.022l.1-.646c.027-.17.28-.154.28.018l.047 3.705c0-.016.003-.032.006-.048.002-.024.002-.048.007-.069v-.003a.918.918 0 0 1 .032-.114c.008-.027.022-.048.032-.074l.016-.038c.085-.175.2-.305.2-.305l.251-6.697s0-.085.006-.207c-.059.25-.306.704-1.288 1.135zm.514-2.48c.518.906 1.871-.65 1.733.136a.602.602 0 0 0 .045-.114c0-.006.003-.008.003-.014a.495.495 0 0 0 .013-.111c0-.019-.005-.038-.005-.054a.482.482 0 0 0-.077-.228c-.093-.157-.3-.412-.499-.704-.23-.343-.454-.739-.475-1.1a.758.758 0 0 1 .096-.436c-.003 0-1.354 1.716-.834 2.625zm1.651.253l.008-.008a.53.53 0 0 0 .064-.088l-.157.17a.774.774 0 0 0 .085-.074zm-.82-2.878c.103-.178.186-.407.241-.651.056-.245.085-.508.085-.755a2.276 2.276 0 0 0-.032-.383 1.427 1.427 0 0 0-.108-.372.733.733 0 0 0-.088-.149.427.427 0 0 0-.183-.14 3.927 3.927 0 0 0-.188-.067c-.008-.002-.014-.005-.022-.005-.06-.019-.124-.035-.185-.05l-.032-.009c-.061-.013-.12-.026-.18-.037-.014-.002-.025-.005-.038-.005l-.17-.027c-.013-.002-.024-.002-.037-.005-.053-.008-.106-.013-.154-.019l-.026-.002c-.045-.006-.088-.008-.125-.01h-.016a3.768 3.768 0 0 1-.106-.009h-.013c-.03-.003-.054-.003-.067-.003.573.322 1.9.673 1.444 2.698z" fill="#F37A78" fill-rule="nonzero"/><path d="M424.981 228.01a4.048 4.048 0 0 0-.247-.042c-.021.178-.045.306-.069.335-.095.125-.26.197-.427 0-.045-.053-.066-.173-.072-.316l-.297.045-1.008-.104s-.324-.337-.828-.385c-.494-.048-.956-.215-.956-.215l-8.018-.824s-2.375-.327-3.275-.183c-.406-.157-1.457-.266-1.794-.136-.34.13-.94.18-.94.18l-.166-.018s-.17-.077-.436-.135c.356-.22.568-.417.523-.518-.05-.112-.409-.07-.892.085-.175-.027-.445.02-.727.146-.278.122-.499.287-.597.436-.443.252-.716.489-.666.603.066.151.695.021 1.433-.284.414.045.57 0 .703.015l.35.043s-.432.438-.082.598c.367.165 2.06.414 2.37.133l3.273.582s1.048-.125 1.531-.218c0 0 2.792.242 7.29.821l.295-.213 4.223.402c-.284-.064-.44-.604-.494-.832zm.579.84l.013-.005c-.008 0-.016.006-.027.006h.014z" fill="#9EB1DB" fill-rule="nonzero"/><path d="M426.398 219.51c-.308-.136-.753-.367-.753-.367v-.149l.018-.037c.539-.088.934-.364.934-.696 0-.282-.284-.521-.698-.643a.69.69 0 0 0-.594-.364.686.686 0 0 0-.595.364c-.414.122-.698.361-.698.643 0 .321.372.59.884.685v.194s-.823.099-.992.495a1.256 1.256 0 0 0-.075.292c0 .003 0 .008-.002.01-.014.086-.178 1.082-.231 1.869-.019.295-.024.56.005.736.104.659.114 1.05.303 1.164.084.05.127-.072.15-.231.04.024.088.05.15.071l-.088 3.74s.024.055.087.108a4.37 4.37 0 0 0-.026.588c.005.143.026.26.072.316.164.197.331.125.427 0 .024-.03.045-.16.069-.335.018-.146.034-.324.05-.51.053-.019.112-.037.173-.067v.521l.021.101c.053.226.21.766.494.832a.202.202 0 0 0 .055.008h.016c.008 0 .016-.003.027-.005.26-.035.377-.394.183-.604l-.008-.01v-.346s.366-.149.366-.335c0-.186.16-.382.16-.382l.138-3.957s.246-.904.111-1.15c-.138-.248-.104-.466.125-.888.14-.258.13-.779.032-1.172-.075-.24-.173-.436-.29-.49z" fill="#2A1210" fill-rule="nonzero"/><path d="M427.075 222.382a.307.307 0 0 1-.093.101" stroke="#F37A78" stroke-linecap="round" stroke-linejoin="round"/><path d="M395.628 151.78c.388.139.804.272 1.242.4a13.95 13.95 0 0 0-4.506 10.283c0 4.35 1.985 8.236 5.095 10.8l-24.26.694-.013 4.06-.03 8.405.794.763-.798.651-.061 18.395-.014 4.159-.008 2.091 43.003 3.463.106-10.803.167-16.938-.873-.638.886-.768.122-12.27.019-1.811-.703.02c.36-.331.703-.682 1.024-1.052.013-.015.03-.037.043-.055-.003.002-.003.005-.006.005-.69.104-1.396.16-2.115.16-6.335 0-11.683-4.226-13.392-10.016a15.032 15.032 0 0 1 4.546-4.236 15.106 15.106 0 0 1 12.978-1.214l.008.015c-.002-.005-.005-.01-.005-.016-.003-.002-.003-.008-.005-.01-.401-.989-.988-1.94-1.717-2.822 2.375-.357 3.957-.92 4.506-1.61l14.095-1.122-19.517-12.692-.003-4.318 15.26 10.84v-.174l-15.26-11.727-.703-1.374-.52-.417-42.857 7.223 2.76.816-1.963.247.005 3.85 16.977 6.158 2.925 1.06c.467.51 1.385 1.031 2.768 1.525zm26.232-.63a1.184 1.184 0 0 0-.056-.172c0-.003-.002-.003-.002-.005a1.291 1.291 0 0 0-.09-.168l-.009-.013a1.938 1.938 0 0 0-.284-.338l-.031-.031c-.05-.048-.11-.096-.168-.147a3.864 3.864 0 0 0-.239-.178c-.023-.016-.042-.032-.066-.047l-.217-.141c-.027-.016-.048-.032-.075-.048a9.68 9.68 0 0 0-1.125-.563 12.706 12.706 0 0 0-.916-.354 22.5 22.5 0 0 0-1.396-.436c-.124-.034-.25-.069-.377-.1-.352-.094-.719-.181-1.098-.267a47.64 47.64 0 0 0-2.704-.513c-1.83-.289-3.81-.499-5.818-.621v-1.823l.026.002c.014 0 .035.003.061.006h.011c.016 0 .032.002.05.005.008 0 .019.003.03.003.016.002.034.002.053.005.016 0 .032.003.047.005.014 0 .027.003.043.003l.08.008c.008 0 .015.003.023.003l.096.008.035.002.103.01c.01 0 .024.004.035.004.037.002.076.008.116.01.014 0 .024.003.037.003.043.003.085.008.128.013l.034.003.152.016a4.502 4.502 0 0 1 .194.021h.005c3.296.332 11.579 1.377 13.315 3.577v2.259h-.003zm-16.505 24.824a2.32 2.32 0 0 1 .709.098c-1.2.353-2.1 1.631-2.11 3.138l-.043 5.328h-1.327l.043-5.328c.013-1.754 1.231-3.205 2.728-3.236zm-11.773.247c.247-.006.483.034.709.109-1.11.358-1.933 1.583-1.94 3.03l-.032 5.165h-1.327l.031-5.166c.008-1.703 1.15-3.11 2.559-3.138zm-11.078.234a1.96 1.96 0 0 1 .706.116c-1.024.364-1.78 1.542-1.786 2.926l-.021 5.015h-1.327l.021-5.015c.008-1.653 1.083-3.016 2.407-3.042zm-1.03 19.518c.011-2.397 1.582-4.307 3.525-4.268.085.003.167.011.25.022-1.038.733-1.734 2.107-1.742 3.701l-.047 10.401 5.032.311-.003.67-7.06-.436.045-10.4zm18.968 10.906l8.374.354-.006.67-10.4-.48.08-10.89c.018-2.508 1.743-4.509 3.877-4.464.042 0 .084.008.124.011-1.167.757-1.958 2.216-1.972 3.91l-.077 10.89z" fill="#2A1210" fill-rule="nonzero"/></g></g><path fill="#FFF" mask="url(#b)" d="M119 461H436V549H119z"/></g></svg>