<?xml version="1.0" encoding="UTF-8" standalone="no"?><!DOCTYPE svg PUBLIC "-//W3C//DTD SVG 1.1//EN" "http://www.w3.org/Graphics/SVG/1.1/DTD/svg11.dtd"><svg width="100%" height="100%" viewBox="0 0 619 684" version="1.1" xmlns="http://www.w3.org/2000/svg" xmlns:xlink="http://www.w3.org/1999/xlink" xml:space="preserve" xmlns:serif="http://www.serif.com/" style="fill-rule:evenodd;clip-rule:evenodd;stroke-linejoin:round;stroke-miterlimit:1.41421;"><g id="Landing_3"><rect x="0" y="0" width="619" height="683.95" style="fill:#fff;"/><path d="M388.91,10l-360.6,65l0,79.85c27.27,7.42 30.59,44.78 26,54.51c2.326,-3.097 5.587,-5.366 9.3,-6.47c13.18,-4.24 26.71,4.46 32.45,19.8c6.415,2.22 11.908,6.523 15.6,12.22c15.264,1.708 26.939,14.763 26.939,30.122c0,2.733 -0.37,5.454 -1.099,8.088c1.184,0.95 2.219,2.073 3.07,3.33c6.16,-2.65 12.38,-5.05 19,-5.81c9.77,-1.12 17.19,4.18 24.77,9c9.595,-10.348 25.186,-12.738 37.44,-5.74c5.083,-10.439 15.721,-17.092 27.332,-17.092c16.677,0 30.4,13.723 30.4,30.4c0,2.231 -0.245,4.455 -0.732,6.632c10.09,0.71 16.58,1.15 20.79,15.66c9.7,-3 48.39,3.69 40.15,43.09c0.641,-0.072 1.285,-0.109 1.93,-0.11c9.168,-0.027 16.967,6.954 17.95,16.07c22.61,7 39.64,10.28 45.88,10.83l184.85,0l0,-319l-201.42,-50.38Zm110,342.49c-31.328,-0.066 -57.07,-25.862 -57.07,-57.19c0,-31.373 25.816,-57.19 57.19,-57.19c31.373,0 57.19,25.817 57.19,57.19c-0.033,31.384 -25.866,57.19 -57.25,57.19c-0.02,0 -0.04,0 -0.06,0Z" style="fill:#2a1210;fill-rule:nonzero;"/><ellipse cx="498.91" cy="295.3" rx="57.31" ry="57.19" style="fill:#f37a78;"/><path d="M407,379.46l-49.73,0l29.68,0c-1.235,0.046 -2.467,0.156 -3.69,0.33c-26,0.63 -72.62,2.33 -72.62,6.4c0,2.82 21.79,-0.61 21.79,2.82c0,3.43 -28.24,4.63 -28.24,4.63c0,0 9.57,0.39 13.56,1.75c0,0 -12.15,1.47 -18.4,0.87c0,0 5.75,1.71 -3.43,2.71c-9.18,1 -20.79,0.91 -20.79,0.91c0,0 16,0.92 16,2.42c0,1.5 -9.78,1.41 -9.78,1.41c-18.78,0 -51.93,0.6 -51.93,5c0,4.4 27.9,1.09 27.9,4.23c0,3.14 -36.52,3.82 -36.52,3.82c0,0 19.66,0.64 28.29,2.63c0,0 -24.66,2 -39.18,1.4c-4.23,-0.18 -7.35,0.33 -9.27,1.14c-1.508,0.651 -3.084,1.127 -4.7,1.42c-1.355,0.216 -2.692,0.533 -4,0.95c1.485,0.977 3.222,1.501 5,1.51c1.32,0.029 2.626,0.269 3.87,0.71c2.604,0.843 5.335,1.222 8.07,1.12c14.93,0 3.23,5 -3.43,5c-12.4,0 -26.47,3.47 -27,5.4c-3.612,0.201 -7.209,0.622 -10.77,1.26c2.962,0.82 6.002,1.326 9.07,1.51c-2.19,0.2 -3.78,0.37 -3.78,0.37c-2.504,0.466 -5.031,0.8 -7.57,1c-6.37,-0.24 -11.82,-0.63 -16.23,-0.83c1.578,-0.274 3.136,-0.658 4.66,-1.15c-5.94,-3 -14.6,0 -14.6,0c0.795,0.568 1.696,0.969 2.65,1.18c-4.254,0.62 -8.391,1.877 -12.27,3.73c-8.835,-0.614 -17.707,-0.437 -26.51,0.53c8,1.32 17.29,1.14 23.79,0.73c-5.72,2.78 -11.65,6.29 -17.55,9.56c-10.06,0 -15.53,0.44 -15.53,0.44c0,0 9.84,0.42 8.56,2.11c-1.28,1.69 -30.79,2.1 -30.79,2.1c8.717,0.935 17.484,1.326 26.25,1.17c-5.33,2.33 -10.51,3.89 -15.34,3.89c-4.36,0 -16.36,-1.4 -21.59,-6c-0.8,-0.7 -1.72,-1.47 -2.72,-2.26c11,0.88 22,-2.33 22,-2.33c-10.09,-3.15 -20.61,-2.21 -26.74,-1.16c-6.093,-4.138 -12.928,-7.058 -20.13,-8.6c-1.738,-0.385 -3.418,-0.993 -5,-1.81l0,-64l297.69,0l-297.64,-0.06l0,244.81l360.55,49.77l201.42,-36.47l0,-258.15l-184.89,0c0.62,0.05 1.14,0.08 1.56,0.08Z" style="fill:#1580f2;fill-rule:nonzero;"/><path d="M326,379.48l31.29,0l-31.29,0Z" style="fill:#fff;fill-rule:nonzero;"/><path d="M28.31,379.54l0,64c1.582,0.817 3.262,1.425 5,1.81c7.202,1.542 14.037,4.462 20.13,8.6c6.13,-1.05 16.65,-2 26.74,1.16c0,0 -11,3.21 -22,2.33c1,0.79 1.92,1.56 2.72,2.26c5.23,4.57 17.23,6 21.59,6c4.83,0 10,-1.56 15.34,-3.89c-8.766,0.156 -17.533,-0.235 -26.25,-1.17c-8.717,-0.935 29.5,-0.41 30.79,-2.1c1.29,-1.69 -8.56,-2.11 -8.56,-2.11c0,0 5.47,-0.46 15.53,-0.44c5.9,-3.27 11.83,-6.78 17.55,-9.56c-6.5,0.41 -15.77,0.59 -23.79,-0.73c8.803,-0.967 17.675,-1.144 26.51,-0.53c3.879,-1.853 8.016,-3.11 12.27,-3.73c-0.954,-0.211 -1.855,-0.612 -2.65,-1.18c-0.795,-0.568 8.66,-3 14.6,0c-1.524,0.492 -3.082,0.876 -4.66,1.15c4.41,0.2 9.86,0.59 16.23,0.83c2.539,-0.2 5.066,-0.534 7.57,-1c2.504,-0.466 1.59,-0.17 3.78,-0.37c-3.068,-0.184 -6.108,-0.69 -9.07,-1.51c3.561,-0.638 7.158,-1.059 10.77,-1.26c0.52,-1.93 14.59,-5.4 27,-5.4c6.66,0 18.36,-5 3.43,-5c-2.735,0.102 -5.466,-0.277 -8.07,-1.12c-1.244,-0.441 -2.55,-0.681 -3.87,-0.71c-1.778,-0.009 -3.515,-0.533 -5,-1.51c1.308,-0.417 2.645,-0.734 4,-0.95c1.616,-0.293 3.192,-0.769 4.7,-1.42c1.92,-0.81 5,-1.32 9.27,-1.14c14.52,0.6 39.18,-1.4 39.18,-1.4c-8.63,-2 -28.29,-2.63 -28.29,-2.63c0,0 36.52,-0.69 36.52,-3.82c0,-3.13 -27.9,0.2 -27.9,-4.23c0,-4.43 33.15,-5 51.93,-5c0,0 9.78,0.08 9.78,-1.41c0,-1.49 -16,-2.42 -16,-2.42c0,0 11.61,0.1 20.79,-0.91c9.18,-1.01 3.43,-2.71 3.43,-2.71c6.25,0.6 18.4,-0.87 18.4,-0.87c-4,-1.36 -13.56,-1.75 -13.56,-1.75c0,0 28.24,-1.21 28.24,-4.63c0,-3.42 -21.79,0 -21.79,-2.82c0,-4.07 46.63,-5.77 72.62,-6.4c1.223,-0.174 2.455,-0.284 3.69,-0.33l-60.95,0l-297.69,0.02Zm113.82,42.86c0,0 -10,3.44 -14.6,0c0,0 8.66,-2.99 14.6,0Zm-33.36,29.46c0,0 -11.56,2.49 -19.14,0c0,0 10.03,-2.15 19.14,0Zm-14.52,-7.72c0,0 -10.79,1.09 -14,1.09c-3.21,0 -13.1,-0.79 1.81,-2.39c9.875,-0.932 19.815,-0.932 29.69,0c-5.861,-0.105 -11.719,0.33 -17.5,1.3Zm2,-8.84c0,0 18.51,-3.91 35.47,0c-0.01,0 -21.37,4.51 -35.48,0l0.01,0Zm21.14,4.64c0,0 10,-2.16 19.14,0c-0.01,0 -11.53,2.48 -19.15,0l0.01,0Zm10.67,-8.6c0,0 10,-2.16 19.14,0c-0.01,0 -11.58,2.48 -19.15,0l0.01,0Zm15,4c0,0 10,-2.16 19.14,0c0.02,0.02 -11.55,2.51 -19.12,0.02l-0.02,-0.02Zm3,-7.59c10.661,-1.174 21.419,-1.174 32.08,0c10.661,1.174 -17.93,2.34 -32.03,0.02l-0.05,-0.02Zm19.42,7.56c0,0 8.66,-3 14.6,0c0.05,0.02 -9.94,3.47 -14.55,0.02l-0.05,-0.02Zm33.79,-5.31c0,0 -11.56,2.49 -19.14,0c0,0 10.03,-2.12 19.14,0Z" style="fill:#2a1210;fill-rule:nonzero;"/><path d="M96.24,435.3c14.11,4.51 35.47,0 35.47,0c-16.96,-3.91 -35.47,0 -35.47,0Z" style="fill:#1580f2;fill-rule:nonzero;"/><path d="M165.53,435.33c4.61,3.45 14.6,0 14.6,0c-5.94,-2.98 -14.6,0 -14.6,0Z" style="fill:#1580f2;fill-rule:nonzero;"/><path d="M142.13,422.4c-5.94,-3 -14.6,0 -14.6,0c4.61,3.44 14.6,0 14.6,0Z" style="fill:#1580f2;fill-rule:nonzero;"/><path d="M89.63,451.86c7.58,2.49 19.14,0 19.14,0c-9.11,-2.15 -19.14,0 -19.14,0Z" style="fill:#1580f2;fill-rule:nonzero;"/><path d="M143.08,435.36c7.57,2.49 19.14,0 19.14,0c-9.12,-2.16 -19.14,0 -19.14,0Z" style="fill:#1580f2;fill-rule:nonzero;"/><path d="M117.38,439.94c7.57,2.48 19.14,0 19.14,0c-9.12,-2.16 -19.14,0 -19.14,0Z" style="fill:#1580f2;fill-rule:nonzero;"/><path d="M128.05,431.34c7.57,2.48 19.14,0 19.14,0c-9.12,-2.16 -19.14,0 -19.14,0Z" style="fill:#1580f2;fill-rule:nonzero;"/><path d="M180.13,430c7.58,2.49 19.14,0 19.14,0c-9.11,-2.12 -19.14,0 -19.14,0Z" style="fill:#1580f2;fill-rule:nonzero;"/><path d="M146.11,427.77c14.1,2.32 32.08,0 32.08,0c-10.661,-1.174 -21.419,-1.174 -32.08,0Z" style="fill:#1580f2;fill-rule:nonzero;"/><path d="M82.11,442.84c-14.91,1.6 -5,2.39 -1.81,2.39c3.19,0 14,-1.09 14,-1.09c5.797,-0.973 11.672,-1.408 17.55,-1.3c-9.891,-0.935 -19.849,-0.935 -29.74,0Z" style="fill:#1580f2;fill-rule:nonzero;"/><path d="M201.59,504.85l-18.37,3l8.23,-0.1c2.32,-0.54 7.12,-1.09 10.14,-2.9Z" style="fill:none;"/><path d="M489,502.53l-125.48,-10.73c-1.67,1.43 -4,3.32 -7,5.6l78.8,10.08l53.89,-0.77l-0.21,-4.18Z" style="fill:none;"/><path d="M162.34,520.37l-0.29,-0.54l-26.6,5.69l27.31,-0.32c0.71,-0.96 0.9,-2.46 -0.42,-4.83Z" style="fill:none;"/><path d="M190.71,515.38c-0.724,0.767 -1.796,1.108 -2.83,0.9c-0.925,-0.173 -1.743,-0.71 -2.27,-1.49l-7,1.5c-0.32,4.08 -2,7.37 -3.09,8c-0.52,0.29 -1.07,0.55 -1.57,0.79l22.45,-0.26l-5.69,-9.44Z" style="fill:none;"/><path d="M180.53,561.75l0.07,0l-0.07,0Z" style="fill:none;"/><path d="M181.77,533.13c1.449,1.285 2.357,3.073 2.54,5l0,2l7.25,-5.56l0.24,0.08c1.521,0.508 2.872,1.429 3.9,2.66c-0.06,-1.82 0.11,-5.45 2.06,-8.16l-24.56,-0.33c1.94,1.18 6.8,2.82 8.57,4.31Z" style="fill:none;"/><path d="M178.44,512.22l7.31,-1.51c0.116,-0.195 0.253,-0.376 0.41,-0.54l-8.28,-0.17c0.247,0.723 0.435,1.466 0.56,2.22Z" style="fill:none;"/><path d="M443.27,538.87l-3.66,-0.42l-1.36,-6.65l-52.09,-7.68l-70.29,2l-4.46,3l59,9.36l68.69,0l4.17,0.39Z" style="fill:none;"/><path d="M337.63,538.47l-32.54,-5.25c-2.67,1.73 -5.4,3.47 -8.2,5.25l40.74,0Z" style="fill:none;"/><path d="M462.45,514.67l-35.18,-4.37l-87.55,2.54l56.42,8.24l67.87,-0.99l-1.56,-5.42Z" style="fill:none;"/><path d="M368.31,521.49l-37.4,-5.49c-2.88,2 -5.903,4.067 -9.07,6.2l46.47,-0.71Z" style="fill:none;"/><path d="M407.81,507.88l-55.92,-6.95c-3.15,2.37 -6.78,5 -10.83,7.91l66.75,-0.96Z" style="fill:none;"/><path d="M150.71,543.84c-0.734,-2.612 -1.193,-5.293 -1.37,-8c0.02,-2.405 1.123,-4.677 3,-6.18c0.59,-0.374 1.205,-0.709 1.84,-1l-31.3,-0.42l-78.26,16.7l-2.72,6.9l109.1,-1.25c0.023,-2.254 -0.073,-4.507 -0.29,-6.75Z" style="fill:none;"/><path d="M357.8,541.72l-67.22,0.72c-7.54,4.71 -15.5,9.54 -23.8,14.42l135.59,0l-1.68,-8.22l-42.89,-6.92Z" style="fill:none;"/><path d="M247.66,481.59l-13.28,1.57c-0.448,0.824 -0.943,1.621 -1.48,2.39c-0.671,0.968 -1.021,2.122 -1,3.3c0.021,1.178 0.35,0 0.91,0.14l12.3,-1.5c0.702,-2.028 1.554,-4 2.55,-5.9Z" style="fill:none;"/><path d="M216.66,502.39l-3.56,0.58c-1.54,1.37 -3.44,3.08 -5.09,4.58l9.3,-0.1c-0.2,-1.88 -0.43,-3.72 -0.65,-5.06Z" style="fill:none;"/><path d="M211,491.65l3.13,-0.38l0.52,-0.46c2,-1.67 6.54,-1.54 8.39,-1.56l0,-0.08l0.5,0.07l0.16,-2.51c-0.609,-0.633 -1.124,-1.351 -1.53,-2.13l-33,3.91l-1.87,3l-6.36,0.5l5.56,-0.26l24.5,-0.1Z" style="fill:none;"/><path d="M155.32,508.16l6.81,-1.1c1.246,-1.29 2.726,-2.332 4.36,-3.07c2.638,-1.265 5.792,-0.84 8,1.08l31.69,-5.07c1.06,-1.25 2.24,-2.61 3.41,-3.94l-67.72,8.37l-2.45,3.87l-3.91,0.31l4.91,-0.23l14.9,-0.22Z" style="fill:none;"/><path d="M198.39,510.42c-1.61,0.14 -3,0.63 -3.38,2.05c-0.16,0.57 -0.5,0.81 -0.86,0.83l7.27,11.46l2.29,0c1.08,-0.733 2.333,-1.597 3.76,-2.59c0,-0.5 -0.05,-0.94 -0.07,-1.29c-0.36,-5.91 4.75,-7.61 10,-5.72l0.61,-0.44c-0.07,-0.79 -0.2,-2.22 -0.36,-3.88l-19.26,-0.42Z" style="fill:none;"/><path d="M489.23,506.7l-53.89,0.78l16.44,2.1l52.39,-1.52l-14.93,-1.07l-0.01,-0.29Z" style="fill:#453b69;fill-rule:nonzero;"/><path d="M396.14,521.08l15.7,2.29l63.75,-1.85l-11.58,-1.43l-67.87,0.99Z" style="fill:#453b69;fill-rule:nonzero;"/><path d="M350.34,490.68c-2.38,1.54 -4.983,3.183 -7.81,4.93l14,1.79c3,-2.28 5.31,-4.17 7,-5.6l-13.19,-1.12Z" style="fill:#453b69;fill-rule:nonzero;"/><path d="M407.81,507.88l-66.75,1c4.05,-2.89 7.68,-5.54 10.83,-7.91l-15.06,-1.87c-5.55,3.33 -11.71,6.91 -18.34,10.68l21.23,3.1l87.55,-2.54l-19.46,-2.46Z" style="fill:#453b69;fill-rule:nonzero;"/><path d="M386.16,524.12l-17.85,-2.63l-46.47,0.68c3.173,-2.14 6.197,-4.207 9.07,-6.2l-18.58,-2.74c-7.13,4 -14.68,8.18 -22.5,12.45l21.58,3.43l4.46,-3l70.29,-1.99Z" style="fill:#453b69;fill-rule:nonzero;"/><path d="M290.58,542.44l67.22,-0.72l-20.17,-3.25l-40.74,0c2.8,-1.78 5.53,-3.52 8.2,-5.25l-22.47,-3.62c-45.81,24.82 -98.47,51.77 -124.3,64.94c-11.56,5.88 -65.085,28.617 -82.895,36.187l14.219,1.96c43.37,-15.69 131.636,-49.537 168.696,-70.897l169.51,-1.79l-25.48,-3.15l-135.59,0c8.3,-4.85 16.22,-9.7 23.8,-14.41Z" style="fill:#453b69;fill-rule:nonzero;"/><path d="M355.23,487.42l11.35,0.94c0.07,-3.3 -2.08,-8.33 -2.08,-8.33c-2.834,2.768 -5.94,5.244 -9.27,7.39Z" style="fill:#453b69;fill-rule:nonzero;"/><path d="M439.06,538.47l-68.69,0l18.4,2.92l69.82,-0.75l-15.32,-1.77l-4.21,-0.4Z" style="fill:#453b69;fill-rule:nonzero;"/><path d="M160.22,526.76c0.991,-0.236 1.881,-0.783 2.54,-1.56l-27.31,0.32l-12.54,2.68l31.3,0.42c1.942,-0.802 3.954,-1.424 6.01,-1.86Z" style="fill:#453b69;fill-rule:nonzero;"/><path d="M94.1,525.99l-13.65,1.64l22.22,0.3l10.38,-2.16l-18.95,0.22Z" style="fill:#453b69;fill-rule:nonzero;"/><path d="M202.09,525.82c0.47,-0.31 1,-0.68 1.62,-1.09l-2.29,0l0.67,1.09Z" style="fill:#453b69;fill-rule:nonzero;"/><path d="M173.94,525.08c-0.568,0.224 -1.097,0.534 -1.57,0.92l0,2.15c0,0.2 0.31,0.45 0.82,0.73l24.56,0.33c0.227,-0.309 0.474,-0.603 0.74,-0.88l-2.11,-3.51l-22.44,0.26Z" style="fill:#453b69;fill-rule:nonzero;"/><path d="M217.31,507.45l-9.3,0.1c-0.95,0.88 -1.82,1.69 -2.48,2.34c-1.05,1 -4.46,0.29 -7.14,0.53l19.26,0.39c-0.1,-1.06 -0.21,-2.22 -0.34,-3.36Z" style="fill:#453b69;fill-rule:nonzero;"/><path d="M140.42,508.33l-4.91,0.23l-5.89,0.46l18.08,0.37l7.62,-1.23l-14.9,0.17Z" style="fill:#453b69;fill-rule:nonzero;"/><path d="M186.16,510.17c0.438,-0.48 0.96,-0.876 1.54,-1.17c0.58,-0.294 1.45,-0.61 3,-1.07l0.17,-0.05l0.31,-0.08l0.24,0l-8.23,0.1l-5.8,0.94c0.175,0.398 0.329,0.805 0.46,1.22l8.31,0.11Z" style="fill:#453b69;fill-rule:nonzero;"/><path d="M241,494.34l2,-0.34l0,0.13c0.21,-0.75 0.43,-1.54 0.67,-2.34l-4,0.49c0.583,0.586 1.036,1.288 1.33,2.06Z" style="fill:#453b69;fill-rule:nonzero;"/><path d="M186.48,491.71l-5.57,0.26l-5.68,0.45l23.63,0.72l12.16,-1.49l-24.54,0.06Z" style="fill:#453b69;fill-rule:nonzero;"/><path d="M151,550.59l-109.1,1.25l-0.08,0.19l-13.51,1.73l0,1.82l123.1,0c-0.259,-1.058 -0.396,-2.141 -0.41,-3.23c0,-0.6 0,-1.19 0,-1.76Z" style="fill:#453b69;fill-rule:nonzero;"/><path d="M318.07,492.48l4.07,0.52l7.88,1l0.06,0l0.31,-0.19c2.347,-1.407 4.68,-2.823 7,-4.25l-16,-1.37c-0.995,1.513 -2.105,2.947 -3.32,4.29Z" style="fill:#f37a78;fill-rule:nonzero;"/><path d="M171.59,566c-14,-0.1 -18.77,-6.9 -19,-7.24l-16.64,7.69l17.71,8.14l17.93,-8.59Z" style="fill:#453b69;fill-rule:nonzero;"/><path d="M134.66,571.45l-1.2,4.6l1.2,-4.6Z" style="fill:#453b69;fill-rule:nonzero;"/><path d="M74.46,622.38c14.07,-6.57 43.22,-20.51 76.72,-36.78l-17.72,-9.55c0,0 -79.24,43.14 -100.85,61.62c0,0 6.22,1.33 41.85,-15.29Z" style="fill:#453b69;fill-rule:nonzero;"/><path d="M314.29,496.26c-2.167,1.948 -4.455,3.759 -6.85,5.42l-1.42,0.83l-7.42,4.33l3.53,0.52l20.91,-10l-6.8,-0.85l-1.95,-0.25Z" style="fill:#f37a78;fill-rule:nonzero;"/><path d="M273,521.3l22.15,-10.6l-2.56,-0.38c-7.47,4.3 -14.72,8.41 -19.59,10.98Z" style="fill:#f37a78;fill-rule:nonzero;"/><path d="M507.81,498l-18.52,0.46l-122.71,-10.1l-11.35,-0.94c3.332,-2.155 6.437,-4.641 9.27,-7.42c2.833,-2.779 2.06,-7.75 2.06,-11.47c-4,4.43 -13.29,11 -24.06,17.81l-15.29,-1.26c0,0 -0.08,-0.85 -0.19,-2.15l-0.7,-1.57c-0.35,-0.79 -2.37,-1.23 -2.37,-1.23l0.64,-10.63c-0.75,-2 -4.29,-4.28 -6.41,-5.48c-0.63,-0.371 -1.428,-0.315 -2,0.14l-1.62,1.26l0.14,-2.32l2.39,-2.95c0.15,-0.46 0.33,-1.07 0.5,-1.71c0.42,-0.05 0.85,-0.68 1,-1.5c0.106,-0.483 0.057,-0.987 -0.14,-1.44c-0.075,-0.174 -0.227,-0.303 -0.41,-0.35c-0.26,0 -0.54,0.16 -0.75,0.51c-0.121,-1.059 -0.462,-2.08 -1,-3c0.4,-1.38 0,-1.85 0,-1.89c-0.963,-0.576 -2.08,-0.845 -3.2,-0.77c-6.52,0.16 -5.34,6.71 -4.8,9.54c0.153,0.867 0.711,1.61 1.5,2l-0.15,1.21l-0.18,1.23c0,0 -6.83,1.85 -8.09,2.12c-0.1,0.079 -0.194,0.166 -0.28,0.26c-0.849,1.63 -1.52,3.346 -2,5.12l2.06,4.46l-0.84,3.3c0,0 -0.54,-2.34 -0.74,-3.25c-1.18,-5.58 -7.21,-7.41 -7.21,-7.41l-0.31,1.12l-1.91,0.81l0,-2.8l2.27,-2.59c0.56,-1.63 1.87,-2.54 2.32,-6.83c-0.031,-0.371 -0.266,-0.696 -0.61,-0.84c-0.904,-0.155 -1.571,-0.946 -1.571,-1.863c0,-0.302 0.073,-0.599 0.211,-0.867c0.22,-0.562 -0.053,-1.206 -0.61,-1.44c-2.293,-0.869 -4.819,-0.911 -7.14,-0.12c-1.44,1.06 -2,2.88 -2.1,5.34c-0.25,6.26 2.57,6.76 2.57,6.76l-0.08,2.64c0,0 -1.21,0.75 -1.45,1.57c0,0 -4.36,-0.23 -5.46,0.23c-1.139,1.609 -2.048,3.369 -2.7,5.23l-7.08,0.83l0.08,-0.35c-0.08,0.32 -0.13,0.52 -0.13,0.54c0,0.02 1.4,0.38 3,0.95l0.49,0.18l0.79,0.31c0.57,0.23 1.12,0.47 1.62,0.72c2.73,2.06 2.43,4 2.43,4c-0.4,-1.82 -4.39,-4 -6.39,-4.29c-2,-0.29 -4.11,1.19 -4.11,-2.77c0,-1.62 3.78,-4 3.78,-4c-0.002,0.023 -0.002,0.047 0,0.07c0.88,-1.58 2,-3.45 2.11,-5.32c0.18,-3.09 -1.14,-7.36 -5.87,-7.84c-5.14,-0.52 -8.11,0.61 -8.68,6.36c-0.53,5.26 2.31,6.89 2.49,9c0.077,0.736 -0.023,1.48 -0.29,2.17l-0.49,-0.13c0,0 0,0.09 0,0.21c-2.893,0.325 -5.727,1.052 -8.42,2.16c-0.111,0.045 -0.217,0.099 -0.32,0.16l-14.91,1.74c1.17,-4.39 -0.74,-7.24 -4,-8.7c-3.26,-1.46 -8,-1 -10,1.64c-1.74,2.26 -1.15,4.2 -1.18,6c-0.01,0.957 0.084,1.913 0.28,2.85l-32.11,3.75l-13.81,-0.79c-1.025,-0.061 -1.95,0.645 -2.16,1.65l-1.4,6.78l3.72,-0.29l5.69,-0.45l6.36,-0.5l1.87,-3l33,-3.91c0.406,0.779 0.921,1.497 1.53,2.13l-0.16,2.51l-0.5,-0.07l0,0.08c-1.85,0 -6.38,-0.11 -8.39,1.56l-0.52,0.46l-3.13,0.38l-12.16,1.49l-57.26,7l-18.56,-1.15c-1.027,-0.056 -1.95,0.653 -2.16,1.66l-1.84,9.15l10.62,-0.84l5.89,-0.46l3.91,-0.31l2.45,-3.87l67.72,-8.38c-1.17,1.33 -2.35,2.69 -3.41,3.94l-31.69,5.12c-2.208,-1.92 -5.362,-2.345 -8,-1.08c-1.634,0.738 -3.114,1.78 -4.36,3.07l-6.81,1.1l-7.62,1.23l-50,8.06l-18.59,-0.24c-1.034,0.005 -1.917,0.776 -2.06,1.8l-1.47,9.22l20.33,-2.52l2.27,-4l61.76,-10.06c-0.156,1.458 -0.006,2.933 0.44,4.33l-47.33,9.81l-10.38,2.16l-58.37,12.06l-26.3,0.32c-1.007,0.028 -1.855,0.784 -2,1.78l-2,13.48l14.35,-1.82l13.47,-1.76l0.08,-0.19l2.72,-6.9l78.29,-16.74l12.54,-2.68l26.6,-5.69l0.29,0.54c1.32,2.37 1.13,3.87 0.42,4.83c-0.659,0.777 -1.549,1.324 -2.54,1.56c-2.052,0.436 -4.061,1.059 -6,1.86c-0.635,0.291 -1.25,0.626 -1.84,1c-1.877,1.503 -2.98,3.775 -3,6.18c0.177,2.707 0.636,5.388 1.37,8c0.213,2.243 0.307,4.497 0.28,6.75c0,0.57 0,1.16 0,1.76c0.014,1.089 0.151,2.172 0.41,3.23c0.262,1.114 0.659,2.192 1.18,3.21c0.23,0.34 5,7.14 19,7.24l-17.94,8.57l-17.71,-8.14l-0.5,1.95l-0.79,3l-1.19,4.6l17.72,9.55c-33.5,16.27 -62.65,30.21 -76.72,36.78c-35.66,16.73 -41.88,15.4 -41.88,15.4l0,6.11c0,0 0.93,3.39 4,2.37c2,-0.69 39.9,-15.5 75.17,-30.52c17.81,-7.57 35,-15.21 46.52,-21.09c25.83,-13.17 78.49,-40.12 124.3,-64.94l22.47,3.62l32.54,5.25l20.17,3.25l42.89,6.92l1.68,8.22l27.28,3.37l3,-14.36c0.018,-0.082 0.027,-0.166 0.027,-0.25c0,-0.641 -0.517,-1.172 -1.157,-1.19l-30.22,-1l-12.56,-2l-18.4,-2.92l-59,-9.36l-21.58,-3.43c7.82,-4.27 15.37,-8.44 22.5,-12.45l18.67,2.73l37.4,5.52l17.85,2.63l52.09,7.68l1.36,6.65l3.66,0.42l15.32,1.77l3.56,0.42l2.43,-11.51c0.016,-0.079 0.025,-0.16 0.025,-0.241c0,-0.639 -0.516,-1.17 -1.155,-1.189l-24.45,-0.81l-27.2,-4l-15.7,-2.29l-56.42,-8.24l-21.23,-3.1c6.63,-3.77 12.79,-7.35 18.34,-10.68l15.06,1.87l55.92,6.95l19.46,2.42l35.18,4.37l1.56,5.42l11.58,1.43l6.83,0.84l2,-9.41c0.016,-0.079 0.025,-0.16 0.025,-0.24c0,-0.643 -0.522,-1.176 -1.165,-1.19l-20.42,-0.49l-11,-1.42l-16.44,-2.1l-78.8,-10.08l-14,-1.79c2.82,-1.74 5.423,-3.383 7.81,-4.93l13.18,1.12l125.43,10.73l0.2,4.18l0,0.29l14.93,1.07l3.51,0.25l1.34,-8.92c0.012,-0.069 0.019,-0.14 0.019,-0.21c0,-0.652 -0.537,-1.189 -1.189,-1.19Zm-324.59,9.82l18.37,-3c-3,1.81 -7.82,2.36 -10.14,2.89l-0.17,0l-0.07,0l-0.31,0.08l-0.17,0.05c-1.57,0.46 -3,1.07 -3,1.07c-0.579,0.291 -1.101,0.684 -1.54,1.16c-0.157,0.164 -0.294,0.345 -0.41,0.54l-7.31,1.51c-0.125,-0.754 -0.313,-1.497 -0.56,-2.22c-0.131,-0.415 -0.285,-0.822 -0.46,-1.22l5.77,-0.86Zm14.54,21.37c-1.95,2.71 -2.12,6.34 -2.06,8.16c-1.028,-1.231 -2.379,-2.152 -3.9,-2.66l-0.24,-0.08l-7.25,5.56l0,-2c-0.183,-1.927 -1.091,-3.715 -2.54,-5c-1.75,-1.49 -6.63,-3.15 -8.57,-4.25c-0.51,-0.28 -0.82,-0.53 -0.82,-0.73l0,-2.19c0.473,-0.386 1.002,-0.696 1.57,-0.92c0.5,-0.24 1.05,-0.5 1.57,-0.79c1.11,-0.63 2.77,-3.92 3.09,-8l7,-1.5c0.527,0.78 1.345,1.317 2.27,1.49c1.034,0.208 2.106,-0.133 2.83,-0.9l5.68,9.44l2.11,3.51c-0.266,0.277 -0.513,0.571 -0.74,0.88l0,-0.02Zm19.64,-14.08c-5.25,-1.89 -10.36,-0.19 -10,5.72c0,0.35 0,0.79 0.07,1.29c-1.433,1 -2.687,1.863 -3.76,2.59c-0.59,0.41 -1.15,0.78 -1.62,1.09l-0.67,-1.06l-7.27,-11.46c0.36,0 0.7,-0.26 0.86,-0.83c0.41,-1.42 1.77,-1.91 3.38,-2.05c2.68,-0.24 6.09,0.48 7.14,-0.53c0.66,-0.65 1.53,-1.46 2.48,-2.34c1.65,-1.5 3.55,-3.21 5.09,-4.58l3.56,-0.58c0.22,1.34 0.45,3.18 0.65,5.06c0.13,1.14 0.24,2.3 0.34,3.36c0.16,1.66 0.29,3.09 0.36,3.88l-0.61,0.44Zm14.51,-26.28c-0.021,-1.178 0.329,-2.332 1,-3.3c0.537,-0.769 1.032,-1.566 1.48,-2.39l13.28,-1.57c-0.993,1.901 -1.842,3.873 -2.54,5.9l-12.3,1.5c-0.57,-0.08 -0.92,-0.12 -0.92,-0.12l0,-0.02Zm11.09,5.3l0,-0.13l-2.05,0.34c-0.267,-0.765 -0.689,-1.466 -1.24,-2.06l4,-0.49c-0.24,0.8 -0.46,1.59 -0.71,2.34Zm5.58,21.87c-0.33,3.48 -4.35,6.84 -4.35,6.84c0,0 2.85,-4.4 2.19,-8.22c-0.66,-3.82 -1.53,-9.48 -1.53,-9.48c0,0 4.01,7.38 3.69,10.86Zm74.69,-34.86c0.898,0.323 1.622,1.004 2,1.88c0.378,0.876 -6.11,2.93 -6.72,2.2c-0.61,-0.73 3.45,-4.41 4.72,-4.09l0,0.01Zm-22.75,9.77c0.592,0.732 0.856,1.677 0.73,2.61c-0.126,0.933 -6.75,-0.57 -6.9,-1.52c-0.15,-0.95 5.21,-2 6.17,-1.1l0,0.01Zm-27.52,30.39c4.87,-2.57 12.12,-6.68 19.59,-11l2.56,0.38l-22.15,10.62Zm29.13,-13.94l-3.53,-0.52l7.42,-4.33l1.42,-0.83c2.395,-1.661 4.683,-3.472 6.85,-5.42l1.95,0.24l6.8,0.85l-20.91,10.01Zm28.28,-13.54l-0.31,0.19l-0.1,0l-7.88,-1l-4.07,-0.52c1.214,-1.34 2.324,-2.771 3.32,-4.28l16,1.37c-2.287,1.413 -4.607,2.827 -6.96,4.24Z" style="fill:#2a1210;fill-rule:nonzero;"/><path d="M293.83,453.38c-0.594,-0.681 -1.43,-1.104 -2.33,-1.18c0.9,0.076 1.736,0.499 2.33,1.18Z" style="fill:#2a1210;fill-rule:nonzero;"/><path d="M281.7,468.32c-0.832,0.173 -1.648,0.414 -2.44,0.72c-0.117,0.058 -0.228,0.128 -0.33,0.21c0.102,-0.082 0.213,-0.152 0.33,-0.21c0.792,-0.306 1.608,-0.547 2.44,-0.72Z" style="fill:#2a1210;fill-rule:nonzero;"/><path d="M314.6,465.45l1.62,-1.26c0.572,-0.455 1.37,-0.511 2,-0.14c2.12,1.2 5.66,3.51 6.41,5.48l-0.63,10.63c0,0 2,0.44 2.37,1.23l0.63,1.61c0.11,1.3 0.19,2.15 0.19,2.15l15.29,1.26c10.77,-6.84 20,-13.38 24.06,-17.81l-39.64,12.12c-0.14,-3.11 -0.39,-8.57 -0.5,-11.11c-0.2,-4.49 -9.71,-6.33 -9.71,-6.33l0.42,-3.06l-2.39,2.95l-0.12,2.28Z" style="fill:#f37a78;fill-rule:nonzero;"/><path d="M316.29,452.66c0.538,0.92 0.879,1.941 1,3c0.21,-0.35 0.49,-0.55 0.75,-0.51c0.183,0.047 0.335,0.176 0.41,0.35c0.194,-1.673 -0.46,-3.336 -1.74,-4.43c-0.137,-0.118 -0.281,-0.228 -0.43,-0.33c-0.149,-0.102 0.41,0.54 0.01,1.92Z" style="fill:#f37a78;fill-rule:nonzero;"/><path d="M309.66,462.75c0,0 -7.11,1.84 -8.48,3.39l0.21,0c1.26,-0.27 8.09,-2.12 8.09,-2.12l0.18,-1.27Z" style="fill:#f37a78;fill-rule:nonzero;"/><path d="M284,469.45c0.24,-0.82 1.45,-1.57 1.45,-1.57c0,0 -0.82,0 -2,0.15l-0.95,0.14l-0.77,0.15c-0.832,0.173 -1.648,0.414 -2.44,0.72c-0.117,0.058 -0.228,0.128 -0.33,0.21l-0.08,0.07c-0.127,0.11 -0.244,0.23 -0.35,0.36c1.08,-0.46 5.47,-0.23 5.47,-0.23Z" style="fill:#f37a78;fill-rule:nonzero;"/><path d="M290.16,470.49l1.91,-0.81l0.31,-1.12c0,0 6,1.83 7.21,7.41c0.2,0.91 0.74,3.25 0.74,3.25l0.84,-3.3l-2.06,-4.46c-0.944,-0.85 -2.031,-1.527 -3.21,-2c-1.067,-0.471 -2.163,-0.875 -3.28,-1.21l-0.14,-0.66l-0.29,-1.32c0.084,-0.681 0.37,-1.322 0.82,-1.84l-0.57,0.65l-2.27,2.59l-0.01,2.82Z" style="fill:#f37a78;fill-rule:nonzero;"/><path d="M294.75,458.29c0,0.45 0,0.3 0,0Z" style="fill:#f37a78;fill-rule:nonzero;"/><path d="M292.17,453.26c0.557,0.234 0.83,0.878 0.61,1.44c-0.138,0.268 -0.211,0.565 -0.211,0.867c0,0.917 0.667,1.708 1.571,1.863c0.344,0.144 0.579,0.469 0.61,0.84c0.005,-0.043 0.005,-0.087 0,-0.13l0,-1.24c0.036,-0.942 -0.134,-1.881 -0.5,-2.75c-0.128,-0.286 -0.297,-0.552 -0.5,-0.79c-0.594,-0.681 -1.43,-1.104 -2.33,-1.18l-0.09,0c-0.37,0 -0.72,-0.08 -1.06,-0.1l-0.57,0l-0.47,0l-0.67,0l-0.27,0l-0.7,0.07l-0.14,0c-0.232,0.035 -0.462,0.082 -0.69,0.14l-0.06,0c-0.221,0.056 -0.438,0.127 -0.65,0.21c-0.241,0.097 -0.475,0.211 -0.7,0.34l-0.22,0.14l-0.2,0.14c2.354,-0.809 4.919,-0.759 7.24,0.14Z" style="fill:#f37a78;fill-rule:nonzero;"/><path d="M325.22,483c-0.378,-0.876 -1.102,-1.557 -2,-1.88c-1.31,-0.32 -5.38,3.34 -4.77,4.08c0.61,0.74 6.77,-2.2 6.77,-2.2Z" style="fill:#f37a78;fill-rule:nonzero;"/><path d="M301.25,493.51c0.126,-0.933 -0.138,-1.878 -0.73,-2.61c-1,-0.94 -6.33,0.15 -6.17,1.09c0.16,0.94 6.9,1.52 6.9,1.52Z" style="fill:#f37a78;fill-rule:nonzero;"/><path d="M266.54,475c0,4 2.12,2.53 4.11,2.77c1.99,0.24 6,2.47 6.39,4.29c0,0 0.3,-1.93 -2.43,-4c-0.5,-0.25 -1.05,-0.49 -1.62,-0.72l-0.79,-0.31l-0.49,-0.18c-1.63,-0.57 -3,-0.95 -3,-0.95c0,0 0.05,-0.22 0.13,-0.54c0.313,-1.398 0.765,-2.762 1.35,-4.07c0.036,-0.072 0.076,-0.142 0.12,-0.21c-0.002,-0.023 -0.002,-0.047 0,-0.07c0.002,-0.023 -3.77,2.39 -3.77,3.99Z" style="fill:#f37a78;fill-rule:nonzero;"/><path d="M246.42,514.61c0.66,3.82 -2.19,8.22 -2.19,8.22c0,0 4,-3.36 4.35,-6.84c0.35,-3.48 -3.69,-10.86 -3.69,-10.86c0,0 0.87,5.65 1.53,9.48Z" style="fill:#f37a78;fill-rule:nonzero;"/><path d="M164.58,317.69c-18.28,0 -42.84,-24.42 -62,-24.42c-4.36,0 -16.36,1.4 -21.59,6c-5.23,4.6 -14.78,11.73 -27.62,14.31c-8.22,1.67 -18,11 -25.06,19.11l0,46.69l297.64,0.06l81,0c-0.4,0 -0.92,0 -1.54,-0.08c-6.24,-0.55 -23.27,-3.8 -45.88,-10.83c-24.785,-7.692 -48.837,-17.575 -71.87,-29.53c-57.35,-30 -104.8,-21.31 -123.08,-21.31Z" style="fill:#453b69;fill-rule:nonzero;"/></g></svg>