<?xml version="1.0" encoding="UTF-8" standalone="no"?><!DOCTYPE svg PUBLIC "-//W3C//DTD SVG 1.1//EN" "http://www.w3.org/Graphics/SVG/1.1/DTD/svg11.dtd"><svg width="100%" height="100%" viewBox="0 0 619 874" version="1.1" xmlns="http://www.w3.org/2000/svg" xmlns:xlink="http://www.w3.org/1999/xlink" xml:space="preserve" xmlns:serif="http://www.serif.com/" style="fill-rule:evenodd;clip-rule:evenodd;stroke-linejoin:round;stroke-miterlimit:1.41421;"><g id="Landing_1"><path d="M274.56,712.59c-0.8,0.49 -6.22,4.13 -6.22,12.64c0,8.51 9.1,13.44 10.14,14c3.418,-0.005 6.832,0.219 10.22,0.67c-6.49,-7.79 -5.26,-23.36 -5.07,-25.37c-1.33,-1.67 -6.84,-1.96 -9.07,-1.94Z" style="fill:#fff;fill-rule:nonzero;"/><path d="M337.32,483.9c1.54,1.26 6.08,1.89 13.51,1.89c2.82,0 4.65,0.09 5.75,0.16c-2.07,-2.06 -7.31,-6.76 -11.95,-6.76c-3.168,-0.088 -6.081,1.789 -7.31,4.71Z" style="fill:#fff;fill-rule:nonzero;"/><path d="M0,0l0,874l619,0l0,-874l-619,0Zm590.26,800.48l-0.67,0.21c0.22,-0.33 0.45,-0.66 0.67,-1l0,0.79Zm14.74,-69.4c-0.085,0.178 -0.263,0.293 -0.46,0.3c-0.066,0.015 -0.134,0.015 -0.2,0l-8.1,-3.58c-0.109,-0.044 -0.196,-0.131 -0.24,-0.24c-0.044,-0.109 0,0 0,0c-0.82,-2.34 -2,-5.21 -3.46,-8.35c-6.43,-14 -17.63,-33.71 -20.87,-38.41c-4.71,-6.81 -6.38,-20.27 0.52,-35c4.11,-8.77 0.86,-15.53 -0.72,-18c-2.14,-3.36 -5.23,-5.61 -7.71,-5.61c-11,0 -17.68,4.48 -22.71,8.94c3.875,7.364 8.793,14.13 14.6,20.09c0.098,0.094 0.153,0.224 0.153,0.36c0,0.274 -0.226,0.5 -0.5,0.5c-0.001,0 -0.002,0 -0.003,0c-0.13,-0.003 -0.254,-0.053 -0.35,-0.14c-0.1,-0.11 -10.28,-10.16 -15.89,-22.68c-2.58,-5.74 -1.46,-31.47 -0.64,-50.26c0.32,-7.31 0.59,-13.61 0.59,-17.33c0,-12.62 -23.08,-19.49 -31.17,-20.9c-4.047,-0.766 -8.229,-0.371 -12.06,1.14c0.17,5.26 0.92,15.43 2.43,26.13l4.2,1.05c0.123,-0.682 0.307,-1.351 0.55,-2c1,-2.33 -0.53,-9.22 -1.21,-11.68c-0.013,-0.045 -0.02,-0.091 -0.02,-0.138c0,-0.219 0.148,-0.414 0.36,-0.472c0.045,-0.013 0.091,-0.019 0.137,-0.019c0.225,0 0.424,0.152 0.483,0.369c0.1,0.37 2.54,9.21 1.17,12.34c-0.277,0.741 -0.478,1.508 -0.6,2.29c-0.91,4.91 -1.62,14.72 -1.72,16.13c2.21,9 5.13,16.39 8.91,18.84c0.23,0.148 0.298,0.46 0.15,0.69c-0.152,0.231 -0.466,0.299 -0.7,0.15c-4,-2.62 -7.07,-10.19 -9.32,-19.33c-0.015,-0.056 -0.015,-0.114 0,-0.17c-1.36,-5.51 -2.42,-11.57 -3.25,-17.46c-0.069,-0.11 -0.091,-0.244 -0.06,-0.37c-1.58,-11.34 -2.29,-22 -2.46,-26.65l0,-0.1c0,-0.7 0,-1.26 0,-1.66c0,-9.5 -2.85,-13.92 -13.4,-25.28c-10.55,-11.36 -15.53,-16.23 -25.43,-16.23c-4.45,0 -6.07,2 -6.09,2.05c-0.093,0.127 -0.242,0.202 -0.4,0.2c-1.56,0 -6.27,2.52 -6.27,7.1c0,11.86 7.79,14.62 8.12,14.73c0.205,0.069 0.343,0.264 0.34,0.48c0.035,8.287 1.846,16.471 5.31,24c0.041,0.087 0.059,0.184 0.05,0.28l-3.26,32c1.987,-2.296 3.53,-4.941 4.55,-7.8c0.039,-0.235 0.245,-0.409 0.483,-0.409c0.057,0 0.114,0.01 0.167,0.029c0.195,0.073 0.324,0.26 0.324,0.468c0,0.062 -0.011,0.124 -0.034,0.182c-2.12,5.63 -5.11,9 -8.11,11l-0.12,0.09l-0.22,0.14c-3.211,2.208 -7.158,3.08 -11,2.43l-0.1,0l-0.07,0l-0.06,-0.06c-0.031,-0.019 -0.055,-0.047 -0.07,-0.08c-0.26,-0.42 -26.38,-42.47 -36.37,-57.42c-2.603,-3.946 -5.832,-7.442 -9.56,-10.35c-4,-3.42 -9.54,-8.12 -19.16,-19.45c-5.11,-6 -15.83,-10.47 -16.67,-10.82c-2.3,-0.223 -4.61,-0.313 -6.92,-0.27c-7.73,0 -12.24,-0.66 -14.08,-2.07c-1.71,1.67 -2.62,4.34 -2.62,7.77c0,10.1 15.78,27.36 15.94,27.53l0.1,0.15c10.26,25.2 22.59,36.59 22.71,36.7c0.039,0.033 0.069,0.074 0.09,0.12c1,1.59 23.48,39.09 23.48,49.81c0,5.71 1.75,16.16 3.29,25.37c1.35,8.08 2.63,15.71 2.63,19.39c0,26.77 -18.36,55.22 -52.38,55.22c-8.147,0.042 -16.256,-1.107 -24.07,-3.41c-4.9,-1.29 -9.14,-2.41 -14.85,-2.41c-26.44,0 -34.08,8.18 -35.77,10.64c2.26,0 7.87,0.33 9.27,2.47c0.057,0.1 0.082,0.215 0.07,0.33c0,0.18 -1.83,18.28 5.61,25.68c1.683,0.245 3.352,0.579 5,1c0.106,0.026 0.199,0.09 0.26,0.18c1.96,2.652 4.436,4.88 7.28,6.55c-1.43,-4.44 -5.74,-20.38 0.42,-35.9c0.075,-0.19 0.26,-0.316 0.465,-0.316c0.063,0 0.126,0.012 0.185,0.036c0.191,0.071 0.319,0.255 0.319,0.459c0,0.066 -0.013,0.131 -0.039,0.191c-6.73,17 -0.7,34.46 -0.05,36.23c4.058,1.892 8.418,3.049 12.88,3.42c8.16,0.94 16.23,6.08 24,11c1.65,1.06 3.3,2.11 4.92,3.1c4.41,2.69 10.27,5 15.94,7.16c6.18,2.39 12,4.65 15.68,7.31c60.48,44.08 102.94,35.3 103.36,35.21c0.072,-0.02 0.148,-0.02 0.22,0c0.23,0.05 -92.19,48.17 -92.19,48.17l-360.39,-75.72l0,-373.9c-8,3.22 -14,5.87 -14.17,5.94c-0.066,0.015 -0.134,0.015 -0.2,0c-0.033,0.007 -0.066,0.01 -0.1,0.01c-0.28,0 -0.51,-0.23 -0.51,-0.51c0,-0.242 0.173,-0.453 0.41,-0.5l0.2,-0.08c3.22,-1.42 38,-16.65 51.35,-17.57c15.2,-1 49.23,-8.57 80.35,-30.22c5.24,-3.65 12.44,-5.53 19.39,-7.35c5.12,-1.33 10,-2.6 13.29,-4.45c4.39,-2.44 20,-10.48 37.17,-11.65c4.26,-0.29 9.18,-0.35 14.6,-0.17c11.808,0.363 23.546,-1.955 34.33,-6.78c6.46,-2.89 10.87,-4.44 13.12,-4.59c4.065,-0.353 8.049,-1.338 11.81,-2.92c0.899,-0.318 1.774,-0.699 2.62,-1.14c-3,0.18 -8.75,0.59 -12.37,1.22c-0.116,0.01 -0.234,0.01 -0.35,0c-0.506,-0.009 -0.994,-0.193 -1.38,-0.52c-4.32,-3.31 -6.2,-23.81 -6.28,-24.68c-0.005,-0.053 -0.005,-0.107 0,-0.16c1.26,-5.25 16.93,-5.46 22.6,-5.36c-14.13,-8.18 -52.22,-7.66 -61.73,-7c-4.49,0.31 -7.91,1.52 -11.87,2.91c-6.748,2.597 -13.854,4.145 -21.07,4.59c-21.17,1.45 -34.52,-5.57 -42.69,-13.24l-0.08,-0.06c-1.532,-1.456 -2.968,-3.009 -4.3,-4.65c-4.827,-6.012 -8.245,-13.032 -10,-20.54c-0.005,-0.03 -0.008,-0.06 -0.008,-0.09c0,-0.279 0.229,-0.508 0.508,-0.508c0.245,0 0.457,0.177 0.5,0.418c1.733,7.362 5.103,14.24 9.86,20.12c0.44,0.56 0.91,1.11 1.41,1.67c-1.92,-3.93 -4.53,-11.13 -5,-21.94c-0.047,-0.072 -0.075,-0.154 -0.08,-0.24c-0.001,-0.084 0.019,-0.167 0.06,-0.24c-0.237,-6.08 0.121,-12.169 1.07,-18.18l0,-0.06c0.52,-3.3 1.22,-6.8 2.15,-10.5c0.07,-0.35 2,-9 18.64,-17.68c0.13,-0.08 15.31,-9.3 17.67,-20.57c0.047,-0.232 0.253,-0.4 0.49,-0.4c0.034,0 0.067,0.003 0.1,0.01c0.267,0.064 0.44,0.33 0.39,0.6c-1.027,4.055 -3.048,7.792 -5.88,10.87c4.41,0.15 21.43,0.24 27.87,-7.14c0.096,-0.11 0.234,-0.173 0.38,-0.173c0.276,0 0.503,0.227 0.503,0.503c0,0.121 -0.044,0.238 -0.123,0.33c-2.392,2.475 -5.398,4.273 -8.71,5.21l1.06,0.28c3.25,0.86 7.48,2 12,2.88l31.74,-11.52c0.054,-1.953 -0.026,-3.908 -0.24,-5.85c-0.076,-0.919 -0.696,-1.708 -1.57,-2c-3.69,-1.25 -10.55,-3.86 -14.92,-7.16c-6.94,-5.25 -15.44,-7.88 -25.15,-7.83l-0.18,0c-8.24,0 -23.67,-3.19 -32.17,-5.11c-3.365,-0.767 -6.899,-0.216 -9.87,1.54c-7.33,4.33 -40.7,20.64 -51.24,23.72c-0.28,0.07 -25.66,6.09 -34.58,24.13c-3.93,8 -39.44,40.85 -41,42.25c-0.091,0.081 -0.208,0.128 -0.33,0.13c-0.14,-0.001 -0.273,-0.059 -0.37,-0.16c-0.095,-0.094 -0.148,-0.222 -0.148,-0.355c0,-0.133 0.053,-0.261 0.148,-0.355c0.36,-0.34 36.88,-34.16 40.73,-41.95c9.12,-18.47 35,-24.6 35.22,-24.66c10,-2.94 41.11,-18 50,-23l-13.52,-4.35c-4.505,-1.454 -9.442,-0.693 -13.3,2.05c-13.78,9.86 -47.41,33.43 -62,39.29c-13.74,5.52 -20.43,15.14 -33.5,37.41c-7.67,13.11 -16.631,25.422 -26.75,36.75c-0.099,0.096 -0.232,0.15 -0.37,0.15c-0.006,0 -0.012,0 -0.017,0c-0.269,0 -0.49,-0.221 -0.49,-0.49c0,-0.131 0.053,-0.258 0.147,-0.35c5.254,-5.818 10.172,-11.932 14.73,-18.31l0,-172l360.4,-82l201.32,65.39l0,171c-4.613,-2.273 -9.688,-3.455 -14.83,-3.455c-17.298,0 -31.907,13.374 -33.43,30.605l-0.13,0c-4.388,-0.001 -8.306,2.833 -9.68,7c-1.49,-0.1 -3,-0.14 -4.32,-0.14c-35.44,0 -39.3,19.34 -36.76,33.21c-3.155,-0.955 -6.434,-1.441 -9.73,-1.441c-18.386,0 -33.527,15.105 -33.57,33.491c-0.004,5.288 1.251,10.502 3.66,15.21c-13.291,0.864 -23.766,12.031 -23.78,25.35c-0.001,1.299 0.099,2.596 0.3,3.88c-9.93,-3.61 -19.39,-9.35 -29.89,-10.56c-6.09,-0.7 -11.19,1.34 -16,4.1c-2.767,-1.243 -5.766,-1.887 -8.8,-1.89c-0.23,0 -0.45,0 -0.67,0c-6.834,-9.36 -20.07,-11.596 -29.6,-5l8.13,10.29l3.88,4.82l25.47,31.6l3.63,4.52c25.88,-3.16 45.84,-0.34 56.28,-0.34c18.27,0 42.81,-24.42 62,-24.42c4.35,0 16.35,1.4 21.57,6c5.22,4.6 14.79,11.75 27.62,14.35c12.83,2.6 29.59,23.88 33.5,30.18c1.68,2.7 2.47,6.24 5,10l0,1.07l0.2,-0.1l0,247.34c2.465,4.831 4.658,9.795 6.57,14.87l7.9,3.49c0.207,0.093 0.323,0.318 0.28,0.54c-0.015,0.043 -0.035,0.083 -0.06,0.12Zm-14.74,-358.47l0,19.92c-1.663,-1.195 -3.467,-2.183 -5.37,-2.94c-7.61,-3 -15,3.24 -22.52,-0.11c-6.22,-2.76 -7.48,-7.12 -15.13,-6.11c5.89,-4.25 13.53,-3.58 20.2,-4c6.34,-0.39 6.76,-2.14 11.86,-5.39c3.248,-2.11 7.292,-2.616 10.96,-1.37Z" style="fill:#fff;fill-rule:nonzero;"/><path d="M590.26,489.38l0,-24.68l-0.2,0.1l0,24.58l0.2,0Z" style="fill:#1580f2;fill-rule:nonzero;"/><path d="M567.44,379.39c-6.67,0.4 -14.31,-0.27 -20.2,4c7.65,-1 8.91,3.35 15.13,6.11c7.55,3.35 14.91,-2.9 22.52,0.11c1.903,0.757 3.707,1.745 5.37,2.94l0,-19.94c-3.683,-1.253 -7.745,-0.74 -11,1.39c-5.06,3.25 -5.48,5 -11.82,5.39Z" style="fill:#1580f2;fill-rule:nonzero;"/><path d="M311.37,176l123.86,43.4l0,123l-107.06,15.6l14.83,18.8c9.53,-6.596 22.766,-4.36 29.6,5c0.22,0 0.44,0 0.67,0c3.034,0.003 6.033,0.647 8.8,1.89c4.82,-2.76 9.92,-4.8 16,-4.1c10.5,1.21 20,6.95 29.89,10.56c-0.201,-1.284 -0.301,-2.581 -0.3,-3.88c0.014,-13.319 10.489,-24.486 23.78,-25.35c-2.405,-4.713 -3.66,-9.929 -3.66,-15.22c0,-18.367 15.114,-33.48 33.48,-33.48c0.02,0 0.04,0 0.06,0c3.306,0 6.595,0.485 9.76,1.44c-2.54,-13.87 1.32,-33.21 36.76,-33.21c1.37,0 2.83,0 4.32,0.14c1.374,-4.167 5.292,-7.001 9.68,-7l0.16,0c1.53,-17.225 16.136,-30.59 33.428,-30.59c5.14,0 10.211,1.18 14.822,3.45l0,-186l-201.31,-50.45l-360.4,65l0,189c-4.559,6.365 -9.477,12.465 -14.73,18.27c-0.094,0.092 -0.147,0.219 -0.147,0.35c0,0.269 0.221,0.49 0.49,0.49c0.005,0 0.011,0 0.017,0c0.138,0 0.271,-0.054 0.37,-0.15c10.17,-11.338 19.178,-23.666 26.89,-36.8c13.07,-22.27 19.76,-31.89 33.5,-37.41c14.6,-5.86 48.23,-29.43 62,-39.29c3.858,-2.743 8.795,-3.504 13.3,-2.05l13.52,4.35c-8.89,5 -40,20.11 -50,23c-0.26,0.06 -26.1,6.19 -35.22,24.66c-3.85,7.79 -40.37,41.61 -40.73,41.95c-0.095,0.094 -0.148,0.222 -0.148,0.355c0,0.133 0.053,0.261 0.148,0.355c0.097,0.101 0.23,0.159 0.37,0.16c0.122,-0.002 0.239,-0.049 0.33,-0.13c1.51,-1.4 37,-34.29 41,-42.25c8.92,-18 34.3,-24.06 34.58,-24.13c10.54,-3.08 43.91,-19.39 51.24,-23.72c2.971,-1.756 6.505,-2.307 9.87,-1.54c8.5,1.92 23.93,5.11 32.17,5.11l0.18,0c9.71,0 18.21,2.58 25.15,7.83c4.37,3.3 11.23,5.91 14.92,7.16c0.874,0.292 1.494,1.081 1.57,2c0.214,1.942 0.294,3.897 0.24,5.85l1,-0.37l60.95,-22.05Z" style="fill:#1580f2;fill-rule:nonzero;"/><path d="M28.54,460.13c14.34,-13.13 28.81,-30.47 54.92,-30.47c14.58,0 25.89,5.63 55.47,19.75c17.91,8.55 33.5,7.17 38.28,7.17c4.48,0 10.48,3.25 21.74,8.81l95.1,-106.83l-83.25,-9c1.65,-0.23 3.31,-0.42 5,-0.53c4.827,-0.299 9.667,-0.356 14.5,-0.17c11.966,0.338 23.854,-2.038 34.77,-6.95c6.26,-2.81 10.68,-4.37 12.77,-4.51c4.175,-0.341 8.268,-1.354 12.12,-3c4.625,-1.462 8.39,-4.871 10.3,-9.33c0.483,-1.112 0.861,-2.267 1.13,-3.45c1.56,-6.84 -0.4,-14.43 -3.21,-17.22c-0.484,-0.474 -1.006,-0.909 -1.56,-1.3c-0.05,-0.063 -0.115,-0.111 -0.19,-0.14c-13.18,-9.38 -53.24,-8.81 -63.79,-8.09c-4.62,0.31 -8.1,1.54 -12.13,3c-6.665,2.563 -13.683,4.09 -20.81,4.53c-8.413,0.724 -16.886,-0.242 -24.92,-2.84l0,-52.98c-2.05,-0.2 -3.62,-0.35 -4.27,-0.4c-0.12,-0.154 -0.32,-0.225 -0.51,-0.18c-6.22,1.25 -15.66,-0.12 -17.9,-0.47c0.51,-3.15 1.19,-6.48 2.07,-10c0,-0.08 1.72,-7.44 14.94,-15.25l0.1,0c4.127,1.162 8.363,1.899 12.64,2.2c0.046,0.051 0.105,0.089 0.17,0.11l0.39,0.17l1.4,-0.51l3,-1.08c-5,1.16 -13.75,-0.92 -16.47,-1.63c0.65,-0.36 1.32,-0.73 2,-1.09c4.198,-2.621 8.037,-5.778 11.42,-9.39c0.55,0 1.8,0.09 3.55,0.09c5.181,0.05 10.348,-0.548 15.38,-1.78l2.65,0.69c2.89,0.77 6.54,1.74 10.5,2.57l1.8,-0.65c-4.56,-0.9 -8.79,-2 -12,-2.88l-1.06,-0.28c3.312,-0.937 6.318,-2.735 8.71,-5.21c0.079,-0.092 0.123,-0.209 0.123,-0.33c0,-0.276 -0.227,-0.503 -0.503,-0.503c-0.146,0 -0.284,0.063 -0.38,0.173c-6.44,7.38 -23.46,7.29 -27.87,7.14c2.832,-3.078 4.853,-6.815 5.88,-10.87c0.05,-0.27 -0.123,-0.536 -0.39,-0.6c-0.033,-0.007 -0.066,-0.01 -0.1,-0.01c-0.237,0 -0.443,0.168 -0.49,0.4c-2.36,11.27 -17.54,20.49 -17.67,20.57c-16.63,8.66 -18.57,17.33 -18.64,17.68c-0.93,3.7 -1.63,7.2 -2.15,10.5l0,0.06c-1.013,6.004 -1.435,12.093 -1.26,18.18c-0.041,0.073 -0.061,0.156 -0.06,0.24c0.005,0.086 0.033,0.168 0.08,0.24c0.49,10.81 3.1,18 5,21.94c-0.5,-0.56 -1,-1.11 -1.41,-1.67c-4.757,-5.88 -8.127,-12.758 -9.86,-20.12c-0.043,-0.241 -0.255,-0.418 -0.5,-0.418c-0.279,0 -0.508,0.229 -0.508,0.508c0,0.03 0.003,0.06 0.008,0.09c1.755,7.508 5.173,14.528 10,20.54c1.367,1.645 2.84,3.198 4.41,4.65l0.08,0.06c8.17,7.67 21.52,14.69 42.69,13.24c7.216,-0.445 14.322,-1.993 21.07,-4.59c4,-1.39 7.38,-2.6 11.87,-2.91c9.51,-0.65 47.6,-1.17 61.73,7c-5.67,-0.1 -21.34,0.11 -22.6,5.36c-0.005,0.053 -0.005,0.107 0,0.16c0.08,0.87 2,21.37 6.28,24.68c0.386,0.327 0.874,0.511 1.38,0.52c0.116,0.01 0.234,0.01 0.35,0c3.62,-0.63 9.36,-1 12.37,-1.22c-0.846,0.441 -1.721,0.822 -2.62,1.14c-3.761,1.582 -7.745,2.567 -11.81,2.92c-2.25,0.15 -6.66,1.7 -13.12,4.59c-10.776,4.856 -22.515,7.205 -34.33,6.87c-5.42,-0.18 -10.34,-0.12 -14.6,0.17c-17.15,1.17 -32.78,9.21 -37.17,11.65c-3.33,1.85 -8.17,3.12 -13.29,4.45c-6.95,1.82 -14.15,3.7 -19.39,7.35c-31.12,21.65 -65.15,29.19 -80.35,30.22c-13.37,0.92 -48.13,16.15 -51.35,17.57l-0.2,0.08c-0.237,0.047 -0.41,0.258 -0.41,0.5c0,0.28 0.23,0.51 0.51,0.51c0.034,0 0.067,-0.003 0.1,-0.01c0.066,0.015 0.134,0.015 0.2,0c0.15,-0.07 6.15,-2.72 14.17,-5.94l0,75.05l-0.02,-29.29Zm123.39,-213.65c3.886,0.624 7.814,0.959 11.75,1c0.913,0 1.813,-0.03 2.7,-0.09c0.2,4.45 -0.94,8.11 -3.43,10.86c-4,4.39 -10.24,5.28 -12.12,5.46c-0.175,-5.765 0.193,-11.534 1.1,-17.23Zm127.73,86.09c-0.36,0.065 -0.731,-0.042 -1,-0.29c-3.28,-2.52 -5.35,-18 -5.88,-23.9c1.21,-4.33 17,-4.7 23.21,-4.46c0.506,0.36 0.984,0.757 1.43,1.19c2.56,2.55 4.4,9.87 2.93,16.29c-0.818,3.962 -3.101,7.474 -6.39,9.83c-1.12,0.06 -9.53,0.52 -14.3,1.34Z" style="fill:#1580f2;fill-rule:nonzero;"/><path d="M590.26,800.48l0,-0.79c-0.22,0.34 -0.45,0.67 -0.67,1l0.67,-0.21Z" style="fill:#9eb1db;fill-rule:nonzero;"/><path d="M268.6,517.72l-108.31,-8.91l17.3,-19.43l-149,0l0,96.83l180.81,0c8.591,-30.463 30.301,-55.58 59.2,-68.49Z" style="fill:#9eb1db;fill-rule:nonzero;"/><path d="M253.26,705.1c0.58,1 -1.58,2.36 -1.58,2.36l-0.15,3.77c0.084,-0.328 0.137,-0.662 0.16,-1c-0.009,0.16 -0.009,0.32 0,0.48l-0.05,0.92l18.74,3.64c0.436,-0.603 0.917,-1.171 1.44,-1.7c-6.8,-2.771 -13.295,-6.239 -19.38,-10.35c0.219,0.649 0.494,1.278 0.82,1.88Z" style="fill:#453b69;fill-rule:nonzero;"/><path d="M198.27,698.91c-0.94,-0.1 -1.17,-0.53 -2.24,-0.94c-1.56,-0.6 -1.84,-0.12 -2.36,-0.5l0,-2.18c-0.285,-4.209 -0.265,-8.434 0.06,-12.64c0.339,-0.867 0.561,-1.775 0.66,-2.7c0.002,-0.585 0.253,-1.141 0.69,-1.53l-0.1,-2.73l2.58,-0.79l-0.65,-0.65l1.16,-1.08l0.16,-0.51l-0.88,0c-0.88,0 -0.86,-1.83 -0.86,-1.83c-0.43,-0.25 0,-0.66 0.15,-0.72c0.095,-0.065 0.151,-0.173 0.151,-0.288c0,-0.077 -0.025,-0.151 -0.071,-0.212c-0.16,-0.18 0.2,-1.26 0.28,-1.59c0.08,-0.33 0.44,-1.15 2.2,-1.35c0.23,0 0.48,0 0.77,0c2.1,0 2.42,1.34 2.59,3.35c0,0.32 0.05,0.65 0.08,1c0.055,0.713 0.213,1.413 0.47,2.08c0.13,0.34 0.27,0.65 0.41,0.93c0.14,0.28 0.19,0.36 0.28,0.53c0.239,0.369 0.405,0.779 0.49,1.21c0.029,0.192 0.029,0.388 0,0.58l0,0.05c-0.045,0.193 -0.101,0.384 -0.17,0.57c-0.103,0.284 -0.223,0.561 -0.36,0.83c-0.137,0.269 0,5.42 0.06,6c0.025,0.472 -0.005,0.945 -0.09,1.41l0,0.08l0.76,10.89l-0.06,0.09c-0.065,0.091 -0.135,0.177 -0.21,0.26l-0.21,0.23l-0.16,0.15c-0.096,0.104 -0.2,0.201 -0.31,0.29l-0.26,0.21c-0.369,0.302 -0.772,0.56 -1.2,0.77c0.198,1.243 0.255,2.504 0.17,3.76l41.68,8.09c-0.08,-1.46 -0.15,-2.36 -0.15,-2.36c-2.27,-0.29 -1.76,-3.21 -1.76,-3.21l0.36,-4.5c-1.77,0 -2,-4 -1.47,-5.9c-30.09,-27.023 -42.295,-68.949 -31.41,-107.9l-180.96,0l0,82.1l170.16,33l-0.43,-2.35Z" style="fill:#453b69;fill-rule:nonzero;"/><path d="M177.21,456.58c-4.78,0 -20.37,1.38 -38.28,-7.17c-29.58,-14.12 -40.93,-19.75 -55.47,-19.75c-26.11,0 -40.58,17.33 -54.92,30.47l0,29.25l149.05,0l21.36,-24c-11.26,-5.55 -17.26,-8.8 -21.74,-8.8Z" style="fill:#453b69;fill-rule:nonzero;"/><path d="M590.06,489.38l0,-25.65c-2.52,-3.73 -3.31,-7.27 -5,-10c-3.91,-6.3 -20.67,-27.57 -33.5,-30.18c-12.83,-2.61 -22.4,-9.79 -27.62,-14.35c-5.22,-4.56 -17.22,-6 -21.57,-6c-19.15,0 -43.69,24.42 -62,24.42c-10.44,0 -30.4,-2.82 -56.28,0.34l49.45,61.35l156.52,0.07Z" style="fill:#453b69;fill-rule:nonzero;"/><path d="M286.67,591.2c0.031,52.912 39.036,98.361 91.33,106.42c15.29,-10.2 23.35,-28.49 23.35,-46.06c0,-3.6 -1.27,-11.19 -2.62,-19.22c-1.62,-9.71 -3.3,-19.75 -3.3,-25.54c0,-10.25 -22.26,-47.5 -23.3,-49.24c-0.2,-0.18 -0.9,-0.86 -2,-2c-29.774,5.067 -58.188,16.209 -83.47,32.73c0.02,0.95 0.01,1.93 0.01,2.91Z" style="fill:#f37a78;fill-rule:nonzero;"/><path d="M435.23,342.4l-123.23,-19.25l-11.71,1.92c-1.908,4.456 -5.669,7.866 -10.29,9.33c-3.852,1.646 -7.945,2.659 -12.12,3c-2.09,0.14 -6.51,1.7 -12.77,4.51c-10.916,4.912 -22.804,7.288 -34.77,6.95c-4.833,-0.186 -9.673,-0.129 -14.5,0.17c-1.68,0.11 -3.34,0.3 -5,0.53l83.25,9l-95.09,106.83l-21.36,24l-17.3,19.43l108.31,8.91c-38.324,17.055 -63.133,55.251 -63.133,97.199c0,30.203 12.861,59.021 35.343,79.191c-0.49,1.95 -0.3,5.9 1.47,5.9l-0.36,4.5c0,0 -0.51,2.92 1.76,3.21c0,0 0.07,0.9 0.15,2.36c0.16,2.72 0.41,7.37 0.5,11.7l-0.71,4.45l-0.2,1.29c0,0 0.16,0.58 1.55,0.77c0.594,0.011 1.139,-0.337 1.38,-0.88l0,1.07c0,0 -0.1,1 1.6,1c0.219,-0.006 0.432,-0.068 0.62,-0.18c0.575,-0.342 0.828,-1.051 0.6,-1.68c0.46,-0.22 1.2,-0.65 1.2,-1.15c0.155,-1.198 0.379,-2.387 0.67,-3.56c-0.366,0.419 -0.599,0.938 -0.67,1.49l-0.11,-8.56c0,-0.4 -0.6,-3.07 -0.6,-3.07c1.21,-0.54 1.65,-1.09 1.82,-1.57l0.15,-3.77c0,0 2.16,-1.39 1.58,-2.36c-0.332,-0.615 -0.609,-1.257 -0.83,-1.92c6.085,4.111 12.58,7.579 19.38,10.35c0.669,-0.68 1.414,-1.28 2.22,-1.79c0.74,-1.48 7,-11.78 37,-11.78c5.84,0 10.34,1.19 15.1,2.45c7.749,2.285 15.791,3.427 23.87,3.39c9.939,0.144 19.695,-2.699 28,-8.16c-52.294,-8.059 -91.299,-53.508 -91.33,-106.42c0,-1 0,-2 0,-2.94c25.282,-16.521 53.696,-27.663 83.47,-32.73c-4,-4.35 -13,-15.61 -20.91,-34.9c-0.24,-0.27 -1,-1.15 -2.14,-2.45l-35.76,3.06l0.47,-134.24l0.28,0.09l39.08,0l-8.16,-10.29l-14.83,-18.8l107.06,-15.6Zm-188.63,348.67c0.164,-0.557 0.436,-1.077 0.8,-1.53c0.309,-0.483 0.224,-1.124 -0.2,-1.51c-0.218,-0.182 -0.386,-0.416 -0.49,-0.68c-0.48,-1.21 1.24,-2.05 2.07,-1.06c0.091,0.112 0.172,0.233 0.24,0.36l0.06,0.12c0.05,0.106 0.091,0.216 0.12,0.33c0.003,0.047 0.003,0.093 0,0.14c0.04,0.17 0.06,0.345 0.06,0.52c-0.047,1.118 -0.344,2.212 -0.87,3.2l0,0.46c0.201,0.029 0.399,0.079 0.59,0.15c0.78,0.29 1.45,0.85 2,1.09c1.3,0.53 1.14,2.72 0.76,5.12c-0.977,-2.715 -2.773,-5.06 -5.14,-6.71Z" style="fill:#2a1210;fill-rule:nonzero;"/><path d="M312.08,387.1l-0.28,-0.09l-0.43,134.23l35.76,-3.06c-4.45,-5.24 -14,-17.46 -14,-25.69c0,-3.88 1.1,-6.9 3.18,-8.74c1.323,-3.412 4.661,-5.643 8.32,-5.56c6.07,0 12.7,7.05 13.54,8c1.26,0.51 11.77,4.9 17,11.07c5.043,6.13 10.557,11.857 16.49,17.13l50.7,-4.34c-0.07,-0.74 -0.12,-1.51 -0.12,-2.33c0.027,-1.886 0.738,-3.699 2,-5.1l-10.65,-13.21l-49.45,-61.41l-3.63,-4.52l-25.51,-31.57l-3.88,-4.82l-39.04,0l0,0.01Z" style="fill:#f37a78;fill-rule:nonzero;"/><path d="M435.24,219.4l-123.87,-43.43l0.58,147.18l123.29,19.25l0,-123Z" style="fill:#f37a78;fill-rule:nonzero;"/><path d="M248,729.51c-1.7,0 -1.6,-1 -1.6,-1l0,-1.07c-0.241,0.543 -0.786,0.891 -1.38,0.88c-1.39,-0.19 -1.55,-0.77 -1.55,-0.77l0.2,-1.29l-2.23,0.1l-3.93,-0.82c-0.861,-0.923 -1.98,-1.567 -3.21,-1.85c-1.28,-0.282 -2.527,-0.697 -3.72,-1.24l-31.18,-6.56c0,0 -9.23,-2.27 -12.73,-2.08c-1.58,-0.79 -5.66,-1.64 -7,-1.28c-1.202,0.238 -2.425,0.345 -3.65,0.32l-0.66,-0.14c-0.948,-0.473 -1.958,-0.809 -3,-1c-1.271,-0.288 -2.6,-0.184 -3.81,0.3c-0.45,0.27 -0.42,1 1.28,1.43c0.967,0.193 1.946,0.324 2.93,0.39l1.36,0.31c0,0 -1.68,1.54 -0.32,2.3c1.36,0.76 21.94,5.14 21.94,5.14c0,0 4.07,0 6,-0.21c0,0 10.85,2.1 28.35,6.24l1.14,-0.7l16.77,3.32c0,0 0.41,-0.09 0.67,-0.9c-0.188,0.112 -0.401,0.174 -0.62,0.18l-0.05,0Z" style="fill:#453b69;fill-rule:nonzero;"/><path d="M251.69,710.19c-0.023,0.338 -0.076,0.672 -0.16,1c-0.17,0.48 -0.61,1 -1.82,1.57c0,0 0.59,2.67 0.6,3.07l0.11,8.56c0.071,-0.552 0.304,-1.071 0.67,-1.49l0.54,-11.34l0.05,-0.92c-0.004,-0.15 -0.001,-0.3 0.01,-0.45Z" style="fill:#f37a78;fill-rule:nonzero;"/><path d="M251.06,692.67c-0.59,-0.24 -1.26,-0.8 -2,-1.09c-0.191,-0.071 -0.389,-0.121 -0.59,-0.15l0,-0.43c0.526,-0.988 0.823,-2.082 0.87,-3.2c0,-0.175 -0.02,-0.35 -0.06,-0.52c0.003,-0.047 0.003,-0.093 0,-0.14c-0.029,-0.114 -0.07,-0.224 -0.12,-0.33l-0.06,-0.12c-0.068,-0.127 -0.149,-0.248 -0.24,-0.36c-0.83,-1 -2.55,-0.15 -2.07,1.06c0.104,0.264 0.272,0.498 0.49,0.68c0.424,0.386 0.509,1.027 0.2,1.51c-0.364,0.453 -0.636,0.973 -0.8,1.53c2.398,1.64 4.224,3.991 5.22,6.72c0.3,-2.44 0.46,-4.63 -0.84,-5.16Z" style="fill:#f37a78;fill-rule:nonzero;"/><path d="M197.45,710.63c0.397,-0.049 0.777,-0.189 1.11,-0.41c-0.457,0.194 -0.938,0.325 -1.43,0.39l0.32,0.02Z" style="fill:#453b69;fill-rule:nonzero;"/><path d="M196.53,709.39c0,0 -1.08,0.26 -1.08,-0.32c0,-0.58 0.36,-0.94 2.28,-2c0.259,-0.135 0.496,-0.311 0.7,-0.52l-23.34,-5.05c0.33,-0.455 0.454,-1.029 0.34,-1.58l-38,-6.47c-3.11,-0.65 -5.13,-1.06 -5.56,-1.11c-1.328,-0.17 -2.672,-0.17 -4,0c-2.34,-0.42 -7.46,-2.39 -9.23,-0.56c-1,1 7.9,2.68 7.9,2.68c-1.14,2.55 16.24,5.9 21.09,6.45c5.27,0.73 10.88,1.46 16.25,2.14l5.6,1.88c0.732,-0.265 1.45,-0.568 2.15,-0.91c10.08,1.24 18,2.19 19.14,2.43c4.22,0.9 3.79,3.14 5.34,3.88c-0.11,-0.26 0.42,-0.94 0.42,-0.94Z" style="fill:#453b69;fill-rule:nonzero;"/><path d="M203.11,673.06c-0.257,-0.667 -0.415,-1.367 -0.47,-2.08c0,-0.35 0,-0.68 -0.08,-1c0,0.32 0.05,0.65 0.08,1c0.055,0.713 0.213,1.413 0.47,2.08Z" style="fill:#2a1210;fill-rule:nonzero;"/><path d="M203.75,697c-0.096,0.104 -0.2,0.201 -0.31,0.29c0.11,-0.089 0.214,-0.186 0.31,-0.29Z" style="fill:#2a1210;fill-rule:nonzero;"/><path d="M202,698.23c0.428,-0.21 0.831,-0.468 1.2,-0.77c-0.089,0.078 -0.183,0.152 -0.28,0.22c-0.48,-2.49 0.19,-1.11 0.19,-3.33c0,-2.44 -1.85,-4.45 -0.43,-6.62c0.456,-0.786 0.793,-1.635 1,-2.52c0.085,-0.465 0.115,-0.938 0.09,-1.41c-0.06,-0.62 -0.06,-6 -0.06,-6c0.137,-0.269 0.257,-0.546 0.36,-0.83c-0.14,-0.65 -0.43,-1.34 -1.09,-1.47c-1.31,-0.27 -1.68,-1.36 -1.25,-3.26c0.43,-1.9 -1.08,-3.64 -2.28,-4.29c-0.66,-0.35 -0.64,-0.85 -0.25,-1.24c-1.76,0.2 -2.13,1.05 -2.2,1.35c-0.07,0.3 -0.44,1.41 -0.28,1.59c0.046,0.061 0.071,0.135 0.071,0.212c0,0.115 -0.056,0.223 -0.151,0.288c-0.11,0.06 -0.58,0.47 -0.15,0.72c0,0 0,1.83 0.86,1.83l0.88,0l-0.16,0.51l-1.16,1.08l0.65,0.65l-2.58,0.79l0.1,2.73c-0.437,0.389 -0.688,0.945 -0.69,1.53c-0.099,0.925 -0.321,1.833 -0.66,2.7c-0.325,4.206 -0.345,8.431 -0.06,12.64l0,2.18c0.52,0.38 0.8,-0.1 2.36,0.5c1.07,0.41 1.3,0.84 2.24,0.94l0.43,2.41l0.48,2.73c0.17,0.911 -0.109,1.85 -0.75,2.52c-0.204,0.209 -0.441,0.385 -0.7,0.52c-1.92,1 -2.28,1.4 -2.28,2c0,0.6 1.08,0.32 1.08,0.32c0,0 -0.57,0.68 -0.33,1l0,0.05c0.266,0.172 0.589,0.233 0.9,0.17c0.492,-0.065 0.973,-0.196 1.43,-0.39c0.507,-0.2 0.996,-0.444 1.46,-0.73c0.79,-0.5 2.52,-0.58 2.52,-1.76c0,-0.9 -0.7,-1.64 -0.7,-3c0,-0.77 0.22,-1.53 0.31,-2.73c0.107,-1.277 0.066,-2.562 -0.12,-3.83Zm-2.69,-21.8l-0.74,2.33l-0.73,-1.19l1.47,-1.14Zm1.3,8.48c-0.71,0.76 -1.39,3 -2,3.61c0,0 -1,-1.39 -0.66,-2.26c0.34,-0.87 2.32,-1.57 2.32,-2.71c-0.012,-1.419 0.208,-2.831 0.65,-4.18c0.442,-1.349 0.38,4.78 -0.33,5.54l0.02,0Z" style="fill:#2a1210;fill-rule:nonzero;"/><path d="M204.12,696.58l-0.21,0.23l0.21,-0.23Z" style="fill:#2a1210;fill-rule:nonzero;"/><path d="M204.43,696.19l-0.76,-10.89l0.76,10.89Z" style="fill:#2a1210;fill-rule:nonzero;"/><path d="M200.21,683.55c0,1.14 -2,1.85 -2.32,2.71c-0.32,0.86 0.66,2.26 0.66,2.26c0.65,-0.61 1.33,-2.85 2,-3.61c0.67,-0.76 0.27,-5.54 0.27,-5.54c-0.428,1.351 -0.634,2.763 -0.61,4.18Z" style="fill:#f37a78;fill-rule:nonzero;"/><path d="M199.29,676.43l-1.47,1.14l0.73,1.19l0.74,-2.33Z" style="fill:#f37a78;fill-rule:nonzero;"/><path d="M203.09,694.35c0,2.22 -0.67,0.84 -0.19,3.33c0.097,-0.068 0.191,-0.142 0.28,-0.22l0.26,-0.21c0.11,-0.089 0.214,-0.186 0.31,-0.29l0.16,-0.15l0.21,-0.23c0.075,-0.083 0.145,-0.169 0.21,-0.26l0.06,-0.09l-0.76,-10.89l0,-0.08c-0.207,0.885 -0.544,1.734 -1,2.52c-1.39,2.12 0.46,4.13 0.46,6.57Z" style="fill:#f37a78;fill-rule:nonzero;"/><path d="M199.45,667.91c1.2,0.65 2.72,2.39 2.28,4.29c-0.44,1.9 -0.06,3 1.25,3.26c0.66,0.13 1,0.82 1.09,1.47c0.069,-0.186 0.125,-0.377 0.17,-0.57l0,-0.05c0.029,-0.192 0.029,-0.388 0,-0.58c-0.085,-0.431 -0.251,-0.841 -0.49,-1.21c-0.09,-0.17 -0.19,-0.34 -0.28,-0.53c-0.09,-0.19 -0.28,-0.59 -0.41,-0.93c-0.257,-0.667 -0.415,-1.367 -0.47,-2.08c0,-0.35 0,-0.68 -0.08,-1c-0.17,-2 -0.49,-3.35 -2.59,-3.35c-0.29,0 -0.54,0 -0.77,0c-0.34,0.43 -0.36,0.93 0.3,1.28Z" style="fill:#f37a78;fill-rule:nonzero;"/><path d="M604.73,730.42l-7.9,-3.49c-1.912,-5.075 -4.105,-10.039 -6.57,-14.87l0,-222.68l-156.67,0l10.65,13.21c-1.262,1.401 -1.973,3.214 -2,5.1c0,0.82 0.05,1.59 0.12,2.33l-50.7,4.34c-5.933,-5.273 -11.447,-11 -16.49,-17.13c-5.24,-6.17 -15.75,-10.56 -17,-11.07c-0.84,-0.92 -7.47,-8 -13.54,-8c-3.659,-0.083 -6.997,2.148 -8.32,5.56c-2.08,1.84 -3.18,4.86 -3.18,8.74c0,8.23 9.55,20.45 14,25.69c1.1,1.3 1.9,2.18 2.14,2.45c7.87,19.29 17,30.55 20.91,34.9c1.07,1.17 1.77,1.85 2,2c1,1.74 23.3,39 23.3,49.24c0,5.79 1.68,15.83 3.3,25.54c1.35,8 2.62,15.62 2.62,19.22c0,17.57 -8.06,35.86 -23.35,46.06c-8.305,5.461 -18.061,8.304 -28,8.16c-8.061,0.038 -16.086,-1.097 -23.82,-3.37c-4.76,-1.26 -9.26,-2.45 -15.1,-2.45c-30.09,0 -36.3,10.3 -37,11.78c-0.806,0.51 -1.551,1.11 -2.22,1.79c-0.523,0.529 -1.004,1.097 -1.44,1.7l-18.74,-3.64l-0.54,11.34c-0.291,1.173 -0.515,2.362 -0.67,3.56c0,0.5 -0.74,0.93 -1.2,1.15c0.228,0.629 -0.025,1.338 -0.6,1.68c-0.26,0.81 -0.67,0.9 -0.67,0.9l-16.75,-3.39l-1.14,0.7c-17.5,-4.14 -28.35,-6.24 -28.35,-6.24c-1.89,0.16 -6,0.21 -6,0.21c0,0 -20.51,-4.34 -21.94,-5.14c-1.43,-0.8 0.32,-2.3 0.32,-2.3l-1.36,-0.31c-0.984,-0.066 -1.963,-0.197 -2.93,-0.39c-1.7,-0.4 -1.73,-1.16 -1.28,-1.43c1.21,-0.484 2.539,-0.588 3.81,-0.3c1.042,0.191 2.052,0.527 3,1l0.66,0.14c1.225,0.025 2.448,-0.082 3.65,-0.32c1.32,-0.36 5.4,0.49 7,1.28c3.5,-0.19 12.73,2.08 12.73,2.08l31.18,6.56c1.193,0.543 2.44,0.958 3.72,1.24c1.23,0.283 2.349,0.927 3.21,1.85l3.93,0.82l2.23,-0.1l0.71,-4.45c-0.09,-4.33 -0.34,-9 -0.5,-11.7l-41.8,-7.97c-0.09,1.2 -0.31,2 -0.31,2.73c0,1.37 0.7,2.11 0.7,3c0,1.18 -1.73,1.26 -2.52,1.76c-0.464,0.286 -0.953,0.53 -1.46,0.73c-0.333,0.221 -0.713,0.361 -1.11,0.41l-0.32,0c-0.311,0.063 -0.634,0.002 -0.9,-0.17l0,-0.05c-1.55,-0.74 -1.12,-3 -5.34,-3.88c-1.12,-0.24 -9.06,-1.19 -19.14,-2.43c-0.7,0.342 -1.418,0.645 -2.15,0.91l-5.6,-1.88c-5.37,-0.68 -11,-1.41 -16.25,-2.14c-4.85,-0.55 -22.23,-3.9 -21.09,-6.45c0,0 -8.92,-1.63 -7.9,-2.68c1.77,-1.83 6.89,0.14 9.23,0.56c1.328,-0.17 2.672,-0.17 4,0c0.43,0 2.45,0.46 5.56,1.11l38,6.47c0.114,0.551 -0.01,1.125 -0.34,1.58l23.34,5.05c0.641,-0.67 0.92,-1.609 0.75,-2.52l-0.48,-2.73l-170.16,-33l0,144.85l360.28,50.77l119,-21.5c11.054,4.87 -26.58,-26.62 -26.81,-26.67c-0.072,-0.02 -0.148,-0.02 -0.22,0c-0.42,0.09 -42.88,8.87 -103.36,-35.21c-3.65,-2.66 -9.5,-4.92 -15.68,-7.31c-5.67,-2.2 -11.53,-4.47 -15.94,-7.16c-1.62,-1 -3.27,-2 -4.92,-3.1c-7.81,-5 -15.88,-10.11 -24,-11c-4.466,-0.376 -8.831,-1.54 -12.89,-3.44c-0.65,-1.77 -6.68,-19.26 0.05,-36.23c0.026,-0.06 0.039,-0.125 0.039,-0.191c0,-0.204 -0.128,-0.388 -0.319,-0.459c-0.059,-0.024 -0.122,-0.036 -0.185,-0.036c-0.205,0 -0.39,0.126 -0.465,0.316c-6.16,15.52 -1.85,31.46 -0.42,35.9c-2.844,-1.67 -5.32,-3.898 -7.28,-6.55c-0.061,-0.09 -0.154,-0.154 -0.26,-0.18c-1.648,-0.421 -3.317,-0.755 -5,-1c-7.44,-7.4 -5.63,-25.5 -5.61,-25.68c0.012,-0.115 -0.013,-0.23 -0.07,-0.33c-1.4,-2.14 -7,-2.44 -9.27,-2.47c1.67,-2.56 9.3,-10.7 35.74,-10.7c5.71,0 9.95,1.12 14.85,2.41c7.82,2.29 15.932,3.426 24.08,3.37c34,0 52.38,-28.45 52.38,-55.22c0,-3.68 -1.28,-11.31 -2.63,-19.39c-1.54,-9.21 -3.29,-19.66 -3.29,-25.37c0,-10.72 -22.52,-48.22 -23.48,-49.81c-0.021,-0.046 -0.051,-0.087 -0.09,-0.12c-0.12,-0.11 -12.45,-11.5 -22.71,-36.7l-0.1,-0.15c-0.16,-0.17 -15.94,-17.43 -15.94,-27.53c0,-3.43 0.91,-6.1 2.62,-7.77c1.84,1.41 6.35,2.07 14.08,2.07c2.31,-0.043 4.62,0.047 6.92,0.27c0.84,0.35 11.56,4.8 16.67,10.82c9.62,11.33 15.14,16 19.16,19.45c3.728,2.908 6.957,6.404 9.56,10.35c10,15 36.11,57 36.37,57.42c0.015,0.033 0.039,0.061 0.07,0.08c0.031,0.019 0,0.05 0.06,0.06l0.17,0c3.842,0.65 7.789,-0.222 11,-2.43l0.22,-0.14l0.12,-0.09c3,-2 6,-5.35 8.11,-11c0.061,-0.232 -0.053,-0.477 -0.27,-0.58c-0.057,-0.022 -0.118,-0.034 -0.179,-0.034c-0.206,0 -0.391,0.13 -0.461,0.324c-1.02,2.859 -2.563,5.504 -4.55,7.8l3.26,-32c0.009,-0.096 -0.009,-0.193 -0.05,-0.28c-3.464,-7.529 -5.275,-15.713 -5.31,-24c0.003,-0.216 -0.135,-0.411 -0.34,-0.48c-0.33,-0.11 -8.12,-2.87 -8.12,-14.73c0,-4.58 4.71,-7.1 6.27,-7.1c0.158,0.002 0.307,-0.073 0.4,-0.2c0.093,-0.127 1.64,-2.05 6.09,-2.05c9.89,0 14.61,4.67 25.29,16.17c10.68,11.5 13.4,15.78 13.4,25.28l0,1.76c0.17,4.66 0.88,15.31 2.46,26.65c-0.031,0.126 -0.009,0.26 0.06,0.37c0.83,5.89 1.89,11.95 3.25,17.46c-0.015,0.056 -0.015,0.114 0,0.17c2.25,9.14 5.29,16.71 9.32,19.33c0.234,0.149 0.548,0.081 0.7,-0.15c0.148,-0.23 0.08,-0.542 -0.15,-0.69c-3.78,-2.45 -6.7,-9.83 -8.91,-18.84c0.1,-1.41 0.81,-11.22 1.72,-16.13c0.122,-0.782 0.323,-1.549 0.6,-2.29c1.37,-3.13 -1.07,-12 -1.17,-12.34c-0.059,-0.217 -0.258,-0.369 -0.483,-0.369c-0.046,0 -0.092,0.006 -0.137,0.019c-0.212,0.058 -0.36,0.253 -0.36,0.472c0,0.047 0.007,0.093 0.02,0.138c0.68,2.46 2.23,9.35 1.21,11.68c-0.243,0.649 -0.427,1.318 -0.55,2l-4.2,-1.05c-1.51,-10.7 -2.26,-20.87 -2.43,-26.13c3.831,-1.511 8.013,-1.906 12.06,-1.14c8.09,1.41 31.17,8.28 31.17,20.9c0,3.72 -0.27,10 -0.59,17.33c-0.82,18.79 -1.94,44.52 0.64,50.26c5.61,12.52 15.79,22.57 15.89,22.68c0.096,0.087 0.22,0.137 0.35,0.14c0.001,0 0.002,0 0.003,0c0.274,0 0.5,-0.226 0.5,-0.5c0,-0.136 -0.055,-0.266 -0.153,-0.36c-5.777,-5.959 -10.668,-12.718 -14.52,-20.07c5,-4.46 11.67,-8.94 22.71,-8.94c2.48,0 5.57,2.25 7.71,5.61c1.58,2.5 4.83,9.26 0.72,18c-6.9,14.71 -5.23,28.17 -0.52,35c3.24,4.7 14.44,24.37 20.87,38.41c1.44,3.14 2.64,6 3.46,8.35c0.044,0.109 0.131,0.196 0.24,0.24l8.1,3.58c0.066,0.015 0.134,0.015 0.2,0c0.197,-0.007 0.375,-0.122 0.46,-0.3c0.005,-0.04 0.005,-0.08 0,-0.12c0,-0.165 -0.082,-0.319 -0.22,-0.41Zm-321.1,-15.93c-0.19,2 -1.42,17.58 5.07,25.37c-3.388,-0.451 -6.802,-0.675 -10.22,-0.67c-1,-0.52 -10.14,-5.3 -10.14,-14c0,-8.7 5.42,-12.15 6.22,-12.64c2.23,0.02 7.74,0.31 9.07,1.94Zm67.2,-228.7c-7.43,0 -12,-0.63 -13.51,-1.89c1.229,-2.921 4.142,-4.798 7.31,-4.71c4.64,0 9.88,4.7 11.95,6.76c-1.1,-0.07 -2.93,-0.16 -5.75,-0.16Z" style="fill:#9eb1db;fill-rule:nonzero;"/><path d="M182.39,222.77l-0.39,-0.17c-0.065,-0.021 -0.124,-0.059 -0.17,-0.11c-4.277,-0.301 -8.513,-1.038 -12.64,-2.2l-0.1,0c-13.22,7.81 -14.92,15.17 -14.94,15.25c-0.88,3.52 -1.56,6.85 -2.07,10c2.24,0.35 11.68,1.72 17.9,0.47c0.202,-0.041 0.409,0.047 0.52,0.22c0.65,0 2.22,0.2 4.27,0.4l0,-21.1l7.62,-2.76Z" style="fill:#fff;fill-rule:nonzero;"/><path d="M163,258.25c2.49,-2.75 3.63,-6.41 3.43,-10.86c-0.887,0.06 -1.787,0.09 -2.7,0.09c-3.936,-0.041 -7.864,-0.376 -11.75,-1c-0.907,5.696 -1.275,11.465 -1.1,17.23c1.83,-0.18 8.12,-1.07 12.12,-5.46Z" style="fill:#fff;fill-rule:nonzero;"/><path d="M188.76,220.4c0.1,-0.066 0.222,-0.091 0.34,-0.07l26.71,-9.69c-4,-0.83 -7.61,-1.8 -10.5,-2.57l-2.65,-0.69c-5.032,1.232 -10.199,1.83 -15.38,1.78c-1.75,0 -3,-0.06 -3.55,-0.09c-3.383,3.612 -7.222,6.769 -11.42,9.39c-0.7,0.36 -1.37,0.73 -2,1.09c2.72,0.71 11.48,2.79 16.47,1.63l1.71,-0.62c0.093,-0.048 0.183,-0.101 0.27,-0.16Z" style="fill:#fff;fill-rule:nonzero;"/><path d="M300.4,321.4c1.47,-6.42 -0.37,-13.74 -2.93,-16.29c-0.446,-0.433 -0.924,-0.83 -1.43,-1.19c-6.24,-0.24 -22,0.13 -23.21,4.46c0.53,5.88 2.6,21.38 5.88,23.9c0.269,0.248 0.64,0.355 1,0.29c4.77,-0.82 13.18,-1.28 14.35,-1.34c3.271,-2.365 5.535,-5.875 6.34,-9.83Z" style="fill:#fff;fill-rule:nonzero;"/><path d="M188.47,220.56l0.63,-0.23c-0.118,-0.021 -0.24,0.004 -0.34,0.07c-0.093,0.059 -0.19,0.113 -0.29,0.16Z" style="fill:#1580f2;fill-rule:nonzero;"/><path d="M189.1,220.33l-0.63,0.23l-1.71,0.62l-3,1.08l-1.4,0.51l-7.62,2.76l0,74c8.034,2.598 16.507,3.564 24.92,2.84c7.127,-0.44 14.145,-1.967 20.81,-4.53c4,-1.42 7.51,-2.65 12.13,-3c10.55,-0.72 50.61,-1.29 63.79,8.09c0.075,0.029 0.14,0.077 0.19,0.14c0.554,0.391 1.076,0.826 1.56,1.3c2.81,2.79 4.77,10.38 3.21,17.22c-0.269,1.183 -0.647,2.338 -1.13,3.45l11.78,-1.89l-0.63,-147.15l-61,22.13l-1,0.37l-31.76,11.5l-1.8,0.65l-26.71,9.68Z" style="fill:#453b69;fill-rule:nonzero;"/></g></svg>