<?xml version="1.0" encoding="UTF-8" standalone="no"?>
<!DOCTYPE svg PUBLIC "-//W3C//DTD SVG 1.1//EN" "http://www.w3.org/Graphics/SVG/1.1/DTD/svg11.dtd">
<svg width="100%" height="100%" viewBox="0 0 562 727" version="1.1" xmlns="http://www.w3.org/2000/svg" xmlns:xlink="http://www.w3.org/1999/xlink" xml:space="preserve" xmlns:serif="http://www.serif.com/" style="fill-rule:evenodd;clip-rule:evenodd;stroke-linejoin:round;stroke-miterlimit:2;">
    <g transform="matrix(1,0,0,1,-3.29855e-05,-30)">
        <g transform="matrix(1,0,0,1,-14.9175,-50)">
            <g transform="matrix(1,0,0,1,-13.58,-10)">
                <path d="M274.56,712.59C273.76,713.08 268.34,716.72 268.34,725.23C268.34,733.74 277.44,738.67 278.48,739.23C281.898,739.225 285.312,739.449 288.7,739.9C282.21,732.11 283.44,716.54 283.63,714.53C282.3,712.86 276.79,712.57 274.56,712.59Z" style="fill:white;fill-rule:nonzero;"/>
            </g>
        </g>
        <g transform="matrix(1,0,0,1,-14.9175,-50)">
            <g transform="matrix(1,0,0,1,-13.58,-10)">
                <path d="M337.32,483.9C338.86,485.16 343.4,485.79 350.83,485.79C353.65,485.79 355.48,485.88 356.58,485.95C354.51,483.89 349.27,479.19 344.63,479.19C341.462,479.102 338.549,480.979 337.32,483.9Z" style="fill:white;fill-rule:nonzero;"/>
            </g>
        </g>
        <g transform="matrix(1,0,0,1,-14.9175,-50)">
            <g transform="matrix(1,0,0,1,-13.58,-10)">
                <path d="M590.26,489.38L590.26,464.7L590.06,464.8L590.06,489.38L590.26,489.38Z" style="fill:rgb(21,128,242);fill-rule:nonzero;"/>
            </g>
        </g>
        <g transform="matrix(1,0,0,1,-14.9175,-50)">
            <g transform="matrix(1,0,0,1,-13.58,-10)">
                <path d="M567.44,379.39C560.77,379.79 553.13,379.12 547.24,383.39C554.89,382.39 556.15,386.74 562.37,389.5C569.92,392.85 577.28,386.6 584.89,389.61C586.793,390.367 588.597,391.355 590.26,392.55L590.26,372.61C586.577,371.357 582.515,371.87 579.26,374C574.2,377.25 573.78,379 567.44,379.39Z" style="fill:rgb(21,128,242);fill-rule:nonzero;"/>
            </g>
        </g>
        <g transform="matrix(1,0,0,1,-14.9175,-50)">
            <g transform="matrix(1,0,0,1,-13.58,-10)">
                <path d="M311.37,176L435.23,219.4L435.23,342.4L328.17,358L343,376.8C352.53,370.204 365.766,372.44 372.6,381.8L373.27,381.8C376.304,381.803 379.303,382.447 382.07,383.69C386.89,380.93 391.99,378.89 398.07,379.59C408.57,380.8 418.07,386.54 427.96,390.15C427.759,388.866 427.659,387.569 427.66,386.27C427.674,372.951 438.149,361.784 451.44,360.92C449.035,356.207 447.78,350.991 447.78,345.7C447.78,327.333 462.894,312.22 481.26,312.22L481.32,312.22C484.626,312.22 487.915,312.705 491.08,313.66C488.54,299.79 492.4,280.45 527.84,280.45C529.21,280.45 530.67,280.45 532.16,280.59C533.534,276.423 537.452,273.589 541.84,273.59L542,273.59C543.53,256.365 558.136,243 575.428,243C580.568,243 585.639,244.18 590.25,246.45L590.25,140.5L388.94,90L28.54,155L28.54,264C28.469,264.1 35.687,255.941 41.43,246.16C54.5,223.89 61.19,214.27 74.93,208.75C89.53,202.89 123.16,179.32 136.93,169.46C140.788,166.717 145.725,165.956 150.23,167.41L163.75,171.76C154.86,176.76 123.75,191.87 113.75,194.76C113.49,194.82 87.65,200.95 78.53,219.42C74.68,227.21 38.16,261.03 37.8,261.37C37.705,261.464 37.652,261.592 37.652,261.725C37.652,261.858 37.705,261.986 37.8,262.08C37.897,262.181 38.03,262.239 38.17,262.24C38.292,262.238 38.409,262.191 38.5,262.11C40.01,260.71 75.5,227.82 79.5,219.86C88.42,201.86 113.8,195.8 114.08,195.73C124.62,192.65 157.99,176.34 165.32,172.01C168.291,170.254 171.825,169.703 175.19,170.47C183.69,172.39 199.12,175.58 207.36,175.58L207.54,175.58C217.25,175.58 225.75,178.16 232.69,183.41C237.06,186.71 243.92,189.32 247.61,190.57C248.484,190.862 249.104,191.651 249.18,192.57C249.394,194.512 249.474,196.467 249.42,198.42L250.42,198.05L311.37,176Z" style="fill:rgb(21,128,242);fill-rule:nonzero;"/>
            </g>
        </g>
        <g transform="matrix(1,0,0,1,-14.9175,-50)">
            <g transform="matrix(1,0,0,1,-13.58,-10)">
                <path d="M28.54,460.13C42.88,447 57.35,429.66 83.46,429.66C98.04,429.66 109.35,435.29 138.93,449.41C156.84,457.96 172.43,456.58 177.21,456.58C181.69,456.58 187.69,459.83 198.95,465.39L294.05,358.56L210.8,349.56C212.45,349.33 214.11,349.14 215.8,349.03C220.627,348.731 225.467,348.674 230.3,348.86C242.266,349.198 254.154,346.822 265.07,341.91C271.33,339.1 275.75,337.54 277.84,337.4C282.015,337.059 286.108,336.046 289.96,334.4C294.585,332.938 298.35,329.529 300.26,325.07C300.743,323.958 301.121,322.803 301.39,321.62C302.95,314.78 300.99,307.19 298.18,304.4C297.696,303.926 297.174,303.491 296.62,303.1C296.57,303.037 296.505,302.989 296.43,302.96C283.25,293.58 243.19,294.15 232.64,294.87C228.02,295.18 224.54,296.41 220.51,297.87C213.845,300.433 206.827,301.96 199.7,302.4C191.287,303.124 182.814,302.158 174.78,299.56L174.78,246.58C172.73,246.38 171.16,246.23 170.51,246.18C170.39,246.026 170.19,245.955 170,246C163.78,247.25 154.34,245.88 152.1,245.53C152.61,242.38 153.29,239.05 154.17,235.53C154.17,235.45 155.89,228.09 169.11,220.28L169.21,220.28C173.337,221.442 177.573,222.179 181.85,222.48C181.896,222.531 181.955,222.569 182.02,222.59L182.41,222.76L183.81,222.25L186.81,221.17C181.81,222.33 173.06,220.25 170.34,219.54C170.99,219.18 171.66,218.81 172.34,218.45C176.538,215.829 180.377,212.672 183.76,209.06C184.31,209.06 185.56,209.15 187.31,209.15C192.491,209.2 197.658,208.602 202.69,207.37L205.34,208.06C208.23,208.83 211.88,209.8 215.84,210.63L217.64,209.98C213.08,209.08 208.85,207.98 205.64,207.1L204.58,206.82C207.892,205.883 210.898,204.085 213.29,201.61C213.369,201.518 213.413,201.401 213.413,201.28C213.413,201.004 213.186,200.777 212.91,200.777C212.764,200.777 212.626,200.84 212.53,200.95C206.09,208.33 189.07,208.24 184.66,208.09C187.492,205.012 189.513,201.275 190.54,197.22C190.59,196.95 190.417,196.684 190.15,196.62C190.117,196.613 190.084,196.61 190.05,196.61C189.813,196.61 189.607,196.778 189.56,197.01C187.2,208.28 172.02,217.5 171.89,217.58C155.26,226.24 153.32,234.91 153.25,235.26C152.32,238.96 151.62,242.46 151.1,245.76L151.1,245.82C150.087,251.824 149.665,257.913 149.84,264C149.799,264.073 149.779,264.156 149.78,264.24C149.785,264.326 149.813,264.408 149.86,264.48C150.35,275.29 152.96,282.48 154.86,286.42C154.36,285.86 153.86,285.31 153.45,284.75C148.693,278.87 145.323,271.992 143.59,264.63C143.547,264.389 143.335,264.212 143.09,264.212C142.811,264.212 142.582,264.441 142.582,264.72C142.582,264.75 142.585,264.78 142.59,264.81C144.345,272.318 147.763,279.338 152.59,285.35C153.957,286.995 155.43,288.548 157,290L157.08,290.06C165.25,297.73 178.6,304.75 199.77,303.3C206.986,302.855 214.092,301.307 220.84,298.71C224.84,297.32 228.22,296.11 232.71,295.8C242.22,295.15 280.31,294.63 294.44,302.8C288.77,302.7 273.1,302.91 271.84,308.16C271.835,308.213 271.835,308.267 271.84,308.32C271.92,309.19 273.84,329.69 278.12,333C278.506,333.327 278.994,333.511 279.5,333.52C279.616,333.53 279.734,333.53 279.85,333.52C283.47,332.89 289.21,332.52 292.22,332.3C291.374,332.741 290.499,333.122 289.6,333.44C285.839,335.022 281.855,336.007 277.79,336.36C275.54,336.51 271.13,338.06 264.67,340.95C253.894,345.806 242.155,348.155 230.34,347.82C224.92,347.64 220,347.7 215.74,347.99C198.59,349.16 182.96,357.2 178.57,359.64C175.24,361.49 170.4,362.76 165.28,364.09C158.33,365.91 151.13,367.79 145.89,371.44C114.77,393.09 80.74,400.63 65.54,401.66C54.756,402.402 27.009,414.993 28.56,414.37L28.56,489.42L28.54,460.13ZM151.93,246.48C155.816,247.104 159.744,247.439 163.68,247.48C164.593,247.48 165.493,247.45 166.38,247.39C166.58,251.84 165.44,255.5 162.95,258.25C158.95,262.64 152.71,263.53 150.83,263.71C150.655,257.945 151.023,252.176 151.93,246.48ZM279.66,332.57C279.3,332.635 278.929,332.528 278.66,332.28C275.38,329.76 273.31,314.28 272.78,308.38C273.99,304.05 289.78,303.68 295.99,303.92C296.496,304.28 296.974,304.677 297.42,305.11C299.98,307.66 301.82,314.98 300.35,321.4C299.532,325.362 297.249,328.874 293.96,331.23C292.84,331.29 284.43,331.75 279.66,332.57Z" style="fill:rgb(21,128,242);fill-rule:nonzero;"/>
            </g>
        </g>
        <g transform="matrix(1,0,0,1,-14.9175,-50)">
            <g transform="matrix(1,0,0,1,-13.58,-10)">
                <path d="M268.6,517.72L160.29,508.81L177.59,489.38L28.59,489.38L28.59,586.21L209.4,586.21C217.991,555.747 239.701,530.63 268.6,517.72Z" style="fill:rgb(158,177,219);fill-rule:nonzero;"/>
            </g>
        </g>
        <g transform="matrix(1,0,0,1,-14.9175,-50)">
            <g transform="matrix(1,0,0,1,-13.58,-10)">
                <path d="M253.26,705.1C253.84,706.1 251.68,707.46 251.68,707.46L251.53,711.23C251.614,710.902 251.667,710.568 251.69,710.23C251.681,710.39 251.681,710.55 251.69,710.71L251.64,711.63L270.38,715.27C270.816,714.667 271.297,714.099 271.82,713.57C265.02,710.799 258.525,707.331 252.44,703.22C252.659,703.869 252.934,704.498 253.26,705.1Z" style="fill:rgb(69,59,105);fill-rule:nonzero;"/>
            </g>
        </g>
        <g transform="matrix(1,0,0,1,-14.9175,-50)">
            <g transform="matrix(1,0,0,1,-13.58,-10)">
                <path d="M198.27,698.91C197.33,698.81 197.1,698.38 196.03,697.97C194.47,697.37 194.19,697.85 193.67,697.47L193.67,695.29C193.385,691.081 193.405,686.856 193.73,682.65C194.069,681.783 194.291,680.875 194.39,679.95C194.392,679.365 194.643,678.809 195.08,678.42L194.98,675.69L197.56,674.9L196.91,674.25L198.07,673.17L198.23,672.66L197.35,672.66C196.47,672.66 196.49,670.83 196.49,670.83C196.06,670.58 196.49,670.17 196.64,670.11C196.735,670.045 196.791,669.937 196.791,669.822C196.791,669.745 196.766,669.671 196.72,669.61C196.56,669.43 196.92,668.35 197,668.02C197.08,667.69 197.44,666.87 199.2,666.67L199.97,666.67C202.07,666.67 202.39,668.01 202.56,670.02C202.56,670.34 202.61,670.67 202.64,671.02C202.695,671.733 202.853,672.433 203.11,673.1C203.24,673.44 203.38,673.75 203.52,674.03C203.66,674.31 203.71,674.39 203.8,674.56C204.039,674.929 204.205,675.339 204.29,675.77C204.319,675.962 204.319,676.158 204.29,676.35L204.29,676.4C204.245,676.593 204.189,676.784 204.12,676.97C204.017,677.254 203.897,677.531 203.76,677.8C203.623,678.069 203.76,683.22 203.82,683.8C203.845,684.272 203.815,684.745 203.73,685.21L203.73,685.29L204.49,696.18L204.43,696.27C204.365,696.361 204.295,696.447 204.22,696.53L204.01,696.76L203.85,696.91C203.754,697.014 203.65,697.111 203.54,697.2L203.28,697.41C202.911,697.712 202.508,697.97 202.08,698.18C202.278,699.423 202.335,700.684 202.25,701.94L243.93,710.03C243.85,708.57 243.78,707.67 243.78,707.67C241.51,707.38 242.02,704.46 242.02,704.46L242.38,699.96C240.61,699.96 240.38,695.96 240.91,694.06C210.82,667.037 198.615,625.111 209.5,586.16L28.54,586.16L28.54,668.26L198.7,701.26L198.27,698.91Z" style="fill:rgb(69,59,105);fill-rule:nonzero;"/>
            </g>
        </g>
        <g transform="matrix(1,0,0,1,-14.9175,-50)">
            <g transform="matrix(1,0,0,1,-13.58,-10)">
                <path d="M177.21,456.58C172.43,456.58 156.84,457.96 138.93,449.41C109.35,435.29 98,429.66 83.46,429.66C57.35,429.66 42.88,446.99 28.54,460.13L28.54,489.38L177.59,489.38L198.95,465.38C187.69,459.83 181.69,456.58 177.21,456.58Z" style="fill:rgb(69,59,105);fill-rule:nonzero;"/>
            </g>
        </g>
        <g transform="matrix(1,0,0,1,-14.9175,-50)">
            <g transform="matrix(1,0,0,1,-13.58,-10)">
                <path d="M590.06,489.38L590.06,463.73C587.54,460 586.75,456.46 585.06,453.73C581.15,447.43 564.39,426.16 551.56,423.55C538.73,420.94 529.16,413.76 523.94,409.2C518.72,404.64 506.72,403.2 502.37,403.2C483.22,403.2 458.68,427.62 440.37,427.62C429.93,427.62 409.97,424.8 384.09,427.96L433.54,489.31L590.06,489.38Z" style="fill:rgb(69,59,105);fill-rule:nonzero;"/>
            </g>
        </g>
        <g transform="matrix(1,0,0,1,-14.9175,-50)">
            <g transform="matrix(1,0,0,1,-13.58,-10)">
                <path d="M286.67,591.2C286.701,644.112 325.706,689.561 378,697.62C393.29,687.42 401.35,669.13 401.35,651.56C401.35,647.96 400.08,640.37 398.73,632.34C397.11,622.63 395.43,612.59 395.43,606.8C395.43,596.55 373.17,559.3 372.13,557.56C371.93,557.38 371.23,556.7 370.13,555.56C340.356,560.627 311.942,571.769 286.66,588.29C286.68,589.24 286.67,590.22 286.67,591.2Z" style="fill:rgb(243,122,120);fill-rule:nonzero;"/>
            </g>
        </g>
        <g transform="matrix(1,0,0,1,-14.9175,-50)">
            <g transform="matrix(1,0,0,1,-13.58,-10)">
                <path d="M435.23,342.4L312,323.15L300.29,325.07C298.382,329.526 294.621,332.936 290,334.4C286.148,336.046 282.055,337.059 277.88,337.4C275.79,337.54 271.37,339.1 265.11,341.91C254.194,346.822 242.306,349.198 230.34,348.86C225.507,348.674 220.667,348.731 215.84,349.03C214.16,349.14 212.5,349.33 210.84,349.56L294.09,358.56L199,465.39L177.64,489.39L160.34,508.82L268.65,517.73C230.326,534.785 205.517,572.981 205.517,614.929C205.517,645.132 218.378,673.95 240.86,694.12C240.37,696.07 240.56,700.02 242.33,700.02L241.97,704.52C241.97,704.52 241.46,707.44 243.73,707.73C243.73,707.73 243.8,708.63 243.88,710.09C244.04,712.81 244.29,717.46 244.38,721.79L243.67,726.24L243.47,727.53C243.47,727.53 243.63,728.11 245.02,728.3C245.614,728.311 246.159,727.963 246.4,727.42L246.4,728.49C246.4,728.49 246.3,729.49 248,729.49C248.219,729.484 248.432,729.422 248.62,729.31C249.195,728.968 249.448,728.259 249.22,727.63C249.68,727.41 250.42,726.98 250.42,726.48C250.575,725.282 250.799,724.093 251.09,722.92C250.724,723.339 250.491,723.858 250.42,724.41L250.31,715.85C250.31,715.45 249.71,712.78 249.71,712.78C250.92,712.24 251.36,711.69 251.53,711.21L251.68,707.44C251.68,707.44 253.84,706.05 253.26,705.08C252.928,704.465 252.651,703.823 252.43,703.16C258.515,707.271 265.01,710.739 271.81,713.51C272.479,712.83 273.224,712.23 274.03,711.72C274.77,710.24 281.03,699.94 311.03,699.94C316.87,699.94 321.37,701.13 326.13,702.39C333.879,704.675 341.921,705.817 350,705.78C359.939,705.924 369.695,703.081 378,697.62C325.706,689.561 286.701,644.112 286.67,591.2L286.67,588.26C311.952,571.739 340.366,560.597 370.14,555.53C366.14,551.18 357.14,539.92 349.23,520.63C348.99,520.36 348.23,519.48 347.09,518.18L311.33,521.24L311.8,387L312.08,387.09L351.16,387.09L343,376.8L328.17,358L435.23,342.4ZM246.6,691.07C246.764,690.513 247.036,689.993 247.4,689.54C247.709,689.057 247.624,688.416 247.2,688.03C246.982,687.848 246.814,687.614 246.71,687.35C246.23,686.14 247.95,685.3 248.78,686.29C248.871,686.402 248.952,686.523 249.02,686.65L249.08,686.77C249.13,686.876 249.171,686.986 249.2,687.1C249.203,687.147 249.203,687.193 249.2,687.24C249.24,687.41 249.26,687.585 249.26,687.76C249.213,688.878 248.916,689.972 248.39,690.96L248.39,691.42C248.591,691.449 248.789,691.499 248.98,691.57C249.76,691.86 250.43,692.42 250.98,692.66C252.28,693.19 252.12,695.38 251.74,697.78C250.763,695.065 248.967,692.72 246.6,691.07Z" style="fill:rgb(42,18,16);fill-rule:nonzero;"/>
            </g>
        </g>
        <g transform="matrix(1,0,0,1,-14.9175,-50)">
            <g transform="matrix(1,0,0,1,-13.58,-10)">
                <path d="M312.08,387.1L311.8,387.01L311.37,521.24L347.13,518.18C342.68,512.94 333.13,500.72 333.13,492.49C333.13,488.61 334.23,485.59 336.31,483.75C337.633,480.338 340.971,478.107 344.63,478.19C350.7,478.19 357.33,485.24 358.17,486.19C359.43,486.7 369.94,491.09 375.17,497.26C380.213,503.39 385.727,509.117 391.66,514.39L442.36,510.05C442.29,509.31 442.24,508.54 442.24,507.72C442.267,505.834 442.978,504.021 444.24,502.62L433.59,489.41L384.14,428L380.51,423.48L355,391.91L351.12,387.09L312.08,387.09L312.08,387.1Z" style="fill:rgb(243,122,120);fill-rule:nonzero;"/>
            </g>
        </g>
        <g transform="matrix(1,0,0,1,-14.9175,-50)">
            <g transform="matrix(1,0,0,1,-13.58,-10)">
                <path d="M435.24,219.4L311.37,175.97L311.95,323.15L435.24,342.4L435.24,219.4Z" style="fill:rgb(243,122,120);fill-rule:nonzero;"/>
            </g>
        </g>
        <g transform="matrix(1,0,0,1,-14.9175,-50)">
            <g transform="matrix(1,0,0,1,-13.58,-10)">
                <path d="M248,729.51C246.3,729.51 246.4,728.51 246.4,728.51L246.4,727.44C246.159,727.983 245.614,728.331 245.02,728.32C243.63,728.13 243.47,727.55 243.47,727.55L243.67,726.26L241.44,726.36L237.51,725.54C236.649,724.617 235.53,723.973 234.3,723.69C233.02,723.408 231.773,722.993 230.58,722.45L199.4,715.89C199.4,715.89 190.17,713.62 186.67,713.81C185.09,713.02 181.01,712.17 179.67,712.53C178.468,712.768 177.245,712.875 176.02,712.85L175.36,712.71C174.412,712.237 173.402,711.901 172.36,711.71C171.089,711.422 169.76,711.526 168.55,712.01C168.1,712.28 168.13,713.01 169.83,713.44C170.797,713.633 171.776,713.764 172.76,713.83L174.12,714.14C174.12,714.14 172.44,715.68 173.8,716.44C175.16,717.2 195.74,721.58 195.74,721.58C195.74,721.58 199.81,721.58 201.74,721.37C201.74,721.37 212.59,723.47 230.09,727.61L231.23,726.91L248,730.23C248,730.23 248.41,730.14 248.67,729.33C248.482,729.442 248.269,729.504 248.05,729.51L248,729.51Z" style="fill:rgb(69,59,105);fill-rule:nonzero;"/>
            </g>
        </g>
        <g transform="matrix(1,0,0,1,-14.9175,-50)">
            <g transform="matrix(1,0,0,1,-13.58,-10)">
                <path d="M251.69,710.19C251.667,710.528 251.614,710.862 251.53,711.19C251.36,711.67 250.92,712.19 249.71,712.76C249.71,712.76 250.3,715.43 250.31,715.83L250.42,724.39C250.491,723.838 250.724,723.319 251.09,722.9L251.63,711.56L251.68,710.64C251.676,710.49 251.679,710.34 251.69,710.19Z" style="fill:rgb(243,122,120);fill-rule:nonzero;"/>
            </g>
        </g>
        <g transform="matrix(1,0,0,1,-14.9175,-50)">
            <g transform="matrix(1,0,0,1,-13.58,-10)">
                <path d="M251.06,692.67C250.47,692.43 249.8,691.87 249.06,691.58C248.869,691.509 248.671,691.459 248.47,691.43L248.47,691C248.996,690.012 249.293,688.918 249.34,687.8C249.34,687.625 249.32,687.45 249.28,687.28C249.283,687.233 249.283,687.187 249.28,687.14C249.251,687.026 249.21,686.916 249.16,686.81L249.1,686.69C249.032,686.563 248.951,686.442 248.86,686.33C248.03,685.33 246.31,686.18 246.79,687.39C246.894,687.654 247.062,687.888 247.28,688.07C247.704,688.456 247.789,689.097 247.48,689.58C247.116,690.033 246.844,690.553 246.68,691.11C249.078,692.75 250.904,695.101 251.9,697.83C252.2,695.39 252.36,693.2 251.06,692.67Z" style="fill:rgb(243,122,120);fill-rule:nonzero;"/>
            </g>
        </g>
        <g transform="matrix(1,0,0,1,-14.9175,-50)">
            <g transform="matrix(1,0,0,1,-13.58,-10)">
                <path d="M197.45,710.63C197.847,710.581 198.227,710.441 198.56,710.22C198.103,710.414 197.622,710.545 197.13,710.61L197.45,710.63Z" style="fill:rgb(69,59,105);fill-rule:nonzero;"/>
            </g>
        </g>
        <g transform="matrix(1,0,0,1,-14.9175,-50)">
            <g transform="matrix(1,0,0,1,-13.58,-10)">
                <path d="M196.53,709.39C196.53,709.39 195.45,709.65 195.45,709.07C195.45,708.49 195.81,708.13 197.73,707.07C197.989,706.935 198.226,706.759 198.43,706.55L175.09,701.5C175.42,701.045 175.544,700.471 175.43,699.92L137.43,693.45C134.32,692.8 132.3,692.39 131.87,692.34C130.542,692.17 129.198,692.17 127.87,692.34C125.53,691.92 120.41,689.95 118.64,691.78C117.64,692.78 126.54,694.46 126.54,694.46C125.4,697.01 142.78,700.36 147.63,700.91C152.9,701.64 158.51,702.37 163.88,703.05L169.48,704.93C170.212,704.665 170.93,704.362 171.63,704.02C181.71,705.26 189.63,706.21 190.77,706.45C194.99,707.35 194.56,709.59 196.11,710.33C196,710.07 196.53,709.39 196.53,709.39Z" style="fill:rgb(69,59,105);fill-rule:nonzero;"/>
            </g>
        </g>
        <g transform="matrix(1,0,0,1,-14.9175,-50)">
            <g transform="matrix(1,0,0,1,-13.58,-10)">
                <path d="M203.11,673.06C202.853,672.393 202.695,671.693 202.64,670.98C202.64,670.63 202.64,670.3 202.56,669.98C202.56,670.3 202.61,670.63 202.64,670.98C202.695,671.693 202.853,672.393 203.11,673.06Z" style="fill:rgb(42,18,16);fill-rule:nonzero;"/>
            </g>
        </g>
        <g transform="matrix(1,0,0,1,-14.9175,-50)">
            <g transform="matrix(1,0,0,1,-13.58,-10)">
                <path d="M203.75,697C203.654,697.104 203.55,697.201 203.44,697.29C203.55,697.201 203.654,697.104 203.75,697Z" style="fill:rgb(42,18,16);fill-rule:nonzero;"/>
            </g>
        </g>
        <g transform="matrix(1,0,0,1,-14.9175,-50)">
            <g transform="matrix(1,0,0,1,-13.58,-10)">
                <path d="M202,698.23C202.428,698.02 202.831,697.762 203.2,697.46C203.111,697.538 203.017,697.612 202.92,697.68C202.44,695.19 203.11,696.57 203.11,694.35C203.11,691.91 201.26,689.9 202.68,687.73C203.136,686.944 203.473,686.095 203.68,685.21C203.765,684.745 203.795,684.272 203.77,683.8C203.71,683.18 203.71,677.8 203.71,677.8C203.847,677.531 203.967,677.254 204.07,676.97C203.93,676.32 203.64,675.63 202.98,675.5C201.67,675.23 201.3,674.14 201.73,672.24C202.16,670.34 200.65,668.6 199.45,667.95C198.79,667.6 198.81,667.1 199.2,666.71C197.44,666.91 197.07,667.76 197,668.06C196.93,668.36 196.56,669.47 196.72,669.65C196.766,669.711 196.791,669.785 196.791,669.862C196.791,669.977 196.735,670.085 196.64,670.15C196.53,670.21 196.06,670.62 196.49,670.87C196.49,670.87 196.49,672.7 197.35,672.7L198.23,672.7L198.07,673.21L196.91,674.29L197.56,674.94L194.98,675.73L195.08,678.46C194.643,678.849 194.392,679.405 194.39,679.99C194.291,680.915 194.069,681.823 193.73,682.69C193.405,686.896 193.385,691.121 193.67,695.33L193.67,697.51C194.19,697.89 194.47,697.41 196.03,698.01C197.1,698.42 197.33,698.85 198.27,698.95L198.7,701.36L199.18,704.09C199.35,705.001 199.071,705.94 198.43,706.61C198.226,706.819 197.989,706.995 197.73,707.13C195.81,708.13 195.45,708.53 195.45,709.13C195.45,709.73 196.53,709.45 196.53,709.45C196.53,709.45 195.96,710.13 196.2,710.45L196.2,710.5C196.466,710.672 196.789,710.733 197.1,710.67C197.592,710.605 198.073,710.474 198.53,710.28C199.037,710.08 199.526,709.836 199.99,709.55C200.78,709.05 202.51,708.97 202.51,707.79C202.51,706.89 201.81,706.15 201.81,704.79C201.81,704.02 202.03,703.26 202.12,702.06C202.227,700.783 202.186,699.498 202,698.23ZM199.31,676.43L198.57,678.76L197.84,677.57L199.31,676.43ZM200.61,684.91C199.9,685.67 199.22,687.91 198.61,688.52C198.61,688.52 197.61,687.13 197.95,686.26C198.29,685.39 200.27,684.69 200.27,683.55C200.258,682.131 200.478,680.719 200.92,679.37C201.362,678.021 201.3,684.15 200.59,684.91L200.61,684.91Z" style="fill:rgb(42,18,16);fill-rule:nonzero;"/>
            </g>
        </g>
        <g transform="matrix(1,0,0,1,-14.9175,-50)">
            <g transform="matrix(1,0,0,1,-13.58,-10)">
                <path d="M204.12,696.58L203.91,696.81L204.12,696.58Z" style="fill:rgb(42,18,16);fill-rule:nonzero;"/>
            </g>
        </g>
        <g transform="matrix(1,0,0,1,-14.9175,-50)">
            <g transform="matrix(1,0,0,1,-13.58,-10)">
                <path d="M204.43,696.19L203.67,685.3L204.43,696.19Z" style="fill:rgb(42,18,16);fill-rule:nonzero;"/>
            </g>
        </g>
        <g transform="matrix(1,0,0,1,-14.9175,-50)">
            <g transform="matrix(1,0,0,1,-13.58,-10)">
                <path d="M200.21,683.55C200.21,684.69 198.21,685.4 197.89,686.26C197.57,687.12 198.55,688.52 198.55,688.52C199.2,687.91 199.88,685.67 200.55,684.91C201.22,684.15 200.82,679.37 200.82,679.37C200.392,680.721 200.186,682.133 200.21,683.55Z" style="fill:rgb(243,122,120);fill-rule:nonzero;"/>
            </g>
        </g>
        <g transform="matrix(1,0,0,1,-14.9175,-50)">
            <g transform="matrix(1,0,0,1,-13.58,-10)">
                <path d="M199.29,676.43L197.82,677.57L198.55,678.76L199.29,676.43Z" style="fill:rgb(243,122,120);fill-rule:nonzero;"/>
            </g>
        </g>
        <g transform="matrix(1,0,0,1,-14.9175,-50)">
            <g transform="matrix(1,0,0,1,-13.58,-10)">
                <path d="M203.09,694.35C203.09,696.57 202.42,695.19 202.9,697.68C202.997,697.612 203.091,697.538 203.18,697.46L203.44,697.25C203.55,697.161 203.654,697.064 203.75,696.96L203.91,696.81L204.12,696.58C204.195,696.497 204.265,696.411 204.33,696.32L204.39,696.23L203.63,685.34L203.63,685.26C203.423,686.145 203.086,686.994 202.63,687.78C201.24,689.9 203.09,691.91 203.09,694.35Z" style="fill:rgb(243,122,120);fill-rule:nonzero;"/>
            </g>
        </g>
        <g transform="matrix(1,0,0,1,-14.9175,-50)">
            <g transform="matrix(1,0,0,1,-13.58,-10)">
                <path d="M199.45,667.91C200.65,668.56 202.17,670.3 201.73,672.2C201.29,674.1 201.67,675.2 202.98,675.46C203.64,675.59 203.98,676.28 204.07,676.93C204.139,676.744 204.195,676.553 204.24,676.36L204.24,676.31C204.269,676.118 204.269,675.922 204.24,675.73C204.155,675.299 203.989,674.889 203.75,674.52C203.66,674.35 203.56,674.18 203.47,673.99C203.38,673.8 203.19,673.4 203.06,673.06C202.803,672.393 202.645,671.693 202.59,670.98C202.59,670.63 202.59,670.3 202.51,669.98C202.34,667.98 202.02,666.63 199.92,666.63L199.15,666.63C198.81,667.06 198.79,667.56 199.45,667.91Z" style="fill:rgb(243,122,120);fill-rule:nonzero;"/>
            </g>
        </g>
        <g transform="matrix(1,0,0,1,-14.9175,-50)">
            <g transform="matrix(1,0,0,1,-13.58,-10)">
                <path d="M571.62,680.67C574.716,685.161 590.37,712.275 590.26,712.06L590.26,489.38L433.59,489.38L444.24,502.59C442.978,503.991 442.267,505.804 442.24,507.69C442.24,508.51 442.29,509.28 442.36,510.02L391.66,514.36C385.727,509.087 380.213,503.36 375.17,497.23C369.93,491.06 359.42,486.67 358.17,486.16C357.33,485.24 350.7,478.16 344.63,478.16C340.971,478.077 337.633,480.308 336.31,483.72C334.23,485.56 333.13,488.58 333.13,492.46C333.13,500.69 342.68,512.91 347.13,518.15C348.23,519.45 349.03,520.33 349.27,520.6C357.14,539.89 366.27,551.15 370.18,555.5C371.25,556.67 371.95,557.35 372.18,557.5C373.18,559.24 395.48,596.5 395.48,606.74C395.48,612.53 397.16,622.57 398.78,632.28C400.13,640.28 401.4,647.9 401.4,651.5C401.4,669.07 393.34,687.36 378.05,697.56C369.745,703.021 359.989,705.864 350.05,705.72C341.989,705.758 333.964,704.623 326.23,702.35C321.47,701.09 316.97,699.9 311.13,699.9C281.04,699.9 274.83,710.2 274.13,711.68C273.324,712.19 272.579,712.79 271.91,713.47C271.387,713.999 270.906,714.567 270.47,715.17L251.73,711.53L251.19,722.87C250.899,724.043 250.675,725.232 250.52,726.43C250.52,726.93 249.78,727.36 249.32,727.58C249.548,728.209 249.295,728.918 248.72,729.26C248.46,730.07 248.05,730.16 248.05,730.16L231.3,726.77L230.16,727.47C212.66,723.33 201.81,721.23 201.81,721.23C199.92,721.39 195.81,721.44 195.81,721.44C195.81,721.44 175.3,717.1 173.87,716.3C172.44,715.5 174.19,714 174.19,714L172.83,713.69C171.846,713.624 170.867,713.493 169.9,713.3C168.2,712.9 168.17,712.14 168.62,711.87C169.83,711.386 171.159,711.282 172.43,711.57C173.472,711.761 174.482,712.097 175.43,712.57L176.09,712.71C177.315,712.735 178.538,712.628 179.74,712.39C181.06,712.03 185.14,712.88 186.74,713.67C190.24,713.48 199.47,715.75 199.47,715.75L230.65,722.31C231.843,722.853 233.09,723.268 234.37,723.55C235.6,723.833 236.719,724.477 237.58,725.4L241.51,726.22L243.74,726.12L244.45,721.67C244.36,717.34 244.11,712.67 243.95,709.97L202.15,702C202.06,703.2 201.84,704 201.84,704.73C201.84,706.1 202.54,706.84 202.54,707.73C202.54,708.91 200.81,708.99 200.02,709.49C199.556,709.776 199.067,710.02 198.56,710.22C198.227,710.441 197.847,710.581 197.45,710.63L197.13,710.63C196.819,710.693 196.496,710.632 196.23,710.46L196.23,710.41C194.68,709.67 195.11,707.41 190.89,706.53C189.77,706.29 181.83,705.34 171.75,704.1C171.05,704.442 170.332,704.745 169.6,705.01L164,703.13C158.63,702.45 153,701.72 147.75,700.99C142.9,700.44 125.52,697.09 126.66,694.54C126.66,694.54 117.74,692.91 118.76,691.86C120.53,690.03 125.65,692 127.99,692.42C129.318,692.25 130.662,692.25 131.99,692.42C132.42,692.42 134.44,692.88 137.55,693.53L175.55,700C175.664,700.551 175.54,701.125 175.21,701.58L198.55,706.63C199.191,705.96 199.47,705.021 199.3,704.11L198.82,701.38L28.66,668.38L28.66,763.2L388.94,814C388.94,814 481.36,815.88 481.13,815.83C481.058,815.81 480.982,815.81 480.91,815.83C480.49,815.92 438.03,824.7 377.55,780.62C373.9,777.96 368.05,775.7 361.87,773.31C356.2,771.11 350.34,768.84 345.93,766.15C344.31,765.15 342.66,764.15 341.01,763.05C333.2,758.05 325.13,752.94 317.01,752.05C312.544,751.674 308.179,750.51 304.12,748.61C303.47,746.84 297.44,729.35 304.17,712.38C304.196,712.32 304.209,712.255 304.209,712.189C304.209,711.985 304.081,711.801 303.89,711.73C303.831,711.706 303.768,711.694 303.705,711.694C303.5,711.694 303.315,711.82 303.24,712.01C297.08,727.53 301.39,743.47 302.82,747.91C299.976,746.24 297.5,744.012 295.54,741.36C295.479,741.27 295.386,741.206 295.28,741.18C293.632,740.759 291.963,740.425 290.28,740.18C282.84,732.78 284.65,714.68 284.67,714.5C284.682,714.385 284.657,714.27 284.6,714.17C283.2,712.03 277.6,711.73 275.33,711.7C277,709.14 284.63,701 311.07,701C316.78,701 321.02,702.12 325.92,703.41C333.74,705.7 341.852,706.836 350,706.78C384,706.78 402.38,678.33 402.38,651.56C402.38,647.88 401.1,640.25 399.75,632.17C398.21,622.96 396.46,612.51 396.46,606.8C396.46,596.08 373.94,558.58 372.98,556.99C372.959,556.944 372.929,556.903 372.89,556.87C372.77,556.76 360.44,545.37 350.18,520.17L350.08,520.02C349.92,519.85 334.14,502.59 334.14,492.49C334.14,489.06 335.05,486.39 336.76,484.72C338.6,486.13 343.11,486.79 350.84,486.79C353.15,486.747 355.46,486.837 357.76,487.06C358.6,487.41 369.32,491.86 374.43,497.88C384.05,509.21 389.57,513.88 393.59,517.33C397.318,520.238 400.547,523.734 403.15,527.68C413.15,542.68 439.26,584.68 439.52,585.1C439.535,585.133 439.559,585.161 439.59,585.18C439.621,585.199 439.59,585.23 439.65,585.24L439.82,585.24C443.662,585.89 447.609,585.018 450.82,582.81L451.04,582.67L451.16,582.58C454.16,580.58 457.16,577.23 459.27,571.58C459.331,571.348 459.217,571.103 459,571C458.943,570.978 458.882,570.966 458.821,570.966C458.615,570.966 458.43,571.096 458.36,571.29C457.34,574.149 455.797,576.794 453.81,579.09L457.07,547.09C457.079,546.994 457.061,546.897 457.02,546.81C453.556,539.281 451.745,531.097 451.71,522.81C451.713,522.594 451.575,522.399 451.37,522.33C451.04,522.22 443.25,519.46 443.25,507.6C443.25,503.02 447.96,500.5 449.52,500.5C449.678,500.502 449.827,500.427 449.92,500.3C450.013,500.173 451.56,498.25 456.01,498.25C465.9,498.25 470.62,502.92 481.3,514.42C491.98,525.92 494.7,530.2 494.7,539.7L494.7,541.46C494.87,546.12 495.58,556.77 497.16,568.11C497.129,568.236 497.151,568.37 497.22,568.48C498.05,574.37 499.11,580.43 500.47,585.94C500.455,585.996 500.455,586.054 500.47,586.11C502.72,595.25 505.76,602.82 509.79,605.44C510.024,605.589 510.338,605.521 510.49,605.29C510.638,605.06 510.57,604.748 510.34,604.6C506.56,602.15 503.64,594.77 501.43,585.76C501.53,584.35 502.24,574.54 503.15,569.63C503.272,568.848 503.473,568.081 503.75,567.34C505.12,564.21 502.68,555.34 502.58,555C502.521,554.783 502.322,554.631 502.097,554.631C502.051,554.631 502.005,554.637 501.96,554.65C501.748,554.708 501.6,554.903 501.6,555.122C501.6,555.169 501.607,555.215 501.62,555.26C502.3,557.72 503.85,564.61 502.83,566.94C502.587,567.589 502.403,568.258 502.28,568.94L498.08,567.89C496.57,557.19 495.82,547.02 495.65,541.76C499.481,540.249 503.663,539.854 507.71,540.62C515.8,542.03 538.88,548.9 538.88,561.52C538.88,565.24 538.61,571.52 538.29,578.85C537.47,597.64 536.35,623.37 538.93,629.11C544.54,641.63 554.72,651.68 554.82,651.79C554.916,651.877 555.04,651.927 555.17,651.93L555.173,651.93C555.447,651.93 555.673,651.704 555.673,651.43C555.673,651.294 555.618,651.164 555.52,651.07C549.743,645.111 544.852,638.352 541,631C546,626.54 552.67,622.06 563.71,622.06C566.19,622.06 569.28,624.31 571.42,627.67C573,630.17 576.25,636.93 572.14,645.67C565.24,660.38 566.91,673.84 571.62,680.67ZM283.63,714.49C283.44,716.49 282.21,732.07 288.7,739.86C285.312,739.409 281.898,739.185 278.48,739.19C277.48,738.67 268.34,733.89 268.34,725.19C268.34,716.49 273.76,713.04 274.56,712.55C276.79,712.57 282.3,712.86 283.63,714.49ZM350.83,485.79C343.4,485.79 338.83,485.16 337.32,483.9C338.549,480.979 341.462,479.102 344.63,479.19C349.27,479.19 354.51,483.89 356.58,485.95C355.48,485.88 353.65,485.79 350.83,485.79Z" style="fill:rgb(158,177,219);fill-rule:nonzero;"/>
            </g>
        </g>
        <g transform="matrix(1,0,0,1,-14.9175,-50)">
            <g transform="matrix(1,0,0,1,-13.58,-10)">
                <path d="M182.39,222.77L182,222.6C181.935,222.579 181.876,222.541 181.83,222.49C177.553,222.189 173.317,221.452 169.19,220.29L169.09,220.29C155.87,228.1 154.17,235.46 154.15,235.54C153.27,239.06 152.59,242.39 152.08,245.54C154.32,245.89 163.76,247.26 169.98,246.01C170.182,245.969 170.389,246.057 170.5,246.23C171.15,246.23 172.72,246.43 174.77,246.63L174.77,225.53L182.39,222.77Z" style="fill:white;fill-rule:nonzero;"/>
            </g>
        </g>
        <g transform="matrix(1,0,0,1,-14.9175,-50)">
            <g transform="matrix(1,0,0,1,-13.58,-10)">
                <path d="M163,258.25C165.49,255.5 166.63,251.84 166.43,247.39C165.543,247.45 164.643,247.48 163.73,247.48C159.794,247.439 155.866,247.104 151.98,246.48C151.073,252.176 150.705,257.945 150.88,263.71C152.71,263.53 159,262.64 163,258.25Z" style="fill:white;fill-rule:nonzero;"/>
            </g>
        </g>
        <g transform="matrix(1,0,0,1,-14.9175,-50)">
            <g transform="matrix(1,0,0,1,-13.58,-10)">
                <path d="M188.76,220.4C188.86,220.334 188.982,220.309 189.1,220.33L215.81,210.64C211.81,209.81 208.2,208.84 205.31,208.07L202.66,207.38C197.628,208.612 192.461,209.21 187.28,209.16C185.53,209.16 184.28,209.1 183.73,209.07C180.347,212.682 176.508,215.839 172.31,218.46C171.61,218.82 170.94,219.19 170.31,219.55C173.03,220.26 181.79,222.34 186.78,221.18L188.49,220.56C188.583,220.512 188.673,220.459 188.76,220.4Z" style="fill:white;fill-rule:nonzero;"/>
            </g>
        </g>
        <g transform="matrix(1,0,0,1,-14.9175,-50)">
            <g transform="matrix(1,0,0,1,-13.58,-10)">
                <path d="M300.4,321.4C301.87,314.98 300.03,307.66 297.47,305.11C297.024,304.677 296.546,304.28 296.04,303.92C289.8,303.68 274.04,304.05 272.83,308.38C273.36,314.26 275.43,329.76 278.71,332.28C278.979,332.528 279.35,332.635 279.71,332.57C284.48,331.75 292.89,331.29 294.06,331.23C297.331,328.865 299.595,325.355 300.4,321.4Z" style="fill:white;fill-rule:nonzero;"/>
            </g>
        </g>
        <g transform="matrix(1,0,0,1,-14.9175,-50)">
            <g transform="matrix(1,0,0,1,-13.58,-10)">
                <path d="M188.47,220.56L189.1,220.33C188.982,220.309 188.86,220.334 188.76,220.4C188.667,220.459 188.57,220.513 188.47,220.56Z" style="fill:rgb(21,128,242);fill-rule:nonzero;"/>
            </g>
        </g>
        <g transform="matrix(1,0,0,1,-14.9175,-50)">
            <g transform="matrix(1,0,0,1,-13.58,-10)">
                <path d="M189.1,220.33L188.47,220.56L186.76,221.18L183.76,222.26L182.36,222.77L174.74,225.53L174.74,299.53C182.774,302.128 191.247,303.094 199.66,302.37C206.787,301.93 213.805,300.403 220.47,297.84C224.47,296.42 227.98,295.19 232.6,294.84C243.15,294.12 283.21,293.55 296.39,302.93C296.465,302.959 296.53,303.007 296.58,303.07C297.134,303.461 297.656,303.896 298.14,304.37C300.95,307.16 302.91,314.75 301.35,321.59C301.081,322.773 300.703,323.928 300.22,325.04L312,323.15L311.37,176L250.37,198.13L249.37,198.5L217.61,210L215.81,210.65L189.1,220.33Z" style="fill:rgb(69,59,105);fill-rule:nonzero;"/>
            </g>
        </g>
    </g>
</svg>
