<svg viewBox="0 0 1398 794" xmlns="http://www.w3.org/2000/svg" fill-rule="evenodd" clip-rule="evenodd" stroke-linejoin="round" stroke-miterlimit="1.41421"><path fill="#fff" d="M328.424 634.54H356.024V662.14H328.424z"/><path d="M60.994 188.68h140V148.8h-140v39.88zm79.7-21.67h47.44c1.646 0 3 1.354 3 3 0 1.645-1.354 3-3 3h-47.46c-1.646 0-3-1.355-3-3 0-1.646 1.354-3 3-3h.02zm-24.88-9c6.583 0 12 5.417 12 12s-5.417 12-12 12-12-5.417-12-12c.005-6.581 5.4-12.002 11.98-12.04l.02.04zm-46.09 3c0-1.646 1.354-3 3-3h18.07c1.646 0 3 1.354 3 3v18.08c0 1.645-1.354 3-3 3h-18.09c-1.646 0-3-1.355-3-3l.02-18.08zm273.6 330.11c0-7.346-6.045-13.39-13.39-13.39-7.346 0-13.39 6.044-13.39 13.39 0 7.345 6.044 13.39 13.39 13.39 7.343-.006 13.384-6.047 13.39-13.39zm30.67-414.88l-13.28 21.25h26.57l-13.29-21.25zm-200.83 259.3l-13.29 21.25h26.57l-13.28-21.25z" fill="#fff" fill-rule="nonzero"/><circle cx="303.734" cy="37.96" r="13.39" fill="#fff"/><path d="M100.504 97.22l-.43.44c-.48.51-1 1-1.46 1.5-.2.21-.42.4-.63.6-.48.46-1 .92-1.45 1.36l-.72.62c-.48.41-1 .82-1.46 1.22-.26.22-.53.42-.79.63l-1.47 1.12-.87.61c-.49.34-1 .68-1.49 1-.3.21-.61.4-.92.6-.5.31-1 .62-1.51.92l-1 .56c-.51.29-1 .56-1.53.83l-1 .53c-.51.26-1 .5-1.55.74l-1.08.49c-.52.23-1.05.45-1.57.66l-1.13.44c-.53.2-1.06.39-1.6.57l-1.17.4-1.62.48c-.4.12-.8.24-1.2.34-.4.1-1.11.28-1.66.41l-1.22.28c-.56.12-1.14.22-1.71.32l-1.21.22-1.82.24c-.39.05-.77.11-1.16.15-.67.07-1.35.11-2 .16-.33 0-.66.06-1 .07-1.013.06-2.033.09-3.06.09-1 0-2 0-3-.08l-1-.08c-.67-.05-1.34-.09-2-.16l-1.15-.14c-.61-.08-1.21-.15-1.81-.24l-1.2-.22c-.57-.1-1.15-.2-1.72-.32-.4-.08-.79-.18-1.19-.27l-1.67-.4-1.18-.34c-.54-.16-1.09-.31-1.62-.48-.53-.17-.77-.26-1.16-.39l-1.59-.56-1.12-.45-1.57-.64-1.08-.49-1.54-.73-1-.53c-.5-.26-1-.53-1.51-.81l-1-.57c-.5-.29-1-.59-1.48-.89l-.95-.61c-.48-.32-1-.64-1.44-1l-.9-.64c-.48-.35-.95-.7-1.41-1.06l-.85-.67c-.47-.37-.92-.75-1.38-1.14l-.79-.69c-.46-.4-.9-.81-1.34-1.22l-.62-.59 8.49 8.4a57.94 57.94 0 0 0 43.561 19.752c31.768 0 57.91-26.142 57.91-57.91a57.934 57.934 0 0 0-18.501-42.432l-8.35-8.29c20.082 22.112 19.929 56.318-.35 78.25v.04z" fill="#2a1210" fill-rule="nonzero"/><path d="M18.044 95.43c1.85-1.5 21.54-10.3 23.17-11.33 2.52-1.59 5.26-5.54 5.26-5.54l-.23-6.78a15.218 15.218 0 0 1-1.13-3.73c-.21-1.79-.68-4.68-.68-4.68-3.43-.17-1.95-3.53-3.52-6.33-1.4-2.51-1.66-6.07-.19-6.82.91-.47 2 .73 2 .73a107.625 107.625 0 0 1-1-12c0-5.14 4-9.58 6.28-11.76 1.85-1.74 4.28-1.71 5.25-2 .97-.29 1.9-1.67 5.42-1.68a16.991 16.991 0 0 1 9.59 3c2.5 1.72 7.07 6 8 9.19.84 3 1.1 7.61-.37 15.29a5.004 5.004 0 0 1 1.55.24c1 .4 1.93 2.37 1.34 4.81-.59 2.44-1.36 2.95-2.1 6.48-.42 2-2.77 1.14-2.77 1.14s-.53 3.86-.6 4.88a17.04 17.04 0 0 1-1.64 4.49l-.08 5.69s2.45 6.29 8.64 8 14.53 4.88 20.22 10.55a57.949 57.949 0 0 0 15.406-39.34C115.86 26.151 89.709 0 57.93 0S0 26.151 0 57.93A57.95 57.95 0 0 0 15.714 97.6a17.466 17.466 0 0 1 2.33-2.17z" fill="#453b69" fill-rule="nonzero"/><path d="M19.594 101.22l.79.69c.46.39.91.77 1.38 1.14l.85.67c.46.36.93.71 1.41 1.06l.9.64c.47.33 1 .65 1.44 1l.95.61c.49.3 1 .6 1.48.89l1 .57c.5.28 1 .55 1.51.81l1 .53 1.54.73 1.08.49 1.57.64 1.12.45 1.59.56c.39.13.77.27 1.16.39.39.12 1.08.32 1.62.48l1.18.34 1.67.4c.4.09.79.19 1.19.27.57.12 1.15.22 1.72.32l1.2.22c.6.09 1.2.16 1.81.24l1.15.14c.67.07 1.34.11 2 .16l1 .08c1 .05 2 .08 3 .08s2.05 0 3.06-.09c.33 0 .66-.05 1-.07.68-.05 1.36-.09 2-.16.39 0 .77-.1 1.16-.15l1.82-.24 1.21-.22c.57-.1 1.15-.2 1.71-.32l1.22-.28c.55-.13 1.11-.26 1.66-.41.55-.15.8-.22 1.2-.34l1.62-.48 1.17-.4c.54-.18 1.07-.37 1.6-.57l1.13-.44c.52-.21 1.05-.43 1.57-.66l1.08-.49c.52-.24 1-.48 1.55-.74l1-.53c.51-.27 1-.54 1.53-.83l1-.56c.51-.3 1-.61 1.51-.92.31-.2.62-.39.92-.6.51-.33 1-.67 1.49-1l.87-.61 1.47-1.12c.26-.21.53-.41.79-.63.5-.4 1-.81 1.46-1.22l.72-.62c.49-.44 1-.9 1.45-1.36.21-.2.43-.39.63-.6.5-.49 1-1 1.46-1.5l.43-.44c-5.69-5.67-13.91-8.8-20.22-10.55-6.31-1.75-8.64-8-8.64-8l.08-5.69a17.04 17.04 0 0 0 1.64-4.49c.07-1 .6-4.88.6-4.88s2.35.9 2.77-1.14c.74-3.53 1.51-4 2.1-6.48.59-2.48-.31-4.41-1.34-4.81a5.004 5.004 0 0 0-1.55-.24c1.47-7.68 1.21-12.29.37-15.29-.91-3.2-5.48-7.47-8-9.19a16.991 16.991 0 0 0-9.59-3c-3.52 0-4.45 1.4-5.42 1.68-.97.28-3.4.26-5.25 2-2.31 2.18-6.28 6.62-6.28 11.76.109 4.015.443 8.021 1 12 .557 3.978-1.12-1.2-2-.73-1.47.75-1.21 4.31.19 6.82 1.57 2.8.09 6.16 3.52 6.33 0 0 .47 2.89.68 4.68.215 1.286.595 2.54 1.13 3.73l.23 6.78s-2.74 3.95-5.26 5.54c-1.63 1-21.32 9.83-23.17 11.33a17.45 17.45 0 0 0-2.28 2.11l.46.47c.43.44.86.88 1.29 1.3l.13.13.62.59c.49.46.93.87 1.39 1.24z" fill="#fff" fill-rule="nonzero"/><path d="M145.534 61.34h111.75c1.646 0 3-1.355 3-3 0-1.646-1.354-3-3-3h-111.75c-1.646 0-3 1.354-3 3 0 1.645 1.354 3 3 3zm0 24h58.46c1.646 0 3-1.355 3-3 0-1.646-1.354-3-3-3h-58.46c-1.646 0-3 1.354-3 3 0 1.645 1.354 3 3 3zm0-48h58.46c1.646 0 3-1.355 3-3 0-1.646-1.354-3-3-3h-58.46c-1.646 0-3 1.354-3 3 0 1.645 1.354 3 3 3zm77.46 0h35.85c1.646 0 3-1.355 3-3 0-1.646-1.354-3-3-3h-35.85c-1.646 0-3 1.354-3 3 0 1.645 1.354 3 3 3z" fill="#1580f2" fill-rule="nonzero"/><path d="M336.994 134.64h30.65c1.646 0 3 1.354 3 3 0 1.645-1.354 3-3 3h-30.65v9.08h14.39c1.646 0 3 1.354 3 3 0 1.645-1.354 3-3 3h-14.39v14.7h44.52c1.646 0 3-1.355 3-3v-43.13c0-1.646-1.354-3-3-3h-44.52v13.35z" fill="#9eb1db" fill-rule="nonzero"/><path d="M330.994 155.72h-43.39c-1.646 0-3-1.355-3-3 0-1.646 1.354-3 3-3h43.39v-9.08h-43.39c-1.646 0-3-1.355-3-3 0-1.646 1.354-3 3-3h43.39V85.31h-87.39V205.6h87.39v-49.88zm-43.39-58.77h32.52c1.646 0 3 1.354 3 3 0 1.645-1.354 3-3 3h-32.52c-1.646 0-3-1.355-3-3 0-1.646 1.354-3 3-3zm0 15.09h32.52c1.646 0 3 1.354 3 3 0 1.645-1.354 3-3 3h-32.52c-1.646 0-3-1.355-3-3 0-1.646 1.354-3 3-3zm-25 84.75h-.01c-7.642 0-13.93-6.289-13.93-13.93 0-7.642 6.288-13.93 13.93-13.93 7.642 0 13.93 6.288 13.93 13.93v.01c-.011 7.628-6.282 13.903-13.91 13.92h-.01zm0-37.69c-7.633-.006-13.91-6.288-13.91-13.92 0-7.637 6.284-13.92 13.92-13.92s13.92 6.283 13.92 13.92v.04c-.033 7.617-6.303 13.869-13.92 13.88h-.01zm0-37.68h-.01c-7.642 0-13.93-6.289-13.93-13.93 0-7.642 6.288-13.93 13.93-13.93 7.642 0 13.93 6.288 13.93 13.93-.011 7.63-6.28 13.908-13.91 13.93h-.01zm41.25 72h-16.25c-1.646 0-3-1.355-3-3 0-1.646 1.354-3 3-3h16.26c1.646 0 3 1.354 3 3 0 1.645-1.354 3-3 3h-.01zm16.26-15.08h-32.51c-1.646 0-3-1.355-3-3 0-1.646 1.354-3 3-3h32.52c1.646 0 3 1.354 3 3 0 1.645-1.354 3-3 3h-.01z" fill="#fff" fill-rule="nonzero"/><path d="M237.604 82.31V208.6c0 1.645 1.354 3 3 3h93.39c1.646 0 3-1.355 3-3v-52.88h14.39c1.646 0 3-1.355 3-3 0-1.646-1.354-3-3-3h-14.39v-9.08h30.65c1.646 0 3-1.355 3-3 0-1.646-1.354-3-3-3h-30.65V82.31c0-1.646-1.354-3-3-3h-93.39c-1.646 0-3 1.354-3 3zm6 3h87.39v49.33h-43.39c-1.646 0-3 1.354-3 3 0 1.645 1.354 3 3 3h43.39v9.08h-43.39c-1.646 0-3 1.354-3 3 0 1.645 1.354 3 3 3h43.39v49.88h-87.39V85.31z" fill="#1580f2" fill-rule="nonzero"/><path d="M262.614 93.57h-.01c-7.642 0-13.93 6.288-13.93 13.93 0 7.641 6.288 13.93 13.93 13.93 7.642 0 13.93-6.289 13.93-13.93v-.01c-.011-7.632-6.288-13.909-13.92-13.92zm7.66 11.93a3.894 3.894 0 0 1-.25.31l-7.75 7.64c-.56.55-1.315.859-2.1.86h-.18a3.004 3.004 0 0 1-2.16-1.08l-2.82-3.38-1.18-1.42a3.001 3.001 0 0 1 2.3-4.926c.893 0 1.74.399 2.31 1.086l1.91 2.29 5.42-5.34a3.002 3.002 0 0 1 2.189-.949c1.646 0 3 1.354 3 3 0 .714-.255 1.406-.719 1.949l.03-.04z" fill="#1580f2" fill-rule="nonzero"/><path d="M266.924 100.85c-.42.144-.802.38-1.12.69l-5.42 5.34-1.91-2.29a2.997 2.997 0 0 0-4.23-.39 2.998 2.998 0 0 0-.38 4.23l1.18 1.42 2.82 3.38a3.004 3.004 0 0 0 2.16 1.08h.15a3.004 3.004 0 0 0 2.1-.86l7.75-7.64c.089-.099.172-.203.25-.31a3.004 3.004 0 0 0 .604-1.806c0-1.646-1.354-3-3-3-.324 0-.647.052-.954.156z" fill="#fff" fill-rule="nonzero"/><path d="M287.604 102.95h32.52c1.646 0 3-1.355 3-3 0-1.646-1.354-3-3-3h-32.52c-1.646 0-3 1.354-3 3 0 1.645 1.354 3 3 3zm0 15.09h32.52c1.646 0 3-1.355 3-3 0-1.646-1.354-3-3-3h-32.52c-1.646 0-3 1.354-3 3 0 1.645 1.354 3 3 3zm-24.99 13.18c-7.636 0-13.92 6.283-13.92 13.92 0 7.636 6.284 13.92 13.92 13.92 7.606 0 13.876-6.234 13.92-13.84v-.06c0-7.64-6.28-13.929-13.92-13.94zm0 37.72h-.01c-7.642 0-13.93 6.288-13.93 13.93 0 7.641 6.288 13.93 13.93 13.93 7.642 0 13.93-6.289 13.93-13.93-.011-7.634-6.286-13.914-13.92-13.93zm7.66 11.94c-.08.1-.16.21-.25.31l-7.75 7.63a3.004 3.004 0 0 1-2.1.87h-.18a3.065 3.065 0 0 1-2.16-1.08l-2.79-3.39-1.18-1.42a3.001 3.001 0 0 1 .38-4.23 3.051 3.051 0 0 1 1.51-.66 3 3 0 0 1 2.72 1l1.91 2.3 5.42-5.35a2.982 2.982 0 0 1 2.074-.836c1.646 0 3 1.354 3 3 0 .651-.212 1.285-.604 1.806v.05z" fill="#1580f2" fill-rule="nonzero"/><path d="M266.924 176.22a2.982 2.982 0 0 0-1.12.68l-5.42 5.32-1.91-2.3a3 3 0 0 0-2.72-1 3.051 3.051 0 0 0-1.51.66 2.998 2.998 0 0 0-.38 4.23l1.18 1.42 2.82 3.38a3.065 3.065 0 0 0 2.16 1.08h.15a3.004 3.004 0 0 0 2.1-.87l7.72-7.6c.09-.1.17-.21.25-.31a3.004 3.004 0 0 0 .604-1.806c0-1.646-1.354-3-3-3-.324 0-.647.052-.954.156l.03-.04z" fill="#fff" fill-rule="nonzero"/><path d="M320.124 172.33h-32.52c-1.646 0-3 1.354-3 3 0 1.645 1.354 3 3 3h32.52c1.646 0 3-1.355 3-3 0-1.646-1.354-3-3-3zm-16.26 15.08h-16.26c-1.646 0-3 1.354-3 3 0 1.645 1.354 3 3 3h16.26c1.646 0 3-1.355 3-3 0-1.646-1.354-3-3-3zm-.13-130.06c10.637 0 19.39-8.753 19.39-19.39s-8.753-19.39-19.39-19.39-19.39 8.753-19.39 19.39c.011 10.633 8.757 19.379 19.39 19.39zm0-32.78c7.345 0 13.39 6.044 13.39 13.39 0 7.345-6.045 13.39-13.39 13.39-7.346 0-13.39-6.045-13.39-13.39.005-7.344 6.046-13.385 13.39-13.39zm-96.74 167.11V145.8c0-1.646-1.354-3-3-3h-146c-1.646 0-3 1.354-3 3v45.88c0 1.645 1.354 3 3 3h146c1.646 0 3-1.355 3-3zm-6-3h-140V148.8h140v39.88z" fill="#1580f2" fill-rule="nonzero"/><path fill="#fff" d="M75.704 163.97H87.78399999999999V176.05H75.704z"/><path d="M72.704 182.05h18.07c1.646 0 3-1.355 3-3v-18.08c0-1.646-1.354-3-3-3h-18.07c-1.646 0-3 1.354-3 3v18.08c0 1.645 1.354 3 3 3zm3-18.08h12.07v12.08h-12.07v-12.08z" fill="#1580f2" fill-rule="nonzero"/><path d="M115.794 176.05c3.291 0 6-2.709 6-6 0-3.292-2.709-6-6-6-3.292 0-6 2.708-6 6 0 3.291 2.708 6 6 6z" fill="#fff" fill-rule="nonzero"/><path d="M115.794 182.05c6.583 0 12-5.417 12-12s-5.417-12-12-12-12 5.417-12 12c.027 6.572 5.427 11.972 12 12zm0-18.08c3.291 0 6 2.708 6 6 0 3.291-2.709 6-6 6-3.292 0-6-2.709-6-6 0-3.292 2.708-6 6-6zm24.88 9.04h47.44c1.646 0 3-1.355 3-3 0-1.646-1.354-3-3-3h-47.44c-1.646 0-3 1.354-3 3 0 1.645 1.354 3 3 3zm214.62-69.52h37.4a3.015 3.015 0 0 0 2.996-3c0-.563-.158-1.114-.456-1.59l-18.69-29.91a3.004 3.004 0 0 0-2.545-1.412 3.003 3.003 0 0 0-2.545 1.412l-18.7 29.91a2.996 2.996 0 0 0-.456 1.59 3.015 3.015 0 0 0 2.996 3zm18.7-27.27l13.29 21.25h-26.57l13.28-21.25z" fill="#1580f2" fill-rule="nonzero"/><path d="M233.844 356.69c0-1.646 1.354-3 3-3h114.07v-12.36c0-1.646-1.354-3-3-3h-132.6c-1.646 0-3 1.354-3 3v52.2c0 1.645 1.354 3 3 3h18.53v-39.84z" fill="#9eb1db" fill-rule="nonzero"/><path d="M349.324 491.12c0-10.637-8.753-19.39-19.39-19.39s-19.39 8.753-19.39 19.39 8.753 19.39 19.39 19.39c10.633-.011 19.379-8.757 19.39-19.39zm-32.78 0c0-7.346 6.044-13.39 13.39-13.39 7.345 0 13.39 6.044 13.39 13.39 0 7.345-6.045 13.39-13.39 13.39-7.344-.006-13.385-6.047-13.39-13.39z" fill="#1580f2" fill-rule="nonzero"/><path d="M100.604 387.05c-.63.69-1.28 1.36-1.95 2a2.275 2.275 0 0 0-.23.22c-.61.59-1.23 1.17-1.86 1.73l-.4.35c-.58.51-1.18 1-1.78 1.51l-.53.41c-.57.45-1.15.9-1.74 1.33l-.64.45c-.57.4-1.14.8-1.72 1.18l-.73.47-1.7 1-.82.47c-.56.32-1.13.63-1.7.93l-.89.45-1.7.82-1 .43c-.56.25-1.12.48-1.69.71l-1 .4c-.56.22-1.13.42-1.7.61l-1.08.37c-.56.18-1.14.35-1.71.51l-1.12.32-1.74.42c-.38.09-.76.19-1.15.27l-1.78.34-1.16.2c-.62.1-1.24.18-1.86.25l-1.12.15c-.69.07-1.39.11-2.08.16-.32 0-.63.06-.95.07-1 .06-2 .09-3.07.09-1.07 0-2 0-3-.08l-.84-.07c-.72 0-1.44-.09-2.16-.17l-.94-.12c-.67-.08-1.35-.16-2-.26l-.93-.17c-.67-.11-1.33-.23-2-.36l-.86-.2a120.85 120.85 0 0 1-2-.48l-.77-.22a58.363 58.363 0 0 1-2-.6l-.69-.23c-.7-.23-1.39-.47-2.08-.73l-.58-.23c-.71-.28-1.42-.56-2.13-.87l-.47-.21c-.73-.33-1.45-.66-2.17-1l-.37-.19c-.74-.38-1.48-.76-2.2-1.17l-.29-.16c-.74-.43-1.48-.86-2.21-1.32l-.2-.13c-.75-.48-1.49-1-2.21-1.48l-.13-.09c-.75-.53-1.48-1.07-2.2-1.63h-.07a54.706 54.706 0 0 1-4.27-3.69l-.44-.42 8.49 8.4a57.939 57.939 0 0 0 43.849 20.084c31.769 0 57.91-26.142 57.91-57.91a57.932 57.932 0 0 0-18.839-42.744l-8.35-8.3c20.043 22.067 19.934 56.191-.25 78.13z" fill="#2a1210" fill-rule="nonzero"/><path d="M17.794 380.93c2.8-7.6 12.29-8.45 14.84-9.63 2.55-1.18 5.41-5.8 4.22-14.37-2.35-24.38 4.79-35.07 9.11-39a9.585 9.585 0 0 1 8.48-2.41c3.048.621 11-6.28 20.65 5.57 8.77 10.8 7.08 24.56 6.72 28.08-.36 3.52-2.21 8.52-.42 13.73a28.833 28.833 0 0 1 1.34 9.12c-.045 3.092 14.62 7.19 16.77 11.78a18.964 18.964 0 0 1 1.1 3.3 57.949 57.949 0 0 0 15.313-39.239c0-31.78-26.15-57.93-57.93-57.93-31.779 0-57.93 26.15-57.93 57.93a57.95 57.95 0 0 0 16.007 39.979 45.237 45.237 0 0 1 1.73-6.91zm-1.13 7.47c.32.34.64.68 1 1l.44.42c-.51-.46-.97-.94-1.44-1.42z" fill="#f37a78" fill-rule="nonzero"/><path d="M100.564 387.1zm-45.57 18.6c1 0 2 .08 3 .08s2.06 0 3.07-.09c-1 .06-2 .09-3.07.09-1.07 0-2-.03-3-.08z" fill="#f37a78" fill-rule="nonzero"/><path d="M18.094 389.83a54.706 54.706 0 0 0 4.27 3.69h.07c.72.56 1.45 1.1 2.2 1.63l.13.09c.72.51 1.46 1 2.21 1.48l.2.13c.73.46 1.47.89 2.21 1.32l.29.16c.72.41 1.46.79 2.2 1.17l.37.19c.72.36 1.44.69 2.17 1l.47.21c.71.31 1.42.59 2.13.87l.58.23c.69.26 1.38.5 2.08.73l.69.23c.667.206 1.333.406 2 .6l.77.22a55.78 55.78 0 0 0 2 .48l.86.2c.66.13 1.32.25 2 .36l.93.17c.66.1 1.34.18 2 .26l.94.12c.72.08 1.44.12 2.16.17l.84.07c1 0 2 .08 3 .08s2.06 0 3.07-.09c.32 0 .63-.05.95-.07.69 0 1.39-.09 2.08-.16l1.12-.15c.62-.07 1.24-.15 1.86-.25l1.16-.2 1.78-.34c.39-.08.77-.18 1.15-.27l1.74-.42 1.12-.32c.57-.16 1.15-.33 1.71-.51l1.08-.37a34.4 34.4 0 0 0 1.7-.61l1-.4c.57-.23 1.13-.46 1.69-.71l1-.43 1.7-.82.89-.45c.57-.3 1.14-.61 1.7-.93l.82-.47 1.7-1 .73-.47c.58-.38 1.15-.78 1.72-1.18l.64-.45c.59-.43 1.17-.88 1.74-1.33l.53-.41c.6-.49 1.2-1 1.78-1.51l.4-.35c.63-.56 1.25-1.14 1.86-1.73.072-.079.148-.152.23-.22.67-.66 1.32-1.33 1.95-2a18.964 18.964 0 0 0-1.1-3.3c-2.15-4.59-16.77-11.78-16.77-11.78a28.833 28.833 0 0 0-1.34-9.12c-1.79-5.21.05-10.21.42-13.73.37-3.52 2.05-17.28-6.72-28.08-9.64-11.85-20.65-5.57-20.65-5.57a9.585 9.585 0 0 0-8.48 2.41c-4.32 4-11.46 14.67-9.11 39 1.19 8.57-1.66 13.19-4.22 14.37-2.56 1.18-12 2-14.84 9.63a45.237 45.237 0 0 0-1.73 6.86c.19.21.4.4.6.6.47.48.93 1 1.42 1.42l.15.05zm221.75 39.39h29.09c.34-.004.678.05 1 .16h58.06c1.646 0 3 1.354 3 3 0 1.645-1.354 3-3 3h-56v14.14h115.26v-89.8h-147.41v69.5zm103.94-53.36h31.78c1.646 0 3 1.354 3 3 0 1.645-1.354 3-3 3h-31.78c-1.646 0-3-1.355-3-3 0-1.646 1.354-3 3-3zm-90.06 0h74.27c1.646 0 3 1.354 3 3 0 1.645-1.354 3-3 3h-74.27c-1.646 0-3-1.355-3-3 0-1.646 1.354-3 3-3zm0 17.84h47.91c1.646 0 3 1.354 3 3 0 1.645-1.354 3-3 3h-47.91c-1.646 0-3-1.355-3-3 0-1.646 1.354-3 3-3zm0 17.84h121.84c1.646 0 3 1.354 3 3 0 1.645-1.354 3-3 3h-121.84c-1.646 0-3-1.355-3-3 0-1.646 1.354-3 3-3z" fill="#fff" fill-rule="nonzero"/><path d="M393.254 356.69c0-1.646-1.354-3-3-3h-153.41c-1.646 0-3 1.354-3 3v72.53h-34.59c-1.646 0-3 1.354-3 3v69.68c0 1.645 1.354 3 3 3h69.68c1.646 0 3-1.355 3-3v-46.41h118.32c1.646 0 3-1.355 3-3v-95.8zm-127.32 142.18h-63.68v-63.65h63.68v63.65zm121.32-49.38h-115.32v-14.14h56c1.646 0 3-1.355 3-3 0-1.646-1.354-3-3-3h-58.04a2.984 2.984 0 0 0-1-.16h-29.05v-69.5h147.41v89.8z" fill="#1580f2" fill-rule="nonzero"/><path d="M343.784 381.83h31.78c1.646 0 3-1.355 3-3 0-1.646-1.354-3-3-3h-31.78c-1.646 0-3 1.354-3 3 0 1.645 1.354 3 3 3zm-90.06 35.68h121.84c1.646 0 3-1.355 3-3 0-1.646-1.354-3-3-3h-121.84c-1.646 0-3 1.354-3 3 0 1.645 1.354 3 3 3zm0-35.68h74.27c1.646 0 3-1.355 3-3 0-1.646-1.354-3-3-3h-74.27c-1.646 0-3 1.354-3 3 0 1.645 1.354 3 3 3zm0 17.84h47.91c1.646 0 3-1.355 3-3 0-1.646-1.354-3-3-3h-47.91c-1.646 0-3 1.354-3 3 0 1.645 1.354 3 3 3z" fill="#1580f2" fill-rule="nonzero"/><path d="M202.254 498.87h63.68v-63.65h-63.68v63.65zm16.1-52.65h31.48c1.646 0 3 1.354 3 3 0 1.645-1.354 3-3 3h-31.48c-1.646 0-3-1.355-3-3 0-1.646 1.354-3 3-3zm0 17.84h31.48c1.646 0 3 1.354 3 3 0 1.645-1.354 3-3 3h-31.48c-1.646 0-3-1.355-3-3 0-1.646 1.354-3 3-3zm0 17.84h31.48c1.646 0 3 1.354 3 3 0 1.645-1.354 3-3 3h-31.48c-1.646 0-3-1.355-3-3 0-1.646 1.354-3 3-3z" fill="#fff" fill-rule="nonzero"/><path d="M218.354 470.03h31.48c1.646 0 3-1.355 3-3 0-1.646-1.354-3-3-3h-31.48c-1.646 0-3 1.354-3 3 0 1.645 1.354 3 3 3zm0-17.81h31.48c1.646 0 3-1.355 3-3 0-1.646-1.354-3-3-3h-31.48c-1.646 0-3 1.354-3 3 0 1.645 1.354 3 3 3zm0 35.65h31.48c1.646 0 3-1.355 3-3 0-1.646-1.354-3-3-3h-31.48c-1.646 0-3 1.354-3 3 0 1.645 1.354 3 3 3zm-63.89-125.08h37.4a3.015 3.015 0 0 0 2.996-3c0-.563-.158-1.114-.456-1.59l-18.7-29.91a3.001 3.001 0 0 0-5.08 0l-18.7 29.93a2.996 2.996 0 0 0-.456 1.59 3.015 3.015 0 0 0 2.996 3v-.02zm18.7-27.25l13.28 21.25h-26.57l13.29-21.25zm217.09 158.58c1.646 0 3-1.355 3-3 0-1.646-1.354-3-3-3h-27.17c-1.646 0-3 1.354-3 3 0 1.645 1.354 3 3 3h27.17zm-234.02-34.63c0-1.646-1.354-3-3-3h-94.9c-1.646 0-3 1.354-3 3 0 1.645 1.354 3 3 3h94.9c1.646 0 3-1.355 3-3zm-69.24-23.76c0 1.645 1.354 3 3 3h63.22c1.646 0 3-1.355 3-3 0-1.646-1.354-3-3-3h-63.22c-1.646 0-3 1.354-3 3zm-28.66 44.49c-1.646 0-3 1.354-3 3 0 1.645 1.354 3 3 3h55.3c1.646 0 3-1.355 3-3 0-1.646-1.354-3-3-3h-55.3z" fill="#1580f2" fill-rule="nonzero"/><path d="M109.204 623.12l-8.35-8.29c19.875 21.888 19.962 55.659.2 77.65-.5.56-1 1.1-1.52 1.63a58.739 58.739 0 0 1-4.93 4.52c-.74.61-1.5 1.19-2.26 1.76l-.43.3c-.64.46-1.28.91-1.94 1.35l-.64.41c-.6.39-1.2.77-1.81 1.13l-.79.45c-.57.33-1.15.65-1.73 1l-.91.47c-.56.28-1.12.56-1.7.82-.32.16-.653.31-1 .45-.547.253-1.107.493-1.68.72l-1.06.42-1.68.61-1.13.38c-.56.18-1.12.35-1.69.51-.39.12-.77.23-1.16.33-.57.16-1.14.29-1.72.43-.4.09-.79.19-1.2.27-.58.13-1.17.23-1.75.34l-1.2.21c-.62.1-1.23.18-1.85.26l-1.16.14c-.68.07-1.36.12-2.05.17l-1 .08c-1 .05-2 .08-3.09.08-1 0-2.08 0-3.11-.09-.33 0-.66 0-1-.07-.7 0-1.4-.1-2.09-.17-.38 0-.75-.1-1.12-.15-.65-.08-1.29-.16-1.92-.26-.39-.06-.76-.14-1.14-.21-.63-.11-1.25-.22-1.86-.36l-1.11-.25c-.62-.15-1.24-.3-1.85-.47l-1-.29c-.63-.19-1.26-.38-1.88-.59l-.94-.32c-.66-.22-1.31-.47-2-.72l-.8-.31a231.43 231.43 0 0 0-2.07-.9l-.61-.27c-.78-.37-1.54-.75-2.3-1.14l-.32-.17c-.72-.38-1.42-.78-2.12-1.19l-.54-.32-1.58-1-.55-.37c-.57-.37-1.14-.76-1.69-1.16l-.31-.21c-.67-.49-1.32-1-2-1.49-.1-.08-.19-.17-.3-.25-.52-.42-1-.85-1.55-1.29l-.52-.45-1.36-1.23-.45-.43-.28-.26 8.49 8.39a57.935 57.935 0 0 0 42.921 19.034c31.769 0 57.91-26.141 57.91-57.91a57.933 57.933 0 0 0-17.731-41.704l.01-.02z" fill="#2a1210" fill-rule="nonzero"/><path d="M57.994 711.69c-1 0-2.08 0-3.11-.09 1.01.06 2.05.09 3.11.09zm-33.92-10.97c-.67-.49-1.32-1-2-1.49.68.51 1.33.99 2 1.49zm-2.27-1.74c-.52-.42-1-.85-1.55-1.29.51.44 1.03.87 1.55 1.29zm-5.81-5.38l-.91-1 .91 1zm3.74 3.62l-1.36-1.23 1.36 1.23zm11.13 7.73c-.71-.38-1.42-.78-2.12-1.19.7.46 1.4.81 2.12 1.19zm-13.87-10.33c.23.23.45.47.69.7l.28.26c-.37-.31-.69-.64-.97-.96zm9.08 7.47zm-9.48-13.22c3.63-3 19.71-8.14 23.81-9.42a1.823 1.823 0 0 0 1.23-1.28c.32-1.14.84-3.06 1.18-4.49a2.824 2.824 0 0 1 2.29-2.34l-.05-4.45a44.136 44.136 0 0 1-2.48-8.12 2.257 2.257 0 0 1-2.66-.41c-.66-.83.1-1.56-1.27-4.09-3-7.16.3-8.46.3-8.46a46.13 46.13 0 0 1-.63-10.37c.11-3.62 4.31-9.76 7.69-12.61 3.74-3.15 8.81-2.94 11.52-2.93 4.12 0 11.24 1.59 14.61 7.83 3.37 6.24 3.14 13.35 2.55 17.22 0 0 2.89-.12 2.08 4.16s-1.58 3.66-1.74 5c-.16 1.34-.82 4.42-3.42 4.41a28.952 28.952 0 0 1-1.2 6.89v5.46s2.1.42 2.64 1.93 1.19 5.47 2.33 6.49c1.14 1.02 17.31 6.08 22 8 1.11.44 2.38 2.36 3.68 5.2a57.956 57.956 0 0 0 14.879-38.766c0-31.785-26.155-57.94-57.94-57.94-31.785 0-57.94 26.155-57.94 57.94a57.953 57.953 0 0 0 14.381 38.206 10.565 10.565 0 0 1 2.16-3.06zm11.61 14.57l-1.58-1 1.58 1zm71.33-9.33z" fill="#1580f2" fill-rule="nonzero"/><path d="M18.374 696.01l1.36 1.23.52.45c.51.44 1 .87 1.55 1.29.11.08.2.17.3.25.65.51 1.3 1 2 1.49l.31.21c.55.4 1.12.79 1.69 1.16l.55.37 1.58 1 .54.32c.7.41 1.41.81 2.12 1.19l.32.17c.76.39 1.52.77 2.3 1.14l.61.27c.667.313 1.357.613 2.07.9l.8.31c.65.25 1.3.5 2 .72l.94.32c.62.21 1.25.4 1.88.59l1 .29c.61.17 1.23.32 1.85.47l1.11.25c.61.14 1.23.25 1.86.36.38.07.75.15 1.14.21.63.1 1.27.18 1.92.26.37 0 .74.11 1.12.15.69.07 1.39.12 2.09.17.33 0 .66.06 1 .07 1 .06 2.07.09 3.11.09 1 0 2.07 0 3.09-.08l1-.08c.69 0 1.37-.1 2.05-.17l1.16-.14c.62-.08 1.23-.16 1.85-.26l1.2-.21c.58-.11 1.17-.21 1.75-.34.41-.08.8-.18 1.2-.27.58-.14 1.15-.27 1.72-.43.39-.1.77-.21 1.16-.33.57-.16 1.13-.33 1.69-.51l1.13-.38 1.68-.61 1.06-.42a52.352 52.352 0 0 0 1.68-.72c.34-.14.673-.29 1-.45.58-.26 1.14-.54 1.7-.82l.91-.47c.58-.31 1.16-.63 1.73-1l.79-.45c.61-.36 1.21-.74 1.81-1.13l.64-.41c.66-.44 1.3-.89 1.94-1.35l.43-.3c.76-.57 1.52-1.15 2.26-1.76a58.739 58.739 0 0 0 4.93-4.52c.51-.53 1-1.07 1.52-1.63-1.3-2.84-2.57-4.76-3.68-5.2-4.69-1.88-20.86-6.93-22-8-1.14-1.07-1.78-5-2.33-6.49-.55-1.49-2.64-1.93-2.64-1.93v-5.46a28.952 28.952 0 0 0 1.2-6.89c2.6 0 3.25-3 3.42-4.41.17-1.41.93-.75 1.74-5 .81-4.25-2.08-4.16-2.08-4.16.59-3.87.82-11-2.55-17.22-3.37-6.22-10.49-7.82-14.61-7.83-2.71 0-7.78-.22-11.52 2.93-3.38 2.85-7.58 9-7.69 12.61a46.13 46.13 0 0 0 .63 10.37c.6 3.422-3.32 1.3-.3 8.46 1.37 2.53.61 3.26 1.27 4.09a2.257 2.257 0 0 0 2.66.41 44.136 44.136 0 0 0 2.48 8.12l.05 4.45a2.824 2.824 0 0 0-2.29 2.34c-.34 1.43-.86 3.35-1.18 4.49a1.823 1.823 0 0 1-1.23 1.28c-4.1 1.28-20.18 6.41-23.81 9.42a10.571 10.571 0 0 0-2.16 3.05c.2.22.41.44.61.67l.91 1 1 1c.32.32.64.65 1 1l.38.44z" fill="#fff" fill-rule="nonzero"/><path d="M411.194 716.64h-12.84v25.68c0 1.645-1.354 3-3 3h-84v20.76c0 1.645 1.354 3 3 3h96.84c1.646 0 3-1.355 3-3v-46.44c0-1.646-1.354-3-3-3z" fill="#9eb1db" fill-rule="nonzero"/><path d="M392.354 698.88h-90.85v40.44h90.85v-40.44zm-35.43 13.71a3.014 3.014 0 0 1 4.24 0l4 4 10.14-10.14a3 3 0 0 1 2.125-.882 3.016 3.016 0 0 1 3.002 3.002c0 .794-.316 1.557-.877 2.12l-12.26 12.28a3.013 3.013 0 0 1-2.12.88 3.005 3.005 0 0 1-2.12-.88l-6.13-6.14a3.014 3.014 0 0 1 0-4.24zm-40.11-1.89a3.002 3.002 0 0 1-.955-2.195c0-1.646 1.354-3 3-3a3 3 0 0 1 2.195.955l4 4 4-4a2.997 2.997 0 0 1 2.045-.806c1.646 0 3 1.355 3 3 0 .759-.288 1.491-.805 2.046l-4 4 4 4c.609.567.955 1.362.955 2.194 0 1.646-1.355 3-3 3a3.003 3.003 0 0 1-2.195-.954l-4-4-4 4a3.005 3.005 0 0 1-2.12.88 3.016 3.016 0 0 1-2.998-3c0-.795.316-1.558.878-2.12l4-4-4-4zm20.73 21.91h-24.24c-1.646 0-3-1.355-3-3 0-1.646 1.354-3 3-3h24.24c1.646 0 3 1.354 3 3 0 1.645-1.354 3-3 3zm43 0h-24.23c-1.646 0-3-1.355-3-3 0-1.646 1.354-3 3-3h24.24c1.646 0 3 1.354 3 3 0 1.645-1.354 3-3 3h-.01z" fill="#fff" fill-rule="nonzero"/><path d="M395.354 745.32c1.646 0 3-1.355 3-3v-46.44c0-1.646-1.354-3-3-3h-96.85c-1.646 0-3 1.354-3 3v46.44c0 1.645 1.354 3 3 3h96.85zm-93.85-6v-40.44h90.85v40.44h-90.85z" fill="#1580f2" fill-rule="nonzero"/><path d="M316.814 722.97a3.005 3.005 0 0 0 2.12.88 3.005 3.005 0 0 0 2.12-.88l4-4 4 4a3.001 3.001 0 0 0 2.045.805c1.646 0 3-1.354 3-3 0-.759-.288-1.49-.805-2.045l-4-4 4-4a3.003 3.003 0 0 0 .805-2.046c0-1.645-1.354-3-3-3-.759 0-1.49.288-2.045.806l-4 4-4-4a3 3 0 0 0-2.195-.955c-1.646 0-3 1.354-3 3 0 .832.346 1.627.955 2.195l4 4-4 4a3.014 3.014 0 0 0 0 4.24zm46.24 0a3.005 3.005 0 0 0 2.12.88c.195-.001.389-.021.58-.06a3.013 3.013 0 0 0 1.54-.82l12.27-12.27a3.006 3.006 0 0 0 .877-2.12 3.016 3.016 0 0 0-3.002-3.002 3 3 0 0 0-2.125.882l-10.14 10.14-4-4a3 3 0 0 0-2.045-.806c-1.646 0-3 1.355-3 3 0 .759.288 1.491.805 2.046l6.12 6.13zm-25.51 3.64h-24.24c-1.646 0-3 1.354-3 3 0 1.645 1.354 3 3 3h24.24c1.646 0 3-1.355 3-3 0-1.646-1.354-3-3-3zm43.01 0h-24.24c-1.646 0-3 1.354-3 3 0 1.645 1.354 3 3 3h24.24c1.646 0 3-1.355 3-3 0-1.646-1.354-3-3-3z" fill="#1580f2" fill-rule="nonzero"/><path d="M145.274 775.9c4.005 0 7.3-3.296 7.3-7.3 0-4.005-3.295-7.3-7.3-7.3s-7.3 3.295-7.3 7.3c0 4.004 3.295 7.3 7.3 7.3z" fill="#fff" fill-rule="nonzero"/><path d="M126.754 786.87h37v-37h-37v37zm18.52-31.57c7.296 0 13.3 6.003 13.3 13.3 0 7.296-6.004 13.3-13.3 13.3-7.296 0-13.3-6.004-13.3-13.3.005-7.294 6.006-13.295 13.3-13.3z" fill="#fff" fill-rule="nonzero"/><path d="M166.794 743.83h-43c-1.646 0-3 1.354-3 3v43c0 1.645 1.354 3 3 3h43c1.646 0 3-1.355 3-3v-43c0-1.646-1.354-3-3-3zm-3 43h-37v-37h37v37z" fill="#1580f2" fill-rule="nonzero"/><path d="M145.274 781.9c7.296 0 13.3-6.004 13.3-13.3 0-7.297-6.004-13.3-13.3-13.3-7.296 0-13.3 6.003-13.3 13.3.005 7.294 6.006 13.294 13.3 13.3zm0-20.6c4.005 0 7.3 3.295 7.3 7.3 0 4.004-3.295 7.3-7.3 7.3s-7.3-3.296-7.3-7.3c0-4.005 3.295-7.3 7.3-7.3z" fill="#1580f2" fill-rule="nonzero"/><path d="M190.904 787.47h87.39V667.22h-87.39v120.25zm74.68-14.87h-61.67c-1.646 0-3-1.355-3-3 0-1.646 1.354-3 3-3h61.67c1.646 0 3 1.354 3 3 0 1.645-1.354 3-3 3zm-64.67-21.83c0-1.646 1.354-3 3-3h34.65c1.646 0 3 1.354 3 3 0 1.645-1.354 3-3 3h-34.65c-1.646 0-3-1.355-3-3zm64.67 3h-11.18c-1.646 0-3-1.355-3-3 0-1.646 1.354-3 3-3h11.18c1.646 0 3 1.354 3 3 0 1.645-1.354 3-3 3zm3-50.87c0 1.645-1.354 3-3 3h-61.67c-1.646 0-3-1.355-3-3 0-1.646 1.354-3 3-3h61.67c1.646 0 3 1.354 3 3zm-65.69-21.84h34c1.646 0 3 1.354 3 3 0 1.645-1.354 3-3 3h-34c-1.646 0-3-1.355-3-3 0-1.646 1.354-3 3-3zm-3.68 40.27c0-1.646 1.354-3 3-3h64.78c1.646 0 3 1.354 3 3v11c0 1.645-1.354 3-3 3h-64.78c-1.646 0-3-1.355-3-3v-11z" fill="#fff" fill-rule="nonzero"/><path d="M281.294 661.22h-93.39c-1.646 0-3 1.354-3 3v126.25c0 1.645 1.354 3 3 3h93.39c1.646 0 3-1.355 3-3V664.22c0-1.646-1.354-3-3-3zm-3 126.29h-87.39V667.22h87.39v120.29z" fill="#1580f2" fill-rule="nonzero"/><path d="M269.974 721.33c0-1.656-1.344-3-3-3h-64.76c-1.656 0-3 1.344-3 3v11.01c0 1.655 1.344 3 3 3h64.76c1.656 0 3-1.345 3-3v-11.01z" fill="#1580f2"/><path d="M202.894 687.06h34c1.646 0 3-1.355 3-3 0-1.646-1.354-3-3-3h-34c-1.646 0-3 1.354-3 3 0 1.645 1.354 3 3 3zm-1.98 15.84c0 1.645 1.354 3 3 3h61.67c1.646 0 3-1.355 3-3 0-1.646-1.354-3-3-3h-61.67c-1.646 0-3 1.354-3 3zm64.67 44.87h-11.18c-1.646 0-3 1.354-3 3 0 1.645 1.354 3 3 3h11.18c1.646 0 3-1.355 3-3 0-1.646-1.354-3-3-3zm-61.67 6h34.65c1.646 0 3-1.355 3-3 0-1.646-1.354-3-3-3h-34.65c-1.646 0-3 1.354-3 3 0 1.645 1.354 3 3 3zm61.67 12.83h-61.67c-1.646 0-3 1.354-3 3 0 1.645 1.354 3 3 3h61.67c1.646 0 3-1.355 3-3 0-1.646-1.354-3-3-3zm59.84-98.47h33.57c1.646 0 3-1.355 3-3v-33.59c0-1.646-1.354-3-3-3h-33.6c-1.646 0-3 1.354-3 3v33.59c0 1.646 1.354 3 3 3h.03zm3-33.59h27.57v27.59h-27.6l.03-27.59zm-185.32-25.16c0 1.645 1.354 3 3 3h56.43c1.646 0 3-1.355 3-3 0-1.646-1.354-3-3-3h-56.43c-1.646 0-3 1.354-3 3zm3 26.76h84c1.646 0 3-1.355 3-3 0-1.646-1.354-3-3-3h-84c-1.646 0-3 1.354-3 3 0 1.645 1.354 3 3 3z" fill="#1580f2" fill-rule="nonzero"/><path d="M1194.49 511.59v-199h-24v226h161.44v-24h-134.44c-1.646 0-3-1.355-3-3z" fill="#fff" fill-rule="nonzero"/><path d="M1224.49 481.59v-199h-24v226h161.44v-24h-134.44c-1.646 0-3-1.355-3-3z" fill="#fff" fill-rule="nonzero"/><path d="M1230.49 478.59h161.44v-226h-161.44v226zm51.69-191h52.09c1.646 0 3 1.354 3 3 0 1.645-1.354 3-3 3h-52.09c-1.646 0-3-1.355-3-3 0-1.646 1.354-3 3-3zm-28.76 30h115.57c1.646 0 3 1.354 3 3 0 1.645-1.354 3-3 3h-115.57c-1.646 0-3-1.355-3-3 0-1.646 1.354-3 3-3zm116.57 73.63h-33.13l16.57-33.15 16.56 33.15zm-42.84-16.58v.01c0 9.09-7.48 16.57-16.57 16.57s-16.57-7.48-16.57-16.57 7.48-16.57 16.57-16.57c9.082-.022 16.577 7.427 16.61 16.51l-.04.05zm-42.85-16.56v33.13h-33.13v-33.18l33.13.05zm-30.92 49.56h115.61c1.646 0 3 1.354 3 3 0 1.645-1.354 3-3 3h-115.57c-1.646 0-3-1.355-3-3 0-1.646 1.354-3 3-3h-.04zm0 30h54.81c1.646 0 3 1.354 3 3 0 1.645-1.354 3-3 3h-54.81c-1.646 0-3-1.355-3-3 0-1.646 1.354-3 3-3z" fill="#fff" fill-rule="nonzero"/><path d="M1394.93 246.6h-167.44c-1.646 0-3 1.354-3 3v27h-27c-1.646 0-3 1.354-3 3v27h-27c-1.646 0-3 1.354-3 3v232c0 1.645 1.354 3 3 3h167.44c1.646 0 3-1.355 3-3v-27h27c1.646 0 3-1.355 3-3v-27h27c1.646 0 3-1.355 3-3v-232c0-1.646-1.354-3-3-3zm-63 292h-161.44v-226h24v199c0 1.645 1.354 3 3 3h134.44v24zm30-30h-161.44v-226h24v199c0 1.645 1.354 3 3 3h134.44v24zm30-30h-161.44v-226h161.44v226z" fill="#1580f2" fill-rule="nonzero"/><path d="M1282.18 293.59h52.09c1.646 0 3-1.355 3-3 0-1.646-1.354-3-3-3h-52.09c-1.646 0-3 1.354-3 3 0 1.645 1.354 3 3 3zm-28.76 30h115.57c1.646 0 3-1.355 3-3 0-1.646-1.354-3-3-3h-115.57c-1.646 0-3 1.354-3 3 0 1.645 1.354 3 3 3zm0 90h115.57c1.646 0 3-1.355 3-3 0-1.646-1.354-3-3-3h-115.57c-1.646 0-3 1.354-3 3 0 1.645 1.354 3 3 3zm0 30h54.81c1.646 0 3-1.355 3-3 0-1.646-1.354-3-3-3h-54.81c-1.646 0-3 1.354-3 3 0 1.645 1.354 3 3 3zM812.124 370h-23.28c-28.966-.017-56.19-14.099-72.94-37.73l-127-179.41c-17.877-25.218-46.928-40.248-77.84-40.27h-27.24c-1.646 0-3 1.354-3 3 0 1.645 1.354 3 3 3h27.22c28.968.018 56.194 14.1 72.95 37.73l127 179.42c17.881 25.211 46.931 40.236 77.84 40.26h23.28c1.646 0 3-1.355 3-3 0-1.646-1.354-3-3-3h.01zm-.25 59.22h-26.57c-31.281 0-60.64 15.387-78.44 41.11l-123 177.77c-16.68 24.102-44.189 38.523-73.5 38.53h-26.54c-1.646 0-3 1.354-3 3 0 1.645 1.354 3 3 3h26.58c31.283-.003 60.642-15.394 78.44-41.12l122.95-177.79c16.685-24.098 44.199-38.509 73.51-38.5h26.57c1.646 0 3-1.355 3-3 0-1.646-1.354-3-3-3zm0-27.63h-331.29c-1.646 0-3 1.354-3 3 0 1.645 1.354 3 3 3h331.29c1.646 0 3-1.355 3-3 0-1.646-1.354-3-3-3zm315.616 0h-122.5c-1.646 0-3 1.354-3 3 0 1.645 1.354 3 3 3h122.5c1.646 0 3-1.355 3-3 0-1.646-1.354-3-3-3z" fill="#1580f2" fill-rule="nonzero"/><path d="M944.214 361.29c20.016 22.041 19.937 56.11-.18 78.06-.64.7-1.3 1.39-2 2.06l-.32.3c-.58.57-1.17 1.12-1.77 1.66l-.5.43c-.55.49-1.11 1-1.68 1.43l-.64.5c-.54.42-1.08.84-1.63 1.25l-.75.52c-.53.38-1.06.75-1.61 1.11l-.83.53c-.53.34-1.06.67-1.61 1l-.91.53c-.53.3-1.06.59-1.6.87l-1 .5c-.53.27-1.07.53-1.61.78l-1 .47-1.63.68-1.09.43-1.64.59-1.14.38c-.55.18-1.1.34-1.65.5l-1.18.34-1.69.41-1.2.28c-.58.12-1.16.22-1.74.32l-1.2.22c-.6.09-1.21.17-1.82.24-.39 0-.77.11-1.16.15-.67.07-1.35.12-2 .16l-1 .08c-1 0-2 .08-3 .08h-.08c-1 0-2 0-3-.08l-1-.08c-.68 0-1.36-.09-2-.16l-1.14-.14c-.62-.08-1.24-.15-1.85-.25l-1.18-.21c-.58-.11-1.17-.21-1.75-.33l-1.18-.27-1.71-.42-1.14-.33c-.57-.16-1.14-.32-1.7-.5l-1.09-.38c-.57-.19-1.13-.39-1.69-.6l-1-.41-1.68-.7-1-.44c-.56-.26-1.12-.53-1.67-.81-.31-.15-.61-.31-.91-.47-.57-.29-1.13-.6-1.68-.91l-.99-.44c-.56-.33-1.13-.68-1.68-1l-.75-.48c-.58-.38-1.14-.77-1.7-1.17l-.66-.46c-.58-.43-1.15-.87-1.72-1.32l-.55-.43c-.6-.48-1.18-1-1.76-1.49l-.42-.36c-.6-.54-1.19-1.1-1.78-1.66l8.48 8.4a57.935 57.935 0 0 0 42.921 19.034c31.769 0 57.91-26.141 57.91-57.91a57.933 57.933 0 0 0-17.731-41.704l-8.34-8.38z" fill="#2a1210" fill-rule="nonzero"/><path d="M860.934 441.72l.06.06c.59.56 1.18 1.12 1.78 1.66-.62-.56-1.24-1.13-1.84-1.72zm3.81-10.39c3.27-2 17.09-5.61 21.45-6.87a3.27 3.27 0 0 0 1.86-1.35c2.6-4 1.56-6.55 1.56-6.55l-2.65-.5a2.368 2.368 0 0 1-1.89-2.8 9.542 9.542 0 0 0-.39-6.28c-1.16-2.65-6-7.8-6.6-13.1-1-12.14 3.41-18.93 8.41-23 5.52-4.49 12.3-2.88 12.3-2.88s9-3.64 15.85.25c7.63 4.34 13.64 13.29 11.3 31.11s-13.28 18.59-14.49 18.83c0 0 .08 5.16 1.6 6.13 3 1.93 20 4.84 22.38 5.76 3.26 1.24 6.33 3.83 8.6 9.27a57.94 57.94 0 0 0 15.218-39.132c0-31.774-26.146-57.92-57.92-57.92s-57.92 26.146-57.92 57.92a57.938 57.938 0 0 0 15.282 39.202c1.89-4.69 4.16-6.94 6.05-8.09z" fill="#9eb1db" fill-rule="nonzero"/><path d="M863.194 443.8c.58.51 1.16 1 1.76 1.49l.55.43c.57.45 1.14.89 1.72 1.32l.66.46c.56.4 1.12.79 1.7 1.17l.75.48c.55.35 1.12.7 1.68 1l.84.48c.55.31 1.11.62 1.68.91.3.16.6.32.91.47.55.28 1.11.55 1.67.81l1 .44 1.68.7 1 .41c.56.21 1.12.41 1.69.6l1.09.38c.56.18 1.13.34 1.7.5l1.14.33 1.71.42 1.18.27c.58.12 1.17.22 1.75.33l1.18.21c.61.1 1.23.17 1.85.25l1.14.14c.67.07 1.35.12 2 .16l1 .08c1 0 2 .08 3 .08h.08c1 0 2 0 3-.08l1-.08c.68 0 1.36-.09 2-.16.39 0 .77-.1 1.16-.15.61-.07 1.22-.15 1.82-.24l1.2-.22c.58-.1 1.16-.2 1.74-.32l1.2-.28 1.69-.41 1.18-.34c.55-.16 1.1-.32 1.65-.5l1.14-.38 1.64-.59 1.09-.43 1.63-.68 1-.47c.54-.25 1.08-.51 1.61-.78l1-.5c.54-.28 1.07-.57 1.6-.87l.91-.53c.55-.32 1.08-.65 1.61-1l.83-.53c.55-.36 1.08-.73 1.61-1.11l.75-.52c.55-.41 1.09-.83 1.63-1.25l.64-.5c.57-.47 1.13-.94 1.68-1.43l.5-.43c.6-.54 1.19-1.09 1.77-1.66l.32-.3c.67-.67 1.33-1.36 2-2.06-2.27-5.44-5.34-8-8.6-9.27-2.41-.92-19.34-3.83-22.38-5.76-1.52-1-1.6-6.13-1.6-6.13 1.21-.24 12.16-1 14.49-18.83s-3.67-26.77-11.3-31.11c-6.85-3.89-15.85-.25-15.85-.25s-6.78-1.61-12.3 2.88c-5 4.07-9.45 10.86-8.41 23 .64 5.3 5.44 10.45 6.6 13.1a9.542 9.542 0 0 1 .39 6.28 2.368 2.368 0 0 0 1.89 2.8l2.65.5s1 2.58-1.56 6.55a3.27 3.27 0 0 1-1.86 1.35c-4.36 1.26-18.18 4.87-21.45 6.87-1.89 1.15-4.16 3.4-6 8.09.65.7 1.31 1.38 2 2l.25.24c.6.59 1.22 1.16 1.84 1.72l.49.45z" fill="#fff" fill-rule="nonzero"/><path fill="#1580f2" d="M1251.21 358.03H1284.3400000000001V391.15999999999997H1251.21z"/><circle cx="1310.62" cy="374.59" r="16.57" fill="#453b69"/><path d="M1336.9 391.17h33.13l-16.57-33.15-16.56 33.15z" fill="#f37a78" fill-rule="nonzero"/></svg>