<?xml version="1.0" encoding="UTF-8" standalone="no"?><!DOCTYPE svg PUBLIC "-//W3C//DTD SVG 1.1//EN" "http://www.w3.org/Graphics/SVG/1.1/DTD/svg11.dtd"><svg width="100%" height="100%" viewBox="0 0 1398 794" version="1.1" xmlns="http://www.w3.org/2000/svg" xmlns:xlink="http://www.w3.org/1999/xlink" xml:space="preserve" xmlns:serif="http://www.serif.com/" style="fill-rule:evenodd;clip-rule:evenodd;stroke-linejoin:round;stroke-miterlimit:1.41421;"><rect x="328.424" y="634.54" width="27.6" height="27.6" style="fill:#fff;"/><path d="M60.994,188.68l140,0l0,-39.88l-140,0l0,39.88Zm79.7,-21.67l47.44,0c1.646,0 3,1.354 3,3c0,1.645 -1.354,3 -3,3l-47.46,0c-1.646,0 -3,-1.355 -3,-3c0,-1.646 1.354,-3 3,-3l0.02,0Zm-24.88,-9c6.583,0 12,5.417 12,12c0,6.583 -5.417,12 -12,12c-6.583,0 -12,-5.417 -12,-12c0.005,-6.581 5.4,-12.002 11.98,-12.04l0.02,0.04Zm-46.09,3c0,-1.646 1.354,-3 3,-3l18.07,0c1.646,0 3,1.354 3,3l0,18.08c0,1.645 -1.354,3 -3,3l-18.09,0c-1.646,0 -3,-1.355 -3,-3l0.02,-18.08Z" style="fill:#fff;fill-rule:nonzero;"/><path d="M343.324,491.12c0,-7.346 -6.045,-13.39 -13.39,-13.39c-7.346,0 -13.39,6.044 -13.39,13.39c0,7.345 6.044,13.39 13.39,13.39c7.343,-0.006 13.384,-6.047 13.39,-13.39Z" style="fill:#fff;fill-rule:nonzero;"/><path d="M373.994,76.24l-13.28,21.25l26.57,0l-13.29,-21.25Z" style="fill:#fff;fill-rule:nonzero;"/><path d="M173.164,335.54l-13.29,21.25l26.57,0l-13.28,-21.25Z" style="fill:#fff;fill-rule:nonzero;"/><circle cx="303.734" cy="37.96" r="13.39" style="fill:#fff;"/><path d="M100.504,97.22l-0.43,0.44c-0.48,0.51 -1,1 -1.46,1.5c-0.2,0.21 -0.42,0.4 -0.63,0.6c-0.48,0.46 -1,0.92 -1.45,1.36l-0.72,0.62c-0.48,0.41 -1,0.82 -1.46,1.22c-0.26,0.22 -0.53,0.42 -0.79,0.63l-1.47,1.12l-0.87,0.61c-0.49,0.34 -1,0.68 -1.49,1c-0.3,0.21 -0.61,0.4 -0.92,0.6c-0.5,0.31 -1,0.62 -1.51,0.92l-1,0.56c-0.51,0.29 -1,0.56 -1.53,0.83l-1,0.53c-0.51,0.26 -1,0.5 -1.55,0.74l-1.08,0.49c-0.52,0.23 -1.05,0.45 -1.57,0.66l-1.13,0.44c-0.53,0.2 -1.06,0.39 -1.6,0.57l-1.17,0.4l-1.62,0.48c-0.4,0.12 -0.8,0.24 -1.2,0.34c-0.4,0.1 -1.11,0.28 -1.66,0.41l-1.22,0.28c-0.56,0.12 -1.14,0.22 -1.71,0.32l-1.21,0.22l-1.82,0.24c-0.39,0.05 -0.77,0.11 -1.16,0.15c-0.67,0.07 -1.35,0.11 -2,0.16c-0.33,0 -0.66,0.06 -1,0.07c-1.013,0.06 -2.033,0.09 -3.06,0.09c-1,0 -2,0 -3,-0.08l-1,-0.08c-0.67,-0.05 -1.34,-0.09 -2,-0.16l-1.15,-0.14c-0.61,-0.08 -1.21,-0.15 -1.81,-0.24l-1.2,-0.22c-0.57,-0.1 -1.15,-0.2 -1.72,-0.32c-0.4,-0.08 -0.79,-0.18 -1.19,-0.27l-1.67,-0.4l-1.18,-0.34c-0.54,-0.16 -1.09,-0.31 -1.62,-0.48c-0.53,-0.17 -0.77,-0.26 -1.16,-0.39l-1.59,-0.56l-1.12,-0.45l-1.57,-0.64l-1.08,-0.49l-1.54,-0.73l-1,-0.53c-0.5,-0.26 -1,-0.53 -1.51,-0.81l-1,-0.57c-0.5,-0.29 -1,-0.59 -1.48,-0.89l-0.95,-0.61c-0.48,-0.32 -1,-0.64 -1.44,-1l-0.9,-0.64c-0.48,-0.35 -0.95,-0.7 -1.41,-1.06l-0.85,-0.67c-0.47,-0.37 -0.92,-0.75 -1.38,-1.14l-0.79,-0.69c-0.46,-0.4 -0.9,-0.81 -1.34,-1.22l-0.62,-0.59l8.49,8.4c10.99,12.546 26.882,19.752 43.561,19.752c31.768,0 57.91,-26.142 57.91,-57.91c0,-16.094 -6.709,-31.48 -18.501,-42.432l-8.35,-8.29c20.082,22.112 19.929,56.318 -0.35,78.25l0,0.04Z" style="fill:#2a1210;fill-rule:nonzero;"/><path d="M18.044,95.43c1.85,-1.5 21.54,-10.3 23.17,-11.33c2.52,-1.59 5.26,-5.54 5.26,-5.54l-0.23,-6.78c-0.535,-1.19 -0.915,-2.444 -1.13,-3.73c-0.21,-1.79 -0.68,-4.68 -0.68,-4.68c-3.43,-0.17 -1.95,-3.53 -3.52,-6.33c-1.4,-2.51 -1.66,-6.07 -0.19,-6.82c0.91,-0.47 2,0.73 2,0.73c-0.557,-3.979 -0.891,-7.985 -1,-12c0,-5.14 4,-9.58 6.28,-11.76c1.85,-1.74 4.28,-1.71 5.25,-2c0.97,-0.29 1.9,-1.67 5.42,-1.68c3.425,0.01 6.769,1.056 9.59,3c2.5,1.72 7.07,6 8,9.19c0.84,3 1.1,7.61 -0.37,15.29c0.526,-0.002 1.049,0.079 1.55,0.24c1,0.4 1.93,2.37 1.34,4.81c-0.59,2.44 -1.36,2.95 -2.1,6.48c-0.42,2 -2.77,1.14 -2.77,1.14c0,0 -0.53,3.86 -0.6,4.88c-0.333,1.566 -0.885,3.078 -1.64,4.49l-0.08,5.69c0,0 2.45,6.29 8.64,8c6.19,1.71 14.53,4.88 20.22,10.55c9.901,-10.703 15.406,-24.759 15.406,-39.34c0,-31.779 -26.151,-57.93 -57.93,-57.93c-31.779,0 -57.93,26.151 -57.93,57.93c0,14.736 5.623,28.931 15.714,39.67c0.709,-0.793 1.489,-1.519 2.33,-2.17Z" style="fill:#453b69;fill-rule:nonzero;"/><path d="M19.594,101.22l0.79,0.69c0.46,0.39 0.91,0.77 1.38,1.14l0.85,0.67c0.46,0.36 0.93,0.71 1.41,1.06l0.9,0.64c0.47,0.33 1,0.65 1.44,1l0.95,0.61c0.49,0.3 1,0.6 1.48,0.89l1,0.57c0.5,0.28 1,0.55 1.51,0.81l1,0.53l1.54,0.73l1.08,0.49l1.57,0.64l1.12,0.45l1.59,0.56c0.39,0.13 0.77,0.27 1.16,0.39c0.39,0.12 1.08,0.32 1.62,0.48l1.18,0.34l1.67,0.4c0.4,0.09 0.79,0.19 1.19,0.27c0.57,0.12 1.15,0.22 1.72,0.32l1.2,0.22c0.6,0.09 1.2,0.16 1.81,0.24l1.15,0.14c0.67,0.07 1.34,0.11 2,0.16l1,0.08c1,0.05 2,0.08 3,0.08c1,0 2.05,0 3.06,-0.09c0.33,0 0.66,-0.05 1,-0.07c0.68,-0.05 1.36,-0.09 2,-0.16c0.39,0 0.77,-0.1 1.16,-0.15l1.82,-0.24l1.21,-0.22c0.57,-0.1 1.15,-0.2 1.71,-0.32l1.22,-0.28c0.55,-0.13 1.11,-0.26 1.66,-0.41c0.55,-0.15 0.8,-0.22 1.2,-0.34l1.62,-0.48l1.17,-0.4c0.54,-0.18 1.07,-0.37 1.6,-0.57l1.13,-0.44c0.52,-0.21 1.05,-0.43 1.57,-0.66l1.08,-0.49c0.52,-0.24 1,-0.48 1.55,-0.74l1,-0.53c0.51,-0.27 1,-0.54 1.53,-0.83l1,-0.56c0.51,-0.3 1,-0.61 1.51,-0.92c0.31,-0.2 0.62,-0.39 0.92,-0.6c0.51,-0.33 1,-0.67 1.49,-1l0.87,-0.61l1.47,-1.12c0.26,-0.21 0.53,-0.41 0.79,-0.63c0.5,-0.4 1,-0.81 1.46,-1.22l0.72,-0.62c0.49,-0.44 1,-0.9 1.45,-1.36c0.21,-0.2 0.43,-0.39 0.63,-0.6c0.5,-0.49 1,-1 1.46,-1.5l0.43,-0.44c-5.69,-5.67 -13.91,-8.8 -20.22,-10.55c-6.31,-1.75 -8.64,-8 -8.64,-8l0.08,-5.69c0.755,-1.412 1.307,-2.924 1.64,-4.49c0.07,-1 0.6,-4.88 0.6,-4.88c0,0 2.35,0.9 2.77,-1.14c0.74,-3.53 1.51,-4 2.1,-6.48c0.59,-2.48 -0.31,-4.41 -1.34,-4.81c-0.501,-0.161 -1.024,-0.242 -1.55,-0.24c1.47,-7.68 1.21,-12.29 0.37,-15.29c-0.91,-3.2 -5.48,-7.47 -8,-9.19c-2.821,-1.944 -6.165,-2.99 -9.59,-3c-3.52,0 -4.45,1.4 -5.42,1.68c-0.97,0.28 -3.4,0.26 -5.25,2c-2.31,2.18 -6.28,6.62 -6.28,11.76c0.109,4.015 0.443,8.021 1,12c0.557,3.978 -1.12,-1.2 -2,-0.73c-1.47,0.75 -1.21,4.31 0.19,6.82c1.57,2.8 0.09,6.16 3.52,6.33c0,0 0.47,2.89 0.68,4.68c0.215,1.286 0.595,2.54 1.13,3.73l0.23,6.78c0,0 -2.74,3.95 -5.26,5.54c-1.63,1 -21.32,9.83 -23.17,11.33c-0.821,0.634 -1.584,1.34 -2.28,2.11l0.46,0.47c0.43,0.44 0.86,0.88 1.29,1.3l0.13,0.13l0.62,0.59c0.49,0.46 0.93,0.87 1.39,1.24Z" style="fill:#fff;fill-rule:nonzero;"/><path d="M145.534,61.34l111.75,0c1.646,0 3,-1.355 3,-3c0,-1.646 -1.354,-3 -3,-3l-111.75,0c-1.646,0 -3,1.354 -3,3c0,1.645 1.354,3 3,3Z" style="fill:#1580f2;fill-rule:nonzero;"/><path d="M145.534,85.34l58.46,0c1.646,0 3,-1.355 3,-3c0,-1.646 -1.354,-3 -3,-3l-58.46,0c-1.646,0 -3,1.354 -3,3c0,1.645 1.354,3 3,3Z" style="fill:#1580f2;fill-rule:nonzero;"/><path d="M145.534,37.34l58.46,0c1.646,0 3,-1.355 3,-3c0,-1.646 -1.354,-3 -3,-3l-58.46,0c-1.646,0 -3,1.354 -3,3c0,1.645 1.354,3 3,3Z" style="fill:#1580f2;fill-rule:nonzero;"/><path d="M222.994,37.34l35.85,0c1.646,0 3,-1.355 3,-3c0,-1.646 -1.354,-3 -3,-3l-35.85,0c-1.646,0 -3,1.354 -3,3c0,1.645 1.354,3 3,3Z" style="fill:#1580f2;fill-rule:nonzero;"/><path d="M336.994,134.64l30.65,0c1.646,0 3,1.354 3,3c0,1.645 -1.354,3 -3,3l-30.65,0l0,9.08l14.39,0c1.646,0 3,1.354 3,3c0,1.645 -1.354,3 -3,3l-14.39,0l0,14.7l44.52,0c1.646,0 3,-1.355 3,-3l0,-43.13c0,-1.646 -1.354,-3 -3,-3l-44.52,0l0,13.35Z" style="fill:#9eb1db;fill-rule:nonzero;"/><path d="M330.994,155.72l-43.39,0c-1.646,0 -3,-1.355 -3,-3c0,-1.646 1.354,-3 3,-3l43.39,0l0,-9.08l-43.39,0c-1.646,0 -3,-1.355 -3,-3c0,-1.646 1.354,-3 3,-3l43.39,0l0,-49.33l-87.39,0l0,120.29l87.39,0l0,-49.88Zm-43.39,-58.77l32.52,0c1.646,0 3,1.354 3,3c0,1.645 -1.354,3 -3,3l-32.52,0c-1.646,0 -3,-1.355 -3,-3c0,-1.646 1.354,-3 3,-3Zm0,15.09l32.52,0c1.646,0 3,1.354 3,3c0,1.645 -1.354,3 -3,3l-32.52,0c-1.646,0 -3,-1.355 -3,-3c0,-1.646 1.354,-3 3,-3Zm-25,84.75c-0.003,0 -0.007,0 -0.01,0c-7.642,0 -13.93,-6.289 -13.93,-13.93c0,-7.642 6.288,-13.93 13.93,-13.93c7.642,0 13.93,6.288 13.93,13.93c0,0.003 0,0.006 0,0.01c-0.011,7.628 -6.282,13.903 -13.91,13.92l-0.01,0Zm0,-37.69c-7.633,-0.006 -13.91,-6.288 -13.91,-13.92c0,-7.637 6.284,-13.92 13.92,-13.92c7.636,0 13.92,6.283 13.92,13.92c0,0.013 0,0.026 0,0.04c-0.033,7.617 -6.303,13.869 -13.92,13.88l-0.01,0Zm0,-37.68c-0.003,0 -0.007,0 -0.01,0c-7.642,0 -13.93,-6.289 -13.93,-13.93c0,-7.642 6.288,-13.93 13.93,-13.93c7.642,0 13.93,6.288 13.93,13.93c-0.011,7.63 -6.28,13.908 -13.91,13.93l-0.01,0Zm41.25,72l-16.25,0c-1.646,0 -3,-1.355 -3,-3c0,-1.646 1.354,-3 3,-3l16.26,0c1.646,0 3,1.354 3,3c0,1.645 -1.354,3 -3,3l-0.01,0Zm16.26,-15.08l-32.51,0c-1.646,0 -3,-1.355 -3,-3c0,-1.646 1.354,-3 3,-3l32.52,0c1.646,0 3,1.354 3,3c0,1.645 -1.354,3 -3,3l-0.01,0Z" style="fill:#fff;fill-rule:nonzero;"/><path d="M237.604,82.31l0,126.29c0,1.645 1.354,3 3,3l93.39,0c1.646,0 3,-1.355 3,-3l0,-52.88l14.39,0c1.646,0 3,-1.355 3,-3c0,-1.646 -1.354,-3 -3,-3l-14.39,0l0,-9.08l30.65,0c1.646,0 3,-1.355 3,-3c0,-1.646 -1.354,-3 -3,-3l-30.65,0l0,-52.33c0,-1.646 -1.354,-3 -3,-3l-93.39,0c-1.646,0 -3,1.354 -3,3Zm6,3l87.39,0l0,49.33l-43.39,0c-1.646,0 -3,1.354 -3,3c0,1.645 1.354,3 3,3l43.39,0l0,9.08l-43.39,0c-1.646,0 -3,1.354 -3,3c0,1.645 1.354,3 3,3l43.39,0l0,49.88l-87.39,0l0,-120.29Z" style="fill:#1580f2;fill-rule:nonzero;"/><path d="M262.614,93.57c-0.003,0 -0.007,0 -0.01,0c-7.642,0 -13.93,6.288 -13.93,13.93c0,7.641 6.288,13.93 13.93,13.93c7.642,0 13.93,-6.289 13.93,-13.93c0,-0.004 0,-0.007 0,-0.01c-0.011,-7.632 -6.288,-13.909 -13.92,-13.92Zm7.66,11.93c-0.078,0.107 -0.161,0.211 -0.25,0.31l-7.75,7.64c-0.56,0.55 -1.315,0.859 -2.1,0.86l-0.18,0c-0.839,-0.042 -1.624,-0.434 -2.16,-1.08l-2.82,-3.38l-1.18,-1.42c-0.452,-0.54 -0.7,-1.222 -0.7,-1.926c0,-0.89 0.396,-1.735 1.08,-2.304c0.539,-0.45 1.219,-0.696 1.92,-0.696c0.893,0 1.74,0.399 2.31,1.086l1.91,2.29l5.42,-5.34c0.567,-0.605 1.36,-0.949 2.189,-0.949c1.646,0 3,1.354 3,3c0,0.714 -0.255,1.406 -0.719,1.949l0.03,-0.04Z" style="fill:#1580f2;fill-rule:nonzero;"/><path d="M266.924,100.85c-0.42,0.144 -0.802,0.38 -1.12,0.69l-5.42,5.34l-1.91,-2.29c-0.57,-0.687 -1.417,-1.086 -2.31,-1.086c-0.701,0 -1.381,0.246 -1.92,0.696c-0.684,0.569 -1.08,1.414 -1.08,2.304c0,0.704 0.248,1.386 0.7,1.926l1.18,1.42l2.82,3.38c0.536,0.646 1.321,1.038 2.16,1.08l0.15,0c0.785,-0.001 1.54,-0.31 2.1,-0.86l7.75,-7.64c0.089,-0.099 0.172,-0.203 0.25,-0.31c0.392,-0.521 0.604,-1.155 0.604,-1.806c0,-1.646 -1.354,-3 -3,-3c-0.324,0 -0.647,0.052 -0.954,0.156Z" style="fill:#fff;fill-rule:nonzero;"/><path d="M287.604,102.95l32.52,0c1.646,0 3,-1.355 3,-3c0,-1.646 -1.354,-3 -3,-3l-32.52,0c-1.646,0 -3,1.354 -3,3c0,1.645 1.354,3 3,3Z" style="fill:#1580f2;fill-rule:nonzero;"/><path d="M287.604,118.04l32.52,0c1.646,0 3,-1.355 3,-3c0,-1.646 -1.354,-3 -3,-3l-32.52,0c-1.646,0 -3,1.354 -3,3c0,1.645 1.354,3 3,3Z" style="fill:#1580f2;fill-rule:nonzero;"/><path d="M262.614,131.22c-7.636,0 -13.92,6.283 -13.92,13.92c0,7.636 6.284,13.92 13.92,13.92c7.606,0 13.876,-6.234 13.92,-13.84c0,-0.02 0,-0.04 0,-0.06c0,-7.64 -6.28,-13.929 -13.92,-13.94Z" style="fill:#1580f2;fill-rule:nonzero;"/><path d="M262.614,168.94c-0.003,0 -0.007,0 -0.01,0c-7.642,0 -13.93,6.288 -13.93,13.93c0,7.641 6.288,13.93 13.93,13.93c7.642,0 13.93,-6.289 13.93,-13.93c-0.011,-7.634 -6.286,-13.914 -13.92,-13.93Zm7.66,11.94c-0.08,0.1 -0.16,0.21 -0.25,0.31l-7.75,7.63c-0.559,0.554 -1.313,0.866 -2.1,0.87l-0.18,0c-0.837,-0.049 -1.619,-0.44 -2.16,-1.08l-2.79,-3.39l-1.18,-1.42c-0.452,-0.54 -0.7,-1.222 -0.7,-1.926c0,-0.89 0.396,-1.735 1.08,-2.304c0.433,-0.354 0.956,-0.583 1.51,-0.66c1.017,-0.156 2.046,0.222 2.72,1l1.91,2.3l5.42,-5.35c0.318,-0.307 0.701,-0.539 1.12,-0.68c0.307,-0.104 0.63,-0.156 0.954,-0.156c1.646,0 3,1.354 3,3c0,0.651 -0.212,1.285 -0.604,1.806l0,0.05Z" style="fill:#1580f2;fill-rule:nonzero;"/><path d="M266.924,176.22c-0.419,0.141 -0.802,0.373 -1.12,0.68l-5.42,5.32l-1.91,-2.3c-0.674,-0.778 -1.703,-1.156 -2.72,-1c-0.554,0.077 -1.077,0.306 -1.51,0.66c-0.684,0.569 -1.08,1.414 -1.08,2.304c0,0.704 0.248,1.386 0.7,1.926l1.18,1.42l2.82,3.38c0.541,0.64 1.323,1.031 2.16,1.08l0.15,0c0.787,-0.004 1.541,-0.316 2.1,-0.87l7.72,-7.6c0.09,-0.1 0.17,-0.21 0.25,-0.31c0.392,-0.521 0.604,-1.155 0.604,-1.806c0,-1.646 -1.354,-3 -3,-3c-0.324,0 -0.647,0.052 -0.954,0.156l0.03,-0.04Z" style="fill:#fff;fill-rule:nonzero;"/><path d="M320.124,172.33l-32.52,0c-1.646,0 -3,1.354 -3,3c0,1.645 1.354,3 3,3l32.52,0c1.646,0 3,-1.355 3,-3c0,-1.646 -1.354,-3 -3,-3Z" style="fill:#1580f2;fill-rule:nonzero;"/><path d="M303.864,187.41l-16.26,0c-1.646,0 -3,1.354 -3,3c0,1.645 1.354,3 3,3l16.26,0c1.646,0 3,-1.355 3,-3c0,-1.646 -1.354,-3 -3,-3Z" style="fill:#1580f2;fill-rule:nonzero;"/><path d="M303.734,57.35c10.637,0 19.39,-8.753 19.39,-19.39c0,-10.637 -8.753,-19.39 -19.39,-19.39c-10.637,0 -19.39,8.753 -19.39,19.39c0.011,10.633 8.757,19.379 19.39,19.39Zm0,-32.78c7.345,0 13.39,6.044 13.39,13.39c0,7.345 -6.045,13.39 -13.39,13.39c-7.346,0 -13.39,-6.045 -13.39,-13.39c0.005,-7.344 6.046,-13.385 13.39,-13.39Z" style="fill:#1580f2;fill-rule:nonzero;"/><path d="M206.994,191.68l0,-45.88c0,-1.646 -1.354,-3 -3,-3l-146,0c-1.646,0 -3,1.354 -3,3l0,45.88c0,1.645 1.354,3 3,3l146,0c1.646,0 3,-1.355 3,-3Zm-6,-3l-140,0l0,-39.88l140,0l0,39.88Z" style="fill:#1580f2;fill-rule:nonzero;"/><rect x="75.704" y="163.97" width="12.08" height="12.08" style="fill:#fff;"/><path d="M72.704,182.05l18.07,0c1.646,0 3,-1.355 3,-3l0,-18.08c0,-1.646 -1.354,-3 -3,-3l-18.07,0c-1.646,0 -3,1.354 -3,3l0,18.08c0,1.645 1.354,3 3,3Zm3,-18.08l12.07,0l0,12.08l-12.07,0l0,-12.08Z" style="fill:#1580f2;fill-rule:nonzero;"/><path d="M115.794,176.05c3.291,0 6,-2.709 6,-6c0,-3.292 -2.709,-6 -6,-6c-3.292,0 -6,2.708 -6,6c0,3.291 2.708,6 6,6Z" style="fill:#fff;fill-rule:nonzero;"/><path d="M115.794,182.05c6.583,0 12,-5.417 12,-12c0,-6.583 -5.417,-12 -12,-12c-6.583,0 -12,5.417 -12,12c0.027,6.572 5.427,11.972 12,12Zm0,-18.08c3.291,0 6,2.708 6,6c0,3.291 -2.709,6 -6,6c-3.292,0 -6,-2.709 -6,-6c0,-3.292 2.708,-6 6,-6Z" style="fill:#1580f2;fill-rule:nonzero;"/><path d="M140.674,173.01l47.44,0c1.646,0 3,-1.355 3,-3c0,-1.646 -1.354,-3 -3,-3l-47.44,0c-1.646,0 -3,1.354 -3,3c0,1.645 1.354,3 3,3Z" style="fill:#1580f2;fill-rule:nonzero;"/><path d="M355.294,103.49l37.4,0c1.644,-0.003 2.996,-1.356 2.996,-3c0,-0.563 -0.158,-1.114 -0.456,-1.59l-18.69,-29.91c-0.548,-0.877 -1.511,-1.412 -2.545,-1.412c-1.034,0 -1.998,0.535 -2.545,1.412l-18.7,29.91c-0.298,0.476 -0.456,1.027 -0.456,1.59c0,1.644 1.352,2.997 2.996,3Zm18.7,-27.27l13.29,21.25l-26.57,0l13.28,-21.25Z" style="fill:#1580f2;fill-rule:nonzero;"/><path d="M233.844,356.69c0,-1.646 1.354,-3 3,-3l114.07,0l0,-12.36c0,-1.646 -1.354,-3 -3,-3l-132.6,0c-1.646,0 -3,1.354 -3,3l0,52.2c0,1.645 1.354,3 3,3l18.53,0l0,-39.84Z" style="fill:#9eb1db;fill-rule:nonzero;"/><path d="M349.324,491.12c0,-10.637 -8.753,-19.39 -19.39,-19.39c-10.637,0 -19.39,8.753 -19.39,19.39c0,10.637 8.753,19.39 19.39,19.39c10.633,-0.011 19.379,-8.757 19.39,-19.39Zm-32.78,0c0,-7.346 6.044,-13.39 13.39,-13.39c7.345,0 13.39,6.044 13.39,13.39c0,7.345 -6.045,13.39 -13.39,13.39c-7.344,-0.006 -13.385,-6.047 -13.39,-13.39Z" style="fill:#1580f2;fill-rule:nonzero;"/><path d="M100.604,387.05c-0.63,0.69 -1.28,1.36 -1.95,2c-0.082,0.068 -0.158,0.141 -0.23,0.22c-0.61,0.59 -1.23,1.17 -1.86,1.73l-0.4,0.35c-0.58,0.51 -1.18,1 -1.78,1.51l-0.53,0.41c-0.57,0.45 -1.15,0.9 -1.74,1.33l-0.64,0.45c-0.57,0.4 -1.14,0.8 -1.72,1.18l-0.73,0.47l-1.7,1l-0.82,0.47c-0.56,0.32 -1.13,0.63 -1.7,0.93l-0.89,0.45l-1.7,0.82l-1,0.43c-0.56,0.25 -1.12,0.48 -1.69,0.71l-1,0.4c-0.56,0.22 -1.13,0.42 -1.7,0.61l-1.08,0.37c-0.56,0.18 -1.14,0.35 -1.71,0.51l-1.12,0.32l-1.74,0.42c-0.38,0.09 -0.76,0.19 -1.15,0.27l-1.78,0.34l-1.16,0.2c-0.62,0.1 -1.24,0.18 -1.86,0.25l-1.12,0.15c-0.69,0.07 -1.39,0.11 -2.08,0.16c-0.32,0 -0.63,0.06 -0.95,0.07c-1,0.06 -2,0.09 -3.07,0.09c-1.07,0 -2,0 -3,-0.08l-0.84,-0.07c-0.72,0 -1.44,-0.09 -2.16,-0.17l-0.94,-0.12c-0.67,-0.08 -1.35,-0.16 -2,-0.26l-0.93,-0.17c-0.67,-0.11 -1.33,-0.23 -2,-0.36l-0.86,-0.2c-0.667,-0.154 -1.333,-0.314 -2,-0.48l-0.77,-0.22c-0.667,-0.187 -1.333,-0.387 -2,-0.6l-0.69,-0.23c-0.7,-0.23 -1.39,-0.47 -2.08,-0.73l-0.58,-0.23c-0.71,-0.28 -1.42,-0.56 -2.13,-0.87l-0.47,-0.21c-0.73,-0.33 -1.45,-0.66 -2.17,-1l-0.37,-0.19c-0.74,-0.38 -1.48,-0.76 -2.2,-1.17l-0.29,-0.16c-0.74,-0.43 -1.48,-0.86 -2.21,-1.32l-0.2,-0.13c-0.75,-0.48 -1.49,-1 -2.21,-1.48l-0.13,-0.09c-0.75,-0.53 -1.48,-1.07 -2.2,-1.63l-0.07,0c-0.74,-0.58 -1.46,-1.17 -2.17,-1.78c-0.72,-0.62 -1.42,-1.26 -2.1,-1.91l-0.44,-0.42l8.49,8.4c10.994,12.745 27.017,20.084 43.849,20.084c31.769,0 57.91,-26.142 57.91,-57.91c0,-16.254 -6.842,-31.779 -18.839,-42.744l-8.35,-8.3c20.043,22.067 19.934,56.191 -0.25,78.13Z" style="fill:#2a1210;fill-rule:nonzero;"/><path d="M17.794,380.93c2.8,-7.6 12.29,-8.45 14.84,-9.63c2.55,-1.18 5.41,-5.8 4.22,-14.37c-2.35,-24.38 4.79,-35.07 9.11,-39c2.265,-2.132 5.432,-3.032 8.48,-2.41c3.048,0.621 11,-6.28 20.65,5.57c8.77,10.8 7.08,24.56 6.72,28.08c-0.36,3.52 -2.21,8.52 -0.42,13.73c0.933,2.948 1.385,6.027 1.34,9.12c-0.045,3.092 14.62,7.19 16.77,11.78c0.467,1.064 0.835,2.168 1.1,3.3c9.844,-10.692 15.313,-24.706 15.313,-39.239c0,-31.78 -26.15,-57.93 -57.93,-57.93c-31.779,0 -57.93,26.15 -57.93,57.93c0,14.883 5.736,29.208 16.007,39.979c0.394,-2.346 0.973,-4.656 1.73,-6.91Z" style="fill:#f37a78;fill-rule:nonzero;"/><path d="M16.664,388.4c0.32,0.34 0.64,0.68 1,1l0.44,0.42c-0.51,-0.46 -0.97,-0.94 -1.44,-1.42Z" style="fill:#f37a78;fill-rule:nonzero;"/><path d="M100.564,387.1c-0.63,0.69 -1.28,1.36 -1.95,2c0.67,-0.64 1.32,-1.31 1.95,-2Z" style="fill:#f37a78;fill-rule:nonzero;"/><path d="M54.994,405.7c1,0 2,0.08 3,0.08c1,0 2.06,0 3.07,-0.09c-1,0.06 -2,0.09 -3.07,0.09c-1.07,0 -2,-0.03 -3,-0.08Z" style="fill:#f37a78;fill-rule:nonzero;"/><path d="M18.094,389.83c0.68,0.65 1.38,1.29 2.1,1.91c0.71,0.61 1.43,1.2 2.17,1.78l0.07,0c0.72,0.56 1.45,1.1 2.2,1.63l0.13,0.09c0.72,0.51 1.46,1 2.21,1.48l0.2,0.13c0.73,0.46 1.47,0.89 2.21,1.32l0.29,0.16c0.72,0.41 1.46,0.79 2.2,1.17l0.37,0.19c0.72,0.36 1.44,0.69 2.17,1l0.47,0.21c0.71,0.31 1.42,0.59 2.13,0.87l0.58,0.23c0.69,0.26 1.38,0.5 2.08,0.73l0.69,0.23c0.667,0.206 1.333,0.406 2,0.6l0.77,0.22c0.667,0.173 1.333,0.333 2,0.48l0.86,0.2c0.66,0.13 1.32,0.25 2,0.36l0.93,0.17c0.66,0.1 1.34,0.18 2,0.26l0.94,0.12c0.72,0.08 1.44,0.12 2.16,0.17l0.84,0.07c1,0 2,0.08 3,0.08c1,0 2.06,0 3.07,-0.09c0.32,0 0.63,-0.05 0.95,-0.07c0.69,0 1.39,-0.09 2.08,-0.16l1.12,-0.15c0.62,-0.07 1.24,-0.15 1.86,-0.25l1.16,-0.2l1.78,-0.34c0.39,-0.08 0.77,-0.18 1.15,-0.27l1.74,-0.42l1.12,-0.32c0.57,-0.16 1.15,-0.33 1.71,-0.51l1.08,-0.37c0.57,-0.19 1.14,-0.39 1.7,-0.61l1,-0.4c0.57,-0.23 1.13,-0.46 1.69,-0.71l1,-0.43l1.7,-0.82l0.89,-0.45c0.57,-0.3 1.14,-0.61 1.7,-0.93l0.82,-0.47l1.7,-1l0.73,-0.47c0.58,-0.38 1.15,-0.78 1.72,-1.18l0.64,-0.45c0.59,-0.43 1.17,-0.88 1.74,-1.33l0.53,-0.41c0.6,-0.49 1.2,-1 1.78,-1.51l0.4,-0.35c0.63,-0.56 1.25,-1.14 1.86,-1.73c0.072,-0.079 0.148,-0.152 0.23,-0.22c0.67,-0.66 1.32,-1.33 1.95,-2c-0.265,-1.132 -0.633,-2.236 -1.1,-3.3c-2.15,-4.59 -16.77,-11.78 -16.77,-11.78c0.045,-3.093 -0.407,-6.172 -1.34,-9.12c-1.79,-5.21 0.05,-10.21 0.42,-13.73c0.37,-3.52 2.05,-17.28 -6.72,-28.08c-9.64,-11.85 -20.65,-5.57 -20.65,-5.57c-3.048,-0.622 -6.215,0.278 -8.48,2.41c-4.32,4 -11.46,14.67 -9.11,39c1.19,8.57 -1.66,13.19 -4.22,14.37c-2.56,1.18 -12,2 -14.84,9.63c-0.755,2.238 -1.333,4.531 -1.73,6.86c0.19,0.21 0.4,0.4 0.6,0.6c0.47,0.48 0.93,1 1.42,1.42l0.15,0.05Z" style="fill:#fff;fill-rule:nonzero;"/><path d="M239.844,429.22l29.09,0c0.34,-0.004 0.678,0.05 1,0.16l58.06,0c1.646,0 3,1.354 3,3c0,1.645 -1.354,3 -3,3l-56,0l0,14.14l115.26,0l0,-89.8l-147.41,0l0,69.5Zm103.94,-53.36l31.78,0c1.646,0 3,1.354 3,3c0,1.645 -1.354,3 -3,3l-31.78,0c-1.646,0 -3,-1.355 -3,-3c0,-1.646 1.354,-3 3,-3Zm-90.06,0l74.27,0c1.646,0 3,1.354 3,3c0,1.645 -1.354,3 -3,3l-74.27,0c-1.646,0 -3,-1.355 -3,-3c0,-1.646 1.354,-3 3,-3Zm0,17.84l47.91,0c1.646,0 3,1.354 3,3c0,1.645 -1.354,3 -3,3l-47.91,0c-1.646,0 -3,-1.355 -3,-3c0,-1.646 1.354,-3 3,-3Zm0,17.84l121.84,0c1.646,0 3,1.354 3,3c0,1.645 -1.354,3 -3,3l-121.84,0c-1.646,0 -3,-1.355 -3,-3c0,-1.646 1.354,-3 3,-3Z" style="fill:#fff;fill-rule:nonzero;"/><path d="M393.254,356.69c0,-1.646 -1.354,-3 -3,-3l-153.41,0c-1.646,0 -3,1.354 -3,3l0,72.53l-34.59,0c-1.646,0 -3,1.354 -3,3l0,69.68c0,1.645 1.354,3 3,3l69.68,0c1.646,0 3,-1.355 3,-3l0,-46.41l118.32,0c1.646,0 3,-1.355 3,-3l0,-95.8Zm-127.32,142.18l-63.68,0l0,-63.65l63.68,0l0,63.65Zm121.32,-49.38l-115.32,0l0,-14.14l56,0c1.646,0 3,-1.355 3,-3c0,-1.646 -1.354,-3 -3,-3l-58.04,0c-0.322,-0.11 -0.66,-0.164 -1,-0.16l-29.05,0l0,-69.5l147.41,0l0,89.8Z" style="fill:#1580f2;fill-rule:nonzero;"/><path d="M343.784,381.83l31.78,0c1.646,0 3,-1.355 3,-3c0,-1.646 -1.354,-3 -3,-3l-31.78,0c-1.646,0 -3,1.354 -3,3c0,1.645 1.354,3 3,3Z" style="fill:#1580f2;fill-rule:nonzero;"/><path d="M253.724,417.51l121.84,0c1.646,0 3,-1.355 3,-3c0,-1.646 -1.354,-3 -3,-3l-121.84,0c-1.646,0 -3,1.354 -3,3c0,1.645 1.354,3 3,3Z" style="fill:#1580f2;fill-rule:nonzero;"/><path d="M253.724,381.83l74.27,0c1.646,0 3,-1.355 3,-3c0,-1.646 -1.354,-3 -3,-3l-74.27,0c-1.646,0 -3,1.354 -3,3c0,1.645 1.354,3 3,3Z" style="fill:#1580f2;fill-rule:nonzero;"/><path d="M253.724,399.67l47.91,0c1.646,0 3,-1.355 3,-3c0,-1.646 -1.354,-3 -3,-3l-47.91,0c-1.646,0 -3,1.354 -3,3c0,1.645 1.354,3 3,3Z" style="fill:#1580f2;fill-rule:nonzero;"/><path d="M202.254,498.87l63.68,0l0,-63.65l-63.68,0l0,63.65Zm16.1,-52.65l31.48,0c1.646,0 3,1.354 3,3c0,1.645 -1.354,3 -3,3l-31.48,0c-1.646,0 -3,-1.355 -3,-3c0,-1.646 1.354,-3 3,-3Zm0,17.84l31.48,0c1.646,0 3,1.354 3,3c0,1.645 -1.354,3 -3,3l-31.48,0c-1.646,0 -3,-1.355 -3,-3c0,-1.646 1.354,-3 3,-3Zm0,17.84l31.48,0c1.646,0 3,1.354 3,3c0,1.645 -1.354,3 -3,3l-31.48,0c-1.646,0 -3,-1.355 -3,-3c0,-1.646 1.354,-3 3,-3Z" style="fill:#fff;fill-rule:nonzero;"/><path d="M218.354,470.03l31.48,0c1.646,0 3,-1.355 3,-3c0,-1.646 -1.354,-3 -3,-3l-31.48,0c-1.646,0 -3,1.354 -3,3c0,1.645 1.354,3 3,3Z" style="fill:#1580f2;fill-rule:nonzero;"/><path d="M218.354,452.22l31.48,0c1.646,0 3,-1.355 3,-3c0,-1.646 -1.354,-3 -3,-3l-31.48,0c-1.646,0 -3,1.354 -3,3c0,1.645 1.354,3 3,3Z" style="fill:#1580f2;fill-rule:nonzero;"/><path d="M218.354,487.87l31.48,0c1.646,0 3,-1.355 3,-3c0,-1.646 -1.354,-3 -3,-3l-31.48,0c-1.646,0 -3,1.354 -3,3c0,1.645 1.354,3 3,3Z" style="fill:#1580f2;fill-rule:nonzero;"/><path d="M154.464,362.79l37.4,0c1.644,-0.003 2.996,-1.356 2.996,-3c0,-0.563 -0.158,-1.114 -0.456,-1.59l-18.7,-29.91c-0.549,-0.873 -1.51,-1.404 -2.54,-1.404c-1.031,0 -1.992,0.531 -2.54,1.404l-18.7,29.93c-0.298,0.476 -0.456,1.027 -0.456,1.59c0,1.644 1.352,2.997 2.996,3l0,-0.02Zm18.7,-27.25l13.28,21.25l-26.57,0l13.29,-21.25Z" style="fill:#1580f2;fill-rule:nonzero;"/><path d="M390.254,494.12c1.646,0 3,-1.355 3,-3c0,-1.646 -1.354,-3 -3,-3l-27.17,0c-1.646,0 -3,1.354 -3,3c0,1.645 1.354,3 3,3l27.17,0Z" style="fill:#1580f2;fill-rule:nonzero;"/><path d="M156.234,459.49c0,-1.646 -1.354,-3 -3,-3l-94.9,0c-1.646,0 -3,1.354 -3,3c0,1.645 1.354,3 3,3l94.9,0c1.646,0 3,-1.355 3,-3Z" style="fill:#1580f2;fill-rule:nonzero;"/><path d="M86.994,435.73c0,1.645 1.354,3 3,3l63.22,0c1.646,0 3,-1.355 3,-3c0,-1.646 -1.354,-3 -3,-3l-63.22,0c-1.646,0 -3,1.354 -3,3Z" style="fill:#1580f2;fill-rule:nonzero;"/><path d="M58.334,480.22c-1.646,0 -3,1.354 -3,3c0,1.645 1.354,3 3,3l55.3,0c1.646,0 3,-1.355 3,-3c0,-1.646 -1.354,-3 -3,-3l-55.3,0Z" style="fill:#1580f2;fill-rule:nonzero;"/><path d="M109.204,623.12l-8.35,-8.29c19.875,21.888 19.962,55.659 0.2,77.65c-0.5,0.56 -1,1.1 -1.52,1.63c-1.556,1.599 -3.202,3.108 -4.93,4.52c-0.74,0.61 -1.5,1.19 -2.26,1.76l-0.43,0.3c-0.64,0.46 -1.28,0.91 -1.94,1.35l-0.64,0.41c-0.6,0.39 -1.2,0.77 -1.81,1.13l-0.79,0.45c-0.57,0.33 -1.15,0.65 -1.73,1l-0.91,0.47c-0.56,0.28 -1.12,0.56 -1.7,0.82c-0.32,0.16 -0.653,0.31 -1,0.45c-0.547,0.253 -1.107,0.493 -1.68,0.72l-1.06,0.42l-1.68,0.61l-1.13,0.38c-0.56,0.18 -1.12,0.35 -1.69,0.51c-0.39,0.12 -0.77,0.23 -1.16,0.33c-0.57,0.16 -1.14,0.29 -1.72,0.43c-0.4,0.09 -0.79,0.19 -1.2,0.27c-0.58,0.13 -1.17,0.23 -1.75,0.34l-1.2,0.21c-0.62,0.1 -1.23,0.18 -1.85,0.26l-1.16,0.14c-0.68,0.07 -1.36,0.12 -2.05,0.17l-1,0.08c-1,0.05 -2,0.08 -3.09,0.08c-1,0 -2.08,0 -3.11,-0.09c-0.33,0 -0.66,0 -1,-0.07c-0.7,0 -1.4,-0.1 -2.09,-0.17c-0.38,0 -0.75,-0.1 -1.12,-0.15c-0.65,-0.08 -1.29,-0.16 -1.92,-0.26c-0.39,-0.06 -0.76,-0.14 -1.14,-0.21c-0.63,-0.11 -1.25,-0.22 -1.86,-0.36l-1.11,-0.25c-0.62,-0.15 -1.24,-0.3 -1.85,-0.47l-1,-0.29c-0.63,-0.19 -1.26,-0.38 -1.88,-0.59l-0.94,-0.32c-0.66,-0.22 -1.31,-0.47 -2,-0.72l-0.8,-0.31c-0.667,-0.294 -1.357,-0.594 -2.07,-0.9l-0.61,-0.27c-0.78,-0.37 -1.54,-0.75 -2.3,-1.14l-0.32,-0.17c-0.72,-0.38 -1.42,-0.78 -2.12,-1.19l-0.54,-0.32l-1.58,-1l-0.55,-0.37c-0.57,-0.37 -1.14,-0.76 -1.69,-1.16l-0.31,-0.21c-0.67,-0.49 -1.32,-1 -2,-1.49c-0.1,-0.08 -0.19,-0.17 -0.3,-0.25c-0.52,-0.42 -1,-0.85 -1.55,-1.29l-0.52,-0.45l-1.36,-1.23l-0.45,-0.43l-0.28,-0.26l8.49,8.39c10.972,12.114 26.576,19.034 42.921,19.034c31.769,0 57.91,-26.141 57.91,-57.91c0,-15.726 -6.406,-30.793 -17.731,-41.704l0.01,-0.02Z" style="fill:#2a1210;fill-rule:nonzero;"/><path d="M57.994,711.69c-1,0 -2.08,0 -3.11,-0.09c1.01,0.06 2.05,0.09 3.11,0.09Z" style="fill:#1580f2;fill-rule:nonzero;"/><path d="M24.074,700.72c-0.67,-0.49 -1.32,-1 -2,-1.49c0.68,0.51 1.33,0.99 2,1.49Z" style="fill:#1580f2;fill-rule:nonzero;"/><path d="M21.804,698.98c-0.52,-0.42 -1,-0.85 -1.55,-1.29c0.51,0.44 1.03,0.87 1.55,1.29Z" style="fill:#1580f2;fill-rule:nonzero;"/><path d="M15.994,693.6l-0.91,-1l0.91,1Z" style="fill:#1580f2;fill-rule:nonzero;"/><path d="M19.734,697.22l-1.36,-1.23l1.36,1.23Z" style="fill:#1580f2;fill-rule:nonzero;"/><path d="M30.864,704.95c-0.71,-0.38 -1.42,-0.78 -2.12,-1.19c0.7,0.46 1.4,0.81 2.12,1.19Z" style="fill:#1580f2;fill-rule:nonzero;"/><path d="M16.994,694.62c0.23,0.23 0.45,0.47 0.69,0.7l0.28,0.26c-0.37,-0.31 -0.69,-0.64 -0.97,-0.96Z" style="fill:#1580f2;fill-rule:nonzero;"/><path d="M26.074,702.09c-0.57,-0.37 -1.14,-0.76 -1.69,-1.16c0.55,0.4 1.12,0.79 1.69,1.16Z" style="fill:#1580f2;fill-rule:nonzero;"/><path d="M16.594,688.87c3.63,-3 19.71,-8.14 23.81,-9.42c0.604,-0.184 1.07,-0.67 1.23,-1.28c0.32,-1.14 0.84,-3.06 1.18,-4.49c0.185,-1.186 1.108,-2.129 2.29,-2.34l-0.05,-4.45c-1.086,-2.621 -1.916,-5.34 -2.48,-8.12c-0.877,0.465 -1.964,0.298 -2.66,-0.41c-0.66,-0.83 0.1,-1.56 -1.27,-4.09c-3,-7.16 0.3,-8.46 0.3,-8.46c-0.6,-3.422 -0.811,-6.901 -0.63,-10.37c0.11,-3.62 4.31,-9.76 7.69,-12.61c3.74,-3.15 8.81,-2.94 11.52,-2.93c4.12,0 11.24,1.59 14.61,7.83c3.37,6.24 3.14,13.35 2.55,17.22c0,0 2.89,-0.12 2.08,4.16c-0.81,4.28 -1.58,3.66 -1.74,5c-0.16,1.34 -0.82,4.42 -3.42,4.41c-0.12,2.336 -0.523,4.65 -1.2,6.89l0,5.46c0,0 2.1,0.42 2.64,1.93c0.54,1.51 1.19,5.47 2.33,6.49c1.14,1.02 17.31,6.08 22,8c1.11,0.44 2.38,2.36 3.68,5.2c9.576,-10.637 14.879,-24.454 14.879,-38.766c0,-31.785 -26.155,-57.94 -57.94,-57.94c-31.785,0 -57.94,26.155 -57.94,57.94c0,14.054 5.113,27.64 14.381,38.206c0.532,-1.141 1.264,-2.177 2.16,-3.06Z" style="fill:#1580f2;fill-rule:nonzero;"/><path d="M28.204,703.44l-1.58,-1l1.58,1Z" style="fill:#1580f2;fill-rule:nonzero;"/><path d="M99.534,694.11c-1.556,1.599 -3.202,3.108 -4.93,4.52c1.728,-1.412 3.374,-2.921 4.93,-4.52Z" style="fill:#1580f2;fill-rule:nonzero;"/><path d="M18.374,696.01l1.36,1.23l0.52,0.45c0.51,0.44 1,0.87 1.55,1.29c0.11,0.08 0.2,0.17 0.3,0.25c0.65,0.51 1.3,1 2,1.49l0.31,0.21c0.55,0.4 1.12,0.79 1.69,1.16l0.55,0.37l1.58,1l0.54,0.32c0.7,0.41 1.41,0.81 2.12,1.19l0.32,0.17c0.76,0.39 1.52,0.77 2.3,1.14l0.61,0.27c0.667,0.313 1.357,0.613 2.07,0.9l0.8,0.31c0.65,0.25 1.3,0.5 2,0.72l0.94,0.32c0.62,0.21 1.25,0.4 1.88,0.59l1,0.29c0.61,0.17 1.23,0.32 1.85,0.47l1.11,0.25c0.61,0.14 1.23,0.25 1.86,0.36c0.38,0.07 0.75,0.15 1.14,0.21c0.63,0.1 1.27,0.18 1.92,0.26c0.37,0 0.74,0.11 1.12,0.15c0.69,0.07 1.39,0.12 2.09,0.17c0.33,0 0.66,0.06 1,0.07c1,0.06 2.07,0.09 3.11,0.09c1,0 2.07,0 3.09,-0.08l1,-0.08c0.69,0 1.37,-0.1 2.05,-0.17l1.16,-0.14c0.62,-0.08 1.23,-0.16 1.85,-0.26l1.2,-0.21c0.58,-0.11 1.17,-0.21 1.75,-0.34c0.41,-0.08 0.8,-0.18 1.2,-0.27c0.58,-0.14 1.15,-0.27 1.72,-0.43c0.39,-0.1 0.77,-0.21 1.16,-0.33c0.57,-0.16 1.13,-0.33 1.69,-0.51l1.13,-0.38l1.68,-0.61l1.06,-0.42c0.573,-0.234 1.133,-0.474 1.68,-0.72c0.34,-0.14 0.673,-0.29 1,-0.45c0.58,-0.26 1.14,-0.54 1.7,-0.82l0.91,-0.47c0.58,-0.31 1.16,-0.63 1.73,-1l0.79,-0.45c0.61,-0.36 1.21,-0.74 1.81,-1.13l0.64,-0.41c0.66,-0.44 1.3,-0.89 1.94,-1.35l0.43,-0.3c0.76,-0.57 1.52,-1.15 2.26,-1.76c1.728,-1.412 3.374,-2.921 4.93,-4.52c0.51,-0.53 1,-1.07 1.52,-1.63c-1.3,-2.84 -2.57,-4.76 -3.68,-5.2c-4.69,-1.88 -20.86,-6.93 -22,-8c-1.14,-1.07 -1.78,-5 -2.33,-6.49c-0.55,-1.49 -2.64,-1.93 -2.64,-1.93l0,-5.46c0.677,-2.24 1.08,-4.554 1.2,-6.89c2.6,0 3.25,-3 3.42,-4.41c0.17,-1.41 0.93,-0.75 1.74,-5c0.81,-4.25 -2.08,-4.16 -2.08,-4.16c0.59,-3.87 0.82,-11 -2.55,-17.22c-3.37,-6.22 -10.49,-7.82 -14.61,-7.83c-2.71,0 -7.78,-0.22 -11.52,2.93c-3.38,2.85 -7.58,9 -7.69,12.61c-0.181,3.469 0.03,6.948 0.63,10.37c0.6,3.422 -3.32,1.3 -0.3,8.46c1.37,2.53 0.61,3.26 1.27,4.09c0.696,0.708 1.783,0.875 2.66,0.41c0.564,2.78 1.394,5.499 2.48,8.12l0.05,4.45c-1.182,0.211 -2.105,1.154 -2.29,2.34c-0.34,1.43 -0.86,3.35 -1.18,4.49c-0.16,0.61 -0.626,1.096 -1.23,1.28c-4.1,1.28 -20.18,6.41 -23.81,9.42c-0.895,0.88 -1.627,1.913 -2.16,3.05c0.2,0.22 0.41,0.44 0.61,0.67l0.91,1l1,1c0.32,0.32 0.64,0.65 1,1l0.38,0.44Z" style="fill:#fff;fill-rule:nonzero;"/><path d="M411.194,716.64l-12.84,0l0,25.68c0,1.645 -1.354,3 -3,3l-84,0l0,20.76c0,1.645 1.354,3 3,3l96.84,0c1.646,0 3,-1.355 3,-3l0,-46.44c0,-1.646 -1.354,-3 -3,-3Z" style="fill:#9eb1db;fill-rule:nonzero;"/><path d="M392.354,698.88l-90.85,0l0,40.44l90.85,0l0,-40.44Zm-35.43,13.71c1.163,-1.162 3.076,-1.162 4.24,0l4,4l10.14,-10.14c0.563,-0.565 1.328,-0.882 2.125,-0.882c1.647,0 3.002,1.355 3.002,3.002c0,0.794 -0.316,1.557 -0.877,2.12l-12.26,12.28c-0.319,0.318 -0.705,0.561 -1.13,0.71c-0.134,0.047 -0.271,0.084 -0.41,0.11c-0.191,0.039 -0.385,0.059 -0.58,0.06c-0.795,-0.001 -1.558,-0.318 -2.12,-0.88l-6.13,-6.14c-1.162,-1.164 -1.162,-3.077 0,-4.24Zm-40.11,-1.89c-0.609,-0.568 -0.955,-1.363 -0.955,-2.195c0,-1.646 1.354,-3 3,-3c0.832,0 1.628,0.346 2.195,0.955l4,4l4,-4c0.555,-0.518 1.286,-0.806 2.045,-0.806c1.646,0 3,1.355 3,3c0,0.759 -0.288,1.491 -0.805,2.046l-4,4l4,4c0.609,0.567 0.955,1.362 0.955,2.194c0,1.646 -1.355,3 -3,3c-0.832,0 -1.628,-0.346 -2.195,-0.954l-4,-4l-4,4c-0.562,0.562 -1.325,0.879 -2.12,0.88c-1.645,-0.002 -2.998,-1.356 -2.998,-3c0,-0.795 0.316,-1.558 0.878,-2.12l4,-4l-4,-4Zm20.73,21.91l-24.24,0c-1.646,0 -3,-1.355 -3,-3c0,-1.646 1.354,-3 3,-3l24.24,0c1.646,0 3,1.354 3,3c0,1.645 -1.354,3 -3,3Zm43,0l-24.23,0c-1.646,0 -3,-1.355 -3,-3c0,-1.646 1.354,-3 3,-3l24.24,0c1.646,0 3,1.354 3,3c0,1.645 -1.354,3 -3,3l-0.01,0Z" style="fill:#fff;fill-rule:nonzero;"/><path d="M395.354,745.32c1.646,0 3,-1.355 3,-3l0,-46.44c0,-1.646 -1.354,-3 -3,-3l-96.85,0c-1.646,0 -3,1.354 -3,3l0,46.44c0,1.645 1.354,3 3,3l96.85,0Zm-93.85,-6l0,-40.44l90.85,0l0,40.44l-90.85,0Z" style="fill:#1580f2;fill-rule:nonzero;"/><path d="M316.814,722.97c0.562,0.562 1.325,0.879 2.12,0.88c0.795,-0.001 1.558,-0.318 2.12,-0.88l4,-4l4,4c0.555,0.517 1.286,0.805 2.045,0.805c1.646,0 3,-1.354 3,-3c0,-0.759 -0.288,-1.49 -0.805,-2.045l-4,-4l4,-4c0.517,-0.555 0.805,-1.287 0.805,-2.046c0,-1.645 -1.354,-3 -3,-3c-0.759,0 -1.49,0.288 -2.045,0.806l-4,4l-4,-4c-0.567,-0.609 -1.363,-0.955 -2.195,-0.955c-1.646,0 -3,1.354 -3,3c0,0.832 0.346,1.627 0.955,2.195l4,4l-4,4c-1.162,1.163 -1.162,3.076 0,4.24Z" style="fill:#1580f2;fill-rule:nonzero;"/><path d="M363.054,722.97c0.562,0.562 1.325,0.879 2.12,0.88c0.195,-0.001 0.389,-0.021 0.58,-0.06c0.139,-0.026 0.276,-0.063 0.41,-0.11c0.425,-0.149 0.811,-0.392 1.13,-0.71l12.27,-12.27c0.561,-0.563 0.877,-1.326 0.877,-2.12c0,-1.647 -1.355,-3.002 -3.002,-3.002c-0.797,0 -1.562,0.317 -2.125,0.882l-10.14,10.14l-4,-4c-0.555,-0.518 -1.287,-0.806 -2.045,-0.806c-1.646,0 -3,1.355 -3,3c0,0.759 0.288,1.491 0.805,2.046l6.12,6.13Z" style="fill:#1580f2;fill-rule:nonzero;"/><path d="M337.544,726.61l-24.24,0c-1.646,0 -3,1.354 -3,3c0,1.645 1.354,3 3,3l24.24,0c1.646,0 3,-1.355 3,-3c0,-1.646 -1.354,-3 -3,-3Z" style="fill:#1580f2;fill-rule:nonzero;"/><path d="M380.554,726.61l-24.24,0c-1.646,0 -3,1.354 -3,3c0,1.645 1.354,3 3,3l24.24,0c1.646,0 3,-1.355 3,-3c0,-1.646 -1.354,-3 -3,-3Z" style="fill:#1580f2;fill-rule:nonzero;"/><path d="M145.274,775.9c4.005,0 7.3,-3.296 7.3,-7.3c0,-4.005 -3.295,-7.3 -7.3,-7.3c-4.005,0 -7.3,3.295 -7.3,7.3c0,4.004 3.295,7.3 7.3,7.3Z" style="fill:#fff;fill-rule:nonzero;"/><path d="M126.754,786.87l37,0l0,-37l-37,0l0,37Zm18.52,-31.57c7.296,0 13.3,6.003 13.3,13.3c0,7.296 -6.004,13.3 -13.3,13.3c-7.296,0 -13.3,-6.004 -13.3,-13.3c0.005,-7.294 6.006,-13.295 13.3,-13.3Z" style="fill:#fff;fill-rule:nonzero;"/><path d="M166.794,743.83l-43,0c-1.646,0 -3,1.354 -3,3l0,43c0,1.645 1.354,3 3,3l43,0c1.646,0 3,-1.355 3,-3l0,-43c0,-1.646 -1.354,-3 -3,-3Zm-3,43l-37,0l0,-37l37,0l0,37Z" style="fill:#1580f2;fill-rule:nonzero;"/><path d="M145.274,781.9c7.296,0 13.3,-6.004 13.3,-13.3c0,-7.297 -6.004,-13.3 -13.3,-13.3c-7.296,0 -13.3,6.003 -13.3,13.3c0.005,7.294 6.006,13.294 13.3,13.3Zm0,-20.6c4.005,0 7.3,3.295 7.3,7.3c0,4.004 -3.295,7.3 -7.3,7.3c-4.005,0 -7.3,-3.296 -7.3,-7.3c0,-4.005 3.295,-7.3 7.3,-7.3Z" style="fill:#1580f2;fill-rule:nonzero;"/><path d="M190.904,787.47l87.39,0l0,-120.25l-87.39,0l0,120.25Zm74.68,-14.87l-61.67,0c-1.646,0 -3,-1.355 -3,-3c0,-1.646 1.354,-3 3,-3l61.67,0c1.646,0 3,1.354 3,3c0,1.645 -1.354,3 -3,3Zm-64.67,-21.83c0,-1.646 1.354,-3 3,-3l34.65,0c1.646,0 3,1.354 3,3c0,1.645 -1.354,3 -3,3l-34.65,0c-1.646,0 -3,-1.355 -3,-3Zm64.67,3l-11.18,0c-1.646,0 -3,-1.355 -3,-3c0,-1.646 1.354,-3 3,-3l11.18,0c1.646,0 3,1.354 3,3c0,1.645 -1.354,3 -3,3Zm3,-50.87c0,1.645 -1.354,3 -3,3l-61.67,0c-1.646,0 -3,-1.355 -3,-3c0,-1.646 1.354,-3 3,-3l61.67,0c1.646,0 3,1.354 3,3Zm-65.69,-21.84l34,0c1.646,0 3,1.354 3,3c0,1.645 -1.354,3 -3,3l-34,0c-1.646,0 -3,-1.355 -3,-3c0,-1.646 1.354,-3 3,-3Zm-3.68,40.27c0,-1.646 1.354,-3 3,-3l64.78,0c1.646,0 3,1.354 3,3l0,11c0,1.645 -1.354,3 -3,3l-64.78,0c-1.646,0 -3,-1.355 -3,-3l0,-11Z" style="fill:#fff;fill-rule:nonzero;"/><path d="M281.294,661.22l-93.39,0c-1.646,0 -3,1.354 -3,3l0,126.25c0,1.645 1.354,3 3,3l93.39,0c1.646,0 3,-1.355 3,-3l0,-126.25c0,-1.646 -1.354,-3 -3,-3Zm-3,126.29l-87.39,0l0,-120.29l87.39,0l0,120.29Z" style="fill:#1580f2;fill-rule:nonzero;"/><path d="M269.974,721.33c0,-1.656 -1.344,-3 -3,-3l-64.76,0c-1.656,0 -3,1.344 -3,3l0,11.01c0,1.655 1.344,3 3,3l64.76,0c1.656,0 3,-1.345 3,-3l0,-11.01Z" style="fill:#1580f2;"/><path d="M202.894,687.06l34,0c1.646,0 3,-1.355 3,-3c0,-1.646 -1.354,-3 -3,-3l-34,0c-1.646,0 -3,1.354 -3,3c0,1.645 1.354,3 3,3Z" style="fill:#1580f2;fill-rule:nonzero;"/><path d="M200.914,702.9c0,1.645 1.354,3 3,3l61.67,0c1.646,0 3,-1.355 3,-3c0,-1.646 -1.354,-3 -3,-3l-61.67,0c-1.646,0 -3,1.354 -3,3Z" style="fill:#1580f2;fill-rule:nonzero;"/><path d="M265.584,747.77l-11.18,0c-1.646,0 -3,1.354 -3,3c0,1.645 1.354,3 3,3l11.18,0c1.646,0 3,-1.355 3,-3c0,-1.646 -1.354,-3 -3,-3Z" style="fill:#1580f2;fill-rule:nonzero;"/><path d="M203.914,753.77l34.65,0c1.646,0 3,-1.355 3,-3c0,-1.646 -1.354,-3 -3,-3l-34.65,0c-1.646,0 -3,1.354 -3,3c0,1.645 1.354,3 3,3Z" style="fill:#1580f2;fill-rule:nonzero;"/><path d="M265.584,766.6l-61.67,0c-1.646,0 -3,1.354 -3,3c0,1.645 1.354,3 3,3l61.67,0c1.646,0 3,-1.355 3,-3c0,-1.646 -1.354,-3 -3,-3Z" style="fill:#1580f2;fill-rule:nonzero;"/><path d="M325.424,668.13l33.57,0c1.646,0 3,-1.355 3,-3l0,-33.59c0,-1.646 -1.354,-3 -3,-3l-33.6,0c-1.646,0 -3,1.354 -3,3l0,33.59c0,1.646 1.354,3 3,3c0.01,0 0.02,0 0.03,0Zm3,-33.59l27.57,0l0,27.59l-27.6,0l0.03,-27.59Z" style="fill:#1580f2;fill-rule:nonzero;"/><path d="M143.104,609.38c0,1.645 1.354,3 3,3l56.43,0c1.646,0 3,-1.355 3,-3c0,-1.646 -1.354,-3 -3,-3l-56.43,0c-1.646,0 -3,1.354 -3,3Z" style="fill:#1580f2;fill-rule:nonzero;"/><path d="M146.104,636.14l84,0c1.646,0 3,-1.355 3,-3c0,-1.646 -1.354,-3 -3,-3l-84,0c-1.646,0 -3,1.354 -3,3c0,1.645 1.354,3 3,3Z" style="fill:#1580f2;fill-rule:nonzero;"/><path d="M1194.49,511.59l0,-199l-24,0l0,226l161.44,0l0,-24l-134.44,0c-1.646,0 -3,-1.355 -3,-3Z" style="fill:#fff;fill-rule:nonzero;"/><path d="M1224.49,481.59l0,-199l-24,0l0,226l161.44,0l0,-24l-134.44,0c-1.646,0 -3,-1.355 -3,-3Z" style="fill:#fff;fill-rule:nonzero;"/><path d="M1230.49,478.59l161.44,0l0,-226l-161.44,0l0,226Zm51.69,-191l52.09,0c1.646,0 3,1.354 3,3c0,1.645 -1.354,3 -3,3l-52.09,0c-1.646,0 -3,-1.355 -3,-3c0,-1.646 1.354,-3 3,-3Zm-28.76,30l115.57,0c1.646,0 3,1.354 3,3c0,1.645 -1.354,3 -3,3l-115.57,0c-1.646,0 -3,-1.355 -3,-3c0,-1.646 1.354,-3 3,-3Zm116.57,73.63l-33.13,0l16.57,-33.15l16.56,33.15Zm-42.84,-16.58c0,0.003 0,0.006 0,0.01c0,9.09 -7.48,16.57 -16.57,16.57c-9.09,0 -16.57,-7.48 -16.57,-16.57c0,-9.09 7.48,-16.57 16.57,-16.57c9.082,-0.022 16.577,7.427 16.61,16.51l-0.04,0.05Zm-42.85,-16.56l0,33.13l-33.13,0l0,-33.18l33.13,0.05Zm-30.92,49.56l115.61,0c1.646,0 3,1.354 3,3c0,1.645 -1.354,3 -3,3l-115.57,0c-1.646,0 -3,-1.355 -3,-3c0,-1.646 1.354,-3 3,-3l-0.04,0Zm0,30l54.81,0c1.646,0 3,1.354 3,3c0,1.645 -1.354,3 -3,3l-54.81,0c-1.646,0 -3,-1.355 -3,-3c0,-1.646 1.354,-3 3,-3Z" style="fill:#fff;fill-rule:nonzero;"/><path d="M1394.93,246.6l-167.44,0c-1.646,0 -3,1.354 -3,3l0,27l-27,0c-1.646,0 -3,1.354 -3,3l0,27l-27,0c-1.646,0 -3,1.354 -3,3l0,232c0,1.645 1.354,3 3,3l167.44,0c1.646,0 3,-1.355 3,-3l0,-27l27,0c1.646,0 3,-1.355 3,-3l0,-27l27,0c1.646,0 3,-1.355 3,-3l0,-232c0,-1.646 -1.354,-3 -3,-3Zm-63,292l-161.44,0l0,-226l24,0l0,199c0,1.645 1.354,3 3,3l134.44,0l0,24Zm30,-30l-161.44,0l0,-226l24,0l0,199c0,1.645 1.354,3 3,3l134.44,0l0,24Zm30,-30l-161.44,0l0,-226l161.44,0l0,226Z" style="fill:#1580f2;fill-rule:nonzero;"/><path d="M1282.18,293.59l52.09,0c1.646,0 3,-1.355 3,-3c0,-1.646 -1.354,-3 -3,-3l-52.09,0c-1.646,0 -3,1.354 -3,3c0,1.645 1.354,3 3,3Z" style="fill:#1580f2;fill-rule:nonzero;"/><path d="M1253.42,323.59l115.57,0c1.646,0 3,-1.355 3,-3c0,-1.646 -1.354,-3 -3,-3l-115.57,0c-1.646,0 -3,1.354 -3,3c0,1.645 1.354,3 3,3Z" style="fill:#1580f2;fill-rule:nonzero;"/><path d="M1253.42,413.59l115.57,0c1.646,0 3,-1.355 3,-3c0,-1.646 -1.354,-3 -3,-3l-115.57,0c-1.646,0 -3,1.354 -3,3c0,1.645 1.354,3 3,3Z" style="fill:#1580f2;fill-rule:nonzero;"/><path d="M1253.42,443.59l54.81,0c1.646,0 3,-1.355 3,-3c0,-1.646 -1.354,-3 -3,-3l-54.81,0c-1.646,0 -3,1.354 -3,3c0,1.645 1.354,3 3,3Z" style="fill:#1580f2;fill-rule:nonzero;"/><path d="M812.124,370l-23.28,0c-28.966,-0.017 -56.19,-14.099 -72.94,-37.73l-127,-179.41c-17.877,-25.218 -46.928,-40.248 -77.84,-40.27l-27.24,0c-1.646,0 -3,1.354 -3,3c0,1.645 1.354,3 3,3l27.22,0c28.968,0.018 56.194,14.1 72.95,37.73l127,179.42c17.881,25.211 46.931,40.236 77.84,40.26l23.28,0c1.646,0 3,-1.355 3,-3c0,-1.646 -1.354,-3 -3,-3l0.01,0Z" style="fill:#1580f2;fill-rule:nonzero;"/><path d="M811.874,429.22l-26.57,0c-31.281,0 -60.64,15.387 -78.44,41.11l-123,177.77c-16.68,24.102 -44.189,38.523 -73.5,38.53l-26.54,0c-1.646,0 -3,1.354 -3,3c0,1.645 1.354,3 3,3l26.58,0c31.283,-0.003 60.642,-15.394 78.44,-41.12l122.95,-177.79c16.685,-24.098 44.199,-38.509 73.51,-38.5l26.57,0c1.646,0 3,-1.355 3,-3c0,-1.646 -1.354,-3 -3,-3Z" style="fill:#1580f2;fill-rule:nonzero;"/><path d="M811.874,401.59l-331.29,0c-1.646,0 -3,1.354 -3,3c0,1.645 1.354,3 3,3l331.29,0c1.646,0 3,-1.355 3,-3c0,-1.646 -1.354,-3 -3,-3Z" style="fill:#1580f2;fill-rule:nonzero;"/><path d="M1127.49,401.59l-122.5,0c-1.646,0 -3,1.354 -3,3c0,1.645 1.354,3 3,3l122.5,0c1.646,0 3,-1.355 3,-3c0,-1.646 -1.354,-3 -3,-3Z" style="fill:#1580f2;fill-rule:nonzero;"/><path d="M944.214,361.29c20.016,22.041 19.937,56.11 -0.18,78.06c-0.64,0.7 -1.3,1.39 -2,2.06l-0.32,0.3c-0.58,0.57 -1.17,1.12 -1.77,1.66l-0.5,0.43c-0.55,0.49 -1.11,1 -1.68,1.43l-0.64,0.5c-0.54,0.42 -1.08,0.84 -1.63,1.25l-0.75,0.52c-0.53,0.38 -1.06,0.75 -1.61,1.11l-0.83,0.53c-0.53,0.34 -1.06,0.67 -1.61,1l-0.91,0.53c-0.53,0.3 -1.06,0.59 -1.6,0.87l-1,0.5c-0.53,0.27 -1.07,0.53 -1.61,0.78l-1,0.47l-1.63,0.68l-1.09,0.43l-1.64,0.59l-1.14,0.38c-0.55,0.18 -1.1,0.34 -1.65,0.5l-1.18,0.34l-1.69,0.41l-1.2,0.28c-0.58,0.12 -1.16,0.22 -1.74,0.32l-1.2,0.22c-0.6,0.09 -1.21,0.17 -1.82,0.24c-0.39,0 -0.77,0.11 -1.16,0.15c-0.67,0.07 -1.35,0.12 -2,0.16l-1,0.08c-1,0 -2,0.08 -3,0.08l-0.08,0c-1,0 -2,0 -3,-0.08l-1,-0.08c-0.68,0 -1.36,-0.09 -2,-0.16l-1.14,-0.14c-0.62,-0.08 -1.24,-0.15 -1.85,-0.25l-1.18,-0.21c-0.58,-0.11 -1.17,-0.21 -1.75,-0.33l-1.18,-0.27l-1.71,-0.42l-1.14,-0.33c-0.57,-0.16 -1.14,-0.32 -1.7,-0.5l-1.09,-0.38c-0.57,-0.19 -1.13,-0.39 -1.69,-0.6l-1,-0.41l-1.68,-0.7l-1,-0.44c-0.56,-0.26 -1.12,-0.53 -1.67,-0.81c-0.31,-0.15 -0.61,-0.31 -0.91,-0.47c-0.57,-0.29 -1.13,-0.6 -1.68,-0.91l-0.99,-0.44c-0.56,-0.33 -1.13,-0.68 -1.68,-1l-0.75,-0.48c-0.58,-0.38 -1.14,-0.77 -1.7,-1.17l-0.66,-0.46c-0.58,-0.43 -1.15,-0.87 -1.72,-1.32l-0.55,-0.43c-0.6,-0.48 -1.18,-1 -1.76,-1.49l-0.42,-0.36c-0.6,-0.54 -1.19,-1.1 -1.78,-1.66l8.48,8.4c10.972,12.114 26.576,19.034 42.921,19.034c31.769,0 57.91,-26.141 57.91,-57.91c0,-15.726 -6.406,-30.793 -17.731,-41.704l-8.34,-8.38Z" style="fill:#2a1210;fill-rule:nonzero;"/><path d="M860.934,441.72l0.06,0.06c0.59,0.56 1.18,1.12 1.78,1.66c-0.62,-0.56 -1.24,-1.13 -1.84,-1.72Z" style="fill:#9eb1db;fill-rule:nonzero;"/><path d="M864.744,431.33c3.27,-2 17.09,-5.61 21.45,-6.87c0.763,-0.21 1.424,-0.69 1.86,-1.35c2.6,-4 1.56,-6.55 1.56,-6.55l-2.65,-0.5c-1.118,-0.203 -1.939,-1.186 -1.939,-2.322c0,-0.161 0.016,-0.321 0.049,-0.478c0.584,-2.077 0.446,-4.292 -0.39,-6.28c-1.16,-2.65 -6,-7.8 -6.6,-13.1c-1,-12.14 3.41,-18.93 8.41,-23c5.52,-4.49 12.3,-2.88 12.3,-2.88c0,0 9,-3.64 15.85,0.25c7.63,4.34 13.64,13.29 11.3,31.11c-2.34,17.82 -13.28,18.59 -14.49,18.83c0,0 0.08,5.16 1.6,6.13c3,1.93 20,4.84 22.38,5.76c3.26,1.24 6.33,3.83 8.6,9.27c9.785,-10.679 15.218,-24.648 15.218,-39.132c0,-31.774 -26.146,-57.92 -57.92,-57.92c-31.774,0 -57.92,26.146 -57.92,57.92c0,14.517 5.457,28.515 15.282,39.202c1.89,-4.69 4.16,-6.94 6.05,-8.09Z" style="fill:#9eb1db;fill-rule:nonzero;"/><path d="M863.194,443.8c0.58,0.51 1.16,1 1.76,1.49l0.55,0.43c0.57,0.45 1.14,0.89 1.72,1.32l0.66,0.46c0.56,0.4 1.12,0.79 1.7,1.17l0.75,0.48c0.55,0.35 1.12,0.7 1.68,1l0.84,0.48c0.55,0.31 1.11,0.62 1.68,0.91c0.3,0.16 0.6,0.32 0.91,0.47c0.55,0.28 1.11,0.55 1.67,0.81l1,0.44l1.68,0.7l1,0.41c0.56,0.21 1.12,0.41 1.69,0.6l1.09,0.38c0.56,0.18 1.13,0.34 1.7,0.5l1.14,0.33l1.71,0.42l1.18,0.27c0.58,0.12 1.17,0.22 1.75,0.33l1.18,0.21c0.61,0.1 1.23,0.17 1.85,0.25l1.14,0.14c0.67,0.07 1.35,0.12 2,0.16l1,0.08c1,0 2,0.08 3,0.08l0.08,0c1,0 2,0 3,-0.08l1,-0.08c0.68,0 1.36,-0.09 2,-0.16c0.39,0 0.77,-0.1 1.16,-0.15c0.61,-0.07 1.22,-0.15 1.82,-0.24l1.2,-0.22c0.58,-0.1 1.16,-0.2 1.74,-0.32l1.2,-0.28l1.69,-0.41l1.18,-0.34c0.55,-0.16 1.1,-0.32 1.65,-0.5l1.14,-0.38l1.64,-0.59l1.09,-0.43l1.63,-0.68l1,-0.47c0.54,-0.25 1.08,-0.51 1.61,-0.78l1,-0.5c0.54,-0.28 1.07,-0.57 1.6,-0.87l0.91,-0.53c0.55,-0.32 1.08,-0.65 1.61,-1l0.83,-0.53c0.55,-0.36 1.08,-0.73 1.61,-1.11l0.75,-0.52c0.55,-0.41 1.09,-0.83 1.63,-1.25l0.64,-0.5c0.57,-0.47 1.13,-0.94 1.68,-1.43l0.5,-0.43c0.6,-0.54 1.19,-1.09 1.77,-1.66l0.32,-0.3c0.67,-0.67 1.33,-1.36 2,-2.06c-2.27,-5.44 -5.34,-8 -8.6,-9.27c-2.41,-0.92 -19.34,-3.83 -22.38,-5.76c-1.52,-1 -1.6,-6.13 -1.6,-6.13c1.21,-0.24 12.16,-1 14.49,-18.83c2.33,-17.83 -3.67,-26.77 -11.3,-31.11c-6.85,-3.89 -15.85,-0.25 -15.85,-0.25c0,0 -6.78,-1.61 -12.3,2.88c-5,4.07 -9.45,10.86 -8.41,23c0.64,5.3 5.44,10.45 6.6,13.1c0.836,1.988 0.974,4.203 0.39,6.28c-0.033,0.157 -0.049,0.317 -0.049,0.478c0,1.136 0.821,2.119 1.939,2.322l2.65,0.5c0,0 1,2.58 -1.56,6.55c-0.436,0.66 -1.097,1.14 -1.86,1.35c-4.36,1.26 -18.18,4.87 -21.45,6.87c-1.89,1.15 -4.16,3.4 -6,8.09c0.65,0.7 1.31,1.38 2,2l0.25,0.24c0.6,0.59 1.22,1.16 1.84,1.72l0.49,0.45Z" style="fill:#fff;fill-rule:nonzero;"/><rect x="1251.21" y="358.03" width="33.13" height="33.13" style="fill:#1580f2;"/><circle cx="1310.62" cy="374.59" r="16.57" style="fill:#453b69;"/><path d="M1336.9,391.17l33.13,0l-16.57,-33.15l-16.56,33.15Z" style="fill:#f37a78;fill-rule:nonzero;"/></svg>