<svg viewBox="0 0 1397 812" xmlns="http://www.w3.org/2000/svg" fill-rule="evenodd" clip-rule="evenodd" stroke-linejoin="round" stroke-miterlimit="1.41421"><ellipse cx="1237.37" cy="80.18" rx="8.79" ry="11.11" fill="none"/><path d="M1326.93 69.44a9.841 9.841 0 0 0-9.34 6.81h18.69a9.85 9.85 0 0 0-9.35-6.81zm0 76.86a8.822 8.822 0 0 0-7.85 4.81h15.7a8.822 8.822 0 0 0-7.85-4.81z" fill="none"/><ellipse cx="1237.37" cy="156.01" rx="7.79" ry="10.11" fill="none"/><path d="M1209.69 71.58c-.016-10.801-8.899-19.684-19.7-19.7h-5v39.41h5c10.805-.016 19.689-8.905 19.7-19.71zm-165.83 94.54c4.3 0 7.79-4.54 7.79-10.11 0-5.57-3.49-10.11-7.79-10.11s-7.79 4.54-7.79 10.11c0 5.57 3.5 10.11 7.79 10.11zM611.17 492.51H1391V332.68H611.17v159.83zm672.63-96.07h43.13c1.646 0 3 1.354 3 3s-1.354 3-3 3h-43.12c-1.646 0-3-1.354-3-3s1.354-3 3-3h-.01zm0 19.8h43.13c1.646 0 3 1.354 3 3s-1.354 3-3 3h-43.12c-1.646 0-3-1.354-3-3s1.354-3 3-3h-.01zm0 19.71h43.13c1.646 0 3 1.354 3 3s-1.354 3-3 3h-43.12c-1.646 0-3-1.354-3-3s1.354-3 3-3h-.01zm-118 10.47l21.44-21.44a22.416 22.416 0 0 1-4.991-14.099c0-12.294 10.117-22.41 22.41-22.41 12.294 0 22.41 10.116 22.41 22.41s-10.116 22.41-22.41 22.41c-4.68 0-9.244-1.466-13.049-4.191l-21.57 21.57a3 3 0 0 1-2.12.88h-.007c-1.646 0-3-1.354-3-3 0-.8.319-1.567.887-2.13zm-110.58-55.98c0-1.646 1.354-3 3-3h57c1.646 0 3 1.354 3 3v57c0 1.646-1.354 3-3 3h-57c-1.646 0-3-1.354-3-3v-57zm-73.29-29.35c0-1.646 1.354-3 3-3s3 1.354 3 3v103c0 1.646-1.354 3-3 3s-3-1.354-3-3v-103zm-133 27.41h38.16c16.847 0 30.71 13.863 30.71 30.71s-13.863 30.71-30.71 30.71h-38.26c-16.847 0-30.71-13.863-30.71-30.71s13.863-30.71 30.71-30.71h.1zm-145.87 0h42.07c16.847 0 30.71 13.863 30.71 30.71s-13.863 30.71-30.71 30.71h-42.2c-16.847 0-30.71-13.863-30.71-30.71s13.863-30.71 30.71-30.71h.13zm505.63-241.06c-.011-10.254-8.446-18.689-18.7-18.7h-4v37.41h4c10.258-.011 18.695-8.452 18.7-18.71z" fill="none"/><path d="M678.36 419.21v.01c0 13.561 11.159 24.72 24.72 24.72 13.561 0 24.72-11.159 24.72-24.72 0-13.561-11.159-24.72-24.72-24.72h-.01c-13.549.016-24.694 11.161-24.71 24.71zm332.92-359.52c0-4.281-3.519-7.805-7.8-7.81h-6.92v15.61h7.19c4.172-.155 7.522-3.625 7.53-7.8zM611.17 803.84H1391V575.58H611.17v228.26zm673.69-159.54c24.911 0 45.41 20.499 45.41 45.41 0 24.911-20.499 45.41-45.41 45.41-24.911 0-45.41-20.499-45.41-45.41 0-24.911 20.499-45.41 45.41-45.41zm-141.89 0c24.911 0 45.41 20.499 45.41 45.41 0 24.911-20.499 45.41-45.41 45.41-24.911 0-45.41-20.499-45.41-45.41 0-24.896 20.474-45.388 45.37-45.41h.04zm-141.89 0c24.911 0 45.41 20.499 45.41 45.41 0 24.911-20.499 45.41-45.41 45.41-24.911 0-45.41-20.499-45.41-45.41 0-24.911 20.499-45.41 45.41-45.41zm-141.89 0c24.911 0 45.41 20.499 45.41 45.41 0 24.911-20.499 45.41-45.41 45.41-24.911 0-45.41-20.499-45.41-45.41 0-24.911 20.499-45.41 45.41-45.41zm-141.89 0h.04c24.911 0 45.41 20.499 45.41 45.41 0 24.911-20.499 45.41-45.41 45.41-24.911 0-45.41-20.499-45.41-45.41 0-24.896 20.474-45.388 45.37-45.41zm-286.89 35.74h-42.29c-18.14.314-32.891 15.322-32.891 33.465 0 18.143 14.751 33.151 32.891 33.465h42.29c18.14-.314 32.891-15.322 32.891-33.465 0-18.143-14.751-33.151-32.891-33.465z" fill="none"/><path d="M6 805.7h522.1v-473H6v473zm424.41-52.73h-42.29c-21.413-.341-38.842-18.05-38.842-39.465 0-21.415 17.429-39.124 38.842-39.465h42.29c21.413.341 38.842 18.05 38.842 39.465 0 21.415-17.429 39.124-38.842 39.465zm35.9-128.38c0 1.646-1.354 3-3 3H351.66c-1.646 0-3-1.354-3-3s1.354-3 3-3h111.65c1.646 0 3 1.354 3 3zM258.66 399.44h73.27l-7.28-7.28a3.001 3.001 0 0 1-.805-2.045c0-1.646 1.354-3 3-3 .759 0 1.49.288 2.045.805l12.41 12.4.12.15.18.21a.855.855 0 0 0 .07.1c.036.053.066.11.09.17.049.077.093.157.13.24l.06.11c0 .06 0 .12.05.18a2 2 0 0 1 .08.26c.021.088 0 .07 0 .12v.18c.005.093.005.187 0 .28-.005.093 0 .07 0 .11v.16c.005.093.005.187 0 .28a.655.655 0 0 0 0 .14c-.02.052-.036.106-.05.16a2 2 0 0 1-.08.26c-.033.085 0 .1-.05.14a.798.798 0 0 1-.08.16l-.12.23s0 .09-.07.13l-.12.15-.09.13-11.4 13.4a3.004 3.004 0 0 1-2.29 1.06h-.044c-1.646 0-3-1.354-3-3a3 3 0 0 1 .764-2l7.19-8.46h-73.98c-1.646 0-3-1.354-3-3s1.354-3 3-3v.07zm0 56.77h123.73l-4-3.34a4.003 4.003 0 0 1-1.407-3.046c0-2.194 1.805-4 4-4 .929 0 1.83.324 2.547.916l12.4 10.38c.042.034.082.071.12.11.044.043.091.083.14.12.05.05.09.12.15.18.082.092.159.189.23.29a.683.683 0 0 1 .11.13c.044.068.084.138.12.21.063.107.119.217.17.33.023.052.049.102.08.15 0 .08.05.16.07.23.02.07.08.23.11.35.03.12 0 .11 0 .17.006.077.006.153 0 .23v.54c.005.067.005.133 0 .2.01.126.01.254 0 .38.005.067.005.133 0 .2v.2c0 .07-.07.23-.11.35l-.06.19c0 .07-.07.13-.1.2l-.17.31c0 .06-.06.12-.1.18l-.15.19-.11.16-.11.11-.12.14-12.39 12.47a3.998 3.998 0 0 1-2.758 1.103c-2.194 0-4-1.806-4-4a4 4 0 0 1 1.098-2.753l5.58-5.58H258.66c-2.194 0-4-1.806-4-4s1.806-4 4-4zm0 56.77h187.76l-3.87-3.87a5.007 5.007 0 0 1-1.463-3.535c0-2.744 2.259-5.003 5.003-5.003 1.328 0 2.602.529 3.54 1.468l12.4 12.4.2.25c.1.12.21.24.3.36l.12.16c.056.09.106.184.15.28.083.128.157.261.22.4l.09.18c0 .1.06.2.1.31a7.248 7.248 0 0 1 .18.62v.31c.01.157.01.313 0 .47.005.063.005.127 0 .19v.74c.005.073.005.147 0 .22a2.816 2.816 0 0 1-.07.27 3.81 3.81 0 0 1-.14.44 1.875 1.875 0 0 1-.07.22c0 .1-.09.18-.13.27l-.21.39c-.034.07-.074.137-.12.2-.06.09-.13.17-.2.26s-.09.14-.15.21l-11.37 13.4a5.003 5.003 0 0 1-3.81 1.761c-2.744 0-5.001-2.257-5.001-5.001 0-1.187.422-2.336 1.191-3.24l4.39-5.16h-189c-2.743 0-5-2.257-5-5s2.257-5 5-5l-.04.03zm-194.44 11c0-1.646 1.354-3 3-3v-13.96c-1.646 0-3-1.354-3-3v-15.94c0-1.646 1.354-3 3-3v-13.93c-1.646 0-3-1.354-3-3v-79.71c0-1.646 1.354-3 3-3h79.71c1.646 0 3 1.354 3 3h14c0-1.646 1.354-3 3-3h16c1.646 0 3 1.354 3 3h13.92c0-1.646 1.354-3 3-3h8c1.646 0 3 1.354 3 3v8c0 1.646-1.354 3-3 3v13.9c1.646 0 3 1.354 3 3v15.94c0 1.646-1.354 3-3 3v13.93c1.646 0 3 1.354 3 3v15.94c0 1.646-1.354 3-3 3v13.93c1.646 0 3 1.354 3 3v15.94c0 1.646-1.354 3-3 3v13.93c1.646 0 3 1.354 3 3v8c0 1.646-1.354 3-3 3h-8c-1.646 0-3-1.354-3-3h-14.02c0 1.646-1.354 3-3 3h-15.9c-1.646 0-3-1.354-3-3h-14c0 1.646-1.354 3-3 3h-15.91c-1.646 0-3-1.354-3-3h-13.93c0 1.646-1.354 3-3 3H95.15c-1.646 0-3-1.354-3-3H78.22c0 1.646-1.354 3-3 3h-8c-1.646 0-3-1.354-3-3v-7.97zm3 62.41h103c1.646 0 3 1.354 3 3s-1.354 3-3 3h-103c-1.646 0-3-1.354-3-3s1.354-3 3-3zm0 35.23h230.43c1.646 0 3 1.354 3 3s-1.354 3-3 3H67.22c-1.646 0-3-1.354-3-3s1.354-3 3-3zm36.47 52.45h157.5c21.413.341 38.842 18.05 38.842 39.465 0 21.415-17.429 39.124-38.842 39.465h-157.5c-.209.003-.419.005-.628.005-21.653 0-39.47-17.817-39.47-39.47s17.817-39.47 39.47-39.47c.209 0 .419.002.628.005zm630.1-254.86a30.701 30.701 0 0 1-12.5 24.71h23.84c13.556 0 24.71-11.154 24.71-24.71 0-13.556-11.154-24.71-24.71-24.71h-23.84a30.72 30.72 0 0 1 12.5 24.71zm459.86 3.61c.154.159.291.334.41.52a16.404 16.404 0 0 0 10.531 3.828c8.996 0 16.4-7.404 16.4-16.4 0-8.997-7.404-16.4-16.4-16.4-8.997 0-16.4 7.403-16.4 16.4 0 4.336 1.719 8.5 4.779 11.572.247.129.475.291.68.48zM1043.86 91.29c4.85 0 8.79-5 8.79-11.11 0-6.11-3.94-11.11-8.79-11.11s-8.79 5-8.79 11.11c0 6.11 3.95 11.11 8.79 11.11zM912.73 58.44l-6.22 17.91h12.36l-6.14-17.91zM951.1 165.6c2.72-.75 5-2.44 5.81-4.32v-2.33c-.08-.09-.18-.16-.26-.26a6.383 6.383 0 0 0-4.87-1.77c-1.014 0-2.023.138-3 .41-4.09 1.12-6.54 4.15-6 6.11s4.23 3.28 8.32 2.16zm59.18-30.08c0-3.732-3.068-6.805-6.8-6.81h-5.92v13.61h6.15c3.639-.133 6.562-3.159 6.57-6.8zm3.41 22.7c-.005-4.332-3.568-7.895-7.9-7.9h-8.23v15.8h8.23c4.33-.011 7.889-3.57 7.9-7.9zm-56.25-76.03c-1.36-1.68-4.85-2.79-8.87-1.7a10.894 10.894 0 0 0-5.59 3.46 4.563 4.563 0 0 0-1.12 3.88c.76 2.77 5.11 4.1 9.51 2.9 3-.83 5.51-2.7 6.46-4.88l.1-.2v-3a3.677 3.677 0 0 1-.49-.46z" fill="none"/><path d="M845.83 213H1391V6H845.83v207zm483.27-46.88a11.004 11.004 0 0 0 7.79-3.23 4 4 0 0 1 2.753-1.098c2.194 0 4 1.806 4 4a3.998 3.998 0 0 1-1.103 2.758 19.006 19.006 0 0 1-13.45 5.58c-10.423 0-19-8.577-19-19v-.02c0-9.222 7.588-16.81 16.81-16.81 9.222 0 16.81 7.588 16.81 16.81 0 2.194-1.806 4-4 4h-20.86a11.019 11.019 0 0 0 10.25 7.01zm-2.17-102.68c8.671.005 15.805 7.139 15.81 15.81 0 1.646-1.354 3-3 3h-22.23c1.361 5.285 6.164 9.008 11.621 9.008 3.183 0 6.239-1.266 8.489-3.518a3.004 3.004 0 0 1 2.125-.882 3.016 3.016 0 0 1 3.002 3.002c0 .795-.316 1.557-.877 2.12a18.005 18.005 0 0 1-12.75 5.294c-9.875 0-18-8.125-18-18v-.024c.005-8.671 7.139-15.805 15.81-15.81zm-46.91 8.29v-22.5c0-1.646 1.354-3 3-3h23.5c1.646 0 3 1.354 3 3s-1.354 3-3 3h-20.5v16.53h14.69c1.646 0 3 1.354 3 3s-1.354 3-3 3h-14.69v16.53h20.5c1.646 0 3 1.354 3 3s-1.354 3-3 3h-23.5c-1.646 0-3-1.354-3-3V71.73zm-1 75.83v-22.5c0-2.194 1.806-4 4-4h23.5c2.194 0 4 1.806 4 4s-1.806 4-4 4h-19.5v14.53h13.69c2.194 0 4 1.806 4 4s-1.806 4-4 4h-13.69v14.53h19.5c2.194 0 4 1.806 4 4s-1.806 4-4 4h-23.5c-2.194 0-4-1.806-4-4v-22.56zm-41.62-84.52a13.522 13.522 0 0 1 9.19 3.73V49.23c0-1.646 1.354-3 3-3s3 1.354 3 3v45.06c0 1.646-1.354 3-3 3s-3-1.354-3-3v-.73a13.522 13.522 0 0 1-9.19 3.73c-8.16 0-14.79-7.68-14.79-17.11s6.6-17.11 14.76-17.11l.03-.03zm0 74.83c2.939.016 5.802.945 8.19 2.66v-15.5c0-2.194 1.806-4 4-4s4 1.806 4 4v45.06c-.026 2.176-1.824 3.952-4 3.952a4.009 4.009 0 0 1-3.8-2.752 14.258 14.258 0 0 1-8.39 2.8c-8.71 0-15.79-8.12-15.79-18.11s7.05-18.08 15.76-18.08l.03-.03zm-58.39-89c0-1.646 1.354-3 3-3h8c13.91.274 25.203 11.792 25.203 25.705 0 13.913-11.293 25.431-25.203 25.705h-8c-1.646 0-3-1.354-3-3V48.87zm-1 75.83c0-2.194 1.806-4 4-4h8c14.455.28 26.193 12.247 26.193 26.705 0 14.458-11.738 26.425-26.193 26.705h-8c-2.194 0-4-1.806-4-4V124.7zm-32.8-62.9a16.107 16.107 0 0 1 11.24 4.64c.58.565.907 1.341.907 2.15a3.016 3.016 0 0 1-3.002 3.002 3.003 3.003 0 0 1-2.095-.852 10.084 10.084 0 0 0-7-2.94c-5.88 0-10.65 5.26-10.65 11.74s4.77 11.74 10.65 11.74a10.12 10.12 0 0 0 7-2.94 3.004 3.004 0 0 1 2.166-.925c1.646 0 3 1.355 3 3a3 3 0 0 1-.976 2.215 16.063 16.063 0 0 1-11.24 4.65c-9.18 0-16.65-8-16.65-17.74 0-9.74 7.44-17.73 16.62-17.73l.03-.01zm0 74.83a17.005 17.005 0 0 1 11.93 4.93 4.003 4.003 0 0 1 1.273 2.926c0 2.194-1.806 4-4 4a4 4 0 0 1-2.853-1.196 9.085 9.085 0 0 0-6.35-2.66c-5.32 0-9.65 4.82-9.65 10.74s4.33 10.74 9.65 10.74a9.085 9.085 0 0 0 6.35-2.66 4 4 0 0 1 2.853-1.196c2.194 0 4 1.806 4 4 0 1.109-.462 2.17-1.273 2.926a17.005 17.005 0 0 1-11.93 4.93c-9.73 0-17.65-8.41-17.65-18.74 0-10.33 7.89-18.73 17.62-18.73l.03-.01zm-38.17-90.62a23.06 23.06 0 0 1 16.14 6.68c.58.565.907 1.341.907 2.15a3.016 3.016 0 0 1-3.002 3.002 3.003 3.003 0 0 1-2.095-.852 17.107 17.107 0 0 0-12-5c-9.9 0-18 8.81-18 19.64s8.06 19.63 18 19.63a17.107 17.107 0 0 0 12-5 3.003 3.003 0 0 1 2.095-.852 3.016 3.016 0 0 1 3.002 3.002c0 .809-.327 1.585-.907 2.15a23.06 23.06 0 0 1-16.14 6.68c-13.21 0-24-11.5-24-25.63 0-14.13 10.76-25.59 23.97-25.59l.03-.01zm0 74.83a24.008 24.008 0 0 1 16.83 7 4 4 0 0 1 1.346 2.993c0 2.194-1.805 4-4 4a4 4 0 0 1-2.926-1.273 16.118 16.118 0 0 0-11.25-4.69c-9.35 0-17 8.36-17 18.64 0 10.28 7.61 18.63 17 18.63a16.118 16.118 0 0 0 11.25-4.69 4 4 0 0 1 2.853-1.196c2.194 0 4 1.806 4 4 0 1.109-.462 2.17-1.273 2.926a24.008 24.008 0 0 1-16.83 7c-13.76 0-25-11.95-25-26.63s11.21-26.7 24.97-26.7l.03-.01zm-78.34-71.62c0-1.646 1.354-3 3-3s3 1.354 3 3v17.57a13.522 13.522 0 0 1 9.19-3.73c8.16 0 14.79 7.68 14.79 17.11s-6.63 17.11-14.79 17.11a13.522 13.522 0 0 1-9.19-3.73v.73c0 1.646-1.354 3-3 3s-3-1.354-3-3V49.22zm-1 75.83c0-2.194 1.806-4 4-4s4 1.806 4 4v15.5a14.173 14.173 0 0 1 8.19-2.66c8.71 0 15.79 8.13 15.79 18.11 0 9.98-7.08 18.11-15.79 18.11a14.258 14.258 0 0 1-8.39-2.8 4.009 4.009 0 0 1-3.8 2.752c-2.176 0-3.974-1.776-4-3.952v-45.06zm-37.11-76.18c0-1.646 1.354-3 3-3h9.924c7.57 0 13.8 6.23 13.8 13.8 0 3.674-1.467 7.2-4.074 9.79a14.917 14.917 0 0 1 7.478 12.92c0 8.173-6.725 14.899-14.898 14.9h-12.23c-1.646 0-3-1.354-3-3V48.87zm-1 75.83c0-2.194 1.806-4 4-4h9.92c8.119.008 14.796 6.691 14.796 14.81 0 3.508-1.247 6.905-3.516 9.58a15.904 15.904 0 0 1 6.911 13.11c0 8.717-7.173 15.89-15.89 15.89H993.56c-2.194 0-4-1.806-4-4l.03-45.39zM954.7 67.55c-5.55-1.84-12.94 2.29-13 2.34a3.002 3.002 0 0 1-1.5.402 3.016 3.016 0 0 1-3.002-3.002c0-1.071.574-2.065 1.502-2.6.39-.23 9.73-5.54 17.9-2.84a10.853 10.853 0 0 1 7.38 10.36v22.07c0 1.646-1.354 3-3 3s-3-1.354-3-3a18.311 18.311 0 0 1-5 2.2 18.64 18.64 0 0 1-4.87.67c-5.81 0-10.69-3-12-7.78a10.406 10.406 0 0 1 2.22-9.21 16.82 16.82 0 0 1 8.69-5.49 16.49 16.49 0 0 1 11 .6v-3.09a4.861 4.861 0 0 0-3.35-4.62l.03-.01zm-8 82a18 18 0 0 1 10.21.12v-1.64a3.917 3.917 0 0 0-2.57-3.71c-4.29-1.42-10.27 1.15-12.22 2.26a4.001 4.001 0 0 1-2 .536c-2.195 0-4.001-1.806-4.001-4.001 0-1.428.764-2.751 2.001-3.465 1-.6 10.27-5.73 18.72-2.93a11.865 11.865 0 0 1 8.06 11.31v22.07c-.011 2.186-1.813 3.979-4 3.979a4.006 4.006 0 0 1-3.67-2.409 19.676 19.676 0 0 1-9.17 2.33c-6.27 0-11.54-3.25-13-8.51-1.77-6.64 3.33-13.64 11.66-15.92l-.02-.02zm-52.44-56.26l15.67-45.04a3.006 3.006 0 0 1 2.83-2 3.006 3.006 0 0 1 2.83 2l15.43 45.06c.107.312.161.64.161.97a3.016 3.016 0 0 1-3.001 3.001 3.007 3.007 0 0 1-2.84-2.031l-4.41-12.9h-16.5l-4.5 12.92a3.012 3.012 0 0 1-2.835 2.006 3.02 3.02 0 0 1-3.006-3.006c0-.341.058-.679.171-1v.02zm-.95 75.5l15.62-45.04a4.01 4.01 0 0 1 3.78-2.69 4.007 4.007 0 0 1 3.77 2.7l15.45 45.06c.144.418.217.858.217 1.3 0 2.195-1.807 4.002-4.002 4.002a4.01 4.01 0 0 1-3.785-2.702l-4.19-12.23H905.1l-4.17 12.25a4.01 4.01 0 0 1-5.09 2.47 4.01 4.01 0 0 1-2.73-3.793c0-.445.075-.887.22-1.307l-.02-.02z" fill="none"/><path d="M912.73 137.33l-4.81 13.86h9.55l-4.74-13.86zm101.96-54.89c-.005-4.88-4.02-8.895-8.9-8.9h-9.23v17.8h9.23c4.88-.005 8.895-4.02 8.9-8.9z" fill="none"/><path d="M216 216V33L186 3v183H3l30 30h183z" fill="#2a1210" fill-rule="nonzero"/><path fill="#1580f2" d="M3 3H186V186H3z"/><path d="M645.67 33l-40-30 91.5 183h-183l30 30h193l-91.5-183z" fill="#2a1210" fill-rule="nonzero"/><path d="M605.67 3l-91.5 183h183L605.67 3z" fill="#f37a78" fill-rule="nonzero"/><path d="M352.58 186a91.251 91.251 0 0 1-64.7-26.8l28.24 28.18a95.3 95.3 0 0 0 3.68 3.68l.11.1a91.525 91.525 0 0 0 61.562 23.807c50.195 0 91.5-41.305 91.5-91.5A91.534 91.534 0 0 0 445.56 58.16l-26.47-26.47a91.529 91.529 0 0 1 24.991 62.84c0 50.195-41.304 91.5-91.5 91.5h-.001V186z" fill="#2a1210" fill-rule="nonzero"/><path d="M352.58 186h.001c50.195 0 91.5-41.305 91.5-91.5S402.776 3 352.581 3c-50.196 0-91.5 41.305-91.5 91.5a91.531 91.531 0 0 0 26.799 64.7 91.532 91.532 0 0 0 64.7 26.8z" fill="#9eb1db" fill-rule="nonzero"/><path d="M714.138 644.333c24.999-1.779 46.739 17.073 48.518 42.072 1.779 24.999-17.073 46.74-42.072 48.519-24.999 1.778-46.74-17.074-48.519-42.073-1.778-24.999 17.074-46.74 42.073-48.518z" fill="#2a1210"/><path d="M817.237 672.335c9.591-23.155 36.176-34.167 59.331-24.576 23.154 9.591 34.166 36.177 24.576 59.331-9.591 23.155-36.177 34.167-59.332 24.576-23.154-9.591-34.166-36.176-24.575-59.331z" fill="#453b69"/><path d="M997.922 644.311c24.999-1.778 46.74 17.074 48.519 42.073 1.778 24.999-17.074 46.739-42.073 48.518-24.999 1.779-46.74-17.073-48.518-42.072-1.779-24.999 17.073-46.74 42.072-48.519z" fill="#9eb1db"/><circle cx="1142.97" cy="689.71" r="45.41" fill="#1580f2"/><path d="M1281.7 644.28c25-1.779 46.74 17.073 48.519 42.073 1.779 24.999-17.073 46.739-42.073 48.518-24.999 1.779-46.739-17.073-48.518-42.073-1.779-24.999 17.073-46.739 42.072-48.518z" fill="#f37a78"/><path d="M1394 0H842.83c-1.646 0-3 1.354-3 3v213c0 1.646 1.354 3 3 3H1394c1.646 0 3-1.354 3-3V3c0-1.646-1.354-3-3-3zm-3 213H845.83V6H1391v207zm3 113.68H608.17c-1.646 0-3 1.354-3 3v165.83c0 1.646 1.354 3 3 3H1394c1.646 0 3-1.354 3-3V329.68c0-1.646-1.354-3-3-3zm-3 165.83H611.17V332.68H1391v159.83zm3 77.07H608.17c-1.646 0-3 1.354-3 3v234.26c0 1.646 1.354 3 3 3H1394c1.646 0 3-1.354 3-3V572.58c0-1.646-1.354-3-3-3zm-3 234.26H611.17V575.58H1391v228.26zM531.1 326.68H3c-1.646 0-3 1.354-3 3v479c0 1.646 1.354 3 3 3h528.1c1.646 0 3-1.354 3-3v-479c0-1.646-1.354-3-3-3zm-3 479H6v-473h522.1v473z" fill="#1580f2" fill-rule="nonzero"/><path d="M70.22 523.95v5h5c1.646 0 3 1.354 3 3h13.93c0-1.646 1.354-3 3-3h15.94c1.646 0 3 1.354 3 3h13.93c0-1.646 1.354-3 3-3h15.91c1.646 0 3 1.354 3 3h14c0-1.646 1.354-3 3-3h16c1.646 0 3 1.354 3 3h13.92c0-1.646 1.354-3 3-3h5v-5c0-1.646 1.354-3 3-3v-13.93c-1.646 0-3-1.354-3-3v-15.94c0-1.646 1.354-3 3-3v-13.93c-1.646 0-3-1.354-3-3v-15.94c0-1.646 1.354-3 3-3v-13.93c-1.646 0-3-1.354-3-3v-15.94c0-1.646 1.354-3 3-3v-13.9c-1.646 0-3-1.354-3-3v-5h-5c-1.646 0-3-1.354-3-3h-14.02c0 1.646-1.354 3-3 3h-15.9c-1.646 0-3-1.354-3-3h-14c0 1.646-1.354 3-3 3h-4.89v68.85c0 1.646-1.354 3-3 3H70.22v4.89c0 1.646-1.354 3-3 3v13.93c1.646 0 3 1.354 3 3v15.94c0 1.646-1.354 3-3 3v13.93a3.014 3.014 0 0 1 3 2.97z" fill="#fff" fill-rule="nonzero"/><path d="M207.76 523.95v5h-5c-1.646 0-3 1.354-3 3s1.354 3 3 3h8c1.646 0 3-1.354 3-3v-8c0-1.646-1.354-3-3-3s-3 1.354-3 3zm-60.83 5h-15.91c-1.646 0-3 1.354-3 3s1.354 3 3 3h15.91c1.646 0 3-1.354 3-3s-1.354-3-3-3zm35.91 0h-15.91c-1.646 0-3 1.354-3 3s1.354 3 3 3h16c1.646 0 3-1.354 3-3v-.001c0-1.646-1.354-3-3-3l-.09.001zm-71.75 0H95.15c-1.646 0-3 1.354-3 3s1.354 3 3 3h15.94c1.646 0 3-1.354 3-3s-1.354-3-3-3zm-43.87 6h8c1.646 0 3-1.354 3-3s-1.354-3-3-3h-5v-5c0-1.646-1.354-3-3-3s-3 1.354-3 3v8c0 1.646 1.354 3 3 3zm3-66.8v-4.89h68.85c1.646 0 3-1.354 3-3v-68.82h4.86c1.646 0 3-1.354 3-3s-1.354-3-3-3H67.22c-1.646 0-3 1.354-3 3v79.74c0 1.646 1.354 3 3 3s3-1.354 3-3v-.03zm0-15.94v-60.77h65.85v65.85H70.22v-5.08z" fill="#1580f2" fill-rule="nonzero"/><path d="M70.22 488.08a3.001 3.001 0 0 0-6 0v15.94a3.001 3.001 0 0 0 6 0v-15.94z" fill="#1580f2"/><path d="M166.93 391.44h16c1.646 0 3-1.354 3-3s-1.354-3-3-3h-16c-1.646 0-3 1.354-3 3s1.354 3 3 3zm35.83 0h5v5c0 1.646 1.354 3 3 3s3-1.354 3-3v-8c0-1.646-1.354-3-3-3h-8c-1.646 0-3 1.354-3 3s1.354 3 3 3z" fill="#1580f2" fill-rule="nonzero"/><path d="M213.76 488.08a3.001 3.001 0 0 0-6 0v15.94a3.001 3.001 0 0 0 6 0v-15.94zm0-35.87a3.001 3.001 0 0 0-6 0v15.94a3.001 3.001 0 0 0 6 0v-15.94zm0-35.87a3.001 3.001 0 0 0-6 0v15.94a3.001 3.001 0 0 0 6 0v-15.94z" fill="#1580f2"/><path d="M136.07 391.41H70.22v65.85h65.85v-65.85z" fill="#fff" fill-rule="nonzero"/><path d="M67.22 592.36h103c1.646 0 3-1.354 3-3s-1.354-3-3-3h-103c-1.646 0-3 1.354-3 3s1.354 3 3 3zm0 35.23h230.43c1.646 0 3-1.354 3-3s-1.354-3-3-3H67.22c-1.646 0-3 1.354-3 3s1.354 3 3 3zm284.44-6c-1.646 0-3 1.354-3 3s1.354 3 3 3h111.65c1.646 0 3-1.354 3-3s-1.354-3-3-3H351.66zM103.69 752.97h157.5c21.413-.341 38.842-18.05 38.842-39.465 0-21.415-17.429-39.124-38.842-39.465h-157.5a43.825 43.825 0 0 0-.628-.005c-21.653 0-39.47 17.817-39.47 39.47s17.817 39.47 39.47 39.47c.209 0 .419-.002.628-.005zm326.72-78.93h-42.29c-21.413.341-38.842 18.05-38.842 39.465 0 21.415 17.429 39.124 38.842 39.465h42.29c21.413-.341 38.842-18.05 38.842-39.465 0-21.415-17.429-39.124-38.842-39.465zm0 72.93h-42.29c-18.14-.314-32.891-15.322-32.891-33.465 0-18.143 14.751-33.151 32.891-33.465h42.29c18.14.314 32.891 15.322 32.891 33.465 0 18.143-14.751 33.151-32.891 33.465zM258.66 522.95h189l-4.39 5.16a5.001 5.001 0 0 0-1.191 3.24c0 2.744 2.257 5.001 5.001 5.001 1.466 0 2.86-.644 3.81-1.761l11.4-13.4c.06-.07.1-.14.15-.21.05-.07.14-.17.2-.26.046-.063.086-.13.12-.2l.21-.39c0-.09.09-.17.13-.27.028-.072.051-.145.07-.22a3.81 3.81 0 0 0 .14-.44c.028-.089.051-.179.07-.27a1.615 1.615 0 0 0 0-.22v-.74a1.205 1.205 0 0 0 0-.19c.01-.157.01-.313 0-.47V517a1.5 1.5 0 0 0-.05-.2c0-.14-.08-.28-.13-.42-.05-.14-.06-.21-.1-.31l-.09-.18a3.048 3.048 0 0 0-.22-.4 2.51 2.51 0 0 0-.15-.28l-.12-.16c-.09-.12-.2-.24-.3-.36l-.2-.25-12.4-12.4a5.005 5.005 0 0 0-3.54-1.468c-2.744 0-5.003 2.259-5.003 5.003 0 1.325.527 2.597 1.463 3.535l3.87 3.87H258.66c-2.743 0-5 2.257-5 5s2.257 5 5 5v-.03zm0-58.77h125.07l-5.58 5.58a4 4 0 0 0-1.098 2.753c0 2.194 1.806 4 4 4a3.998 3.998 0 0 0 2.758-1.103l12.4-12.4.12-.14.11-.11.11-.16.15-.19c0-.06.06-.12.1-.18l.17-.31c0-.07.07-.13.1-.2l.06-.19c0-.12.08-.24.11-.35.03-.11 0-.14 0-.2a1.335 1.335 0 0 0 0-.2 2.41 2.41 0 0 0 0-.38 1.335 1.335 0 0 0 0-.2v-.54a1.472 1.472 0 0 0 0-.23v-.17c0-.06-.07-.23-.11-.35-.04-.12 0-.15-.07-.23a1.08 1.08 0 0 1-.08-.15 3.426 3.426 0 0 0-.17-.33 2.185 2.185 0 0 0-.12-.21.683.683 0 0 0-.11-.13 3.216 3.216 0 0 0-.23-.29c-.06-.06-.1-.13-.15-.18a1.453 1.453 0 0 1-.14-.12 1.384 1.384 0 0 0-.12-.11l-12.4-10.41a4.002 4.002 0 0 0-2.547-.916c-2.195 0-4 1.806-4 4 0 1.172.515 2.286 1.407 3.046l4 3.34H258.66c-2.194 0-4 1.806-4 4s1.806 4 4 4v-.04zm0-58.74h74.06l-7.19 8.46a3.001 3.001 0 0 0-.716 1.945 3.016 3.016 0 0 0 3.001 3.001c.879 0 1.715-.387 2.285-1.056l11.4-13.4.09-.13.12-.15s0-.09.07-.13l.12-.23a.798.798 0 0 0 .08-.16c.021-.056 0-.09.05-.14a2 2 0 0 0 .08-.26c.014-.054.03-.108.05-.16a.655.655 0 0 1 0-.14 2.615 2.615 0 0 0 0-.28c-.005-.093 0-.1 0-.16v-.11a2.615 2.615 0 0 0 0-.28v-.3a2 2 0 0 0-.08-.26c0-.06 0-.12-.05-.18l-.06-.11a1.854 1.854 0 0 0-.13-.24.891.891 0 0 0-.09-.17.855.855 0 0 1-.07-.1l-.18-.21-.12-.15-12.45-12.45a3.001 3.001 0 0 0-2.045-.805c-1.646 0-3 1.354-3 3 0 .759.288 1.49.805 2.045l7.24 7.31h-73.27c-1.646 0-3 1.354-3 3s1.354 3 3 3zm444.27 44.48h42.2c16.847 0 30.71-13.863 30.71-30.71s-13.863-30.71-30.71-30.71h-42.2c-16.847 0-30.71 13.863-30.71 30.71s13.863 30.71 30.71 30.71zm42.17-55.42c13.556 0 24.71 11.154 24.71 24.71 0 13.556-11.154 24.71-24.71 24.71h-23.81a30.692 30.692 0 0 0 12.502-24.71 30.692 30.692 0 0 0-12.502-24.71h23.81zm-17.34 24.71v.01c0 13.561-11.159 24.72-24.72 24.72-13.561 0-24.72-11.159-24.72-24.72 0-13.561 11.159-24.72 24.72-24.72 13.564-.005 24.734 11.146 24.75 24.71h-.03zm121.07 30.71h38.16c16.847 0 30.71-13.863 30.71-30.71s-13.863-30.71-30.71-30.71h-38.16c-16.847 0-30.71 13.863-30.71 30.71s13.863 30.71 30.71 30.71zm62.88-30.71v.01c0 13.561-11.159 24.72-24.72 24.72-13.561 0-24.72-11.159-24.72-24.72 0-13.561 11.159-24.72 24.72-24.72 13.553.011 24.704 11.157 24.72 24.71z" fill="#1580f2" fill-rule="nonzero"/><path d="M862.28 419.21v.01c0 13.561 11.159 24.72 24.72 24.72 13.561 0 24.72-11.159 24.72-24.72 0-13.561-11.159-24.72-24.72-24.72h-.01c-13.549.016-24.694 11.161-24.71 24.71z" fill="#fff" fill-rule="nonzero"/><path d="M1167.93 451.52a3 3 0 0 0 2.12-.88l21.57-21.57a22.547 22.547 0 0 0 13.139 4.226c12.365 0 22.54-10.175 22.54-22.54 0-12.365-10.175-22.54-22.54-22.54-12.365 0-22.54 10.175-22.54 22.54 0 5.167 1.777 10.18 5.031 14.194l-21.41 21.49a2.999 2.999 0 0 0-.887 2.13c0 1.646 1.354 3 3 3h.007l-.03-.05zm36.75-57.08h.043c9.013 0 16.43 7.417 16.43 16.43s-7.417 16.43-16.43 16.43c-3.908 0-7.69-1.394-10.663-3.93a3.315 3.315 0 0 0-.41-.52 3.152 3.152 0 0 0-.68-.49 16.417 16.417 0 0 1-4.714-11.51c0-9.002 7.408-16.41 16.41-16.41h.014z" fill="#1580f2" fill-rule="nonzero"/><path d="M1112.19 393.44h-51v51h51v-51zm-13.32 33.41c.562.562.877 1.325.877 2.12a3.013 3.013 0 0 1-2.997 3 3 3 0 0 1-2.12-.88l-7.93-7.92-7.92 7.92a3.001 3.001 0 0 1-2.045.805c-1.646 0-3-1.354-3-3 0-.759.288-1.49.805-2.045l7.92-7.93-7.92-7.92a3.001 3.001 0 0 1-.805-2.045c0-1.646 1.354-3 3-3 .759 0 1.49.288 2.045.805l7.92 7.92 7.93-7.92a3 3 0 0 1 2.195-.955c1.646 0 3 1.354 3 3a3 3 0 0 1-.955 2.195l-7.92 7.92 7.92 7.93z" fill="#fff" fill-rule="nonzero"/><path d="M1058.22 450.44h57c1.646 0 3-1.354 3-3v-57c0-1.646-1.354-3-3-3h-57c-1.646 0-3 1.354-3 3v57c0 1.646 1.354 3 3 3zm3-57h51v51h-51v-51z" fill="#1580f2" fill-rule="nonzero"/><path d="M1098.87 406.79a3.014 3.014 0 0 0-4.24 0l-7.93 7.92-7.92-7.92a3.001 3.001 0 0 0-2.045-.805c-1.646 0-3 1.354-3 3 0 .759.288 1.49.805 2.045l7.92 7.92-7.92 7.93a3.014 3.014 0 0 0 0 4.24 3.014 3.014 0 0 0 4.24 0l7.92-7.92 7.93 7.92a3.014 3.014 0 0 0 4.24 0 3.014 3.014 0 0 0 0-4.24l-7.92-7.93 7.92-7.92a3.014 3.014 0 0 0 0-4.24zm184.93-4.35h43.13c1.646 0 3-1.354 3-3s-1.354-3-3-3h-43.12c-1.646 0-3 1.354-3 3s1.354 3 3 3h-.01zm0 39.48h43.13c1.646 0 3-1.354 3-3s-1.354-3-3-3h-43.12c-1.646 0-3 1.354-3 3s1.354 3 3 3h-.01zm0-19.71h43.13c1.646 0 3-1.354 3-3s-1.354-3-3-3h-43.12c-1.646 0-3 1.354-3 3s1.354 3 3 3h-.01zM984.93 467.1c1.646 0 3-1.354 3-3v-103c0-1.646-1.354-3-3-3s-3 1.354-3 3v103c0 1.646 1.354 3 3 3zm-88.8-369.98c.317.11.65.167.986.167a3.007 3.007 0 0 0 2.834-2.017l4.48-12.92h16.5l4.42 12.91a3.007 3.007 0 0 0 2.84 2.031 3.016 3.016 0 0 0 3.001-3.001c0-.33-.054-.658-.161-.97L915.6 48.26a3.006 3.006 0 0 0-2.83-2 3.006 3.006 0 0 0-2.83 2L894.3 93.32a3.014 3.014 0 0 0 1.83 3.8zm16.6-38.68l6.14 17.91h-12.36l6.22-17.91zm34.25 16.27a16.82 16.82 0 0 0-8.69 5.49 10.406 10.406 0 0 0-2.22 9.21c1.32 4.82 6.2 7.78 12 7.78a18.64 18.64 0 0 0 4.87-.67 18.311 18.311 0 0 0 5-2.2c0 1.646 1.354 3 3 3s3-1.354 3-3v-22.1a10.853 10.853 0 0 0-7.38-10.36c-8.17-2.7-17.51 2.61-17.9 2.84a3.005 3.005 0 0 0-1.502 2.6 3.016 3.016 0 0 0 3.002 3.002c.527 0 1.044-.139 1.5-.402.08-.05 7.47-4.18 13-2.34a4.86 4.86 0 0 1 3.26 4.66v3.09a16.488 16.488 0 0 0-10.94-.6zm10.85 11.14c-1 2.18-3.42 4.05-6.46 4.88-4.4 1.2-8.75-.13-9.51-2.9a4.563 4.563 0 0 1 1.12-3.88 10.894 10.894 0 0 1 5.59-3.46c4-1.09 7.51 0 8.87 1.7.148.172.312.329.49.47v3l-.1.19zm35.73 11.44h12.23c8.173-.001 14.898-6.727 14.898-14.9a14.917 14.917 0 0 0-7.478-12.92 13.804 13.804 0 0 0 4.074-9.79c0-7.57-6.23-13.8-13.8-13.8h-9.924c-1.646 0-3 1.354-3 3v45.41c0 1.646 1.354 3 3 3zm3-45.41h6.92c4.243.06 7.7 3.566 7.7 7.809 0 4.142-3.294 7.6-7.43 7.801h-7.19V51.88zm0 21.61h9.23c4.882 0 8.9 4.018 8.9 8.9 0 4.882-4.018 8.9-8.9 8.9h-9.23v-17.8zm35.11 23.8c1.646 0 3-1.354 3-3v-.73a13.522 13.522 0 0 0 9.19 3.73c8.16 0 14.79-7.68 14.79-17.11s-6.63-17.11-14.79-17.11a13.522 13.522 0 0 0-9.19 3.73V49.23c0-1.646-1.354-3-3-3s-3 1.354-3 3v45.06c0 1.646 1.354 3 3 3zm12.19-28.22c4.85 0 8.79 5 8.79 11.11 0 6.11-3.94 11.11-8.79 11.11s-8.79-5-8.79-11.11c0-6.11 3.95-11.11 8.79-11.11zm138.12 28.22h8c13.91-.274 25.203-11.792 25.203-25.705 0-13.913-11.293-25.431-25.203-25.705h-8c-1.646 0-3 1.354-3 3v45.41c0 1.646 1.354 3 3 3zm3-45.41h5c10.642.24 19.266 9.06 19.266 19.705 0 10.645-8.624 19.465-19.266 19.705h-5V51.88zm52.39 45.41a13.522 13.522 0 0 0 9.19-3.73v.73c0 1.646 1.354 3 3 3s3-1.354 3-3V49.23c0-1.646-1.354-3-3-3s-3 1.354-3 3V66.8a13.522 13.522 0 0 0-9.19-3.73c-8.16 0-14.79 7.68-14.79 17.11s6.63 17.11 14.79 17.11zm0-28.22c4.84 0 8.79 5 8.79 11.11 0 6.11-4 11.11-8.79 11.11-4.79 0-8.79-5-8.79-11.11 0-6.11 3.94-11.11 8.79-11.11zm-130.36 28.22a23.06 23.06 0 0 0 16.14-6.68c.58-.565.907-1.341.907-2.15a3.016 3.016 0 0 0-3.002-3.002c-.782 0-1.535.306-2.095.852a17.107 17.107 0 0 1-12 5c-9.9 0-18-8.81-18-19.63 0-10.82 8.06-19.64 18-19.64a17.107 17.107 0 0 1 12 5c.56.546 1.313.852 2.095.852a3.016 3.016 0 0 0 3.002-3.002c0-.809-.327-1.585-.907-2.15a23.06 23.06 0 0 0-16.14-6.68c-13.21 0-24 11.5-24 25.64s10.79 25.59 24 25.59zm38.17 0a16.063 16.063 0 0 0 11.24-4.65 3 3 0 0 0 .976-2.215c0-1.645-1.354-3-3-3-.817 0-1.6.335-2.166.925a10.12 10.12 0 0 1-7 2.94c-5.88 0-10.65-5.27-10.65-11.74 0-6.47 4.77-11.74 10.65-11.74 2.626.03 5.14 1.086 7 2.94.56.546 1.313.852 2.095.852a3.016 3.016 0 0 0 3.002-3.002c0-.809-.327-1.585-.907-2.15a16.107 16.107 0 0 0-11.24-4.64c-9.18 0-16.65 8-16.65 17.74 0 9.74 7.47 17.74 16.65 17.74zm137.81 0h23.5c1.646 0 3-1.354 3-3s-1.354-3-3-3h-20.5V74.76h14.69c1.646 0 3-1.354 3-3s-1.354-3-3-3h-14.69V52.23h20.5c1.646 0 3-1.354 3-3s-1.354-3-3-3h-23.5c-1.646 0-3 1.354-3 3v45.06c0 1.646 1.354 3 3 3zm46.11 0a17.895 17.895 0 0 0 12.74-5.28 3.004 3.004 0 0 0 .877-2.12 3.016 3.016 0 0 0-3.002-3.002c-.797 0-1.562.318-2.125.882a12.004 12.004 0 0 1-8.489 3.518c-5.457 0-10.26-3.723-11.621-9.008h22.23c1.646 0 3-1.354 3-3 0-8.673-7.137-15.81-15.81-15.81-8.673 0-15.81 7.137-15.81 15.81v.01c0 9.875 8.125 18 18 18h.01zm-2.17-27.85a9.85 9.85 0 0 1 9.35 6.81h-18.69a9.841 9.841 0 0 1 9.34-6.81zM895.8 173.9c.421.146.864.22 1.31.22a4.009 4.009 0 0 0 3.82-2.68l4.25-12.24h15.07l4.19 12.23a4.01 4.01 0 0 0 3.785 2.702c2.195 0 4.002-1.807 4.002-4.002 0-.442-.073-.882-.217-1.3l-15.44-45.06a4.007 4.007 0 0 0-3.77-2.7 4.01 4.01 0 0 0-3.78 2.69l-15.64 45.06a4.02 4.02 0 0 0 2.42 5.08zm16.92-36.57l4.75 13.86h-9.54l4.79-13.86zm35.37 36.69c3.2-.019 6.348-.819 9.17-2.33a4.006 4.006 0 0 0 3.67 2.409c2.187 0 3.989-1.793 4-3.979v-22.07a11.865 11.865 0 0 0-8.06-11.31c-8.45-2.8-17.7 2.33-18.72 2.93a4.004 4.004 0 0 0-2.001 3.465c0 2.195 1.806 4.001 4.001 4.001.702 0 1.392-.185 2-.536 2-1.11 7.93-3.68 12.22-2.26a3.917 3.917 0 0 1 2.57 3.71v1.64a18 18 0 0 0-10.21-.12c-8.33 2.28-13.43 9.28-11.61 15.94 1.43 5.26 6.7 8.51 12.97 8.51zm.74-16.73c.977-.272 1.986-.41 3-.41a6.383 6.383 0 0 1 4.87 1.77c.08.1.18.17.26.26v2.33c-.81 1.88-3.09 3.57-5.81 4.32-4.09 1.12-7.74-.24-8.28-2.2-.54-1.96 1.87-4.92 5.96-6.07zm44.73 16.83H1005.811c8.717 0 15.89-7.173 15.89-15.89 0-5.238-2.59-10.15-6.911-13.11a14.815 14.815 0 0 0 3.516-9.58c0-8.119-6.677-14.802-14.796-14.81h-9.92c-2.194 0-4 1.806-4 4v45.41c.011 2.175 1.795 3.964 3.97 3.98zm4-45.41h5.92c3.69.065 6.691 3.118 6.691 6.809 0 3.604-2.862 6.616-6.461 6.801h-6.15v-13.61zm0 21.61h8.23c4.334 0 7.9 3.566 7.9 7.9 0 4.334-3.566 7.9-7.9 7.9h-8.23v-15.8zm34.11 23.8a4.01 4.01 0 0 0 3.8-2.8 14.258 14.258 0 0 0 8.39 2.8c8.71 0 15.79-8.12 15.79-18.11s-7.08-18.11-15.79-18.11a14.173 14.173 0 0 0-8.19 2.66v-15.5c0-2.194-1.806-4-4-4s-4 1.806-4 4v45.06c0 2.194 1.806 4 4 4zm12.19-28.22c4.3 0 7.79 4.54 7.79 10.11 0 5.57-3.49 10.11-7.79 10.11s-7.79-4.54-7.79-10.11c0-5.57 3.5-10.11 7.79-10.11zm138.12 28.22h8c14.455-.28 26.193-12.247 26.193-26.705 0-14.458-11.738-26.425-26.193-26.705h-8c-2.194 0-4 1.806-4 4v45.41c0 2.194 1.806 4 4 4zm4-45.41h4c10.098.234 18.277 8.604 18.277 18.705 0 10.101-8.179 18.471-18.277 18.705h-4v-37.41zm51.39 45.41a14.258 14.258 0 0 0 8.39-2.8 4.009 4.009 0 0 0 3.8 2.752c2.176 0 3.974-1.776 4-3.952v-45.06c0-2.194-1.806-4-4-4s-4 1.806-4 4v15.5a14.173 14.173 0 0 0-8.19-2.66c-8.71 0-15.79 8.13-15.79 18.11 0 9.98 7.08 18.11 15.79 18.11zm0-28.22c4.29 0 7.79 4.54 7.79 10.11 0 5.57-3.5 10.11-7.79 10.11s-7.79-4.54-7.79-10.11c0-5.57 3.49-10.11 7.79-10.11zm-130.36 28.22a24.008 24.008 0 0 0 16.83-7 4.003 4.003 0 0 0 1.273-2.926c0-2.194-1.806-4-4-4a4 4 0 0 0-2.853 1.196 16.118 16.118 0 0 1-11.25 4.69c-9.35 0-17-8.36-17-18.63s7.61-18.64 17-18.64c4.218.03 8.26 1.715 11.25 4.69a4 4 0 0 0 2.926 1.273c2.195 0 4-1.806 4-4a4 4 0 0 0-1.346-2.993 24.008 24.008 0 0 0-16.83-7c-13.76 0-25 12-25 26.64s11.24 26.7 25 26.7zm38.17 0a17.005 17.005 0 0 0 11.93-4.93 4.003 4.003 0 0 0 1.273-2.926c0-2.194-1.806-4-4-4a4 4 0 0 0-2.853 1.196 9.085 9.085 0 0 1-6.35 2.66c-5.32 0-9.65-4.82-9.65-10.74s4.33-10.74 9.65-10.74a9.085 9.085 0 0 1 6.35 2.66 4 4 0 0 0 2.853 1.196c2.194 0 4-1.806 4-4 0-1.109-.462-2.17-1.273-2.926a17.005 17.005 0 0 0-11.93-4.93c-9.73 0-17.65 8.4-17.65 18.74 0 10.34 7.92 18.74 17.65 18.74zm137.81 0h23.5c2.194 0 4-1.806 4-4s-1.806-4-4-4h-19.5v-14.53h13.69c2.194 0 4-1.806 4-4s-1.806-4-4-4h-13.69v-14.53h19.5c2.194 0 4-1.806 4-4s-1.806-4-4-4h-23.5c-2.194 0-4 1.806-4 4v45.06c0 2.194 1.806 4 4 4z" fill="#1580f2" fill-rule="nonzero"/><path d="M1343.71 155.11c0-9.222-7.588-16.81-16.81-16.81-9.222 0-16.81 7.588-16.81 16.81v.02c0 10.423 8.577 19 19 19 5.045 0 9.887-2.009 13.45-5.58a3.998 3.998 0 0 0 1.103-2.758c0-2.194-1.806-4-4-4a4 4 0 0 0-2.753 1.098 11.003 11.003 0 0 1-7.76 3.203 11.02 11.02 0 0 1-10.24-6.983h20.86a4.02 4.02 0 0 0 3.96-4zm-24.66-4a8.821 8.821 0 0 1 7.85-4.811 8.821 8.821 0 0 1 7.85 4.811h-15.7z" fill="#1580f2" fill-rule="nonzero"/></svg>