<?xml version="1.0" encoding="UTF-8" standalone="no"?><!DOCTYPE svg PUBLIC "-//W3C//DTD SVG 1.1//EN" "http://www.w3.org/Graphics/SVG/1.1/DTD/svg11.dtd"><svg width="100%" height="100%" viewBox="0 0 1397 812" version="1.1" xmlns="http://www.w3.org/2000/svg" xmlns:xlink="http://www.w3.org/1999/xlink" xml:space="preserve" xmlns:serif="http://www.serif.com/" style="fill-rule:evenodd;clip-rule:evenodd;stroke-linejoin:round;stroke-miterlimit:1.41421;"><ellipse cx="1237.37" cy="80.18" rx="8.79" ry="11.11" style="fill:none;"/><path d="M1326.93,69.44c-4.25,0.003 -8.037,2.765 -9.34,6.81l18.69,0c-1.306,-4.047 -5.098,-6.808 -9.35,-6.81Z" style="fill:none;"/><path d="M1326.93,146.3c-3.308,0 -6.348,1.863 -7.85,4.81l15.7,0c-1.502,-2.947 -4.542,-4.81 -7.85,-4.81Z" style="fill:none;"/><ellipse cx="1237.37" cy="156.01" rx="7.79" ry="10.11" style="fill:none;"/><path d="M1209.69,71.58c-0.016,-10.801 -8.899,-19.684 -19.7,-19.7l-5,0l0,39.41l5,0c10.805,-0.016 19.689,-8.905 19.7,-19.71Z" style="fill:none;"/><path d="M1043.86,166.12c4.3,0 7.79,-4.54 7.79,-10.11c0,-5.57 -3.49,-10.11 -7.79,-10.11c-4.3,0 -7.79,4.54 -7.79,10.11c0,5.57 3.5,10.11 7.79,10.11Z" style="fill:none;"/><path d="M611.17,492.51l779.83,0l0,-159.83l-779.83,0l0,159.83Zm672.63,-96.07l43.13,0c1.646,0 3,1.354 3,3c0,1.646 -1.354,3 -3,3l-43.12,0c-1.646,0 -3,-1.354 -3,-3c0,-1.646 1.354,-3 3,-3l-0.01,0Zm0,19.8l43.13,0c1.646,0 3,1.354 3,3c0,1.646 -1.354,3 -3,3l-43.12,0c-1.646,0 -3,-1.354 -3,-3c0,-1.646 1.354,-3 3,-3l-0.01,0Zm0,19.71l43.13,0c1.646,0 3,1.354 3,3c0,1.646 -1.354,3 -3,3l-43.12,0c-1.646,0 -3,-1.354 -3,-3c0,-1.646 1.354,-3 3,-3l-0.01,0Zm-118,10.47l21.44,-21.44c-3.228,-3.989 -4.991,-8.967 -4.991,-14.099c0,-12.294 10.117,-22.41 22.41,-22.41c12.294,0 22.41,10.116 22.41,22.41c0,12.294 -10.116,22.41 -22.41,22.41c-4.68,0 -9.244,-1.466 -13.049,-4.191l-21.57,21.57c-0.562,0.563 -1.325,0.879 -2.12,0.88c-0.002,0 -0.005,0 -0.007,0c-1.646,0 -3,-1.354 -3,-3c0,-0.8 0.319,-1.567 0.887,-2.13Zm-110.58,-55.98c0,-1.646 1.354,-3 3,-3l57,0c1.646,0 3,1.354 3,3l0,57c0,1.646 -1.354,3 -3,3l-57,0c-1.646,0 -3,-1.354 -3,-3l0,-57Zm-73.29,-29.35c0,-1.646 1.354,-3 3,-3c1.646,0 3,1.354 3,3l0,103c0,1.646 -1.354,3 -3,3c-1.646,0 -3,-1.354 -3,-3l0,-103Zm-133,27.41l38.16,0c16.847,0 30.71,13.863 30.71,30.71c0,16.847 -13.863,30.71 -30.71,30.71c0,0 0,0 0,0l-38.26,0c-16.847,0 -30.71,-13.863 -30.71,-30.71c0,-16.847 13.863,-30.71 30.71,-30.71l0.1,0Zm-145.87,0l42.07,0c16.847,0 30.71,13.863 30.71,30.71c0,16.847 -13.863,30.71 -30.71,30.71l-42.2,0c0,0 0,0 0,0c-16.847,0 -30.71,-13.863 -30.71,-30.71c0,-16.847 13.863,-30.71 30.71,-30.71l0.13,0Z" style="fill:none;"/><path d="M1208.69,147.44c-0.011,-10.254 -8.446,-18.689 -18.7,-18.7l-4,0l0,37.41l4,0c10.258,-0.011 18.695,-8.452 18.7,-18.71Z" style="fill:none;"/><path d="M678.36,419.21c0,0.003 0,0.007 0,0.01c0,13.561 11.159,24.72 24.72,24.72c13.561,0 24.72,-11.159 24.72,-24.72c0,-13.561 -11.159,-24.72 -24.72,-24.72c-0.003,0 -0.007,0 -0.01,0c-13.549,0.016 -24.694,11.161 -24.71,24.71Z" style="fill:none;"/><path d="M1011.28,59.69c0,-4.281 -3.519,-7.805 -7.8,-7.81l-6.92,0l0,15.61l7.19,0c4.172,-0.155 7.522,-3.625 7.53,-7.8Z" style="fill:none;"/><path d="M611.17,803.84l779.83,0l0,-228.26l-779.83,0l0,228.26Zm673.69,-159.54c24.911,0 45.41,20.499 45.41,45.41c0,24.911 -20.499,45.41 -45.41,45.41c-24.911,0 -45.41,-20.499 -45.41,-45.41c0,-24.911 20.499,-45.41 45.41,-45.41Zm-141.89,0c24.911,0 45.41,20.499 45.41,45.41c0,24.911 -20.499,45.41 -45.41,45.41c-24.911,0 -45.41,-20.499 -45.41,-45.41c0,-24.896 20.474,-45.388 45.37,-45.41l0.04,0Zm-141.89,0c24.911,0 45.41,20.499 45.41,45.41c0,24.911 -20.499,45.41 -45.41,45.41c-24.911,0 -45.41,-20.499 -45.41,-45.41c0,-24.911 20.499,-45.41 45.41,-45.41Zm-141.89,0c24.911,0 45.41,20.499 45.41,45.41c0,24.911 -20.499,45.41 -45.41,45.41c-24.911,0 -45.41,-20.499 -45.41,-45.41c0,-24.911 20.499,-45.41 45.41,-45.41Zm-141.89,0c0.013,0 0.027,0 0.04,0c24.911,0 45.41,20.499 45.41,45.41c0,24.911 -20.499,45.41 -45.41,45.41c-24.911,0 -45.41,-20.499 -45.41,-45.41c0,-24.896 20.474,-45.388 45.37,-45.41Z" style="fill:none;"/><path d="M430.41,680.04l-42.29,0c-18.14,0.314 -32.891,15.322 -32.891,33.465c0,18.143 14.751,33.151 32.891,33.465l42.29,0c18.14,-0.314 32.891,-15.322 32.891,-33.465c0,-18.143 -14.751,-33.151 -32.891,-33.465Z" style="fill:none;"/><path d="M6,805.7l522.1,0l0,-473l-522.1,0l0,473Zm424.41,-52.73l-42.29,0c-21.413,-0.341 -38.842,-18.05 -38.842,-39.465c0,-21.415 17.429,-39.124 38.842,-39.465l42.29,0c21.413,0.341 38.842,18.05 38.842,39.465c0,21.415 -17.429,39.124 -38.842,39.465Zm35.9,-128.38c0,1.646 -1.354,3 -3,3l-111.65,0c-1.646,0 -3,-1.354 -3,-3c0,-1.646 1.354,-3 3,-3l111.65,0c1.646,0 3,1.354 3,3Zm-207.65,-225.15l73.27,0l-7.28,-7.28c-0.517,-0.555 -0.805,-1.286 -0.805,-2.045c0,-1.646 1.354,-3 3,-3c0.759,0 1.49,0.288 2.045,0.805l12.41,12.4l0.12,0.15l0.18,0.21c0.021,0.035 0.044,0.068 0.07,0.1c0.036,0.053 0.066,0.11 0.09,0.17c0.049,0.077 0.093,0.157 0.13,0.24l0.06,0.11c0,0.06 0,0.12 0.05,0.18c0.033,0.085 0.059,0.172 0.08,0.26c0.021,0.088 0,0.07 0,0.12c0,0.05 0,0.12 0,0.18c0.005,0.093 0.005,0.187 0,0.28c-0.005,0.093 0,0.07 0,0.11c0,0.04 0,0.11 0,0.16c0.005,0.093 0.005,0.187 0,0.28c-0.005,0.047 -0.005,0.093 0,0.14c-0.02,0.052 -0.036,0.106 -0.05,0.16c-0.021,0.088 -0.047,0.175 -0.08,0.26c-0.033,0.085 0,0.1 -0.05,0.14c-0.021,0.056 -0.047,0.11 -0.08,0.16l-0.12,0.23c0,0 0,0.09 -0.07,0.13l-0.12,0.15l-0.09,0.13l-11.4,13.4c-0.57,0.672 -1.408,1.06 -2.29,1.06c-0.015,0 -0.029,0 -0.044,0c-1.646,0 -3,-1.354 -3,-3c0,-0.738 0.272,-1.45 0.764,-2l7.19,-8.46l-73.98,0c-1.646,0 -3,-1.354 -3,-3c0,-1.646 1.354,-3 3,-3l0,0.07Zm0,56.77l123.73,0l-4,-3.34c-0.892,-0.76 -1.407,-1.874 -1.407,-3.046c0,-2.194 1.805,-4 4,-4c0.929,0 1.83,0.324 2.547,0.916l12.4,10.38c0.042,0.034 0.082,0.071 0.12,0.11c0.044,0.043 0.091,0.083 0.14,0.12c0.05,0.05 0.09,0.12 0.15,0.18c0.082,0.092 0.159,0.189 0.23,0.29c0.042,0.039 0.079,0.082 0.11,0.13c0.044,0.068 0.084,0.138 0.12,0.21c0.063,0.107 0.119,0.217 0.17,0.33c0.023,0.052 0.049,0.102 0.08,0.15c0,0.08 0.05,0.16 0.07,0.23c0.02,0.07 0.08,0.23 0.11,0.35c0.03,0.12 0,0.11 0,0.17c0.006,0.077 0.006,0.153 0,0.23c0,0.12 0,0.25 0,0.38c0,0.13 0,0.1 0,0.16c0.005,0.067 0.005,0.133 0,0.2c0.01,0.126 0.01,0.254 0,0.38c0.005,0.067 0.005,0.133 0,0.2c0,0.06 0,0.13 0,0.2c0,0.07 -0.07,0.23 -0.11,0.35l-0.06,0.19c0,0.07 -0.07,0.13 -0.1,0.2l-0.17,0.31c0,0.06 -0.06,0.12 -0.1,0.18l-0.15,0.19l-0.11,0.16l-0.11,0.11l-0.12,0.14l-12.39,12.47c-0.743,0.708 -1.731,1.103 -2.758,1.103c-2.194,0 -4,-1.806 -4,-4c0,-1.024 0.393,-2.01 1.098,-2.753l5.58,-5.58l-125.07,0c-2.194,0 -4,-1.806 -4,-4c0,-2.194 1.806,-4 4,-4Zm0,56.77l187.76,0l-3.87,-3.87c-0.936,-0.938 -1.463,-2.21 -1.463,-3.535c0,-2.744 2.259,-5.003 5.003,-5.003c1.328,0 2.602,0.529 3.54,1.468l12.4,12.4l0.2,0.25c0.1,0.12 0.21,0.24 0.3,0.36l0.12,0.16c0.056,0.09 0.106,0.184 0.15,0.28c0.083,0.128 0.157,0.261 0.22,0.4l0.09,0.18c0,0.1 0.06,0.2 0.1,0.31c0.04,0.11 0.09,0.28 0.13,0.42c0.021,0.065 0.038,0.132 0.05,0.2c0,0.1 0,0.21 0,0.31c0.01,0.157 0.01,0.313 0,0.47c0.005,0.063 0.005,0.127 0,0.19l0,0.74c0.005,0.073 0.005,0.147 0,0.22c-0.019,0.091 -0.042,0.181 -0.07,0.27c-0.038,0.149 -0.084,0.296 -0.14,0.44c-0.019,0.075 -0.042,0.148 -0.07,0.22c0,0.1 -0.09,0.18 -0.13,0.27l-0.21,0.39c-0.034,0.07 -0.074,0.137 -0.12,0.2c-0.06,0.09 -0.13,0.17 -0.2,0.26c-0.07,0.09 -0.09,0.14 -0.15,0.21l-11.37,13.4c-0.95,1.117 -2.344,1.761 -3.81,1.761c-2.744,0 -5.001,-2.257 -5.001,-5.001c0,-1.187 0.422,-2.336 1.191,-3.24l4.39,-5.16l-189,0c-2.743,0 -5,-2.257 -5,-5c0,-2.743 2.257,-5 5,-5l-0.04,0.03Zm-194.44,11c0,-1.646 1.354,-3 3,-3l0,-13.96c-1.646,0 -3,-1.354 -3,-3l0,-15.94c0,-1.646 1.354,-3 3,-3l0,-13.93c-1.646,0 -3,-1.354 -3,-3l0,-79.71c0,-1.646 1.354,-3 3,-3l79.71,0c1.646,0 3,1.354 3,3l14,0c0,-1.646 1.354,-3 3,-3l16,0c1.646,0 3,1.354 3,3l13.92,0c0,-1.646 1.354,-3 3,-3l8,0c1.646,0 3,1.354 3,3l0,8c0,1.646 -1.354,3 -3,3l0,13.9c1.646,0 3,1.354 3,3l0,15.94c0,1.646 -1.354,3 -3,3l0,13.93c1.646,0 3,1.354 3,3l0,15.94c0,1.646 -1.354,3 -3,3l0,13.93c1.646,0 3,1.354 3,3l0,15.94c0,1.646 -1.354,3 -3,3l0,13.93c1.646,0 3,1.354 3,3l0,8c0,1.646 -1.354,3 -3,3l-8,0c-1.646,0 -3,-1.354 -3,-3l-14.02,0c0,1.646 -1.354,3 -3,3l-15.9,0c-1.646,0 -3,-1.354 -3,-3l-14,0c0,1.646 -1.354,3 -3,3l-15.91,0c-1.646,0 -3,-1.354 -3,-3l-13.93,0c0,1.646 -1.354,3 -3,3l-15.94,0c-1.646,0 -3,-1.354 -3,-3l-13.93,0c0,1.646 -1.354,3 -3,3l-8,0c-1.646,0 -3,-1.354 -3,-3l0,-7.97Zm3,62.41l103,0c1.646,0 3,1.354 3,3c0,1.646 -1.354,3 -3,3l-103,0c-1.646,0 -3,-1.354 -3,-3c0,-1.646 1.354,-3 3,-3Zm0,35.23l230.43,0c1.646,0 3,1.354 3,3c0,1.646 -1.354,3 -3,3l-230.43,0c-1.646,0 -3,-1.354 -3,-3c0,-1.646 1.354,-3 3,-3Zm36.47,52.45l157.5,0c21.413,0.341 38.842,18.05 38.842,39.465c0,21.415 -17.429,39.124 -38.842,39.465l-157.5,0c-0.209,0.003 -0.419,0.005 -0.628,0.005c-21.653,0 -39.47,-17.817 -39.47,-39.47c0,-21.653 17.817,-39.47 39.47,-39.47c0.209,0 0.419,0.002 0.628,0.005Z" style="fill:none;"/><path d="M733.79,419.21c-0.001,9.748 -4.648,18.934 -12.5,24.71l23.84,0c13.556,0 24.71,-11.154 24.71,-24.71c0,-13.556 -11.154,-24.71 -24.71,-24.71l-23.84,0c7.85,5.778 12.496,14.963 12.5,24.71Z" style="fill:none;"/><path d="M1193.65,422.82c0.154,0.159 0.291,0.334 0.41,0.52c2.951,2.472 6.681,3.828 10.531,3.828c8.996,0 16.4,-7.404 16.4,-16.4c0,-8.997 -7.404,-16.4 -16.4,-16.4c-8.997,0 -16.4,7.403 -16.4,16.4c0,4.336 1.719,8.5 4.779,11.572c0.247,0.129 0.475,0.291 0.68,0.48Z" style="fill:none;"/><path d="M1043.86,91.29c4.85,0 8.79,-5 8.79,-11.11c0,-6.11 -3.94,-11.11 -8.79,-11.11c-4.85,0 -8.79,5 -8.79,11.11c0,6.11 3.95,11.11 8.79,11.11Z" style="fill:none;"/><path d="M912.73,58.44l-6.22,17.91l12.36,0l-6.14,-17.91Z" style="fill:none;"/><path d="M951.1,165.6c2.72,-0.75 5,-2.44 5.81,-4.32l0,-2.33c-0.08,-0.09 -0.18,-0.16 -0.26,-0.26c-1.299,-1.252 -3.07,-1.895 -4.87,-1.77c-1.014,0 -2.023,0.138 -3,0.41c-4.09,1.12 -6.54,4.15 -6,6.11c0.54,1.96 4.23,3.28 8.32,2.16Z" style="fill:none;"/><path d="M1010.28,135.52c0,-3.732 -3.068,-6.805 -6.8,-6.81l-5.92,0l0,13.61l6.15,0c3.639,-0.133 6.562,-3.159 6.57,-6.8Z" style="fill:none;"/><path d="M1013.69,158.22c-0.005,-4.332 -3.568,-7.895 -7.9,-7.9l-8.23,0l0,15.8l8.23,0c4.33,-0.011 7.889,-3.57 7.9,-7.9Z" style="fill:none;"/><path d="M957.44,82.19c-1.36,-1.68 -4.85,-2.79 -8.87,-1.7c-2.175,0.55 -4.128,1.759 -5.59,3.46c-0.956,1.048 -1.371,2.484 -1.12,3.88c0.76,2.77 5.11,4.1 9.51,2.9c3,-0.83 5.51,-2.7 6.46,-4.88l0.1,-0.2l0,-3c-0.177,-0.138 -0.341,-0.292 -0.49,-0.46Z" style="fill:none;"/><path d="M845.83,213l545.17,0l0,-207l-545.17,0l0,207Zm483.27,-46.88c2.922,0.001 5.726,-1.162 7.79,-3.23c0.743,-0.705 1.729,-1.098 2.753,-1.098c2.194,0 4,1.806 4,4c0,1.027 -0.395,2.015 -1.103,2.758c-3.563,3.571 -8.405,5.58 -13.45,5.58c-10.423,0 -19,-8.577 -19,-19l0,-0.02c0,-9.222 7.588,-16.81 16.81,-16.81c9.222,0 16.81,7.588 16.81,16.81c0,0 0,0 0,0c0,2.194 -1.806,4 -4,4l-20.86,0c1.641,4.217 5.725,7.01 10.25,7.01Zm-2.17,-102.68c8.671,0.005 15.805,7.139 15.81,15.81c0,1.646 -1.354,3 -3,3l-22.23,0c1.361,5.285 6.164,9.008 11.621,9.008c3.183,0 6.239,-1.266 8.489,-3.518c0.563,-0.564 1.328,-0.882 2.125,-0.882c1.647,0 3.002,1.355 3.002,3.002c0,0.795 -0.316,1.557 -0.877,2.12c-3.376,3.388 -7.967,5.294 -12.75,5.294c-9.875,0 -18,-8.125 -18,-18c0,-0.008 0,-0.016 0,-0.024c0.005,-8.671 7.139,-15.805 15.81,-15.81Zm-46.91,8.29l0,-22.5c0,-1.646 1.354,-3 3,-3l23.5,0c1.646,0 3,1.354 3,3c0,1.646 -1.354,3 -3,3l-20.5,0l0,16.53l14.69,0c1.646,0 3,1.354 3,3c0,1.646 -1.354,3 -3,3l-14.69,0l0,16.53l20.5,0c1.646,0 3,1.354 3,3c0,1.646 -1.354,3 -3,3l-23.5,0c-1.646,0 -3,-1.354 -3,-3l0,-22.56Zm-1,75.83l0,-22.5c0,-2.194 1.806,-4 4,-4l23.5,0c2.194,0 4,1.806 4,4c0,2.194 -1.806,4 -4,4l-19.5,0l0,14.53l13.69,0c2.194,0 4,1.806 4,4c0,2.194 -1.806,4 -4,4l-13.69,0l0,14.53l19.5,0c2.194,0 4,1.806 4,4c0,2.194 -1.806,4 -4,4l-23.5,0c-2.194,0 -4,-1.806 -4,-4l0,-22.56Zm-41.62,-84.52c3.424,0.034 6.711,1.368 9.19,3.73l0,-17.54c0,-1.646 1.354,-3 3,-3c1.646,0 3,1.354 3,3l0,45.06c0,1.646 -1.354,3 -3,3c-1.646,0 -3,-1.354 -3,-3l0,-0.73c-2.479,2.362 -5.766,3.696 -9.19,3.73c-8.16,0 -14.79,-7.68 -14.79,-17.11c0,-9.43 6.6,-17.11 14.76,-17.11l0.03,-0.03Zm0,74.83c2.939,0.016 5.802,0.945 8.19,2.66l0,-15.5c0,-2.194 1.806,-4 4,-4c2.194,0 4,1.806 4,4l0,45.06c-0.026,2.176 -1.824,3.952 -4,3.952c-1.723,0 -3.262,-1.114 -3.8,-2.752c-2.429,1.799 -5.368,2.78 -8.39,2.8c-8.71,0 -15.79,-8.12 -15.79,-18.11c0,-9.99 7.05,-18.08 15.76,-18.08l0.03,-0.03Zm-58.39,-89c0,-1.646 1.354,-3 3,-3l8,0c13.91,0.274 25.203,11.792 25.203,25.705c0,13.913 -11.293,25.431 -25.203,25.705l-8,0c-1.646,0 -3,-1.354 -3,-3l0,-45.41Zm-1,75.83c0,-2.194 1.806,-4 4,-4l8,0c14.455,0.28 26.193,12.247 26.193,26.705c0,14.458 -11.738,26.425 -26.193,26.705l-8,0c-2.194,0 -4,-1.806 -4,-4l0,-45.41Zm-32.8,-62.9c4.208,0.018 8.245,1.685 11.24,4.64c0.58,0.565 0.907,1.341 0.907,2.15c0,1.647 -1.355,3.002 -3.002,3.002c-0.782,0 -1.535,-0.306 -2.095,-0.852c-1.86,-1.854 -4.374,-2.91 -7,-2.94c-5.88,0 -10.65,5.26 -10.65,11.74c0,6.48 4.77,11.74 10.65,11.74c2.626,-0.034 5.137,-1.089 7,-2.94c0.566,-0.59 1.349,-0.925 2.166,-0.925c1.646,0 3,1.355 3,3c0,0.842 -0.354,1.647 -0.976,2.215c-2.991,2.963 -7.03,4.634 -11.24,4.65c-9.18,0 -16.65,-8 -16.65,-17.74c0,-9.74 7.44,-17.73 16.62,-17.73l0.03,-0.01Zm0,74.83c4.469,0.011 8.757,1.783 11.93,4.93c0.811,0.756 1.273,1.817 1.273,2.926c0,2.194 -1.806,4 -4,4c-1.073,0 -2.101,-0.431 -2.853,-1.196c-1.685,-1.685 -3.967,-2.641 -6.35,-2.66c-5.32,0 -9.65,4.82 -9.65,10.74c0,5.92 4.33,10.74 9.65,10.74c2.383,-0.019 4.665,-0.975 6.35,-2.66c0.752,-0.765 1.78,-1.196 2.853,-1.196c2.194,0 4,1.806 4,4c0,1.109 -0.462,2.17 -1.273,2.926c-3.173,3.147 -7.461,4.919 -11.93,4.93c-9.73,0 -17.65,-8.41 -17.65,-18.74c0,-10.33 7.89,-18.73 17.62,-18.73l0.03,-0.01Zm-38.17,-90.62c6.046,0.023 11.846,2.424 16.14,6.68c0.58,0.565 0.907,1.341 0.907,2.15c0,1.647 -1.355,3.002 -3.002,3.002c-0.782,0 -1.535,-0.306 -2.095,-0.852c-3.185,-3.18 -7.499,-4.978 -12,-5c-9.9,0 -18,8.81 -18,19.64c0,10.83 8.06,19.63 18,19.63c4.501,-0.022 8.815,-1.82 12,-5c0.56,-0.546 1.313,-0.852 2.095,-0.852c1.647,0 3.002,1.355 3.002,3.002c0,0.809 -0.327,1.585 -0.907,2.15c-4.294,4.256 -10.094,6.657 -16.14,6.68c-13.21,0 -24,-11.5 -24,-25.63c0,-14.13 10.76,-25.59 23.97,-25.59l0.03,-0.01Zm0,74.83c6.31,0.029 12.36,2.546 16.83,7c0.856,0.759 1.346,1.849 1.346,2.993c0,2.194 -1.805,4 -4,4c-1.109,0 -2.17,-0.461 -2.926,-1.273c-2.99,-2.975 -7.032,-4.66 -11.25,-4.69c-9.35,0 -17,8.36 -17,18.64c0,10.28 7.61,18.63 17,18.63c4.218,-0.03 8.26,-1.715 11.25,-4.69c0.752,-0.765 1.78,-1.196 2.853,-1.196c2.194,0 4,1.806 4,4c0,1.109 -0.462,2.17 -1.273,2.926c-4.47,4.454 -10.52,6.971 -16.83,7c-13.76,0 -25,-11.95 -25,-26.63c0,-14.68 11.21,-26.7 24.97,-26.7l0.03,-0.01Zm-78.34,-71.62c0,-1.646 1.354,-3 3,-3c1.646,0 3,1.354 3,3l0,17.57c2.479,-2.362 5.766,-3.696 9.19,-3.73c8.16,0 14.79,7.68 14.79,17.11c0,9.43 -6.63,17.11 -14.79,17.11c-3.424,-0.034 -6.711,-1.368 -9.19,-3.73l0,0.73c0,1.646 -1.354,3 -3,3c-1.646,0 -3,-1.354 -3,-3l0,-45.06Zm-1,75.83c0,-2.194 1.806,-4 4,-4c2.194,0 4,1.806 4,4l0,15.5c2.388,-1.715 5.251,-2.644 8.19,-2.66c8.71,0 15.79,8.13 15.79,18.11c0,9.98 -7.08,18.11 -15.79,18.11c-3.022,-0.02 -5.961,-1.001 -8.39,-2.8c-0.538,1.638 -2.077,2.752 -3.8,2.752c-2.176,0 -3.974,-1.776 -4,-3.952l0,-45.06Zm-37.11,-76.18c0,-1.646 1.354,-3 3,-3l9.92,0c0.001,0 0.003,0 0.004,0c7.57,0 13.8,6.23 13.8,13.8c0,3.674 -1.467,7.2 -4.074,9.79c4.62,2.654 7.478,7.592 7.478,12.92c0,8.173 -6.725,14.899 -14.898,14.9l-12.23,0c-1.646,0 -3,-1.354 -3,-3l0,-45.41Zm-1,75.83c0,-2.194 1.806,-4 4,-4l9.92,0c8.119,0.008 14.796,6.691 14.796,14.81c0,3.508 -1.247,6.905 -3.516,9.58c4.321,2.96 6.911,7.872 6.911,13.11c0,8.717 -7.173,15.89 -15.89,15.89c-0.007,0 -0.014,0 -0.021,0l-12.23,0c-2.194,0 -4,-1.806 -4,-4l0.03,-45.39Zm-34.89,-57.15c-5.55,-1.84 -12.94,2.29 -13,2.34c-0.456,0.263 -0.973,0.402 -1.5,0.402c-1.647,0 -3.002,-1.355 -3.002,-3.002c0,-1.071 0.574,-2.065 1.502,-2.6c0.39,-0.23 9.73,-5.54 17.9,-2.84c4.431,1.489 7.421,5.686 7.38,10.36l0,22.07c0,1.646 -1.354,3 -3,3c-1.646,0 -3,-1.354 -3,-3c-1.547,0.979 -3.233,1.721 -5,2.2c-1.587,0.437 -3.224,0.663 -4.87,0.67c-5.81,0 -10.69,-3 -12,-7.78c-0.782,-3.246 0.045,-6.677 2.22,-9.21c2.253,-2.692 5.292,-4.612 8.69,-5.49c3.626,-1.067 7.511,-0.855 11,0.6l0,-3.09c0.003,-2.098 -1.355,-3.971 -3.35,-4.62l0.03,-0.01Zm-8,82c3.343,-0.946 6.89,-0.905 10.21,0.12l0,-1.64c0.016,-1.652 -1.018,-3.144 -2.57,-3.71c-4.29,-1.42 -10.27,1.15 -12.22,2.26c-0.608,0.351 -1.298,0.536 -2,0.536c-2.195,0 -4.001,-1.806 -4.001,-4.001c0,-1.428 0.764,-2.751 2.001,-3.465c1,-0.6 10.27,-5.73 18.72,-2.93c4.835,1.629 8.099,6.208 8.06,11.31l0,22.07c-0.011,2.186 -1.813,3.979 -4,3.979c-1.591,0 -3.037,-0.949 -3.67,-2.409c-2.822,1.511 -5.97,2.311 -9.17,2.33c-6.27,0 -11.54,-3.25 -13,-8.51c-1.77,-6.64 3.33,-13.64 11.66,-15.92l-0.02,-0.02Zm-52.44,-56.26l15.67,-45.04c0.423,-1.196 1.561,-2.001 2.83,-2c1.269,-0.001 2.407,0.804 2.83,2l15.43,45.06c0.107,0.312 0.161,0.64 0.161,0.97c0,1.646 -1.355,3.001 -3.001,3.001c-1.28,0 -2.426,-0.819 -2.84,-2.031l-4.41,-12.9l-16.5,0l-4.5,12.92c-0.423,1.199 -1.563,2.006 -2.835,2.006c-1.649,0 -3.006,-1.357 -3.006,-3.006c0,-0.341 0.058,-0.679 0.171,-1l0,0.02Zm-0.95,75.5l15.62,-45.04c0.557,-1.606 2.08,-2.69 3.78,-2.69c1.699,0.005 3.218,1.093 3.77,2.7l15.45,45.06c0.144,0.418 0.217,0.858 0.217,1.3c0,2.195 -1.807,4.002 -4.002,4.002c-1.705,0 -3.231,-1.09 -3.785,-2.702l-4.19,-12.23l-15.07,0l-4.17,12.25c-0.557,1.606 -2.08,2.69 -3.78,2.69c-0.446,0 -0.889,-0.074 -1.31,-0.22c-1.626,-0.545 -2.73,-2.078 -2.73,-3.793c0,-0.445 0.075,-0.887 0.22,-1.307l-0.02,-0.02Z" style="fill:none;"/><path d="M912.73,137.33l-4.81,13.86l9.55,0l-4.74,-13.86Z" style="fill:none;"/><path d="M1014.69,82.44c-0.005,-4.88 -4.02,-8.895 -8.9,-8.9l-9.23,0l0,17.8l9.23,0c4.88,-0.005 8.895,-4.02 8.9,-8.9Z" style="fill:none;"/><path d="M216,216l0,-10l0,-173l-30,-30l0,183l-183,0l30,30l183,0Z" style="fill:#2a1210;fill-rule:nonzero;"/><rect x="3" y="3" width="183" height="183" style="fill:#1580f2;"/><path d="M645.67,33l-40,-30l91.5,183l-183,0l30,30l193,0l-91.5,-183Z" style="fill:#2a1210;fill-rule:nonzero;"/><path d="M605.67,3l-91.5,183l183,0l-91.5,-183Z" style="fill:#f37a78;fill-rule:nonzero;"/><path d="M352.58,186c-24.264,0.031 -47.565,-9.621 -64.7,-26.8l28.24,28.18c1.193,1.26 2.42,2.487 3.68,3.68l0.11,0.1c16.839,15.314 38.801,23.807 61.562,23.807c50.195,0 91.5,-41.305 91.5,-91.5c0,-24.556 -9.885,-48.107 -27.412,-65.307l-26.47,-26.47c16.044,16.981 24.991,39.478 24.991,62.84c0,50.195 -41.304,91.5 -91.5,91.5c0,0 -0.001,0 -0.001,0l0,-0.03Z" style="fill:#2a1210;fill-rule:nonzero;"/><path d="M352.58,186c0,0 0,0 0.001,0c50.195,0 91.5,-41.305 91.5,-91.5c0,-50.195 -41.305,-91.5 -91.5,-91.5c-50.196,0 -91.5,41.305 -91.5,91.5c0,24.258 9.646,47.547 26.799,64.7c17.153,17.153 40.442,26.8 64.7,26.8Z" style="fill:#9eb1db;fill-rule:nonzero;"/><path d="M714.138,644.333c24.999,-1.779 46.739,17.073 48.518,42.072c1.779,24.999 -17.073,46.74 -42.072,48.519c-24.999,1.778 -46.74,-17.074 -48.519,-42.073c-1.778,-24.999 17.074,-46.74 42.073,-48.518Z" style="fill:#2a1210;"/><path d="M817.237,672.335c9.591,-23.155 36.176,-34.167 59.331,-24.576c23.154,9.591 34.166,36.177 24.576,59.331c-9.591,23.155 -36.177,34.167 -59.332,24.576c-23.154,-9.591 -34.166,-36.176 -24.575,-59.331Z" style="fill:#453b69;"/><path d="M997.922,644.311c24.999,-1.778 46.74,17.074 48.519,42.073c1.778,24.999 -17.074,46.739 -42.073,48.518c-24.999,1.779 -46.74,-17.073 -48.518,-42.072c-1.779,-24.999 17.073,-46.74 42.072,-48.519Z" style="fill:#9eb1db;"/><circle cx="1142.97" cy="689.71" r="45.41" style="fill:#1580f2;"/><path d="M1281.7,644.28c25,-1.779 46.74,17.073 48.519,42.073c1.779,24.999 -17.073,46.739 -42.073,48.518c-24.999,1.779 -46.739,-17.073 -48.518,-42.073c-1.779,-24.999 17.073,-46.739 42.072,-48.518Z" style="fill:#f37a78;"/><path d="M1394,0l-551.17,0c-1.646,0 -3,1.354 -3,3l0,213c0,1.646 1.354,3 3,3l551.17,0c1.646,0 3,-1.354 3,-3l0,-213c0,-1.646 -1.354,-3 -3,-3Zm-3,213l-545.17,0l0,-207l545.17,0l0,207Z" style="fill:#1580f2;fill-rule:nonzero;"/><path d="M1394,326.68l-785.83,0c-1.646,0 -3,1.354 -3,3l0,165.83c0,1.646 1.354,3 3,3l785.83,0c1.646,0 3,-1.354 3,-3l0,-165.83c0,-1.646 -1.354,-3 -3,-3Zm-3,165.83l-779.83,0l0,-159.83l779.83,0l0,159.83Z" style="fill:#1580f2;fill-rule:nonzero;"/><path d="M1394,569.58l-785.83,0c-1.646,0 -3,1.354 -3,3l0,234.26c0,1.646 1.354,3 3,3l785.83,0c1.646,0 3,-1.354 3,-3l0,-234.26c0,-1.646 -1.354,-3 -3,-3Zm-3,234.26l-779.83,0l0,-228.26l779.83,0l0,228.26Z" style="fill:#1580f2;fill-rule:nonzero;"/><path d="M531.1,326.68l-528.1,0c-1.646,0 -3,1.354 -3,3l0,479c0,1.646 1.354,3 3,3l528.1,0c1.646,0 3,-1.354 3,-3l0,-479c0,-1.646 -1.354,-3 -3,-3Zm-3,479l-522.1,0l0,-473l522.1,0l0,473Z" style="fill:#1580f2;fill-rule:nonzero;"/><path d="M70.22,523.95l0,5l5,0c1.646,0 3,1.354 3,3l13.93,0c0,-1.646 1.354,-3 3,-3l15.94,0c1.646,0 3,1.354 3,3l13.93,0c0,-1.646 1.354,-3 3,-3l15.91,0c1.646,0 3,1.354 3,3l14,0c0,-1.646 1.354,-3 3,-3l16,0c1.646,0 3,1.354 3,3l13.92,0c0,-1.646 1.354,-3 3,-3l5,0l0,-5c0,-1.646 1.354,-3 3,-3l0,-13.93c-1.646,0 -3,-1.354 -3,-3l0,-15.94c0,-1.646 1.354,-3 3,-3l0,-13.93c-1.646,0 -3,-1.354 -3,-3l0,-15.94c0,-1.646 1.354,-3 3,-3l0,-13.93c-1.646,0 -3,-1.354 -3,-3l0,-15.94c0,-1.646 1.354,-3 3,-3l0,-13.9c-1.646,0 -3,-1.354 -3,-3l0,-5l-5,0c-1.646,0 -3,-1.354 -3,-3l-14.02,0c0,1.646 -1.354,3 -3,3l-15.9,0c-1.646,0 -3,-1.354 -3,-3l-14,0c0,1.646 -1.354,3 -3,3l-4.89,0l0,68.85c0,1.646 -1.354,3 -3,3l-68.82,0l0,4.89c0,1.646 -1.354,3 -3,3l0,13.93c1.646,0 3,1.354 3,3l0,15.94c0,1.646 -1.354,3 -3,3l0,13.93c1.634,0 2.984,1.336 3,2.97Z" style="fill:#fff;fill-rule:nonzero;"/><path d="M207.76,523.95l0,5l-5,0c-1.646,0 -3,1.354 -3,3c0,1.646 1.354,3 3,3l8,0c1.646,0 3,-1.354 3,-3l0,-8c0,-1.646 -1.354,-3 -3,-3c-1.646,0 -3,1.354 -3,3Z" style="fill:#1580f2;fill-rule:nonzero;"/><path d="M146.93,528.95l-15.91,0c-1.646,0 -3,1.354 -3,3c0,1.646 1.354,3 3,3l15.91,0c1.646,0 3,-1.354 3,-3c0,-1.646 -1.354,-3 -3,-3Z" style="fill:#1580f2;fill-rule:nonzero;"/><path d="M182.84,528.95l-15.91,0c-1.646,0 -3,1.354 -3,3c0,1.646 1.354,3 3,3l16,0c1.646,0 3,-1.354 3,-3c0,0 0,-0.001 0,-0.001c0,-1.646 -1.354,-3 -3,-3c-0.03,0 -0.06,0 -0.09,0.001Z" style="fill:#1580f2;fill-rule:nonzero;"/><path d="M111.09,528.95l-15.94,0c-1.646,0 -3,1.354 -3,3c0,1.646 1.354,3 3,3l15.94,0c1.646,0 3,-1.354 3,-3c0,-1.646 -1.354,-3 -3,-3Z" style="fill:#1580f2;fill-rule:nonzero;"/><path d="M67.22,534.95l8,0c1.646,0 3,-1.354 3,-3c0,-1.646 -1.354,-3 -3,-3l-5,0l0,-5c0,-1.646 -1.354,-3 -3,-3c-1.646,0 -3,1.354 -3,3l0,8c0,1.646 1.354,3 3,3Z" style="fill:#1580f2;fill-rule:nonzero;"/><path d="M70.22,468.15l0,-4.89l68.85,0c1.646,0 3,-1.354 3,-3l0,-68.82l4.86,0c1.646,0 3,-1.354 3,-3c0,-1.646 -1.354,-3 -3,-3l-79.71,0c-1.646,0 -3,1.354 -3,3l0,79.74c0,1.646 1.354,3 3,3c0,0 0,0 0,0c1.646,0 3,-1.354 3,-3c0,-0.01 0,-0.02 0,-0.03Zm0,-15.94l0,-60.77l65.85,0l0,65.85l-65.85,0l0,-5.08Z" style="fill:#1580f2;fill-rule:nonzero;"/><path d="M70.22,488.08c0,-1.656 -1.344,-3 -3,-3c-1.656,0 -3,1.344 -3,3l0,15.94c0,1.656 1.344,3 3,3c1.656,0 3,-1.344 3,-3l0,-15.94Z" style="fill:#1580f2;"/><path d="M166.93,391.44l16,0c1.646,0 3,-1.354 3,-3c0,-1.646 -1.354,-3 -3,-3l-16,0c-1.646,0 -3,1.354 -3,3c0,1.646 1.354,3 3,3Z" style="fill:#1580f2;fill-rule:nonzero;"/><path d="M202.76,391.44l5,0l0,5c0,1.646 1.354,3 3,3c1.646,0 3,-1.354 3,-3l0,-8c0,-1.646 -1.354,-3 -3,-3l-8,0c-1.646,0 -3,1.354 -3,3c0,1.646 1.354,3 3,3Z" style="fill:#1580f2;fill-rule:nonzero;"/><path d="M213.76,488.08c0,-1.656 -1.344,-3 -3,-3c-1.656,0 -3,1.344 -3,3l0,15.94c0,1.656 1.344,3 3,3c1.656,0 3,-1.344 3,-3l0,-15.94Z" style="fill:#1580f2;"/><path d="M213.76,452.21c0,-1.656 -1.344,-3 -3,-3c-1.656,0 -3,1.344 -3,3l0,15.94c0,1.656 1.344,3 3,3c1.656,0 3,-1.344 3,-3l0,-15.94Z" style="fill:#1580f2;"/><path d="M213.76,416.34c0,-1.656 -1.344,-3 -3,-3c-1.656,0 -3,1.344 -3,3l0,15.94c0,1.656 1.344,3 3,3c1.656,0 3,-1.344 3,-3l0,-15.94Z" style="fill:#1580f2;"/><path d="M136.07,391.41l-5.05,0l-19.93,0l-15.94,0l-19.93,0l-5,0l0,65.85l65.85,0l0,-65.85Z" style="fill:#fff;fill-rule:nonzero;"/><path d="M67.22,592.36l103,0c1.646,0 3,-1.354 3,-3c0,-1.646 -1.354,-3 -3,-3l-103,0c-1.646,0 -3,1.354 -3,3c0,1.646 1.354,3 3,3Z" style="fill:#1580f2;fill-rule:nonzero;"/><path d="M67.22,627.59l230.43,0c1.646,0 3,-1.354 3,-3c0,-1.646 -1.354,-3 -3,-3l-230.43,0c-1.646,0 -3,1.354 -3,3c0,1.646 1.354,3 3,3Z" style="fill:#1580f2;fill-rule:nonzero;"/><path d="M351.66,621.59c-1.646,0 -3,1.354 -3,3c0,1.646 1.354,3 3,3l111.65,0c1.646,0 3,-1.354 3,-3c0,-1.646 -1.354,-3 -3,-3l-111.65,0Z" style="fill:#1580f2;fill-rule:nonzero;"/><path d="M103.69,752.97l157.5,0c21.413,-0.341 38.842,-18.05 38.842,-39.465c0,-21.415 -17.429,-39.124 -38.842,-39.465l-157.5,0c-0.209,-0.003 -0.419,-0.005 -0.628,-0.005c-21.653,0 -39.47,17.817 -39.47,39.47c0,21.653 17.817,39.47 39.47,39.47c0.209,0 0.419,-0.002 0.628,-0.005Z" style="fill:#1580f2;fill-rule:nonzero;"/><path d="M430.41,674.04l-42.29,0c-21.413,0.341 -38.842,18.05 -38.842,39.465c0,21.415 17.429,39.124 38.842,39.465l42.29,0c21.413,-0.341 38.842,-18.05 38.842,-39.465c0,-21.415 -17.429,-39.124 -38.842,-39.465Zm0,72.93l-42.29,0c-18.14,-0.314 -32.891,-15.322 -32.891,-33.465c0,-18.143 14.751,-33.151 32.891,-33.465l42.29,0c18.14,0.314 32.891,15.322 32.891,33.465c0,18.143 -14.751,33.151 -32.891,33.465Z" style="fill:#1580f2;fill-rule:nonzero;"/><path d="M258.66,522.95l189,0l-4.39,5.16c-0.769,0.904 -1.191,2.053 -1.191,3.24c0,2.744 2.257,5.001 5.001,5.001c1.466,0 2.86,-0.644 3.81,-1.761l11.4,-13.4c0.06,-0.07 0.1,-0.14 0.15,-0.21c0.05,-0.07 0.14,-0.17 0.2,-0.26c0.046,-0.063 0.086,-0.13 0.12,-0.2l0.21,-0.39c0,-0.09 0.09,-0.17 0.13,-0.27c0.028,-0.072 0.051,-0.145 0.07,-0.22c0.056,-0.144 0.102,-0.291 0.14,-0.44c0.028,-0.089 0.051,-0.179 0.07,-0.27c0.005,-0.073 0.005,-0.147 0,-0.22l0,-0.74c0.005,-0.063 0.005,-0.127 0,-0.19c0.01,-0.157 0.01,-0.313 0,-0.47c0,-0.1 0,-0.21 0,-0.31c-0.012,-0.068 -0.029,-0.135 -0.05,-0.2c0,-0.14 -0.08,-0.28 -0.13,-0.42c-0.05,-0.14 -0.06,-0.21 -0.1,-0.31l-0.09,-0.18c-0.063,-0.139 -0.137,-0.272 -0.22,-0.4c-0.044,-0.096 -0.094,-0.19 -0.15,-0.28l-0.12,-0.16c-0.09,-0.12 -0.2,-0.24 -0.3,-0.36l-0.2,-0.25l-12.4,-12.4c-0.938,-0.939 -2.212,-1.468 -3.54,-1.468c-2.744,0 -5.003,2.259 -5.003,5.003c0,1.325 0.527,2.597 1.463,3.535l3.87,3.87l-187.75,0c-2.743,0 -5,2.257 -5,5c0,2.743 2.257,5 5,5l0,-0.03Z" style="fill:#1580f2;fill-rule:nonzero;"/><path d="M258.66,464.18l125.07,0l-5.58,5.58c-0.705,0.743 -1.098,1.729 -1.098,2.753c0,2.194 1.806,4 4,4c1.027,0 2.015,-0.395 2.758,-1.103l12.4,-12.4l0.12,-0.14l0.11,-0.11l0.11,-0.16l0.15,-0.19c0,-0.06 0.06,-0.12 0.1,-0.18l0.17,-0.31c0,-0.07 0.07,-0.13 0.1,-0.2l0.06,-0.19c0,-0.12 0.08,-0.24 0.11,-0.35c0.03,-0.11 0,-0.14 0,-0.2c0.005,-0.067 0.005,-0.133 0,-0.2c0.01,-0.126 0.01,-0.254 0,-0.38c0.005,-0.067 0.005,-0.133 0,-0.2l0,-0.54c0.006,-0.077 0.006,-0.153 0,-0.23c0,-0.06 0,-0.11 0,-0.17c0,-0.06 -0.07,-0.23 -0.11,-0.35c-0.04,-0.12 0,-0.15 -0.07,-0.23c-0.031,-0.048 -0.057,-0.098 -0.08,-0.15c-0.051,-0.113 -0.107,-0.223 -0.17,-0.33c-0.036,-0.072 -0.076,-0.142 -0.12,-0.21c-0.031,-0.048 -0.068,-0.091 -0.11,-0.13c-0.071,-0.101 -0.148,-0.198 -0.23,-0.29c-0.06,-0.06 -0.1,-0.13 -0.15,-0.18c-0.049,-0.037 -0.096,-0.077 -0.14,-0.12c-0.038,-0.039 -0.078,-0.076 -0.12,-0.11l-12.4,-10.41c-0.717,-0.592 -1.618,-0.916 -2.547,-0.916c-2.195,0 -4,1.806 -4,4c0,1.172 0.515,2.286 1.407,3.046l4,3.34l-123.74,0c-2.194,0 -4,1.806 -4,4c0,2.194 1.806,4 4,4l0,-0.04Z" style="fill:#1580f2;fill-rule:nonzero;"/><path d="M258.66,405.44l74.06,0l-7.19,8.46c-0.462,0.543 -0.716,1.232 -0.716,1.945c0,1.646 1.355,3.001 3.001,3.001c0.879,0 1.715,-0.387 2.285,-1.056l11.4,-13.4l0.09,-0.13l0.12,-0.15c0,0 0,-0.09 0.07,-0.13l0.12,-0.23c0.033,-0.05 0.059,-0.104 0.08,-0.16c0.021,-0.056 0,-0.09 0.05,-0.14c0.033,-0.085 0.059,-0.172 0.08,-0.26c0.014,-0.054 0.03,-0.108 0.05,-0.16c-0.005,-0.047 -0.005,-0.093 0,-0.14c0.005,-0.093 0.005,-0.187 0,-0.28c-0.005,-0.093 0,-0.1 0,-0.16c0,-0.06 0,-0.07 0,-0.11c0.005,-0.093 0.005,-0.187 0,-0.28l0,-0.3c-0.021,-0.088 -0.047,-0.175 -0.08,-0.26c0,-0.06 0,-0.12 -0.05,-0.18l-0.06,-0.11c-0.037,-0.083 -0.081,-0.163 -0.13,-0.24c-0.024,-0.06 -0.054,-0.117 -0.09,-0.17c-0.026,-0.032 -0.049,-0.065 -0.07,-0.1l-0.18,-0.21l-0.12,-0.15l-12.45,-12.45c-0.555,-0.517 -1.286,-0.805 -2.045,-0.805c-1.646,0 -3,1.354 -3,3c0,0.759 0.288,1.49 0.805,2.045l7.24,7.31l-73.27,0c-1.646,0 -3,1.354 -3,3c0,1.646 1.354,3 3,3Z" style="fill:#1580f2;fill-rule:nonzero;"/><path d="M702.93,449.92l42.2,0c16.847,0 30.71,-13.863 30.71,-30.71c0,-16.847 -13.863,-30.71 -30.71,-30.71l-42.2,0c0,0 0,0 0,0c-16.847,0 -30.71,13.863 -30.71,30.71c0,16.847 13.863,30.71 30.71,30.71c0,0 0,0 0,0Zm42.17,-55.42c13.556,0 24.71,11.154 24.71,24.71c0,13.556 -11.154,24.71 -24.71,24.71l-23.81,0c7.854,-5.775 12.502,-14.961 12.502,-24.71c0,-9.749 -4.648,-18.935 -12.502,-24.71l23.81,0Zm-17.34,24.71c0,0.003 0,0.007 0,0.01c0,13.561 -11.159,24.72 -24.72,24.72c-13.561,0 -24.72,-11.159 -24.72,-24.72c0,-13.561 11.159,-24.72 24.72,-24.72c13.564,-0.005 24.734,11.146 24.75,24.71l-0.03,0Z" style="fill:#1580f2;fill-rule:nonzero;"/><path d="M848.83,449.92l38.16,0c16.847,0 30.71,-13.863 30.71,-30.71c0,-16.847 -13.863,-30.71 -30.71,-30.71c0,0 0,0 0,0l-38.16,0c-16.847,0 -30.71,13.863 -30.71,30.71c0,16.847 13.863,30.71 30.71,30.71Zm62.88,-30.71c0,0.003 0,0.007 0,0.01c0,13.561 -11.159,24.72 -24.72,24.72c-13.561,0 -24.72,-11.159 -24.72,-24.72c0,-13.561 11.159,-24.72 24.72,-24.72c13.553,0.011 24.704,11.157 24.72,24.71Z" style="fill:#1580f2;fill-rule:nonzero;"/><path d="M862.28,419.21c0,0.003 0,0.007 0,0.01c0,13.561 11.159,24.72 24.72,24.72c13.561,0 24.72,-11.159 24.72,-24.72c0,-13.561 -11.159,-24.72 -24.72,-24.72c-0.003,0 -0.007,0 -0.01,0c-13.549,0.016 -24.694,11.161 -24.71,24.71Z" style="fill:#fff;fill-rule:nonzero;"/><path d="M1167.93,451.52c0.795,-0.001 1.558,-0.317 2.12,-0.88l21.57,-21.57c3.83,2.747 8.426,4.226 13.139,4.226c12.365,0 22.54,-10.175 22.54,-22.54c0,-12.365 -10.175,-22.54 -22.54,-22.54c-12.365,0 -22.54,10.175 -22.54,22.54c0,5.167 1.777,10.18 5.031,14.194l-21.41,21.49c-0.568,0.563 -0.887,1.33 -0.887,2.13c0,1.646 1.354,3 3,3c0.002,0 0.005,0 0.007,0l-0.03,-0.05Zm36.75,-57.08c0.014,0 0.028,0 0.043,0c9.013,0 16.43,7.417 16.43,16.43c0,9.013 -7.417,16.43 -16.43,16.43c-3.908,0 -7.69,-1.394 -10.663,-3.93c-0.119,-0.186 -0.256,-0.361 -0.41,-0.52c-0.204,-0.193 -0.433,-0.358 -0.68,-0.49c-3.019,-3.068 -4.714,-7.205 -4.714,-11.51c0,-9.002 7.408,-16.41 16.41,-16.41c0.005,0 0.009,0 0.014,0Z" style="fill:#1580f2;fill-rule:nonzero;"/><path d="M1112.19,393.44l-51,0l0,51l51,0l0,-51Zm-13.32,33.41c0.562,0.562 0.877,1.325 0.877,2.12c0,1.645 -1.352,2.999 -2.997,3c-0.795,-0.001 -1.558,-0.317 -2.12,-0.88l-7.93,-7.92l-7.92,7.92c-0.555,0.517 -1.286,0.805 -2.045,0.805c-1.646,0 -3,-1.354 -3,-3c0,-0.759 0.288,-1.49 0.805,-2.045l7.92,-7.93l-7.92,-7.92c-0.517,-0.555 -0.805,-1.286 -0.805,-2.045c0,-1.646 1.354,-3 3,-3c0.759,0 1.49,0.288 2.045,0.805l7.92,7.92l7.93,-7.92c0.567,-0.609 1.363,-0.955 2.195,-0.955c1.646,0 3,1.354 3,3c0,0.832 -0.346,1.628 -0.955,2.195l-7.92,7.92l7.92,7.93Z" style="fill:#fff;fill-rule:nonzero;"/><path d="M1058.22,450.44l57,0c1.646,0 3,-1.354 3,-3l0,-57c0,-1.646 -1.354,-3 -3,-3l-57,0c-1.646,0 -3,1.354 -3,3l0,57c0,1.646 1.354,3 3,3Zm3,-57l51,0l0,51l-51,0l0,-51Z" style="fill:#1580f2;fill-rule:nonzero;"/><path d="M1098.87,406.79c-1.163,-1.162 -3.077,-1.162 -4.24,0l-7.93,7.92l-7.92,-7.92c-0.555,-0.517 -1.286,-0.805 -2.045,-0.805c-1.646,0 -3,1.354 -3,3c0,0.759 0.288,1.49 0.805,2.045l7.92,7.92l-7.92,7.93c-1.162,1.163 -1.162,3.077 0,4.24c1.163,1.162 3.077,1.162 4.24,0l7.92,-7.92l7.93,7.92c1.163,1.162 3.077,1.162 4.24,0c1.162,-1.163 1.162,-3.077 0,-4.24l-7.92,-7.93l7.92,-7.92c1.162,-1.163 1.162,-3.077 0,-4.24Z" style="fill:#1580f2;fill-rule:nonzero;"/><path d="M1283.8,402.44l43.13,0c1.646,0 3,-1.354 3,-3c0,-1.646 -1.354,-3 -3,-3l-43.12,0c-1.646,0 -3,1.354 -3,3c0,1.646 1.354,3 3,3l-0.01,0Z" style="fill:#1580f2;fill-rule:nonzero;"/><path d="M1283.8,441.92l43.13,0c1.646,0 3,-1.354 3,-3c0,-1.646 -1.354,-3 -3,-3l-43.12,0c-1.646,0 -3,1.354 -3,3c0,1.646 1.354,3 3,3l-0.01,0Z" style="fill:#1580f2;fill-rule:nonzero;"/><path d="M1283.8,422.21l43.13,0c1.646,0 3,-1.354 3,-3c0,-1.646 -1.354,-3 -3,-3l-43.12,0c-1.646,0 -3,1.354 -3,3c0,1.646 1.354,3 3,3l-0.01,0Z" style="fill:#1580f2;fill-rule:nonzero;"/><path d="M984.93,467.1c1.646,0 3,-1.354 3,-3l0,-103c0,-1.646 -1.354,-3 -3,-3c-1.646,0 -3,1.354 -3,3l0,103c0,1.646 1.354,3 3,3Z" style="fill:#1580f2;fill-rule:nonzero;"/><path d="M896.13,97.12c0.317,0.11 0.65,0.167 0.986,0.167c1.274,0 2.416,-0.813 2.834,-2.017l4.48,-12.92l16.5,0l4.42,12.91c0.414,1.212 1.56,2.031 2.84,2.031c1.646,0 3.001,-1.355 3.001,-3.001c0,-0.33 -0.054,-0.658 -0.161,-0.97l-15.43,-45.06c-0.423,-1.196 -1.561,-2.001 -2.83,-2c-1.269,-0.001 -2.407,0.804 -2.83,2l-15.64,45.06c-0.53,1.544 0.292,3.252 1.83,3.8Zm16.6,-38.68l6.14,17.91l-12.36,0l6.22,-17.91Z" style="fill:#1580f2;fill-rule:nonzero;"/><path d="M946.98,74.71c-3.398,0.878 -6.437,2.798 -8.69,5.49c-2.175,2.533 -3.002,5.964 -2.22,9.21c1.32,4.82 6.2,7.78 12,7.78c1.646,-0.007 3.283,-0.233 4.87,-0.67c1.767,-0.479 3.453,-1.221 5,-2.2c0,1.646 1.354,3 3,3c1.646,0 3,-1.354 3,-3l0,-22.1c0.041,-4.674 -2.949,-8.871 -7.38,-10.36c-8.17,-2.7 -17.51,2.61 -17.9,2.84c-0.928,0.535 -1.502,1.529 -1.502,2.6c0,1.647 1.355,3.002 3.002,3.002c0.527,0 1.044,-0.139 1.5,-0.402c0.08,-0.05 7.47,-4.18 13,-2.34c1.974,0.685 3.294,2.571 3.26,4.66l0,3.09c-3.471,-1.441 -7.332,-1.653 -10.94,-0.6Zm10.85,11.14c-1,2.18 -3.42,4.05 -6.46,4.88c-4.4,1.2 -8.75,-0.13 -9.51,-2.9c-0.251,-1.396 0.164,-2.832 1.12,-3.88c1.462,-1.701 3.415,-2.91 5.59,-3.46c4,-1.09 7.51,0 8.87,1.7c0.148,0.172 0.312,0.329 0.49,0.47l0,3l-0.1,0.19Z" style="fill:#1580f2;fill-rule:nonzero;"/><path d="M993.56,97.29l12.23,0c8.173,-0.001 14.898,-6.727 14.898,-14.9c0,-5.328 -2.858,-10.266 -7.478,-12.92c2.607,-2.59 4.074,-6.116 4.074,-9.79c0,-7.57 -6.23,-13.8 -13.8,-13.8c-0.001,0 -0.003,0 -0.004,0l-9.92,0c-1.646,0 -3,1.354 -3,3l0,45.41c0,1.646 1.354,3 3,3Zm3,-45.41l6.92,0c4.243,0.06 7.7,3.566 7.7,7.809c0,4.142 -3.294,7.6 -7.43,7.801l-7.19,0l0,-15.61Zm0,21.61l9.23,0c4.882,0 8.9,4.018 8.9,8.9c0,4.882 -4.018,8.9 -8.9,8.9l-9.23,0l0,-17.8Z" style="fill:#1580f2;fill-rule:nonzero;"/><path d="M1031.67,97.29c1.646,0 3,-1.354 3,-3l0,-0.73c2.479,2.362 5.766,3.696 9.19,3.73c8.16,0 14.79,-7.68 14.79,-17.11c0,-9.43 -6.63,-17.11 -14.79,-17.11c-3.424,0.034 -6.711,1.368 -9.19,3.73l0,-17.57c0,-1.646 -1.354,-3 -3,-3c-1.646,0 -3,1.354 -3,3l0,45.06c0,1.646 1.354,3 3,3Zm12.19,-28.22c4.85,0 8.79,5 8.79,11.11c0,6.11 -3.94,11.11 -8.79,11.11c-4.85,0 -8.79,-5 -8.79,-11.11c0,-6.11 3.95,-11.11 8.79,-11.11Z" style="fill:#1580f2;fill-rule:nonzero;"/><path d="M1181.98,97.29l8,0c13.91,-0.274 25.203,-11.792 25.203,-25.705c0,-13.913 -11.293,-25.431 -25.203,-25.705l-8,0c-1.646,0 -3,1.354 -3,3l0,45.41c0,1.646 1.354,3 3,3Zm3,-45.41l5,0c10.642,0.24 19.266,9.06 19.266,19.705c0,10.645 -8.624,19.465 -19.266,19.705l-5,0l0,-39.41Z" style="fill:#1580f2;fill-rule:nonzero;"/><path d="M1237.37,97.29c3.424,-0.034 6.711,-1.368 9.19,-3.73l0,0.73c0,1.646 1.354,3 3,3c1.646,0 3,-1.354 3,-3l0,-45.06c0,-1.646 -1.354,-3 -3,-3c-1.646,0 -3,1.354 -3,3l0,17.57c-2.479,-2.362 -5.766,-3.696 -9.19,-3.73c-8.16,0 -14.79,7.68 -14.79,17.11c0,9.43 6.63,17.11 14.79,17.11Zm0,-28.22c4.84,0 8.79,5 8.79,11.11c0,6.11 -4,11.11 -8.79,11.11c-4.79,0 -8.79,-5 -8.79,-11.11c0,-6.11 3.94,-11.11 8.79,-11.11Z" style="fill:#1580f2;fill-rule:nonzero;"/><path d="M1107.01,97.29c6.046,-0.023 11.846,-2.424 16.14,-6.68c0.58,-0.565 0.907,-1.341 0.907,-2.15c0,-1.647 -1.355,-3.002 -3.002,-3.002c-0.782,0 -1.535,0.306 -2.095,0.852c-3.185,3.18 -7.499,4.978 -12,5c-9.9,0 -18,-8.81 -18,-19.63c0,-10.82 8.06,-19.64 18,-19.64c4.501,0.022 8.815,1.82 12,5c0.56,0.546 1.313,0.852 2.095,0.852c1.647,0 3.002,-1.355 3.002,-3.002c0,-0.809 -0.327,-1.585 -0.907,-2.15c-4.294,-4.256 -10.094,-6.657 -16.14,-6.68c-13.21,0 -24,11.5 -24,25.64c0,14.14 10.79,25.59 24,25.59Z" style="fill:#1580f2;fill-rule:nonzero;"/><path d="M1145.18,97.29c4.21,-0.016 8.249,-1.687 11.24,-4.65c0.622,-0.568 0.976,-1.373 0.976,-2.215c0,-1.645 -1.354,-3 -3,-3c-0.817,0 -1.6,0.335 -2.166,0.925c-1.863,1.851 -4.374,2.906 -7,2.94c-5.88,0 -10.65,-5.27 -10.65,-11.74c0,-6.47 4.77,-11.74 10.65,-11.74c2.626,0.03 5.14,1.086 7,2.94c0.56,0.546 1.313,0.852 2.095,0.852c1.647,0 3.002,-1.355 3.002,-3.002c0,-0.809 -0.327,-1.585 -0.907,-2.15c-2.995,-2.955 -7.032,-4.622 -11.24,-4.64c-9.18,0 -16.65,8 -16.65,17.74c0,9.74 7.47,17.74 16.65,17.74Z" style="fill:#1580f2;fill-rule:nonzero;"/><path d="M1282.99,97.29l23.5,0c1.646,0 3,-1.354 3,-3c0,-1.646 -1.354,-3 -3,-3l-20.5,0l0,-16.53l14.69,0c1.646,0 3,-1.354 3,-3c0,-1.646 -1.354,-3 -3,-3l-14.69,0l0,-16.53l20.5,0c1.646,0 3,-1.354 3,-3c0,-1.646 -1.354,-3 -3,-3l-23.5,0c-1.646,0 -3,1.354 -3,3l0,45.06c0,1.646 1.354,3 3,3Z" style="fill:#1580f2;fill-rule:nonzero;"/><path d="M1329.1,97.29c4.78,0.013 9.371,-1.889 12.74,-5.28c0.561,-0.563 0.877,-1.325 0.877,-2.12c0,-1.647 -1.355,-3.002 -3.002,-3.002c-0.797,0 -1.562,0.318 -2.125,0.882c-2.25,2.252 -5.306,3.518 -8.489,3.518c-5.457,0 -10.26,-3.723 -11.621,-9.008l22.23,0c1.646,0 3,-1.354 3,-3c0,0 0,0 0,0c0,-8.673 -7.137,-15.81 -15.81,-15.81c-8.673,0 -15.81,7.137 -15.81,15.81c0,0 0,0 0,0c0,0.003 0,0.007 0,0.01c0,9.875 8.125,18 18,18c0.003,0 0.007,0 0.01,0Zm-2.17,-27.85c4.252,0.002 8.044,2.763 9.35,6.81l-18.69,0c1.303,-4.045 5.09,-6.807 9.34,-6.81Z" style="fill:#1580f2;fill-rule:nonzero;"/><path d="M895.8,173.9c0.421,0.146 0.864,0.22 1.31,0.22c1.712,0.019 3.255,-1.064 3.82,-2.68l4.25,-12.24l15.07,0l4.19,12.23c0.554,1.612 2.08,2.702 3.785,2.702c2.195,0 4.002,-1.807 4.002,-4.002c0,-0.442 -0.073,-0.882 -0.217,-1.3l-15.44,-45.06c-0.552,-1.607 -2.071,-2.695 -3.77,-2.7c-1.7,0 -3.223,1.084 -3.78,2.69l-15.64,45.06c-0.717,2.057 0.371,4.341 2.42,5.08Zm16.92,-36.57l4.75,13.86l-9.54,0l4.79,-13.86Z" style="fill:#1580f2;fill-rule:nonzero;"/><path d="M948.09,174.02c3.2,-0.019 6.348,-0.819 9.17,-2.33c0.633,1.46 2.079,2.409 3.67,2.409c2.187,0 3.989,-1.793 4,-3.979l0,-22.07c0.039,-5.102 -3.225,-9.681 -8.06,-11.31c-8.45,-2.8 -17.7,2.33 -18.72,2.93c-1.237,0.714 -2.001,2.037 -2.001,3.465c0,2.195 1.806,4.001 4.001,4.001c0.702,0 1.392,-0.185 2,-0.536c2,-1.11 7.93,-3.68 12.22,-2.26c1.552,0.566 2.586,2.058 2.57,3.71l0,1.64c-3.32,-1.025 -6.867,-1.066 -10.21,-0.12c-8.33,2.28 -13.43,9.28 -11.61,15.94c1.43,5.26 6.7,8.51 12.97,8.51Zm0.74,-16.73c0.977,-0.272 1.986,-0.41 3,-0.41c1.8,-0.125 3.571,0.518 4.87,1.77c0.08,0.1 0.18,0.17 0.26,0.26l0,2.33c-0.81,1.88 -3.09,3.57 -5.81,4.32c-4.09,1.12 -7.74,-0.24 -8.28,-2.2c-0.54,-1.96 1.87,-4.92 5.96,-6.07Z" style="fill:#1580f2;fill-rule:nonzero;"/><path d="M993.56,174.12l12.23,0c0.007,0 0.014,0 0.021,0c8.717,0 15.89,-7.173 15.89,-15.89c0,-5.238 -2.59,-10.15 -6.911,-13.11c2.269,-2.675 3.516,-6.072 3.516,-9.58c0,-8.119 -6.677,-14.802 -14.796,-14.81l-9.92,0c-2.194,0 -4,1.806 -4,4l0,45.41c0.011,2.175 1.795,3.964 3.97,3.98Zm4,-45.41l5.92,0c3.69,0.065 6.691,3.118 6.691,6.809c0,3.604 -2.862,6.616 -6.461,6.801l-6.15,0l0,-13.61Zm0,21.61l8.23,0c4.334,0 7.9,3.566 7.9,7.9c0,4.334 -3.566,7.9 -7.9,7.9l-8.23,0l0,-15.8Z" style="fill:#1580f2;fill-rule:nonzero;"/><path d="M1031.67,174.12c1.736,-0.007 3.279,-1.144 3.8,-2.8c2.429,1.799 5.368,2.78 8.39,2.8c8.71,0 15.79,-8.12 15.79,-18.11c0,-9.99 -7.08,-18.11 -15.79,-18.11c-2.939,0.016 -5.802,0.945 -8.19,2.66l0,-15.5c0,-2.194 -1.806,-4 -4,-4c-2.194,0 -4,1.806 -4,4l0,45.06c0,2.194 1.806,4 4,4Zm12.19,-28.22c4.3,0 7.79,4.54 7.79,10.11c0,5.57 -3.49,10.11 -7.79,10.11c-4.3,0 -7.79,-4.54 -7.79,-10.11c0,-5.57 3.5,-10.11 7.79,-10.11Z" style="fill:#1580f2;fill-rule:nonzero;"/><path d="M1181.98,174.12l8,0c14.455,-0.28 26.193,-12.247 26.193,-26.705c0,-14.458 -11.738,-26.425 -26.193,-26.705l-8,0c-2.194,0 -4,1.806 -4,4l0,45.41c0,2.194 1.806,4 4,4Zm4,-45.41l4,0c10.098,0.234 18.277,8.604 18.277,18.705c0,10.101 -8.179,18.471 -18.277,18.705l-4,0l0,-37.41Z" style="fill:#1580f2;fill-rule:nonzero;"/><path d="M1237.37,174.12c3.022,-0.02 5.961,-1.001 8.39,-2.8c0.538,1.638 2.077,2.752 3.8,2.752c2.176,0 3.974,-1.776 4,-3.952l0,-45.06c0,-2.194 -1.806,-4 -4,-4c-2.194,0 -4,1.806 -4,4l0,15.5c-2.388,-1.715 -5.251,-2.644 -8.19,-2.66c-8.71,0 -15.79,8.13 -15.79,18.11c0,9.98 7.08,18.11 15.79,18.11Zm0,-28.22c4.29,0 7.79,4.54 7.79,10.11c0,5.57 -3.5,10.11 -7.79,10.11c-4.29,0 -7.79,-4.54 -7.79,-10.11c0,-5.57 3.49,-10.11 7.79,-10.11Z" style="fill:#1580f2;fill-rule:nonzero;"/><path d="M1107.01,174.12c6.31,-0.029 12.36,-2.546 16.83,-7c0.811,-0.756 1.273,-1.817 1.273,-2.926c0,-2.194 -1.806,-4 -4,-4c-1.073,0 -2.101,0.431 -2.853,1.196c-2.99,2.975 -7.032,4.66 -11.25,4.69c-9.35,0 -17,-8.36 -17,-18.63c0,-10.27 7.61,-18.64 17,-18.64c4.218,0.03 8.26,1.715 11.25,4.69c0.756,0.812 1.817,1.273 2.926,1.273c2.195,0 4,-1.806 4,-4c0,-1.144 -0.49,-2.234 -1.346,-2.993c-4.47,-4.454 -10.52,-6.971 -16.83,-7c-13.76,0 -25,12 -25,26.64c0,14.64 11.24,26.7 25,26.7Z" style="fill:#1580f2;fill-rule:nonzero;"/><path d="M1145.18,174.12c4.469,-0.011 8.757,-1.783 11.93,-4.93c0.811,-0.756 1.273,-1.817 1.273,-2.926c0,-2.194 -1.806,-4 -4,-4c-1.073,0 -2.101,0.431 -2.853,1.196c-1.685,1.685 -3.967,2.641 -6.35,2.66c-5.32,0 -9.65,-4.82 -9.65,-10.74c0,-5.92 4.33,-10.74 9.65,-10.74c2.383,0.019 4.665,0.975 6.35,2.66c0.752,0.765 1.78,1.196 2.853,1.196c2.194,0 4,-1.806 4,-4c0,-1.109 -0.462,-2.17 -1.273,-2.926c-3.173,-3.147 -7.461,-4.919 -11.93,-4.93c-9.73,0 -17.65,8.4 -17.65,18.74c0,10.34 7.92,18.74 17.65,18.74Z" style="fill:#1580f2;fill-rule:nonzero;"/><path d="M1282.99,174.12l23.5,0c2.194,0 4,-1.806 4,-4c0,-2.194 -1.806,-4 -4,-4l-19.5,0l0,-14.53l13.69,0c2.194,0 4,-1.806 4,-4c0,-2.194 -1.806,-4 -4,-4l-13.69,0l0,-14.53l19.5,0c2.194,0 4,-1.806 4,-4c0,-2.194 -1.806,-4 -4,-4l-23.5,0c-2.194,0 -4,1.806 -4,4l0,45.06c0,2.194 1.806,4 4,4Z" style="fill:#1580f2;fill-rule:nonzero;"/><path d="M1343.71,155.11c0,0 0,0 0,0c0,-9.222 -7.588,-16.81 -16.81,-16.81c-9.222,0 -16.81,7.588 -16.81,16.81c0,0 0,0 0,0c0,0.007 0,0.013 0,0.02c0,10.423 8.577,19 19,19c5.045,0 9.887,-2.009 13.45,-5.58c0.708,-0.743 1.103,-1.731 1.103,-2.758c0,-2.194 -1.806,-4 -4,-4c-1.024,0 -2.01,0.393 -2.753,1.098c-2.061,2.051 -4.852,3.203 -7.76,3.203c-4.515,0 -8.591,-2.78 -10.24,-6.983l20.86,0c2.179,-0.022 3.96,-1.821 3.96,-4Zm-24.66,-4c1.502,-2.948 4.542,-4.811 7.85,-4.811c3.308,0 6.348,1.863 7.85,4.811l-15.7,0Z" style="fill:#1580f2;fill-rule:nonzero;"/></svg>