<svg viewBox="0 0 1440 807" xmlns="http://www.w3.org/2000/svg" fill-rule="evenodd" clip-rule="evenodd" stroke-linejoin="round" stroke-miterlimit="1.41421"><path d="M406.03 517.44h227.84V289.59H406.03v227.85zm49.62-135.73h128.6c11.949.254 21.64 10.153 21.64 22.105s-9.691 21.851-21.64 22.105h-128.6c-11.949-.254-21.64-10.153-21.64-22.105s9.691-21.851 21.64-22.105zm864.36-36.22l-64.23 111.25h128.45l-64.22-111.25z" fill="#fff" fill-rule="nonzero"/><circle cx="519.95" cy="119.93" r="66.42" fill="#fff"/><path d="M406.03 801h227.84V573.18H406.03V801zm49.62-176.34h128.6c11.949.254 21.64 10.153 21.64 22.105s-9.691 21.851-21.64 22.105h-128.6c-11.949-.254-21.64-10.153-21.64-22.105s9.691-21.851 21.64-22.105zm0 80.64h128.6c12.124 0 22.1 9.976 22.1 22.1s-9.976 22.1-22.1 22.1h-128.6c-12.124 0-22.1-9.976-22.1-22.1s9.976-22.1 22.1-22.1zm-49.62-471.45h227.84V6H406.03v227.85zM519.95 47.5h.01c39.734 0 72.43 32.696 72.43 72.43 0 39.734-32.696 72.43-72.43 72.43-39.734 0-72.43-32.696-72.43-72.43.044-39.714 32.706-72.381 72.42-72.43zM1206.08 801h227.85V690.1h-227.85V801zm49.63-79.5h128.59c.157-.003.313-.005.47-.005 12.129 0 22.11 9.981 22.11 22.11s-9.981 22.11-22.11 22.11c-.157 0-.313-.002-.47-.005h-128.59a24.55 24.55 0 0 1-.47.005c-12.129 0-22.11-9.981-22.11-22.11s9.981-22.11 22.11-22.11c.157 0 .313.002.47.005z" fill="#fff" fill-rule="nonzero"/><path fill="#fff" d="M6 6.01H233.84V233.85H6z"/><path d="M1206.08 233.85h227.85V6h-227.85v227.85zM1320 47.5h.01c39.734 0 72.43 32.696 72.43 72.43 0 39.734-32.696 72.43-72.43 72.43-39.734 0-72.43-32.696-72.43-72.43.044-39.714 32.706-72.381 72.42-72.43zM1033.9 6H806.06v227.85h227.84V6zm-49.63 136H855.71a24.55 24.55 0 0 1-.47.005c-12.129 0-22.11-9.981-22.11-22.11s9.981-22.11 22.11-22.11c.157 0 .313.002.47.005H984.3c.157-.003.313-.005.47-.005 12.129 0 22.11 9.981 22.11 22.11s-9.981 22.11-22.11 22.11c-.157 0-.313-.002-.47-.005h-.03zm221.81 375.44h227.85V289.59h-227.85v227.85zm41.9-59.2L1317.41 338a3.004 3.004 0 0 1 2.595-1.495c1.068 0 2.059.571 2.595 1.495l69.43 120.25c.263.456.402.973.402 1.5 0 1.646-1.354 3-3 3h-138.854c-1.646 0-3-1.354-3-3 0-.527.139-1.044.402-1.5v-.01z" fill="#fff" fill-rule="nonzero"/><path d="M239.84 236.85V3c0-1.646-1.354-3-3-3H3C1.354 0 0 1.354 0 3v233.85c0 1.646 1.354 3 3 3h233.84c1.646 0 3-1.354 3-3zm-6-3H6V6h227.84v227.85zM1436.93 0h-233.85c-1.646 0-3 1.354-3 3v233.85c0 1.646 1.354 3 3 3h233.85c1.646 0 3-1.354 3-3V3c0-1.646-1.354-3-3-3zm-3 233.84h-227.85V6h227.85v227.84zm-630.87 6.01h233.84c1.646 0 3-1.354 3-3V3c0-1.646-1.354-3-3-3H803.06c-1.646 0-3 1.354-3 3v233.85c0 1.646 1.354 3 3 3zm3-233.84h227.84v227.84H806.06V6.01zM636.87 0H403.03c-1.646 0-3 1.354-3 3v233.85c0 1.646 1.354 3 3 3h233.84c1.646 0 3-1.354 3-3V3c0-1.646-1.354-3-3-3zm-3 233.84H406.03V6h227.84v227.84zm3 49.75H403.03c-1.646 0-3 1.354-3 3v233.85c0 1.646 1.354 3 3 3h233.84c1.646 0 3-1.354 3-3V286.59c0-1.646-1.354-3-3-3zm-3 233.85H406.03V289.59h227.84v227.85zm803.06-233.85h-233.85c-1.646 0-3 1.354-3 3v233.85c0 1.646 1.354 3 3 3h233.85c1.646 0 3-1.354 3-3V286.59c0-1.646-1.354-3-3-3zm-3 233.85h-227.85V289.59h227.85v227.85zm-797.06 49.74H403.03c-1.646 0-3 1.354-3 3V804c0 1.646 1.354 3 3 3h233.84c1.646 0 3-1.354 3-3V570.18c0-1.646-1.354-3-3-3zm-3 233.84H406.03V573.18h227.84v227.84zm803.06-116.92h-233.85c-1.646 0-3 1.354-3 3V804c0 1.646 1.354 3 3 3h233.85c1.646 0 3-1.354 3-3V687.1c0-1.646-1.354-3-3-3zm-3 116.92h-227.85V690.1h227.85v110.92z" fill="#1580f2" fill-rule="nonzero"/><path d="M519.95 192.35h.01c39.734 0 72.43-32.696 72.43-72.43 0-39.734-32.696-72.43-72.43-72.43-39.734 0-72.43 32.696-72.43 72.43v.01c.049 39.71 32.71 72.371 72.42 72.42zm0-138.85h.01c36.442 0 66.43 29.988 66.43 66.43 0 36.442-29.988 66.43-66.43 66.43-36.442 0-66.43-29.988-66.43-66.43.038-36.424 29.996-66.386 66.42-66.43z" fill="#f37a78" fill-rule="nonzero"/><path d="M1258.45 81.9c21.015-33.999 65.679-44.541 99.679-23.526 33.999 21.014 44.541 65.679 23.526 99.678-21.015 34-65.679 44.541-99.679 23.527-33.999-21.015-44.541-65.68-23.526-99.679z" fill="#453b69"/><path d="M984.27 97.82H855.71a24.55 24.55 0 0 0-.47-.005c-12.129 0-22.11 9.981-22.11 22.11s9.981 22.11 22.11 22.11c.157 0 .313-.002.47-.005H984.3c.157.003.313.005.47.005 12.129 0 22.11-9.981 22.11-22.11s-9.981-22.11-22.11-22.11c-.157 0-.313.002-.47.005h-.03z" fill="#453b69" fill-rule="nonzero"/><path d="M455.65 668.89h128.6c11.949-.254 21.64-10.153 21.64-22.105s-9.691-21.851-21.64-22.105h-128.6c-11.949.254-21.64 10.153-21.64 22.105s9.691 21.851 21.64 22.105z" fill="#f37a78" fill-rule="nonzero"/><path d="M57.71 142h128.6c11.949-.254 21.64-10.153 21.64-22.105s-9.691-21.851-21.64-22.105H57.71c-11.949.254-21.64 10.153-21.64 22.105S45.761 141.746 57.71 142zm1198 623.73h128.59c.157.003.313.005.47.005 12.129 0 22.11-9.981 22.11-22.11s-9.981-22.11-22.11-22.11c-.157 0-.313.002-.47.005h-128.59a24.55 24.55 0 0 0-.47-.005c-12.129 0-22.11 9.981-22.11 22.11s9.981 22.11 22.11 22.11c.157 0 .313-.002.47-.005z" fill="#1580f2" fill-rule="nonzero"/><path d="M455.65 749.52h128.6c12.124 0 22.1-9.976 22.1-22.1s-9.976-22.1-22.1-22.1h-128.6c-12.124 0-22.1 9.976-22.1 22.1s9.976 22.1 22.1 22.1z" fill="#f37a78" fill-rule="nonzero"/><path d="M1250.58 462.74h138.852c1.646 0 3-1.354 3-3 0-.527-.139-1.044-.402-1.5L1322.6 338a3.004 3.004 0 0 0-2.595-1.495 3.004 3.004 0 0 0-2.595 1.495l-69.43 120.25a3.002 3.002 0 0 0-.402 1.5c0 1.646 1.354 3 3 3h.002v-.01zM1320 345.49l64.23 111.25h-128.45L1320 345.49zm-106.92 217.95h100.85c1.646 0 3-1.354 3-3s-1.354-3-3-3h-100.85c-1.646 0-3 1.354-3 3s1.354 3 3 3zm0 30h213.85c1.646 0 3-1.354 3-3s-1.354-3-3-3h-213.85c-1.646 0-3 1.354-3 3s1.354 3 3 3zm0 30h170.85c1.646 0 3-1.354 3-3s-1.354-3-3-3h-170.85c-1.646 0-3 1.354-3 3s1.354 3 3 3zM113.85 333.85H13c-1.646 0-3 1.354-3 3s1.354 3 3 3h100.85c1.646 0 3-1.354 3-3s-1.354-3-3-3zm112.99-30H13c-1.646 0-3 1.354-3 3s1.354 3 3 3h213.84c1.646 0 3-1.354 3-3s-1.354-3-3-3zm0-30H13c-1.646 0-3 1.354-3 3s1.354 3 3 3h213.84c1.646 0 3-1.354 3-3s-1.354-3-3-3z" fill="#453b69" fill-rule="nonzero"/><path d="M361.44 686a3.305 3.305 0 0 0-.17-.44 2.156 2.156 0 0 0-.11-.2 3.077 3.077 0 0 0-.25-.37l-.14-.17a3.595 3.595 0 0 0-.41-.37c-.146-.113 0 0-.07-.06l-30.77-21.45a3 3 0 0 0-1.784-.588c-1.646 0-3 1.354-3 3 0 1.01.51 1.954 1.354 2.508l23 16h-33.55c-106.37 0-192.91-86.53-192.91-192.9V376.85c0-1.646-1.354-3-3-3s-3 1.354-3 3v114.09c0 109.68 89.23 198.9 198.91 198.9h33.48l-23 16a3 3 0 0 0-1.297 2.47c0 1.646 1.354 3 3 3h.007a2.997 2.997 0 0 0 1.72-.54l30.81-21.47.08-.07c.143-.109.276-.23.4-.36.05-.06.09-.12.14-.17.092-.117.176-.241.25-.37.04-.065.077-.131.11-.2.067-.142.124-.29.17-.44.004-.06.004-.12 0-.18.12-.442.12-.908 0-1.35a1.1 1.1 0 0 0 .03-.16zm776.54-259a3.001 3.001 0 0 0 4.18.75l30.77-21.44.07-.06a2.4 2.4 0 0 0 .41-.37 1.14 1.14 0 0 0 .14-.17 1.85 1.85 0 0 0 .25-.37l.11-.19c.067-.146.124-.296.17-.45l.06-.18c.052-.22.079-.444.08-.67a2.965 2.965 0 0 0-.08-.67l-.06-.19a3.305 3.305 0 0 0-.17-.44 1.236 1.236 0 0 0-.11-.19 1.627 1.627 0 0 0-.25-.37 1.14 1.14 0 0 0-.14-.17 2.4 2.4 0 0 0-.41-.37l-.07-.06-30.77-21.44a3 3 0 0 0-1.784-.588c-1.646 0-3 1.354-3 3 0 1.01.51 1.954 1.354 2.508l23 16H906.59c-1.47-.14-3-.22-4.47-.22a2.996 2.996 0 0 0-1.11.22H790.25c-36.739-.044-66.956-30.261-67-67V163.31c-.027-25.433-20.947-46.353-46.38-46.38-1.646 0-3 1.354-3 3s1.354 3 3 3c22.141.027 40.353 18.239 40.38 40.38v170.51c.049 40.028 32.972 72.951 73 73h116.08c20.456 2.162 36.167 19.61 36.18 40.18v226.63c.044 40.03 32.97 72.956 73 73h146.2l-23 16a3.003 3.003 0 0 0-1.283 2.46c0 1.646 1.354 3 3 3h.003a2.942 2.942 0 0 0 1.71-.54l30.77-21.44.07-.06a2.4 2.4 0 0 0 .41-.37 1.14 1.14 0 0 0 .14-.17 1.85 1.85 0 0 0 .25-.37l.11-.19c.067-.146.124-.296.17-.45l.06-.18c.052-.22.079-.444.08-.67a2.965 2.965 0 0 0-.08-.67l-.06-.19a3.305 3.305 0 0 0-.17-.44 1.236 1.236 0 0 0-.11-.19 1.627 1.627 0 0 0-.25-.37 1.14 1.14 0 0 0-.14-.17 2.4 2.4 0 0 0-.41-.37l-.07-.06-30.77-21.44a3 3 0 0 0-1.784-.588c-1.646 0-3 1.354-3 3 0 1.01.51 1.954 1.354 2.508l23 16h-146.2c-36.741-.038-66.962-30.259-67-67V447c-.015-16.554-8.887-31.894-23.23-40.16h236.43l-23 16a3.014 3.014 0 0 0-.73 4.16z" fill="#9eb1db" fill-rule="nonzero"/></svg>