<?xml version="1.0" encoding="UTF-8" standalone="no"?><!DOCTYPE svg PUBLIC "-//W3C//DTD SVG 1.1//EN" "http://www.w3.org/Graphics/SVG/1.1/DTD/svg11.dtd"><svg width="100%" height="100%" viewBox="0 0 799 1446" version="1.1" xmlns="http://www.w3.org/2000/svg" xmlns:xlink="http://www.w3.org/1999/xlink" xml:space="preserve" xmlns:serif="http://www.serif.com/" style="fill-rule:evenodd;clip-rule:evenodd;stroke-linejoin:round;stroke-miterlimit:1.41421;"><rect x="597.734" y="582.635" width="113.26" height="4.69" style="fill:#fff;"/><path d="M695.314,536.025l0,-24.23l-81.92,0l0,24.23l81.92,0Zm-25.9,-14.24c0.153,-4.399 3.813,-7.933 8.215,-7.933c4.401,0 8.061,3.534 8.215,7.933l0,8.75c0,1.646 -1.355,3 -3,3l-10.43,0c-1.646,0 -3,-1.354 -3,-3l0,-8.75Zm-30.1,8.75c0,1.646 -1.355,3 -3,3l-10.44,0c-1.646,0 -3,-1.354 -3,-3l0,-8.75c0.153,-4.399 3.813,-7.933 8.215,-7.933c4.401,0 8.061,3.534 8.215,7.933l0.01,8.75Zm6.84,0l0,-8.75c0.153,-4.399 3.813,-7.933 8.215,-7.933c4.401,0 8.061,3.534 8.215,7.933l0,8.75c0,1.646 -1.355,3 -3,3l-10.44,0c-1.646,0 -3,-1.354 -3,-3l0.01,0Z" style="fill:#fff;fill-rule:nonzero;"/><rect x="300.554" y="542.025" width="17.84" height="34.54" style="fill:#fff;"/><path d="M750.594,379.635l-537.36,0l0,235.88l537.36,0l0,-235.88Zm-378.49,210.65c0,1.646 -1.355,3 -3,3l-119.26,0c-1.646,0 -3,-1.354 -3,-3l0,-10.65c0,-1.646 1.354,-3 3,-3l12.67,0l0,-67.84c0,-1.646 1.354,-3 3,-3l27,0c-6.413,-5.146 -10.151,-12.938 -10.151,-21.16c0,-8.222 3.738,-16.014 10.151,-21.16l-27,0c-1.645,-0.002 -2.997,-1.356 -2.997,-3c0,-0.675 0.228,-1.33 0.647,-1.86l44,-55.65c0.568,-0.72 1.437,-1.142 2.355,-1.142c0.917,0 1.786,0.422 2.355,1.142l44,55.65c0.418,0.53 0.646,1.185 0.646,1.86c0,1.644 -1.352,2.998 -2.996,3l-27,0c6.419,5.142 10.162,12.935 10.162,21.16c0,8.225 -3.743,16.018 -10.162,21.16l27,0c1.645,0 3,1.354 3,3l0,67.84l12.66,0c1.645,0 3,1.354 3,3l-0.08,10.65Zm172.44,0c0,1.646 -1.355,3 -3,3l-119.23,0c-1.646,0 -3,-1.354 -3,-3l0,-10.65c0,-1.646 1.354,-3 3,-3l12.66,0l0,-67.84c0,-1.646 1.354,-3 3,-3l27,0c-6.413,-5.146 -10.151,-12.938 -10.151,-21.16c0,-8.222 3.738,-16.014 10.151,-21.16l-27,0c-1.646,0 -3,-1.354 -3,-3l0,-10.86c-0.001,-0.017 -0.001,-0.033 0,-0.05c-0.004,-0.181 0.013,-0.362 0.05,-0.54l0,-0.1c0.029,-0.136 0.069,-0.27 0.12,-0.4c0,-0.06 0,-0.11 0.07,-0.17c0.05,-0.112 0.11,-0.219 0.18,-0.32l0.08,-0.14c0.098,-0.134 0.205,-0.26 0.32,-0.38l43.94,-44.76c1.188,-1.141 3.091,-1.141 4.28,0l44,44.76c0.114,0.117 0.218,0.244 0.31,0.38l0.09,0.14c0.062,0.103 0.119,0.21 0.17,0.32l0.08,0.17c0.05,0.13 0.09,0.264 0.12,0.4l0,0.1c0.014,0.18 0.014,0.36 0,0.54c0,0.017 0,0.033 0,0.05l0,10.86c0,1.646 -1.355,3 -3,3l-27,0c6.419,5.142 10.162,12.935 10.162,21.16c0,8.225 -3.743,16.018 -10.162,21.16l27,0c1.645,0 3,1.354 3,3l0,67.84l12.66,0c1.645,0 3,1.354 3,3l0.1,10.65Zm172.44,0c0,1.646 -1.355,3 -3,3l-119.25,0c-1.646,0 -3,-1.354 -3,-3l0,-10.65c0,-1.646 1.354,-3 3,-3l12.66,0l0,-67.84c0,-1.646 1.354,-3 3,-3l27,0c-6.42,-5.142 -10.163,-12.935 -10.163,-21.16c0,-8.225 3.743,-16.018 10.163,-21.16l-11.52,0c-1.646,0 -3,-1.354 -3,-3l0,-7.86l-12.48,0c-1.646,0 -3,-1.354 -3,-3l0,-10.87l0,-0.07c-0.01,-0.15 -0.01,-0.3 0,-0.45c0.003,-0.06 0.003,-0.12 0,-0.18c0.03,-0.118 0.067,-0.235 0.11,-0.35c0.017,-0.059 0.04,-0.116 0.07,-0.17c0.057,-0.136 0.128,-0.267 0.21,-0.39l0,-0.07c0.098,-0.145 0.209,-0.282 0.33,-0.41l0.13,-0.11c0.058,-0.062 0.122,-0.119 0.19,-0.17l44,-33.93c1.077,-0.833 2.592,-0.833 3.67,0l44,33.93c0.067,0.051 0.131,0.108 0.19,0.17l0.13,0.11c0.12,0.128 0.231,0.265 0.33,0.41c-0.003,0.02 -0.003,0.04 0,0.06c0.079,0.128 0.15,0.262 0.21,0.4c0.029,0.054 0.052,0.111 0.07,0.17c0.043,0.113 0.077,0.231 0.1,0.35c0.005,0.06 0.005,0.12 0,0.18c0.014,0.15 0.014,0.3 0,0.45c-0.015,0.15 0,0.05 0,0.07l0,10.82c0,1.646 -1.355,3 -3,3l-12.29,0l0,7.86c0,1.646 -1.355,3 -3,3l-11.53,0c6.419,5.142 10.162,12.935 10.162,21.16c0,8.225 -3.743,16.018 -10.162,21.16l27,0c1.645,0 3,1.354 3,3l0,67.84l12.66,0c1.645,0 3,1.354 3,3l0.01,10.7Z" style="fill:#fff;fill-rule:nonzero;"/><path d="M522.884,576.575l0,-34.55l-29,0c1.94,2.569 2.993,5.701 3,8.92l0,25.63l26,0Z" style="fill:#fff;fill-rule:nonzero;"/><path d="M639.434,576.575l0,-25.63c0.007,-3.219 1.06,-6.351 3,-8.92l-29,0l0,34.55l26,0Z" style="fill:#fff;fill-rule:nonzero;"/><path d="M695.314,576.575l0,-34.55l-29,0c1.94,2.569 2.993,5.701 3,8.92l0,25.63l26,0Z" style="fill:#fff;fill-rule:nonzero;"/><path d="M645.434,550.945l0,25.63l17.88,0l0,-25.63c0,-4.893 -4.027,-8.92 -8.92,-8.92c-4.894,0 -8.92,4.027 -8.92,8.92l-0.04,0Z" style="fill:#fff;fill-rule:nonzero;"/><path d="M294.554,539.025c0,-1.646 1.354,-3 3,-3l23.84,0c1.645,0 3,1.354 3,3l0,37.55l26.05,0l0,-64.78l-81.93,0l0,64.78l26,0l0.04,-37.55Z" style="fill:#fff;fill-rule:nonzero;"/><path d="M695.324,446.615l0,-4.87l-81.93,0l0,4.87l81.93,0Z" style="fill:#fff;fill-rule:nonzero;"/><path d="M522.884,536.025l0,-24.23l-81.93,0l0,24.23l81.93,0Zm-25.91,-16.92c0,-1.646 1.354,-3 3,-3l10.43,0c1.645,0 3,1.354 3,3l0,10.43c0,1.646 -1.355,3 -3,3l-10.43,0c-1.646,0 -3,-1.354 -3,-3l0,-10.43Zm-30.11,10.43c0,1.646 -1.355,3 -3,3l-10.43,0c-1.646,0 -3,-1.354 -3,-3l0,-10.43c0,-1.646 1.354,-3 3,-3l10.43,0c1.645,0 3,1.354 3,3l0,10.43Z" style="fill:#fff;fill-rule:nonzero;"/><path d="M654.354,408.615l-35.16,27.13l70.33,0l-35.17,-27.13Z" style="fill:#fff;fill-rule:nonzero;"/><rect x="456.434" y="522.105" width="4.43" height="4.43" style="fill:#fff;"/><rect x="252.844" y="582.635" width="113.26" height="4.69" style="fill:#fff;"/><path d="M309.474,409.665l-37.77,47.81l75.54,0l-37.77,-47.81Z" style="fill:#fff;fill-rule:nonzero;"/><rect x="502.974" y="522.105" width="4.43" height="4.43" style="fill:#fff;"/><rect x="628.874" y="452.615" width="50.97" height="4.87" style="fill:#fff;"/><circle cx="309.474" cy="484.635" r="21.16" style="fill:#fff;"/><path d="M675.514,484.635c0,-11.608 -9.552,-21.16 -21.16,-21.16c-11.609,0 -21.16,9.552 -21.16,21.16c0,11.593 9.527,21.138 21.12,21.16c11.616,0.005 21.183,-9.543 21.2,-21.16Z" style="fill:#fff;fill-rule:nonzero;"/><rect x="440.954" y="452.615" width="81.93" height="4.87" style="fill:#fff;"/><path d="M679.844,521.785c-0.078,-1.159 -1.054,-2.071 -2.215,-2.071c-1.162,0 -2.138,0.912 -2.215,2.071l0,5.75l4.43,0l0,-5.75Z" style="fill:#fff;fill-rule:nonzero;"/><path d="M481.914,409.105l-36.81,37.51l73.63,0l-36.82,-37.51Z" style="fill:#fff;fill-rule:nonzero;"/><path d="M170.414,1328.68l622,0l0,-1216.82l-622,0l0,1216.82Zm48.22,-78.15l-6.42,0c-1.646,0 -3,-1.354 -3,-3c0,-1.646 1.354,-3 3,-3l6.42,0c1.645,0 3,1.354 3,3c0,1.646 -1.355,3 -3,3Zm0,-66.59l-6.42,0c-1.646,0 -3,-1.354 -3,-3c0,-1.646 1.354,-3 3,-3l6.42,0c1.645,0 3,1.354 3,3c0,1.646 -1.355,3 -3,3Zm202.34,100.34l-138.44,0c-1.646,0 -3,-1.354 -3,-3c0,-1.646 1.354,-3 3,-3l138.44,0c1.645,0 3,1.354 3,3c0,1.646 -1.355,3 -3,3Zm205.09,-33.7l-343.53,0c-1.646,0 -3,-1.354 -3,-3c0,-1.646 1.354,-3 3,-3l343.53,0c1.645,0 3,1.354 3,3c0,1.646 -1.355,3 -3,3Zm-380.16,-254.71c0.761,0.566 1.212,1.461 1.212,2.41c0,1.647 -1.356,3.002 -3.002,3.002c-0.645,0 -1.273,-0.208 -1.79,-0.592l-31.9,-23.73c-0.759,-0.566 -1.207,-1.459 -1.207,-2.405c0,-0.946 0.448,-1.839 1.207,-2.405l31.9,-23.73c0.517,-0.384 1.145,-0.592 1.79,-0.592c1.646,0 3.002,1.355 3.002,3.002c0,0.949 -0.451,1.844 -1.212,2.41l-28.66,21.32l28.66,21.31Zm-34.38,51l307.63,0c1.645,0 3,1.354 3,3c0,1.646 -1.355,3 -3,3l-307.63,0c-1.646,0 -3,-1.354 -3,-3c0,-1.646 1.354,-3 3,-3Zm57.55,-50l27.57,-51.36c0.522,-0.973 1.54,-1.582 2.645,-1.582c1.646,0 3.002,1.355 3.002,3.002c0,0.496 -0.123,0.983 -0.357,1.42l-27.57,51.36c-0.523,0.973 -1.541,1.582 -2.645,1.582c-1.647,0 -3.003,-1.355 -3.003,-3.002c0,-0.496 0.123,-0.983 0.358,-1.42Zm54.76,-43.59c-0.762,-0.566 -1.213,-1.461 -1.213,-2.41c0,-1.647 1.356,-3.002 3.003,-3.002c0.644,0 1.272,0.208 1.79,0.592l31.9,23.69c0.758,0.566 1.206,1.459 1.206,2.405c0,0.946 -0.448,1.839 -1.206,2.405l-31.91,23.73c-0.518,0.384 -1.146,0.592 -1.79,0.592c-1.647,0 -3.003,-1.355 -3.003,-3.002c0,-0.949 0.451,-1.844 1.213,-2.41l28.67,-21.31l-28.66,-21.28Zm226.12,-153.45c0.02,0 0.04,0 0.06,0c12.068,0 22,9.931 22,22c0,12.069 -9.932,22 -22,22c-12.069,0 -22,-9.931 -22,-22c-0.001,-12.046 9.893,-21.967 21.94,-22Zm-21.94,-49c0,-0.003 0,-0.007 0,-0.01c0,-12.041 9.908,-21.95 21.95,-21.95c12.041,0 21.95,9.909 21.95,21.95c0,12.041 -9.909,21.95 -21.95,21.95c-0.004,0 -0.007,0 -0.01,0c-12.028,-0.033 -21.913,-9.923 -21.94,-21.95l0,0.01Zm62.53,230c1.645,0 3,1.354 3,3c0,1.646 -1.355,3 -3,3l-189.57,0c-1.646,0 -3,-1.354 -3,-3c0,-1.646 1.354,-3 3,-3l189.57,0Zm-142.86,36c0,1.646 -1.355,3 -3,3l-43.71,0c-1.646,0 -3,-1.354 -3,-3c0,-1.646 1.354,-3 3,-3l43.71,0c1.645,0 3,1.354 3,3Zm71.47,-63l-118.18,0c-1.646,0 -3,-1.354 -3,-3c0,-1.646 1.354,-3 3,-3l118.18,0c1.645,0 3,1.354 3,3c0,1.646 -1.355,3 -3,3Zm-121.18,-118.29c0,-1.646 1.354,-3 3,-3l28.85,0c1.645,0 3,1.354 3,3c0,1.646 -1.355,3 -3,3l-28.85,0c-1.646,0 -3,-1.354 -3,-3Zm-112.57,-74l69.62,0c1.645,0 3,1.354 3,3c0,1.646 -1.355,3 -3,3l-69.62,0c-1.646,0 -3,-1.354 -3,-3c0,-1.646 1.354,-3 3,-3Zm-3,-24.51c0,-1.646 1.354,-3 3,-3l144.42,0c1.645,0 3,1.354 3,3c0,1.646 -1.355,3 -3,3l-144.42,0c-1.635,0 -2.984,-1.336 -3,-2.97l0,-0.03Zm3,68l144.42,0c1.645,0 3,1.354 3,3c0,1.646 -1.355,3 -3,3l-144.42,0c-1.646,0 -3,-1.354 -3,-3c0,-1.646 1.354,-3 3,-3Zm0,27.52l69.62,0c1.645,0 3,1.354 3,3c0,1.646 -1.355,3 -3,3l-69.62,0c-1.646,0 -3,-1.354 -3,-3c0,-1.646 1.354,-3 3,-3Zm-73.88,247.29l238.31,0c1.645,0 3,1.354 3,3c0,1.646 -1.355,3 -3,3l-238.31,0c-1.646,0 -3,-1.354 -3,-3c0,-1.646 1.354,-3 3,-3Zm328.9,98.11c1.645,0 3,1.354 3,3c0,1.646 -1.355,3 -3,3l-257.89,0c-1.646,0 -3,-1.354 -3,-3c0,-1.646 1.354,-3 3,-3l257.89,0Zm-257.89,33.7l167.3,0c1.645,0 3,1.354 3,3c0,1.646 -1.355,3 -3,3l-167.3,0c-1.646,0 -3,-1.354 -3,-3c0,-1.646 1.354,-3 3,-3Zm465.38,38.89l-75.9,0c-1.646,0 -3,-1.354 -3,-3c0,-1.646 1.354,-3 3,-3l75.9,0c1.645,0 3,1.354 3,3c0,1.646 -1.355,3 -3,3Zm0,-32.89l-252.13,0c-1.646,0 -3,-1.354 -3,-3c0,-1.646 1.354,-3 3,-3l252.13,0c1.645,0 3,1.354 3,3c0,1.646 -1.355,3 -3,3Zm0,-164.81l-188.76,0c-1.646,0 -3,-1.354 -3,-3c0,-1.646 1.354,-3 3,-3l188.76,0c1.645,0 3,1.354 3,3c0,1.646 -1.355,3 -3,3Zm0,-33l-263.23,0c-1.646,0 -3,-1.354 -3,-3c0,-1.646 1.354,-3 3,-3l263.23,0c1.645,0 3,1.354 3,3c0,1.646 -1.355,3 -3,3Zm0,-33l-117.37,0c-1.646,0 -3,-1.354 -3,-3c0,-1.646 1.354,-3 3,-3l117.37,0c1.645,0 3,1.354 3,3c0,1.646 -1.355,3 -3,3Zm0,-148.42l-144,0c-1.646,0 -3,-1.354 -3,-3c0,-1.646 1.354,-3 3,-3l144,0c1.645,0 3,1.354 3,3c0,1.646 -1.355,3 -3,3Zm-147,-30.25c0,-1.646 1.354,-3 3,-3l43.66,0c1.645,0 3,1.354 3,3c0,1.646 -1.355,3 -3,3l-43.63,0c0,0 0,0 0,0c-1.646,0 -3,-1.354 -3,-3c0,-0.003 0,-0.007 0,-0.01l-0.03,0.01Zm147,3l-54.35,0c-1.646,0 -3,-1.354 -3,-3c0,-1.646 1.354,-3 3,-3l54.35,0c1.645,0 3,1.354 3,3c0,1.646 -1.355,3 -3,3Zm0,-43.66l-144,0c-1.646,0 -3,-1.354 -3,-3c0,-1.646 1.354,-3 3,-3l144,0c1.645,0 3,1.354 3,3c0,1.646 -1.355,3 -3,3Zm0,-27.37l-144,0c-1.646,0 -3,-1.354 -3,-3c0,-1.646 1.354,-3 3,-3l144,0c1.645,0 3,1.354 3,3c0,1.646 -1.355,3 -3,3Zm-224.42,-490.3c1.645,0 3,1.354 3,3c0,1.646 -1.355,3 -3,3l-208,0c-1.646,0 -3,-1.354 -3,-3c0,-1.646 1.354,-3 3,-3l208,0Zm-74.79,-30.08c0,-1.646 1.354,-3 3,-3l300.81,0c1.645,0 3,1.354 3,3c0,1.646 -1.355,3 -3,3l-300.81,0c-1.646,0 -3,-1.354 -3,-3Zm304.89,96.25c1.645,0 3,1.354 3,3c0,1.646 -1.355,3 -3,3l-301.89,0c-1.646,0 -3,-1.354 -3,-3c0,-1.646 1.354,-3 3,-3l301.89,0Zm-541.38,-165.42l253.1,0c1.645,0 3,1.354 3,3c0,1.646 -1.355,3 -3,3l-253.1,0c-1.646,0 -3,-1.354 -3,-3c0,-1.646 1.354,-3 3,-3Zm0,33.08l541.1,0c1.645,0 3,1.354 3,3c0,1.646 -1.355,3 -3,3l-541.1,0c-1.646,0 -3,-1.354 -3,-3c0,-1.646 1.354,-3 3,-3Zm0,33.09l193.53,0c1.645,0 3,1.354 3,3c0,1.646 -1.355,3 -3,3l-193.53,0c-1.646,0 -3,-1.354 -3,-3c0,-1.646 1.354,-3 3,-3Zm0,33.08l63.23,0c1.645,0 3,1.354 3,3c0,1.646 -1.355,3 -3,3l-63.23,0c-1.646,0 -3,-1.354 -3,-3c0,-1.646 1.354,-3 3,-3Zm0,33.09l311.28,0c1.645,0 3,1.354 3,3c0,1.646 -1.355,3 -3,3l-311.28,0c-1.646,0 -3,-1.354 -3,-3c0,-1.646 1.354,-3 3,-3Zm0,33.08l193.53,0c1.645,0 3,1.354 3,3c0,1.646 -1.355,3 -3,3l-193.53,0c-1.646,0 -3,-1.354 -3,-3c0,-1.646 1.354,-3 3,-3Zm-5,60.62c0,-1.646 1.354,-3 3,-3l543.38,0c1.645,0 3,1.354 3,3l0,241.88c0,1.646 -1.355,3 -3,3l-543.36,0c-1.646,0 -3,-1.354 -3,-3l-0.02,-241.88Zm-0.44,302.88c0,-1.646 1.354,-3 3,-3l147.76,0c1.645,0 3,1.354 3,3l0,19.55c0,1.646 -1.355,3 -3,3l-147.74,0c-1.646,0 -3,-1.354 -3,-3l-0.02,-19.55Zm21.95,49.36c12.041,0 21.95,9.909 21.95,21.95c0,12.041 -9.909,21.95 -21.95,21.95c-12.042,0 -21.95,-9.909 -21.95,-21.95c0.027,-12.039 9.931,-21.934 21.97,-21.95l-0.02,0Zm0,71c0.016,0 0.033,0 0.05,0c12.068,0 22,9.931 22,22c0,12.069 -9.932,22 -22,22c-12.069,0 -22,-9.931 -22,-22c0,-0.013 -0.001,-0.027 -0.001,-0.04c0,-12.058 9.913,-21.984 21.971,-22l-0.02,0.04Zm-21.95,96c0,-1.646 1.354,-3 3,-3l145.25,0c1.645,0 3,1.354 3,3l0,19.55c0,1.646 -1.355,3 -3,3l-145.23,0c-1.646,0 -3,-1.354 -3,-3l-0.02,-19.55Zm0,235.52c0,-1.646 1.354,-3 3,-3l145.25,0c1.645,0 3,1.354 3,3l0,19.55c0,1.646 -1.355,3 -3,3l-145.23,0c-1.646,0 -3,-1.354 -3,-3l-0.02,-19.55Z" style="fill:#fff;fill-rule:nonzero;"/><path d="M783.024,6.005l-65.71,0c-0.104,-0.003 -0.207,-0.005 -0.31,-0.005c-5.261,0 -9.59,4.329 -9.59,9.59c0,5.261 4.329,9.59 9.59,9.59c0.103,0 0.206,-0.002 0.31,-0.005l65.75,0c5.141,-0.166 9.28,-4.441 9.28,-9.585c0,-5.144 -4.139,-9.419 -9.28,-9.585l-0.04,0Z" style="fill:#fff;fill-rule:nonzero;"/><circle cx="481.914" cy="484.635" r="21.16" style="fill:#fff;"/><rect x="425.294" y="582.635" width="113.26" height="4.69" style="fill:#fff;"/><path d="M654.314,519.575c-1.213,0 -2.21,0.998 -2.21,2.21l0,5.75l4.43,0l0,-5.75c0,0 0,0 0,0c0,-1.212 -0.998,-2.21 -2.21,-2.21c-0.004,0 -0.007,0 -0.01,0Z" style="fill:#fff;fill-rule:nonzero;"/><path d="M466.994,576.575l0,-25.63c0.002,-3.22 1.056,-6.353 3,-8.92l-29,0l0,34.55l26,0Z" style="fill:#fff;fill-rule:nonzero;"/><path d="M631.094,519.575c-1.215,0 -2.215,0.996 -2.22,2.21l0,5.75l4.44,0l0,-5.75c0,0 0,0 0,0c0,-1.212 -0.998,-2.21 -2.21,-2.21c-0.004,0 -0.007,0 -0.01,0Z" style="fill:#fff;fill-rule:nonzero;"/><path d="M472.994,550.945l0,25.63l17.84,0l0,-25.63c0,-4.893 -4.027,-8.92 -8.92,-8.92c-4.894,0 -8.92,4.027 -8.92,8.92Z" style="fill:#fff;fill-rule:nonzero;"/><path d="M795.384,80.705l-628,0c-1.646,0 -3,1.354 -3,3l0,1248c0,1.646 1.354,3 3,3l32.39,0l0,46.08c-15.965,1.529 -28.299,15.1 -28.299,31.138c0,9.744 4.553,18.949 12.299,24.862l0,-2c-0.001,-1.801 0.258,-3.593 0.77,-5.32c2.402,-8.017 9.831,-13.546 18.2,-13.546c10.373,0 18.927,8.494 19,18.866l0,2c7.745,-5.913 12.298,-15.118 12.298,-24.862c0,-16.038 -12.334,-29.609 -28.298,-31.138l0,-46.1l589.64,0c1.645,0 3,-1.354 3,-3l0,-1248c-0.011,-1.638 -1.362,-2.98 -3,-2.98Zm-592.58,1334.26c-6.43,0 -11.72,-5.291 -11.72,-11.72c0,-6.429 5.29,-11.72 11.72,-11.72c6.429,0 11.72,5.291 11.72,11.72c0,0.013 0,0.027 0,0.04c-0.028,6.412 -5.308,11.675 -11.72,11.68Zm589.58,-86.28l-622,0l0,-1216.82l622,0l0,1216.82Z" style="fill:#1580f2;fill-rule:nonzero;"/><path d="M210.234,621.515l543.36,0c1.645,0 3,-1.354 3,-3l0,-241.88c0,-1.646 -1.355,-3 -3,-3l-543.36,0c-1.646,0 -3,1.354 -3,3l0,241.88c0,1.646 1.354,3 3,3Zm3,-241.88l537.36,0l0,235.88l-537.36,0l0,-235.88Z" style="fill:#1580f2;fill-rule:nonzero;"/><path d="M285.404,811.025l144.42,0c1.645,0 3,-1.354 3,-3c0,-1.646 -1.355,-3 -3,-3l-144.42,0c-1.646,0 -3,1.354 -3,3c0,1.646 1.354,3 3,3Z" style="fill:#1580f2;fill-rule:nonzero;"/><path d="M400.974,838.545l28.85,0c1.645,0 3,-1.354 3,-3c0,-1.646 -1.355,-3 -3,-3l-28.85,0c-1.646,0 -3,1.354 -3,3c0,1.646 1.354,3 3,3Z" style="fill:#1580f2;fill-rule:nonzero;"/><path d="M285.404,838.545l69.62,0c1.645,0 3,-1.354 3,-3c0,-1.646 -1.355,-3 -3,-3l-69.62,0c-1.646,0 -3,1.354 -3,3c0,1.646 1.354,3 3,3Z" style="fill:#1580f2;fill-rule:nonzero;"/><path d="M228.744,843.735c0.016,0 0.033,0 0.05,0c12.068,0 22,-9.931 22,-22c0,-12.069 -9.932,-22 -22,-22c-12.069,0 -22,9.931 -22,22c-0.001,12.05 9.9,21.973 21.95,22Zm-6.89,-23.19l2.87,3.44l11.11,-11c0.553,-0.509 1.278,-0.792 2.031,-0.792c1.645,0 3,1.354 3,3c0,0.767 -0.294,1.505 -0.821,2.062l-13.43,13.25c-0.562,0.556 -1.32,0.869 -2.11,0.87l-0.14,0c-0.838,-0.039 -1.622,-0.427 -2.16,-1.07l-5,-5.95c-0.459,-0.542 -0.711,-1.229 -0.711,-1.938c0,-1.646 1.354,-3 3,-3c0.899,0 1.751,0.403 2.321,1.098l0.04,0.03Z" style="fill:#1580f2;fill-rule:nonzero;"/><path d="M217.244,824.385l5,5.95c0.538,0.643 1.322,1.031 2.16,1.07l0.14,0c0.79,-0.001 1.548,-0.314 2.11,-0.87l13.39,-13.25c0.527,-0.557 0.821,-1.295 0.821,-2.062c0,-1.646 -1.355,-3 -3,-3c-0.753,0 -1.478,0.283 -2.031,0.792l-11.11,11l-2.87,-3.44c-0.57,-0.695 -1.422,-1.098 -2.321,-1.098c-1.646,0 -3,1.354 -3,3c0,0.709 0.252,1.396 0.711,1.938l0,-0.03Z" style="fill:#fff;fill-rule:nonzero;"/><path d="M285.404,740.065l144.42,0c1.645,0 3,-1.354 3,-3c0,-1.646 -1.355,-3 -3,-3l-144.42,0c-1.646,0 -3,1.354 -3,3c0,1.646 1.354,3 3,3Z" style="fill:#1580f2;fill-rule:nonzero;"/><path d="M285.404,767.575l69.62,0c1.645,0 3,-1.354 3,-3c0,-1.646 -1.355,-3 -3,-3l-69.62,0c-1.646,0 -3,1.354 -3,3c0,1.646 1.354,3 3,3Z" style="fill:#1580f2;fill-rule:nonzero;"/><circle cx="228.744" cy="750.825" r="21.95" style="fill:#1580f2;"/><path d="M747.914,805.165l-54.35,0c-1.646,0 -3,1.354 -3,3c0,1.646 1.354,3 3,3l54.35,0c1.645,0 3,-1.354 3,-3c0,-1.646 -1.355,-3 -3,-3Z" style="fill:#1580f2;fill-rule:nonzero;"/><path d="M603.944,811.165l43.66,0c1.645,0 3,-1.354 3,-3c0,-1.646 -1.355,-3 -3,-3l-43.66,0c-1.646,0 -3,1.354 -3,3c0,1.646 1.354,3 3,3Z" style="fill:#1580f2;fill-rule:nonzero;"/><path d="M747.914,832.415l-144,0c-1.646,0 -3,1.354 -3,3c0,1.646 1.354,3 3,3l144,0c1.645,0 3,-1.354 3,-3c0,-1.646 -1.355,-3 -3,-3Z" style="fill:#1580f2;fill-rule:nonzero;"/><path d="M549.954,772.765c0.003,0 0.006,0 0.01,0c12.041,0 21.95,-9.909 21.95,-21.95c0,-12.041 -9.909,-21.95 -21.95,-21.95c-12.042,0 -21.95,9.909 -21.95,21.95c0,0.003 0,0.007 0,0.01c0.032,12.024 9.916,21.907 21.94,21.94Zm-6.89,-23.19l2.87,3.44l11.11,-11c0.561,-0.555 1.32,-0.867 2.11,-0.867c1.646,0 3.001,1.355 3.001,3.002c0,0.802 -0.321,1.571 -0.891,2.135l-13.44,13.3c-0.561,0.55 -1.315,0.859 -2.1,0.86l-0.15,0c-0.84,-0.041 -1.624,-0.434 -2.16,-1.08l-5,-6c-0.44,-0.536 -0.68,-1.208 -0.68,-1.902c0,-1.645 1.354,-3 3,-3c0.882,0 1.72,0.389 2.29,1.062l0.04,0.05Z" style="fill:#1580f2;fill-rule:nonzero;"/><path d="M538.454,753.415l5,6c0.536,0.646 1.32,1.039 2.16,1.08l0.15,0c0.785,-0.001 1.539,-0.31 2.1,-0.86l13.45,-13.3c0.57,-0.564 0.891,-1.333 0.891,-2.135c0,-1.647 -1.355,-3.002 -3.001,-3.002c-0.79,0 -1.549,0.312 -2.11,0.867l-11.11,11l-2.87,-3.44c-0.57,-0.673 -1.408,-1.062 -2.29,-1.062c-1.646,0 -3,1.355 -3,3c0,0.694 0.24,1.366 0.68,1.902l-0.05,-0.05Z" style="fill:#fff;fill-rule:nonzero;"/><circle cx="549.954" cy="821.785" r="21.95" style="fill:#1580f2;"/><path d="M747.914,734.135l-144,0c-1.646,0 -3,1.354 -3,3c0,1.646 1.354,3 3,3l144,0c1.645,0 3,-1.354 3,-3c0,-1.646 -1.355,-3 -3,-3Z" style="fill:#1580f2;fill-rule:nonzero;"/><path d="M747.914,761.505l-144,0c-1.646,0 -3,1.354 -3,3c0,1.646 1.354,3 3,3l144,0c1.645,0 3,-1.354 3,-3c0,-1.646 -1.355,-3 -3,-3Z" style="fill:#1580f2;fill-rule:nonzero;"/><path d="M360.524,679.515c0,-1.656 -1.345,-3 -3,-3l-147.73,0c-1.656,0 -3,1.344 -3,3l0,19.55c0,1.656 1.344,3 3,3l147.73,0c1.655,0 3,-1.344 3,-3l0,-19.55Z" style="fill:#1580f2;"/><path d="M212.214,156.595l253.1,0c1.645,0 3,-1.354 3,-3c0,-1.646 -1.355,-3 -3,-3l-253.1,0c-1.646,0 -3,1.354 -3,3c0,1.646 1.354,3 3,3Z" style="fill:#1580f2;fill-rule:nonzero;"/><path d="M212.214,189.675l541.1,0c1.645,0 3,-1.354 3,-3c0,-1.646 -1.355,-3 -3,-3l-541.1,0c-1.646,0 -3,1.354 -3,3c0,1.646 1.354,3 3,3Z" style="fill:#1580f2;fill-rule:nonzero;"/><path d="M752.514,222.765c1.645,0 3,-1.354 3,-3c0,-1.646 -1.355,-3 -3,-3l-300.81,0c-1.646,0 -3,1.354 -3,3c0,1.646 1.354,3 3,3l300.81,0Z" style="fill:#1580f2;fill-rule:nonzero;"/><path d="M212.214,222.765l193.53,0c1.645,0 3,-1.354 3,-3c0,-1.646 -1.355,-3 -3,-3l-193.53,0c-1.646,0 -3,1.354 -3,3c0,1.646 1.354,3 3,3Z" style="fill:#1580f2;fill-rule:nonzero;"/><path d="M312.444,252.845c0,1.646 1.354,3 3,3l208,0c1.645,0 3,-1.354 3,-3c0,-1.646 -1.355,-3 -3,-3l-208,0c-1.646,0 -3,1.354 -3,3Z" style="fill:#1580f2;fill-rule:nonzero;"/><path d="M212.214,255.845l63.23,0c1.645,0 3,-1.354 3,-3c0,-1.646 -1.355,-3 -3,-3l-63.23,0c-1.646,0 -3,1.354 -3,3c0,1.646 1.354,3 3,3Z" style="fill:#1580f2;fill-rule:nonzero;"/><path d="M212.214,288.935l311.28,0c1.645,0 3,-1.354 3,-3c0,-1.646 -1.355,-3 -3,-3l-311.28,0c-1.646,0 -3,1.354 -3,3c0,1.646 1.354,3 3,3Z" style="fill:#1580f2;fill-rule:nonzero;"/><path d="M448.704,319.015c0,1.646 1.354,3 3,3l301.89,0c1.645,0 3,-1.354 3,-3c0,-1.646 -1.355,-3 -3,-3l-301.89,0c-1.646,0 -3,1.354 -3,3Z" style="fill:#1580f2;fill-rule:nonzero;"/><path d="M212.214,322.015l193.53,0c1.645,0 3,-1.354 3,-3c0,-1.646 -1.355,-3 -3,-3l-193.53,0c-1.646,0 -3,1.354 -3,3c0,1.646 1.354,3 3,3Z" style="fill:#1580f2;fill-rule:nonzero;"/><path d="M46.554,80.705c-0.012,0 -0.023,0 -0.034,0c-25.52,0 -46.52,21 -46.52,46.52c0,14.787 7.05,28.721 18.964,37.48l0,-2.28c0.001,-1.698 0.162,-3.392 0.48,-5.06c2.419,-13.011 13.88,-22.537 27.115,-22.537c13.234,0 24.695,9.526 27.115,22.537c0.317,1.668 0.478,3.362 0.48,5.06l0,2.28c11.913,-8.759 18.963,-22.693 18.963,-37.48c0,-25.52 -21,-46.52 -46.52,-46.52c-0.014,0 -0.029,0 -0.043,0Zm0,49.61c-8.993,-0.005 -16.39,-7.407 -16.39,-16.4c0,-8.997 7.403,-16.4 16.4,-16.4c8.996,0 16.4,7.403 16.4,16.4c-0.028,8.985 -7.425,16.365 -16.41,16.37l0,0.03Z" style="fill:#1580f2;fill-rule:nonzero;"/><circle cx="46.554" cy="113.915" r="16.4" style="fill:#fff;"/><path d="M73.674,157.345c-2.42,-13.011 -13.881,-22.537 -27.115,-22.537c-13.235,0 -24.696,9.526 -27.115,22.537c-0.318,1.668 -0.479,3.362 -0.48,5.06l0,12c0,1.646 1.354,3 3,3l49.18,-0.41c1.645,0 3,-1.354 3,-3l0,-11.59c0.001,-1.698 -0.156,-3.392 -0.47,-5.06Z" style="fill:#fff;fill-rule:nonzero;"/><path d="M202.804,1391.54c-6.43,0 -11.72,5.291 -11.72,11.72c0,6.429 5.29,11.72 11.72,11.72c6.418,0 11.703,-5.272 11.72,-11.69c0,-0.007 0,-0.013 0,-0.02c0,-6.431 -5.289,-11.725 -11.72,-11.73Z" style="fill:#fff;fill-rule:nonzero;"/><path d="M221.024,1429.45c-2.386,-8.041 -9.828,-13.595 -18.215,-13.595c-8.388,0 -15.829,5.554 -18.215,13.595c-0.512,1.727 -0.771,3.519 -0.77,5.32l0,7.79c0,1.646 1.354,3 3,3l32,-0.27c1.645,0 3,-1.354 3,-3l0,-7.52c-0.014,-1.802 -0.284,-3.593 -0.8,-5.32Z" style="fill:#fff;fill-rule:nonzero;"/><path d="M15.604,31.175l399.34,0c8.4,-0.213 15.195,-7.182 15.195,-15.585c0,-8.403 -6.795,-15.372 -15.195,-15.585l-399.34,0c-8.401,0.213 -15.196,7.182 -15.196,15.585c0,8.403 6.795,15.372 15.196,15.585Z" style="fill:#f37a78;fill-rule:nonzero;"/><path d="M783.024,0.005l-65.71,0c-0.132,-0.003 -0.264,-0.005 -0.395,-0.005c-8.553,0 -15.59,7.038 -15.59,15.59c0,8.552 7.037,15.59 15.59,15.59c0.131,0 0.263,-0.002 0.395,-0.005l65.75,0c8.4,-0.213 15.195,-7.182 15.195,-15.585c0,-8.403 -6.795,-15.372 -15.195,-15.585l-0.04,0Zm0,25.17l-65.71,0c-0.104,0.003 -0.207,0.005 -0.31,0.005c-5.261,0 -9.59,-4.329 -9.59,-9.59c0,-5.261 4.329,-9.59 9.59,-9.59c0.103,0 0.206,0.002 0.31,0.005l65.75,0c5.141,0.166 9.28,4.441 9.28,9.585c0,5.144 -4.139,9.419 -9.28,9.585l-0.04,0Z" style="fill:#9eb1db;fill-rule:nonzero;"/><path d="M579.404,31.175l65.75,0c0.131,0.003 0.263,0.005 0.394,0.005c8.553,0 15.59,-7.038 15.59,-15.59c0,-8.552 -7.037,-15.59 -15.59,-15.59c-0.131,0 -0.263,0.002 -0.394,0.005l-65.75,0c-8.401,0.213 -15.196,7.182 -15.196,15.585c0,8.403 6.795,15.372 15.196,15.585Z" style="fill:#9eb1db;fill-rule:nonzero;"/><path d="M218.634,1177.94l-6.42,0c-1.646,0 -3,1.354 -3,3c0,1.646 1.354,3 3,3l6.42,0c1.645,0 3,-1.354 3,-3c0,-1.646 -1.355,-3 -3,-3Z" style="fill:#1580f2;fill-rule:nonzero;"/><path d="M279.534,1180.94c0,1.646 1.354,3 3,3l257.89,0c1.645,0 3,-1.354 3,-3c0,-1.646 -1.355,-3 -3,-3l-257.89,0c-1.646,0 -3,1.354 -3,3Z" style="fill:#1580f2;fill-rule:nonzero;"/><path d="M747.914,1211.64l-252.13,0c-1.646,0 -3,1.354 -3,3c0,1.646 1.354,3 3,3l252.13,0c1.645,0 3,-1.354 3,-3c0,-1.646 -1.355,-3 -3,-3Z" style="fill:#1580f2;fill-rule:nonzero;"/><path d="M282.534,1217.64l167.3,0c1.645,0 3,-1.354 3,-3c0,-1.646 -1.355,-3 -3,-3l-167.3,0c-1.646,0 -3,1.354 -3,3c0,1.646 1.354,3 3,3Z" style="fill:#1580f2;fill-rule:nonzero;"/><path d="M218.634,1244.54l-6.42,0c-1.646,0 -3,1.354 -3,3c0,1.646 1.354,3 3,3l6.42,0c1.645,0 3,-1.354 3,-3c0,-1.646 -1.355,-3 -3,-3Z" style="fill:#1580f2;fill-rule:nonzero;"/><path d="M747.914,1244.54l-75.9,0c-1.646,0 -3,1.354 -3,3c0,1.646 1.354,3 3,3l75.9,0c1.645,0 3,-1.354 3,-3c0,-1.646 -1.355,-3 -3,-3Z" style="fill:#1580f2;fill-rule:nonzero;"/><path d="M626.064,1244.54l-343.53,0c-1.646,0 -3,1.354 -3,3c0,1.646 1.354,3 3,3l343.53,0c1.645,0 3,-1.354 3,-3c0,-1.646 -1.355,-3 -3,-3Z" style="fill:#1580f2;fill-rule:nonzero;"/><path d="M420.974,1278.29l-138.44,0c-1.646,0 -3,1.354 -3,3c0,1.646 1.354,3 3,3l138.44,0c1.645,0 3,-1.354 3,-3c0,-1.646 -1.355,-3 -3,-3Z" style="fill:#1580f2;fill-rule:nonzero;"/><path d="M354.444,1395.85l-66.61,0c-8.668,0.216 -15.68,7.405 -15.68,16.075c0,8.67 7.012,15.859 15.68,16.075l66.61,0c0.133,0.003 0.267,0.005 0.4,0.005c8.822,0 16.08,-7.259 16.08,-16.08c0,-8.821 -7.258,-16.08 -16.08,-16.08c-0.133,0 -0.267,0.002 -0.4,0.005Z" style="fill:#9eb1db;fill-rule:nonzero;"/><path d="M713.984,576.635l-12.67,0l0,-67.84c0,-1.646 -1.355,-3 -3,-3l-27,0c6.419,-5.142 10.162,-12.935 10.162,-21.16c0,-8.225 -3.743,-16.018 -10.162,-21.16l11.49,0c1.645,0 3,-1.354 3,-3l0,-7.86l12.51,0c1.645,0 3,-1.354 3,-3l0,-10.82l0,-0.07c0.014,-0.15 0.014,-0.3 0,-0.45c0.005,-0.06 0.005,-0.12 0,-0.18c-0.023,-0.119 -0.057,-0.237 -0.1,-0.35c-0.018,-0.059 -0.041,-0.116 -0.07,-0.17c-0.06,-0.138 -0.131,-0.272 -0.21,-0.4c-0.003,-0.02 -0.003,-0.04 0,-0.06c-0.099,-0.145 -0.21,-0.282 -0.33,-0.41l-0.13,-0.11c-0.059,-0.062 -0.123,-0.119 -0.19,-0.17l-44,-33.93c-1.078,-0.833 -2.593,-0.833 -3.67,0l-44,33.93c-0.068,0.051 -0.132,0.108 -0.19,0.17l-0.13,0.11c-0.121,0.128 -0.232,0.265 -0.33,0.41l0,0.07c-0.082,0.123 -0.153,0.254 -0.21,0.39c-0.03,0.054 -0.053,0.111 -0.07,0.17c-0.043,0.115 -0.08,0.232 -0.11,0.35c0.003,0.06 0.003,0.12 0,0.18c-0.01,0.15 -0.01,0.3 0,0.45c0.009,0.15 0,0.05 0,0.07l0,10.87c0,1.646 1.354,3 3,3l12.48,0l0,7.86c0,1.646 1.354,3 3,3l11.49,0c-6.42,5.142 -10.163,12.935 -10.163,21.16c0,8.225 3.743,16.018 10.163,21.16l-27,0c-1.646,0 -3,1.354 -3,3l0,67.84l-12.81,0c-1.646,0 -3,1.354 -3,3l0,10.6c0,1.646 1.354,3 3,3l119.25,0c1.645,0 3,-1.354 3,-3l0,-10.65c0,-1.646 -1.355,-3 -3,-3Zm-47.67,-34.61l29,0l0,34.55l-26,0l0,-25.63c-0.007,-3.219 -1.06,-6.351 -3,-8.92Zm-3,8.92l0,25.63l-17.88,0l0,-25.63c0,-4.893 4.026,-8.92 8.92,-8.92c4.893,0 8.92,4.027 8.92,8.92l0.04,0Zm-9,-142.33l35.17,27.13l-70.29,0l35.12,-27.13Zm-41,38l0,-4.87l82,0l0,4.87l-81.92,0l-0.08,0Zm15.48,10.86l0,-4.86l51,0l0,4.86l-51,0Zm4.33,27.16c0,-11.608 9.552,-21.16 21.16,-21.16c11.608,0 21.16,9.552 21.16,21.16c0,11.597 -9.534,21.144 -21.13,21.16c-11.583,-0.044 -21.094,-9.577 -21.11,-21.16l-0.08,0Zm-19.81,27.16l82,0l0,24.23l-81.92,0l-0.08,-24.23Zm29,30.23c-1.94,2.569 -2.993,5.701 -3,8.92l0,25.63l-26,0l0,-34.55l29,0Zm68.67,45.26l-113.25,0l0,-4.69l113.25,0l0,4.69Z" style="fill:#1580f2;fill-rule:nonzero;"/><path d="M662.574,530.535l0,-8.75c-0.154,-4.399 -3.814,-7.933 -8.215,-7.933c-4.402,0 -8.062,3.534 -8.215,7.933l0,8.75c0,1.646 1.354,3 3,3l10.43,0c1.645,0 3,-1.354 3,-3Zm-6,-3l-4.43,0l0,-5.75c0.077,-1.159 1.053,-2.071 2.215,-2.071c1.161,0 2.137,0.912 2.215,2.071l0,5.75Z" style="fill:#1580f2;fill-rule:nonzero;"/><path d="M672.414,533.535l10.43,0c1.645,0 3,-1.354 3,-3l0,-8.75c-0.154,-4.399 -3.814,-7.933 -8.215,-7.933c-4.402,0 -8.062,3.534 -8.215,7.933l0,8.75c0,1.646 1.354,3 3,3Zm3,-11.75c0.077,-1.159 1.053,-2.071 2.215,-2.071c1.161,0 2.137,0.912 2.215,2.071l0,5.75l-4.43,0l0,-5.75Z" style="fill:#1580f2;fill-rule:nonzero;"/><path d="M631.094,513.575c-4.506,0 -8.215,3.704 -8.22,8.21l0,8.75c0,1.646 1.354,3 3,3l10.44,0c1.645,0 3,-1.354 3,-3l0,-8.75c-0.006,-4.506 -3.715,-8.21 -8.22,-8.21Zm2.21,14l-4.43,0l0,-5.79c0.077,-1.159 1.053,-2.071 2.215,-2.071c1.161,0 2.137,0.912 2.215,2.071l0,5.79Z" style="fill:#1580f2;fill-rule:nonzero;"/><path d="M541.544,576.635l-12.66,0l0,-67.84c0,-1.646 -1.355,-3 -3,-3l-27,0c6.419,-5.142 10.162,-12.935 10.162,-21.16c0,-8.225 -3.743,-16.018 -10.162,-21.16l27,0c1.645,0 3,-1.354 3,-3l0,-10.86c0,-0.017 0,-0.033 0,-0.05c0.014,-0.18 0.014,-0.36 0,-0.54l0,-0.1c-0.03,-0.136 -0.07,-0.27 -0.12,-0.4l-0.08,-0.17c-0.051,-0.11 -0.108,-0.217 -0.17,-0.32l-0.09,-0.14c-0.092,-0.136 -0.196,-0.263 -0.31,-0.38l-44,-44.76c-1.189,-1.141 -3.092,-1.141 -4.28,0l-44,44.73c-0.115,0.12 -0.222,0.246 -0.32,0.38l-0.08,0.14c-0.07,0.101 -0.13,0.208 -0.18,0.32c0,0.06 0,0.11 -0.07,0.17c-0.051,0.13 -0.091,0.264 -0.12,0.4l0,0.1c-0.037,0.178 -0.054,0.359 -0.05,0.54c-0.001,0.017 -0.001,0.033 0,0.05l0,10.86c0,1.646 1.354,3 3,3l27,0c-6.413,5.146 -10.151,12.938 -10.151,21.16c0,8.222 3.738,16.014 10.151,21.16l-27,0c-1.646,0 -3,1.354 -3,3l0,67.84l-12.7,0c-1.646,0 -3,1.354 -3,3l0,10.68c0,1.646 1.354,3 3,3l119.23,0c1.645,0 3,-1.354 3,-3l0,-10.65c0,-1.646 -1.355,-3 -3,-3Zm-47.69,-34.61l29,0l0,34.55l-26.02,0l0,-25.63c-0.001,-3.217 -1.047,-6.348 -2.98,-8.92Zm-3,8.92l0,25.63l-17.86,0l0,-25.63c0,-4.893 4.026,-8.92 8.92,-8.92c4.893,0 8.92,4.027 8.92,8.92l0.02,0Zm-8.94,-141.84l36.82,37.51l-73.63,0l36.81,-37.51Zm-41,48.37l0,-4.86l81.93,0l0,4.86l-81.93,0Zm19.81,27.16c0,-11.608 9.551,-21.16 21.16,-21.16c11.608,0 21.16,9.552 21.16,21.16c0,11.608 -9.552,21.16 -21.16,21.16c-0.004,0 -0.007,0 -0.01,0c-11.583,-0.044 -21.094,-9.577 -21.11,-21.16l-0.04,0Zm-19.81,27.16l81.93,0l0,24.23l-81.89,0l-0.04,-24.23Zm29,30.23c-1.944,2.567 -2.998,5.7 -3,8.92l0,25.63l-26,0l0,-34.55l29,0Zm68.63,45.26l-113.23,0l0,-4.69l113.23,0l0,4.69Z" style="fill:#1580f2;fill-rule:nonzero;"/><path d="M463.864,516.105l-10.43,0c-1.646,0 -3,1.354 -3,3l0,10.43c0,1.646 1.354,3 3,3l10.43,0c1.645,0 3,-1.354 3,-3l0,-10.43c0,-1.646 -1.355,-3 -3,-3Zm-3,10.43l-4.43,0l0,-4.43l4.43,0l0,4.43Z" style="fill:#1580f2;fill-rule:nonzero;"/><path d="M499.974,532.535l10.43,0c1.645,0 3,-1.354 3,-3l0,-10.43c0,-1.646 -1.355,-3 -3,-3l-10.43,0c-1.646,0 -3,1.354 -3,3l0,10.43c0,1.646 1.354,3 3,3Zm3,-10.43l4.43,0l0,4.43l-4.43,0l0,-4.43Z" style="fill:#1580f2;fill-rule:nonzero;"/><path d="M369.104,576.635l-12.66,0l0,-67.84c0,-1.646 -1.355,-3 -3,-3l-27,0c6.419,-5.142 10.162,-12.935 10.162,-21.16c0,-8.225 -3.743,-16.018 -10.162,-21.16l27,0c1.644,-0.002 2.996,-1.356 2.996,-3c0,-0.675 -0.228,-1.33 -0.646,-1.86l-44,-55.65c-0.569,-0.72 -1.438,-1.142 -2.355,-1.142c-0.918,0 -1.787,0.422 -2.355,1.142l-44,55.65c-0.419,0.53 -0.647,1.185 -0.647,1.86c0,1.644 1.352,2.998 2.997,3l27,0c-6.413,5.146 -10.151,12.938 -10.151,21.16c0,8.222 3.738,16.014 10.151,21.16l-27,0c-1.646,0 -3,1.354 -3,3l0,67.84l-12.59,0c-1.646,0 -3,1.354 -3,3l0,10.65c0,1.646 1.354,3 3,3l119.26,0c1.645,0 3,-1.354 3,-3l0,-10.65c0,-1.646 -1.355,-3 -3,-3Zm-68.55,-0.06l0,-34.55l17.84,0l0,34.55l-17.84,0Zm-28.85,-119.1l37.77,-47.81l37.77,47.81l-75.54,0Zm16.61,27.16c0,-11.608 9.551,-21.16 21.16,-21.16c11.608,0 21.16,9.552 21.16,21.16c0,11.608 -9.552,21.16 -21.16,21.16c-0.004,0 -0.007,0 -0.01,0c-11.599,-0.022 -21.134,-9.562 -21.15,-21.16Zm-19.8,27.16l81.93,0l0,64.78l-26.05,0l0,-37.55c0,-1.646 -1.355,-3 -3,-3l-23.84,0c-1.646,0 -3,1.354 -3,3l0,37.55l-26,0l-0.04,-64.78Zm97.59,75.49l-113.26,0l0,-4.69l113.26,0l0,4.69Z" style="fill:#1580f2;fill-rule:nonzero;"/><path d="M358.024,1131.39c0,-1.656 -1.345,-3 -3,-3l-145.23,0c-1.656,0 -3,1.344 -3,3l0,19.55c0,1.656 1.344,3 3,3l145.23,0c1.655,0 3,-1.344 3,-3l0,-19.55Z" style="fill:#1580f2;"/><path d="M358.024,895.875c0,-1.656 -1.345,-3 -3,-3l-145.23,0c-1.656,0 -3,1.344 -3,3l0,19.55c0,1.656 1.344,3 3,3l145.23,0c1.655,0 3,-1.344 3,-3l0,-19.55Z" style="fill:#1580f2;"/><path d="M246.524,949.045c-0.566,-0.762 -1.461,-1.213 -2.41,-1.213c-0.645,0 -1.273,0.208 -1.79,0.593l-31.9,23.73c-0.759,0.566 -1.207,1.459 -1.207,2.405c0,0.946 0.448,1.839 1.207,2.405l31.9,23.73c0.517,0.384 1.145,0.592 1.79,0.592c1.646,0 3.002,-1.355 3.002,-3.002c0,-0.949 -0.451,-1.844 -1.212,-2.41l-28.66,-21.31l28.66,-21.28c0.773,-0.564 1.232,-1.466 1.232,-2.424c0,-0.656 -0.215,-1.294 -0.612,-1.816Z" style="fill:#1580f2;fill-rule:nonzero;"/><path d="M323.224,1000.08c0.98,1.317 2.869,1.596 4.19,0.62l31.9,-23.73c0.758,-0.566 1.206,-1.459 1.206,-2.405c0,-0.946 -0.448,-1.839 -1.206,-2.405l-31.91,-23.73c-0.518,-0.384 -1.146,-0.592 -1.79,-0.592c-1.647,0 -3.003,1.355 -3.003,3.002c0,0.949 0.451,1.844 1.213,2.41l28.67,21.32l-28.67,21.31c-0.755,0.566 -1.2,1.456 -1.2,2.4c0,0.649 0.21,1.281 0.6,1.8Z" style="fill:#1580f2;fill-rule:nonzero;"/><path d="M271.714,1001.28c1.105,0.003 2.126,-0.606 2.65,-1.58l27.57,-51.36c0.234,-0.437 0.357,-0.924 0.357,-1.42c0,-1.647 -1.356,-3.002 -3.002,-3.002c-1.105,0 -2.123,0.609 -2.645,1.582l-27.57,51.36c-0.235,0.437 -0.358,0.924 -0.358,1.42c0,1.645 1.353,2.999 2.998,3Z" style="fill:#1580f2;fill-rule:nonzero;"/><path d="M519.154,947.835l-118.18,0c-1.646,0 -3,1.354 -3,3c0,1.646 1.354,3 3,3l118.18,0c1.645,0 3,-1.354 3,-3c0,-1.646 -1.355,-3 -3,-3Z" style="fill:#1580f2;fill-rule:nonzero;"/><path d="M747.914,980.835l-117.37,0c-1.646,0 -3,1.354 -3,3c0,1.646 1.354,3 3,3l117.37,0c1.645,0 3,-1.354 3,-3c0,-1.646 -1.355,-3 -3,-3Z" style="fill:#1580f2;fill-rule:nonzero;"/><path d="M397.974,983.835c0,1.646 1.354,3 3,3l189.57,0c1.645,0 3,-1.354 3,-3c0,-1.646 -1.355,-3 -3,-3l-189.57,0c-1.646,0 -3,1.354 -3,3Z" style="fill:#1580f2;fill-rule:nonzero;"/><path d="M747.914,1013.84l-263.23,0c-1.646,0 -3,1.354 -3,3c0,1.646 1.354,3 3,3l263.23,0c1.645,0 3,-1.354 3,-3c0,-1.646 -1.355,-3 -3,-3Z" style="fill:#1580f2;fill-rule:nonzero;"/><path d="M400.974,1013.84c-1.646,0 -3,1.354 -3,3c0,1.646 1.354,3 3,3l43.71,0c1.645,0 3,-1.354 3,-3c0,-1.646 -1.355,-3 -3,-3l-43.71,0Z" style="fill:#1580f2;fill-rule:nonzero;"/><path d="M747.914,1046.84l-188.76,0c-1.646,0 -3,1.354 -3,3c0,1.646 1.354,3 3,3l188.76,0c1.645,0 3,-1.354 3,-3c0,-1.646 -1.355,-3 -3,-3Z" style="fill:#1580f2;fill-rule:nonzero;"/><path d="M211.524,1052.84l307.63,0c1.645,0 3,-1.354 3,-3c0,-1.646 -1.355,-3 -3,-3l-307.63,0c-1.646,0 -3,1.354 -3,3c0,1.646 1.354,3 3,3Z" style="fill:#1580f2;fill-rule:nonzero;"/><path d="M211.524,1085.84l238.31,0c1.645,0 3,-1.354 3,-3c0,-1.646 -1.355,-3 -3,-3l-238.31,0c-1.646,0 -3,1.354 -3,3c0,1.646 1.354,3 3,3Z" style="fill:#1580f2;fill-rule:nonzero;"/></svg>