<svg viewBox="0 0 799 1446" xmlns="http://www.w3.org/2000/svg" fill-rule="evenodd" clip-rule="evenodd" stroke-linejoin="round" stroke-miterlimit="1.41421"><path fill="#fff" d="M597.734 582.635H710.994V587.325H597.734z"/><path d="M695.314 536.025v-24.23h-81.92v24.23h81.92zm-25.9-14.24c.153-4.399 3.813-7.933 8.215-7.933 4.401 0 8.061 3.534 8.215 7.933v8.75c0 1.646-1.355 3-3 3h-10.43c-1.646 0-3-1.354-3-3v-8.75zm-30.1 8.75c0 1.646-1.355 3-3 3h-10.44c-1.646 0-3-1.354-3-3v-8.75c.153-4.399 3.813-7.933 8.215-7.933 4.401 0 8.061 3.534 8.215 7.933l.01 8.75zm6.84 0v-8.75c.153-4.399 3.813-7.933 8.215-7.933 4.401 0 8.061 3.534 8.215 7.933v8.75c0 1.646-1.355 3-3 3h-10.44c-1.646 0-3-1.354-3-3h.01z" fill="#fff" fill-rule="nonzero"/><path fill="#fff" d="M300.554 542.025H318.39399999999995V576.5649999999999H300.554z"/><path d="M750.594 379.635h-537.36v235.88h537.36v-235.88zm-378.49 210.65c0 1.646-1.355 3-3 3h-119.26c-1.646 0-3-1.354-3-3v-10.65c0-1.646 1.354-3 3-3h12.67v-67.84c0-1.646 1.354-3 3-3h27a27.147 27.147 0 0 1-10.151-21.16 27.147 27.147 0 0 1 10.151-21.16h-27a3.015 3.015 0 0 1-2.997-3c0-.675.228-1.33.647-1.86l44-55.65a3.002 3.002 0 0 1 4.71 0l44 55.65c.418.53.646 1.185.646 1.86a3.014 3.014 0 0 1-2.996 3h-27a27.128 27.128 0 0 1 10.162 21.16 27.128 27.128 0 0 1-10.162 21.16h27c1.645 0 3 1.354 3 3v67.84h12.66c1.645 0 3 1.354 3 3l-.08 10.65zm172.44 0c0 1.646-1.355 3-3 3h-119.23c-1.646 0-3-1.354-3-3v-10.65c0-1.646 1.354-3 3-3h12.66v-67.84c0-1.646 1.354-3 3-3h27a27.147 27.147 0 0 1-10.151-21.16 27.147 27.147 0 0 1 10.151-21.16h-27c-1.646 0-3-1.354-3-3v-10.86a2.393 2.393 0 0 1 .05-.59v-.1c.029-.136.069-.27.12-.4 0-.06 0-.11.07-.17.05-.112.11-.219.18-.32l.08-.14a3.74 3.74 0 0 1 .32-.38l43.94-44.76a3.104 3.104 0 0 1 4.28 0l44 44.76c.114.117.218.244.31.38l.09.14c.062.103.119.21.17.32l.08.17c.05.13.09.264.12.4v.1c.014.18.014.36 0 .54v10.91c0 1.646-1.355 3-3 3h-27a27.128 27.128 0 0 1 10.162 21.16 27.128 27.128 0 0 1-10.162 21.16h27c1.645 0 3 1.354 3 3v67.84h12.66c1.645 0 3 1.354 3 3l.1 10.65zm172.44 0c0 1.646-1.355 3-3 3h-119.25c-1.646 0-3-1.354-3-3v-10.65c0-1.646 1.354-3 3-3h12.66v-67.84c0-1.646 1.354-3 3-3h27a27.126 27.126 0 0 1-10.163-21.16 27.126 27.126 0 0 1 10.163-21.16h-11.52c-1.646 0-3-1.354-3-3v-7.86h-12.48c-1.646 0-3-1.354-3-3v-10.94c-.01-.15-.01-.3 0-.45.003-.06.003-.12 0-.18.03-.118.067-.235.11-.35a.812.812 0 0 1 .07-.17c.057-.136.128-.267.21-.39v-.07c.098-.145.209-.282.33-.41l.13-.11a1.46 1.46 0 0 1 .19-.17l44-33.93a3.007 3.007 0 0 1 3.67 0l44 33.93c.067.051.131.108.19.17l.13.11c.12.128.231.265.33.41a.201.201 0 0 0 0 .06c.079.128.15.262.21.4a.935.935 0 0 1 .07.17c.043.113.077.231.1.35.005.06.005.12 0 .18.014.15.014.3 0 .45-.015.15 0 .05 0 .07v10.82c0 1.646-1.355 3-3 3h-12.29v7.86c0 1.646-1.355 3-3 3h-11.53a27.128 27.128 0 0 1 10.162 21.16 27.128 27.128 0 0 1-10.162 21.16h27c1.645 0 3 1.354 3 3v67.84h12.66c1.645 0 3 1.354 3 3l.01 10.7z" fill="#fff" fill-rule="nonzero"/><path d="M522.884 576.575v-34.55h-29a14.859 14.859 0 0 1 3 8.92v25.63h26zm116.55 0v-25.63a14.859 14.859 0 0 1 3-8.92h-29v34.55h26zm55.88 0v-34.55h-29a14.859 14.859 0 0 1 3 8.92v25.63h26zm-49.88-25.63v25.63h17.88v-25.63c0-4.893-4.027-8.92-8.92-8.92-4.894 0-8.92 4.027-8.92 8.92h-.04zm-350.88-11.92c0-1.646 1.354-3 3-3h23.84c1.645 0 3 1.354 3 3v37.55h26.05v-64.78h-81.93v64.78h26l.04-37.55zm400.77-92.41v-4.87h-81.93v4.87h81.93zm-172.44 89.41v-24.23h-81.93v24.23h81.93zm-25.91-16.92c0-1.646 1.354-3 3-3h10.43c1.645 0 3 1.354 3 3v10.43c0 1.646-1.355 3-3 3h-10.43c-1.646 0-3-1.354-3-3v-10.43zm-30.11 10.43c0 1.646-1.355 3-3 3h-10.43c-1.646 0-3-1.354-3-3v-10.43c0-1.646 1.354-3 3-3h10.43c1.645 0 3 1.354 3 3v10.43zm187.49-120.92l-35.16 27.13h70.33l-35.17-27.13z" fill="#fff" fill-rule="nonzero"/><path fill="#fff" d="M456.434 522.105H460.86400000000003V526.535H456.434z"/><path fill="#fff" d="M252.844 582.635H366.104V587.325H252.844z"/><path d="M309.474 409.665l-37.77 47.81h75.54l-37.77-47.81z" fill="#fff" fill-rule="nonzero"/><path fill="#fff" d="M502.974 522.105H507.404V526.535H502.974z"/><path fill="#fff" d="M628.874 452.615H679.844V457.485H628.874z"/><circle cx="309.474" cy="484.635" r="21.16" fill="#fff"/><path d="M675.514 484.635c0-11.608-9.552-21.16-21.16-21.16-11.609 0-21.16 9.552-21.16 21.16 0 11.593 9.527 21.138 21.12 21.16 11.616.005 21.183-9.543 21.2-21.16z" fill="#fff" fill-rule="nonzero"/><path fill="#fff" d="M440.954 452.615H522.884V457.485H440.954z"/><path d="M679.844 521.785a2.23 2.23 0 0 0-2.215-2.071 2.228 2.228 0 0 0-2.215 2.071v5.75h4.43v-5.75zm-197.93-112.68l-36.81 37.51h73.63l-36.82-37.51z" fill="#fff" fill-rule="nonzero"/><path d="M170.414 1328.68h622V111.86h-622v1216.82zm48.22-78.15h-6.42c-1.646 0-3-1.354-3-3s1.354-3 3-3h6.42c1.645 0 3 1.354 3 3s-1.355 3-3 3zm0-66.59h-6.42c-1.646 0-3-1.354-3-3s1.354-3 3-3h6.42c1.645 0 3 1.354 3 3s-1.355 3-3 3zm202.34 100.34h-138.44c-1.646 0-3-1.354-3-3s1.354-3 3-3h138.44c1.645 0 3 1.354 3 3s-1.355 3-3 3zm205.09-33.7h-343.53c-1.646 0-3-1.354-3-3s1.354-3 3-3h343.53c1.645 0 3 1.354 3 3s-1.355 3-3 3zm-380.16-254.71a3.007 3.007 0 0 1 1.212 2.41 3.017 3.017 0 0 1-3.002 3.002 3.003 3.003 0 0 1-1.79-.592l-31.9-23.73a3.003 3.003 0 0 1-1.207-2.405c0-.946.448-1.839 1.207-2.405l31.9-23.73a3.003 3.003 0 0 1 1.79-.592 3.017 3.017 0 0 1 3.002 3.002c0 .949-.451 1.844-1.212 2.41l-28.66 21.32 28.66 21.31zm-34.38 51h307.63c1.645 0 3 1.354 3 3s-1.355 3-3 3h-307.63c-1.646 0-3-1.354-3-3s1.354-3 3-3zm57.55-50l27.57-51.36a3.004 3.004 0 0 1 2.645-1.582 3.017 3.017 0 0 1 3.002 3.002c0 .496-.123.983-.357 1.42l-27.57 51.36a3.006 3.006 0 0 1-2.645 1.582 3.017 3.017 0 0 1-3.003-3.002c0-.496.123-.983.358-1.42zm54.76-43.59a3.005 3.005 0 0 1-1.213-2.41 3.017 3.017 0 0 1 3.003-3.002c.644 0 1.272.208 1.79.592l31.9 23.69a3.005 3.005 0 0 1 1.206 2.405c0 .946-.448 1.839-1.206 2.405l-31.91 23.73a3.008 3.008 0 0 1-1.79.592 3.017 3.017 0 0 1-3.003-3.002c0-.949.451-1.844 1.213-2.41l28.67-21.31-28.66-21.28zm226.12-153.45h.06c12.068 0 22 9.931 22 22s-9.932 22-22 22c-12.069 0-22-9.931-22-22-.001-12.046 9.893-21.967 21.94-22zm-21.94-49v-.01c0-12.041 9.908-21.95 21.95-21.95 12.041 0 21.95 9.909 21.95 21.95 0 12.041-9.909 21.95-21.95 21.95h-.01c-12.028-.033-21.913-9.923-21.94-21.95v.01zm62.53 230c1.645 0 3 1.354 3 3s-1.355 3-3 3h-189.57c-1.646 0-3-1.354-3-3s1.354-3 3-3h189.57zm-142.86 36c0 1.646-1.355 3-3 3h-43.71c-1.646 0-3-1.354-3-3s1.354-3 3-3h43.71c1.645 0 3 1.354 3 3zm71.47-63h-118.18c-1.646 0-3-1.354-3-3s1.354-3 3-3h118.18c1.645 0 3 1.354 3 3s-1.355 3-3 3zm-121.18-118.29c0-1.646 1.354-3 3-3h28.85c1.645 0 3 1.354 3 3s-1.355 3-3 3h-28.85c-1.646 0-3-1.354-3-3zm-112.57-74h69.62c1.645 0 3 1.354 3 3s-1.355 3-3 3h-69.62c-1.646 0-3-1.354-3-3s1.354-3 3-3zm-3-24.51c0-1.646 1.354-3 3-3h144.42c1.645 0 3 1.354 3 3s-1.355 3-3 3h-144.42a3.014 3.014 0 0 1-3-2.97v-.03zm3 68h144.42c1.645 0 3 1.354 3 3s-1.355 3-3 3h-144.42c-1.646 0-3-1.354-3-3s1.354-3 3-3zm0 27.52h69.62c1.645 0 3 1.354 3 3s-1.355 3-3 3h-69.62c-1.646 0-3-1.354-3-3s1.354-3 3-3zm-73.88 247.29h238.31c1.645 0 3 1.354 3 3s-1.355 3-3 3h-238.31c-1.646 0-3-1.354-3-3s1.354-3 3-3zm328.9 98.11c1.645 0 3 1.354 3 3s-1.355 3-3 3h-257.89c-1.646 0-3-1.354-3-3s1.354-3 3-3h257.89zm-257.89 33.7h167.3c1.645 0 3 1.354 3 3s-1.355 3-3 3h-167.3c-1.646 0-3-1.354-3-3s1.354-3 3-3zm465.38 38.89h-75.9c-1.646 0-3-1.354-3-3s1.354-3 3-3h75.9c1.645 0 3 1.354 3 3s-1.355 3-3 3zm0-32.89h-252.13c-1.646 0-3-1.354-3-3s1.354-3 3-3h252.13c1.645 0 3 1.354 3 3s-1.355 3-3 3zm0-164.81h-188.76c-1.646 0-3-1.354-3-3s1.354-3 3-3h188.76c1.645 0 3 1.354 3 3s-1.355 3-3 3zm0-33h-263.23c-1.646 0-3-1.354-3-3s1.354-3 3-3h263.23c1.645 0 3 1.354 3 3s-1.355 3-3 3zm0-33h-117.37c-1.646 0-3-1.354-3-3s1.354-3 3-3h117.37c1.645 0 3 1.354 3 3s-1.355 3-3 3zm0-148.42h-144c-1.646 0-3-1.354-3-3s1.354-3 3-3h144c1.645 0 3 1.354 3 3s-1.355 3-3 3zm-147-30.25c0-1.646 1.354-3 3-3h43.66c1.645 0 3 1.354 3 3s-1.355 3-3 3h-43.63c-1.646 0-3-1.354-3-3v-.01l-.03.01zm147 3h-54.35c-1.646 0-3-1.354-3-3s1.354-3 3-3h54.35c1.645 0 3 1.354 3 3s-1.355 3-3 3zm0-43.66h-144c-1.646 0-3-1.354-3-3s1.354-3 3-3h144c1.645 0 3 1.354 3 3s-1.355 3-3 3zm0-27.37h-144c-1.646 0-3-1.354-3-3s1.354-3 3-3h144c1.645 0 3 1.354 3 3s-1.355 3-3 3zm-224.42-490.3c1.645 0 3 1.354 3 3s-1.355 3-3 3h-208c-1.646 0-3-1.354-3-3s1.354-3 3-3h208zm-74.79-30.08c0-1.646 1.354-3 3-3h300.81c1.645 0 3 1.354 3 3s-1.355 3-3 3h-300.81c-1.646 0-3-1.354-3-3zm304.89 96.25c1.645 0 3 1.354 3 3s-1.355 3-3 3h-301.89c-1.646 0-3-1.354-3-3s1.354-3 3-3h301.89zm-541.38-165.42h253.1c1.645 0 3 1.354 3 3s-1.355 3-3 3h-253.1c-1.646 0-3-1.354-3-3s1.354-3 3-3zm0 33.08h541.1c1.645 0 3 1.354 3 3s-1.355 3-3 3h-541.1c-1.646 0-3-1.354-3-3s1.354-3 3-3zm0 33.09h193.53c1.645 0 3 1.354 3 3s-1.355 3-3 3h-193.53c-1.646 0-3-1.354-3-3s1.354-3 3-3zm0 33.08h63.23c1.645 0 3 1.354 3 3s-1.355 3-3 3h-63.23c-1.646 0-3-1.354-3-3s1.354-3 3-3zm0 33.09h311.28c1.645 0 3 1.354 3 3s-1.355 3-3 3h-311.28c-1.646 0-3-1.354-3-3s1.354-3 3-3zm0 33.08h193.53c1.645 0 3 1.354 3 3s-1.355 3-3 3h-193.53c-1.646 0-3-1.354-3-3s1.354-3 3-3zm-5 60.62c0-1.646 1.354-3 3-3h543.38c1.645 0 3 1.354 3 3v241.88c0 1.646-1.355 3-3 3h-543.36c-1.646 0-3-1.354-3-3l-.02-241.88zm-.44 302.88c0-1.646 1.354-3 3-3h147.76c1.645 0 3 1.354 3 3v19.55c0 1.646-1.355 3-3 3h-147.74c-1.646 0-3-1.354-3-3l-.02-19.55zm21.95 49.36c12.041 0 21.95 9.909 21.95 21.95 0 12.041-9.909 21.95-21.95 21.95-12.042 0-21.95-9.909-21.95-21.95.027-12.039 9.931-21.934 21.97-21.95h-.02zm0 71h.05c12.068 0 22 9.931 22 22s-9.932 22-22 22c-12.069 0-22-9.931-22-22l-.001-.04c0-12.058 9.913-21.984 21.971-22l-.02.04zm-21.95 96c0-1.646 1.354-3 3-3h145.25c1.645 0 3 1.354 3 3v19.55c0 1.646-1.355 3-3 3h-145.23c-1.646 0-3-1.354-3-3l-.02-19.55zm0 235.52c0-1.646 1.354-3 3-3h145.25c1.645 0 3 1.354 3 3v19.55c0 1.646-1.355 3-3 3h-145.23c-1.646 0-3-1.354-3-3l-.02-19.55zM783.024 6.005h-65.71a10.74 10.74 0 0 0-.31-.005c-5.261 0-9.59 4.329-9.59 9.59s4.329 9.59 9.59 9.59c.103 0 .206-.002.31-.005h65.75c5.141-.166 9.28-4.441 9.28-9.585 0-5.144-4.139-9.419-9.28-9.585h-.04z" fill="#fff" fill-rule="nonzero"/><circle cx="481.914" cy="484.635" r="21.16" fill="#fff"/><path fill="#fff" d="M425.294 582.635H538.554V587.325H425.294z"/><path d="M654.314 519.575a2.22 2.22 0 0 0-2.21 2.21v5.75h4.43v-5.75c0-1.212-.998-2.21-2.21-2.21h-.01zm-187.32 57v-25.63a14.793 14.793 0 0 1 3-8.92h-29v34.55h26zm164.1-57a2.23 2.23 0 0 0-2.22 2.21v5.75h4.44v-5.75c0-1.212-.998-2.21-2.21-2.21h-.01zm-158.1 31.37v25.63h17.84v-25.63c0-4.893-4.027-8.92-8.92-8.92-4.894 0-8.92 4.027-8.92 8.92z" fill="#fff" fill-rule="nonzero"/><path d="M795.384 80.705h-628c-1.646 0-3 1.354-3 3v1248c0 1.646 1.354 3 3 3h32.39v46.08c-15.965 1.529-28.299 15.1-28.299 31.138a31.298 31.298 0 0 0 12.299 24.862v-2a18.68 18.68 0 0 1 .77-5.32c2.402-8.017 9.831-13.546 18.2-13.546 10.373 0 18.927 8.494 19 18.866v2a31.3 31.3 0 0 0 12.298-24.862c0-16.038-12.334-29.609-28.298-31.138v-46.1h589.64c1.645 0 3-1.354 3-3v-1248a3.014 3.014 0 0 0-3-2.98zm-592.58 1334.26c-6.43 0-11.72-5.291-11.72-11.72s5.29-11.72 11.72-11.72c6.429 0 11.72 5.291 11.72 11.72v.04c-.028 6.412-5.308 11.675-11.72 11.68zm589.58-86.28h-622V111.865h622v1216.82z" fill="#1580f2" fill-rule="nonzero"/><path d="M210.234 621.515h543.36c1.645 0 3-1.354 3-3v-241.88c0-1.646-1.355-3-3-3h-543.36c-1.646 0-3 1.354-3 3v241.88c0 1.646 1.354 3 3 3zm3-241.88h537.36v235.88h-537.36v-235.88zm72.17 431.39h144.42c1.645 0 3-1.354 3-3s-1.355-3-3-3h-144.42c-1.646 0-3 1.354-3 3s1.354 3 3 3zm115.57 27.52h28.85c1.645 0 3-1.354 3-3s-1.355-3-3-3h-28.85c-1.646 0-3 1.354-3 3s1.354 3 3 3zm-115.57 0h69.62c1.645 0 3-1.354 3-3s-1.355-3-3-3h-69.62c-1.646 0-3 1.354-3 3s1.354 3 3 3zm-56.66 5.19h.05c12.068 0 22-9.931 22-22s-9.932-22-22-22c-12.069 0-22 9.931-22 22-.001 12.05 9.9 21.973 21.95 22zm-6.89-23.19l2.87 3.44 11.11-11a3 3 0 0 1 2.031-.792c1.645 0 3 1.354 3 3a3 3 0 0 1-.821 2.062l-13.43 13.25a3.006 3.006 0 0 1-2.11.87h-.14a2.998 2.998 0 0 1-2.16-1.07l-5-5.95a3 3 0 0 1-.711-1.938c0-1.646 1.354-3 3-3 .899 0 1.751.403 2.321 1.098l.04.03z" fill="#1580f2" fill-rule="nonzero"/><path d="M217.244 824.385l5 5.95a2.998 2.998 0 0 0 2.16 1.07h.14a3.006 3.006 0 0 0 2.11-.87l13.39-13.25a3 3 0 0 0 .821-2.062c0-1.646-1.355-3-3-3a3 3 0 0 0-2.031.792l-11.11 11-2.87-3.44a3.002 3.002 0 0 0-2.321-1.098c-1.646 0-3 1.354-3 3a3 3 0 0 0 .711 1.938v-.03z" fill="#fff" fill-rule="nonzero"/><path d="M285.404 740.065h144.42c1.645 0 3-1.354 3-3s-1.355-3-3-3h-144.42c-1.646 0-3 1.354-3 3s1.354 3 3 3zm0 27.51h69.62c1.645 0 3-1.354 3-3s-1.355-3-3-3h-69.62c-1.646 0-3 1.354-3 3s1.354 3 3 3z" fill="#1580f2" fill-rule="nonzero"/><circle cx="228.744" cy="750.825" r="21.95" fill="#1580f2"/><path d="M747.914 805.165h-54.35c-1.646 0-3 1.354-3 3s1.354 3 3 3h54.35c1.645 0 3-1.354 3-3s-1.355-3-3-3zm-143.97 6h43.66c1.645 0 3-1.354 3-3s-1.355-3-3-3h-43.66c-1.646 0-3 1.354-3 3s1.354 3 3 3zm143.97 21.25h-144c-1.646 0-3 1.354-3 3s1.354 3 3 3h144c1.645 0 3-1.354 3-3s-1.355-3-3-3zm-197.96-59.65h.01c12.041 0 21.95-9.909 21.95-21.95 0-12.041-9.909-21.95-21.95-21.95-12.042 0-21.95 9.909-21.95 21.95v.01c.032 12.024 9.916 21.907 21.94 21.94zm-6.89-23.19l2.87 3.44 11.11-11a3.002 3.002 0 0 1 2.11-.867 3.016 3.016 0 0 1 3.001 3.002c0 .802-.321 1.571-.891 2.135l-13.44 13.3a3.006 3.006 0 0 1-2.1.86h-.15a2.998 2.998 0 0 1-2.16-1.08l-5-6a2.997 2.997 0 0 1-.68-1.902c0-1.645 1.354-3 3-3 .882 0 1.72.389 2.29 1.062l.04.05z" fill="#1580f2" fill-rule="nonzero"/><path d="M538.454 753.415l5 6a2.998 2.998 0 0 0 2.16 1.08h.15a3.006 3.006 0 0 0 2.1-.86l13.45-13.3c.57-.564.891-1.333.891-2.135a3.016 3.016 0 0 0-3.001-3.002c-.79 0-1.549.312-2.11.867l-11.11 11-2.87-3.44a3.002 3.002 0 0 0-2.29-1.062c-1.646 0-3 1.355-3 3 0 .694.24 1.366.68 1.902l-.05-.05z" fill="#fff" fill-rule="nonzero"/><circle cx="549.954" cy="821.785" r="21.95" fill="#1580f2"/><path d="M747.914 734.135h-144c-1.646 0-3 1.354-3 3s1.354 3 3 3h144c1.645 0 3-1.354 3-3s-1.355-3-3-3zm0 27.37h-144c-1.646 0-3 1.354-3 3s1.354 3 3 3h144c1.645 0 3-1.354 3-3s-1.355-3-3-3z" fill="#1580f2" fill-rule="nonzero"/><path d="M360.524 679.515c0-1.656-1.345-3-3-3h-147.73c-1.656 0-3 1.344-3 3v19.55c0 1.656 1.344 3 3 3h147.73c1.655 0 3-1.344 3-3v-19.55z" fill="#1580f2"/><path d="M212.214 156.595h253.1c1.645 0 3-1.354 3-3s-1.355-3-3-3h-253.1c-1.646 0-3 1.354-3 3s1.354 3 3 3zm0 33.08h541.1c1.645 0 3-1.354 3-3s-1.355-3-3-3h-541.1c-1.646 0-3 1.354-3 3s1.354 3 3 3zm540.3 33.09c1.645 0 3-1.354 3-3s-1.355-3-3-3h-300.81c-1.646 0-3 1.354-3 3s1.354 3 3 3h300.81zm-540.3 0h193.53c1.645 0 3-1.354 3-3s-1.355-3-3-3h-193.53c-1.646 0-3 1.354-3 3s1.354 3 3 3zm100.23 30.08c0 1.646 1.354 3 3 3h208c1.645 0 3-1.354 3-3s-1.355-3-3-3h-208c-1.646 0-3 1.354-3 3zm-100.23 3h63.23c1.645 0 3-1.354 3-3s-1.355-3-3-3h-63.23c-1.646 0-3 1.354-3 3s1.354 3 3 3zm0 33.09h311.28c1.645 0 3-1.354 3-3s-1.355-3-3-3h-311.28c-1.646 0-3 1.354-3 3s1.354 3 3 3zm236.49 30.08c0 1.646 1.354 3 3 3h301.89c1.645 0 3-1.354 3-3s-1.355-3-3-3h-301.89c-1.646 0-3 1.354-3 3zm-236.49 3h193.53c1.645 0 3-1.354 3-3s-1.355-3-3-3h-193.53c-1.646 0-3 1.354-3 3s1.354 3 3 3zM46.554 80.705h-.034c-25.52 0-46.52 21-46.52 46.52a46.55 46.55 0 0 0 18.964 37.48v-2.28c.001-1.698.162-3.392.48-5.06 2.419-13.011 13.88-22.537 27.115-22.537 13.234 0 24.695 9.526 27.115 22.537.317 1.668.478 3.362.48 5.06v2.28a46.553 46.553 0 0 0 18.963-37.48c0-25.52-21-46.52-46.52-46.52h-.043zm0 49.61c-8.993-.005-16.39-7.407-16.39-16.4 0-8.997 7.403-16.4 16.4-16.4 8.996 0 16.4 7.403 16.4 16.4-.028 8.985-7.425 16.365-16.41 16.37v.03z" fill="#1580f2" fill-rule="nonzero"/><circle cx="46.554" cy="113.915" r="16.4" fill="#fff"/><path d="M73.674 157.345c-2.42-13.011-13.881-22.537-27.115-22.537-13.235 0-24.696 9.526-27.115 22.537a27.104 27.104 0 0 0-.48 5.06v12c0 1.646 1.354 3 3 3l49.18-.41c1.645 0 3-1.354 3-3v-11.59a27.264 27.264 0 0 0-.47-5.06zm129.13 1234.195c-6.43 0-11.72 5.291-11.72 11.72s5.29 11.72 11.72 11.72c6.418 0 11.703-5.272 11.72-11.69v-.02c0-6.431-5.289-11.725-11.72-11.73zm18.22 37.91c-2.386-8.041-9.828-13.595-18.215-13.595-8.388 0-15.829 5.554-18.215 13.595a18.68 18.68 0 0 0-.77 5.32v7.79c0 1.646 1.354 3 3 3l32-.27c1.645 0 3-1.354 3-3v-7.52a19.102 19.102 0 0 0-.8-5.32z" fill="#fff" fill-rule="nonzero"/><path d="M15.604 31.175h399.34c8.4-.213 15.195-7.182 15.195-15.585S423.344.218 414.944.005H15.604C7.203.218.408 7.187.408 15.59s6.795 15.372 15.196 15.585z" fill="#f37a78" fill-rule="nonzero"/><path d="M783.024.005h-65.71a17.414 17.414 0 0 0-.395-.005c-8.553 0-15.59 7.038-15.59 15.59s7.037 15.59 15.59 15.59c.131 0 .263-.002.395-.005h65.75c8.4-.213 15.195-7.182 15.195-15.585S791.464.218 783.064.005h-.04zm0 25.17h-65.71a10.74 10.74 0 0 1-.31.005c-5.261 0-9.59-4.329-9.59-9.59S711.743 6 717.004 6c.103 0 .206.002.31.005h65.75c5.141.166 9.28 4.441 9.28 9.585 0 5.144-4.139 9.419-9.28 9.585h-.04zm-203.62 6h65.75c.131.003.263.005.394.005 8.553 0 15.59-7.038 15.59-15.59S654.101 0 645.548 0c-.131 0-.263.002-.394.005h-65.75c-8.401.213-15.196 7.182-15.196 15.585s6.795 15.372 15.196 15.585z" fill="#9eb1db" fill-rule="nonzero"/><path d="M218.634 1177.94h-6.42c-1.646 0-3 1.354-3 3s1.354 3 3 3h6.42c1.645 0 3-1.354 3-3s-1.355-3-3-3zm60.9 3c0 1.646 1.354 3 3 3h257.89c1.645 0 3-1.354 3-3s-1.355-3-3-3h-257.89c-1.646 0-3 1.354-3 3zm468.38 30.7h-252.13c-1.646 0-3 1.354-3 3s1.354 3 3 3h252.13c1.645 0 3-1.354 3-3s-1.355-3-3-3zm-465.38 6h167.3c1.645 0 3-1.354 3-3s-1.355-3-3-3h-167.3c-1.646 0-3 1.354-3 3s1.354 3 3 3zm-63.9 26.9h-6.42c-1.646 0-3 1.354-3 3s1.354 3 3 3h6.42c1.645 0 3-1.354 3-3s-1.355-3-3-3zm529.28 0h-75.9c-1.646 0-3 1.354-3 3s1.354 3 3 3h75.9c1.645 0 3-1.354 3-3s-1.355-3-3-3zm-121.85 0h-343.53c-1.646 0-3 1.354-3 3s1.354 3 3 3h343.53c1.645 0 3-1.354 3-3s-1.355-3-3-3zm-205.09 33.75h-138.44c-1.646 0-3 1.354-3 3s1.354 3 3 3h138.44c1.645 0 3-1.354 3-3s-1.355-3-3-3z" fill="#1580f2" fill-rule="nonzero"/><path d="M354.444 1395.85h-66.61c-8.668.216-15.68 7.405-15.68 16.075 0 8.67 7.012 15.859 15.68 16.075h66.61c.133.003.267.005.4.005 8.822 0 16.08-7.259 16.08-16.08 0-8.821-7.258-16.08-16.08-16.08-.133 0-.267.002-.4.005z" fill="#9eb1db" fill-rule="nonzero"/><path d="M713.984 576.635h-12.67v-67.84c0-1.646-1.355-3-3-3h-27a27.128 27.128 0 0 0 10.162-21.16 27.128 27.128 0 0 0-10.162-21.16h11.49c1.645 0 3-1.354 3-3v-7.86h12.51c1.645 0 3-1.354 3-3v-10.89c.014-.15.014-.3 0-.45.005-.06.005-.12 0-.18a2.12 2.12 0 0 0-.1-.35.935.935 0 0 0-.07-.17 3.173 3.173 0 0 0-.21-.4.201.201 0 0 1 0-.06 3.422 3.422 0 0 0-.33-.41l-.13-.11a1.604 1.604 0 0 0-.19-.17l-44-33.93a3.007 3.007 0 0 0-3.67 0l-44 33.93a1.46 1.46 0 0 0-.19.17l-.13.11a3.236 3.236 0 0 0-.33.41v.07a2.326 2.326 0 0 0-.21.39.812.812 0 0 0-.07.17c-.043.115-.08.232-.11.35.003.06.003.12 0 .18-.01.15-.01.3 0 .45.009.15 0 .05 0 .07v10.87c0 1.646 1.354 3 3 3h12.48v7.86c0 1.646 1.354 3 3 3h11.49a27.126 27.126 0 0 0-10.163 21.16 27.126 27.126 0 0 0 10.163 21.16h-27c-1.646 0-3 1.354-3 3v67.84h-12.81c-1.646 0-3 1.354-3 3v10.6c0 1.646 1.354 3 3 3h119.25c1.645 0 3-1.354 3-3v-10.65c0-1.646-1.355-3-3-3zm-47.67-34.61h29v34.55h-26v-25.63a14.859 14.859 0 0 0-3-8.92zm-3 8.92v25.63h-17.88v-25.63c0-4.893 4.026-8.92 8.92-8.92 4.893 0 8.92 4.027 8.92 8.92h.04zm-9-142.33l35.17 27.13h-70.29l35.12-27.13zm-41 38v-4.87h82v4.87h-82zm15.48 10.86v-4.86h51v4.86h-51zm4.33 27.16c0-11.608 9.552-21.16 21.16-21.16s21.16 9.552 21.16 21.16c0 11.597-9.534 21.144-21.13 21.16-11.583-.044-21.094-9.577-21.11-21.16h-.08zm-19.81 27.16h82v24.23h-81.92l-.08-24.23zm29 30.23a14.859 14.859 0 0 0-3 8.92v25.63h-26v-34.55h29zm68.67 45.26h-113.25v-4.69h113.25v4.69z" fill="#1580f2" fill-rule="nonzero"/><path d="M662.574 530.535v-8.75c-.154-4.399-3.814-7.933-8.215-7.933-4.402 0-8.062 3.534-8.215 7.933v8.75c0 1.646 1.354 3 3 3h10.43c1.645 0 3-1.354 3-3zm-6-3h-4.43v-5.75a2.228 2.228 0 0 1 2.215-2.071 2.23 2.23 0 0 1 2.215 2.071v5.75zm15.84 6h10.43c1.645 0 3-1.354 3-3v-8.75c-.154-4.399-3.814-7.933-8.215-7.933-4.402 0-8.062 3.534-8.215 7.933v8.75c0 1.646 1.354 3 3 3zm3-11.75a2.228 2.228 0 0 1 2.215-2.071 2.23 2.23 0 0 1 2.215 2.071v5.75h-4.43v-5.75zm-44.32-8.21c-4.506 0-8.215 3.704-8.22 8.21v8.75c0 1.646 1.354 3 3 3h10.44c1.645 0 3-1.354 3-3v-8.75c-.006-4.506-3.715-8.21-8.22-8.21zm2.21 14h-4.43v-5.79a2.228 2.228 0 0 1 2.215-2.071 2.23 2.23 0 0 1 2.215 2.071v5.79zm-91.76 49.06h-12.66v-67.84c0-1.646-1.355-3-3-3h-27a27.128 27.128 0 0 0 10.162-21.16 27.128 27.128 0 0 0-10.162-21.16h27c1.645 0 3-1.354 3-3v-10.86-.05c.014-.18.014-.36 0-.54v-.1c-.03-.136-.07-.27-.12-.4l-.08-.17a3.37 3.37 0 0 0-.17-.32l-.09-.14a2.764 2.764 0 0 0-.31-.38l-44-44.76a3.104 3.104 0 0 0-4.28 0l-44 44.73a3.74 3.74 0 0 0-.32.38l-.08.14c-.07.101-.13.208-.18.32 0 .06 0 .11-.07.17-.051.13-.091.264-.12.4v.1a2.393 2.393 0 0 0-.05.59v10.86c0 1.646 1.354 3 3 3h27a27.147 27.147 0 0 0-10.151 21.16 27.147 27.147 0 0 0 10.151 21.16h-27c-1.646 0-3 1.354-3 3v67.84h-12.7c-1.646 0-3 1.354-3 3v10.68c0 1.646 1.354 3 3 3h119.23c1.645 0 3-1.354 3-3v-10.65c0-1.646-1.355-3-3-3zm-47.69-34.61h29v34.55h-26.02v-25.63a14.857 14.857 0 0 0-2.98-8.92zm-3 8.92v25.63h-17.86v-25.63c0-4.893 4.026-8.92 8.92-8.92 4.893 0 8.92 4.027 8.92 8.92h.02zm-8.94-141.84l36.82 37.51h-73.63l36.81-37.51zm-41 48.37v-4.86h81.93v4.86h-81.93zm19.81 27.16c0-11.608 9.551-21.16 21.16-21.16 11.608 0 21.16 9.552 21.16 21.16s-9.552 21.16-21.16 21.16h-.01c-11.583-.044-21.094-9.577-21.11-21.16h-.04zm-19.81 27.16h81.93v24.23h-81.89l-.04-24.23zm29 30.23a14.793 14.793 0 0 0-3 8.92v25.63h-26v-34.55h29zm68.63 45.26h-113.23v-4.69h113.23v4.69z" fill="#1580f2" fill-rule="nonzero"/><path d="M463.864 516.105h-10.43c-1.646 0-3 1.354-3 3v10.43c0 1.646 1.354 3 3 3h10.43c1.645 0 3-1.354 3-3v-10.43c0-1.646-1.355-3-3-3zm-3 10.43h-4.43v-4.43h4.43v4.43zm39.11 6h10.43c1.645 0 3-1.354 3-3v-10.43c0-1.646-1.355-3-3-3h-10.43c-1.646 0-3 1.354-3 3v10.43c0 1.646 1.354 3 3 3zm3-10.43h4.43v4.43h-4.43v-4.43zm-133.87 54.53h-12.66v-67.84c0-1.646-1.355-3-3-3h-27a27.128 27.128 0 0 0 10.162-21.16 27.128 27.128 0 0 0-10.162-21.16h27a3.014 3.014 0 0 0 2.996-3c0-.675-.228-1.33-.646-1.86l-44-55.65a3.002 3.002 0 0 0-4.71 0l-44 55.65a2.999 2.999 0 0 0-.647 1.86 3.015 3.015 0 0 0 2.997 3h27a27.147 27.147 0 0 0-10.151 21.16 27.147 27.147 0 0 0 10.151 21.16h-27c-1.646 0-3 1.354-3 3v67.84h-12.59c-1.646 0-3 1.354-3 3v10.65c0 1.646 1.354 3 3 3h119.26c1.645 0 3-1.354 3-3v-10.65c0-1.646-1.355-3-3-3zm-68.55-.06v-34.55h17.84v34.55h-17.84zm-28.85-119.1l37.77-47.81 37.77 47.81h-75.54zm16.61 27.16c0-11.608 9.551-21.16 21.16-21.16 11.608 0 21.16 9.552 21.16 21.16s-9.552 21.16-21.16 21.16h-.01c-11.599-.022-21.134-9.562-21.15-21.16zm-19.8 27.16h81.93v64.78h-26.05v-37.55c0-1.646-1.355-3-3-3h-23.84c-1.646 0-3 1.354-3 3v37.55h-26l-.04-64.78zm97.59 75.49h-113.26v-4.69h113.26v4.69z" fill="#1580f2" fill-rule="nonzero"/><path d="M358.024 1131.39c0-1.656-1.345-3-3-3h-145.23c-1.656 0-3 1.344-3 3v19.55c0 1.656 1.344 3 3 3h145.23c1.655 0 3-1.344 3-3v-19.55zm0-235.515c0-1.656-1.345-3-3-3h-145.23c-1.656 0-3 1.344-3 3v19.55c0 1.656 1.344 3 3 3h145.23c1.655 0 3-1.344 3-3v-19.55z" fill="#1580f2"/><path d="M246.524 949.045a2.997 2.997 0 0 0-4.2-.62l-31.9 23.73a3.003 3.003 0 0 0-1.207 2.405c0 .946.448 1.839 1.207 2.405l31.9 23.73a3.003 3.003 0 0 0 1.79.592 3.017 3.017 0 0 0 3.002-3.002c0-.949-.451-1.844-1.212-2.41l-28.66-21.31 28.66-21.28a3.003 3.003 0 0 0 .62-4.24zm76.7 51.035a3.014 3.014 0 0 0 4.19.62l31.9-23.73a3.005 3.005 0 0 0 1.206-2.405c0-.946-.448-1.839-1.206-2.405l-31.91-23.73a3.008 3.008 0 0 0-1.79-.592 3.017 3.017 0 0 0-3.003 3.002c0 .949.451 1.844 1.213 2.41l28.67 21.32-28.67 21.31a3 3 0 0 0-.6 4.2zm-51.51 1.2a3.005 3.005 0 0 0 2.65-1.58l27.57-51.36c.234-.437.357-.924.357-1.42a3.017 3.017 0 0 0-3.002-3.002 3.004 3.004 0 0 0-2.645 1.582l-27.57 51.36a2.996 2.996 0 0 0-.358 1.42 3.014 3.014 0 0 0 2.998 3zm247.44-53.445h-118.18c-1.646 0-3 1.354-3 3s1.354 3 3 3h118.18c1.645 0 3-1.354 3-3s-1.355-3-3-3zm228.76 33h-117.37c-1.646 0-3 1.354-3 3s1.354 3 3 3h117.37c1.645 0 3-1.354 3-3s-1.355-3-3-3zm-349.94 3c0 1.646 1.354 3 3 3h189.57c1.645 0 3-1.354 3-3s-1.355-3-3-3h-189.57c-1.646 0-3 1.354-3 3zm349.94 30.005h-263.23c-1.646 0-3 1.354-3 3s1.354 3 3 3h263.23c1.645 0 3-1.354 3-3s-1.355-3-3-3zm-346.94 0c-1.646 0-3 1.354-3 3s1.354 3 3 3h43.71c1.645 0 3-1.354 3-3s-1.355-3-3-3h-43.71zm346.94 33h-188.76c-1.646 0-3 1.354-3 3s1.354 3 3 3h188.76c1.645 0 3-1.354 3-3s-1.355-3-3-3zm-536.39 6h307.63c1.645 0 3-1.354 3-3s-1.355-3-3-3h-307.63c-1.646 0-3 1.354-3 3s1.354 3 3 3zm0 33h238.31c1.645 0 3-1.354 3-3s-1.355-3-3-3h-238.31c-1.646 0-3 1.354-3 3s1.354 3 3 3z" fill="#1580f2" fill-rule="nonzero"/></svg>