<?xml version="1.0" encoding="UTF-8" standalone="no"?><!DOCTYPE svg PUBLIC "-//W3C//DTD SVG 1.1//EN" "http://www.w3.org/Graphics/SVG/1.1/DTD/svg11.dtd"><svg width="100%" height="100%" viewBox="0 0 1396 756" version="1.1" xmlns="http://www.w3.org/2000/svg" xmlns:xlink="http://www.w3.org/1999/xlink" xml:space="preserve" xmlns:serif="http://www.serif.com/" style="fill-rule:evenodd;clip-rule:evenodd;stroke-linejoin:round;stroke-miterlimit:1.41421;"><path d="M197.37,663.36c-23.924,0 -43.61,19.686 -43.61,43.61c0,23.924 19.686,43.61 43.61,43.61c23.924,0 43.61,-19.686 43.61,-43.61c-0.027,-23.913 -19.697,-43.583 -43.61,-43.61Zm14.9,61.2c0.013,0.103 0.02,0.206 0.02,0.31c0,1.322 -1.088,2.41 -2.41,2.41c-0.104,0 -0.207,-0.007 -0.31,-0.02l-22.62,0c-0.095,0.012 -0.19,0.017 -0.286,0.017c-1.3,0 -2.37,-1.07 -2.37,-2.37c0,-0.116 0.009,-0.232 0.026,-0.347l0,-1.8c-0.014,-0.103 -0.02,-0.206 -0.02,-0.309c0,-1.289 1.06,-2.35 2.35,-2.35c0.1,0 0.2,0.006 0.3,0.019l7.32,0l0,-25.29c0,-1.54 0.06,-3.08 0.06,-3.08l-0.13,0c-0.441,0.863 -1.026,1.644 -1.73,2.31l-2,1.93c-0.444,0.542 -1.109,0.857 -1.81,0.857c-0.759,0 -1.472,-0.368 -1.91,-0.987l-1.22,-1.28c-0.564,-0.459 -0.892,-1.149 -0.892,-1.876c0,-0.754 0.353,-1.467 0.952,-1.924l8.1,-7.78c0.894,-0.868 2.094,-1.35 3.34,-1.34l2.7,0c0.09,-0.01 0.181,-0.016 0.272,-0.016c1.311,0 2.39,1.079 2.39,2.39c0,0.109 -0.007,0.218 -0.022,0.326l0,35.8l7.2,0c0.104,-0.014 0.209,-0.021 0.314,-0.021c1.317,0 2.4,1.084 2.4,2.4c0,0.087 -0.005,0.174 -0.014,0.261l0,1.76Z" style="fill:#fff;fill-rule:nonzero;"/><path d="M702.8,663.83c-23.622,0 -43.06,19.438 -43.06,43.06c0,23.622 19.438,43.06 43.06,43.06c23.622,0 43.06,-19.438 43.06,-43.06c0,-0.02 0,-0.04 0,-0.06c-0.055,-23.591 -19.469,-42.978 -43.06,-43Zm15.2,60.64c0.017,0.114 0.025,0.229 0.025,0.344c0,1.305 -1.074,2.38 -2.38,2.38c-0.112,0 -0.224,-0.008 -0.335,-0.024l-25.04,0c-0.104,0.013 -0.209,0.019 -0.314,0.019c-1.415,0 -2.58,-1.165 -2.58,-2.58c0,-0.046 0.001,-0.093 0.004,-0.139l0,-1.35c0,-16.46 21.34,-19.1 21.34,-28.16c0,-4 -3.08,-6.36 -6.94,-6.36c-2.644,0.072 -5.123,1.324 -6.75,3.41c-1.22,1.22 -2.51,1.66 -3.79,0.57l-1.74,-1.35c-1.35,-1 -1.67,-2.25 -0.7,-3.6c3.179,-4.367 8.288,-6.931 13.69,-6.87c8,0 14.85,4.88 14.85,13.49c0,14.66 -20.44,17.17 -20.83,25.78l18.76,0c0.112,-0.016 0.225,-0.024 0.338,-0.024c1.3,0 2.37,1.07 2.37,2.37c0,0.098 -0.006,0.196 -0.018,0.294l0.04,1.8Z" style="fill:#fff;fill-rule:nonzero;"/><path d="M1199.7,664.43c-23.161,0 -42.22,19.059 -42.22,42.22c0,23.161 19.059,42.22 42.22,42.22c23.161,0 42.22,-19.059 42.22,-42.22c-0.027,-23.151 -19.069,-42.193 -42.22,-42.22Zm-1.36,63.28c-4.755,-0.027 -9.378,-1.584 -13.18,-4.44c-0.71,-0.453 -1.14,-1.239 -1.14,-2.082c0,-0.608 0.224,-1.195 0.63,-1.648l1.29,-2c1,-1.48 2.18,-1.54 3.66,-0.58c2.382,1.785 5.255,2.797 8.23,2.9c4.76,0 8.23,-2.9 8.23,-6.82c0,-4.82 -4.44,-7.07 -9.77,-7.07l-1,0c-1.304,0.14 -2.546,-0.63 -3,-1.86l-0.25,-0.52c-0.575,-1.158 -0.34,-2.562 0.58,-3.47l7,-8.29c1.006,-1.236 2.103,-2.396 3.28,-3.47l0,-0.13c-1.328,0.142 -2.664,0.206 -4,0.19l-11,0c-0.098,0.012 -0.196,0.018 -0.294,0.018c-1.289,0 -2.35,-1.06 -2.35,-2.35c0,-0.086 0.005,-0.172 0.014,-0.258l0,-1.79c-0.015,-0.108 -0.022,-0.217 -0.022,-0.326c0,-1.311 1.079,-2.39 2.39,-2.39c0.091,0 0.182,0.006 0.272,0.016l22.5,0c1.8,0 2.7,0.89 2.7,2.63l0,0.71c0.068,1.215 -0.375,2.405 -1.22,3.28l-10,11.5c6.37,0.9 12.47,5.4 12.47,13.31c0,7.91 -5.79,14.94 -16.02,14.94Z" style="fill:#fff;fill-rule:nonzero;"/><path d="M1154.74,481.55c0,0 0,0 0,0c0,-23.397 19.253,-42.65 42.65,-42.65c23.397,0 42.65,19.253 42.65,42.65l0,93.8l102.77,0l0,-147.22l-290.85,0l0,147.22l102.78,0l0,-93.8Z" style="fill:#453b69;fill-rule:nonzero;"/><path d="M1276.16,265.11c0,-43.212 -35.558,-78.77 -78.77,-78.77c-43.212,0 -78.77,35.558 -78.77,78.77c0,43.212 35.558,78.77 78.77,78.77c43.193,-0.049 78.721,-35.577 78.77,-78.77Z" style="fill:#f37a78;fill-rule:nonzero;"/><rect x="999.24" y="580.65" width="396.3" height="17.44" style="fill:#453b69;"/><path d="M1051.96,423.05l290.85,0l0,-74.1l-290.85,0l0,74.1Zm203.64,-43c0.242,-10.855 9.238,-19.652 20.095,-19.652c10.857,0 19.853,8.797 20.095,19.652l0,32l-40.19,0l0,-32Zm-78.3,0c0,-11.021 9.069,-20.09 20.09,-20.09c11.021,0 20.09,9.069 20.09,20.09l0,32l-40.21,0l0.03,-32Zm-78.31,0c0,-11.021 9.069,-20.09 20.09,-20.09c11.021,0 20.09,9.069 20.09,20.09l0,32l-40.18,0l0,-32Z" style="fill:#453b69;fill-rule:nonzero;"/><path d="M1197.39,365.04c-8.229,0 -15,6.771 -15,15l0,26.9l30,0l0,-26.9c0,-8.229 -6.771,-15 -15,-15Z" style="fill:#453b69;fill-rule:nonzero;"/><path d="M1217.48,380.06c0,-11.021 -9.069,-20.09 -20.09,-20.09c-11.021,0 -20.09,9.069 -20.09,20.09l0,32l40.18,0l0,-32Zm-5.07,26.9l-30,0l0,-26.9c0,-8.229 6.771,-15 15,-15c8.229,0 15,6.771 15,15l0,26.9Z" style="fill:#fff;fill-rule:nonzero;"/><path d="M1275.7,365.04c-8.229,0 -15,6.771 -15,15l0,26.9l30,0l0,-26.9c0,-8.229 -6.771,-15 -15,-15Z" style="fill:#453b69;fill-rule:nonzero;"/><path d="M1295.79,380.06c-0.242,-10.855 -9.238,-19.652 -20.095,-19.652c-10.857,0 -19.853,8.797 -20.095,19.652l0,32l40.19,0l0,-32Zm-5.08,26.9l-30,0l0,-26.9c0,-8.229 6.771,-15 15,-15c8.229,0 15,6.771 15,15l0,26.9Z" style="fill:#fff;fill-rule:nonzero;"/><path d="M1119.08,365.04c-8.229,0 -15,6.771 -15,15l0,26.9l30,0l0,-26.9c0,-8.229 -6.771,-15 -15,-15Z" style="fill:#453b69;fill-rule:nonzero;"/><path d="M1139.17,380.06c0,-11.021 -9.069,-20.09 -20.09,-20.09c-11.021,0 -20.09,9.069 -20.09,20.09l0,32l40.18,0l0,-32Zm-5.07,26.9l-30,0l0,-26.9c0,-8.229 6.771,-15 15,-15c8.229,0 15,6.771 15,15l0,26.9Z" style="fill:#fff;fill-rule:nonzero;"/><path d="M1051.96,158.16l290.85,0l0,-18.03l-290.85,0l0,18.03Z" style="fill:#1580f2;fill-rule:nonzero;"/><rect x="1104.06" y="163.24" width="186.65" height="18.03" style="fill:#1580f2;"/><path d="M1055.76,135.05l283.25,0l-141.62,-135.05l-141.63,135.05Z" style="fill:#1580f2;fill-rule:nonzero;"/><path d="M659.8,481.55c-0.003,-0.218 -0.005,-0.435 -0.005,-0.653c0,-23.403 19.257,-42.66 42.66,-42.66c23.403,0 42.66,19.257 42.66,42.66c0,0.218 -0.002,0.435 -0.005,0.653l0,93.8l102.77,0l0,-147.22l-290.85,0l0,147.22l102.77,0l0,-93.8Z" style="fill:#453b69;fill-rule:nonzero;"/><path d="M781.27,265.11c0,-43.212 -35.558,-78.77 -78.77,-78.77c-43.212,0 -78.77,35.558 -78.77,78.77c0,43.212 35.558,78.77 78.77,78.77c0.003,0 0.007,0 0.01,0c43.19,-0.055 78.711,-35.58 78.76,-78.77Z" style="fill:#f37a78;fill-rule:nonzero;"/><rect x="504.31" y="580.65" width="396.3" height="17.44" style="fill:#453b69;"/><path d="M557.03,423.05l290.85,0l0,-74.1l-290.85,0l0,74.1Zm203.64,-51.22l40.19,0l0,40.19l-40.19,0l0,-40.19Zm-156.61,0l40.21,0l0,40.19l-40.21,0l0,-40.19Z" style="fill:#453b69;fill-rule:nonzero;"/><rect x="557.03" y="163.24" width="290.85" height="18.03" style="fill:#1580f2;"/><path d="M560.2,158.16l284.51,0l-142.25,-157.87l-142.26,157.87Z" style="fill:#1580f2;fill-rule:nonzero;"/><path d="M155.5,438.9l85.3,0l0,136.45l102.77,0l0,-226.4l-145.42,0l-145.42,0l0,226.4l102.77,0l0,-136.45Z" style="fill:#453b69;fill-rule:nonzero;"/><circle cx="198.15" cy="265.11" r="78.77" style="fill:#f37a78;"/><rect x="0" y="580.65" width="396.3" height="17.44" style="fill:#453b69;"/><path d="M55.43,181.27l285.44,0l-142.72,-180.68l-142.72,180.68Z" style="fill:#1580f2;fill-rule:nonzero;"/><rect x="609.13" y="376.93" width="30.03" height="30.03" style="fill:#453b69;"/><path d="M644.27,371.83l-40.21,0l0,40.19l40.21,0l0,-40.19Zm-5.07,35.11l-30,0l0,-30l30,0l0,30Z" style="fill:#fff;fill-rule:nonzero;"/><rect x="765.75" y="376.93" width="30.03" height="30.03" style="fill:#453b69;"/><path d="M800.86,371.83l-40.19,0l0,40.19l40.19,0l0,-40.19Zm-5.08,35.11l-30,0l0,-30l30,0l0,30Z" style="fill:#fff;fill-rule:nonzero;"/><path d="M197.37,658.28c-26.711,0 -48.69,21.979 -48.69,48.69c0,26.711 21.979,48.69 48.69,48.69c26.711,0 48.69,-21.979 48.69,-48.69c-0.033,-26.698 -21.992,-48.657 -48.69,-48.69Zm0,92.3c-23.924,0 -43.61,-19.686 -43.61,-43.61c0,-23.924 19.686,-43.61 43.61,-43.61c23.924,0 43.61,19.686 43.61,43.61c-0.027,23.913 -19.697,43.583 -43.61,43.61Z" style="fill:#9eb1db;fill-rule:nonzero;"/><path d="M209.52,720.12l-7.2,0l0,-35.8c0.015,-0.108 0.022,-0.217 0.022,-0.326c0,-1.311 -1.079,-2.39 -2.39,-2.39c-0.091,0 -0.182,0.006 -0.272,0.016l-2.7,0c-1.246,-0.01 -2.446,0.472 -3.34,1.34l-8.1,7.78c-0.599,0.457 -0.952,1.17 -0.952,1.924c0,0.727 0.328,1.417 0.892,1.876l1.22,1.28c0.438,0.619 1.151,0.987 1.91,0.987c0.701,0 1.366,-0.315 1.81,-0.857l2,-1.93c0.704,-0.666 1.289,-1.447 1.73,-2.31l0.12,0l0,28.45l-7.27,0c-0.1,-0.013 -0.2,-0.019 -0.3,-0.019c-1.29,0 -2.35,1.061 -2.35,2.35c0,0.103 0.006,0.206 0.02,0.309l0,1.8c-0.017,0.115 -0.026,0.231 -0.026,0.347c0,1.3 1.07,2.37 2.37,2.37c0.096,0 0.191,-0.005 0.286,-0.017l22.57,0c0.103,0.013 0.206,0.02 0.31,0.02c1.322,0 2.41,-1.088 2.41,-2.41c0,-0.104 -0.007,-0.207 -0.02,-0.31l0,-1.8c0.013,-0.102 0.02,-0.205 0.02,-0.309c0,-1.316 -1.083,-2.4 -2.4,-2.4c-0.124,0 -0.248,0.01 -0.37,0.029Z" style="fill:#9eb1db;fill-rule:nonzero;"/><path d="M702.8,658.71c-26.403,0 -48.13,21.727 -48.13,48.13c0,26.403 21.727,48.13 48.13,48.13c26.403,0 48.13,-21.727 48.13,-48.13c0,-0.003 0,-0.007 0,-0.01c-0.033,-26.389 -21.741,-48.093 -48.13,-48.12Zm0,91.19c-23.622,0 -43.06,-19.438 -43.06,-43.06c0,-23.622 19.438,-43.06 43.06,-43.06c23.618,0 43.055,19.432 43.06,43.05c-0.016,23.618 -19.442,43.048 -43.06,43.07Z" style="fill:#9eb1db;fill-rule:nonzero;"/><path d="M715.27,719.99l-18.8,0c0.39,-8.61 20.8,-11.16 20.8,-25.78c0,-8.61 -6.88,-13.49 -14.85,-13.49c-5.402,-0.061 -10.511,2.503 -13.69,6.87c-1,1.35 -0.65,2.57 0.7,3.6l1.74,1.35c1.28,1.09 2.57,0.65 3.79,-0.57c1.627,-2.086 4.106,-3.338 6.75,-3.41c3.86,0 6.94,2.38 6.94,6.36c0,9.06 -21.34,11.7 -21.34,28.16l0,1.35c-0.003,0.046 -0.004,0.093 -0.004,0.139c0,1.415 1.165,2.58 2.58,2.58c0.105,0 0.21,-0.006 0.314,-0.019l25.07,0c0.111,0.016 0.223,0.024 0.335,0.024c1.306,0 2.38,-1.075 2.38,-2.38c0,-0.115 -0.008,-0.23 -0.025,-0.344l0,-1.8c0.012,-0.098 0.018,-0.196 0.018,-0.294c0,-1.3 -1.07,-2.37 -2.37,-2.37c-0.113,0 -0.226,0.008 -0.338,0.024Z" style="fill:#9eb1db;fill-rule:nonzero;"/><path d="M1199.7,659.36c-0.003,0 -0.007,0 -0.01,0c-25.948,0 -47.3,21.352 -47.3,47.3c0,25.948 21.352,47.3 47.3,47.3c25.948,0 47.3,-21.352 47.3,-47.3c0,-0.003 0,-0.007 0,-0.01c-0.033,-25.93 -21.36,-47.257 -47.29,-47.29Zm0,89.51c-23.161,0 -42.22,-19.059 -42.22,-42.22c0,-23.161 19.059,-42.22 42.22,-42.22c23.161,0 42.22,19.059 42.22,42.22c-0.049,23.136 -19.084,42.153 -42.22,42.18l0,0.04Z" style="fill:#9eb1db;fill-rule:nonzero;"/><path d="M1201.94,699.42l10,-11.5c0.845,-0.875 1.288,-2.065 1.22,-3.28l0,-0.71c0,-1.74 -0.9,-2.63 -2.7,-2.63l-22.5,0c-0.09,-0.01 -0.181,-0.016 -0.272,-0.016c-1.311,0 -2.39,1.079 -2.39,2.39c0,0.109 0.007,0.218 0.022,0.326l0,1.83c-0.014,0.103 -0.021,0.207 -0.021,0.311c0,1.289 1.061,2.35 2.35,2.35c0.104,0 0.208,-0.007 0.311,-0.021l11,0c1.336,0.016 2.672,-0.048 4,-0.19l0,0.13c-1.177,1.074 -2.274,2.234 -3.28,3.47l-7,8.29c-0.92,0.908 -1.155,2.312 -0.58,3.47l0.25,0.52c0.454,1.23 1.696,2 3,1.86l1,0c5.33,0 9.77,2.25 9.77,7.07c0,3.92 -3.47,6.82 -8.23,6.82c-2.975,-0.103 -5.848,-1.115 -8.23,-2.9c-1.48,-1 -2.7,-0.9 -3.66,0.58l-1.29,2c-0.406,0.453 -0.63,1.04 -0.63,1.648c0,0.843 0.43,1.629 1.14,2.082c3.802,2.856 8.425,4.413 13.18,4.44c10.23,0 16.07,-7.2 16.07,-15c0,-7.8 -6.2,-12.44 -12.53,-13.34Z" style="fill:#9eb1db;fill-rule:nonzero;"/><path d="M1197.39,443.97c-20.607,0.022 -37.558,16.973 -37.58,37.58l0,93.8l75.16,0l0,-93.8c-0.022,-20.607 -16.973,-37.558 -37.58,-37.58Z" style="fill:#453b69;fill-rule:nonzero;"/><path d="M702.46,443.97c-20.607,0.022 -37.558,16.973 -37.58,37.58l0,93.8l75.15,0l0,-93.8c-0.022,-20.604 -16.966,-37.553 -37.57,-37.58Z" style="fill:#453b69;fill-rule:nonzero;"/><rect x="160.57" y="443.97" width="75.15" height="131.38" style="fill:#453b69;"/></svg>