<?xml version="1.0" encoding="UTF-8" standalone="no"?>
<!DOCTYPE svg PUBLIC "-//W3C//DTD SVG 1.1//EN" "http://www.w3.org/Graphics/SVG/1.1/DTD/svg11.dtd">
<svg width="100%" height="100%" viewBox="0 0 1108 601" version="1.1" xmlns="http://www.w3.org/2000/svg" xmlns:xlink="http://www.w3.org/1999/xlink" xml:space="preserve" xmlns:serif="http://www.serif.com/" style="fill-rule:evenodd;clip-rule:evenodd;stroke-linejoin:round;stroke-miterlimit:2;">
    <g transform="matrix(1,0,0,1,-338.62,-239.875)">
        <g>
            <path d="M862.58,624.12C862.58,605.59 877.66,590.51 896.19,590.51C914.72,590.51 929.8,605.59 929.8,624.12L929.8,698.05L1010.79,698.05L1010.79,582.02L781.59,582.02L781.59,698.04L862.58,698.04L862.58,624.12Z" style="fill:none;fill-rule:nonzero;"/>
            <circle cx="896.19" cy="453.55" r="62.07" style="fill:none;"/>
            <rect x="781.59" y="373.27" width="229.21" height="14.21" style="fill:none;"/>
            <path d="M925.81,624.12C925.81,607.79 912.53,594.51 896.2,594.51C879.87,594.51 866.59,607.79 866.59,624.12L866.59,698.05L925.82,698.05L925.82,624.12L925.81,624.12Z" style="fill:none;fill-rule:nonzero;"/>
            <path d="M896.19,244.85L784.08,369.27L1008.3,369.27L896.19,244.85Z" style="fill:none;fill-rule:nonzero;"/>
            <path d="M1010.8,519.62L781.59,519.62L781.59,578.02L1010.8,578.02L1010.8,519.62ZM850.32,567.34C850.32,568.44 849.42,569.34 848.32,569.34L820.65,569.34C819.55,569.34 818.65,568.44 818.65,567.34L818.65,539.67C818.65,538.57 819.55,537.67 820.65,537.67L848.32,537.67C849.42,537.67 850.32,538.57 850.32,539.67L850.32,567.34ZM973.74,567.34C973.74,568.44 972.84,569.34 971.74,569.34L944.07,569.34C942.97,569.34 942.07,568.44 942.07,567.34L942.07,539.67C942.07,538.57 942.97,537.67 944.07,537.67L971.74,537.67C972.84,537.67 973.74,538.57 973.74,539.67L973.74,567.34Z" style="fill:none;fill-rule:nonzero;"/>
            <rect x="740.04" y="702.22" width="312.31" height="13.74" style="fill:none;"/>
            <rect x="822.65" y="541.67" width="23.67" height="23.67" style="fill:none;"/>
            <rect x="946.07" y="541.67" width="23.67" height="23.67" style="fill:none;"/>
            <rect x="469.15" y="594.51" width="59.23" height="103.54" style="fill:none;"/>
            <path d="M498.76,245.09L386.29,387.48L611.24,387.48L498.76,245.09Z" style="fill:none;fill-rule:nonzero;"/>
            <path d="M498.15,767.4C479.2,767.4 463.78,782.82 463.78,801.77C463.78,820.72 479.2,836.14 498.15,836.14C517.1,836.14 532.52,820.72 532.52,801.77C532.52,782.82 517.1,767.4 498.15,767.4ZM509.85,815.63C509.85,817.05 509.09,817.76 507.72,817.76L489.94,817.76C488.57,817.76 487.86,817.05 487.86,815.63L487.86,814.21C487.86,812.84 488.57,812.13 489.94,812.13L495.66,812.13L495.66,792.17C495.66,790.95 495.71,789.74 495.71,789.74L495.61,789.74C495.61,789.74 495.15,790.7 494.24,791.56L492.67,793.08C491.66,793.99 490.64,793.99 489.73,792.98L488.77,791.97C487.81,791.01 487.86,789.94 488.82,788.98L495.2,782.85C496.01,782.14 496.77,781.79 497.83,781.79L499.96,781.79C501.33,781.79 502.04,782.55 502.04,783.92L502.04,812.14L507.71,812.14C509.08,812.14 509.84,812.85 509.84,814.22L509.84,815.63L509.85,815.63Z" style="fill:none;fill-rule:nonzero;"/>
            <path d="M465.15,592.51C465.15,591.41 466.05,590.51 467.15,590.51L530.38,590.51C531.48,590.51 532.38,591.41 532.38,592.51L532.38,698.05L613.37,698.05L613.37,519.62L384.16,519.62L384.16,698.04L465.15,698.04L465.15,592.51Z" style="fill:none;fill-rule:nonzero;"/>
            <rect x="342.61" y="702.22" width="312.31" height="13.74" style="fill:none;"/>
            <path d="M896.47,767.74C877.76,767.74 862.54,782.96 862.54,801.67C862.54,820.38 877.76,835.6 896.47,835.6C915.18,835.6 930.4,820.38 930.4,801.67C930.4,782.96 915.17,767.74 896.47,767.74ZM908.45,815.53C908.45,816.95 907.74,817.66 906.32,817.66L886.56,817.66C885.24,817.66 884.28,816.95 884.28,815.53L884.28,814.46C884.28,801.49 901.1,799.41 901.1,792.27C901.1,789.13 898.67,787.25 895.63,787.25C893.05,787.25 891.22,788.82 890.31,789.94C889.35,790.9 888.33,791.26 887.32,790.4L885.95,789.34C884.89,788.53 884.63,787.57 885.39,786.5C886.96,784.42 890.3,781.08 896.18,781.08C902.46,781.08 907.88,784.93 907.88,791.72C907.88,803.27 891.77,805.25 891.47,812.03L906.31,812.03C907.73,812.03 908.44,812.74 908.44,814.11L908.44,815.53L908.45,815.53Z" style="fill:none;fill-rule:nonzero;"/>
            <circle cx="498.76" cy="453.55" r="62.07" style="fill:none;"/>
            <path d="M1252.62,624.12C1252.62,605.59 1267.7,590.51 1286.23,590.51C1304.76,590.51 1319.84,605.59 1319.84,624.12L1319.84,698.05L1400.83,698.05L1400.83,582.02L1171.62,582.02L1171.62,698.04L1252.61,698.04L1252.61,624.12L1252.62,624.12Z" style="fill:none;fill-rule:nonzero;"/>
            <path d="M1171.63,369.27L1400.84,369.27L1400.84,355.05L1171.63,355.05L1171.63,369.27Z" style="fill:none;fill-rule:nonzero;"/>
            <path d="M1224.52,532.3C1217.99,532.3 1212.69,537.61 1212.69,544.13L1212.69,565.33L1236.36,565.33L1236.36,544.13C1236.36,537.61 1231.05,532.3 1224.52,532.3Z" style="fill:none;fill-rule:nonzero;"/>
            <circle cx="1286.24" cy="453.55" r="62.07" style="fill:none;"/>
            <rect x="1212.69" y="373.27" width="147.09" height="14.21" style="fill:none;"/>
            <path d="M1400.84,519.62L1171.63,519.62L1171.63,578.02L1400.84,578.02L1400.84,519.62ZM1240.36,567.34C1240.36,568.44 1239.46,569.34 1238.36,569.34L1210.69,569.34C1209.59,569.34 1208.69,568.44 1208.69,567.34L1208.69,544.14C1208.69,535.41 1215.79,528.31 1224.52,528.31C1233.25,528.31 1240.35,535.41 1240.35,544.14L1240.35,567.34L1240.36,567.34ZM1302.07,567.34C1302.07,568.44 1301.17,569.34 1300.07,569.34L1272.4,569.34C1271.3,569.34 1270.4,568.44 1270.4,567.34L1270.4,544.14C1270.4,535.41 1277.5,528.31 1286.23,528.31C1294.96,528.31 1302.06,535.41 1302.06,544.14L1302.06,567.34L1302.07,567.34ZM1363.78,567.34C1363.78,568.44 1362.88,569.34 1361.78,569.34L1334.11,569.34C1333.01,569.34 1332.11,568.44 1332.11,567.34L1332.11,544.14C1332.11,535.41 1339.21,528.31 1347.94,528.31C1356.67,528.31 1363.77,535.41 1363.77,544.14L1363.77,567.34L1363.78,567.34Z" style="fill:none;fill-rule:nonzero;"/>
            <path d="M1347.95,532.3C1341.42,532.3 1336.12,537.61 1336.12,544.13L1336.12,565.33L1359.79,565.33L1359.79,544.13C1359.78,537.61 1354.47,532.3 1347.95,532.3Z" style="fill:none;fill-rule:nonzero;"/>
            <path d="M1286.24,532.3C1279.71,532.3 1274.41,537.61 1274.41,544.13L1274.41,565.33L1298.08,565.33L1298.08,544.13C1298.07,537.61 1292.76,532.3 1286.24,532.3Z" style="fill:none;fill-rule:nonzero;"/>
            <rect x="1130.08" y="702.22" width="312.31" height="13.74" style="fill:none;"/>
            <path d="M1286.24,244.63L1174.63,351.05L1397.84,351.05L1286.24,244.63Z" style="fill:none;fill-rule:nonzero;"/>
            <path d="M1315.85,624.12C1315.85,607.79 1302.57,594.51 1286.24,594.51C1269.91,594.51 1256.63,607.79 1256.63,624.12L1256.63,698.05L1315.86,698.05L1315.86,624.12L1315.85,624.12Z" style="fill:none;fill-rule:nonzero;"/>
            <path d="M1288.05,768.24C1269.7,768.24 1254.78,783.17 1254.78,801.51C1254.78,819.85 1269.71,834.78 1288.05,834.78C1306.39,834.78 1321.32,819.85 1321.32,801.51C1321.32,783.17 1306.4,768.24 1288.05,768.24ZM1286.99,818.11C1281.97,818.11 1278.38,815.93 1276.6,814.61C1275.54,813.8 1275.44,812.74 1276.19,811.67L1277.2,810.1C1277.96,808.94 1278.92,808.88 1280.09,809.65C1281.41,810.56 1283.69,811.93 1286.57,811.93C1290.32,811.93 1293.05,809.65 1293.05,806.56C1293.05,802.76 1289.55,800.99 1285.35,800.99L1284.59,800.99C1283.43,800.99 1282.77,800.58 1282.26,799.52L1282.06,799.11C1281.6,798.2 1281.76,797.23 1282.52,796.37L1288.04,789.83C1289.41,788.16 1290.62,787.1 1290.62,787.1L1290.62,787C1290.62,787 1289.51,787.15 1287.43,787.15L1278.77,787.15C1277.4,787.15 1276.69,786.44 1276.69,785.07L1276.69,783.65C1276.69,782.28 1277.4,781.52 1278.77,781.52L1296.5,781.52C1297.92,781.52 1298.63,782.23 1298.63,783.6L1298.63,784.16C1298.63,785.23 1298.38,785.98 1297.67,786.74L1289.82,795.81C1294.84,796.52 1299.65,800.06 1299.65,806.3C1299.65,812.44 1295.04,818.11 1286.99,818.11Z" style="fill:none;fill-rule:nonzero;"/>
            <path d="M1444.39,698.22L1404.84,698.22L1404.84,517.62C1404.84,516.52 1403.94,515.62 1402.84,515.62L1308.88,515.62C1334.19,506.36 1352.31,482.03 1352.31,453.55C1352.31,425.07 1334.2,400.74 1308.88,391.48L1361.78,391.48C1362.88,391.48 1363.78,390.58 1363.78,389.48L1363.78,373.27L1402.84,373.27C1403.94,373.27 1404.84,372.37 1404.84,371.27L1404.84,353.06C1404.84,352.92 1404.82,352.78 1404.79,352.64C1404.79,352.63 1404.78,352.62 1404.78,352.61C1404.74,352.45 1404.68,352.29 1404.61,352.15C1404.59,352.11 1404.57,352.08 1404.55,352.04C1404.46,351.89 1404.35,351.75 1404.23,351.63L1404.22,351.62L1287.62,240.43C1286.85,239.69 1285.63,239.69 1284.86,240.43L1168.26,351.62L1168.25,351.63C1168.12,351.75 1168.02,351.89 1167.93,352.04C1167.91,352.08 1167.89,352.11 1167.87,352.15C1167.8,352.29 1167.73,352.45 1167.7,352.61C1167.7,352.62 1167.69,352.63 1167.69,352.64C1167.66,352.77 1167.64,352.91 1167.64,353.06L1167.64,371.27C1167.64,372.37 1168.54,373.27 1169.64,373.27L1208.7,373.27L1208.7,389.48C1208.7,390.58 1209.6,391.48 1210.7,391.48L1263.6,391.48C1238.29,400.74 1220.17,425.07 1220.17,453.55C1220.17,482.03 1238.28,506.36 1263.6,515.62L1169.64,515.62C1168.54,515.62 1167.64,516.52 1167.64,517.62L1167.64,698.22L1128.09,698.22C1126.99,698.22 1126.09,699.12 1126.09,700.22L1126.09,717.96C1126.09,719.06 1126.99,719.96 1128.09,719.96L1444.4,719.96C1445.5,719.96 1446.4,719.06 1446.4,717.96L1446.4,700.22C1446.39,699.11 1445.49,698.22 1444.39,698.22ZM1171.63,582.02L1400.84,582.02L1400.84,698.04L1319.85,698.04L1319.85,624.11C1319.85,605.58 1304.77,590.5 1286.24,590.5C1267.7,590.5 1252.63,605.58 1252.63,624.11L1252.63,698.04L1171.64,698.04L1171.64,582.02L1171.63,582.02ZM1256.62,624.12C1256.62,607.79 1269.9,594.51 1286.23,594.51C1302.56,594.51 1315.84,607.79 1315.84,624.12L1315.84,698.05L1256.61,698.05L1256.61,624.12L1256.62,624.12ZM1286.24,244.63L1397.85,351.06L1174.63,351.06L1286.24,244.63ZM1171.63,355.05L1400.84,355.05L1400.84,369.26L1171.63,369.26L1171.63,355.05ZM1212.69,387.48L1212.69,373.27L1359.78,373.27L1359.78,387.48L1212.69,387.48ZM1224.16,453.55C1224.16,419.32 1252.01,391.48 1286.23,391.48C1320.46,391.48 1348.3,419.33 1348.3,453.55C1348.3,487.77 1320.45,515.62 1286.23,515.62C1252.01,515.62 1224.16,487.78 1224.16,453.55ZM1171.63,519.62L1400.84,519.62L1400.84,578.02L1171.63,578.02L1171.63,519.62ZM1442.39,715.96L1130.08,715.96L1130.08,702.22L1442.39,702.22L1442.39,715.96Z" style="fill:rgb(21,128,242);fill-rule:nonzero;"/>
            <path d="M1286.24,528.3C1277.51,528.3 1270.41,535.4 1270.41,544.13L1270.41,567.33C1270.41,568.43 1271.31,569.33 1272.41,569.33L1300.08,569.33C1301.18,569.33 1302.08,568.43 1302.08,567.33L1302.08,544.13C1302.07,535.41 1294.97,528.3 1286.24,528.3ZM1298.07,565.34L1274.4,565.34L1274.4,544.14C1274.4,537.61 1279.71,532.31 1286.23,532.31C1292.76,532.31 1298.06,537.62 1298.06,544.14L1298.06,565.34L1298.07,565.34Z" style="fill:rgb(21,128,242);fill-rule:nonzero;"/>
            <path d="M1347.95,528.3C1339.22,528.3 1332.12,535.4 1332.12,544.13L1332.12,567.33C1332.12,568.43 1333.02,569.33 1334.12,569.33L1361.79,569.33C1362.89,569.33 1363.79,568.43 1363.79,567.33L1363.79,544.13C1363.78,535.41 1356.68,528.3 1347.95,528.3ZM1359.78,565.34L1336.11,565.34L1336.11,544.14C1336.11,537.61 1341.42,532.31 1347.94,532.31C1354.46,532.31 1359.77,537.62 1359.77,544.14L1359.77,565.34L1359.78,565.34Z" style="fill:rgb(21,128,242);fill-rule:nonzero;"/>
            <path d="M1224.52,528.3C1215.79,528.3 1208.69,535.4 1208.69,544.13L1208.69,567.33C1208.69,568.43 1209.59,569.33 1210.69,569.33L1238.36,569.33C1239.46,569.33 1240.36,568.43 1240.36,567.33L1240.36,544.13C1240.36,535.41 1233.25,528.3 1224.52,528.3ZM1236.36,565.34L1212.69,565.34L1212.69,544.14C1212.69,537.61 1218,532.31 1224.52,532.31C1231.04,532.31 1236.35,537.62 1236.35,544.14L1236.35,565.34L1236.36,565.34Z" style="fill:rgb(21,128,242);fill-rule:nonzero;"/>
            <path d="M1054.35,698.22L1014.8,698.22L1014.8,517.62C1014.8,516.52 1013.9,515.62 1012.8,515.62L918.84,515.62C944.15,506.36 962.27,482.03 962.27,453.55C962.27,425.07 944.16,400.74 918.84,391.48L1012.8,391.48C1013.9,391.48 1014.8,390.58 1014.8,389.48L1014.8,371.27C1014.8,371.19 1014.79,371.11 1014.78,371.04C1014.78,371 1014.78,370.96 1014.77,370.93C1014.74,370.76 1014.69,370.6 1014.62,370.45C1014.61,370.42 1014.59,370.39 1014.57,370.36C1014.5,370.23 1014.42,370.11 1014.33,369.99C1014.31,369.97 1014.31,369.95 1014.29,369.93L897.69,240.53C896.93,239.69 895.48,239.69 894.72,240.53L778.12,369.93C778.1,369.95 778.1,369.97 778.08,369.99C777.99,370.1 777.9,370.22 777.84,370.36C777.82,370.39 777.81,370.42 777.79,370.45C777.72,370.6 777.67,370.76 777.64,370.93C777.63,370.97 777.63,371.01 777.63,371.04C777.62,371.12 777.61,371.19 777.61,371.27L777.61,389.48C777.61,390.58 778.51,391.48 779.61,391.48L873.57,391.48C848.26,400.74 830.14,425.07 830.14,453.55C830.14,482.03 848.25,506.36 873.57,515.62L779.61,515.62C778.51,515.62 777.61,516.52 777.61,517.62L777.61,698.22L738.06,698.22C736.96,698.22 736.06,699.12 736.06,700.22L736.06,717.96C736.06,719.06 736.96,719.96 738.06,719.96L1054.37,719.96C1055.47,719.96 1056.37,719.06 1056.37,717.96L1056.37,700.22C1056.35,699.11 1055.45,698.22 1054.35,698.22ZM781.59,582.02L1010.8,582.02L1010.8,698.04L929.81,698.04L929.81,624.11C929.81,605.58 914.73,590.5 896.2,590.5C877.67,590.5 862.59,605.58 862.59,624.11L862.59,698.04L781.6,698.04L781.6,582.02L781.59,582.02ZM866.58,624.12C866.58,607.79 879.86,594.51 896.19,594.51C912.52,594.51 925.8,607.79 925.8,624.12L925.8,698.05L866.57,698.05L866.57,624.12L866.58,624.12ZM896.19,244.85L1008.3,369.27L784.08,369.27L896.19,244.85ZM781.59,387.48L781.59,373.27L1010.8,373.27L1010.8,387.48L781.59,387.48ZM834.12,453.55C834.12,419.32 861.97,391.48 896.19,391.48C930.41,391.48 958.26,419.33 958.26,453.55C958.26,487.77 930.41,515.62 896.19,515.62C861.97,515.62 834.12,487.78 834.12,453.55ZM781.59,519.62L1010.8,519.62L1010.8,578.02L781.59,578.02L781.59,519.62ZM1052.35,715.96L740.04,715.96L740.04,702.22L1052.35,702.22L1052.35,715.96Z" style="fill:rgb(21,128,242);fill-rule:nonzero;"/>
            <path d="M656.92,698.22L617.37,698.22L617.37,517.62C617.37,516.52 616.47,515.62 615.37,515.62L521.41,515.62C546.72,506.36 564.84,482.03 564.84,453.55C564.84,425.07 546.73,400.74 521.41,391.48L615.37,391.48C616.14,391.48 616.84,391.04 617.17,390.35C617.5,389.66 617.41,388.84 616.94,388.24L500.34,240.62C499.58,239.66 497.96,239.66 497.2,240.62L380.6,388.24C380.12,388.84 380.04,389.66 380.37,390.35C380.7,391.04 381.4,391.48 382.17,391.48L476.13,391.48C450.82,400.74 432.7,425.07 432.7,453.55C432.7,482.03 450.81,506.36 476.13,515.62L382.17,515.62C381.07,515.62 380.17,516.52 380.17,517.62L380.17,698.21L340.62,698.21C339.52,698.21 338.62,699.11 338.62,700.21L338.62,717.95C338.62,719.05 339.52,719.95 340.62,719.95L656.93,719.95C658.03,719.95 658.93,719.05 658.93,717.95L658.93,700.21C658.92,699.11 658.02,698.22 656.92,698.22ZM528.38,698.05L469.15,698.05L469.15,594.51L528.38,594.51L528.38,698.05ZM386.29,387.48L498.77,245.09L611.25,387.48L386.29,387.48ZM436.69,453.55C436.69,419.32 464.54,391.48 498.76,391.48C532.98,391.48 560.83,419.33 560.83,453.55C560.83,487.77 532.98,515.62 498.76,515.62C464.54,515.62 436.69,487.78 436.69,453.55ZM384.16,519.62L613.37,519.62L613.37,698.04L532.38,698.04L532.38,592.51C532.38,591.41 531.48,590.51 530.38,590.51L467.15,590.51C466.05,590.51 465.15,591.41 465.15,592.51L465.15,698.05L384.16,698.05L384.16,519.62ZM654.92,715.96L342.61,715.96L342.61,702.22L654.92,702.22L654.92,715.96Z" style="fill:rgb(21,128,242);fill-rule:nonzero;"/>
            <path d="M848.32,537.67L820.65,537.67C819.55,537.67 818.65,538.57 818.65,539.67L818.65,567.34C818.65,568.44 819.55,569.34 820.65,569.34L848.32,569.34C849.42,569.34 850.32,568.44 850.32,567.34L850.32,539.67C850.32,538.57 849.42,537.67 848.32,537.67ZM846.32,565.34L822.65,565.34L822.65,541.67L846.32,541.67L846.32,565.34Z" style="fill:rgb(21,128,242);fill-rule:nonzero;"/>
            <path d="M971.74,537.67L944.07,537.67C942.97,537.67 942.07,538.57 942.07,539.67L942.07,567.34C942.07,568.44 942.97,569.34 944.07,569.34L971.74,569.34C972.84,569.34 973.74,568.44 973.74,567.34L973.74,539.67C973.74,538.57 972.84,537.67 971.74,537.67ZM969.74,565.34L946.07,565.34L946.07,541.67L969.74,541.67L969.74,565.34Z" style="fill:rgb(21,128,242);fill-rule:nonzero;"/>
            <path d="M498.15,763.4C476.99,763.4 459.78,780.61 459.78,801.77C459.78,822.93 476.99,840.14 498.15,840.14C519.31,840.14 536.52,822.93 536.52,801.77C536.52,780.61 519.31,763.4 498.15,763.4ZM498.15,836.14C479.2,836.14 463.78,820.72 463.78,801.77C463.78,782.82 479.2,767.4 498.15,767.4C517.1,767.4 532.52,782.82 532.52,801.77C532.52,820.72 517.1,836.14 498.15,836.14Z" style="fill:rgb(243,122,120);fill-rule:nonzero;"/>
            <path d="M507.72,812.13L502.05,812.13L502.05,783.91C502.05,782.54 501.34,781.78 499.97,781.78L497.84,781.78C496.78,781.78 496.02,782.13 495.21,782.84L488.83,788.97C487.87,789.93 487.82,791 488.78,791.96L489.74,792.97C490.65,793.98 491.67,793.98 492.68,793.07L494.25,791.55C495.16,790.69 495.62,789.73 495.62,789.73L495.72,789.73C495.72,789.73 495.67,790.95 495.67,792.16L495.67,812.12L489.95,812.12C488.58,812.12 487.87,812.83 487.87,814.2L487.87,815.62C487.87,817.04 488.58,817.75 489.95,817.75L507.73,817.75C509.1,817.75 509.86,817.04 509.86,815.62L509.86,814.2C509.85,812.84 509.09,812.13 507.72,812.13Z" style="fill:rgb(243,122,120);fill-rule:nonzero;"/>
            <path d="M896.47,763.74C875.56,763.74 858.54,780.76 858.54,801.67C858.54,822.58 875.56,839.6 896.47,839.6C917.38,839.6 934.4,822.58 934.4,801.67C934.4,780.76 917.38,763.74 896.47,763.74ZM896.47,835.6C877.76,835.6 862.54,820.38 862.54,801.67C862.54,782.96 877.76,767.74 896.47,767.74C915.18,767.74 930.4,782.96 930.4,801.67C930.4,820.38 915.17,835.6 896.47,835.6Z" style="fill:rgb(243,122,120);fill-rule:nonzero;"/>
            <path d="M906.32,812.03L891.48,812.03C891.78,805.24 907.89,803.27 907.89,791.72C907.89,784.93 902.47,781.08 896.19,781.08C890.31,781.08 886.97,784.42 885.4,786.5C884.64,787.57 884.89,788.53 885.96,789.34L887.33,790.4C888.34,791.26 889.36,790.91 890.32,789.94C891.23,788.82 893.06,787.25 895.64,787.25C898.68,787.25 901.11,789.13 901.11,792.27C901.11,799.41 884.29,801.49 884.29,814.46L884.29,815.53C884.29,816.95 885.25,817.66 886.57,817.66L906.33,817.66C907.75,817.66 908.46,816.95 908.46,815.53L908.46,814.11C908.45,812.74 907.74,812.03 906.32,812.03Z" style="fill:rgb(243,122,120);fill-rule:nonzero;"/>
            <path d="M1288.05,764.24C1267.5,764.24 1250.78,780.96 1250.78,801.51C1250.78,822.06 1267.5,838.78 1288.05,838.78C1308.6,838.78 1325.32,822.06 1325.32,801.51C1325.32,780.96 1308.61,764.24 1288.05,764.24ZM1288.05,834.79C1269.7,834.79 1254.78,819.86 1254.78,801.52C1254.78,783.18 1269.71,768.25 1288.05,768.25C1306.39,768.25 1321.32,783.18 1321.32,801.52C1321.32,819.86 1306.4,834.79 1288.05,834.79Z" style="fill:rgb(243,122,120);fill-rule:nonzero;"/>
            <path d="M1289.82,795.82L1297.67,786.75C1298.38,785.99 1298.63,785.23 1298.63,784.17L1298.63,783.61C1298.63,782.24 1297.92,781.53 1296.5,781.53L1278.77,781.53C1277.4,781.53 1276.69,782.29 1276.69,783.66L1276.69,785.08C1276.69,786.45 1277.4,787.16 1278.77,787.16L1287.43,787.16C1289.51,787.16 1290.62,787.01 1290.62,787.01L1290.62,787.11C1290.62,787.11 1289.4,788.18 1288.04,789.84L1282.52,796.38C1281.76,797.24 1281.61,798.2 1282.06,799.12L1282.26,799.53C1282.77,800.59 1283.43,801 1284.59,801L1285.35,801C1289.55,801 1293.05,802.77 1293.05,806.57C1293.05,809.66 1290.31,811.94 1286.57,811.94C1283.68,811.94 1281.4,810.57 1280.09,809.66C1278.93,808.9 1277.96,808.95 1277.2,810.11L1276.19,811.68C1275.43,812.74 1275.53,813.81 1276.6,814.62C1278.37,815.94 1281.97,818.12 1286.99,818.12C1295.05,818.12 1299.66,812.45 1299.66,806.32C1299.65,800.07 1294.84,796.53 1289.82,795.82Z" style="fill:rgb(243,122,120);fill-rule:nonzero;"/>
        </g>
    </g>
</svg>
