<svg clip-rule="evenodd" fill-rule="evenodd" stroke-linejoin="round" stroke-miterlimit="2" viewBox="0 0 1108 601" xmlns="http://www.w3.org/2000/svg"><g transform="translate(-338.62 -239.875)"><g fill="none"><path d="m862.58 624.12c0-18.53 15.08-33.61 33.61-33.61s33.61 15.08 33.61 33.61v73.93h80.99v-116.03h-229.2v116.02h80.99z"/><circle cx="896.19" cy="453.55" r="62.07"/><path d="m781.59 373.27h229.21v14.21h-229.21z"/><path d="m925.81 624.12c0-16.33-13.28-29.61-29.61-29.61s-29.61 13.28-29.61 29.61v73.93h59.23v-73.93z"/><path d="m896.19 244.85-112.11 124.42h224.22z"/><path d="m1010.8 519.62h-229.21v58.4h229.21zm-160.48 47.72c0 1.1-.9 2-2 2h-27.67c-1.1 0-2-.9-2-2v-27.67c0-1.1.9-2 2-2h27.67c1.1 0 2 .9 2 2zm123.42 0c0 1.1-.9 2-2 2h-27.67c-1.1 0-2-.9-2-2v-27.67c0-1.1.9-2 2-2h27.67c1.1 0 2 .9 2 2z"/><path d="m740.04 702.22h312.31v13.74h-312.31z"/><path d="m822.65 541.67h23.67v23.67h-23.67z"/><path d="m946.07 541.67h23.67v23.67h-23.67z"/><path d="m469.15 594.51h59.23v103.54h-59.23z"/><path d="m498.76 245.09-112.47 142.39h224.95z"/><path d="m498.15 767.4c-18.95 0-34.37 15.42-34.37 34.37s15.42 34.37 34.37 34.37 34.37-15.42 34.37-34.37-15.42-34.37-34.37-34.37zm11.7 48.23c0 1.42-.76 2.13-2.13 2.13h-17.78c-1.37 0-2.08-.71-2.08-2.13v-1.42c0-1.37.71-2.08 2.08-2.08h5.72v-19.96c0-1.22.05-2.43.05-2.43h-.1s-.46.96-1.37 1.82l-1.57 1.52c-1.01.91-2.03.91-2.94-.1l-.96-1.01c-.96-.96-.91-2.03.05-2.99l6.38-6.13c.81-.71 1.57-1.06 2.63-1.06h2.13c1.37 0 2.08.76 2.08 2.13v28.22h5.67c1.37 0 2.13.71 2.13 2.08v1.41z"/><path d="m465.15 592.51c0-1.1.9-2 2-2h63.23c1.1 0 2 .9 2 2v105.54h80.99v-178.43h-229.21v178.42h80.99z"/><path d="m342.61 702.22h312.31v13.74h-312.31z"/><path d="m896.47 767.74c-18.71 0-33.93 15.22-33.93 33.93s15.22 33.93 33.93 33.93 33.93-15.22 33.93-33.93-15.23-33.93-33.93-33.93zm11.98 47.79c0 1.42-.71 2.13-2.13 2.13h-19.76c-1.32 0-2.28-.71-2.28-2.13v-1.07c0-12.97 16.82-15.05 16.82-22.19 0-3.14-2.43-5.02-5.47-5.02-2.58 0-4.41 1.57-5.32 2.69-.96.96-1.98 1.32-2.99.46l-1.37-1.06c-1.06-.81-1.32-1.77-.56-2.84 1.57-2.08 4.91-5.42 10.79-5.42 6.28 0 11.7 3.85 11.7 10.64 0 11.55-16.11 13.53-16.41 20.31h14.84c1.42 0 2.13.71 2.13 2.08v1.42z"/><circle cx="498.76" cy="453.55" r="62.07"/><path d="m1252.62 624.12c0-18.53 15.08-33.61 33.61-33.61s33.61 15.08 33.61 33.61v73.93h80.99v-116.03h-229.21v116.02h80.99v-73.92z"/><path d="m1171.63 369.27h229.21v-14.22h-229.21z"/><path d="m1224.52 532.3c-6.53 0-11.83 5.31-11.83 11.83v21.2h23.67v-21.2c0-6.52-5.31-11.83-11.84-11.83z"/><circle cx="1286.24" cy="453.55" r="62.07"/><path d="m1212.69 373.27h147.09v14.21h-147.09z"/><path d="m1400.84 519.62h-229.21v58.4h229.21zm-160.48 47.72c0 1.1-.9 2-2 2h-27.67c-1.1 0-2-.9-2-2v-23.2c0-8.73 7.1-15.83 15.83-15.83s15.83 7.1 15.83 15.83v23.2zm61.71 0c0 1.1-.9 2-2 2h-27.67c-1.1 0-2-.9-2-2v-23.2c0-8.73 7.1-15.83 15.83-15.83s15.83 7.1 15.83 15.83v23.2zm61.71 0c0 1.1-.9 2-2 2h-27.67c-1.1 0-2-.9-2-2v-23.2c0-8.73 7.1-15.83 15.83-15.83s15.83 7.1 15.83 15.83v23.2z"/><path d="m1347.95 532.3c-6.53 0-11.83 5.31-11.83 11.83v21.2h23.67v-21.2c-.01-6.52-5.32-11.83-11.84-11.83z"/><path d="m1286.24 532.3c-6.53 0-11.83 5.31-11.83 11.83v21.2h23.67v-21.2c-.01-6.52-5.32-11.83-11.84-11.83z"/><path d="m1130.08 702.22h312.31v13.74h-312.31z"/><path d="m1286.24 244.63-111.61 106.42h223.21z"/><path d="m1315.85 624.12c0-16.33-13.28-29.61-29.61-29.61s-29.61 13.28-29.61 29.61v73.93h59.23v-73.93z"/><path d="m1288.05 768.24c-18.35 0-33.27 14.93-33.27 33.27s14.93 33.27 33.27 33.27 33.27-14.93 33.27-33.27-14.92-33.27-33.27-33.27zm-1.06 49.87c-5.02 0-8.61-2.18-10.39-3.5-1.06-.81-1.16-1.87-.41-2.94l1.01-1.57c.76-1.16 1.72-1.22 2.89-.45 1.32.91 3.6 2.28 6.48 2.28 3.75 0 6.48-2.28 6.48-5.37 0-3.8-3.5-5.57-7.7-5.57h-.76c-1.16 0-1.82-.41-2.33-1.47l-.2-.41c-.46-.91-.3-1.88.46-2.74l5.52-6.54c1.37-1.67 2.58-2.73 2.58-2.73v-.1s-1.11.15-3.19.15h-8.66c-1.37 0-2.08-.71-2.08-2.08v-1.42c0-1.37.71-2.13 2.08-2.13h17.73c1.42 0 2.13.71 2.13 2.08v.56c0 1.07-.25 1.82-.96 2.58l-7.85 9.07c5.02.71 9.83 4.25 9.83 10.49 0 6.14-4.61 11.81-12.66 11.81z"/></g><path d="m1444.39 698.22h-39.55v-180.6c0-1.1-.9-2-2-2h-93.96c25.31-9.26 43.43-33.59 43.43-62.07s-18.11-52.81-43.43-62.07h52.9c1.1 0 2-.9 2-2v-16.21h39.06c1.1 0 2-.9 2-2v-18.21c0-.14-.02-.28-.05-.42 0-.01-.01-.02-.01-.03-.04-.16-.1-.32-.17-.46-.02-.04-.04-.07-.06-.11-.09-.15-.2-.29-.32-.41l-.01-.01-116.6-111.19c-.77-.74-1.99-.74-2.76 0l-116.6 111.19-.01.01c-.13.12-.23.26-.32.41-.02.04-.04.07-.06.11-.07.14-.14.3-.17.46 0 .01-.01.02-.01.03-.03.13-.05.27-.05.42v18.21c0 1.1.9 2 2 2h39.06v16.21c0 1.1.9 2 2 2h52.9c-25.31 9.26-43.43 33.59-43.43 62.07s18.11 52.81 43.43 62.07h-93.96c-1.1 0-2 .9-2 2v180.6h-39.55c-1.1 0-2 .9-2 2v17.74c0 1.1.9 2 2 2h316.31c1.1 0 2-.9 2-2v-17.74c-.01-1.11-.91-2-2.01-2zm-272.76-116.2h229.21v116.02h-80.99v-73.93c0-18.53-15.08-33.61-33.61-33.61-18.54 0-33.61 15.08-33.61 33.61v73.93h-80.99v-116.02zm84.99 42.1c0-16.33 13.28-29.61 29.61-29.61s29.61 13.28 29.61 29.61v73.93h-59.23v-73.93zm29.62-379.49 111.61 106.43h-223.22zm-114.61 110.42h229.21v14.21h-229.21zm41.06 32.43v-14.21h147.09v14.21zm11.47 66.07c0-34.23 27.85-62.07 62.07-62.07 34.23 0 62.07 27.85 62.07 62.07s-27.85 62.07-62.07 62.07-62.07-27.84-62.07-62.07zm-52.53 66.07h229.21v58.4h-229.21zm270.76 196.34h-312.31v-13.74h312.31z" fill="#1580f2" fill-rule="nonzero"/><path d="m1286.24 528.3c-8.73 0-15.83 7.1-15.83 15.83v23.2c0 1.1.9 2 2 2h27.67c1.1 0 2-.9 2-2v-23.2c-.01-8.72-7.11-15.83-15.84-15.83zm11.83 37.04h-23.67v-21.2c0-6.53 5.31-11.83 11.83-11.83 6.53 0 11.83 5.31 11.83 11.83v21.2z" fill="#1580f2" fill-rule="nonzero"/><path d="m1347.95 528.3c-8.73 0-15.83 7.1-15.83 15.83v23.2c0 1.1.9 2 2 2h27.67c1.1 0 2-.9 2-2v-23.2c-.01-8.72-7.11-15.83-15.84-15.83zm11.83 37.04h-23.67v-21.2c0-6.53 5.31-11.83 11.83-11.83s11.83 5.31 11.83 11.83v21.2z" fill="#1580f2" fill-rule="nonzero"/><path d="m1224.52 528.3c-8.73 0-15.83 7.1-15.83 15.83v23.2c0 1.1.9 2 2 2h27.67c1.1 0 2-.9 2-2v-23.2c0-8.72-7.11-15.83-15.84-15.83zm11.84 37.04h-23.67v-21.2c0-6.53 5.31-11.83 11.83-11.83s11.83 5.31 11.83 11.83v21.2z" fill="#1580f2" fill-rule="nonzero"/><path d="m1054.35 698.22h-39.55v-180.6c0-1.1-.9-2-2-2h-93.96c25.31-9.26 43.43-33.59 43.43-62.07s-18.11-52.81-43.43-62.07h93.96c1.1 0 2-.9 2-2v-18.21c0-.08-.01-.16-.02-.23 0-.04 0-.08-.01-.11-.03-.17-.08-.33-.15-.48-.01-.03-.03-.06-.05-.09-.07-.13-.15-.25-.24-.37-.02-.02-.02-.04-.04-.06l-116.6-129.4c-.76-.84-2.21-.84-2.97 0l-116.6 129.4c-.02.02-.02.04-.04.06-.09.11-.18.23-.24.37-.02.03-.03.06-.05.09-.07.15-.12.31-.15.48-.01.04-.01.08-.01.11-.01.08-.02.15-.02.23v18.21c0 1.1.9 2 2 2h93.96c-25.31 9.26-43.43 33.59-43.43 62.07s18.11 52.81 43.43 62.07h-93.96c-1.1 0-2 .9-2 2v180.6h-39.55c-1.1 0-2 .9-2 2v17.74c0 1.1.9 2 2 2h316.31c1.1 0 2-.9 2-2v-17.74c-.02-1.11-.92-2-2.02-2zm-272.76-116.2h229.21v116.02h-80.99v-73.93c0-18.53-15.08-33.61-33.61-33.61s-33.61 15.08-33.61 33.61v73.93h-80.99v-116.02zm84.99 42.1c0-16.33 13.28-29.61 29.61-29.61s29.61 13.28 29.61 29.61v73.93h-59.23v-73.93zm29.61-379.27 112.11 124.42h-224.22zm-114.6 142.63v-14.21h229.21v14.21zm52.53 66.07c0-34.23 27.85-62.07 62.07-62.07s62.07 27.85 62.07 62.07-27.85 62.07-62.07 62.07-62.07-27.84-62.07-62.07zm-52.53 66.07h229.21v58.4h-229.21zm270.76 196.34h-312.31v-13.74h312.31z" fill="#1580f2" fill-rule="nonzero"/><path d="m656.92 698.22h-39.55v-180.6c0-1.1-.9-2-2-2h-93.96c25.31-9.26 43.43-33.59 43.43-62.07s-18.11-52.81-43.43-62.07h93.96c.77 0 1.47-.44 1.8-1.13s.24-1.51-.23-2.11l-116.6-147.62c-.76-.96-2.38-.96-3.14 0l-116.6 147.62c-.48.6-.56 1.42-.23 2.11s1.03 1.13 1.8 1.13h93.96c-25.31 9.26-43.43 33.59-43.43 62.07s18.11 52.81 43.43 62.07h-93.96c-1.1 0-2 .9-2 2v180.59h-39.55c-1.1 0-2 .9-2 2v17.74c0 1.1.9 2 2 2h316.31c1.1 0 2-.9 2-2v-17.74c-.01-1.1-.91-1.99-2.01-1.99zm-128.54-.17h-59.23v-103.54h59.23zm-142.09-310.57 112.48-142.39 112.48 142.39zm50.4 66.07c0-34.23 27.85-62.07 62.07-62.07s62.07 27.85 62.07 62.07-27.85 62.07-62.07 62.07-62.07-27.84-62.07-62.07zm-52.53 66.07h229.21v178.42h-80.99v-105.53c0-1.1-.9-2-2-2h-63.23c-1.1 0-2 .9-2 2v105.54h-80.99zm270.76 196.34h-312.31v-13.74h312.31z" fill="#1580f2" fill-rule="nonzero"/><path d="m848.32 537.67h-27.67c-1.1 0-2 .9-2 2v27.67c0 1.1.9 2 2 2h27.67c1.1 0 2-.9 2-2v-27.67c0-1.1-.9-2-2-2zm-2 27.67h-23.67v-23.67h23.67z" fill="#1580f2" fill-rule="nonzero"/><path d="m971.74 537.67h-27.67c-1.1 0-2 .9-2 2v27.67c0 1.1.9 2 2 2h27.67c1.1 0 2-.9 2-2v-27.67c0-1.1-.9-2-2-2zm-2 27.67h-23.67v-23.67h23.67z" fill="#1580f2" fill-rule="nonzero"/><path d="m498.15 763.4c-21.16 0-38.37 17.21-38.37 38.37s17.21 38.37 38.37 38.37 38.37-17.21 38.37-38.37-17.21-38.37-38.37-38.37zm0 72.74c-18.95 0-34.37-15.42-34.37-34.37s15.42-34.37 34.37-34.37 34.37 15.42 34.37 34.37-15.42 34.37-34.37 34.37z" fill="#f37a78" fill-rule="nonzero"/><path d="m507.72 812.13h-5.67v-28.22c0-1.37-.71-2.13-2.08-2.13h-2.13c-1.06 0-1.82.35-2.63 1.06l-6.38 6.13c-.96.96-1.01 2.03-.05 2.99l.96 1.01c.91 1.01 1.93 1.01 2.94.1l1.57-1.52c.91-.86 1.37-1.82 1.37-1.82h.1s-.05 1.22-.05 2.43v19.96h-5.72c-1.37 0-2.08.71-2.08 2.08v1.42c0 1.42.71 2.13 2.08 2.13h17.78c1.37 0 2.13-.71 2.13-2.13v-1.42c-.01-1.36-.77-2.07-2.14-2.07z" fill="#f37a78" fill-rule="nonzero"/><path d="m896.47 763.74c-20.91 0-37.93 17.02-37.93 37.93s17.02 37.93 37.93 37.93 37.93-17.02 37.93-37.93-17.02-37.93-37.93-37.93zm0 71.86c-18.71 0-33.93-15.22-33.93-33.93s15.22-33.93 33.93-33.93 33.93 15.22 33.93 33.93-15.23 33.93-33.93 33.93z" fill="#f37a78" fill-rule="nonzero"/><path d="m906.32 812.03h-14.84c.3-6.79 16.41-8.76 16.41-20.31 0-6.79-5.42-10.64-11.7-10.64-5.88 0-9.22 3.34-10.79 5.42-.76 1.07-.51 2.03.56 2.84l1.37 1.06c1.01.86 2.03.51 2.99-.46.91-1.12 2.74-2.69 5.32-2.69 3.04 0 5.47 1.88 5.47 5.02 0 7.14-16.82 9.22-16.82 22.19v1.07c0 1.42.96 2.13 2.28 2.13h19.76c1.42 0 2.13-.71 2.13-2.13v-1.42c-.01-1.37-.72-2.08-2.14-2.08z" fill="#f37a78" fill-rule="nonzero"/><path d="m1288.05 764.24c-20.55 0-37.27 16.72-37.27 37.27s16.72 37.27 37.27 37.27 37.27-16.72 37.27-37.27-16.71-37.27-37.27-37.27zm0 70.55c-18.35 0-33.27-14.93-33.27-33.27s14.93-33.27 33.27-33.27 33.27 14.93 33.27 33.27-14.92 33.27-33.27 33.27z" fill="#f37a78" fill-rule="nonzero"/><path d="m1289.82 795.82 7.85-9.07c.71-.76.96-1.52.96-2.58v-.56c0-1.37-.71-2.08-2.13-2.08h-17.73c-1.37 0-2.08.76-2.08 2.13v1.42c0 1.37.71 2.08 2.08 2.08h8.66c2.08 0 3.19-.15 3.19-.15v.1s-1.22 1.07-2.58 2.73l-5.52 6.54c-.76.86-.91 1.82-.46 2.74l.2.41c.51 1.06 1.17 1.47 2.33 1.47h.76c4.2 0 7.7 1.77 7.7 5.57 0 3.09-2.74 5.37-6.48 5.37-2.89 0-5.17-1.37-6.48-2.28-1.16-.76-2.13-.71-2.89.45l-1.01 1.57c-.76 1.06-.66 2.13.41 2.94 1.77 1.32 5.37 3.5 10.39 3.5 8.06 0 12.67-5.67 12.67-11.8-.01-6.25-4.82-9.79-9.84-10.5z" fill="#f37a78" fill-rule="nonzero"/></g></svg>