<svg clip-rule="evenodd" fill-rule="evenodd" stroke-linejoin="round" stroke-miterlimit="1.41421" viewBox="0 0 1396 803" xmlns="http://www.w3.org/2000/svg"><path d="m6 627.6h263.61v-42.65h-263.61zm59.71-24.32h144.21c1.646 0 3 1.354 3 3s-1.354 3-3 3h-144.21c-1.646 0-3-1.354-3-3s1.354-3 3-3z" fill="#fff" fill-rule="nonzero"/><path d="m634.37 320.21c6.88-18.65 30.17-20.76 36.45-23.66s13.27-14.23 10.36-35.28c-5.78-59.87 11.75-86.1 22.37-95.88 5.555-5.238 13.328-7.453 20.81-5.93s27-15.42 50.71 13.7c21.54 26.5 17.4 60.28 16.5 68.94s-5.42 20.91-1 33.72c3 8.84 3.58 20.59 3.28 22.38 0 0 35.89 17.66 41.18 28.94 6.68 14.25 7.74 51.62 7.91 62.47h19.2v-263.6h-263.62v219.34h30.15c1.6-9.94 3.51-19.2 5.7-25.14z" fill="#fff" fill-rule="nonzero"/><path d="m1260.26 419.21v21.6c0 1.646-1.354 3-3 3h-131.8v239h20.08c.75-46.15 11.93-46.11 41.67-65 15.39-9.76 39.86-19.15 39.86-19.15l-.4-28.29c-5-7.65-6.6-17.38-6.6-17.38-6.34-.2-5.47-9.09-7.2-12.86s-6.29-11.53-5.66-15.31 6.11-2.55 6.11-2.55-.64-1.91-3.17-30.68c-2.72-30.88 10.32-31 10.32-31 6.68-14.88 24.16-15.77 32.77-13.65 13.38 3.3 24.68 5.59 33 10.19s17.57 20 17 37-1.73 28.17-1.73 28.17c2.318-.458 4.632.936 5.31 3.2 1.31 3.71.67 10.58-3 15.44-2.13 2.78-1.77 12.79-10.55 13.53 0 0-.35 10.59-2.61 17l.27 28.83s26.3 9.23 38.64 14.65c38.06 16.7 42.15 31.47 45.77 67.84h13.74v-263.58z" fill="#fff" fill-rule="nonzero"/><path d="m275.61 408.16h69.48c1.646 0 3 1.354 3 3s-1.354 3-3 3h-69.48v18.32h129.19v-42.64h-129.19z" fill="#fff" fill-rule="nonzero"/><path d="m141.19 129.29v189.12h48.73c11-10.49 36.44-14.75 36.44-14.75s5.2-22.83 5.78-28.61-9.54-4.92-12.43-20.52c-5.78-41.34 12.1-68.26 18.47-74.34 5.49-5.24 15.92-7.17 15.92-7.17s7.84-6.1 14.75-6.94c12.44-1.51 28.48 3.11 39.64 12.09 13.31 10.71 23.57 18 17 73.75-3.41 28.92 16.47 50.87 16.47 50.87s24.96 13.71 30.42 26.16c6.76 15.4 8.49 34.21 8.52 54.94h23.9v-254.6z" fill="#fff" fill-rule="nonzero"/><path d="m342.01 302.79s-19.88-21.95-16.47-50.84c6.56-55.7-3.7-63-17-73.75-11.16-9-27.2-13.6-39.64-12.09-6.91.84-14.75 6.94-14.75 6.94s-10.43 1.93-15.92 7.17c-6.37 6.08-24.25 33-18.47 74.34 2.89 15.6 13 14.74 12.43 20.52s-5.78 28.61-5.78 28.61-25.42 4.26-36.49 14.72h82.65c1.646 0 3 1.354 3 3v62.43h105.35c0-20.73-1.76-39.54-8.52-54.94-5.48-12.4-30.39-26.11-30.39-26.11z" fill="#9eb1db" fill-rule="nonzero"/><path d="m407.8 123.29h-269.61c-1.646 0-3 1.354-3 3v192.12h-132.19c-1.646 0-3 1.354-3 3v309.19c0 1.646 1.354 3 3 3h269.61c1.646 0 3-1.354 3-3v-192.12h132.19c1.646 0 3-1.354 3-3v-309.19c0-1.646-1.354-3-3-3zm-138.19 504.31h-263.61v-42.65h263.61zm-18.38-48.65h-245.23v-254.54h263.61v254.54zm153.57-146.47h-129.19v-18.32h69.48c1.646 0 3-1.354 3-3s-1.354-3-3-3h-69.48v-18.32h129.19zm-23.88-48.64h-105.31v-62.43c0-1.646-1.354-3-3-3h-131.42v-189.12h263.61v254.55z" fill="#1580f2" fill-rule="nonzero"/><path d="m1329.55 614.95c-12.34-5.42-38.64-14.65-38.64-14.65l-.27-28.83c2.26-6.42 2.61-17 2.61-17 8.78-.74 8.42-10.75 10.55-13.53 3.71-4.86 4.35-11.73 3-15.44-.678-2.264-2.992-3.658-5.31-3.2s1.15-11.21 1.73-28.17-8.67-32.35-17-37-19.64-6.89-33-10.19c-8.61-2.12-26.09-1.23-32.77 13.65 0 0-13 .09-10.32 31 2.53 28.77 3.17 30.68 3.17 30.68s-5.48-1.23-6.11 2.55 3.93 11.53 5.66 15.31.86 12.66 7.2 12.86c0 0 1.61 9.73 6.6 17.38l.4 28.29s-24.47 9.39-39.86 19.15c-29.74 18.86-40.92 18.82-41.67 65h229.8c-3.62-36.36-7.71-51.13-45.77-67.86z" fill="#f37a78" fill-rule="nonzero"/><path d="m1392.06 413.21h-131.8v-290.64c0-1.646-1.354-3-3-3h-269.6c-1.646 0-3 1.354-3 3v318.24c0 1.646 1.354 3 3 3h131.8v290.64c0 1.646 1.354 3 3 3h269.6c1.646 0 3-1.354 3-3v-318.24c0-1.646-1.354-3-3-3zm-401.4-287.64h263.6v263.6h-263.6zm0 312.24v-42.64h263.6v42.64zm398.4 293.64h-263.6v-42.63h263.6zm-13.74-48.63h-249.86v-239h131.8c1.646 0 3-1.354 3-3v-21.6h128.8v263.6z" fill="#1580f2" fill-rule="nonzero"/><path d="m1125.46 731.45h263.6v-42.63h-263.6zm63-23.11h144.16c1.646 0 3 1.354 3 3s-1.354 3-3 3h-144.19c-1.646 0-3-1.354-3-3s1.354-3 3-3z" fill="#fff" fill-rule="nonzero"/><path d="m1188.43 714.34h144.19c1.646 0 3-1.354 3-3s-1.354-3-3-3h-144.19c-1.646 0-3 1.354-3 3s1.354 3 3 3z" fill="#1580f2" fill-rule="nonzero"/><path d="m42.71 77.67c-10.297.01-20.185-4.084-27.46-11.37l12 12c.5.533 1.02 1.053 1.56 1.56 7.206 6.807 16.752 10.602 26.665 10.602 21.303 0 38.832-17.529 38.832-38.832 0-10.678-4.404-20.898-12.167-28.23l-11.22-11.24c6.818 7.206 10.621 16.759 10.621 26.68 0 21.296-17.524 38.82-38.82 38.82-.007 0-.014 0-.021 0z" fill="#2a1210" fill-rule="nonzero"/><path d="m42.71 77.67c21.292-.006 38.81-17.528 38.81-38.82 0-21.296-17.524-38.82-38.82-38.82s-38.82 17.524-38.82 38.82c0 10.292 4.093 20.173 11.37 27.45 7.281 7.278 17.165 11.371 27.46 11.37z" fill="#9eb1db" fill-rule="nonzero"/><path d="m131.16 40.71h63.21c1.646 0 3-1.354 3-3s-1.354-3-3-3h-63.21c-1.646 0-3 1.354-3 3s1.354 3 3 3z" fill="#1580f2" fill-rule="nonzero"/><path d="m131.16 67.85h142.32c1.646 0 3-1.354 3-3s-1.354-3-3-3h-142.32c-1.646 0-3 1.354-3 3s1.354 3 3 3z" fill="#1580f2" fill-rule="nonzero"/><path d="m652.57 90.41v-4.25-73.43l-12.73-12.73v77.67h-77.67l12.73 12.74z" fill="#2a1210" fill-rule="nonzero"/><path d="m562.17 0h77.67v77.67h-77.67z" fill="#1580f2"/><g fill-rule="nonzero"><path d="m690.45 41.84h142.32c1.646 0 3-1.354 3-3s-1.354-3-3-3h-142.32c-1.646 0-3 1.354-3 3s1.354 3 3 3z" fill="#1580f2"/><path d="m690.45 68.95h82c1.646 0 3-1.354 3-3s-1.354-3-3-3h-82c-1.646 0-3 1.354-3 3s1.354 3 3 3z" fill="#1580f2"/><path d="m1216.11 90.41-38.84-77.68-16.97-12.73 38.83 77.67h-77.67l12.73 12.74z" fill="#2a1210"/><path d="m1160.3 0-38.84 77.67h77.67z" fill="#f37a78"/><path d="m1248.31 34.63h92.2c1.646 0 3-1.354 3-3s-1.354-3-3-3h-92.2c-1.646 0-3 1.354-3 3s1.354 3 3 3z" fill="#1580f2"/><path d="m1248.31 61.77h142.75c1.646 0 3-1.354 3-3s-1.354-3-3-3h-142.75c-1.646 0-3 1.354-3 3s1.354 3 3 3z" fill="#1580f2"/><path d="m1036.92 316.76c11.29-11.16 33.87-17.19 35.41-19.25.85-1.14-1.8-21.78 6.34-46.18 8.67-26-1.08-38.12 3.41-53.88 6.53-23 24.81-27.27 33.79-31.38s15.57 2.77 15.57 2.77 7.35-3.89 12.1-.65 24.38 12.49 22.8 50.79c-2 48.27 9.32 77.15 11.64 80.64s23.29 8.74 28.53 18.63c5 9.37 9.92 52.05 10.44 70.92h37.31v-263.6h-263.6v263.6h29.58c1.68-17.49 8.68-64.47 16.68-72.41z" fill="#fff"/><path d="m1177.98 299.62c-2.32-3.49-13.63-32.37-11.64-80.64 1.58-38.3-18-47.55-22.8-50.79s-12.1.65-12.1.65-6.59-6.87-15.57-2.77-27.26 8.42-33.79 31.38c-4.49 15.76 5.26 27.88-3.41 53.88-8.14 24.4-5.49 45-6.34 46.18-1.54 2.06-24.12 8.09-35.41 19.25-8 7.94-15 54.92-16.68 72.41h196.68c-.52-18.87-5.48-61.55-10.44-70.92-5.21-9.89-26.17-15.13-28.5-18.63z" fill="#f37a78"/><path d="m1254.26 395.17h-263.6v42.64h263.6zm-59.71 24.32h-144.19c-1.646 0-3-1.354-3-3s1.354-3 3-3h144.19c1.646 0 3 1.354 3 3s-1.354 3-3 3z" fill="#fff"/><path d="m1194.55 413.49h-144.19c-1.646 0-3 1.354-3 3s1.354 3 3 3h144.19c1.646 0 3-1.354 3-3s-1.354-3-3-3z" fill="#1580f2"/><path d="m6 324.41v254.54h12l4.15-15c7.45-30.86 16.26-37.12 20.52-40.58s49.58-23.7 53.34-26.08c5.8-3.66 12.11-12.77 12.11-12.77l-.57-15.57c-1.231-2.74-2.104-5.627-2.6-8.59-.47-4.12-1.57-10.79-1.57-10.79-7.88-.38-4.49-8.12-8.1-14.56-3.23-5.77-3.81-14-.42-15.71 2.08-1.08 4.67 1.69 4.67 1.69s-2.23-15.93-2.23-27.75 9.14-22 14.47-27.07c4.25-4 9.86-3.94 12.08-4.6s4.37-3.86 12.48-3.86c7.88.003 15.578 2.388 22.08 6.84 5.77 4 16.28 13.81 18.36 21.16 2 6.9 2.56 17.52-.85 35.21 1.215-.002 2.423.187 3.58.56 2.37.91 4.45 5.44 3.09 11s-3.14 6.8-4.83 14.93c-1 4.7-6.38 2.64-6.38 2.64s-1.22 8.88-1.38 11.23-2.38 7.51-3.79 10.33l-.17 13.1s5.64 14.48 19.9 18.44c22.9 6.35 56.83 20.61 61.37 53.3.866 7.57 2.175 15.083 3.92 22.5h18.38v-254.54h-263.61z" fill="#fff"/><path d="m185.92 503.17c-14.26-4-19.9-18.44-19.9-18.44l.17-13.1c1.41-2.82 3.63-8 3.79-10.33s1.38-11.23 1.38-11.23 5.4 2.06 6.38-2.64c1.69-8.13 3.47-9.31 4.83-14.93s-.72-10.14-3.09-11c-1.157-.373-2.365-.562-3.58-.56 3.41-17.69 2.81-28.31.85-35.21-2.08-7.35-12.59-17.18-18.36-21.16-6.502-4.452-14.2-6.837-22.08-6.84-8.11 0-10.25 3.2-12.48 3.86s-7.83.59-12.08 4.6c-5.33 5-14.47 15.25-14.47 27.07s2.25 27.69 2.25 27.69-2.59-2.77-4.67-1.69c-3.39 1.74-2.81 9.94.42 15.71 3.61 6.44.22 14.18 8.1 14.56 0 0 1.1 6.67 1.57 10.79.496 2.963 1.369 5.85 2.6 8.59l.54 15.59s-6.31 9.11-12.11 12.77c-3.76 2.39-49.06 22.68-53.34 26.09s-13.07 9.72-20.52 40.59l-4.15 15h233.26c-1.745-7.414-3.054-14.923-3.92-22.49-4.54-32.68-38.47-46.94-61.39-53.29z" fill="#9eb1db"/><path d="m65.71 609.28h144.21c1.646 0 3-1.354 3-3s-1.354-3-3-3h-144.21c-1.646 0-3 1.354-3 3s1.354 3 3 3z" fill="#1580f2"/><path d="m531.77 528.62c7.68-6.39 41.73-17.25 50.43-20 1.272-.396 2.258-1.415 2.61-2.7.66-2.42 1.76-6.49 2.48-9.52 1.1-4.59 4.85-5 4.85-5l-.1-9.42c-2.3-5.546-4.055-11.304-5.24-17.19s-3.52 1.75-5.64-.87c-1.41-1.76.2-3.3-2.69-8.66-6.4-15.16.63-17.92.63-17.92-1.31-5.9-1.57-14.29-1.33-22s9.13-20.67 16.29-26.71c7.92-6.68 18.66-6.22 24.38-6.21 8.74 0 23.82 3.37 31 16.59s6.64 28.28 5.38 36.46c0 0 6.14-.24 4.43 8.82s-3.36 7.74-3.71 10.66-1.71 9.35-7.24 9.34c-.235 4.743-1.028 9.442-2.36 14h104.98v-126.94h-263.65v263.6h23.08c.82-36.9 12.84-79.17 21.42-86.33z" fill="#fff"/><path d="m546.97 645.28c-1.646 0-3-1.354-3-3s1.354-3 3-3h89.85v-18.33h-149.55v42.63h149.55v-18.3z" fill="#fff"/><path d="m642.82 484.42v263.6h27.43c2.22-46.42 13.74-60.79 22-65.85 7.37-4.49 38.45-12.62 48.28-15.44 1.702-.478 3.182-1.541 4.18-3 5.85-8.93 3.52-14.75 3.52-14.75l-6-1.11c-2.516-.466-4.358-2.682-4.358-5.241 0-.359.036-.717.108-1.069.81-3.89 1.61-8.41-.88-14.14-2.6-6-13.4-17.54-14.86-29.47-2.32-27.32 7.69-42.61 18.94-51.76 12.42-10.11 27.67-6.48 27.67-6.48s20.26-8.2 35.68.57c17.17 9.75 30.68 29.89 25.43 70s-29.88 41.84-32.62 42.39c0 0 .18 11.62 3.61 13.79 6.84 4.35 44.94 10.9 50.35 13 13.64 5.19 25.78 20.83 27.7 68.66h27.37v-263.7z" fill="#fff"/><path d="m909.42 478.42h-152.5v-82.81h108.26c1.646 0 3-1.354 3-3v-269.6c0-1.646-1.354-3-3-3h-269.66c-1.646 0-3 1.354-3 3v222.34h-108.25c-1.646 0-3 1.354-3 3v318.24c0 1.646 1.354 3 3 3h152.55v130.07c0 1.646 1.354 3 3 3h269.6c1.646 0 3-1.354 3-3v-318.24c0-1.646-1.354-3-3-3zm-310.9-352.41h263.61v263.6h-19.21c-.17-10.85-1.23-48.22-7.91-62.47-5.29-11.28-41.18-28.94-41.18-28.94.3-1.79-.24-13.54-3.28-22.38-4.41-12.81.11-25.07 1-33.72s5-42.44-16.5-68.94c-23.66-29.12-50.71-13.7-50.71-13.7-7.482-1.523-15.255.692-20.81 5.93-10.62 9.78-28.15 36-22.37 95.88 2.91 21.05-4.09 32.39-10.36 35.28s-29.57 5-36.45 23.66c-2.19 5.94-4.1 15.2-5.7 25.14h-30.13zm-111.25 225.34h263.65v127.07h-105c1.332-4.558 2.125-9.257 2.36-14 5.53 0 6.89-6.42 7.24-9.34s2-1.61 3.71-10.66-4.43-8.82-4.43-8.82c1.26-8.18 1.75-23.23-5.38-36.46s-22.22-16.57-31-16.59c-5.72 0-16.46-.47-24.38 6.21-7.16 6-16.06 19-16.29 26.71s0 16.06 1.33 22c0 0-7 2.76-.63 17.92 2.89 5.36 1.28 6.9 2.69 8.66 2.12 2.62 5.64.87 5.64.87 1.185 5.886 2.94 11.644 5.24 17.19l.1 9.42s-3.75.37-4.85 5c-.72 3-1.82 7.1-2.48 9.52-.352 1.285-1.338 2.304-2.61 2.7-8.7 2.71-42.75 13.57-50.43 20-8.58 7.16-20.6 49.43-21.42 86.34h-23.06zm0 312.24v-42.64h149.55v18.32h-89.85c-1.646 0-3 1.354-3 3s1.354 3 3 3h89.85v18.31zm419.15 133.07h-263.6v-42.64h263.6zm-27.37-48.64c-1.92-47.83-14.06-63.47-27.7-68.66-5.41-2.06-43.51-8.61-50.35-13-3.43-2.17-3.61-13.79-3.61-13.79 2.74-.55 27.37-2.28 32.62-42.39s-8.26-60.24-25.43-70c-15.42-8.77-35.68-.57-35.68-.57s-15.25-3.63-27.67 6.48c-11.25 9.15-21.26 24.44-18.94 51.76 1.46 11.93 12.26 23.51 14.86 29.47 2.49 5.73 1.69 10.25.88 14.14-.072.352-.108.71-.108 1.069 0 2.559 1.842 4.775 4.358 5.241l6 1.11s2.33 5.82-3.52 14.75c-.998 1.459-2.478 2.522-4.18 3-9.83 2.82-40.91 11-48.28 15.44-8.29 5.06-19.81 19.43-22 65.85h-27.48v-263.5h263.6v263.6z" fill="#1580f2"/><path d="m642.82 796.66h263.6v-42.64h-263.6zm59.71-24.32h144.19c1.646 0 3 1.354 3 3s-1.354 3-3 3h-144.19c-1.646 0-3-1.354-3-3s1.354-3 3-3z" fill="#fff"/><path d="m702.53 778.34h144.19c1.646 0 3-1.354 3-3s-1.354-3-3-3h-144.19c-1.646 0-3 1.354-3 3s1.354 3 3 3z" fill="#1580f2"/></g></svg>