<?xml version="1.0" encoding="UTF-8" standalone="no"?><!DOCTYPE svg PUBLIC "-//W3C//DTD SVG 1.1//EN" "http://www.w3.org/Graphics/SVG/1.1/DTD/svg11.dtd"><svg width="100%" height="100%" viewBox="0 0 1396 803" version="1.1" xmlns="http://www.w3.org/2000/svg" xmlns:xlink="http://www.w3.org/1999/xlink" xml:space="preserve" xmlns:serif="http://www.serif.com/" style="fill-rule:evenodd;clip-rule:evenodd;stroke-linejoin:round;stroke-miterlimit:1.41421;"><path d="M6,627.6l263.61,0l0,-42.65l-263.61,0l0,42.65Zm59.71,-24.32l144.21,0c1.646,0 3,1.354 3,3c0,1.646 -1.354,3 -3,3l-144.21,0c-1.646,0 -3,-1.354 -3,-3c0,-1.646 1.354,-3 3,-3Z" style="fill:#fff;fill-rule:nonzero;"/><path d="M634.37,320.21c6.88,-18.65 30.17,-20.76 36.45,-23.66c6.28,-2.9 13.27,-14.23 10.36,-35.28c-5.78,-59.87 11.75,-86.1 22.37,-95.88c5.555,-5.238 13.328,-7.453 20.81,-5.93c7.482,1.523 27,-15.42 50.71,13.7c21.54,26.5 17.4,60.28 16.5,68.94c-0.9,8.66 -5.42,20.91 -1,33.72c3,8.84 3.58,20.59 3.28,22.38c0,0 35.89,17.66 41.18,28.94c6.68,14.25 7.74,51.62 7.91,62.47l19.2,0l0,-263.6l-263.62,0l0,219.34l30.15,0c1.6,-9.94 3.51,-19.2 5.7,-25.14Z" style="fill:#fff;fill-rule:nonzero;"/><path d="M1260.26,419.21l0,21.6c0,1.646 -1.354,3 -3,3l-131.8,0l0,239l20.08,0c0.75,-46.15 11.93,-46.11 41.67,-65c15.39,-9.76 39.86,-19.15 39.86,-19.15l-0.4,-28.29c-5,-7.65 -6.6,-17.38 -6.6,-17.38c-6.34,-0.2 -5.47,-9.09 -7.2,-12.86c-1.73,-3.77 -6.29,-11.53 -5.66,-15.31c0.63,-3.78 6.11,-2.55 6.11,-2.55c0,0 -0.64,-1.91 -3.17,-30.68c-2.72,-30.88 10.32,-31 10.32,-31c6.68,-14.88 24.16,-15.77 32.77,-13.65c13.38,3.3 24.68,5.59 33,10.19c8.32,4.6 17.57,20 17,37c-0.57,17 -1.73,28.17 -1.73,28.17c2.318,-0.458 4.632,0.936 5.31,3.2c1.31,3.71 0.67,10.58 -3,15.44c-2.13,2.78 -1.77,12.79 -10.55,13.53c0,0 -0.35,10.59 -2.61,17l0.27,28.83c0,0 26.3,9.23 38.64,14.65c38.06,16.7 42.15,31.47 45.77,67.84l13.74,0l0,-263.58l-128.82,0Z" style="fill:#fff;fill-rule:nonzero;"/><path d="M275.61,408.16l69.48,0c1.646,0 3,1.354 3,3c0,1.646 -1.354,3 -3,3l-69.48,0l0,18.32l129.19,0l0,-42.64l-129.19,0l0,18.32Z" style="fill:#fff;fill-rule:nonzero;"/><path d="M141.19,129.29l0,189.12l48.73,0c11,-10.49 36.44,-14.75 36.44,-14.75c0,0 5.2,-22.83 5.78,-28.61c0.58,-5.78 -9.54,-4.92 -12.43,-20.52c-5.78,-41.34 12.1,-68.26 18.47,-74.34c5.49,-5.24 15.92,-7.17 15.92,-7.17c0,0 7.84,-6.1 14.75,-6.94c12.44,-1.51 28.48,3.11 39.64,12.09c13.31,10.71 23.57,18 17,73.75c-3.41,28.92 16.47,50.87 16.47,50.87c0,0 24.96,13.71 30.42,26.16c6.76,15.4 8.49,34.21 8.52,54.94l23.9,0l0,-254.6l-263.61,0Z" style="fill:#fff;fill-rule:nonzero;"/><path d="M342.01,302.79c0,0 -19.88,-21.95 -16.47,-50.84c6.56,-55.7 -3.7,-63 -17,-73.75c-11.16,-9 -27.2,-13.6 -39.64,-12.09c-6.91,0.84 -14.75,6.94 -14.75,6.94c0,0 -10.43,1.93 -15.92,7.17c-6.37,6.08 -24.25,33 -18.47,74.34c2.89,15.6 13,14.74 12.43,20.52c-0.57,5.78 -5.78,28.61 -5.78,28.61c0,0 -25.42,4.26 -36.49,14.72l82.65,0c1.646,0 3,1.354 3,3l0,62.43l105.35,0c0,-20.73 -1.76,-39.54 -8.52,-54.94c-5.48,-12.4 -30.39,-26.11 -30.39,-26.11Z" style="fill:#9eb1db;fill-rule:nonzero;"/><path d="M407.8,123.29l-269.61,0c-1.646,0 -3,1.354 -3,3l0,192.12l-132.19,0c-1.646,0 -3,1.354 -3,3l0,309.19c0,1.646 1.354,3 3,3l269.61,0c1.646,0 3,-1.354 3,-3l0,-192.12l132.19,0c1.646,0 3,-1.354 3,-3l0,-309.19c0,-1.646 -1.354,-3 -3,-3Zm-138.19,504.31l-263.61,0l0,-42.65l263.61,0l0,42.65Zm-18.38,-48.65l-245.23,0l0,-254.54l263.61,0l0,254.54l-18.38,0Zm153.57,-146.47l-129.19,0l0,-18.32l69.48,0c1.646,0 3,-1.354 3,-3c0,-1.646 -1.354,-3 -3,-3l-69.48,0l0,-18.32l129.19,0l0,42.64Zm-23.88,-48.64l-105.31,0l0,-62.43c0,-1.646 -1.354,-3 -3,-3l-131.42,0l0,-189.12l263.61,0l0,254.55l-23.88,0Z" style="fill:#1580f2;fill-rule:nonzero;"/><path d="M1329.55,614.95c-12.34,-5.42 -38.64,-14.65 -38.64,-14.65l-0.27,-28.83c2.26,-6.42 2.61,-17 2.61,-17c8.78,-0.74 8.42,-10.75 10.55,-13.53c3.71,-4.86 4.35,-11.73 3,-15.44c-0.678,-2.264 -2.992,-3.658 -5.31,-3.2c-2.318,0.458 1.15,-11.21 1.73,-28.17c0.58,-16.96 -8.67,-32.35 -17,-37c-8.33,-4.65 -19.64,-6.89 -33,-10.19c-8.61,-2.12 -26.09,-1.23 -32.77,13.65c0,0 -13,0.09 -10.32,31c2.53,28.77 3.17,30.68 3.17,30.68c0,0 -5.48,-1.23 -6.11,2.55c-0.63,3.78 3.93,11.53 5.66,15.31c1.73,3.78 0.86,12.66 7.2,12.86c0,0 1.61,9.73 6.6,17.38l0.4,28.29c0,0 -24.47,9.39 -39.86,19.15c-29.74,18.86 -40.92,18.82 -41.67,65l229.8,0c-3.62,-36.36 -7.71,-51.13 -45.77,-67.86Z" style="fill:#f37a78;fill-rule:nonzero;"/><path d="M1392.06,413.21l-131.8,0l0,-290.64c0,-1.646 -1.354,-3 -3,-3l-269.6,0c-1.646,0 -3,1.354 -3,3l0,318.24c0,1.646 1.354,3 3,3l131.8,0l0,290.64c0,1.646 1.354,3 3,3l269.6,0c1.646,0 3,-1.354 3,-3l0,-318.24c0,-1.646 -1.354,-3 -3,-3Zm-401.4,-287.64l263.6,0l0,263.6l-263.6,0l0,-263.6Zm0,312.24l0,-42.64l263.6,0l0,42.64l-263.6,0Zm398.4,293.64l-263.6,0l0,-42.63l263.6,0l0,42.63Zm-13.74,-48.63l-249.86,0l0,-239l131.8,0c1.646,0 3,-1.354 3,-3l0,-21.6l128.8,0l0,263.6l-13.74,0Z" style="fill:#1580f2;fill-rule:nonzero;"/><path d="M1125.46,731.45l263.6,0l0,-42.63l-263.6,0l0,42.63Zm63,-23.11l144.16,0c1.646,0 3,1.354 3,3c0,1.646 -1.354,3 -3,3l-144.19,0c-1.646,0 -3,-1.354 -3,-3c0,-1.646 1.354,-3 3,-3l0.03,0Z" style="fill:#fff;fill-rule:nonzero;"/><path d="M1188.43,714.34l144.19,0c1.646,0 3,-1.354 3,-3c0,-1.646 -1.354,-3 -3,-3l-144.19,0c-1.646,0 -3,1.354 -3,3c0,1.646 1.354,3 3,3Z" style="fill:#1580f2;fill-rule:nonzero;"/><path d="M42.71,77.67c-10.297,0.01 -20.185,-4.084 -27.46,-11.37l12,12c0.5,0.533 1.02,1.053 1.56,1.56c7.206,6.807 16.752,10.602 26.665,10.602c21.303,0 38.832,-17.529 38.832,-38.832c0,-10.678 -4.404,-20.898 -12.167,-28.23l-11.22,-11.24c6.818,7.206 10.621,16.759 10.621,26.68c0,21.296 -17.524,38.82 -38.82,38.82c-0.007,0 -0.014,0 -0.021,0l0.01,0.01Z" style="fill:#2a1210;fill-rule:nonzero;"/><path d="M42.71,77.67c21.292,-0.006 38.81,-17.528 38.81,-38.82c0,-21.296 -17.524,-38.82 -38.82,-38.82c-21.296,0 -38.82,17.524 -38.82,38.82c0,10.292 4.093,20.173 11.37,27.45c7.281,7.278 17.165,11.371 27.46,11.37Z" style="fill:#9eb1db;fill-rule:nonzero;"/><path d="M131.16,40.71l63.21,0c1.646,0 3,-1.354 3,-3c0,-1.646 -1.354,-3 -3,-3l-63.21,0c-1.646,0 -3,1.354 -3,3c0,1.646 1.354,3 3,3Z" style="fill:#1580f2;fill-rule:nonzero;"/><path d="M131.16,67.85l142.32,0c1.646,0 3,-1.354 3,-3c0,-1.646 -1.354,-3 -3,-3l-142.32,0c-1.646,0 -3,1.354 -3,3c0,1.646 1.354,3 3,3Z" style="fill:#1580f2;fill-rule:nonzero;"/><path d="M652.57,90.41l0,-4.25l0,-73.43l-12.73,-12.73l0,77.67l-77.67,0l12.73,12.74l77.67,0Z" style="fill:#2a1210;fill-rule:nonzero;"/><rect x="562.17" y="0" width="77.67" height="77.67" style="fill:#1580f2;"/><path d="M690.45,41.84l142.32,0c1.646,0 3,-1.354 3,-3c0,-1.646 -1.354,-3 -3,-3l-142.32,0c-1.646,0 -3,1.354 -3,3c0,1.646 1.354,3 3,3Z" style="fill:#1580f2;fill-rule:nonzero;"/><path d="M690.45,68.95l82,0c1.646,0 3,-1.354 3,-3c0,-1.646 -1.354,-3 -3,-3l-82,0c-1.646,0 -3,1.354 -3,3c0,1.646 1.354,3 3,3Z" style="fill:#1580f2;fill-rule:nonzero;"/><path d="M1216.11,90.41l-38.84,-77.68l-16.97,-12.73l38.83,77.67l-77.67,0l12.73,12.74l81.92,0Z" style="fill:#2a1210;fill-rule:nonzero;"/><path d="M1160.3,0l-38.84,77.67l77.67,0l-38.83,-77.67Z" style="fill:#f37a78;fill-rule:nonzero;"/><path d="M1248.31,34.63l92.2,0c1.646,0 3,-1.354 3,-3c0,-1.646 -1.354,-3 -3,-3l-92.2,0c-1.646,0 -3,1.354 -3,3c0,1.646 1.354,3 3,3Z" style="fill:#1580f2;fill-rule:nonzero;"/><path d="M1248.31,61.77l142.75,0c1.646,0 3,-1.354 3,-3c0,-1.646 -1.354,-3 -3,-3l-142.75,0c-1.646,0 -3,1.354 -3,3c0,1.646 1.354,3 3,3Z" style="fill:#1580f2;fill-rule:nonzero;"/><path d="M1036.92,316.76c11.29,-11.16 33.87,-17.19 35.41,-19.25c0.85,-1.14 -1.8,-21.78 6.34,-46.18c8.67,-26 -1.08,-38.12 3.41,-53.88c6.53,-23 24.81,-27.27 33.79,-31.38c8.98,-4.11 15.57,2.77 15.57,2.77c0,0 7.35,-3.89 12.1,-0.65c4.75,3.24 24.38,12.49 22.8,50.79c-2,48.27 9.32,77.15 11.64,80.64c2.32,3.49 23.29,8.74 28.53,18.63c5,9.37 9.92,52.05 10.44,70.92l37.31,0l0,-263.6l-263.6,0l0,263.6l29.58,0c1.68,-17.49 8.68,-64.47 16.68,-72.41Z" style="fill:#fff;fill-rule:nonzero;"/><path d="M1177.98,299.62c-2.32,-3.49 -13.63,-32.37 -11.64,-80.64c1.58,-38.3 -18,-47.55 -22.8,-50.79c-4.8,-3.24 -12.1,0.65 -12.1,0.65c0,0 -6.59,-6.87 -15.57,-2.77c-8.98,4.1 -27.26,8.42 -33.79,31.38c-4.49,15.76 5.26,27.88 -3.41,53.88c-8.14,24.4 -5.49,45 -6.34,46.18c-1.54,2.06 -24.12,8.09 -35.41,19.25c-8,7.94 -15,54.92 -16.68,72.41l196.68,0c-0.52,-18.87 -5.48,-61.55 -10.44,-70.92c-5.21,-9.89 -26.17,-15.13 -28.5,-18.63Z" style="fill:#f37a78;fill-rule:nonzero;"/><path d="M1254.26,395.17l-263.6,0l0,42.64l263.6,0l0,-42.64Zm-59.71,24.32l-144.19,0c-1.646,0 -3,-1.354 -3,-3c0,-1.646 1.354,-3 3,-3l144.19,0c1.646,0 3,1.354 3,3c0,1.646 -1.354,3 -3,3Z" style="fill:#fff;fill-rule:nonzero;"/><path d="M1194.55,413.49l-144.19,0c-1.646,0 -3,1.354 -3,3c0,1.646 1.354,3 3,3l144.19,0c1.646,0 3,-1.354 3,-3c0,-1.646 -1.354,-3 -3,-3Z" style="fill:#1580f2;fill-rule:nonzero;"/><path d="M6,324.41l0,254.54l12,0l4.15,-15c7.45,-30.86 16.26,-37.12 20.52,-40.58c4.26,-3.46 49.58,-23.7 53.34,-26.08c5.8,-3.66 12.11,-12.77 12.11,-12.77l-0.57,-15.57c-1.231,-2.74 -2.104,-5.627 -2.6,-8.59c-0.47,-4.12 -1.57,-10.79 -1.57,-10.79c-7.88,-0.38 -4.49,-8.12 -8.1,-14.56c-3.23,-5.77 -3.81,-14 -0.42,-15.71c2.08,-1.08 4.67,1.69 4.67,1.69c0,0 -2.23,-15.93 -2.23,-27.75c0,-11.82 9.14,-22 14.47,-27.07c4.25,-4 9.86,-3.94 12.08,-4.6c2.22,-0.66 4.37,-3.86 12.48,-3.86c7.88,0.003 15.578,2.388 22.08,6.84c5.77,4 16.28,13.81 18.36,21.16c2,6.9 2.56,17.52 -0.85,35.21c1.215,-0.002 2.423,0.187 3.58,0.56c2.37,0.91 4.45,5.44 3.09,11c-1.36,5.56 -3.14,6.8 -4.83,14.93c-1,4.7 -6.38,2.64 -6.38,2.64c0,0 -1.22,8.88 -1.38,11.23c-0.16,2.35 -2.38,7.51 -3.79,10.33l-0.17,13.1c0,0 5.64,14.48 19.9,18.44c22.9,6.35 56.83,20.61 61.37,53.3c0.866,7.57 2.175,15.083 3.92,22.5l18.38,0l0,-254.54l-263.61,0Z" style="fill:#fff;fill-rule:nonzero;"/><path d="M185.92,503.17c-14.26,-4 -19.9,-18.44 -19.9,-18.44l0.17,-13.1c1.41,-2.82 3.63,-8 3.79,-10.33c0.16,-2.33 1.38,-11.23 1.38,-11.23c0,0 5.4,2.06 6.38,-2.64c1.69,-8.13 3.47,-9.31 4.83,-14.93c1.36,-5.62 -0.72,-10.14 -3.09,-11c-1.157,-0.373 -2.365,-0.562 -3.58,-0.56c3.41,-17.69 2.81,-28.31 0.85,-35.21c-2.08,-7.35 -12.59,-17.18 -18.36,-21.16c-6.502,-4.452 -14.2,-6.837 -22.08,-6.84c-8.11,0 -10.25,3.2 -12.48,3.86c-2.23,0.66 -7.83,0.59 -12.08,4.6c-5.33,5 -14.47,15.25 -14.47,27.07c0,11.82 2.25,27.69 2.25,27.69c0,0 -2.59,-2.77 -4.67,-1.69c-3.39,1.74 -2.81,9.94 0.42,15.71c3.61,6.44 0.22,14.18 8.1,14.56c0,0 1.1,6.67 1.57,10.79c0.496,2.963 1.369,5.85 2.6,8.59l0.54,15.59c0,0 -6.31,9.11 -12.11,12.77c-3.76,2.39 -49.06,22.68 -53.34,26.09c-4.28,3.41 -13.07,9.72 -20.52,40.59l-4.15,15l233.26,0c-1.745,-7.414 -3.054,-14.923 -3.92,-22.49c-4.54,-32.68 -38.47,-46.94 -61.39,-53.29Z" style="fill:#9eb1db;fill-rule:nonzero;"/><path d="M65.71,609.28l144.21,0c1.646,0 3,-1.354 3,-3c0,-1.646 -1.354,-3 -3,-3l-144.21,0c-1.646,0 -3,1.354 -3,3c0,1.646 1.354,3 3,3Z" style="fill:#1580f2;fill-rule:nonzero;"/><path d="M531.77,528.62c7.68,-6.39 41.73,-17.25 50.43,-20c1.272,-0.396 2.258,-1.415 2.61,-2.7c0.66,-2.42 1.76,-6.49 2.48,-9.52c1.1,-4.59 4.85,-5 4.85,-5l-0.1,-9.42c-2.3,-5.546 -4.055,-11.304 -5.24,-17.19c-1.185,-5.886 -3.52,1.75 -5.64,-0.87c-1.41,-1.76 0.2,-3.3 -2.69,-8.66c-6.4,-15.16 0.63,-17.92 0.63,-17.92c-1.31,-5.9 -1.57,-14.29 -1.33,-22c0.24,-7.71 9.13,-20.67 16.29,-26.71c7.92,-6.68 18.66,-6.22 24.38,-6.21c8.74,0 23.82,3.37 31,16.59c7.18,13.22 6.64,28.28 5.38,36.46c0,0 6.14,-0.24 4.43,8.82c-1.71,9.06 -3.36,7.74 -3.71,10.66c-0.35,2.92 -1.71,9.35 -7.24,9.34c-0.235,4.743 -1.028,9.442 -2.36,14l104.98,0l0,-126.94l-263.65,0l0,263.6l23.08,0c0.82,-36.9 12.84,-79.17 21.42,-86.33Z" style="fill:#fff;fill-rule:nonzero;"/><path d="M546.97,645.28c-1.646,0 -3,-1.354 -3,-3c0,-1.646 1.354,-3 3,-3l89.85,0l0,-18.33l-149.55,0l0,42.63l149.55,0l0,-18.3l-89.85,0Z" style="fill:#fff;fill-rule:nonzero;"/><path d="M642.82,484.42l0,263.6l27.43,0c2.22,-46.42 13.74,-60.79 22,-65.85c7.37,-4.49 38.45,-12.62 48.28,-15.44c1.702,-0.478 3.182,-1.541 4.18,-3c5.85,-8.93 3.52,-14.75 3.52,-14.75l-6,-1.11c-2.516,-0.466 -4.358,-2.682 -4.358,-5.241c0,-0.359 0.036,-0.717 0.108,-1.069c0.81,-3.89 1.61,-8.41 -0.88,-14.14c-2.6,-6 -13.4,-17.54 -14.86,-29.47c-2.32,-27.32 7.69,-42.61 18.94,-51.76c12.42,-10.11 27.67,-6.48 27.67,-6.48c0,0 20.26,-8.2 35.68,0.57c17.17,9.75 30.68,29.89 25.43,70c-5.25,40.11 -29.88,41.84 -32.62,42.39c0,0 0.18,11.62 3.61,13.79c6.84,4.35 44.94,10.9 50.35,13c13.64,5.19 25.78,20.83 27.7,68.66l27.37,0l0,-263.7l-263.55,0Z" style="fill:#fff;fill-rule:nonzero;"/><path d="M909.42,478.42l-152.5,0l0,-82.81l108.26,0c1.646,0 3,-1.354 3,-3l0,-269.6c0,-1.646 -1.354,-3 -3,-3l-269.66,0c-1.646,0 -3,1.354 -3,3l0,222.34l-108.25,0c-1.646,0 -3,1.354 -3,3l0,318.24c0,1.646 1.354,3 3,3l152.55,0l0,130.07c0,1.646 1.354,3 3,3l269.6,0c1.646,0 3,-1.354 3,-3l0,-318.24c0,-1.646 -1.354,-3 -3,-3Zm-310.9,-352.41l263.61,0l0,263.6l-19.21,0c-0.17,-10.85 -1.23,-48.22 -7.91,-62.47c-5.29,-11.28 -41.18,-28.94 -41.18,-28.94c0.3,-1.79 -0.24,-13.54 -3.28,-22.38c-4.41,-12.81 0.11,-25.07 1,-33.72c0.89,-8.65 5,-42.44 -16.5,-68.94c-23.66,-29.12 -50.71,-13.7 -50.71,-13.7c-7.482,-1.523 -15.255,0.692 -20.81,5.93c-10.62,9.78 -28.15,36 -22.37,95.88c2.91,21.05 -4.09,32.39 -10.36,35.28c-6.27,2.89 -29.57,5 -36.45,23.66c-2.19,5.94 -4.1,15.2 -5.7,25.14l-30.13,0l0,-219.34Zm-111.25,225.34l263.65,0l0,127.07l-105,0c1.332,-4.558 2.125,-9.257 2.36,-14c5.53,0 6.89,-6.42 7.24,-9.34c0.35,-2.92 2,-1.61 3.71,-10.66c1.71,-9.05 -4.43,-8.82 -4.43,-8.82c1.26,-8.18 1.75,-23.23 -5.38,-36.46c-7.13,-13.23 -22.22,-16.57 -31,-16.59c-5.72,0 -16.46,-0.47 -24.38,6.21c-7.16,6 -16.06,19 -16.29,26.71c-0.23,7.71 0,16.06 1.33,22c0,0 -7,2.76 -0.63,17.92c2.89,5.36 1.28,6.9 2.69,8.66c2.12,2.62 5.64,0.87 5.64,0.87c1.185,5.886 2.94,11.644 5.24,17.19l0.1,9.42c0,0 -3.75,0.37 -4.85,5c-0.72,3 -1.82,7.1 -2.48,9.52c-0.352,1.285 -1.338,2.304 -2.61,2.7c-8.7,2.71 -42.75,13.57 -50.43,20c-8.58,7.16 -20.6,49.43 -21.42,86.34l-23.06,0l0,-263.74Zm0,312.24l0,-42.64l149.55,0l0,18.32l-89.85,0c-1.646,0 -3,1.354 -3,3c0,1.646 1.354,3 3,3l89.85,0l0,18.31l-149.55,0.01Zm419.15,133.07l-263.6,0l0,-42.64l263.6,0l0,42.64Zm-27.37,-48.64c-1.92,-47.83 -14.06,-63.47 -27.7,-68.66c-5.41,-2.06 -43.51,-8.61 -50.35,-13c-3.43,-2.17 -3.61,-13.79 -3.61,-13.79c2.74,-0.55 27.37,-2.28 32.62,-42.39c5.25,-40.11 -8.26,-60.24 -25.43,-70c-15.42,-8.77 -35.68,-0.57 -35.68,-0.57c0,0 -15.25,-3.63 -27.67,6.48c-11.25,9.15 -21.26,24.44 -18.94,51.76c1.46,11.93 12.26,23.51 14.86,29.47c2.49,5.73 1.69,10.25 0.88,14.14c-0.072,0.352 -0.108,0.71 -0.108,1.069c0,2.559 1.842,4.775 4.358,5.241l6,1.11c0,0 2.33,5.82 -3.52,14.75c-0.998,1.459 -2.478,2.522 -4.18,3c-9.83,2.82 -40.91,11 -48.28,15.44c-8.29,5.06 -19.81,19.43 -22,65.85l-27.48,0l0,-263.5l263.6,0l0,263.6l-27.37,0Z" style="fill:#1580f2;fill-rule:nonzero;"/><path d="M642.82,796.66l263.6,0l0,-42.64l-263.6,0l0,42.64Zm59.71,-24.32l144.19,0c1.646,0 3,1.354 3,3c0,1.646 -1.354,3 -3,3l-144.19,0c-1.646,0 -3,-1.354 -3,-3c0,-1.646 1.354,-3 3,-3Z" style="fill:#fff;fill-rule:nonzero;"/><path d="M702.53,778.34l144.19,0c1.646,0 3,-1.354 3,-3c0,-1.646 -1.354,-3 -3,-3l-144.19,0c-1.646,0 -3,1.354 -3,3c0,1.646 1.354,3 3,3Z" style="fill:#1580f2;fill-rule:nonzero;"/></svg>