<?xml version="1.0" encoding="UTF-8" standalone="no"?><!DOCTYPE svg PUBLIC "-//W3C//DTD SVG 1.1//EN" "http://www.w3.org/Graphics/SVG/1.1/DTD/svg11.dtd"><svg width="100%" height="100%" viewBox="0 0 1372 798" version="1.1" xmlns="http://www.w3.org/2000/svg" xmlns:xlink="http://www.w3.org/1999/xlink" xml:space="preserve" xmlns:serif="http://www.serif.com/" style="fill-rule:evenodd;clip-rule:evenodd;stroke-linejoin:round;stroke-miterlimit:1.41421;"><path d="M565.32,471.32c-0.08,-0.23 -0.15,-0.46 -0.23,-0.68c0.08,0.22 0.15,0.45 0.23,0.68Z" style="fill:#fff;fill-rule:nonzero;"/><path d="M555.75,518c-0.58,0.64 -1.16,1.26 -1.77,1.87c0.61,-0.61 1.19,-1.23 1.77,-1.87Z" style="fill:#fff;fill-rule:nonzero;"/><path d="M566.6,475.86c-0.07,-0.31 -0.13,-0.62 -0.21,-0.92c0.04,0.3 0.14,0.61 0.21,0.92Z" style="fill:#fff;fill-rule:nonzero;"/><path d="M6,750.85l5.32,0c2.61,-14.15 6.89,-26.18 10.27,-29c4.51,-3.76 24.57,-10.16 29.69,-11.76c0.747,-0.231 1.328,-0.827 1.54,-1.58c0.39,-1.43 1,-3.83 1.46,-5.61c0.221,-1.49 1.37,-2.683 2.85,-2.96l-0.05,-5.55c-1.356,-3.265 -2.391,-6.654 -3.09,-10.12c-0.699,-3.466 -2.07,1 -3.32,-0.51c-0.83,-1 0.12,-2 -1.58,-5.1c-3.77,-8.93 0.37,-10.56 0.37,-10.56c-0.749,-4.266 -1.014,-8.604 -0.79,-12.93c0.14,-4.52 5.38,-12.17 9.6,-15.73c4.66,-3.93 11,-3.67 14.35,-3.66c5.15,0 14,2 18.23,9.77c4.23,7.77 3.92,16.65 3.18,21.48c0,0 3.61,-0.15 2.6,5.19c-1.01,5.34 -2,4.56 -2.18,6.28c-0.18,1.72 -1,5.51 -4.26,5.5c-0.142,2.91 -0.643,5.792 -1.49,8.58l0,6.81c0,0 2.62,0.53 3.29,2.42c0.67,1.89 1.49,6.81 2.9,8.09c1.41,1.28 21.59,7.58 27.44,9.92c3.71,1.49 8.84,16 12.06,31l6,0l0,-129.64l-134.39,0l0,129.67Z" style="fill:#fff;fill-rule:nonzero;"/><path d="M566.01,473.56c-0.07,-0.27 -0.14,-0.53 -0.22,-0.8c0.08,0.27 0.15,0.53 0.22,0.8Z" style="fill:#fff;fill-rule:nonzero;"/><path d="M567.08,478.22c-0.06,-0.35 -0.11,-0.71 -0.19,-1.06c0.07,0.35 0.13,0.71 0.19,1.06Z" style="fill:#fff;fill-rule:nonzero;"/><path d="M567.43,480.66c0,-0.41 -0.1,-0.82 -0.16,-1.23c0.08,0.41 0.16,0.82 0.16,1.23Z" style="fill:#fff;fill-rule:nonzero;"/><path d="M562.62,464.94l-0.18,-0.37l0.18,0.37Z" style="fill:#fff;fill-rule:nonzero;"/><path d="M561.54,462.94c-0.06,-0.09 -0.11,-0.18 -0.16,-0.27c0.05,0.1 0.1,0.19 0.16,0.27Z" style="fill:#fff;fill-rule:nonzero;"/><path d="M567.76,484.09c0,0.79 0.06,1.58 0.06,2.38c0.013,10.351 -3.395,20.423 -9.69,28.64c6.295,-8.217 9.703,-18.289 9.69,-28.64c0,-0.8 -0.02,-1.59 -0.06,-2.38Z" style="fill:#fff;fill-rule:nonzero;"/><path d="M560.37,461.03l-0.13,-0.2l0.13,0.2Z" style="fill:#fff;fill-rule:nonzero;"/><path d="M563.62,467.01l-0.21,-0.46l0.21,0.46Z" style="fill:#fff;fill-rule:nonzero;"/><path d="M559.12,459.17c-0.036,-0.041 -0.07,-0.084 -0.1,-0.13c0.03,0.046 0.064,0.089 0.1,0.13Z" style="fill:#fff;fill-rule:nonzero;"/><path d="M557.79,457.39l-0.07,-0.08l0.07,0.08Z" style="fill:#fff;fill-rule:nonzero;"/><path d="M564.05,256.99c3.54,-2.95 19.23,-8 23.24,-9.2c0.587,-0.184 1.04,-0.656 1.2,-1.25c0.31,-1.11 0.82,-3 1.15,-4.38c0.18,-1.157 1.078,-2.079 2.23,-2.29l0,-4.34c-1.059,-2.556 -1.869,-5.208 -2.42,-7.92c-0.857,0.448 -1.913,0.281 -2.59,-0.41c-0.66,-0.8 0.08,-1.52 -1.25,-4c-2.94,-7 0.3,-8.26 0.3,-8.26c-0.591,-3.339 -0.799,-6.734 -0.62,-10.12c0.11,-3.53 4.21,-9.52 7.51,-12.31c3.65,-3.07 8.6,-2.87 11.24,-2.86c4,0 11,1.55 14.26,7.65c3.26,6.1 3.07,13 2.49,16.8c0,0 2.83,-0.11 2,4.06c-0.83,4.17 -1.54,3.57 -1.7,4.92c-0.16,1.35 -0.79,4.31 -3.34,4.3c-0.112,2.28 -0.505,4.537 -1.17,6.72l0,5.33c0,0 2.06,0.41 2.58,1.89c0.52,1.48 1.16,5.33 2.27,6.34c1.11,1.01 16.9,5.93 21.48,7.76c2.84,1.14 6.76,12.07 9.3,23.6l4.22,0l0,-100.17l-103.92,0l0,100.18l3.63,0c2.06,-10.79 5.29,-19.88 7.91,-22.04Z" style="fill:#fff;fill-rule:nonzero;"/><path d="M1231.43,752.17l11.55,0c1.26,-24.26 7.33,-31.83 11.72,-34.51c3.93,-2.4 20.51,-6.73 25.75,-8.24c0.914,-0.254 1.706,-0.829 2.23,-1.62c3.12,-4.77 1.88,-7.87 1.88,-7.87l-3.19,-0.59c-1.339,-0.25 -2.319,-1.43 -2.319,-2.792c0,-0.194 0.019,-0.388 0.059,-0.578c0.694,-2.495 0.525,-5.153 -0.48,-7.54c-1.38,-3.18 -7.14,-9.36 -7.92,-15.72c-1.24,-14.58 4.1,-22.73 10.1,-27.62c6.63,-5.39 14.76,-3.45 14.76,-3.45c0,0 10.81,-4.37 19,0.3c9.15,5.21 16.36,16 13.56,37.34c-2.8,21.34 -15.94,22.32 -17.4,22.61c0,0 0.1,6.2 1.92,7.36c3.66,2.32 24,5.81 26.87,6.91c7.21,2.75 13.65,11 14.75,36l11.51,0l0,-129.67l-134.35,0l0,129.68Z" style="fill:#fff;fill-rule:nonzero;"/><path d="M736.04,252.68c3.08,-1.88 16,-5.27 20.16,-6.45c0.711,-0.205 1.328,-0.655 1.74,-1.27c2.44,-3.73 1.47,-6.16 1.47,-6.16l-2.49,-0.46c-1.053,-0.194 -1.825,-1.122 -1.825,-2.193c0,-0.15 0.015,-0.3 0.045,-0.447c0.551,-1.951 0.42,-4.033 -0.37,-5.9c-1.08,-2.49 -5.59,-7.32 -6.2,-12.3c-1,-11.41 3.21,-17.79 7.91,-21.61c3.283,-2.514 7.492,-3.501 11.55,-2.71c4.058,0.791 8.46,-3.42 14.9,0.24c7.16,4.07 12.8,12.48 10.61,29.22c-2.19,16.74 -12.47,17.47 -13.62,17.7c0,0 0.08,4.85 1.51,5.75c2.86,1.82 18.76,4.55 21,5.41c5.59,2.13 10.57,8.45 11.51,27.53l8.39,0l0,-100.18l-103.85,0l0,100.18l8.43,0c1.06,-18.47 5.74,-24.28 9.13,-26.35Z" style="fill:#fff;fill-rule:nonzero;"/><path d="M1083.21,739.8l3.63,0c2.06,-10.8 5.33,-19.89 7.92,-22.05c3.53,-2.95 19.23,-7.95 23.24,-9.2c0.582,-0.185 1.034,-0.652 1.2,-1.24c0.3,-1.12 0.81,-3 1.14,-4.39c0.184,-1.159 1.086,-2.08 2.24,-2.29l-0.05,-4.34c-1.06,-2.556 -1.871,-5.208 -2.42,-7.92c-0.854,0.454 -1.912,0.29 -2.59,-0.4c-0.65,-0.81 0.09,-1.52 -1.24,-4c-2.95,-7 0.29,-8.26 0.29,-8.26c-0.586,-3.339 -0.794,-6.734 -0.62,-10.12c0.11,-3.54 4.21,-9.53 7.51,-12.31c3.65,-3.08 8.6,-2.87 11.24,-2.87c4,0 11,1.56 14.27,7.65c3.27,6.09 3.06,13 2.48,16.8c0,0 2.83,-0.11 2,4.07c-0.83,4.18 -1.55,3.57 -1.71,4.91c-0.16,1.34 -0.79,4.31 -3.34,4.31c-0.111,2.279 -0.501,4.536 -1.16,6.72l0,5.32c0,0 2.05,0.42 2.58,1.89c0.53,1.47 1.16,5.34 2.27,6.34c1.11,1 16.89,5.93 21.47,7.76c2.85,1.14 6.77,12.08 9.3,23.61l4.18,0l0,-100.18l-103.83,0l0,100.19Z" style="fill:#fff;fill-rule:nonzero;"/><path d="M187.24,739.8l8.42,0c1.06,-18.48 5.74,-24.29 9.14,-26.36c3.07,-1.87 16.05,-5.27 20.15,-6.45c0.715,-0.198 1.333,-0.65 1.74,-1.27c2.45,-3.73 1.47,-6.16 1.47,-6.16l-2.49,-0.46c-1.048,-0.189 -1.817,-1.11 -1.817,-2.175c0,-0.153 0.015,-0.305 0.047,-0.455c0.544,-1.956 0.41,-4.04 -0.38,-5.91c-1.08,-2.49 -5.59,-7.32 -6.2,-12.3c-1,-11.4 3.21,-17.79 7.91,-21.61c3.283,-2.514 7.493,-3.498 11.55,-2.7c4.057,0.798 8.46,-3.43 14.9,0.23c7.17,4.08 12.81,12.48 10.61,29.22c-2.2,16.74 -12.47,17.47 -13.62,17.7c0,0 0.08,4.85 1.51,5.76c2.86,1.81 18.77,4.55 21,5.41c5.59,2.12 10.57,8.45 11.52,27.53l8.38,0l0,-100.19l-103.84,0l0,100.19Z" style="fill:#fff;fill-rule:nonzero;"/><path d="M567.69,483.24c0,-0.5 -0.06,-1 -0.11,-1.5c0.05,0.5 0.08,1 0.11,1.5Z" style="fill:#fff;fill-rule:nonzero;"/><path d="M564.52,469.13c-0.08,-0.19 -0.15,-0.38 -0.23,-0.56c0.08,0.18 0.14,0.37 0.23,0.56Z" style="fill:#fff;fill-rule:nonzero;"/><path d="M725.3,533.7l-94.46,0l15.48,15.49l94.47,0l0,-5.16l0,-89.3l-15.49,-15.49l0,94.46Z" style="fill:#2a1210;fill-rule:nonzero;"/><rect x="630.84" y="439.24" width="94.46" height="94.46" style="fill:#1580f2;fill-rule:nonzero;"/><path d="M880.86,533.7l-94.46,0l15.48,15.49l99.62,0l-47.23,-94.46l-20.64,-15.49l47.23,94.46Z" style="fill:#2a1210;fill-rule:nonzero;"/><path d="M880.86,533.7l-47.23,-94.46l-47.23,94.46l94.46,0Z" style="fill:#f37a78;fill-rule:nonzero;"/><path d="M556.43,455.68c0.46,0.53 0.91,1.08 1.34,1.63l0.07,0.08c0.42,0.54 0.83,1.09 1.23,1.65c0.03,0.046 0.064,0.089 0.1,0.13c0.38,0.55 0.76,1.1 1.12,1.66l0.13,0.2c0.35,0.54 0.68,1.09 1,1.65c0,0.09 0.1,0.18 0.16,0.27c0.31,0.54 0.61,1.08 0.9,1.63l0.18,0.37c0.27,0.53 0.54,1.06 0.79,1.6l0.21,0.46c0.23,0.51 0.46,1 0.67,1.56c0.08,0.18 0.15,0.37 0.23,0.56c0.19,0.5 0.39,1 0.57,1.51c0.08,0.22 0.15,0.45 0.23,0.68c0.16,0.48 0.32,1 0.47,1.44c0.08,0.27 0.15,0.53 0.22,0.8c0.14,0.46 0.27,0.92 0.38,1.38c0.08,0.3 0.14,0.61 0.21,0.92c0.07,0.31 0.21,0.86 0.29,1.3c0.08,0.44 0.13,0.71 0.19,1.06c0.06,0.35 0.15,0.8 0.21,1.21c0.06,0.41 0.11,0.82 0.16,1.23c0.05,0.41 0.09,0.72 0.13,1.08c0.04,0.36 0.08,1 0.11,1.5c0,0.28 0,0.56 0.07,0.85c0,0.79 0.06,1.58 0.06,2.38c0.013,10.351 -3.395,20.423 -9.69,28.64c-0.75,1 -1.55,2 -2.38,2.89c-0.58,0.64 -1.16,1.26 -1.77,1.87c-18.321,18.319 -48.469,18.319 -66.79,0l14.58,14.55c0.613,0.667 1.243,1.297 1.89,1.89l0.06,0.06c8.743,8.162 20.269,12.706 32.23,12.706c25.909,0 47.23,-21.32 47.23,-47.23c0,-12.893 -5.279,-25.239 -14.6,-34.146l-13.66,-13.67c0.493,0.52 0.973,1.05 1.44,1.59l0.03,0.06Z" style="fill:#2a1210;fill-rule:nonzero;"/><path d="M520.59,439.24c-0.001,0 -0.002,0 -0.003,0c-25.91,0 -47.23,21.32 -47.23,47.23c0,25.91 21.32,47.23 47.23,47.23c12.519,0 24.539,-4.978 33.393,-13.83c0.61,-0.61 1.19,-1.23 1.77,-1.87c0.83,-0.93 1.63,-1.89 2.38,-2.89c6.295,-8.217 9.703,-18.289 9.69,-28.64c0,-0.8 0,-1.59 -0.06,-2.38c0,-0.29 -0.05,-0.57 -0.07,-0.85c0,-0.5 -0.06,-1 -0.11,-1.5c-0.05,-0.5 -0.09,-0.72 -0.13,-1.08c-0.04,-0.36 -0.1,-0.82 -0.16,-1.23c-0.06,-0.41 -0.14,-0.81 -0.21,-1.21c-0.07,-0.4 -0.12,-0.71 -0.19,-1.06c-0.07,-0.35 -0.19,-0.87 -0.29,-1.3c-0.1,-0.43 -0.13,-0.62 -0.21,-0.92c-0.11,-0.46 -0.24,-0.92 -0.38,-1.38c-0.07,-0.27 -0.14,-0.53 -0.22,-0.8c-0.15,-0.48 -0.31,-1 -0.47,-1.44c-0.08,-0.23 -0.15,-0.46 -0.23,-0.68c-0.18,-0.51 -0.38,-1 -0.57,-1.51c-0.08,-0.19 -0.15,-0.38 -0.23,-0.56c-0.21,-0.53 -0.44,-1 -0.67,-1.56l-0.21,-0.46c-0.25,-0.54 -0.52,-1.07 -0.79,-1.6l-0.18,-0.37c-0.29,-0.55 -0.59,-1.09 -0.9,-1.63c-0.06,-0.09 -0.11,-0.18 -0.16,-0.27c-0.33,-0.56 -0.66,-1.11 -1,-1.65l-0.13,-0.2c-0.36,-0.56 -0.74,-1.11 -1.12,-1.66c-0.036,-0.041 -0.07,-0.084 -0.1,-0.13c-0.4,-0.56 -0.81,-1.11 -1.23,-1.65l-0.07,-0.08c-0.43,-0.55 -0.88,-1.1 -1.34,-1.63c-0.467,-0.54 -0.947,-1.07 -1.44,-1.59c-8.905,-9.481 -21.353,-14.86 -34.36,-14.85Z" style="fill:#453b69;fill-rule:nonzero;"/><path d="M1270.07,314.42c23,38 34.66,77.9 34.66,118.54c0,1.646 1.354,3 3,3c1.646,0 3,-1.354 3,-3c0,-41.75 -12,-82.68 -35.52,-121.65c-22.71,-37.55 -55.71,-72.51 -98.08,-103.92c-41.85,-31 -91.73,-57.76 -148.23,-79.46c-56.68,-21.76 -118.57,-37.86 -184,-47.9l18,-18c0.564,-0.563 0.882,-1.328 0.882,-2.125c0,-1.647 -1.355,-3.002 -3.002,-3.002c-0.795,0 -1.557,0.316 -2.12,0.877l-22.6,22.61c-1.162,1.163 -1.162,3.077 0,4.24l22.6,22.6c0.555,0.517 1.286,0.805 2.045,0.805c1.646,0 3,-1.354 3,-3c0,-0.759 -0.288,-1.49 -0.805,-2.045l-16.72,-16.73c64.19,10 124.93,25.87 180.59,47.24c56,21.5 105.39,48 146.81,78.67c41.72,30.99 74.19,65.37 96.49,102.25Z" style="fill:#1580f2;fill-rule:nonzero;"/><path d="M536.31,81.43c-0.212,-1.469 -1.485,-2.571 -2.969,-2.571c-0.144,0 -0.288,0.01 -0.431,0.031c-66.93,9.75 -130.29,25.84 -188.3,47.82c-57.09,21.63 -107.52,48.38 -149.87,79.51c-42.85,31.5 -76.24,66.62 -99.22,104.37c-23.25,38.18 -35.33,78.23 -35.94,119.11l-17.51,-17.51c-0.563,-0.561 -1.325,-0.877 -2.12,-0.877c-1.647,0 -3.002,1.355 -3.002,3.002c0,0.797 0.318,1.562 0.882,2.125l22.6,22.6c0.563,0.565 1.328,0.882 2.125,0.882c0.797,0 1.562,-0.317 2.125,-0.882l22.6,-22.6c0.563,-0.563 0.88,-1.328 0.88,-2.125c0,-1.649 -1.356,-3.005 -3.005,-3.005c-0.797,0 -1.562,0.317 -2.125,0.88l-17.45,17.45c0.62,-39.74 12.41,-78.73 35.06,-115.93c22.65,-37.2 55.44,-71.62 97.66,-102.65c41.91,-30.81 91.85,-57.31 148.44,-78.74c57.6,-21.83 120.53,-37.8 187,-47.49c1.482,-0.199 2.601,-1.478 2.601,-2.973c0,-0.143 -0.011,-0.286 -0.031,-0.427Z" style="fill:#1580f2;fill-rule:nonzero;"/><path d="M1014.43,737.46l-28.7,-14.06c-0.411,-0.201 -0.862,-0.306 -1.32,-0.306c-1.646,0 -3.001,1.355 -3.001,3.001c0,1.144 0.654,2.192 1.681,2.695l22.92,11.23c-96.58,33.92 -207.47,51.86 -320.87,51.86c-111.5,0 -220.83,-17.37 -316.17,-50.25c-0.282,-0.086 -0.576,-0.129 -0.871,-0.129c-1.646,0 -3,1.354 -3,3c0,1.238 0.766,2.354 1.921,2.799c96,33.09 206,50.58 318.12,50.58c113.64,0 224.83,-17.92 321.69,-51.82l-10.53,21.48c-0.714,1.476 -0.092,3.278 1.38,4c0.41,0.205 0.862,0.311 1.32,0.31c1.142,-0.002 2.188,-0.655 2.69,-1.68l14.06,-28.7c0.729,-1.463 0.136,-3.266 -1.32,-4.01Z" style="fill:#1580f2;fill-rule:nonzero;"/><path d="M627.19,129.29c3.88,-16.07 8.47,-19.33 10.69,-21.13c2.22,-1.8 25.81,-12.35 27.77,-13.58c3,-1.91 6.31,-6.65 6.31,-6.65l-0.28,-8.12c-0.641,-1.426 -1.098,-2.928 -1.36,-4.47c-0.24,-2.15 -0.82,-5.62 -0.82,-5.62c-4.1,-0.2 -2.33,-4.23 -4.21,-7.58c-1.68,-3 -2,-7.28 -0.22,-8.19c1.08,-0.55 2.43,0.89 2.43,0.89c-0.659,-4.791 -1.046,-9.615 -1.16,-14.45c0,-6.16 4.76,-11.49 7.53,-14.1c2.22,-2.09 5.14,-2 6.3,-2.4c1.16,-0.4 2.27,-2 6.49,-2c4.105,0.006 8.114,1.25 11.5,3.57c3,2.07 8.48,7.19 9.56,11c1,3.6 1.33,9.13 -0.44,18.34c0.631,-0.002 1.259,0.096 1.86,0.29c1.24,0.48 2.32,2.83 1.61,5.76c-0.71,2.93 -1.64,3.54 -2.52,7.77c-0.51,2.45 -3.32,1.37 -3.32,1.37c0,0 -0.63,4.63 -0.72,5.85c-0.416,1.877 -1.089,3.687 -2,5.38l-0.09,6.82c0,0 2.94,7.54 10.36,9.6c11.93,3.31 29.6,10.74 32,27.76c0.52,4.4 1.2,8 1.71,10.27l8.46,0l0,-129.67l-134.39,0l0,129.67l5.19,0l1.76,-6.38Z" style="fill:#fff;fill-rule:nonzero;"/><path d="M617.24,141.67l140.38,0c1.646,0 3,-1.354 3,-3l0,-135.67c0,-1.646 -1.354,-3 -3,-3l-140.38,0c-1.646,0 -3,1.354 -3,3l0,135.67c0,1.646 1.354,3 3,3Zm3,-135.67l134.38,0l0,129.67l-8.46,0c-0.51,-2.32 -1.19,-5.87 -1.71,-10.27c-2.36,-17 -20,-24.45 -32,-27.76c-7.42,-2.06 -10.36,-9.6 -10.36,-9.6l0.09,-6.82c0.911,-1.693 1.584,-3.503 2,-5.38c0.09,-1.22 0.72,-5.85 0.72,-5.85c0,0 2.81,1.08 3.32,-1.37c0.88,-4.23 1.81,-4.85 2.52,-7.77c0.71,-2.92 -0.37,-5.28 -1.61,-5.76c-0.601,-0.194 -1.229,-0.292 -1.86,-0.29c1.77,-9.21 1.46,-14.74 0.44,-18.34c-1.08,-3.82 -6.56,-8.94 -9.56,-11c-3.386,-2.32 -7.395,-3.564 -11.5,-3.57c-4.22,0 -5.33,1.67 -6.49,2c-1.16,0.33 -4.08,0.31 -6.3,2.4c-2.77,2.61 -7.53,7.94 -7.53,14.1c0.114,4.835 0.501,9.659 1.16,14.45c0.659,4.791 -1.35,-1.44 -2.43,-0.89c-1.76,0.91 -1.46,5.18 0.22,8.19c1.88,3.35 0.11,7.38 4.21,7.58c0,0 0.58,3.47 0.82,5.62c0.262,1.542 0.719,3.044 1.36,4.47l0.28,8.12c0,0 -3.29,4.74 -6.31,6.65c-2,1.23 -25.56,11.77 -27.77,13.58c-2.21,1.81 -6.81,5.06 -10.69,21.13l-1.75,6.38l-5.19,0l0,-129.67Z" style="fill:#1580f2;fill-rule:nonzero;"/><path d="M802.43,251.5c-2.26,-0.86 -18.16,-3.59 -21,-5.41c-1.43,-0.9 -1.51,-5.75 -1.51,-5.75c1.15,-0.23 11.43,-1 13.62,-17.7c2.19,-16.7 -3.45,-25.15 -10.61,-29.22c-6.44,-3.66 -14.9,-0.24 -14.9,-0.24c-4.066,-0.777 -8.275,0.229 -11.55,2.76c-4.7,3.82 -8.88,10.2 -7.91,21.61c0.61,5 5.12,9.81 6.2,12.3c0.79,1.867 0.921,3.949 0.37,5.9c-0.03,0.147 -0.045,0.297 -0.045,0.447c0,1.071 0.772,1.999 1.825,2.193l2.49,0.46c0,0 1,2.43 -1.47,6.16c-0.412,0.615 -1.029,1.065 -1.74,1.27c-4.11,1.18 -17.08,4.57 -20.16,6.45c-3.39,2.07 -8.07,7.88 -9.13,26.35l87,0c-0.89,-19.14 -5.87,-25.45 -11.48,-27.58Z" style="fill:#9eb1db;fill-rule:nonzero;"/><path d="M712.48,175.85l0,106.18c0,1.646 1.354,3 3,3l109.87,0c1.646,0 3,-1.354 3,-3l0,-106.18c0,-1.646 -1.354,-3 -3,-3l-109.87,0c-1.646,0 -3,1.354 -3,3Zm6,3l103.87,0l0,100.18l-103.87,0l0,-100.18Z" style="fill:#1580f2;fill-rule:nonzero;"/><path d="M642.9,255.43c-4.58,-1.83 -20.37,-6.76 -21.48,-7.76c-1.11,-1 -1.74,-4.86 -2.27,-6.34c-0.53,-1.48 -2.58,-1.89 -2.58,-1.89l0,-5.33c0.665,-2.183 1.058,-4.44 1.17,-6.72c2.55,0 3.18,-3 3.34,-4.3c0.16,-1.3 0.91,-0.74 1.7,-4.92c0.79,-4.18 -2,-4.06 -2,-4.06c0.58,-3.77 0.8,-10.71 -2.49,-16.8c-3.29,-6.09 -10.24,-7.64 -14.26,-7.65c-2.64,0 -7.59,-0.21 -11.24,2.86c-3.3,2.79 -7.4,8.78 -7.51,12.31c-0.179,3.386 0.029,6.781 0.62,10.12c0.591,3.339 -3.24,1.28 -0.3,8.26c1.33,2.47 0.59,3.19 1.25,4c0.677,0.691 1.733,0.858 2.59,0.41c0.551,2.712 1.361,5.364 2.42,7.92l0,4.34c-1.152,0.211 -2.05,1.133 -2.23,2.29c-0.33,1.39 -0.84,3.27 -1.15,4.38c-0.16,0.594 -0.613,1.066 -1.2,1.25c-4,1.24 -19.7,6.25 -23.24,9.2c-2.59,2.16 -5.85,11.25 -7.91,22l96.06,0c-2.53,-11.5 -6.45,-22.43 -9.29,-23.57Z" style="fill:#9eb1db;fill-rule:nonzero;"/><path d="M549.51,285.03l109.92,0c1.646,0 3,-1.354 3,-3l0,-106.18c0,-1.646 -1.354,-3 -3,-3l-109.92,0c-1.646,0 -3,1.354 -3,3l0,106.18c0,1.646 1.354,3 3,3Zm3,-106.18l103.92,0l0,100.18l-103.92,0l0,-100.18Z" style="fill:#1580f2;fill-rule:nonzero;"/><path d="M271.2,712.27c-2.25,-0.86 -18.16,-3.6 -21,-5.41c-1.43,-0.91 -1.51,-5.76 -1.51,-5.76c1.15,-0.23 11.43,-0.95 13.62,-17.7c2.19,-16.75 -3.44,-25.14 -10.61,-29.22c-6.44,-3.66 -14.9,-0.23 -14.9,-0.23c-4.057,-0.798 -8.267,0.186 -11.55,2.7c-4.7,3.82 -8.88,10.21 -7.91,21.61c0.61,5 5.12,9.81 6.2,12.3c0.79,1.87 0.924,3.954 0.38,5.91c-0.032,0.15 -0.047,0.302 -0.047,0.455c0,1.065 0.769,1.986 1.817,2.175l2.49,0.46c0,0 1,2.43 -1.47,6.16c-0.407,0.62 -1.025,1.072 -1.74,1.27c-4.1,1.18 -17.08,4.58 -20.15,6.45c-3.4,2.07 -8.08,7.88 -9.14,26.36l87.06,0c-0.97,-19.08 -5.95,-25.41 -11.54,-27.53Z" style="fill:#9eb1db;fill-rule:nonzero;"/><path d="M294.1,633.61l-109.86,0c-1.646,0 -3,1.354 -3,3l0,106.19c0,1.646 1.354,3 3,3l109.86,0c1.646,0 3,-1.354 3,-3l0,-106.19c0,-1.646 -1.354,-3 -3,-3Zm-3,106.19l-103.86,0l0,-100.19l103.86,0l0,100.19Z" style="fill:#1580f2;fill-rule:nonzero;"/><path d="M1164.98,582.87l3.72,0l1.24,-4.51c3.11,-12.86 6.78,-15.47 8.55,-16.91c1.77,-1.44 20.65,-9.87 22.22,-10.86c2.42,-1.52 5,-5.32 5,-5.32l-0.22,-6.49c-0.509,-1.143 -0.872,-2.346 -1.08,-3.58c-0.2,-1.72 -0.66,-4.5 -0.66,-4.5c-3.28,-0.15 -1.87,-3.38 -3.37,-6.06c-1.35,-2.41 -1.59,-5.82 -0.18,-6.55c0.87,-0.44 2,0.71 2,0.71c-0.528,-3.833 -0.839,-7.692 -0.93,-11.56c0,-4.93 3.81,-9.19 6,-11.28c1.77,-1.67 4.1,-1.64 5,-1.91c0.9,-0.27 1.82,-1.61 5.2,-1.61c3.284,-0.005 6.494,0.99 9.2,2.85c2.4,1.65 6.78,5.75 7.65,8.81c0.81,2.88 1.06,7.3 -0.36,14.67c0.506,-0.002 1.008,0.076 1.49,0.23c1,0.38 1.86,2.27 1.29,4.61c-0.57,2.34 -1.31,2.83 -2,6.21c-0.41,2 -2.66,1.1 -2.66,1.1c0,0 -0.51,3.7 -0.57,4.68c-0.331,1.501 -0.863,2.951 -1.58,4.31l-0.07,5.45c0,0 2.35,6 8.28,7.68c9.55,2.65 23.68,8.59 25.57,22.21c0.37,3.16 0.85,5.77 1.24,7.62l6.3,0l0,-102.54l-106.27,0l0,102.54Z" style="fill:#fff;fill-rule:nonzero;"/><path d="M1238.18,553.04c-5.93,-1.64 -8.28,-7.68 -8.28,-7.68l0.07,-5.45c0.717,-1.359 1.249,-2.809 1.58,-4.31c0.06,-1 0.57,-4.68 0.57,-4.68c0,0 2.25,0.86 2.66,-1.1c0.7,-3.38 1.44,-3.87 2,-6.21c0.56,-2.34 -0.3,-4.23 -1.29,-4.61c-0.482,-0.154 -0.984,-0.232 -1.49,-0.23c1.42,-7.37 1.17,-11.79 0.36,-14.67c-0.87,-3.06 -5.25,-7.16 -7.65,-8.81c-2.706,-1.86 -5.916,-2.855 -9.2,-2.85c-3.38,0 -4.27,1.33 -5.2,1.61c-0.93,0.28 -3.26,0.24 -5,1.91c-2.22,2.09 -6,6.35 -6,11.28c0.091,3.868 0.402,7.727 0.93,11.56c0.528,3.833 -1.08,-1.15 -2,-0.71c-1.41,0.73 -1.17,4.14 0.18,6.55c1.5,2.68 0.09,5.91 3.37,6.06c0,0 0.46,2.78 0.66,4.5c0.208,1.234 0.571,2.437 1.08,3.58l0.22,6.49c0,0 -2.62,3.8 -5,5.32c-1.57,1 -20.45,9.42 -22.22,10.86c-1.77,1.44 -5.44,4 -8.55,16.91l-1.24,4.51l96.29,0c-0.39,-1.85 -0.87,-4.46 -1.24,-7.62c-1.93,-13.62 -16.06,-19.56 -25.61,-22.21Z" style="fill:#9eb1db;fill-rule:nonzero;"/><path d="M1161.98,474.33c-1.646,0 -3,1.354 -3,3l0,108.54c0,1.646 1.354,3 3,3l112.31,0c1.646,0 3,-1.354 3,-3l0,-108.54c0,-1.646 -1.354,-3 -3,-3l-112.31,0Zm109.31,108.54l-106.31,0l0,-102.54l106.31,0l0,102.54Z" style="fill:#1580f2;fill-rule:nonzero;"/><path d="M1173.6,716.19c-4.58,-1.83 -20.36,-6.76 -21.47,-7.76c-1.11,-1 -1.75,-4.86 -2.27,-6.34c-0.52,-1.48 -2.58,-1.89 -2.58,-1.89l0,-5.32c0.659,-2.184 1.049,-4.441 1.16,-6.72c2.55,0 3.18,-3 3.34,-4.31c0.16,-1.31 0.92,-0.74 1.71,-4.91c0.79,-4.17 -2,-4.07 -2,-4.07c0.58,-3.77 0.8,-10.7 -2.48,-16.8c-3.28,-6.1 -10.24,-7.64 -14.27,-7.65c-2.64,0 -7.59,-0.21 -11.24,2.87c-3.3,2.78 -7.4,8.77 -7.51,12.31c-0.174,3.386 0.034,6.781 0.62,10.12c0.586,3.339 -3.24,1.27 -0.29,8.26c1.33,2.47 0.59,3.18 1.24,4c0.678,0.69 1.736,0.854 2.59,0.4c0.549,2.712 1.36,5.364 2.42,7.92l0.05,4.34c-1.154,0.21 -2.056,1.131 -2.24,2.29c-0.33,1.39 -0.84,3.27 -1.14,4.39c-0.166,0.588 -0.618,1.055 -1.2,1.24c-4,1.25 -19.71,6.25 -23.24,9.2c-2.59,2.16 -5.86,11.25 -7.92,22.05l96.06,0c-2.57,-11.54 -6.51,-22.48 -9.34,-23.62Z" style="fill:#9eb1db;fill-rule:nonzero;"/><path d="M1190.08,633.61l-109.87,0c-1.646,0 -3,1.354 -3,3l0,106.19c0,1.646 1.354,3 3,3l109.87,0c1.646,0 3,-1.354 3,-3l0,-106.19c0,-1.646 -1.354,-3 -3,-3Zm-3,106.19l-103.87,0l0,-100.19l103.87,0l0,100.19Z" style="fill:#1580f2;fill-rule:nonzero;"/><path d="M1339.6,716.16c-2.89,-1.1 -23.21,-4.59 -26.87,-6.91c-1.82,-1.16 -1.92,-7.36 -1.92,-7.36c1.46,-0.29 14.6,-1.22 17.4,-22.61c2.8,-21.39 -4.41,-32.13 -13.56,-37.34c-8.23,-4.67 -19,-0.3 -19,-0.3c0,0 -8.13,-1.94 -14.76,3.45c-6,4.89 -11.34,13 -10.1,27.62c0.78,6.36 6.54,12.54 7.92,15.72c1.005,2.387 1.174,5.045 0.48,7.54c-0.04,0.19 -0.059,0.384 -0.059,0.578c0,1.362 0.98,2.542 2.319,2.792l3.19,0.59c0,0 1.24,3.1 -1.88,7.87c-0.524,0.791 -1.316,1.366 -2.23,1.62c-5.24,1.51 -21.82,5.84 -25.75,8.24c-4.39,2.68 -10.46,10.25 -11.72,34.51l111.33,0c-1.14,-25.04 -7.58,-33.23 -14.79,-36.01Z" style="fill:#f37a78;fill-rule:nonzero;"/><path d="M1368.86,616.49l-140.43,0c-1.646,0 -3,1.354 -3,3l0,135.68c0,1.646 1.354,3 3,3l140.39,0c1.646,0 3,-1.354 3,-3l0,-135.68c0,-1.631 -1.329,-2.978 -2.96,-3Zm-3,135.68l-134.43,0l0,-129.68l134.39,0l0.04,129.68Z" style="fill:#1580f2;fill-rule:nonzero;"/><path d="M106.31,578.36c3.1,-12.86 6.77,-15.47 8.55,-16.91c1.78,-1.44 20.65,-9.87 22.22,-10.86c2.41,-1.52 5,-5.32 5,-5.32l-0.22,-6.49c-0.517,-1.141 -0.883,-2.344 -1.09,-3.58c-0.19,-1.72 -0.65,-4.5 -0.65,-4.5c-3.28,-0.15 -1.87,-3.38 -3.37,-6.06c-1.35,-2.41 -1.59,-5.82 -0.18,-6.55c0.87,-0.44 1.94,0.71 1.94,0.71c-0.523,-3.833 -0.83,-7.692 -0.92,-11.56c0,-4.93 3.8,-9.19 6,-11.28c1.78,-1.67 4.11,-1.64 5,-1.91c0.89,-0.27 1.82,-1.61 5.19,-1.61c3.284,-0.005 6.494,0.99 9.2,2.85c2.41,1.65 6.79,5.75 7.65,8.81c0.82,2.88 1.07,7.3 -0.35,14.67c0.506,-0.002 1.008,0.076 1.49,0.23c1,0.38 1.85,2.27 1.29,4.61c-0.56,2.34 -1.31,2.83 -2,6.21c-0.41,2 -2.66,1.1 -2.66,1.1c0,0 -0.5,3.7 -0.57,4.68c-0.294,1.51 -0.799,2.971 -1.5,4.34l-0.07,5.45c0,0 2.35,6 8.29,7.68c9.54,2.65 23.67,8.59 25.56,22.21c0.38,3.16 0.85,5.77 1.24,7.62l6.3,0l0,-102.57l-106.31,0l0,102.54l3.72,0l1.25,-4.51Z" style="fill:#fff;fill-rule:nonzero;"/><path d="M174.55,553.04c-5.94,-1.64 -8.29,-7.68 -8.29,-7.68l0.07,-5.45c0.726,-1.355 1.258,-2.806 1.58,-4.31c0.07,-1 0.57,-4.68 0.57,-4.68c0,0 2.25,0.86 2.66,-1.1c0.71,-3.38 1.45,-3.87 2,-6.21c0.55,-2.34 -0.3,-4.23 -1.29,-4.61c-0.482,-0.154 -0.984,-0.232 -1.49,-0.23c1.42,-7.37 1.17,-11.79 0.35,-14.67c-0.86,-3.06 -5.24,-7.16 -7.65,-8.81c-2.706,-1.86 -5.916,-2.855 -9.2,-2.85c-3.37,0 -4.26,1.33 -5.19,1.61c-0.93,0.28 -3.26,0.24 -5,1.91c-2.22,2.09 -6,6.35 -6,11.28c0.09,3.868 0.397,7.727 0.92,11.56c0.523,3.833 -1.07,-1.15 -1.94,-0.71c-1.41,0.73 -1.17,4.14 0.18,6.55c1.5,2.68 0.09,5.91 3.37,6.06c0,0 0.46,2.78 0.65,4.5c0.207,1.236 0.573,2.439 1.09,3.58l0.22,6.49c0,0 -2.63,3.8 -5,5.32c-1.57,1 -20.45,9.42 -22.22,10.86c-1.77,1.44 -5.45,4 -8.55,16.91l-1.25,4.51l96.29,0c-0.39,-1.85 -0.86,-4.46 -1.24,-7.62c-1.97,-13.62 -16.1,-19.56 -25.64,-22.21Z" style="fill:#9eb1db;fill-rule:nonzero;"/><path d="M210.65,588.87c1.646,0 3,-1.354 3,-3l0,-108.54c0,-1.646 -1.354,-3 -3,-3l-112.31,0c-1.646,0 -3,1.354 -3,3l0,108.54c0,1.646 1.354,3 3,3l112.31,0Zm-109.31,-108.54l106.31,0l0,102.54l-106.31,0l0,-102.54Z" style="fill:#1580f2;fill-rule:nonzero;"/><path d="M122.33,719.86c-5.85,-2.34 -26,-8.64 -27.44,-9.92c-1.44,-1.28 -2.22,-6.2 -2.9,-8.09c-0.68,-1.89 -3.29,-2.42 -3.29,-2.42l0,-6.81c0.847,-2.788 1.348,-5.67 1.49,-8.58c3.25,0 4.05,-3.79 4.26,-5.5c0.21,-1.71 1.17,-1 2.18,-6.28c1.01,-5.28 -2.6,-5.19 -2.6,-5.19c0.74,-4.83 1,-13.69 -3.18,-21.48c-4.18,-7.79 -13.08,-9.75 -18.23,-9.77c-3.36,0 -9.69,-0.27 -14.35,3.66c-4.22,3.56 -9.46,11.21 -9.6,15.73c-0.234,4.325 0.021,8.662 0.76,12.93c0.739,4.268 -4.14,1.63 -0.37,10.56c1.7,3.15 0.75,4.06 1.58,5.1c1.25,1.54 3.32,0.51 3.32,0.51c0.699,3.466 1.734,6.855 3.09,10.12l0.05,5.55c-1.468,0.272 -2.613,1.446 -2.85,2.92c-0.42,1.78 -1.07,4.18 -1.46,5.61c-0.212,0.753 -0.793,1.349 -1.54,1.58c-5.12,1.6 -25.18,8 -29.69,11.76c-3.38,2.82 -7.66,14.85 -10.27,29l123.14,0c-3.26,-15.03 -8.39,-29.5 -12.1,-30.99Z" style="fill:#453b69;fill-rule:nonzero;"/><path d="M143.43,615.18l-140.43,0c-1.646,0 -3,1.354 -3,3l0,135.67c0,1.646 1.354,3 3,3l140.43,0c1.646,0 3,-1.354 3,-3l0,-135.67c0,-1.646 -1.354,-3 -3,-3Zm-3,135.67l-134.43,0l0,-129.67l134.43,0l0,129.67Z" style="fill:#1580f2;fill-rule:nonzero;"/></svg>