<svg clip-rule="evenodd" fill-rule="evenodd" stroke-linejoin="round" stroke-miterlimit="1.41421" viewBox="0 0 1372 798" xmlns="http://www.w3.org/2000/svg"><g fill-rule="nonzero"><g fill="#fff"><path d="m565.32 471.32c-.08-.23-.15-.46-.23-.68.08.22.15.45.23.68z"/><path d="m555.75 518c-.58.64-1.16 1.26-1.77 1.87.61-.61 1.19-1.23 1.77-1.87z"/><path d="m566.6 475.86c-.07-.31-.13-.62-.21-.92.04.3.14.61.21.92z"/><path d="m6 750.85h5.32c2.61-14.15 6.89-26.18 10.27-29 4.51-3.76 24.57-10.16 29.69-11.76.747-.231 1.328-.827 1.54-1.58.39-1.43 1-3.83 1.46-5.61.221-1.49 1.37-2.683 2.85-2.96l-.05-5.55c-1.356-3.265-2.391-6.654-3.09-10.12s-2.07 1-3.32-.51c-.83-1 .12-2-1.58-5.1-3.77-8.93.37-10.56.37-10.56-.749-4.266-1.014-8.604-.79-12.93.14-4.52 5.38-12.17 9.6-15.73 4.66-3.93 11-3.67 14.35-3.66 5.15 0 14 2 18.23 9.77s3.92 16.65 3.18 21.48c0 0 3.61-.15 2.6 5.19s-2 4.56-2.18 6.28-1 5.51-4.26 5.5c-.142 2.91-.643 5.792-1.49 8.58v6.81s2.62.53 3.29 2.42 1.49 6.81 2.9 8.09 21.59 7.58 27.44 9.92c3.71 1.49 8.84 16 12.06 31h6v-129.64h-134.39v129.67z"/><path d="m566.01 473.56c-.07-.27-.14-.53-.22-.8.08.27.15.53.22.8z"/><path d="m567.08 478.22c-.06-.35-.11-.71-.19-1.06.07.35.13.71.19 1.06z"/><path d="m567.43 480.66c0-.41-.1-.82-.16-1.23.08.41.16.82.16 1.23z"/><path d="m562.62 464.94-.18-.37z"/><path d="m561.54 462.94c-.06-.09-.11-.18-.16-.27.05.1.1.19.16.27z"/><path d="m567.76 484.09c0 .79.06 1.58.06 2.38.013 10.351-3.395 20.423-9.69 28.64 6.295-8.217 9.703-18.289 9.69-28.64 0-.8-.02-1.59-.06-2.38z"/><path d="m560.37 461.03-.13-.2z"/><path d="m563.62 467.01-.21-.46z"/><path d="m559.12 459.17c-.036-.041-.07-.084-.1-.13.03.046.064.089.1.13z"/><path d="m557.79 457.39-.07-.08z"/><path d="m564.05 256.99c3.54-2.95 19.23-8 23.24-9.2.587-.184 1.04-.656 1.2-1.25.31-1.11.82-3 1.15-4.38.18-1.157 1.078-2.079 2.23-2.29v-4.34c-1.059-2.556-1.869-5.208-2.42-7.92-.857.448-1.913.281-2.59-.41-.66-.8.08-1.52-1.25-4-2.94-7 .3-8.26.3-8.26-.591-3.339-.799-6.734-.62-10.12.11-3.53 4.21-9.52 7.51-12.31 3.65-3.07 8.6-2.87 11.24-2.86 4 0 11 1.55 14.26 7.65s3.07 13 2.49 16.8c0 0 2.83-.11 2 4.06s-1.54 3.57-1.7 4.92-.79 4.31-3.34 4.3c-.112 2.28-.505 4.537-1.17 6.72v5.33s2.06.41 2.58 1.89 1.16 5.33 2.27 6.34 16.9 5.93 21.48 7.76c2.84 1.14 6.76 12.07 9.3 23.6h4.22v-100.17h-103.92v100.18h3.63c2.06-10.79 5.29-19.88 7.91-22.04z"/><path d="m1231.43 752.17h11.55c1.26-24.26 7.33-31.83 11.72-34.51 3.93-2.4 20.51-6.73 25.75-8.24.914-.254 1.706-.829 2.23-1.62 3.12-4.77 1.88-7.87 1.88-7.87l-3.19-.59c-1.339-.25-2.319-1.43-2.319-2.792 0-.194.019-.388.059-.578.694-2.495.525-5.153-.48-7.54-1.38-3.18-7.14-9.36-7.92-15.72-1.24-14.58 4.1-22.73 10.1-27.62 6.63-5.39 14.76-3.45 14.76-3.45s10.81-4.37 19 .3c9.15 5.21 16.36 16 13.56 37.34s-15.94 22.32-17.4 22.61c0 0 .1 6.2 1.92 7.36 3.66 2.32 24 5.81 26.87 6.91 7.21 2.75 13.65 11 14.75 36h11.51v-129.67h-134.35z"/><path d="m736.04 252.68c3.08-1.88 16-5.27 20.16-6.45.711-.205 1.328-.655 1.74-1.27 2.44-3.73 1.47-6.16 1.47-6.16l-2.49-.46c-1.053-.194-1.825-1.122-1.825-2.193 0-.15.015-.3.045-.447.551-1.951.42-4.033-.37-5.9-1.08-2.49-5.59-7.32-6.2-12.3-1-11.41 3.21-17.79 7.91-21.61 3.283-2.514 7.492-3.501 11.55-2.71s8.46-3.42 14.9.24c7.16 4.07 12.8 12.48 10.61 29.22s-12.47 17.47-13.62 17.7c0 0 .08 4.85 1.51 5.75 2.86 1.82 18.76 4.55 21 5.41 5.59 2.13 10.57 8.45 11.51 27.53h8.39v-100.18h-103.85v100.18h8.43c1.06-18.47 5.74-24.28 9.13-26.35z"/><path d="m1083.21 739.8h3.63c2.06-10.8 5.33-19.89 7.92-22.05 3.53-2.95 19.23-7.95 23.24-9.2.582-.185 1.034-.652 1.2-1.24.3-1.12.81-3 1.14-4.39.184-1.159 1.086-2.08 2.24-2.29l-.05-4.34c-1.06-2.556-1.871-5.208-2.42-7.92-.854.454-1.912.29-2.59-.4-.65-.81.09-1.52-1.24-4-2.95-7 .29-8.26.29-8.26-.586-3.339-.794-6.734-.62-10.12.11-3.54 4.21-9.53 7.51-12.31 3.65-3.08 8.6-2.87 11.24-2.87 4 0 11 1.56 14.27 7.65s3.06 13 2.48 16.8c0 0 2.83-.11 2 4.07s-1.55 3.57-1.71 4.91-.79 4.31-3.34 4.31c-.111 2.279-.501 4.536-1.16 6.72v5.32s2.05.42 2.58 1.89 1.16 5.34 2.27 6.34 16.89 5.93 21.47 7.76c2.85 1.14 6.77 12.08 9.3 23.61h4.18v-100.18h-103.83z"/><path d="m187.24 739.8h8.42c1.06-18.48 5.74-24.29 9.14-26.36 3.07-1.87 16.05-5.27 20.15-6.45.715-.198 1.333-.65 1.74-1.27 2.45-3.73 1.47-6.16 1.47-6.16l-2.49-.46c-1.048-.189-1.817-1.11-1.817-2.175 0-.153.015-.305.047-.455.544-1.956.41-4.04-.38-5.91-1.08-2.49-5.59-7.32-6.2-12.3-1-11.4 3.21-17.79 7.91-21.61 3.283-2.514 7.493-3.498 11.55-2.7s8.46-3.43 14.9.23c7.17 4.08 12.81 12.48 10.61 29.22s-12.47 17.47-13.62 17.7c0 0 .08 4.85 1.51 5.76 2.86 1.81 18.77 4.55 21 5.41 5.59 2.12 10.57 8.45 11.52 27.53h8.38v-100.19h-103.84z"/><path d="m567.69 483.24c0-.5-.06-1-.11-1.5.05.5.08 1 .11 1.5z"/><path d="m564.52 469.13c-.08-.19-.15-.38-.23-.56.08.18.14.37.23.56z"/></g><path d="m725.3 533.7h-94.46l15.48 15.49h94.47v-5.16-89.3l-15.49-15.49z" fill="#2a1210"/><path d="m630.84 439.24h94.46v94.46h-94.46z" fill="#1580f2"/><path d="m880.86 533.7h-94.46l15.48 15.49h99.62l-47.23-94.46-20.64-15.49z" fill="#2a1210"/><path d="m880.86 533.7-47.23-94.46-47.23 94.46z" fill="#f37a78"/><path d="m556.43 455.68c.46.53.91 1.08 1.34 1.63l.07.08c.42.54.83 1.09 1.23 1.65.03.046.064.089.1.13.38.55.76 1.1 1.12 1.66l.13.2c.35.54.68 1.09 1 1.65 0 .09.1.18.16.27.31.54.61 1.08.9 1.63l.18.37c.27.53.54 1.06.79 1.6l.21.46c.23.51.46 1 .67 1.56.08.18.15.37.23.56.19.5.39 1 .57 1.51.08.22.15.45.23.68.16.48.32 1 .47 1.44.08.27.15.53.22.8.14.46.27.92.38 1.38.08.3.14.61.21.92s.21.86.29 1.3.13.71.19 1.06.15.8.21 1.21.11.82.16 1.23.09.72.13 1.08.08 1 .11 1.5c0 .28 0 .56.07.85 0 .79.06 1.58.06 2.38.013 10.351-3.395 20.423-9.69 28.64-.75 1-1.55 2-2.38 2.89-.58.64-1.16 1.26-1.77 1.87-18.321 18.319-48.469 18.319-66.79 0l14.58 14.55c.613.667 1.243 1.297 1.89 1.89l.06.06c8.743 8.162 20.269 12.706 32.23 12.706 25.909 0 47.23-21.32 47.23-47.23 0-12.893-5.279-25.239-14.6-34.146l-13.66-13.67c.493.52.973 1.05 1.44 1.59z" fill="#2a1210"/><path d="m520.59 439.24c-.001 0-.002 0-.003 0-25.91 0-47.23 21.32-47.23 47.23s21.32 47.23 47.23 47.23c12.519 0 24.539-4.978 33.393-13.83.61-.61 1.19-1.23 1.77-1.87.83-.93 1.63-1.89 2.38-2.89 6.295-8.217 9.703-18.289 9.69-28.64 0-.8 0-1.59-.06-2.38 0-.29-.05-.57-.07-.85 0-.5-.06-1-.11-1.5s-.09-.72-.13-1.08-.1-.82-.16-1.23-.14-.81-.21-1.21-.12-.71-.19-1.06-.19-.87-.29-1.3-.13-.62-.21-.92c-.11-.46-.24-.92-.38-1.38-.07-.27-.14-.53-.22-.8-.15-.48-.31-1-.47-1.44-.08-.23-.15-.46-.23-.68-.18-.51-.38-1-.57-1.51-.08-.19-.15-.38-.23-.56-.21-.53-.44-1-.67-1.56l-.21-.46c-.25-.54-.52-1.07-.79-1.6l-.18-.37c-.29-.55-.59-1.09-.9-1.63-.06-.09-.11-.18-.16-.27-.33-.56-.66-1.11-1-1.65l-.13-.2c-.36-.56-.74-1.11-1.12-1.66-.036-.041-.07-.084-.1-.13-.4-.56-.81-1.11-1.23-1.65l-.07-.08c-.43-.55-.88-1.1-1.34-1.63-.467-.54-.947-1.07-1.44-1.59-8.905-9.481-21.353-14.86-34.36-14.85z" fill="#453b69"/><path d="m1270.07 314.42c23 38 34.66 77.9 34.66 118.54 0 1.646 1.354 3 3 3s3-1.354 3-3c0-41.75-12-82.68-35.52-121.65-22.71-37.55-55.71-72.51-98.08-103.92-41.85-31-91.73-57.76-148.23-79.46-56.68-21.76-118.57-37.86-184-47.9l18-18c.564-.563.882-1.328.882-2.125 0-1.647-1.355-3.002-3.002-3.002-.795 0-1.557.316-2.12.877l-22.6 22.61c-1.162 1.163-1.162 3.077 0 4.24l22.6 22.6c.555.517 1.286.805 2.045.805 1.646 0 3-1.354 3-3 0-.759-.288-1.49-.805-2.045l-16.72-16.73c64.19 10 124.93 25.87 180.59 47.24 56 21.5 105.39 48 146.81 78.67 41.72 30.99 74.19 65.37 96.49 102.25z" fill="#1580f2"/><path d="m536.31 81.43c-.212-1.469-1.485-2.571-2.969-2.571-.144 0-.288.01-.431.031-66.93 9.75-130.29 25.84-188.3 47.82-57.09 21.63-107.52 48.38-149.87 79.51-42.85 31.5-76.24 66.62-99.22 104.37-23.25 38.18-35.33 78.23-35.94 119.11l-17.51-17.51c-.563-.561-1.325-.877-2.12-.877-1.647 0-3.002 1.355-3.002 3.002 0 .797.318 1.562.882 2.125l22.6 22.6c.563.565 1.328.882 2.125.882s1.562-.317 2.125-.882l22.6-22.6c.563-.563.88-1.328.88-2.125 0-1.649-1.356-3.005-3.005-3.005-.797 0-1.562.317-2.125.88l-17.45 17.45c.62-39.74 12.41-78.73 35.06-115.93s55.44-71.62 97.66-102.65c41.91-30.81 91.85-57.31 148.44-78.74 57.6-21.83 120.53-37.8 187-47.49 1.482-.199 2.601-1.478 2.601-2.973 0-.143-.011-.286-.031-.427z" fill="#1580f2"/><path d="m1014.43 737.46-28.7-14.06c-.411-.201-.862-.306-1.32-.306-1.646 0-3.001 1.355-3.001 3.001 0 1.144.654 2.192 1.681 2.695l22.92 11.23c-96.58 33.92-207.47 51.86-320.87 51.86-111.5 0-220.83-17.37-316.17-50.25-.282-.086-.576-.129-.871-.129-1.646 0-3 1.354-3 3 0 1.238.766 2.354 1.921 2.799 96 33.09 206 50.58 318.12 50.58 113.64 0 224.83-17.92 321.69-51.82l-10.53 21.48c-.714 1.476-.092 3.278 1.38 4 .41.205.862.311 1.32.31 1.142-.002 2.188-.655 2.69-1.68l14.06-28.7c.729-1.463.136-3.266-1.32-4.01z" fill="#1580f2"/><path d="m627.19 129.29c3.88-16.07 8.47-19.33 10.69-21.13s25.81-12.35 27.77-13.58c3-1.91 6.31-6.65 6.31-6.65l-.28-8.12c-.641-1.426-1.098-2.928-1.36-4.47-.24-2.15-.82-5.62-.82-5.62-4.1-.2-2.33-4.23-4.21-7.58-1.68-3-2-7.28-.22-8.19 1.08-.55 2.43.89 2.43.89-.659-4.791-1.046-9.615-1.16-14.45 0-6.16 4.76-11.49 7.53-14.1 2.22-2.09 5.14-2 6.3-2.4s2.27-2 6.49-2c4.105.006 8.114 1.25 11.5 3.57 3 2.07 8.48 7.19 9.56 11 1 3.6 1.33 9.13-.44 18.34.631-.002 1.259.096 1.86.29 1.24.48 2.32 2.83 1.61 5.76s-1.64 3.54-2.52 7.77c-.51 2.45-3.32 1.37-3.32 1.37s-.63 4.63-.72 5.85c-.416 1.877-1.089 3.687-2 5.38l-.09 6.82s2.94 7.54 10.36 9.6c11.93 3.31 29.6 10.74 32 27.76.52 4.4 1.2 8 1.71 10.27h8.46v-129.67h-134.39v129.67h5.19z" fill="#fff"/><path d="m617.24 141.67h140.38c1.646 0 3-1.354 3-3v-135.67c0-1.646-1.354-3-3-3h-140.38c-1.646 0-3 1.354-3 3v135.67c0 1.646 1.354 3 3 3zm3-135.67h134.38v129.67h-8.46c-.51-2.32-1.19-5.87-1.71-10.27-2.36-17-20-24.45-32-27.76-7.42-2.06-10.36-9.6-10.36-9.6l.09-6.82c.911-1.693 1.584-3.503 2-5.38.09-1.22.72-5.85.72-5.85s2.81 1.08 3.32-1.37c.88-4.23 1.81-4.85 2.52-7.77s-.37-5.28-1.61-5.76c-.601-.194-1.229-.292-1.86-.29 1.77-9.21 1.46-14.74.44-18.34-1.08-3.82-6.56-8.94-9.56-11-3.386-2.32-7.395-3.564-11.5-3.57-4.22 0-5.33 1.67-6.49 2s-4.08.31-6.3 2.4c-2.77 2.61-7.53 7.94-7.53 14.1.114 4.835.501 9.659 1.16 14.45s-1.35-1.44-2.43-.89c-1.76.91-1.46 5.18.22 8.19 1.88 3.35.11 7.38 4.21 7.58 0 0 .58 3.47.82 5.62.262 1.542.719 3.044 1.36 4.47l.28 8.12s-3.29 4.74-6.31 6.65c-2 1.23-25.56 11.77-27.77 13.58s-6.81 5.06-10.69 21.13l-1.75 6.38h-5.19v-129.67z" fill="#1580f2"/><path d="m802.43 251.5c-2.26-.86-18.16-3.59-21-5.41-1.43-.9-1.51-5.75-1.51-5.75 1.15-.23 11.43-1 13.62-17.7s-3.45-25.15-10.61-29.22c-6.44-3.66-14.9-.24-14.9-.24-4.066-.777-8.275.229-11.55 2.76-4.7 3.82-8.88 10.2-7.91 21.61.61 5 5.12 9.81 6.2 12.3.79 1.867.921 3.949.37 5.9-.03.147-.045.297-.045.447 0 1.071.772 1.999 1.825 2.193l2.49.46s1 2.43-1.47 6.16c-.412.615-1.029 1.065-1.74 1.27-4.11 1.18-17.08 4.57-20.16 6.45-3.39 2.07-8.07 7.88-9.13 26.35h87c-.89-19.14-5.87-25.45-11.48-27.58z" fill="#9eb1db"/><path d="m712.48 175.85v106.18c0 1.646 1.354 3 3 3h109.87c1.646 0 3-1.354 3-3v-106.18c0-1.646-1.354-3-3-3h-109.87c-1.646 0-3 1.354-3 3zm6 3h103.87v100.18h-103.87z" fill="#1580f2"/><path d="m642.9 255.43c-4.58-1.83-20.37-6.76-21.48-7.76s-1.74-4.86-2.27-6.34-2.58-1.89-2.58-1.89v-5.33c.665-2.183 1.058-4.44 1.17-6.72 2.55 0 3.18-3 3.34-4.3s.91-.74 1.7-4.92-2-4.06-2-4.06c.58-3.77.8-10.71-2.49-16.8s-10.24-7.64-14.26-7.65c-2.64 0-7.59-.21-11.24 2.86-3.3 2.79-7.4 8.78-7.51 12.31-.179 3.386.029 6.781.62 10.12s-3.24 1.28-.3 8.26c1.33 2.47.59 3.19 1.25 4 .677.691 1.733.858 2.59.41.551 2.712 1.361 5.364 2.42 7.92v4.34c-1.152.211-2.05 1.133-2.23 2.29-.33 1.39-.84 3.27-1.15 4.38-.16.594-.613 1.066-1.2 1.25-4 1.24-19.7 6.25-23.24 9.2-2.59 2.16-5.85 11.25-7.91 22h96.06c-2.53-11.5-6.45-22.43-9.29-23.57z" fill="#9eb1db"/><path d="m549.51 285.03h109.92c1.646 0 3-1.354 3-3v-106.18c0-1.646-1.354-3-3-3h-109.92c-1.646 0-3 1.354-3 3v106.18c0 1.646 1.354 3 3 3zm3-106.18h103.92v100.18h-103.92z" fill="#1580f2"/><path d="m271.2 712.27c-2.25-.86-18.16-3.6-21-5.41-1.43-.91-1.51-5.76-1.51-5.76 1.15-.23 11.43-.95 13.62-17.7s-3.44-25.14-10.61-29.22c-6.44-3.66-14.9-.23-14.9-.23-4.057-.798-8.267.186-11.55 2.7-4.7 3.82-8.88 10.21-7.91 21.61.61 5 5.12 9.81 6.2 12.3.79 1.87.924 3.954.38 5.91-.032.15-.047.302-.047.455 0 1.065.769 1.986 1.817 2.175l2.49.46s1 2.43-1.47 6.16c-.407.62-1.025 1.072-1.74 1.27-4.1 1.18-17.08 4.58-20.15 6.45-3.4 2.07-8.08 7.88-9.14 26.36h87.06c-.97-19.08-5.95-25.41-11.54-27.53z" fill="#9eb1db"/><path d="m294.1 633.61h-109.86c-1.646 0-3 1.354-3 3v106.19c0 1.646 1.354 3 3 3h109.86c1.646 0 3-1.354 3-3v-106.19c0-1.646-1.354-3-3-3zm-3 106.19h-103.86v-100.19h103.86z" fill="#1580f2"/><path d="m1164.98 582.87h3.72l1.24-4.51c3.11-12.86 6.78-15.47 8.55-16.91s20.65-9.87 22.22-10.86c2.42-1.52 5-5.32 5-5.32l-.22-6.49c-.509-1.143-.872-2.346-1.08-3.58-.2-1.72-.66-4.5-.66-4.5-3.28-.15-1.87-3.38-3.37-6.06-1.35-2.41-1.59-5.82-.18-6.55.87-.44 2 .71 2 .71-.528-3.833-.839-7.692-.93-11.56 0-4.93 3.81-9.19 6-11.28 1.77-1.67 4.1-1.64 5-1.91s1.82-1.61 5.2-1.61c3.284-.005 6.494.99 9.2 2.85 2.4 1.65 6.78 5.75 7.65 8.81.81 2.88 1.06 7.3-.36 14.67.506-.002 1.008.076 1.49.23 1 .38 1.86 2.27 1.29 4.61s-1.31 2.83-2 6.21c-.41 2-2.66 1.1-2.66 1.1s-.51 3.7-.57 4.68c-.331 1.501-.863 2.951-1.58 4.31l-.07 5.45s2.35 6 8.28 7.68c9.55 2.65 23.68 8.59 25.57 22.21.37 3.16.85 5.77 1.24 7.62h6.3v-102.54h-106.27z" fill="#fff"/><path d="m1238.18 553.04c-5.93-1.64-8.28-7.68-8.28-7.68l.07-5.45c.717-1.359 1.249-2.809 1.58-4.31.06-1 .57-4.68.57-4.68s2.25.86 2.66-1.1c.7-3.38 1.44-3.87 2-6.21s-.3-4.23-1.29-4.61c-.482-.154-.984-.232-1.49-.23 1.42-7.37 1.17-11.79.36-14.67-.87-3.06-5.25-7.16-7.65-8.81-2.706-1.86-5.916-2.855-9.2-2.85-3.38 0-4.27 1.33-5.2 1.61s-3.26.24-5 1.91c-2.22 2.09-6 6.35-6 11.28.091 3.868.402 7.727.93 11.56s-1.08-1.15-2-.71c-1.41.73-1.17 4.14.18 6.55 1.5 2.68.09 5.91 3.37 6.06 0 0 .46 2.78.66 4.5.208 1.234.571 2.437 1.08 3.58l.22 6.49s-2.62 3.8-5 5.32c-1.57 1-20.45 9.42-22.22 10.86s-5.44 4-8.55 16.91l-1.24 4.51h96.29c-.39-1.85-.87-4.46-1.24-7.62-1.93-13.62-16.06-19.56-25.61-22.21z" fill="#9eb1db"/><path d="m1161.98 474.33c-1.646 0-3 1.354-3 3v108.54c0 1.646 1.354 3 3 3h112.31c1.646 0 3-1.354 3-3v-108.54c0-1.646-1.354-3-3-3zm109.31 108.54h-106.31v-102.54h106.31z" fill="#1580f2"/><path d="m1173.6 716.19c-4.58-1.83-20.36-6.76-21.47-7.76s-1.75-4.86-2.27-6.34-2.58-1.89-2.58-1.89v-5.32c.659-2.184 1.049-4.441 1.16-6.72 2.55 0 3.18-3 3.34-4.31s.92-.74 1.71-4.91-2-4.07-2-4.07c.58-3.77.8-10.7-2.48-16.8s-10.24-7.64-14.27-7.65c-2.64 0-7.59-.21-11.24 2.87-3.3 2.78-7.4 8.77-7.51 12.31-.174 3.386.034 6.781.62 10.12s-3.24 1.27-.29 8.26c1.33 2.47.59 3.18 1.24 4 .678.69 1.736.854 2.59.4.549 2.712 1.36 5.364 2.42 7.92l.05 4.34c-1.154.21-2.056 1.131-2.24 2.29-.33 1.39-.84 3.27-1.14 4.39-.166.588-.618 1.055-1.2 1.24-4 1.25-19.71 6.25-23.24 9.2-2.59 2.16-5.86 11.25-7.92 22.05h96.06c-2.57-11.54-6.51-22.48-9.34-23.62z" fill="#9eb1db"/><path d="m1190.08 633.61h-109.87c-1.646 0-3 1.354-3 3v106.19c0 1.646 1.354 3 3 3h109.87c1.646 0 3-1.354 3-3v-106.19c0-1.646-1.354-3-3-3zm-3 106.19h-103.87v-100.19h103.87z" fill="#1580f2"/><path d="m1339.6 716.16c-2.89-1.1-23.21-4.59-26.87-6.91-1.82-1.16-1.92-7.36-1.92-7.36 1.46-.29 14.6-1.22 17.4-22.61s-4.41-32.13-13.56-37.34c-8.23-4.67-19-.3-19-.3s-8.13-1.94-14.76 3.45c-6 4.89-11.34 13-10.1 27.62.78 6.36 6.54 12.54 7.92 15.72 1.005 2.387 1.174 5.045.48 7.54-.04.19-.059.384-.059.578 0 1.362.98 2.542 2.319 2.792l3.19.59s1.24 3.1-1.88 7.87c-.524.791-1.316 1.366-2.23 1.62-5.24 1.51-21.82 5.84-25.75 8.24-4.39 2.68-10.46 10.25-11.72 34.51h111.33c-1.14-25.04-7.58-33.23-14.79-36.01z" fill="#f37a78"/><path d="m1368.86 616.49h-140.43c-1.646 0-3 1.354-3 3v135.68c0 1.646 1.354 3 3 3h140.39c1.646 0 3-1.354 3-3v-135.68c0-1.631-1.329-2.978-2.96-3zm-3 135.68h-134.43v-129.68h134.39z" fill="#1580f2"/><path d="m106.31 578.36c3.1-12.86 6.77-15.47 8.55-16.91s20.65-9.87 22.22-10.86c2.41-1.52 5-5.32 5-5.32l-.22-6.49c-.517-1.141-.883-2.344-1.09-3.58-.19-1.72-.65-4.5-.65-4.5-3.28-.15-1.87-3.38-3.37-6.06-1.35-2.41-1.59-5.82-.18-6.55.87-.44 1.94.71 1.94.71-.523-3.833-.83-7.692-.92-11.56 0-4.93 3.8-9.19 6-11.28 1.78-1.67 4.11-1.64 5-1.91s1.82-1.61 5.19-1.61c3.284-.005 6.494.99 9.2 2.85 2.41 1.65 6.79 5.75 7.65 8.81.82 2.88 1.07 7.3-.35 14.67.506-.002 1.008.076 1.49.23 1 .38 1.85 2.27 1.29 4.61s-1.31 2.83-2 6.21c-.41 2-2.66 1.1-2.66 1.1s-.5 3.7-.57 4.68c-.294 1.51-.799 2.971-1.5 4.34l-.07 5.45s2.35 6 8.29 7.68c9.54 2.65 23.67 8.59 25.56 22.21.38 3.16.85 5.77 1.24 7.62h6.3v-102.57h-106.31v102.54h3.72z" fill="#fff"/><path d="m174.55 553.04c-5.94-1.64-8.29-7.68-8.29-7.68l.07-5.45c.726-1.355 1.258-2.806 1.58-4.31.07-1 .57-4.68.57-4.68s2.25.86 2.66-1.1c.71-3.38 1.45-3.87 2-6.21s-.3-4.23-1.29-4.61c-.482-.154-.984-.232-1.49-.23 1.42-7.37 1.17-11.79.35-14.67-.86-3.06-5.24-7.16-7.65-8.81-2.706-1.86-5.916-2.855-9.2-2.85-3.37 0-4.26 1.33-5.19 1.61s-3.26.24-5 1.91c-2.22 2.09-6 6.35-6 11.28.09 3.868.397 7.727.92 11.56s-1.07-1.15-1.94-.71c-1.41.73-1.17 4.14.18 6.55 1.5 2.68.09 5.91 3.37 6.06 0 0 .46 2.78.65 4.5.207 1.236.573 2.439 1.09 3.58l.22 6.49s-2.63 3.8-5 5.32c-1.57 1-20.45 9.42-22.22 10.86s-5.45 4-8.55 16.91l-1.25 4.51h96.29c-.39-1.85-.86-4.46-1.24-7.62-1.97-13.62-16.1-19.56-25.64-22.21z" fill="#9eb1db"/><path d="m210.65 588.87c1.646 0 3-1.354 3-3v-108.54c0-1.646-1.354-3-3-3h-112.31c-1.646 0-3 1.354-3 3v108.54c0 1.646 1.354 3 3 3zm-109.31-108.54h106.31v102.54h-106.31z" fill="#1580f2"/><path d="m122.33 719.86c-5.85-2.34-26-8.64-27.44-9.92s-2.22-6.2-2.9-8.09-3.29-2.42-3.29-2.42v-6.81c.847-2.788 1.348-5.67 1.49-8.58 3.25 0 4.05-3.79 4.26-5.5s1.17-1 2.18-6.28-2.6-5.19-2.6-5.19c.74-4.83 1-13.69-3.18-21.48s-13.08-9.75-18.23-9.77c-3.36 0-9.69-.27-14.35 3.66-4.22 3.56-9.46 11.21-9.6 15.73-.234 4.325.021 8.662.76 12.93s-4.14 1.63-.37 10.56c1.7 3.15.75 4.06 1.58 5.1 1.25 1.54 3.32.51 3.32.51.699 3.466 1.734 6.855 3.09 10.12l.05 5.55c-1.468.272-2.613 1.446-2.85 2.92-.42 1.78-1.07 4.18-1.46 5.61-.212.753-.793 1.349-1.54 1.58-5.12 1.6-25.18 8-29.69 11.76-3.38 2.82-7.66 14.85-10.27 29h123.14c-3.26-15.03-8.39-29.5-12.1-30.99z" fill="#453b69"/><path d="m143.43 615.18h-140.43c-1.646 0-3 1.354-3 3v135.67c0 1.646 1.354 3 3 3h140.43c1.646 0 3-1.354 3-3v-135.67c0-1.646-1.354-3-3-3zm-3 135.67h-134.43v-129.67h134.43z" fill="#1580f2"/></g></svg>