<?xml version="1.0" encoding="UTF-8" standalone="no"?><!DOCTYPE svg PUBLIC "-//W3C//DTD SVG 1.1//EN" "http://www.w3.org/Graphics/SVG/1.1/DTD/svg11.dtd"><svg width="100%" height="100%" viewBox="0 0 1440 807" version="1.1" xmlns="http://www.w3.org/2000/svg" xmlns:xlink="http://www.w3.org/1999/xlink" xml:space="preserve" xmlns:serif="http://www.serif.com/" style="fill-rule:evenodd;clip-rule:evenodd;stroke-linejoin:round;stroke-miterlimit:1.41421;"><path d="M406.03,517.44l227.84,0l0,-227.85l-227.84,0l0,227.85Zm49.62,-135.73l128.6,0c11.949,0.254 21.64,10.153 21.64,22.105c0,11.952 -9.691,21.851 -21.64,22.105l-128.6,0c-11.949,-0.254 -21.64,-10.153 -21.64,-22.105c0,-11.952 9.691,-21.851 21.64,-22.105Z" style="fill:#fff;fill-rule:nonzero;"/><path d="M1320.01,345.49l-64.23,111.25l128.45,0l-64.22,-111.25Z" style="fill:#fff;fill-rule:nonzero;"/><circle cx="519.95" cy="119.93" r="66.42" style="fill:#fff;"/><path d="M406.03,801l227.84,0l0,-227.82l-227.84,0l0,227.82Zm49.62,-176.34l128.6,0c11.949,0.254 21.64,10.153 21.64,22.105c0,11.952 -9.691,21.851 -21.64,22.105l-128.6,0c-11.949,-0.254 -21.64,-10.153 -21.64,-22.105c0,-11.952 9.691,-21.851 21.64,-22.105Zm0,80.64l128.6,0c12.124,0 22.1,9.976 22.1,22.1c0,12.124 -9.976,22.1 -22.1,22.1l-128.6,0c-12.124,0 -22.1,-9.976 -22.1,-22.1c0,-12.124 9.976,-22.1 22.1,-22.1Z" style="fill:#fff;fill-rule:nonzero;"/><path d="M406.03,233.85l227.84,0l0,-227.85l-227.84,0l0,227.85Zm113.92,-186.35c0.003,0 0.007,0 0.01,0c39.734,0 72.43,32.696 72.43,72.43c0,39.734 -32.696,72.43 -72.43,72.43c-39.734,0 -72.43,-32.696 -72.43,-72.43c0.044,-39.714 32.706,-72.381 72.42,-72.43Z" style="fill:#fff;fill-rule:nonzero;"/><path d="M1206.08,801l227.85,0l0,-110.9l-227.85,0l0,110.9Zm49.63,-79.5l128.59,0c0.157,-0.003 0.313,-0.005 0.47,-0.005c12.129,0 22.11,9.981 22.11,22.11c0,12.129 -9.981,22.11 -22.11,22.11c-0.157,0 -0.313,-0.002 -0.47,-0.005l-128.59,0c-0.157,0.003 -0.313,0.005 -0.47,0.005c-12.129,0 -22.11,-9.981 -22.11,-22.11c0,-12.129 9.981,-22.11 22.11,-22.11c0.157,0 0.313,0.002 0.47,0.005Z" style="fill:#fff;fill-rule:nonzero;"/><rect x="6" y="6.01" width="227.84" height="227.84" style="fill:#fff;"/><path d="M1206.08,233.85l227.85,0l0,-227.85l-227.85,0l0,227.85Zm113.92,-186.35c0.003,0 0.007,0 0.01,0c39.734,0 72.43,32.696 72.43,72.43c0,39.734 -32.696,72.43 -72.43,72.43c-39.734,0 -72.43,-32.696 -72.43,-72.43c0.044,-39.714 32.706,-72.381 72.42,-72.43Z" style="fill:#fff;fill-rule:nonzero;"/><path d="M1033.9,6l-227.84,0l0,227.85l227.84,0l0,-227.85Zm-49.63,136l-128.56,0c-0.157,0.003 -0.313,0.005 -0.47,0.005c-12.129,0 -22.11,-9.981 -22.11,-22.11c0,-12.129 9.981,-22.11 22.11,-22.11c0.157,0 0.313,0.002 0.47,0.005l128.59,0c0.157,-0.003 0.313,-0.005 0.47,-0.005c12.129,0 22.11,9.981 22.11,22.11c0,12.129 -9.981,22.11 -22.11,22.11c-0.157,0 -0.313,-0.002 -0.47,-0.005l-0.03,0Z" style="fill:#fff;fill-rule:nonzero;"/><path d="M1206.08,517.44l227.85,0l0,-227.85l-227.85,0l0,227.85Zm41.9,-59.2l69.43,-120.24c0.536,-0.924 1.527,-1.495 2.595,-1.495c1.068,0 2.059,0.571 2.595,1.495l69.43,120.25c0.263,0.456 0.402,0.973 0.402,1.5c0,1.646 -1.354,3 -3,3c-0.001,0 -0.001,0 -0.002,0l-138.85,0c-0.001,0 -0.001,0 -0.002,0c-1.646,0 -3,-1.354 -3,-3c0,-0.527 0.139,-1.044 0.402,-1.5l0,-0.01Z" style="fill:#fff;fill-rule:nonzero;"/><path d="M239.84,236.85l0,-233.85c0,-1.646 -1.354,-3 -3,-3l-233.84,0c-1.646,0 -3,1.354 -3,3l0,233.85c0,1.646 1.354,3 3,3l233.84,0c1.646,0 3,-1.354 3,-3Zm-6,-3l-227.84,0l0,-227.85l227.84,0l0,227.85Z" style="fill:#1580f2;fill-rule:nonzero;"/><path d="M1436.93,0l-233.85,0c-1.646,0 -3,1.354 -3,3l0,233.85c0,1.646 1.354,3 3,3l233.85,0c1.646,0 3,-1.354 3,-3l0,-233.85c0,-1.646 -1.354,-3 -3,-3Zm-3,233.84l-227.85,0l0,-227.84l227.85,0l0,227.84Z" style="fill:#1580f2;fill-rule:nonzero;"/><path d="M803.06,239.85l233.84,0c1.646,0 3,-1.354 3,-3l0,-233.85c0,-1.646 -1.354,-3 -3,-3l-233.84,0c-1.646,0 -3,1.354 -3,3l0,233.85c0,1.646 1.354,3 3,3Zm3,-233.84l227.84,0l0,227.84l-227.84,0l0,-227.84Z" style="fill:#1580f2;fill-rule:nonzero;"/><path d="M636.87,0l-233.84,0c-1.646,0 -3,1.354 -3,3l0,233.85c0,1.646 1.354,3 3,3l233.84,0c1.646,0 3,-1.354 3,-3l0,-233.85c0,-1.646 -1.354,-3 -3,-3Zm-3,233.84l-227.84,0l0,-227.84l227.84,0l0,227.84Z" style="fill:#1580f2;fill-rule:nonzero;"/><path d="M636.87,283.59l-233.84,0c-1.646,0 -3,1.354 -3,3l0,233.85c0,1.646 1.354,3 3,3l233.84,0c1.646,0 3,-1.354 3,-3l0,-233.85c0,-1.646 -1.354,-3 -3,-3Zm-3,233.85l-227.84,0l0,-227.85l227.84,0l0,227.85Z" style="fill:#1580f2;fill-rule:nonzero;"/><path d="M1436.93,283.59l-233.85,0c-1.646,0 -3,1.354 -3,3l0,233.85c0,1.646 1.354,3 3,3l233.85,0c1.646,0 3,-1.354 3,-3l0,-233.85c0,-1.646 -1.354,-3 -3,-3Zm-3,233.85l-227.85,0l0,-227.85l227.85,0l0,227.85Z" style="fill:#1580f2;fill-rule:nonzero;"/><path d="M636.87,567.18l-233.84,0c-1.646,0 -3,1.354 -3,3l0,233.82c0,1.646 1.354,3 3,3l233.84,0c1.646,0 3,-1.354 3,-3l0,-233.82c0,-1.646 -1.354,-3 -3,-3Zm-3,233.84l-227.84,0l0,-227.84l227.84,0l0,227.84Z" style="fill:#1580f2;fill-rule:nonzero;"/><path d="M1436.93,684.1l-233.85,0c-1.646,0 -3,1.354 -3,3l0,116.9c0,1.646 1.354,3 3,3l233.85,0c1.646,0 3,-1.354 3,-3l0,-116.9c0,-1.646 -1.354,-3 -3,-3Zm-3,116.92l-227.85,0l0,-110.92l227.85,0l0,110.92Z" style="fill:#1580f2;fill-rule:nonzero;"/><path d="M519.95,192.35c0.003,0 0.007,0 0.01,0c39.734,0 72.43,-32.696 72.43,-72.43c0,-39.734 -32.696,-72.43 -72.43,-72.43c-39.734,0 -72.43,32.696 -72.43,72.43c0,0.003 0,0.007 0,0.01c0.049,39.71 32.71,72.371 72.42,72.42Zm0,-138.85c0.003,0 0.007,0 0.01,0c36.442,0 66.43,29.988 66.43,66.43c0,36.442 -29.988,66.43 -66.43,66.43c-36.442,0 -66.43,-29.988 -66.43,-66.43c0.038,-36.424 29.996,-66.386 66.42,-66.43Z" style="fill:#f37a78;fill-rule:nonzero;"/><path d="M1258.45,81.9c21.015,-33.999 65.679,-44.541 99.679,-23.526c33.999,21.014 44.541,65.679 23.526,99.678c-21.015,34 -65.679,44.541 -99.679,23.527c-33.999,-21.015 -44.541,-65.68 -23.526,-99.679Z" style="fill:#453b69;"/><path d="M984.27,97.82l-128.56,0c-0.157,-0.003 -0.313,-0.005 -0.47,-0.005c-12.129,0 -22.11,9.981 -22.11,22.11c0,12.129 9.981,22.11 22.11,22.11c0.157,0 0.313,-0.002 0.47,-0.005l128.59,0c0.157,0.003 0.313,0.005 0.47,0.005c12.129,0 22.11,-9.981 22.11,-22.11c0,-12.129 -9.981,-22.11 -22.11,-22.11c-0.157,0 -0.313,0.002 -0.47,0.005l-0.03,0Z" style="fill:#453b69;fill-rule:nonzero;"/><path d="M455.65,668.89l128.6,0c11.949,-0.254 21.64,-10.153 21.64,-22.105c0,-11.952 -9.691,-21.851 -21.64,-22.105l-128.6,0c-11.949,0.254 -21.64,10.153 -21.64,22.105c0,11.952 9.691,21.851 21.64,22.105Z" style="fill:#f37a78;fill-rule:nonzero;"/><path d="M57.71,142l128.6,0c11.949,-0.254 21.64,-10.153 21.64,-22.105c0,-11.952 -9.691,-21.851 -21.64,-22.105l-128.6,0c-11.949,0.254 -21.64,10.153 -21.64,22.105c0,11.952 9.691,21.851 21.64,22.105Z" style="fill:#1580f2;fill-rule:nonzero;"/><path d="M1255.71,765.73l128.59,0c0.157,0.003 0.313,0.005 0.47,0.005c12.129,0 22.11,-9.981 22.11,-22.11c0,-12.129 -9.981,-22.11 -22.11,-22.11c-0.157,0 -0.313,0.002 -0.47,0.005l-128.59,0c-0.157,-0.003 -0.313,-0.005 -0.47,-0.005c-12.129,0 -22.11,9.981 -22.11,22.11c0,12.129 9.981,22.11 22.11,22.11c0.157,0 0.313,-0.002 0.47,-0.005Z" style="fill:#1580f2;fill-rule:nonzero;"/><path d="M455.65,749.52l128.6,0c12.124,0 22.1,-9.976 22.1,-22.1c0,-12.124 -9.976,-22.1 -22.1,-22.1l-128.6,0c-12.124,0 -22.1,9.976 -22.1,22.1c0,12.124 9.976,22.1 22.1,22.1Z" style="fill:#f37a78;fill-rule:nonzero;"/><path d="M1250.58,462.74l138.85,0c0.001,0 0.001,0 0.002,0c1.646,0 3,-1.354 3,-3c0,-0.527 -0.139,-1.044 -0.402,-1.5l-69.43,-120.24c-0.536,-0.924 -1.527,-1.495 -2.595,-1.495c-1.068,0 -2.059,0.571 -2.595,1.495l-69.43,120.25c-0.263,0.456 -0.402,0.973 -0.402,1.5c0,1.646 1.354,3 3,3c0.001,0 0.001,0 0.002,0l0,-0.01Zm69.42,-117.25l64.23,111.25l-128.45,0l64.22,-111.25Z" style="fill:#453b69;fill-rule:nonzero;"/><path d="M1213.08,563.44l100.85,0c1.646,0 3,-1.354 3,-3c0,-1.646 -1.354,-3 -3,-3l-100.85,0c-1.646,0 -3,1.354 -3,3c0,1.646 1.354,3 3,3Z" style="fill:#453b69;fill-rule:nonzero;"/><path d="M1213.08,593.44l213.85,0c1.646,0 3,-1.354 3,-3c0,-1.646 -1.354,-3 -3,-3l-213.85,0c-1.646,0 -3,1.354 -3,3c0,1.646 1.354,3 3,3Z" style="fill:#453b69;fill-rule:nonzero;"/><path d="M1213.08,623.44l170.85,0c1.646,0 3,-1.354 3,-3c0,-1.646 -1.354,-3 -3,-3l-170.85,0c-1.646,0 -3,1.354 -3,3c0,1.646 1.354,3 3,3Z" style="fill:#453b69;fill-rule:nonzero;"/><path d="M113.85,333.85l-100.85,0c-1.646,0 -3,1.354 -3,3c0,1.646 1.354,3 3,3l100.85,0c1.646,0 3,-1.354 3,-3c0,-1.646 -1.354,-3 -3,-3Z" style="fill:#453b69;fill-rule:nonzero;"/><path d="M226.84,303.85l-213.84,0c-1.646,0 -3,1.354 -3,3c0,1.646 1.354,3 3,3l213.84,0c1.646,0 3,-1.354 3,-3c0,-1.646 -1.354,-3 -3,-3Z" style="fill:#453b69;fill-rule:nonzero;"/><path d="M226.84,273.85l-213.84,0c-1.646,0 -3,1.354 -3,3c0,1.646 1.354,3 3,3l213.84,0c1.646,0 3,-1.354 3,-3c0,-1.646 -1.354,-3 -3,-3Z" style="fill:#453b69;fill-rule:nonzero;"/><path d="M361.44,686c-0.046,-0.15 -0.103,-0.298 -0.17,-0.44c-0.033,-0.069 -0.07,-0.135 -0.11,-0.2c-0.074,-0.129 -0.158,-0.253 -0.25,-0.37l-0.14,-0.17c-0.127,-0.134 -0.264,-0.257 -0.41,-0.37c-0.146,-0.113 0,0 -0.07,-0.06l-30.77,-21.45c-0.516,-0.382 -1.142,-0.588 -1.784,-0.588c-1.646,0 -3,1.354 -3,3c0,1.01 0.51,1.954 1.354,2.508l23,16l-33.55,0c-106.37,0 -192.91,-86.53 -192.91,-192.9l0,-114.11c0,-1.646 -1.354,-3 -3,-3c-1.646,0 -3,1.354 -3,3l0,114.09c0,109.68 89.23,198.9 198.91,198.9l33.48,0l-23,16c-0.812,0.559 -1.297,1.484 -1.297,2.47c0,1.646 1.354,3 3,3c0.002,0 0.005,0 0.007,0c0.615,0.001 1.216,-0.188 1.72,-0.54l30.81,-21.47l0.08,-0.07c0.143,-0.109 0.276,-0.23 0.4,-0.36c0.05,-0.06 0.09,-0.12 0.14,-0.17c0.092,-0.117 0.176,-0.241 0.25,-0.37c0.04,-0.065 0.077,-0.131 0.11,-0.2c0.067,-0.142 0.124,-0.29 0.17,-0.44c0.004,-0.06 0.004,-0.12 0,-0.18c0.12,-0.442 0.12,-0.908 0,-1.35c0.014,-0.053 0.024,-0.106 0.03,-0.16Z" style="fill:#9eb1db;fill-rule:nonzero;"/><path d="M1137.98,427c0.561,0.809 1.486,1.292 2.47,1.29c0.612,0.002 1.21,-0.186 1.71,-0.54l30.77,-21.44l0.07,-0.06c0.15,-0.107 0.288,-0.231 0.41,-0.37c0.052,-0.052 0.099,-0.109 0.14,-0.17c0.098,-0.113 0.182,-0.237 0.25,-0.37l0.11,-0.19c0.067,-0.146 0.124,-0.296 0.17,-0.45l0.06,-0.18c0.052,-0.22 0.079,-0.444 0.08,-0.67c-0.001,-0.226 -0.028,-0.45 -0.08,-0.67l-0.06,-0.19c-0.046,-0.15 -0.103,-0.298 -0.17,-0.44c-0.031,-0.067 -0.068,-0.13 -0.11,-0.19c-0.066,-0.134 -0.15,-0.259 -0.25,-0.37c-0.041,-0.061 -0.088,-0.118 -0.14,-0.17c-0.122,-0.139 -0.26,-0.263 -0.41,-0.37l-0.07,-0.06l-30.77,-21.44c-0.516,-0.382 -1.142,-0.588 -1.784,-0.588c-1.646,0 -3,1.354 -3,3c0,1.01 0.51,1.954 1.354,2.508l23,16l-255.14,0c-1.47,-0.14 -3,-0.22 -4.47,-0.22c-0.381,0.002 -0.757,0.077 -1.11,0.22l-110.76,0c-36.739,-0.044 -66.956,-30.261 -67,-67l0,-170.56c-0.027,-25.433 -20.947,-46.353 -46.38,-46.38c-1.646,0 -3,1.354 -3,3c0,1.646 1.354,3 3,3c22.141,0.027 40.353,18.239 40.38,40.38l0,170.51c0.049,40.028 32.972,72.951 73,73l116.08,0c20.456,2.162 36.167,19.61 36.18,40.18l0,226.63c0.044,40.03 32.97,72.956 73,73l146.2,0l-23,16c-0.803,0.561 -1.283,1.48 -1.283,2.46c0,1.646 1.354,3 3,3c0.001,0 0.002,0 0.003,0c0.612,0.002 1.21,-0.186 1.71,-0.54l30.77,-21.44l0.07,-0.06c0.15,-0.107 0.288,-0.231 0.41,-0.37c0.052,-0.052 0.099,-0.109 0.14,-0.17c0.098,-0.113 0.182,-0.237 0.25,-0.37l0.11,-0.19c0.067,-0.146 0.124,-0.296 0.17,-0.45l0.06,-0.18c0.052,-0.22 0.079,-0.444 0.08,-0.67c-0.001,-0.226 -0.028,-0.45 -0.08,-0.67l-0.06,-0.19c-0.046,-0.15 -0.103,-0.298 -0.17,-0.44c-0.031,-0.067 -0.068,-0.13 -0.11,-0.19c-0.066,-0.134 -0.15,-0.259 -0.25,-0.37c-0.041,-0.061 -0.088,-0.118 -0.14,-0.17c-0.122,-0.139 -0.26,-0.263 -0.41,-0.37l-0.07,-0.06l-30.77,-21.44c-0.516,-0.382 -1.142,-0.588 -1.784,-0.588c-1.646,0 -3,1.354 -3,3c0,1.01 0.51,1.954 1.354,2.508l23,16l-146.2,0c-36.741,-0.038 -66.962,-30.259 -67,-67l0,-226.67c-0.015,-16.554 -8.887,-31.894 -23.23,-40.16l236.43,0l-23,16c-1.335,0.945 -1.663,2.817 -0.73,4.16Z" style="fill:#9eb1db;fill-rule:nonzero;"/></svg>