<svg viewBox="0 0 1035 805" xmlns="http://www.w3.org/2000/svg" fill-rule="evenodd" clip-rule="evenodd" stroke-linejoin="round" stroke-miterlimit="1.41421"><path d="M6 254.4h431v-161H6v161zm339.9-21.1h60.8c1.7 0 3 1.3 3 3s-1.3 3-3 3h-60.8c-1.7 0-3-1.3-3-3s1.3-3 3-3zm-39.4 3c0 1.7-1.3 3-3 3h-60.8c-1.7 0-3-1.3-3-3s1.3-3 3-3h60.8c1.7 0 3 1.3 3 3zm-85-129.6c24.1 0 43.7 19.5 43.7 43.6 0 14.4-7 27.8-18.9 35.9l-.1.1c-4.2 2.9-8.8 5-13.7 6.3h-.2c-.6.1-1.2.3-1.8.4l-.3.1c-1.3.3-2.7.5-4 .6h-.5c-.5 0-1 .1-1.5.1H219c-.5 0-1-.1-1.5-.1h-.5c-1.3-.1-2.7-.4-4-.6l-.3-.1c-.6-.1-1.2-.3-1.8-.4h-.2c-4.9-1.3-9.5-3.4-13.7-6.2l-.1-.1c-19.9-13.6-24.9-40.8-11.3-60.7 8.1-11.8 21.5-18.9 35.9-18.9zm-51.7 99.2c5.6 0 10 4.5 10 10 0 5.6-4.5 10.1-10 10.1-5.6 0-10-4.5-10-10 0-5.6 4.5-10 10-10.1zm-30.3 27.4h60.8c1.7 0 3 1.3 3 3s-1.3 3-3 3h-60.8c-1.7 0-3-1.3-3-3s1.4-3 3-3zm-103.1 0h60.8c1.7 0 3 1.3 3 3s-1.3 3-3 3H36.4c-1.7 0-3-1.3-3-3s1.3-3 3-3zM386.4 6H56.6C28.6 6 6 28.7 6 56.7v30.8h431V56.7c0-28-22.7-50.7-50.6-50.7zm-306 55H43c-2.2 0-4-1.8-4-4s1.8-4 4-4h37.4c2.2 0 4 1.8 4 4s-1.8 4-4 4zm203 0H159.6c-2.2 0-4-1.8-4-4s1.8-4 4-4h123.8c2.2 0 4 1.8 4 4s-1.8 4-4 4zm116.5 0h-37.4c-2.2 0-4-1.8-4-4s1.8-4 4-4h37.4c2.2 0 4 1.8 4 4s-1.8 4-4 4zM6 520.8h431V260.4H6v260.4zm215.5-188.3c24.1 0 43.7 19.6 43.7 43.7s-19.6 43.7-43.7 43.7-43.7-19.6-43.7-43.7c.1-24.2 19.6-43.7 43.7-43.7zm-51.7 110h106.1c1.7 0 3 1.3 3 3s-1.3 3-3 3H169.8c-1.7 0-3-1.3-3-3s1.4-3 3-3zM6 748.1c0 27.9 22.7 50.6 50.6 50.6h329.7c27.9 0 50.6-22.7 50.6-50.6V526.8H6v221.3zm328.3-21.9c0 1.7-1.3 3-3 3h-42.2c-1.7 0-3-1.3-3-3s1.3-3 3-3h42.1c1.7 0 3.1 1.4 3.1 3zm-6.3-38.7c1.2 1.2 1.2 3.1 0 4.2L306.7 713c-.6.6-1.3.9-2.1.9s-1.6-.3-2.1-.9l-10.7-10.7c-1.2-1.2-1.2-3.1 0-4.2s3.1-1.2 4.2 0l8.5 8.5 19.2-19.2c1.2-1 3.1-1 4.3.1zm-276.9-123h166.1c1.7 0 3 1.3 3 3s-1.3 3-3 3H51.1c-1.7 0-3-1.3-3-3s1.3-3 3-3zm0 24.7h251.5c1.7 0 3 1.3 3 3s-1.3 3-3 3H51.1c-1.7 0-3-1.3-3-3s1.3-3 3-3zm0 24.7h251.5c1.7 0 3 1.3 3 3s-1.3 3-3 3H51.1c-1.7 0-3-1.3-3-3s1.3-3 3-3zm0 24.6h166.1c1.7 0 3 1.3 3 3s-1.3 3-3 3H51.1c-1.7 0-3-1.3-3-3s1.3-3 3-3zm71 53.2c-1.2-1.2-1.2-3.1 0-4.2s3.1-1.2 4.2 0l8.5 8.5 8.5-8.5c1.2-1.1 3.1-1.1 4.2.1 1.1 1.2 1.1 2.9 0 4.1l-8.5 8.5 8.5 8.5c1.2 1.2 1.2 3.1 0 4.2s-3.1 1.2-4.2 0l-8.5-8.5-8.5 8.5c-1.2 1.2-3.1 1.2-4.2 0s-1.2-3.1 0-4.2l8.5-8.5-8.5-8.5zm34.4 31.5c1.7 0 3 1.3 3 3s-1.3 3-3 3h-42.1c-1.7 0-3-1.3-3-3s1.3-3 3-3h42.1zM51.1 764.6h194.5c1.7 0 3 1.3 3 3s-1.3 3-3 3H51.1c-1.7 0-3-1.3-3-3s1.3-3 3-3zM598 748.1c0 27.9 22.7 50.6 50.6 50.6h329.7c27.9 0 50.6-22.7 50.6-50.6V524.3H598v223.8zm314 22.5H717.6c-1.7 0-3-1.3-3-3s1.3-3 3-3H912c1.7 0 3 1.3 3 3s-1.3 3-3 3zm72-82.8v25.1c0 7.4-6 13.4-13.4 13.4H831.4c-7.4 0-13.4-6-13.4-13.4v-25.1c0-7.4 6-13.4 13.4-13.4h139.2c7.4 0 13.4 6 13.4 13.4zm-252.2-43.2c-1.7 0-3-1.3-3-3s1.3-3 3-3h166.1c1.7 0 3 1.3 3 3s-1.3 3-3 3H731.8zm0-80.5h166.1c1.9 0 3.5 1.6 3.5 3.5s-1.6 3.5-3.5 3.5H731.8c-1.9 0-3.5-1.6-3.5-3.5s1.5-3.5 3.5-3.5zm-42.7 25.1h251.5c1.7 0 3 1.3 3 3s-1.3 3-3 3H689.1c-1.7 0-3-1.3-3-3s1.3-3 3-3zm0 24.7h251.5c1.7 0 3 1.3 3 3s-1.3 3-3 3H689.1c-1.7 0-3-1.3-3-3s1.3-3 3-3zM643 687.8c0-7.4 6-13.4 13.4-13.4h139.2c7.4 0 13.4 6 13.4 13.4v25.1c0 7.4-6 13.4-13.4 13.4H656.4c-7.4 0-13.4-6-13.4-13.4v-25.1z" fill="#fff" fill-rule="nonzero"/><path d="M764 280.4c-1.2 1.2-3.1 1.2-4.2 0l-20.6-20.6H598v264.5h431V259.8H784.7L764 280.4zm-4.4 33.9c.6-1.5 2.4-2.2 3.9-1.6l11.6 4.8c1.5.6 2.3 2.3 1.7 3.9-.6 1.6-2.3 2.3-3.9 1.7-.1 0-.1 0-.2-.1l-11.6-4.8c-1.4-.6-2.1-2.4-1.5-3.9zm-23.1-9.7c.6-1.5 2.4-2.2 3.9-1.6l11.6 4.8c1.5.6 2.3 2.3 1.7 3.9-.6 1.6-2.3 2.3-3.9 1.7-.1 0-.1 0-.2-.1l-11.6-4.8c-1.4-.6-2.1-2.4-1.5-3.9zm-23.1-9.6c.6-1.5 2.4-2.3 3.9-1.6l11.6 4.8c1.5.6 2.3 2.4 1.6 3.9-.5 1.1-1.6 1.9-2.8 1.8-.4 0-.8-.1-1.2-.2l-11.6-4.8c-1.4-.7-2.1-2.4-1.5-3.9zm-14.3-17.2c6.2 0 11.2 4.9 11.2 11.1 0 6.2-4.9 11.2-11.1 11.2-6.2 0-11.2-4.9-11.2-11.1 0-6.2 5-11.2 11.1-11.2zm-27.4 23.5l10.3-6c1.5-.8 3.3-.2 4 1.3.7 1.4.3 3.1-1 3.9l-10.3 6c-.5.3-1 .4-1.5.4-1.7 0-3-1.3-3-3 0-1 .6-2 1.5-2.6zm-20.7 12l10.3-6c1.5-.8 3.3-.2 4 1.3.7 1.4.3 3.1-1 3.9l-10.3 6c-1.4.9-3.3.5-4.1-.9-.9-1.4-.5-3.3.9-4.1l.2-.2zm-20.7 12l10.3-6c1.4-.8 3.3-.3 4.1 1.1.8 1.4.3 3.3-1.1 4.1l-10.3 6c-.5.3-1 .4-1.5.4-1.7 0-3-1.3-3-3 0-1 .6-2 1.5-2.6zm-15.5 9l5.2-3c1.4-.9 3.3-.5 4.1.9.8 1.4.5 3.3-.9 4.1-.1 0-.1.1-.2.1l-5.2 3c-.5.3-1 .4-1.5.4-1.7 0-3-1.3-3-3 0-.9.6-1.9 1.5-2.5zm-1.5 167.4c0-1.7 1.3-3 3-3h392.3c1.7 0 3 1.3 3 3s-1.3 3-3 3H616.3c-1.6 0-3-1.4-3-3 0 0 0-.1 0 0zM1021 362c0 1.7-1.3 3-3 3-38.2 0-53.6 30-66 54.1-8.4 16.4-15.7 30.6-28.4 30.6-14.1 0-20.5-12.7-26.1-23.9-4.3-8.5-7.9-15.9-13.8-15.9-4.1 0-6.8 4.1-11.3 11.3-7.8 12.6-19.5 31.7-54.5 31.7-27.9 0-45.6-27.8-62.8-54.7-16.7-26.2-32.5-50.9-56.1-50.9-23.8 0-33.2 17.4-43.2 35.9-10.2 18.8-20.7 38.3-47 38.3-1.7 0-3-1.3-3-3s1.3-3 3-3c22.8 0 32-17.1 41.7-35.1 10.4-19.2 21.1-39.1 48.4-39.1 26.9 0 44.3 27.3 61.2 53.7 16.3 25.5 33.2 51.9 57.7 51.9 31.6 0 41.5-16 49.4-28.8 4.7-7.6 8.7-14.2 16.4-14.2 9.5 0 14.4 9.8 19.1 19.2 5.1 10.1 10.3 20.6 20.7 20.6 9 0 15.6-12.7 23.1-27.4 12.4-24.2 29.5-57.4 71.3-57.4 1.8.1 3.2 1.4 3.2 3.1zm-19-48.8l5.5-2.3c1.5-.7 3.3 0 4 1.5.7 1.5 0 3.3-1.5 4-.1 0-.1.1-.2.1l-5.5 2.3c-1.5.7-3.3 0-4-1.5-.7-1.5 0-3.3 1.5-4 .1-.1.1-.1.2-.1zm-20.7 8.7l10.4-4.4c1.5-.7 3.3 0 4 1.5.7 1.5 0 3.3-1.5 4-.1 0-.1.1-.2.1l-10.4 4.4c-.4.2-.8.2-1.2.2-1.7 0-3-1.4-3-3 0-1.3.8-2.3 1.9-2.8zm-20.8 8.7l10.4-4.4c1.5-.6 3.3.1 3.9 1.6.6 1.5-.1 3.3-1.6 3.9l-10.4 4.3c-.4.2-.8.2-1.2.2-1.7 0-3-1.3-3-3 .1-1 .8-2.1 1.9-2.6zm-20.7 8.7l10.4-4.4c1.5-.7 3.3 0 4 1.5.7 1.5 0 3.3-1.5 4-.1 0-.1.1-.2.1l-10.4 4.4c-1.5.6-3.3-.2-3.9-1.7-.5-1.6.1-3.3 1.6-3.9zM919 348l10.4-4.4c1.5-.6 3.3.1 3.9 1.6.6 1.5-.1 3.3-1.6 3.9l-10.4 4.3c-1.5.7-3.3 0-4-1.5-.7-1.5 0-3.3 1.5-4 .1.1.1.1.2.1zm-20.7 8.7l10.4-4.4c1.5-.6 3.3.2 3.9 1.7.6 1.5-.1 3.1-1.6 3.8l-10.4 4.4c-.4.2-.8.2-1.2.2-1.7 0-3-1.4-3-3 0-1.2.8-2.3 1.9-2.7zm-14.8-1.7c6.1 0 11.1 5 11.1 11.1s-5 11.1-11.1 11.1-11.1-5-11.1-11.1 5-11.1 11.1-11.1zm-31.4-2c.6-1.5 2.4-2.2 3.9-1.6l11.6 4.8c1.5.6 2.3 2.4 1.6 3.9-.5 1.1-1.6 1.8-2.8 1.8-.4 0-.8-.1-1.2-.2l-11.6-4.8c-1.4-.6-2.1-2.4-1.5-3.9zm-23.1-9.7c.6-1.5 2.4-2.2 3.9-1.6l11.6 4.8c1.5.6 2.3 2.4 1.6 3.9-.5 1.1-1.6 1.9-2.8 1.8-.4 0-.8-.1-1.2-.2l-11.6-4.8c-1.4-.6-2.1-2.4-1.5-3.9zm-23.1-9.7c.6-1.5 2.4-2.3 3.9-1.6l11.6 4.8c1.5.7 2.2 2.5 1.5 4-.7 1.4-2.3 2.1-3.8 1.6l-11.6-4.8c-1.5-.7-2.3-2.4-1.6-4zm-19.2-11.3l11.6 4.8c1.5.6 2.3 2.4 1.6 3.9-.5 1.1-1.6 1.9-2.8 1.8-.4 0-.8-.1-1.1-.3l-11.6-4.8c-1.5-.6-2.3-2.4-1.6-3.9.7-1.4 2.4-2.1 3.9-1.5z" fill="#453b69" fill-rule="nonzero"/><path d="M598 253.8v6h141.2l20.6 20.6c1.2 1.2 3.1 1.2 4.2 0l20.6-20.6H1029V90.4H598v163.4zM927.9 226c0-4.2 3.4-7.6 7.6-7.6h65.6c4.2 0 7.6 3.4 7.6 7.6v4.6c0 4.2-3.4 7.6-7.6 7.6h-65.6c-4.2 0-7.6-3.4-7.6-7.6V226zm-22.4 0v4.6c0 4.2-3.4 7.6-7.6 7.6h-65.6c-4.2 0-7.6-3.4-7.6-7.6V226c0-4.2 3.4-7.6 7.6-7.6h65.6c4.2 0 7.6 3.4 7.6 7.6zm-92-119.3c24.1 0 43.7 19.5 43.7 43.6 0 14.4-7 27.8-18.9 36l-.1.1c-4.2 2.9-8.8 5-13.7 6.2h-.2c-.6.2-1.2.3-1.8.4l-.3.1c-1.3.3-2.7.5-4 .6h-.5c-.5 0-1 .1-1.5.1H811c-.5 0-1-.1-1.6-.1h-.5c-1.3-.1-2.7-.4-4-.6l-.3-.1c-.6-.1-1.2-.3-1.8-.4h-.2c-4.9-1.3-9.5-3.4-13.7-6.2l-.1-.1c-19.8-13.7-24.8-40.9-11.1-60.7 8.1-11.8 21.5-18.9 35.8-18.9zm-92 119.3c0-4.2 3.4-7.6 7.6-7.6h65.6c4.2 0 7.6 3.4 7.6 7.6v4.6c0 4.2-3.4 7.6-7.6 7.6h-65.6c-4.2 0-7.6-3.4-7.6-7.6V226zm-103.2 0c0-4.2 3.4-7.6 7.6-7.6h65.6c4.2 0 7.6 3.4 7.6 7.6v4.6c0 4.2-3.4 7.6-7.6 7.6h-65.6c-4.2 0-7.6-3.4-7.6-7.6V226z" fill="#9eb1db" fill-rule="nonzero"/><path d="M788.7 186.3c-.7-.6-1.2-1.4-1.2-2.4v-.7c0-1.7.2-3.4.5-5.1 3-14.1 16.8-23 30.8-20.1 11.9 2.5 20.5 13 20.6 25.2v.7c0 .9-.4 1.8-1.2 2.4 19.9-13.7 24.8-40.9 11.1-60.8-13.7-19.9-40.9-24.8-60.8-11.1-19.9 13.7-24.8 40.9-11.1 60.8 3.2 4.3 6.9 8.1 11.3 11.1zm24.8-32.8c-8.6 0-15.5-6.9-15.5-15.5s6.9-15.5 15.5-15.5S829 129.4 829 138c0 8.5-6.9 15.4-15.5 15.5z" fill="#fff" fill-rule="nonzero"/><path d="M813.5 122.4c-8.6 0-15.5 6.9-15.5 15.5s6.9 15.5 15.5 15.5 15.5-6.9 15.5-15.5c0-8.5-6.9-15.5-15.5-15.5zm-84.4 96h65.6c4.2 0 7.6 3.4 7.6 7.6v4.6c0 4.2-3.4 7.6-7.6 7.6h-65.6c-4.2 0-7.6-3.4-7.6-7.6V226c0-4.2 3.4-7.6 7.6-7.6z" fill="#453b69" fill-rule="nonzero"/><path d="M832.3 218.4h65.6c4.2 0 7.6 3.4 7.6 7.6v4.6c0 4.2-3.4 7.6-7.6 7.6h-65.6c-4.2 0-7.6-3.4-7.6-7.6V226c0-4.2 3.4-7.6 7.6-7.6zm103.1 0h65.6c4.2 0 7.6 3.4 7.6 7.6v4.6c0 4.2-3.4 7.6-7.6 7.6h-65.6c-4.2 0-7.6-3.4-7.6-7.6V226c0-4.2 3.4-7.6 7.6-7.6zm-309.5 0h65.6c4.2 0 7.6 3.4 7.6 7.6v4.6c0 4.2-3.4 7.6-7.6 7.6h-65.6c-4.2 0-7.6-3.4-7.6-7.6V226c0-4.2 3.4-7.6 7.6-7.6zM757.1 47h112.8c5.5 0 10 4.5 10 10s-4.5 10-10 10H757.1c-5.5 0-10-4.5-10-10s4.5-10 10-10zM992 44h-32.3c-1.7 0-3 1.3-3 3s1.3 3 3 3H992c1.7 0 3-1.3 3-3s-1.3-3-3-3zm0 10h-32.3c-1.7 0-3 1.3-3 3s1.3 3 3 3H992c1.7 0 3-1.3 3-3s-1.3-3-3-3zm0 10h-32.3c-1.7 0-3 1.3-3 3s1.3 3 3 3H992c1.7 0 3-1.3 3-3s-1.3-3-3-3zM655.2 54h-7.1v-7.1c0-1.7-1.3-3-3-3s-3 1.3-3 3V54H635c-1.7 0-3 1.3-3 3s1.3 3 3 3h7.1v7.1c0 1.7 1.3 3 3 3s3-1.3 3-3V60h7.1c1.7 0 3-1.3 3-3s-1.3-3-3-3z" fill="#fff" fill-rule="nonzero"/><path d="M656.4 726.2h139.2c7.4 0 13.4-6 13.4-13.4v-25.1c0-7.4-6-13.4-13.4-13.4H656.4c-7.4 0-13.4 6-13.4 13.4v25.1c0 7.4 6 13.4 13.4 13.4zm56.8-34.4c-1.2-1.1-1.3-3-.1-4.2 1.1-1.2 3-1.3 4.2-.1.1 0 .1.1.1.1l8.5 8.5 8.5-8.5c1.1-1.2 3-1.3 4.2-.1 1.2 1.1 1.3 3 .1 4.2 0 .1-.1.1-.1.1l-8.5 8.5 8.5 8.5c1.2 1.2 1.2 3.1 0 4.2s-3.1 1.2-4.2 0l-8.5-8.5-8.5 8.5c-1.2 1.2-3.1 1.2-4.2 0s-1.2-3.1 0-4.2l8.5-8.5-8.5-8.5z" fill="#f37a78" fill-rule="nonzero"/><path d="M818.1 687.8v25.1c0 7.4 6 13.4 13.4 13.4h139.2c7.4 0 13.4-6 13.4-13.4v-25.1c0-7.4-6-13.4-13.4-13.4H831.5c-7.5 0-13.4 6-13.4 13.4zm64.8 10.4c1.2-1.2 3.1-1.2 4.2 0l8.5 8.5 19.2-19.2c1.2-1.2 3.1-1.2 4.2 0s1.2 3.1 0 4.2L897.7 713c-1.2 1.2-3.1 1.2-4.2 0l-10.7-10.7c-1.1-1-1.1-2.9.1-4.1z" fill="#1580f2" fill-rule="nonzero"/><path d="M713.2 713.1c1.2 1.2 3.1 1.2 4.2 0l8.5-8.5 8.5 8.5c.6.6 1.3.9 2.1.9 1.7 0 3-1.3 3-3 0-.8-.3-1.6-.9-2.1l-8.5-8.5 8.5-8.5c1.2-1.1 1.3-3 .1-4.2-1.1-1.2-3-1.3-4.2-.1-.1 0-.1.1-.1.1l-8.5 8.5-8.5-8.5c-1.1-1.2-3-1.3-4.2-.1-1.2 1.1-1.3 3-.1 4.2 0 .1.1.1.1.1l8.5 8.5-8.5 8.5c-1.2 1.1-1.2 3 0 4.2zm180.4 0c1.2 1.2 3.1 1.2 4.2 0l21.3-21.3c1.2-1.2 1.2-3.1 0-4.2s-3.1-1.2-4.2 0l-19.2 19.2-8.5-8.5c-1.2-1.1-3.1-1.1-4.2.1-1.1 1.2-1.1 2.9 0 4.1l10.6 10.6z" fill="#fff" fill-rule="nonzero"/><path d="M912 764.6H717.6c-1.7 0-3 1.3-3 3s1.3 3 3 3H912c1.7 0 3-1.3 3-3s-1.3-3-3-3zM731.8 571.1h166.1c1.9 0 3.5-1.6 3.5-3.5s-1.6-3.5-3.5-3.5H731.8c-1.9 0-3.5 1.6-3.5 3.5s1.5 3.5 3.5 3.5zm169 70.5c0-1.7-1.3-3-3-3H731.7c-1.7 0-3 1.3-3 3s1.3 3 3 3h166.1c1.7 0 3-1.4 3-3zm-211.7-46.4h251.5c1.7 0 3-1.3 3-3s-1.3-3-3-3H689.1c-1.7 0-3 1.3-3 3s1.3 3 3 3zm0 24.7h251.5c1.7 0 3-1.3 3-3s-1.3-3-3-3H689.1c-1.7 0-3 1.3-3 3s1.3 3 3 3z" fill="#9eb1db" fill-rule="nonzero"/><path d="M978.4 0H648.7c-31.3.1-56.6 25.4-56.6 56.7v691.4c0 31.3 25.4 56.6 56.6 56.6h329.7c31.3 0 56.6-25.4 56.6-56.6V56.7c0-31.3-25.4-56.7-56.6-56.7zM992 70h-32.3c-1.7 0-3-1.3-3-3s1.3-3 3-3H992c1.7 0 3 1.3 3 3s-1.3 3-3 3zM879.9 57c0 5.5-4.5 10-10 10H757.1c-5.5 0-10-4.5-10-10s4.5-10 10-10h112.8c5.5 0 10 4.5 10 10zM635 60c-1.7 0-3-1.3-3-3s1.3-3 3-3h7.1v-7.1c0-1.7 1.3-3 3-3s3 1.3 3 3V54h7.1c1.7 0 3 1.3 3 3s-1.3 3-3 3h-7.1v7.1c0 1.7-1.3 3-3 3s-3-1.3-3-3V60H635zm357 0h-32.3c-1.7 0-3-1.3-3-3s1.3-3 3-3H992c1.7 0 3 1.3 3 3s-1.3 3-3 3zm0-10h-32.3c-1.7 0-3-1.3-3-3s1.3-3 3-3H992c1.7 0 3 1.3 3 3s-1.3 3-3 3zm37 698.1c0 27.9-22.7 50.6-50.6 50.6H648.7c-27.9 0-50.6-22.7-50.6-50.6V90.5h431v657.6h-.1z" fill="#1580f2" fill-rule="nonzero"/><path d="M946.7 416.4c-7.5 14.7-14 27.4-23.1 27.4-10.4 0-15.6-10.5-20.7-20.6-4.7-9.5-9.6-19.2-19.1-19.2-7.7 0-11.7 6.6-16.4 14.2C859.5 431 849.6 447 818 447c-24.6 0-41.4-26.4-57.7-51.9-16.9-26.4-34.3-53.7-61.2-53.7-27.4 0-38.1 19.9-48.4 39.1-9.8 18.1-19 35.1-41.7 35.1-1.7 0-3 1.3-3 3s1.3 3 3 3c26.3 0 36.8-19.5 47-38.3 10-18.5 19.4-35.9 43.2-35.9 23.6 0 39.4 24.7 56.1 50.9 17.2 26.9 34.9 54.7 62.8 54.7 35 0 46.7-19.1 54.5-31.7 4.5-7.2 7.2-11.3 11.3-11.3 5.8 0 9.5 7.4 13.8 15.9 5.6 11.2 11.9 23.9 26.1 23.9 12.7 0 20-14.2 28.4-30.6 12.4-24.1 27.8-54.1 66-54.1 1.7 0 3-1.3 3-3s-1.3-3-3-3c-42-.1-59 33.1-71.5 57.3z" fill="#f37a78" fill-rule="nonzero"/><path d="M1008.6 504.6c1.7 0 3-1.3 3-3s-1.3-3-3-3H616.3c-1.7 0-3 1.3-3 3s1.3 3 3 3h392.3z" fill="#fff" fill-rule="nonzero"/><path d="M673.3 306.9c.5 0 1-.1 1.5-.4l10.3-6c1.4-.9 1.8-2.7.9-4.1-.8-1.3-2.5-1.8-3.9-1l-10.3 6c-1.4.8-1.9 2.7-1.1 4.1.5.9 1.5 1.5 2.6 1.4zm-20.7 12c.5 0 1-.1 1.5-.4l10.3-6c1.4-.9 1.8-2.7.9-4.1-.8-1.3-2.5-1.8-3.9-1l-10.3 6c-1.4.8-1.9 2.7-1.1 4.1.5.8 1.5 1.4 2.6 1.4zm-20.7 12c.5 0 1-.1 1.5-.4l10.3-6c1.4-.8 1.9-2.7 1.1-4.1-.8-1.4-2.7-1.9-4.1-1.1l-10.3 6c-1.4.8-1.9 2.7-1.1 4.1.5.9 1.5 1.5 2.6 1.5zm-15.6 9c.5 0 1-.1 1.5-.4l5.2-3c1.5-.8 2-2.6 1.3-4s-2.6-2-4-1.3c-.1 0-.1.1-.2.1l-5.2 3c-1.4.8-1.9 2.7-1.1 4.1.5.9 1.5 1.5 2.5 1.5zm386.8-20.9c.4 0 .8-.1 1.2-.2l5.5-2.3c1.5-.6 2.3-2.3 1.7-3.9-.6-1.6-2.3-2.3-3.9-1.7-.1 0-.1 0-.2.1l-5.5 2.3c-1.5.6-2.3 2.4-1.6 3.9.5 1 1.6 1.8 2.8 1.8zm-103.7 43.4c.4 0 .8-.1 1.2-.2l10.4-4.4c1.5-.7 2.2-2.5 1.5-4-.7-1.4-2.3-2.1-3.8-1.6l-10.4 4.4c-1.5.6-2.2 2.4-1.6 3.9.4 1.2 1.5 2 2.7 1.9zm41.5-17.3c.4 0 .8-.1 1.2-.2l10.4-4.4c1.5-.6 2.3-2.3 1.7-3.9-.6-1.6-2.3-2.3-3.9-1.7-.1 0-.1 0-.2.1l-10.4 4.4c-1.5.6-2.2 2.4-1.6 3.9.5 1 1.6 1.7 2.8 1.8zm20.7-8.7c.4 0 .8-.1 1.2-.2l10.4-4.3c1.5-.6 2.3-2.4 1.6-3.9-.6-1.5-2.4-2.3-3.9-1.6l-10.4 4.4c-1.5.6-2.3 2.4-1.6 3.9.4.9 1.5 1.7 2.7 1.7zm20.8-8.7c.4 0 .8-.1 1.2-.2l10.4-4.4c1.5-.6 2.3-2.3 1.7-3.9-.6-1.6-2.3-2.3-3.9-1.7-.1 0-.1 0-.2.1l-10.4 4.4c-1.5.6-2.2 2.4-1.6 3.9.5 1.1 1.6 1.8 2.8 1.8zm-62.2 26c.4 0 .8-.1 1.2-.2l10.4-4.3c1.5-.6 2.2-2.4 1.6-3.9-.6-1.5-2.4-2.2-3.9-1.6l-10.4 4.4c-1.5.6-2.3 2.4-1.6 3.9.3 1 1.4 1.8 2.7 1.7zm-66.5 3.2l11.6 4.8c1.5.6 3.3-.1 3.9-1.6.6-1.5-.1-3.3-1.6-3.9l-11.6-4.8c-1.5-.6-3.3.2-3.9 1.7-.5 1.5.1 3.1 1.6 3.8zm-23.1-9.7l11.6 4.8c.4.2.8.2 1.2.2 1.7 0 3-1.3 3-3 0-1.2-.7-2.3-1.8-2.8l-11.6-4.8c-1.5-.6-3.3.1-3.9 1.6-.7 1.6 0 3.4 1.5 4zM782.8 324c-.6 1.5.1 3.3 1.6 3.9l11.6 4.8c.4.2.8.2 1.2.2 1.7 0 3-1.3 3-3 0-1.2-.7-2.3-1.8-2.8l-11.6-4.8c-1.6-.6-3.3.1-4 1.7 0-.1 0-.1 0 0zm24.7 13.6l11.6 4.8c.4.2.8.2 1.2.2 1.7 0 3-1.4 3-3 0-1.2-.7-2.3-1.8-2.7l-11.6-4.8c-1.5-.6-3.3.1-3.9 1.6-.8 1.5 0 3.2 1.5 3.9zm-69.3-29l11.6 4.8c1.5.7 3.3 0 4-1.5.7-1.5 0-3.3-1.5-4-.1 0-.1-.1-.2-.1l-11.6-4.8c-1.5-.7-3.3-.1-4 1.4-.7 1.5-.1 3.3 1.4 4 .1.1.2.1.3.2zm-23.1-9.7l11.6 4.8c.4.1.8.2 1.2.2 1.7 0 3-1.3 3-3 0-1.2-.7-2.3-1.8-2.8l-11.6-4.8c-1.5-.7-3.3 0-4 1.5-.7 1.5 0 3.3 1.5 4 0 0 0 .1.1.1zm46.2 19.3l11.6 4.8c1.5.6 3.3-.2 3.9-1.7.6-1.5-.1-3.1-1.6-3.8l-11.6-4.8c-1.5-.6-3.3.1-3.9 1.6-.7 1.5.1 3.3 1.6 3.9z" fill="#9eb1db" fill-rule="nonzero"/><path d="M699.1 294.1c2.8 0 5.1-2.3 5.2-5.1 0-2.8-2.3-5.1-5.1-5.1s-5.1 2.3-5.2 5.1c0 2.8 2.3 5.1 5.1 5.1z" fill="#453b69" fill-rule="nonzero"/><path d="M699.1 300.1c6.2 0 11.1-5 11.1-11.1s-5-11.1-11.1-11.1-11.1 5-11.1 11.1 5 11.1 11.1 11.1zm0-16.3c2.8 0 5.1 2.3 5.2 5.1 0 2.8-2.3 5.1-5.1 5.1s-5.1-2.3-5.2-5.1c0-2.8 2.3-5.1 5.1-5.1z" fill="#9eb1db" fill-rule="nonzero"/><path d="M883.5 371.2c2.8 0 5.1-2.3 5.1-5.1s-2.3-5.1-5.1-5.1-5.1 2.3-5.1 5.1 2.3 5.1 5.1 5.1z" fill="#453b69" fill-rule="nonzero"/><path d="M883.5 377.2c6.1 0 11.1-5 11.1-11.1s-5-11.1-11.1-11.1-11.1 5-11.1 11.1c0 6.2 5 11.1 11.1 11.1zm0-16.2c2.8 0 5.1 2.3 5.1 5.1s-2.3 5.1-5.1 5.1-5.1-2.3-5.1-5.1 2.3-5.1 5.1-5.1z" fill="#9eb1db" fill-rule="nonzero"/><path d="M839.5 183.9v-.7c-.1-14.4-11.9-25.9-26.3-25.7-12.2.1-22.7 8.7-25.2 20.6-.3 1.7-.5 3.4-.5 5.1v.7c0 .9.4 1.8 1.2 2.4l.1.1c4.2 2.9 8.8 5 13.7 6.2h.2c.6.1 1.2.3 1.8.4l.3.1c1.3.3 2.7.5 4 .6h.5c.5 0 1 .1 1.6.1h5.2c.5 0 1-.1 1.5-.1h.5c1.3-.1 2.7-.4 4-.6l.3-.1c.6-.1 1.2-.3 1.8-.4h.2c4.9-1.3 9.5-3.4 13.7-6.2l.1-.1c.8-.5 1.2-1.4 1.3-2.4z" fill="#453b69" fill-rule="nonzero"/><path fill="#1580f2" d="M6 520.8H437.1V526.8H6z"/><path fill="#1580f2" d="M6 254.4H437.1V260.4H6z"/><path fill="#1580f2" d="M6 87.4H437.1V93.4H6z"/><path d="M196 178.1c2.9-14.1 16.6-23.1 30.7-20.2 10.2 2.1 18.1 10 20.2 20.2 15.3-14.1 16.4-37.9 2.3-53.2-14.1-15.3-37.9-16.4-53.2-2.3-15.3 14.1-16.4 37.9-2.3 53.2.7.8 1.5 1.6 2.3 2.3zm25.5-55.7c8.6 0 15.5 6.9 15.6 15.5.1 8.6-6.9 15.5-15.5 15.6-8.6 0-15.5-6.9-15.6-15.5 0-8.6 6.9-15.6 15.5-15.6z" fill="#fff" fill-rule="nonzero"/><path d="M221.5 163.3c-10.7 0-19.5 8.4-20 19.1l.3.2c.5.3 1.1.7 1.7 1 .3.2.6.3 1 .5l1.1.5 1 .5 1.5.6c.5.2.8.3 1.2.4l1.5.5.9.2c.5.1 1 .3 1.6.4l.7.2c.7.1 1.5.3 2.2.4l.7.1c.6.1 1.2.1 1.8.2h.7c.8 0 1.6.1 2.4.1.8 0 1.6 0 2.4-.1h.7c.6 0 1.2-.1 1.8-.2l.7-.1c.7-.1 1.5-.2 2.2-.4l.7-.2c.5-.1 1-.2 1.6-.4l.9-.2c.5-.1 1-.3 1.5-.5l1.1-.4 1.5-.6 1-.5 1.1-.5c.3-.2.6-.3 1-.5.6-.3 1.1-.6 1.7-1l.3-.2c-1-10.8-9.8-19.2-20.5-19.1z" fill="#fff" fill-rule="nonzero"/><path d="M196.7 186.3l.1.1c4.2 2.9 8.8 5 13.7 6.3h.2c.6.1 1.2.3 1.8.4l.3.1c1.3.3 2.7.5 4 .6h.5c.5 0 1 .1 1.5.1h5.2c.5 0 1-.1 1.5-.1h.5c1.3-.1 2.7-.4 4-.6l.3-.1c.6-.1 1.2-.3 1.8-.4h.2c4.9-1.3 9.5-3.4 13.7-6.2l.1-.1c19.8-13.7 24.8-40.9 11.1-60.7-13.7-19.8-40.9-24.8-60.7-11.1-19.8 13.7-24.8 40.9-11.1 60.7 3.1 4.2 6.9 8 11.3 11zm42.7-2.8c-.3.2-.6.3-1 .5l-1.1.5-1 .5-1.5.6-1.1.4c-.5.2-1 .3-1.5.5l-.9.2c-.5.1-1 .3-1.6.4l-.7.2c-.7.1-1.5.3-2.2.4l-.7.1c-.6.1-1.2.1-1.8.2h-.7c-.8 0-1.6.1-2.4.1-.8 0-1.6 0-2.4-.1h-.7c-.6 0-1.2-.1-1.8-.2h-.6c-.7-.1-1.5-.2-2.2-.4l-.7-.2c-.5-.1-1-.2-1.6-.4l-.9-.2-1.5-.5c-.4-.1-.8-.3-1.2-.4-.4-.1-1-.4-1.5-.6l-1-.5-1.1-.5c-.3-.2-.7-.3-1-.5-.6-.3-1.1-.6-1.7-1l-.3-.2c.7-11 10.3-19.4 21.3-18.6 10 .7 17.9 8.6 18.6 18.6l-.3.2c0 .3-.6.6-1.2.9zm-17.9-70.8c20.8 0 37.7 16.8 37.7 37.6 0 10.6-4.4 20.7-12.2 27.8-2.9-14.1-16.6-23.1-30.7-20.2-10.2 2.1-18.1 10-20.2 20.2-15.3-14-16.4-37.9-2.3-53.2 7.1-7.8 17.1-12.2 27.7-12.2z" fill="#1580f2" fill-rule="nonzero"/><path d="M221.5 147.5c5.3 0 9.5-4.3 9.5-9.5 0-5.3-4.3-9.5-9.5-9.5-5.3 0-9.5 4.3-9.5 9.5s4.3 9.5 9.5 9.5z" fill="#fff" fill-rule="nonzero"/><path d="M221.5 153.5c8.6 0 15.5-6.9 15.5-15.5s-6.9-15.5-15.5-15.5S206 129.4 206 138c0 8.5 6.9 15.4 15.5 15.5zm0-25c5.3 0 9.5 4.3 9.5 9.5 0 5.3-4.3 9.5-9.5 9.5-5.3 0-9.5-4.3-9.5-9.5 0-5.3 4.2-9.6 9.5-9.5 0-.1 0-.1 0 0zm-99.4 584.6c1.2 1.2 3.1 1.2 4.2 0l8.5-8.5 8.5 8.5c1.2 1.2 3.1 1.2 4.2 0s1.2-3.1 0-4.2l-8.5-8.5 8.5-8.5c1.1-1.2 1.1-3.1-.1-4.2-1.2-1.1-2.9-1.1-4.1 0l-8.5 8.5-8.5-8.5c-1.2-1.2-3.1-1.2-4.2 0s-1.2 3.1 0 4.2l8.5 8.5-8.5 8.5c-1.2 1.1-1.2 3 0 4.2zM296 698.2c-1.2-1.2-3.1-1.2-4.2 0s-1.2 3.1 0 4.2l10.7 10.7c.6.6 1.3.9 2.1.9s1.6-.3 2.1-.9l21.4-21.3c1.1-1.2 1.1-3.1-.1-4.2-1.2-1.1-2.9-1.1-4.1 0l-19.3 19.1-8.6-8.5zm-184.6 28c0 1.7 1.3 3 3 3h42.1c1.7 0 3-1.3 3-3s-1.3-3-3-3h-42.1c-1.6 0-3 1.4-3 3zm174.8 0c0 1.7 1.3 3 3 3h42.1c1.7 0 3-1.3 3-3s-1.3-3-3-3h-42.1c-1.7 0-3 1.4-3 3zM51.1 770.6h194.5c1.7 0 3-1.3 3-3s-1.3-3-3-3H51.1c-1.7 0-3 1.3-3 3s1.3 3 3 3zm0-200h166.1c1.7 0 3-1.3 3-3s-1.3-3-3-3H51.1c-1.7 0-3 1.3-3 3s1.3 3 3 3zm0 74h166.1c1.7 0 3-1.3 3-3s-1.3-3-3-3H51.1c-1.7 0-3 1.3-3 3s1.3 3 3 3zm0-49.4h251.5c1.7 0 3-1.3 3-3s-1.3-3-3-3H51.1c-1.7 0-3 1.3-3 3s1.3 3 3 3zm0 24.7h251.5c1.7 0 3-1.3 3-3s-1.3-3-3-3H51.1c-1.7 0-3 1.3-3 3s1.3 3 3 3z" fill="#1580f2" fill-rule="nonzero"/><path d="M386.4 0H56.6C25.3 0 0 25.4 0 56.7v691.4c0 31.3 25.4 56.6 56.6 56.6h329.7c31.3 0 56.6-25.4 56.6-56.6V56.7C443 25.4 417.7.1 386.4 0zM437 87.4v660.7c0 27.9-22.7 50.6-50.6 50.6H56.6C28.7 798.7 6 776 6 748.1V56.7c0-28 22.7-50.6 50.7-50.6h329.7c27.9 0 50.6 22.7 50.6 50.6v30.7z" fill="#1580f2" fill-rule="nonzero"/><path d="M283.4 53H159.6c-2.2 0-4 1.8-4 4s1.8 4 4 4h123.8c2.2 0 4-1.8 4-4s-1.8-4-4-4zm-203 0H43c-2.2 0-4 1.8-4 4s1.8 4 4 4h37.4c2.2 0 4-1.8 4-4s-1.8-4-4-4zm89.4 395.5h106.1c1.7 0 3-1.3 3-3s-1.3-3-3-3H169.8c-1.7 0-3 1.3-3 3s1.4 3 3 3z" fill="#1580f2" fill-rule="nonzero"/><path d="M221.5 413.8c20.8 0 37.7-16.8 37.7-37.6s-16.8-37.7-37.6-37.7c-19.7 0-36 15.1-37.6 34.7h14.8c1.5-10.6 10.6-18.5 21.3-18.5h7.9c1.7 0 3 1.3 3 3v5h12.6c1.7 0 3 1.3 3 3s-1.3 3-3 3H231v15h12.6c1.7 0 3 1.3 3 3s-1.3 3-3 3H231v5c0 1.7-1.3 3-3 3h-8c-10.7 0-19.8-7.9-21.3-18.5H184c1.6 19.5 17.9 34.6 37.5 34.6z" fill="#fff" fill-rule="nonzero"/><path d="M221.5 419.8c24.1 0 43.7-19.6 43.7-43.7s-19.6-43.7-43.7-43.7-43.7 19.6-43.7 43.7c.1 24.1 19.6 43.7 43.7 43.7zm-1.4-22.2h7.9c1.7 0 3-1.3 3-3v-5h12.6c1.7 0 3-1.3 3-3s-1.3-3-3-3H231v-15h12.6c1.7 0 3-1.3 3-3s-1.3-3-3-3H231v-5c0-1.7-1.3-3-3-3h-8c-10.7 0-19.8 7.9-21.3 18.5H184c1.7-20.7 19.8-36.2 40.6-34.6 20.8 1.6 36.2 19.8 34.6 40.6-1.7 20.7-19.8 36.2-40.6 34.6-18.4-1.5-33.1-16.1-34.6-34.6h14.8c1.5 10.6 10.6 18.5 21.3 18.5zM399.9 53h-37.4c-2.2 0-4 1.8-4 4s1.8 4 4 4h37.4c2.2 0 4-1.8 4-4s-1.8-4-4-4zM36.4 239.3h60.8c1.7 0 3-1.3 3-3s-1.3-3-3-3H36.4c-1.7 0-3 1.3-3 3s1.3 3 3 3zm103.1 0h60.8c1.7 0 3-1.3 3-3s-1.3-3-3-3h-60.8c-1.7 0-3 1.3-3 3s1.4 3 3 3zm100.2-3c0 1.7 1.3 3 3 3h60.8c1.7 0 3-1.3 3-3s-1.3-3-3-3h-60.8c-1.7 0-3 1.3-3 3zm106.2 3h60.8c1.7 0 3-1.3 3-3s-1.3-3-3-3h-60.8c-1.7 0-3 1.3-3 3s1.3 3 3 3zm-176.1-13.2c5.6 0 10-4.5 10-10 0-5.6-4.5-10.1-10-10.1-5.6 0-10 4.5-10 10s4.5 10 10 10.1z" fill="#1580f2" fill-rule="nonzero"/></svg>