<?xml version="1.0" encoding="UTF-8" standalone="no"?><!DOCTYPE svg PUBLIC "-//W3C//DTD SVG 1.1//EN" "http://www.w3.org/Graphics/SVG/1.1/DTD/svg11.dtd"><svg width="100%" height="100%" viewBox="0 0 1035 805" version="1.1" xmlns="http://www.w3.org/2000/svg" xmlns:xlink="http://www.w3.org/1999/xlink" xml:space="preserve" xmlns:serif="http://www.serif.com/" style="fill-rule:evenodd;clip-rule:evenodd;stroke-linejoin:round;stroke-miterlimit:1.41421;"><path d="M6,254.4l431,0l0,-161l-431,0l0,161Zm339.9,-21.1l60.8,0c1.7,0 3,1.3 3,3c0,1.7 -1.3,3 -3,3l-60.8,0c-1.7,0 -3,-1.3 -3,-3c0,-1.7 1.3,-3 3,-3Zm-39.4,3c0,1.7 -1.3,3 -3,3l-60.8,0c-1.7,0 -3,-1.3 -3,-3c0,-1.7 1.3,-3 3,-3l60.8,0c1.7,0 3,1.3 3,3Zm-85,-129.6c24.1,0 43.7,19.5 43.7,43.6c0,14.4 -7,27.8 -18.9,35.9l-0.1,0.1c-4.2,2.9 -8.8,5 -13.7,6.3l-0.2,0c-0.6,0.1 -1.2,0.3 -1.8,0.4l-0.3,0.1c-1.3,0.3 -2.7,0.5 -4,0.6l-0.5,0c-0.5,0 -1,0.1 -1.5,0.1l-0.6,0l-4,0l-0.6,0c-0.5,0 -1,-0.1 -1.5,-0.1l-0.5,0c-1.3,-0.1 -2.7,-0.4 -4,-0.6l-0.3,-0.1c-0.6,-0.1 -1.2,-0.3 -1.8,-0.4l-0.2,0c-4.9,-1.3 -9.5,-3.4 -13.7,-6.2l-0.1,-0.1c-19.9,-13.6 -24.9,-40.8 -11.3,-60.7c8.1,-11.8 21.5,-18.9 35.9,-18.9Zm-51.7,99.2c5.6,0 10,4.5 10,10c0,5.6 -4.5,10.1 -10,10.1c-5.6,0 -10,-4.5 -10,-10c0,-5.6 4.5,-10 10,-10.1Zm-30.3,27.4l60.8,0c1.7,0 3,1.3 3,3c0,1.7 -1.3,3 -3,3l-60.8,0c-1.7,0 -3,-1.3 -3,-3c0,-1.7 1.4,-3 3,-3Zm-103.1,0l60.8,0c1.7,0 3,1.3 3,3c0,1.7 -1.3,3 -3,3l-60.8,0c-1.7,0 -3,-1.3 -3,-3c0,-1.7 1.3,-3 3,-3Z" style="fill:#fff;fill-rule:nonzero;"/><path d="M386.4,6l-329.8,0c-28,0 -50.6,22.7 -50.6,50.7l0,30.8l431,0l0,-30.8c0,-28 -22.7,-50.7 -50.6,-50.7Zm-306,55l-37.4,0c-2.2,0 -4,-1.8 -4,-4c0,-2.2 1.8,-4 4,-4l37.4,0c2.2,0 4,1.8 4,4c0,2.2 -1.8,4 -4,4Zm203,0l-123.8,0c-2.2,0 -4,-1.8 -4,-4c0,-2.2 1.8,-4 4,-4l123.8,0c2.2,0 4,1.8 4,4c0,2.2 -1.8,4 -4,4Zm116.5,0l-37.4,0c-2.2,0 -4,-1.8 -4,-4c0,-2.2 1.8,-4 4,-4l37.4,0c2.2,0 4,1.8 4,4c0,2.2 -1.8,4 -4,4Z" style="fill:#fff;fill-rule:nonzero;"/><path d="M6,520.8l431,0l0,-260.4l-431,0l0,260.4Zm215.5,-188.3c24.1,0 43.7,19.6 43.7,43.7c0,24.1 -19.6,43.7 -43.7,43.7c-24.1,0 -43.7,-19.6 -43.7,-43.7c0.1,-24.2 19.6,-43.7 43.7,-43.7Zm-51.7,110l106.1,0c1.7,0 3,1.3 3,3c0,1.7 -1.3,3 -3,3l-106.1,0c-1.7,0 -3,-1.3 -3,-3c0,-1.7 1.4,-3 3,-3Z" style="fill:#fff;fill-rule:nonzero;"/><path d="M6,748.1c0,27.9 22.7,50.6 50.6,50.6l329.7,0c27.9,0 50.6,-22.7 50.6,-50.6l0,-221.3l-430.9,0l0,221.3Zm328.3,-21.9c0,1.7 -1.3,3 -3,3l-42.2,0c-1.7,0 -3,-1.3 -3,-3c0,-1.7 1.3,-3 3,-3l42.1,0c1.7,0 3.1,1.4 3.1,3Zm-6.3,-38.7c1.2,1.2 1.2,3.1 0,4.2l-21.3,21.3c-0.6,0.6 -1.3,0.9 -2.1,0.9c-0.8,0 -1.6,-0.3 -2.1,-0.9l-10.7,-10.7c-1.2,-1.2 -1.2,-3.1 0,-4.2c1.2,-1.1 3.1,-1.2 4.2,0l8.5,8.5l19.2,-19.2c1.2,-1 3.1,-1 4.3,0.1Zm-276.9,-123l166.1,0c1.7,0 3,1.3 3,3c0,1.7 -1.3,3 -3,3l-166.1,0c-1.7,0 -3,-1.3 -3,-3c0,-1.7 1.3,-3 3,-3Zm0,24.7l251.5,0c1.7,0 3,1.3 3,3c0,1.7 -1.3,3 -3,3l-251.5,0c-1.7,0 -3,-1.3 -3,-3c0,-1.7 1.3,-3 3,-3Zm0,24.7l251.5,0c1.7,0 3,1.3 3,3c0,1.7 -1.3,3 -3,3l-251.5,0c-1.7,0 -3,-1.3 -3,-3c0,-1.7 1.3,-3 3,-3Zm0,24.6l166.1,0c1.7,0 3,1.3 3,3c0,1.7 -1.3,3 -3,3l-166.1,0c-1.7,0 -3,-1.3 -3,-3c0,-1.7 1.3,-3 3,-3Zm71,53.2c-1.2,-1.2 -1.2,-3.1 0,-4.2c1.2,-1.1 3.1,-1.2 4.2,0l8.5,8.5l8.5,-8.5c1.2,-1.1 3.1,-1.1 4.2,0.1c1.1,1.2 1.1,2.9 0,4.1l-8.5,8.5l8.5,8.5c1.2,1.2 1.2,3.1 0,4.2c-1.2,1.1 -3.1,1.2 -4.2,0l-8.5,-8.5l-8.5,8.5c-1.2,1.2 -3.1,1.2 -4.2,0c-1.1,-1.2 -1.2,-3.1 0,-4.2l8.5,-8.5l-8.5,-8.5Zm34.4,31.5c1.7,0 3,1.3 3,3c0,1.7 -1.3,3 -3,3l-42.1,0c-1.7,0 -3,-1.3 -3,-3c0,-1.7 1.3,-3 3,-3l42.1,0Zm-105.4,41.4l194.5,0c1.7,0 3,1.3 3,3c0,1.7 -1.3,3 -3,3l-194.5,0c-1.7,0 -3,-1.3 -3,-3c0,-1.7 1.3,-3 3,-3Z" style="fill:#fff;fill-rule:nonzero;"/><path d="M598,748.1c0,27.9 22.7,50.6 50.6,50.6l329.7,0c27.9,0 50.6,-22.7 50.6,-50.6l0,-223.8l-430.9,0l0,223.8Zm314,22.5l-194.4,0c-1.7,0 -3,-1.3 -3,-3c0,-1.7 1.3,-3 3,-3l194.4,0c1.7,0 3,1.3 3,3c0,1.7 -1.3,3 -3,3Zm72,-82.8l0,25.1c0,7.4 -6,13.4 -13.4,13.4l-139.2,0c-7.4,0 -13.4,-6 -13.4,-13.4l0,-25.1c0,-7.4 6,-13.4 13.4,-13.4l139.2,0c7.4,0 13.4,6 13.4,13.4l0,0Zm-252.2,-43.2c-1.7,0 -3,-1.3 -3,-3c0,-1.7 1.3,-3 3,-3l166.1,0c1.7,0 3,1.3 3,3c0,1.7 -1.3,3 -3,3l-166.1,0Zm0,-80.5l166.1,0c1.9,0 3.5,1.6 3.5,3.5c0,1.9 -1.6,3.5 -3.5,3.5l-166.1,0c-1.9,0 -3.5,-1.6 -3.5,-3.5c0,-1.9 1.5,-3.5 3.5,-3.5Zm-42.7,25.1l251.5,0c1.7,0 3,1.3 3,3c0,1.7 -1.3,3 -3,3l-251.5,0c-1.7,0 -3,-1.3 -3,-3c0,-1.7 1.3,-3 3,-3Zm0,24.7l251.5,0c1.7,0 3,1.3 3,3c0,1.7 -1.3,3 -3,3l-251.5,0c-1.7,0 -3,-1.3 -3,-3c0,-1.7 1.3,-3 3,-3Zm-46.1,73.9c0,-7.4 6,-13.4 13.4,-13.4l139.2,0c7.4,0 13.4,6 13.4,13.4l0,25.1c0,7.4 -6,13.4 -13.4,13.4l-139.2,0c-7.4,0 -13.4,-6 -13.4,-13.4l0,-25.1Z" style="fill:#fff;fill-rule:nonzero;"/><path d="M764,280.4c-1.2,1.2 -3.1,1.2 -4.2,0l-20.6,-20.6l-141.2,0l0,264.5l431,0l0,-264.5l-244.3,0l-20.7,20.6Zm-4.4,33.9c0.6,-1.5 2.4,-2.2 3.9,-1.6l11.6,4.8c1.5,0.6 2.3,2.3 1.7,3.9c-0.6,1.6 -2.3,2.3 -3.9,1.7c-0.1,0 -0.1,0 -0.2,-0.1l-11.6,-4.8c-1.4,-0.6 -2.1,-2.4 -1.5,-3.9Zm-23.1,-9.7c0.6,-1.5 2.4,-2.2 3.9,-1.6l11.6,4.8c1.5,0.6 2.3,2.3 1.7,3.9c-0.6,1.6 -2.3,2.3 -3.9,1.7c-0.1,0 -0.1,0 -0.2,-0.1l-11.6,-4.8c-1.4,-0.6 -2.1,-2.4 -1.5,-3.9Zm-23.1,-9.6c0.6,-1.5 2.4,-2.3 3.9,-1.6l11.6,4.8c1.5,0.6 2.3,2.4 1.6,3.9c-0.5,1.1 -1.6,1.9 -2.8,1.8c-0.4,0 -0.8,-0.1 -1.2,-0.2l-11.6,-4.8c-1.4,-0.7 -2.1,-2.4 -1.5,-3.9Zm-14.3,-17.2c6.2,0 11.2,4.9 11.2,11.1c0,6.2 -4.9,11.2 -11.1,11.2c-6.2,0 -11.2,-4.9 -11.2,-11.1c0,-6.2 5,-11.2 11.1,-11.2Zm-27.4,23.5l10.3,-6c1.5,-0.8 3.3,-0.2 4,1.3c0.7,1.4 0.3,3.1 -1,3.9l-10.3,6c-0.5,0.3 -1,0.4 -1.5,0.4c-1.7,0 -3,-1.3 -3,-3c0,-1 0.6,-2 1.5,-2.6Zm-20.7,12l10.3,-6c1.5,-0.8 3.3,-0.2 4,1.3c0.7,1.4 0.3,3.1 -1,3.9l-10.3,6c-1.4,0.9 -3.3,0.5 -4.1,-0.9c-0.9,-1.4 -0.5,-3.3 0.9,-4.1c0.1,-0.1 0.1,-0.1 0.2,-0.2Zm-20.7,12l10.3,-6c1.4,-0.8 3.3,-0.3 4.1,1.1c0.8,1.4 0.3,3.3 -1.1,4.1l-10.3,6c-0.5,0.3 -1,0.4 -1.5,0.4c-1.7,0 -3,-1.3 -3,-3c0,-1 0.6,-2 1.5,-2.6Zm-15.5,9l5.2,-3c1.4,-0.9 3.3,-0.5 4.1,0.9c0.8,1.4 0.5,3.3 -0.9,4.1c-0.1,0 -0.1,0.1 -0.2,0.1l-5.2,3c-0.5,0.3 -1,0.4 -1.5,0.4c-1.7,0 -3,-1.3 -3,-3c0,-0.9 0.6,-1.9 1.5,-2.5Zm-1.5,167.4c0,-1.7 1.3,-3 3,-3l392.3,0c1.7,0 3,1.3 3,3c0,1.7 -1.3,3 -3,3l-392.3,0c-1.6,0 -3,-1.4 -3,-3c0,0 0,-0.1 0,0Zm407.7,-139.7c0,1.7 -1.3,3 -3,3c-38.2,0 -53.6,30 -66,54.1c-8.4,16.4 -15.7,30.6 -28.4,30.6c-14.1,0 -20.5,-12.7 -26.1,-23.9c-4.3,-8.5 -7.9,-15.9 -13.8,-15.9c-4.1,0 -6.8,4.1 -11.3,11.3c-7.8,12.6 -19.5,31.7 -54.5,31.7c-27.9,0 -45.6,-27.8 -62.8,-54.7c-16.7,-26.2 -32.5,-50.9 -56.1,-50.9c-23.8,0 -33.2,17.4 -43.2,35.9c-10.2,18.8 -20.7,38.3 -47,38.3c-1.7,0 -3,-1.3 -3,-3c0,-1.7 1.3,-3 3,-3c22.8,0 32,-17.1 41.7,-35.1c10.4,-19.2 21.1,-39.1 48.4,-39.1c26.9,0 44.3,27.3 61.2,53.7c16.3,25.5 33.2,51.9 57.7,51.9c31.6,0 41.5,-16 49.4,-28.8c4.7,-7.6 8.7,-14.2 16.4,-14.2c9.5,0 14.4,9.8 19.1,19.2c5.1,10.1 10.3,20.6 20.7,20.6c9,0 15.6,-12.7 23.1,-27.4c12.4,-24.2 29.5,-57.4 71.3,-57.4c1.8,0.1 3.2,1.4 3.2,3.1l0,0Zm-19,-48.8l5.5,-2.3c1.5,-0.7 3.3,0 4,1.5c0.7,1.5 0,3.3 -1.5,4c-0.1,0 -0.1,0.1 -0.2,0.1l-5.5,2.3c-1.5,0.7 -3.3,0 -4,-1.5c-0.7,-1.5 0,-3.3 1.5,-4c0.1,-0.1 0.1,-0.1 0.2,-0.1Zm-20.7,8.7l10.4,-4.4c1.5,-0.7 3.3,0 4,1.5c0.7,1.5 0,3.3 -1.5,4c-0.1,0 -0.1,0.1 -0.2,0.1l-10.4,4.4c-0.4,0.2 -0.8,0.2 -1.2,0.2c-1.7,0 -3,-1.4 -3,-3c0,-1.3 0.8,-2.3 1.9,-2.8Zm-20.8,8.7l10.4,-4.4c1.5,-0.6 3.3,0.1 3.9,1.6c0.6,1.5 -0.1,3.3 -1.6,3.9l-10.4,4.3c-0.4,0.2 -0.8,0.2 -1.2,0.2c-1.7,0 -3,-1.3 -3,-3c0.1,-1 0.8,-2.1 1.9,-2.6Zm-20.7,8.7l10.4,-4.4c1.5,-0.7 3.3,0 4,1.5c0.7,1.5 0,3.3 -1.5,4c-0.1,0 -0.1,0.1 -0.2,0.1l-10.4,4.4c-1.5,0.6 -3.3,-0.2 -3.9,-1.7c-0.5,-1.6 0.1,-3.3 1.6,-3.9Zm-20.8,8.7l10.4,-4.4c1.5,-0.6 3.3,0.1 3.9,1.6c0.6,1.5 -0.1,3.3 -1.6,3.9l-10.4,4.3c-1.5,0.7 -3.3,0 -4,-1.5c-0.7,-1.5 0,-3.3 1.5,-4c0.1,0.1 0.1,0.1 0.2,0.1Zm-20.7,8.7l10.4,-4.4c1.5,-0.6 3.3,0.2 3.9,1.7c0.6,1.5 -0.1,3.1 -1.6,3.8l-10.4,4.4c-0.4,0.2 -0.8,0.2 -1.2,0.2c-1.7,0 -3,-1.4 -3,-3c0,-1.2 0.8,-2.3 1.9,-2.7Zm-14.8,-1.7c6.1,0 11.1,5 11.1,11.1c0,6.1 -5,11.1 -11.1,11.1c-6.1,0 -11.1,-5 -11.1,-11.1c0,-6.1 5,-11.1 11.1,-11.1Zm-31.4,-2c0.6,-1.5 2.4,-2.2 3.9,-1.6l11.6,4.8c1.5,0.6 2.3,2.4 1.6,3.9c-0.5,1.1 -1.6,1.8 -2.8,1.8c-0.4,0 -0.8,-0.1 -1.2,-0.2l-11.6,-4.8c-1.4,-0.6 -2.1,-2.4 -1.5,-3.9l0,0Zm-23.1,-9.7c0.6,-1.5 2.4,-2.2 3.9,-1.6l11.6,4.8c1.5,0.6 2.3,2.4 1.6,3.9c-0.5,1.1 -1.6,1.9 -2.8,1.8c-0.4,0 -0.8,-0.1 -1.2,-0.2l-11.6,-4.8c-1.4,-0.6 -2.1,-2.4 -1.5,-3.9l0,0Zm-23.1,-9.7c0.6,-1.5 2.4,-2.3 3.9,-1.6l11.6,4.8c1.5,0.7 2.2,2.5 1.5,4c-0.7,1.4 -2.3,2.1 -3.8,1.6l-11.6,-4.8c-1.5,-0.7 -2.3,-2.4 -1.6,-4l0,0Zm-19.2,-11.3l11.6,4.8c1.5,0.6 2.3,2.4 1.6,3.9c-0.5,1.1 -1.6,1.9 -2.8,1.8c-0.4,0 -0.8,-0.1 -1.1,-0.3l-11.6,-4.8c-1.5,-0.6 -2.3,-2.4 -1.6,-3.9c0.7,-1.4 2.4,-2.1 3.9,-1.5Z" style="fill:#453b69;fill-rule:nonzero;"/><path d="M598,253.8l0,6l141.2,0l20.6,20.6c1.2,1.2 3.1,1.2 4.2,0l20.6,-20.6l244.4,0l0,-169.4l-431,0l0,163.4Zm329.9,-27.8c0,-4.2 3.4,-7.6 7.6,-7.6l65.6,0c4.2,0 7.6,3.4 7.6,7.6l0,4.6c0,4.2 -3.4,7.6 -7.6,7.6l-65.6,0c-4.2,0 -7.6,-3.4 -7.6,-7.6l0,-4.6Zm-22.4,0l0,4.6c0,4.2 -3.4,7.6 -7.6,7.6l-65.6,0c-4.2,0 -7.6,-3.4 -7.6,-7.6l0,-4.6c0,-4.2 3.4,-7.6 7.6,-7.6l65.6,0c4.2,0 7.6,3.4 7.6,7.6Zm-92,-119.3c24.1,0 43.7,19.5 43.7,43.6c0,14.4 -7,27.8 -18.9,36l-0.1,0.1c-4.2,2.9 -8.8,5 -13.7,6.2l-0.2,0c-0.6,0.2 -1.2,0.3 -1.8,0.4l-0.3,0.1c-1.3,0.3 -2.7,0.5 -4,0.6l-0.5,0c-0.5,0 -1,0.1 -1.5,0.1l-0.6,0l-4,0l-0.6,0c-0.5,0 -1,-0.1 -1.6,-0.1l-0.5,0c-1.3,-0.1 -2.7,-0.4 -4,-0.6l-0.3,-0.1c-0.6,-0.1 -1.2,-0.3 -1.8,-0.4l-0.2,0c-4.9,-1.3 -9.5,-3.4 -13.7,-6.2l-0.1,-0.1c-19.8,-13.7 -24.8,-40.9 -11.1,-60.7c8.1,-11.8 21.5,-18.9 35.8,-18.9Zm-92,119.3c0,-4.2 3.4,-7.6 7.6,-7.6l65.6,0c4.2,0 7.6,3.4 7.6,7.6l0,4.6c0,4.2 -3.4,7.6 -7.6,7.6l-65.6,0c-4.2,0 -7.6,-3.4 -7.6,-7.6l0,-4.6Zm-103.2,0c0,-4.2 3.4,-7.6 7.6,-7.6l65.6,0c4.2,0 7.6,3.4 7.6,7.6l0,4.6c0,4.2 -3.4,7.6 -7.6,7.6l-65.6,0c-4.2,0 -7.6,-3.4 -7.6,-7.6l0,-4.6Z" style="fill:#9eb1db;fill-rule:nonzero;"/><path d="M788.7,186.3c-0.7,-0.6 -1.2,-1.4 -1.2,-2.4l0,-0.7c0,-1.7 0.2,-3.4 0.5,-5.1c3,-14.1 16.8,-23 30.8,-20.1c11.9,2.5 20.5,13 20.6,25.2l0,0.7c0,0.9 -0.4,1.8 -1.2,2.4c19.9,-13.7 24.8,-40.9 11.1,-60.8c-13.7,-19.9 -40.9,-24.8 -60.8,-11.1c-19.9,13.7 -24.8,40.9 -11.1,60.8c3.2,4.3 6.9,8.1 11.3,11.1Zm24.8,-32.8c-8.6,0 -15.5,-6.9 -15.5,-15.5c0,-8.6 6.9,-15.5 15.5,-15.5c8.6,0 15.5,6.9 15.5,15.5c0,8.5 -6.9,15.4 -15.5,15.5Z" style="fill:#fff;fill-rule:nonzero;"/><path d="M813.5,122.4c-8.6,0 -15.5,6.9 -15.5,15.5c0,8.6 6.9,15.5 15.5,15.5c8.6,0 15.5,-6.9 15.5,-15.5c0,-8.5 -6.9,-15.5 -15.5,-15.5Z" style="fill:#453b69;fill-rule:nonzero;"/><path d="M729.1,218.4l65.6,0c4.2,0 7.6,3.4 7.6,7.6l0,4.6c0,4.2 -3.4,7.6 -7.6,7.6l-65.6,0c-4.2,0 -7.6,-3.4 -7.6,-7.6l0,-4.6c0,-4.2 3.4,-7.6 7.6,-7.6Z" style="fill:#453b69;fill-rule:nonzero;"/><path d="M832.3,218.4l65.6,0c4.2,0 7.6,3.4 7.6,7.6l0,4.6c0,4.2 -3.4,7.6 -7.6,7.6l-65.6,0c-4.2,0 -7.6,-3.4 -7.6,-7.6l0,-4.6c0,-4.2 3.4,-7.6 7.6,-7.6Z" style="fill:#fff;fill-rule:nonzero;"/><path d="M935.4,218.4l65.6,0c4.2,0 7.6,3.4 7.6,7.6l0,4.6c0,4.2 -3.4,7.6 -7.6,7.6l-65.6,0c-4.2,0 -7.6,-3.4 -7.6,-7.6l0,-4.6c0,-4.2 3.4,-7.6 7.6,-7.6Z" style="fill:#fff;fill-rule:nonzero;"/><path d="M625.9,218.4l65.6,0c4.2,0 7.6,3.4 7.6,7.6l0,4.6c0,4.2 -3.4,7.6 -7.6,7.6l-65.6,0c-4.2,0 -7.6,-3.4 -7.6,-7.6l0,-4.6c0,-4.2 3.4,-7.6 7.6,-7.6Z" style="fill:#fff;fill-rule:nonzero;"/><path d="M757.1,47l112.8,0c5.5,0 10,4.5 10,10c0,5.5 -4.5,10 -10,10l-112.8,0c-5.5,0 -10,-4.5 -10,-10c0,-5.5 4.5,-10 10,-10Z" style="fill:#fff;fill-rule:nonzero;"/><path d="M992,44l-32.3,0c-1.7,0 -3,1.3 -3,3c0,1.7 1.3,3 3,3l32.3,0c1.7,0 3,-1.3 3,-3c0,-1.7 -1.3,-3 -3,-3Z" style="fill:#fff;fill-rule:nonzero;"/><path d="M992,54l-32.3,0c-1.7,0 -3,1.3 -3,3c0,1.7 1.3,3 3,3l32.3,0c1.7,0 3,-1.3 3,-3c0,-1.7 -1.3,-3 -3,-3Z" style="fill:#fff;fill-rule:nonzero;"/><path d="M992,64l-32.3,0c-1.7,0 -3,1.3 -3,3c0,1.7 1.3,3 3,3l32.3,0c1.7,0 3,-1.3 3,-3c0,-1.7 -1.3,-3 -3,-3Z" style="fill:#fff;fill-rule:nonzero;"/><path d="M655.2,54l-7.1,0l0,-7.1c0,-1.7 -1.3,-3 -3,-3c-1.7,0 -3,1.3 -3,3l0,7.1l-7.1,0c-1.7,0 -3,1.3 -3,3c0,1.7 1.3,3 3,3l7.1,0l0,7.1c0,1.7 1.3,3 3,3c1.7,0 3,-1.3 3,-3l0,-7.1l7.1,0c1.7,0 3,-1.3 3,-3c0,-1.7 -1.3,-3 -3,-3Z" style="fill:#fff;fill-rule:nonzero;"/><path d="M656.4,726.2l139.2,0c7.4,0 13.4,-6 13.4,-13.4l0,-25.1c0,-7.4 -6,-13.4 -13.4,-13.4l-139.2,0c-7.4,0 -13.4,6 -13.4,13.4l0,25.1c0,7.4 6,13.4 13.4,13.4Zm56.8,-34.4c-1.2,-1.1 -1.3,-3 -0.1,-4.2c1.1,-1.2 3,-1.3 4.2,-0.1c0.1,0 0.1,0.1 0.1,0.1l8.5,8.5l8.5,-8.5c1.1,-1.2 3,-1.3 4.2,-0.1c1.2,1.1 1.3,3 0.1,4.2c0,0.1 -0.1,0.1 -0.1,0.1l-8.5,8.5l8.5,8.5c1.2,1.2 1.2,3.1 0,4.2c-1.2,1.1 -3.1,1.2 -4.2,0l-8.5,-8.5l-8.5,8.5c-1.2,1.2 -3.1,1.2 -4.2,0c-1.1,-1.2 -1.2,-3.1 0,-4.2l8.5,-8.5l-8.5,-8.5Z" style="fill:#f37a78;fill-rule:nonzero;"/><path d="M818.1,687.8l0,25.1c0,7.4 6,13.4 13.4,13.4l139.2,0c7.4,0 13.4,-6 13.4,-13.4l0,-25.1c0,-7.4 -6,-13.4 -13.4,-13.4l-139.2,0c-7.5,0 -13.4,6 -13.4,13.4Zm64.8,10.4c1.2,-1.2 3.1,-1.2 4.2,0l8.5,8.5l19.2,-19.2c1.2,-1.2 3.1,-1.2 4.2,0c1.1,1.2 1.2,3.1 0,4.2l-21.3,21.3c-1.2,1.2 -3.1,1.2 -4.2,0l-10.7,-10.7c-1.1,-1 -1.1,-2.9 0.1,-4.1Z" style="fill:#1580f2;fill-rule:nonzero;"/><path d="M713.2,713.1c1.2,1.2 3.1,1.2 4.2,0l8.5,-8.5l8.5,8.5c0.6,0.6 1.3,0.9 2.1,0.9c1.7,0 3,-1.3 3,-3c0,-0.8 -0.3,-1.6 -0.9,-2.1l-8.5,-8.5l8.5,-8.5c1.2,-1.1 1.3,-3 0.1,-4.2c-1.1,-1.2 -3,-1.3 -4.2,-0.1c-0.1,0 -0.1,0.1 -0.1,0.1l-8.5,8.5l-8.5,-8.5c-1.1,-1.2 -3,-1.3 -4.2,-0.1c-1.2,1.1 -1.3,3 -0.1,4.2c0,0.1 0.1,0.1 0.1,0.1l8.5,8.5l-8.5,8.5c-1.2,1.1 -1.2,3 0,4.2l0,0Z" style="fill:#fff;fill-rule:nonzero;"/><path d="M893.6,713.1c1.2,1.2 3.1,1.2 4.2,0l21.3,-21.3c1.2,-1.2 1.2,-3.1 0,-4.2c-1.2,-1.1 -3.1,-1.2 -4.2,0l-19.2,19.2l-8.5,-8.5c-1.2,-1.1 -3.1,-1.1 -4.2,0.1c-1.1,1.2 -1.1,2.9 0,4.1l10.6,10.6Z" style="fill:#fff;fill-rule:nonzero;"/><path d="M912,764.6l-194.4,0c-1.7,0 -3,1.3 -3,3c0,1.7 1.3,3 3,3l194.4,0c1.7,0 3,-1.3 3,-3c0,-1.7 -1.3,-3 -3,-3Z" style="fill:#9eb1db;fill-rule:nonzero;"/><path d="M731.8,571.1l166.1,0c1.9,0 3.5,-1.6 3.5,-3.5c0,-1.9 -1.6,-3.5 -3.5,-3.5l-166.1,0c-1.9,0 -3.5,1.6 -3.5,3.5c0,1.9 1.5,3.5 3.5,3.5Z" style="fill:#9eb1db;fill-rule:nonzero;"/><path d="M900.8,641.6c0,-1.7 -1.3,-3 -3,-3l-166.1,0c-1.7,0 -3,1.3 -3,3c0,1.7 1.3,3 3,3l166.1,0c1.7,0 3,-1.4 3,-3Z" style="fill:#9eb1db;fill-rule:nonzero;"/><path d="M689.1,595.2l251.5,0c1.7,0 3,-1.3 3,-3c0,-1.7 -1.3,-3 -3,-3l-251.5,0c-1.7,0 -3,1.3 -3,3c0,1.7 1.3,3 3,3Z" style="fill:#9eb1db;fill-rule:nonzero;"/><path d="M689.1,619.9l251.5,0c1.7,0 3,-1.3 3,-3c0,-1.7 -1.3,-3 -3,-3l-251.5,0c-1.7,0 -3,1.3 -3,3c0,1.7 1.3,3 3,3Z" style="fill:#9eb1db;fill-rule:nonzero;"/><path d="M978.4,0l-329.7,0c-31.3,0.1 -56.6,25.4 -56.6,56.7l0,691.4c0,31.3 25.4,56.6 56.6,56.6l329.7,0c31.3,0 56.6,-25.4 56.6,-56.6l0,-691.4c0,-31.3 -25.4,-56.7 -56.6,-56.7Zm13.6,70l-32.3,0c-1.7,0 -3,-1.3 -3,-3c0,-1.7 1.3,-3 3,-3l32.3,0c1.7,0 3,1.3 3,3c0,1.7 -1.3,3 -3,3Zm-112.1,-13c0,5.5 -4.5,10 -10,10l-112.8,0c-5.5,0 -10,-4.5 -10,-10c0,-5.5 4.5,-10 10,-10l112.8,0c5.5,0 10,4.5 10,10Zm-244.9,3c-1.7,0 -3,-1.3 -3,-3c0,-1.7 1.3,-3 3,-3l7.1,0l0,-7.1c0,-1.7 1.3,-3 3,-3c1.7,0 3,1.3 3,3l0,7.1l7.1,0c1.7,0 3,1.3 3,3c0,1.7 -1.3,3 -3,3l-7.1,0l0,7.1c0,1.7 -1.3,3 -3,3c-1.7,0 -3,-1.3 -3,-3l0,-7.1l-7.1,0Zm357,0l-32.3,0c-1.7,0 -3,-1.3 -3,-3c0,-1.7 1.3,-3 3,-3l32.3,0c1.7,0 3,1.3 3,3c0,1.7 -1.3,3 -3,3Zm0,-10l-32.3,0c-1.7,0 -3,-1.3 -3,-3c0,-1.7 1.3,-3 3,-3l32.3,0c1.7,0 3,1.3 3,3c0,1.7 -1.3,3 -3,3Zm37,698.1c0,27.9 -22.7,50.6 -50.6,50.6l-329.7,0c-27.9,0 -50.6,-22.7 -50.6,-50.6l0,-657.6l431,0l0,657.6l-0.1,0Z" style="fill:#1580f2;fill-rule:nonzero;"/><path d="M946.7,416.4c-7.5,14.7 -14,27.4 -23.1,27.4c-10.4,0 -15.6,-10.5 -20.7,-20.6c-4.7,-9.5 -9.6,-19.2 -19.1,-19.2c-7.7,0 -11.7,6.6 -16.4,14.2c-7.9,12.8 -17.8,28.8 -49.4,28.8c-24.6,0 -41.4,-26.4 -57.7,-51.9c-16.9,-26.4 -34.3,-53.7 -61.2,-53.7c-27.4,0 -38.1,19.9 -48.4,39.1c-9.8,18.1 -19,35.1 -41.7,35.1c-1.7,0 -3,1.3 -3,3c0,1.7 1.3,3 3,3c26.3,0 36.8,-19.5 47,-38.3c10,-18.5 19.4,-35.9 43.2,-35.9c23.6,0 39.4,24.7 56.1,50.9c17.2,26.9 34.9,54.7 62.8,54.7c35,0 46.7,-19.1 54.5,-31.7c4.5,-7.2 7.2,-11.3 11.3,-11.3c5.8,0 9.5,7.4 13.8,15.9c5.6,11.2 11.9,23.9 26.1,23.9c12.7,0 20,-14.2 28.4,-30.6c12.4,-24.1 27.8,-54.1 66,-54.1c1.7,0 3,-1.3 3,-3c0,-1.7 -1.3,-3 -3,-3c-42,-0.1 -59,33.1 -71.5,57.3Z" style="fill:#f37a78;fill-rule:nonzero;"/><path d="M1008.6,504.6c1.7,0 3,-1.3 3,-3c0,-1.7 -1.3,-3 -3,-3l-392.3,0c-1.7,0 -3,1.3 -3,3c0,1.7 1.3,3 3,3l392.3,0Z" style="fill:#fff;fill-rule:nonzero;"/><path d="M673.3,306.9c0.5,0 1,-0.1 1.5,-0.4l10.3,-6c1.4,-0.9 1.8,-2.7 0.9,-4.1c-0.8,-1.3 -2.5,-1.8 -3.9,-1l-10.3,6c-1.4,0.8 -1.9,2.7 -1.1,4.1c0.5,0.9 1.5,1.5 2.6,1.4Z" style="fill:#9eb1db;fill-rule:nonzero;"/><path d="M652.6,318.9c0.5,0 1,-0.1 1.5,-0.4l10.3,-6c1.4,-0.9 1.8,-2.7 0.9,-4.1c-0.8,-1.3 -2.5,-1.8 -3.9,-1l-10.3,6c-1.4,0.8 -1.9,2.7 -1.1,4.1c0.5,0.8 1.5,1.4 2.6,1.4Z" style="fill:#9eb1db;fill-rule:nonzero;"/><path d="M631.9,330.9c0.5,0 1,-0.1 1.5,-0.4l10.3,-6c1.4,-0.8 1.9,-2.7 1.1,-4.1c-0.8,-1.4 -2.7,-1.9 -4.1,-1.1l-10.3,6c-1.4,0.8 -1.9,2.7 -1.1,4.1c0.5,0.9 1.5,1.5 2.6,1.5Z" style="fill:#9eb1db;fill-rule:nonzero;"/><path d="M616.3,339.9c0.5,0 1,-0.1 1.5,-0.4l5.2,-3c1.5,-0.8 2,-2.6 1.3,-4c-0.7,-1.4 -2.6,-2 -4,-1.3c-0.1,0 -0.1,0.1 -0.2,0.1l-5.2,3c-1.4,0.8 -1.9,2.7 -1.1,4.1c0.5,0.9 1.5,1.5 2.5,1.5Z" style="fill:#9eb1db;fill-rule:nonzero;"/><path d="M1003.1,319c0.4,0 0.8,-0.1 1.2,-0.2l5.5,-2.3c1.5,-0.6 2.3,-2.3 1.7,-3.9c-0.6,-1.6 -2.3,-2.3 -3.9,-1.7c-0.1,0 -0.1,0 -0.2,0.1l-5.5,2.3c-1.5,0.6 -2.3,2.4 -1.6,3.9c0.5,1 1.6,1.8 2.8,1.8Z" style="fill:#9eb1db;fill-rule:nonzero;"/><path d="M899.4,362.4c0.4,0 0.8,-0.1 1.2,-0.2l10.4,-4.4c1.5,-0.7 2.2,-2.5 1.5,-4c-0.7,-1.4 -2.3,-2.1 -3.8,-1.6l-10.4,4.4c-1.5,0.6 -2.2,2.4 -1.6,3.9c0.4,1.2 1.5,2 2.7,1.9Z" style="fill:#9eb1db;fill-rule:nonzero;"/><path d="M940.9,345.1c0.4,0 0.8,-0.1 1.2,-0.2l10.4,-4.4c1.5,-0.6 2.3,-2.3 1.7,-3.9c-0.6,-1.6 -2.3,-2.3 -3.9,-1.7c-0.1,0 -0.1,0 -0.2,0.1l-10.4,4.4c-1.5,0.6 -2.2,2.4 -1.6,3.9c0.5,1 1.6,1.7 2.8,1.8Z" style="fill:#9eb1db;fill-rule:nonzero;"/><path d="M961.6,336.4c0.4,0 0.8,-0.1 1.2,-0.2l10.4,-4.3c1.5,-0.6 2.3,-2.4 1.6,-3.9c-0.6,-1.5 -2.4,-2.3 -3.9,-1.6l-10.4,4.4c-1.5,0.6 -2.3,2.4 -1.6,3.9c0.4,0.9 1.5,1.7 2.7,1.7Z" style="fill:#9eb1db;fill-rule:nonzero;"/><path d="M982.4,327.7c0.4,0 0.8,-0.1 1.2,-0.2l10.4,-4.4c1.5,-0.6 2.3,-2.3 1.7,-3.9c-0.6,-1.6 -2.3,-2.3 -3.9,-1.7c-0.1,0 -0.1,0 -0.2,0.1l-10.4,4.4c-1.5,0.6 -2.2,2.4 -1.6,3.9c0.5,1.1 1.6,1.8 2.8,1.8Z" style="fill:#9eb1db;fill-rule:nonzero;"/><path d="M920.2,353.7c0.4,0 0.8,-0.1 1.2,-0.2l10.4,-4.3c1.5,-0.6 2.2,-2.4 1.6,-3.9c-0.6,-1.5 -2.4,-2.2 -3.9,-1.6l-10.4,4.4c-1.5,0.6 -2.3,2.4 -1.6,3.9c0.3,1 1.4,1.8 2.7,1.7Z" style="fill:#9eb1db;fill-rule:nonzero;"/><path d="M853.7,356.9l11.6,4.8c1.5,0.6 3.3,-0.1 3.9,-1.6c0.6,-1.5 -0.1,-3.3 -1.6,-3.9l-11.6,-4.8c-1.5,-0.6 -3.3,0.2 -3.9,1.7c-0.5,1.5 0.1,3.1 1.6,3.8Z" style="fill:#9eb1db;fill-rule:nonzero;"/><path d="M830.6,347.2l11.6,4.8c0.4,0.2 0.8,0.2 1.2,0.2c1.7,0 3,-1.3 3,-3c0,-1.2 -0.7,-2.3 -1.8,-2.8l-11.6,-4.8c-1.5,-0.6 -3.3,0.1 -3.9,1.6c-0.7,1.6 0,3.4 1.5,4Z" style="fill:#9eb1db;fill-rule:nonzero;"/><path d="M782.8,324c-0.6,1.5 0.1,3.3 1.6,3.9l11.6,4.8c0.4,0.2 0.8,0.2 1.2,0.2c1.7,0 3,-1.3 3,-3c0,-1.2 -0.7,-2.3 -1.8,-2.8l-11.6,-4.8c-1.6,-0.6 -3.3,0.1 -4,1.7c0,-0.1 0,-0.1 0,0Z" style="fill:#9eb1db;fill-rule:nonzero;"/><path d="M807.5,337.6l11.6,4.8c0.4,0.2 0.8,0.2 1.2,0.2c1.7,0 3,-1.4 3,-3c0,-1.2 -0.7,-2.3 -1.8,-2.7l-11.6,-4.8c-1.5,-0.6 -3.3,0.1 -3.9,1.6c-0.8,1.5 0,3.2 1.5,3.9Z" style="fill:#9eb1db;fill-rule:nonzero;"/><path d="M738.2,308.6l11.6,4.8c1.5,0.7 3.3,0 4,-1.5c0.7,-1.5 0,-3.3 -1.5,-4c-0.1,0 -0.1,-0.1 -0.2,-0.1l-11.6,-4.8c-1.5,-0.7 -3.3,-0.1 -4,1.4c-0.7,1.5 -0.1,3.3 1.4,4c0.1,0.1 0.2,0.1 0.3,0.2Z" style="fill:#9eb1db;fill-rule:nonzero;"/><path d="M715.1,298.9l11.6,4.8c0.4,0.1 0.8,0.2 1.2,0.2c1.7,0 3,-1.3 3,-3c0,-1.2 -0.7,-2.3 -1.8,-2.8l-11.6,-4.8c-1.5,-0.7 -3.3,0 -4,1.5c-0.7,1.5 0,3.3 1.5,4c0,0 0,0.1 0.1,0.1Z" style="fill:#9eb1db;fill-rule:nonzero;"/><path d="M761.3,318.2l11.6,4.8c1.5,0.6 3.3,-0.2 3.9,-1.7c0.6,-1.5 -0.1,-3.1 -1.6,-3.8l-11.6,-4.8c-1.5,-0.6 -3.3,0.1 -3.9,1.6c-0.7,1.5 0.1,3.3 1.6,3.9Z" style="fill:#9eb1db;fill-rule:nonzero;"/><path d="M699.1,294.1c2.8,0 5.1,-2.3 5.2,-5.1c0,-2.8 -2.3,-5.1 -5.1,-5.1c-2.8,0 -5.1,2.3 -5.2,5.1c0,2.8 2.3,5.1 5.1,5.1Z" style="fill:#453b69;fill-rule:nonzero;"/><path d="M699.1,300.1c6.2,0 11.1,-5 11.1,-11.1c0,-6.1 -5,-11.1 -11.1,-11.1c-6.1,0 -11.1,5 -11.1,11.1c0,6.1 5,11.1 11.1,11.1Zm0,-16.3c2.8,0 5.1,2.3 5.2,5.1c0,2.8 -2.3,5.1 -5.1,5.1c-2.8,0 -5.1,-2.3 -5.2,-5.1c0,-2.8 2.3,-5.1 5.1,-5.1Z" style="fill:#9eb1db;fill-rule:nonzero;"/><path d="M883.5,371.2c2.8,0 5.1,-2.3 5.1,-5.1c0,-2.8 -2.3,-5.1 -5.1,-5.1c-2.8,0 -5.1,2.3 -5.1,5.1c0,2.8 2.3,5.1 5.1,5.1l0,0Z" style="fill:#453b69;fill-rule:nonzero;"/><path d="M883.5,377.2c6.1,0 11.1,-5 11.1,-11.1c0,-6.1 -5,-11.1 -11.1,-11.1c-6.1,0 -11.1,5 -11.1,11.1c0,6.2 5,11.1 11.1,11.1Zm0,-16.2c2.8,0 5.1,2.3 5.1,5.1c0,2.8 -2.3,5.1 -5.1,5.1c-2.8,0 -5.1,-2.3 -5.1,-5.1c0,-2.8 2.3,-5.1 5.1,-5.1l0,0Z" style="fill:#9eb1db;fill-rule:nonzero;"/><path d="M839.5,183.9l0,-0.7c-0.1,-14.4 -11.9,-25.9 -26.3,-25.7c-12.2,0.1 -22.7,8.7 -25.2,20.6c-0.3,1.7 -0.5,3.4 -0.5,5.1l0,0.7c0,0.9 0.4,1.8 1.2,2.4l0.1,0.1c4.2,2.9 8.8,5 13.7,6.2l0.2,0c0.6,0.1 1.2,0.3 1.8,0.4l0.3,0.1c1.3,0.3 2.7,0.5 4,0.6l0.5,0c0.5,0 1,0.1 1.6,0.1l5.2,0c0.5,0 1,-0.1 1.5,-0.1l0.5,0c1.3,-0.1 2.7,-0.4 4,-0.6l0.3,-0.1c0.6,-0.1 1.2,-0.3 1.8,-0.4l0.2,0c4.9,-1.3 9.5,-3.4 13.7,-6.2l0.1,-0.1c0.8,-0.5 1.2,-1.4 1.3,-2.4Z" style="fill:#453b69;fill-rule:nonzero;"/><rect x="6" y="520.8" width="431.1" height="6" style="fill:#1580f2;"/><rect x="6" y="254.4" width="431.1" height="6" style="fill:#1580f2;"/><rect x="6" y="87.4" width="431.1" height="6" style="fill:#1580f2;"/><path d="M196,178.1c2.9,-14.1 16.6,-23.1 30.7,-20.2c10.2,2.1 18.1,10 20.2,20.2c15.3,-14.1 16.4,-37.9 2.3,-53.2c-14.1,-15.3 -37.9,-16.4 -53.2,-2.3c-15.3,14.1 -16.4,37.9 -2.3,53.2c0.7,0.8 1.5,1.6 2.3,2.3Zm25.5,-55.7c8.6,0 15.5,6.9 15.6,15.5c0.1,8.6 -6.9,15.5 -15.5,15.6c-8.6,0 -15.5,-6.9 -15.6,-15.5c0,-8.6 6.9,-15.6 15.5,-15.6Z" style="fill:#fff;fill-rule:nonzero;"/><path d="M221.5,163.3c-10.7,0 -19.5,8.4 -20,19.1l0.3,0.2c0.5,0.3 1.1,0.7 1.7,1c0.3,0.2 0.6,0.3 1,0.5l1.1,0.5l1,0.5c0.5,0.2 1,0.4 1.5,0.6c0.5,0.2 0.8,0.3 1.2,0.4l1.5,0.5l0.9,0.2c0.5,0.1 1,0.3 1.6,0.4l0.7,0.2c0.7,0.1 1.5,0.3 2.2,0.4l0.7,0.1c0.6,0.1 1.2,0.1 1.8,0.2l0.7,0c0.8,0 1.6,0.1 2.4,0.1c0.8,0 1.6,0 2.4,-0.1l0.7,0c0.6,0 1.2,-0.1 1.8,-0.2l0.7,-0.1c0.7,-0.1 1.5,-0.2 2.2,-0.4l0.7,-0.2c0.5,-0.1 1,-0.2 1.6,-0.4l0.9,-0.2c0.5,-0.1 1,-0.3 1.5,-0.5l1.1,-0.4l1.5,-0.6l1,-0.5l1.1,-0.5c0.3,-0.2 0.6,-0.3 1,-0.5c0.6,-0.3 1.1,-0.6 1.7,-1l0.3,-0.2c-1,-10.8 -9.8,-19.2 -20.5,-19.1Z" style="fill:#fff;fill-rule:nonzero;"/><path d="M196.7,186.3l0.1,0.1c4.2,2.9 8.8,5 13.7,6.3l0.2,0c0.6,0.1 1.2,0.3 1.8,0.4l0.3,0.1c1.3,0.3 2.7,0.5 4,0.6l0.5,0c0.5,0 1,0.1 1.5,0.1l5.2,0c0.5,0 1,-0.1 1.5,-0.1l0.5,0c1.3,-0.1 2.7,-0.4 4,-0.6l0.3,-0.1c0.6,-0.1 1.2,-0.3 1.8,-0.4l0.2,0c4.9,-1.3 9.5,-3.4 13.7,-6.2l0.1,-0.1c19.8,-13.7 24.8,-40.9 11.1,-60.7c-13.7,-19.8 -40.9,-24.8 -60.7,-11.1c-19.8,13.7 -24.8,40.9 -11.1,60.7c3.1,4.2 6.9,8 11.3,11Zm42.7,-2.8c-0.3,0.2 -0.6,0.3 -1,0.5l-1.1,0.5l-1,0.5l-1.5,0.6l-1.1,0.4c-0.5,0.2 -1,0.3 -1.5,0.5l-0.9,0.2c-0.5,0.1 -1,0.3 -1.6,0.4l-0.7,0.2c-0.7,0.1 -1.5,0.3 -2.2,0.4l-0.7,0.1c-0.6,0.1 -1.2,0.1 -1.8,0.2l-0.7,0c-0.8,0 -1.6,0.1 -2.4,0.1c-0.8,0 -1.6,0 -2.4,-0.1l-0.7,0c-0.6,0 -1.2,-0.1 -1.8,-0.2l-0.6,0c-0.7,-0.1 -1.5,-0.2 -2.2,-0.4l-0.7,-0.2c-0.5,-0.1 -1,-0.2 -1.6,-0.4l-0.9,-0.2l-1.5,-0.5c-0.4,-0.1 -0.8,-0.3 -1.2,-0.4c-0.4,-0.1 -1,-0.4 -1.5,-0.6l-1,-0.5l-1.1,-0.5c-0.3,-0.2 -0.7,-0.3 -1,-0.5c-0.6,-0.3 -1.1,-0.6 -1.7,-1l-0.3,-0.2c0.7,-11 10.3,-19.4 21.3,-18.6c10,0.7 17.9,8.6 18.6,18.6l-0.3,0.2c0,0.3 -0.6,0.6 -1.2,0.9Zm-17.9,-70.8c20.8,0 37.7,16.8 37.7,37.6c0,10.6 -4.4,20.7 -12.2,27.8c-2.9,-14.1 -16.6,-23.1 -30.7,-20.2c-10.2,2.1 -18.1,10 -20.2,20.2c-15.3,-14 -16.4,-37.9 -2.3,-53.2c7.1,-7.8 17.1,-12.2 27.7,-12.2Z" style="fill:#1580f2;fill-rule:nonzero;"/><path d="M221.5,147.5c5.3,0 9.5,-4.3 9.5,-9.5c0,-5.3 -4.3,-9.5 -9.5,-9.5c-5.3,0 -9.5,4.3 -9.5,9.5c0,5.2 4.3,9.5 9.5,9.5Z" style="fill:#fff;fill-rule:nonzero;"/><path d="M221.5,153.5c8.6,0 15.5,-6.9 15.5,-15.5c0,-8.6 -6.9,-15.5 -15.5,-15.5c-8.6,0 -15.5,6.9 -15.5,15.5c0,8.5 6.9,15.4 15.5,15.5Zm0,-25c5.3,0 9.5,4.3 9.5,9.5c0,5.3 -4.3,9.5 -9.5,9.5c-5.3,0 -9.5,-4.3 -9.5,-9.5c0,-5.3 4.2,-9.6 9.5,-9.5c0,-0.1 0,-0.1 0,0Z" style="fill:#1580f2;fill-rule:nonzero;"/><path d="M122.1,713.1c1.2,1.2 3.1,1.2 4.2,0l8.5,-8.5l8.5,8.5c1.2,1.2 3.1,1.2 4.2,0c1.1,-1.2 1.2,-3.1 0,-4.2l-8.5,-8.5l8.5,-8.5c1.1,-1.2 1.1,-3.1 -0.1,-4.2c-1.2,-1.1 -2.9,-1.1 -4.1,0l-8.5,8.5l-8.5,-8.5c-1.2,-1.2 -3.1,-1.2 -4.2,0c-1.1,1.2 -1.2,3.1 0,4.2l8.5,8.5l-8.5,8.5c-1.2,1.1 -1.2,3 0,4.2l0,0Z" style="fill:#1580f2;fill-rule:nonzero;"/><path d="M296,698.2c-1.2,-1.2 -3.1,-1.2 -4.2,0c-1.1,1.2 -1.2,3.1 0,4.2l10.7,10.7c0.6,0.6 1.3,0.9 2.1,0.9c0.8,0 1.6,-0.3 2.1,-0.9l21.4,-21.3c1.1,-1.2 1.1,-3.1 -0.1,-4.2c-1.2,-1.1 -2.9,-1.1 -4.1,0l-19.3,19.1l-8.6,-8.5Z" style="fill:#1580f2;fill-rule:nonzero;"/><path d="M111.4,726.2c0,1.7 1.3,3 3,3l42.1,0c1.7,0 3,-1.3 3,-3c0,-1.7 -1.3,-3 -3,-3l-42.1,0c-1.6,0 -3,1.4 -3,3Z" style="fill:#1580f2;fill-rule:nonzero;"/><path d="M286.2,726.2c0,1.7 1.3,3 3,3l42.1,0c1.7,0 3,-1.3 3,-3c0,-1.7 -1.3,-3 -3,-3l-42.1,0c-1.7,0 -3,1.4 -3,3Z" style="fill:#1580f2;fill-rule:nonzero;"/><path d="M51.1,770.6l194.5,0c1.7,0 3,-1.3 3,-3c0,-1.7 -1.3,-3 -3,-3l-194.5,0c-1.7,0 -3,1.3 -3,3c0,1.7 1.3,3 3,3Z" style="fill:#1580f2;fill-rule:nonzero;"/><path d="M51.1,570.6l166.1,0c1.7,0 3,-1.3 3,-3c0,-1.7 -1.3,-3 -3,-3l-166.1,0c-1.7,0 -3,1.3 -3,3c0,1.7 1.3,3 3,3Z" style="fill:#1580f2;fill-rule:nonzero;"/><path d="M51.1,644.6l166.1,0c1.7,0 3,-1.3 3,-3c0,-1.7 -1.3,-3 -3,-3l-166.1,0c-1.7,0 -3,1.3 -3,3c0,1.7 1.3,3 3,3Z" style="fill:#1580f2;fill-rule:nonzero;"/><path d="M51.1,595.2l251.5,0c1.7,0 3,-1.3 3,-3c0,-1.7 -1.3,-3 -3,-3l-251.5,0c-1.7,0 -3,1.3 -3,3c0,1.7 1.3,3 3,3Z" style="fill:#1580f2;fill-rule:nonzero;"/><path d="M51.1,619.9l251.5,0c1.7,0 3,-1.3 3,-3c0,-1.7 -1.3,-3 -3,-3l-251.5,0c-1.7,0 -3,1.3 -3,3c0,1.7 1.3,3 3,3Z" style="fill:#1580f2;fill-rule:nonzero;"/><path d="M386.4,0l-329.8,0c-31.3,0 -56.6,25.4 -56.6,56.7l0,691.4c0,31.3 25.4,56.6 56.6,56.6l329.7,0c31.3,0 56.6,-25.4 56.6,-56.6l0,-691.4c0.1,-31.3 -25.2,-56.6 -56.5,-56.7Zm50.6,87.4l0,660.7c0,27.9 -22.7,50.6 -50.6,50.6l-329.8,0c-27.9,0 -50.6,-22.7 -50.6,-50.6l0,-691.4c0,-28 22.7,-50.6 50.7,-50.6l329.7,0c27.9,0 50.6,22.7 50.6,50.6l0,30.7Z" style="fill:#1580f2;fill-rule:nonzero;"/><path d="M283.4,53l-123.8,0c-2.2,0 -4,1.8 -4,4c0,2.2 1.8,4 4,4l123.8,0c2.2,0 4,-1.8 4,-4c0,-2.2 -1.8,-4 -4,-4Z" style="fill:#1580f2;fill-rule:nonzero;"/><path d="M80.4,53l-37.4,0c-2.2,0 -4,1.8 -4,4c0,2.2 1.8,4 4,4l37.4,0c2.2,0 4,-1.8 4,-4c0,-2.2 -1.8,-4 -4,-4Z" style="fill:#1580f2;fill-rule:nonzero;"/><path d="M169.8,448.5l106.1,0c1.7,0 3,-1.3 3,-3c0,-1.7 -1.3,-3 -3,-3l-106.1,0c-1.7,0 -3,1.3 -3,3c0,1.7 1.4,3 3,3Z" style="fill:#1580f2;fill-rule:nonzero;"/><path d="M221.5,413.8c20.8,0 37.7,-16.8 37.7,-37.6c0,-20.8 -16.8,-37.7 -37.6,-37.7c-19.7,0 -36,15.1 -37.6,34.7l14.8,0c1.5,-10.6 10.6,-18.5 21.3,-18.5l7.9,0c1.7,0 3,1.3 3,3l0,5l12.6,0c1.7,0 3,1.3 3,3c0,1.7 -1.3,3 -3,3l-12.6,0l0,15l12.6,0c1.7,0 3,1.3 3,3c0,1.7 -1.3,3 -3,3l-12.6,0l0,5c0,1.7 -1.3,3 -3,3l-8,0c-10.7,0 -19.8,-7.9 -21.3,-18.5l-14.7,0c1.6,19.5 17.9,34.6 37.5,34.6Z" style="fill:#fff;fill-rule:nonzero;"/><path d="M221.5,419.8c24.1,0 43.7,-19.6 43.7,-43.7c0,-24.1 -19.6,-43.7 -43.7,-43.7c-24.1,0 -43.7,19.6 -43.7,43.7c0.1,24.1 19.6,43.7 43.7,43.7Zm-1.4,-22.2l7.9,0c1.7,0 3,-1.3 3,-3l0,-5l12.6,0c1.7,0 3,-1.3 3,-3c0,-1.7 -1.3,-3 -3,-3l-12.6,0l0,-15l12.6,0c1.7,0 3,-1.3 3,-3c0,-1.7 -1.3,-3 -3,-3l-12.6,0l0,-5c0,-1.7 -1.3,-3 -3,-3l-8,0c-10.7,0 -19.8,7.9 -21.3,18.5l-14.7,0c1.7,-20.7 19.8,-36.2 40.6,-34.6c20.8,1.6 36.2,19.8 34.6,40.6c-1.7,20.7 -19.8,36.2 -40.6,34.6c-18.4,-1.5 -33.1,-16.1 -34.6,-34.6l14.8,0c1.5,10.6 10.6,18.5 21.3,18.5Z" style="fill:#1580f2;fill-rule:nonzero;"/><path d="M399.9,53l-37.4,0c-2.2,0 -4,1.8 -4,4c0,2.2 1.8,4 4,4l37.4,0c2.2,0 4,-1.8 4,-4c0,-2.2 -1.8,-4 -4,-4Z" style="fill:#1580f2;fill-rule:nonzero;"/><path d="M36.4,239.3l60.8,0c1.7,0 3,-1.3 3,-3c0,-1.7 -1.3,-3 -3,-3l-60.8,0c-1.7,0 -3,1.3 -3,3c0,1.7 1.3,3 3,3Z" style="fill:#1580f2;fill-rule:nonzero;"/><path d="M139.5,239.3l60.8,0c1.7,0 3,-1.3 3,-3c0,-1.7 -1.3,-3 -3,-3l-60.8,0c-1.7,0 -3,1.3 -3,3c0,1.7 1.4,3 3,3Z" style="fill:#1580f2;fill-rule:nonzero;"/><path d="M239.7,236.3c0,1.7 1.3,3 3,3l60.8,0c1.7,0 3,-1.3 3,-3c0,-1.7 -1.3,-3 -3,-3l-60.8,0c-1.7,0 -3,1.3 -3,3Z" style="fill:#1580f2;fill-rule:nonzero;"/><path d="M345.9,239.3l60.8,0c1.7,0 3,-1.3 3,-3c0,-1.7 -1.3,-3 -3,-3l-60.8,0c-1.7,0 -3,1.3 -3,3c0,1.7 1.3,3 3,3Z" style="fill:#1580f2;fill-rule:nonzero;"/><path d="M169.8,226.1c5.6,0 10,-4.5 10,-10c0,-5.6 -4.5,-10.1 -10,-10.1c-5.6,0 -10,4.5 -10,10c0,5.5 4.5,10 10,10.1Z" style="fill:#1580f2;fill-rule:nonzero;"/></svg>